<svg viewBox="0 0 22 20" version="1.1" xmlns="http://www.w3.org/2000/svg" xmlns:xlink="http://www.w3.org/1999/xlink">
    <g id="Page-1" stroke="none" stroke-width="1" fill="none" fill-rule="evenodd">
        <g id="icons" transform="translate(-100.000000, -981.000000)" fill="#585F73">
            <g id="-fa-adress" transform="translate(100.000000, 980.000000)">
                <path d="M5.76063398,1 C8.80965785,1 11.4728228,3.48500523 11.5134395,6.57464582 C11.5313838,8.01587983 10.3553314,10.2047625 9.09032958,12.1370898 L13.418641,7.81724075 L15.3100881,5.91194699 C15.549173,5.68578567 15.9165697,5.68578567 16.1418079,5.91194699 L18.8529745,8.64988366 C19.0782127,8.88989159 19.0782127,9.25728835 18.8529745,9.48252657 L9.39481566,18.9397623 C9.28219655,19.0523814 9.14096111,19.1086909 8.98587906,19.1086909 L6.2479424,19.1234607 C6.09286035,19.1234607 5.95162491,19.0671511 5.8390058,18.9536089 C5.72546359,18.8409898 5.66915404,18.6849846 5.66915404,18.5299026 L5.68283125,16.2219758 C5.21235127,15.67594 0.0391287503,9.68493209 0.000443562936,6.72326612 C-0.0392500569,3.6188558 2.59068304,1.05723266 5.65816906,1.00184621 L5.70340132,1.00092311 L5.76063398,1 L5.76063398,1 Z M13.7943457,8.79850396 L6.59041526,15.9590484 L6.60518498,18.2141998 L8.77079503,18.2049688 L15.9968801,10.9770375 L13.7943457,8.79850396 Z M5.68124674,1.96003174 C3.06331405,1.99418671 0.926320324,4.1764127 0.9604753,6.82296173 C0.990937845,9.20457892 4.98706995,14.042585 5.8501754,15.0884657 C6.68651074,14.0204304 10.5829472,9.07903631 10.5515616,6.69926533 C10.5174066,4.05179319 8.29825633,1.92587676 5.68124674,1.96003174 Z M15.7116399,6.85351658 L14.4774452,8.11078891 L16.6615174,10.3050153 L17.9067894,9.06620511 L15.7116399,6.85351658 Z M5.74863359,4.13671908 C7.05667683,4.13671908 8.12748146,5.20383128 8.1450205,6.52849045 C8.16348265,7.86422692 7.10190909,8.96549409 5.78094235,8.98303313 C4.4599756,8.99964907 3.37070882,7.92699822 3.35409289,6.59126176 C3.33655385,5.25460219 4.39628119,4.15425812 5.71817104,4.13671908 L5.74863359,4.13671908 L5.74863359,4.13671908 Z M5.73109454,5.16783009 C4.93814525,5.17798427 4.30212423,5.83062123 4.31227841,6.62449363 C4.32243259,7.41098116 4.96676158,8.04238665 5.7504798,8.04238665 L5.76894195,8.04238665 L5.76894195,8.04238665 C6.56096813,8.03223247 7.19698916,7.37959551 7.18775808,6.58572311 C7.1776039,5.79369693 6.52404383,5.15767591 5.73109454,5.16783009 Z" id="Combined-Shape"></path>
                <path d="M5,20.3461653 C5,20.155082 5.15759279,20 5.36323216,20 L21.6367678,20 C21.8376026,20 22,20.1495434 22,20.3461653 L22,20.6120202 C22,20.8031035 21.8424072,20.9581855 21.6367678,20.9581855 L5.36323216,20.9581855 C5.16239745,20.9581855 5,20.8086421 5,20.6120202 L5,20.3461653 Z" id="Fill-4"></path>
            </g>
        </g>
    </g>
</svg>
