<svg width="20" height="20" viewBox="0 0 20 20" fill="none" xmlns="http://www.w3.org/2000/svg">
<path fill-rule="evenodd" clip-rule="evenodd" d="M2.58388 1.14492C2.67857 0.979214 2.85478 0.876953 3.04563 0.876953H11.6365C11.8083 0.876953 11.9695 0.959898 12.0693 1.09966L14.1148 3.96329C14.2581 4.16402 14.2447 4.43698 14.0822 4.62261L10.2545 8.99712L10.9289 9.72955C11.1559 9.34849 11.4555 8.9829 11.8458 8.67478C12.4987 8.15943 13.3719 7.8315 14.5002 7.8315C16.1493 7.8315 17.1782 8.53416 17.7465 9.46742C18.1525 10.1343 18.3045 10.8861 18.3236 11.5133H18.5911C18.8848 11.5133 19.1229 11.7514 19.1229 12.0451V18.5906C19.1229 18.8843 18.8848 19.1224 18.5911 19.1224H10.0002C9.70646 19.1224 9.46836 18.8843 9.46836 18.5906V15.0951L7.29697 12.3772L5.49132 14.4408C5.39439 14.5516 5.25589 14.6172 5.10878 14.6221C4.96167 14.627 4.81911 14.5707 4.71503 14.4666L2.66958 12.4212C2.47729 12.2289 2.46104 11.9225 2.63191 11.711L4.80724 9.0177L1.00688 4.62014C0.859409 4.44949 0.835616 4.20438 0.947518 4.00855L2.58388 1.14492ZM5.48638 8.17686L6.84878 6.49008L3.13994 2.31563L2.05776 4.20946L5.48638 8.17686ZM4.22953 1.94059H10.5234L9.06952 3.74059H5.82876L4.22953 1.94059ZM6.77376 4.80423L7.5263 5.65125L8.21043 4.80423H6.77376ZM11.6105 2.28735L3.75985 12.0073L5.06518 13.3126L13.0046 4.23899L11.6105 2.28735ZM8.0086 11.5639L9.46836 13.3911V12.0451C9.46836 11.7514 9.70646 11.5133 10.0002 11.5133H10.322C10.351 11.2878 10.3989 11.0471 10.4695 10.8009L9.55003 9.80226L8.0086 11.5639ZM10.532 12.577V18.0588H18.0593V12.577H10.532ZM17.2595 11.5133H11.397C11.4319 11.3046 11.488 11.0789 11.571 10.8506C11.7511 10.3547 12.0489 9.86962 12.5049 9.50964C12.9544 9.15477 13.5904 8.89513 14.5002 8.89513C15.7965 8.89513 16.4721 9.41975 16.838 10.0206C17.1237 10.4898 17.2408 11.0421 17.2595 11.5133Z" fill="#FF5F5C"/>
<path d="M15.7274 14.9088C15.7274 15.8125 14.9948 16.5451 14.0911 16.5451C13.1873 16.5451 12.4547 15.8125 12.4547 14.9088C12.4547 14.005 13.1873 13.2724 14.0911 13.2724C14.9948 13.2724 15.7274 14.005 15.7274 14.9088ZM13.386 14.9088C13.386 15.2982 13.7017 15.6138 14.0911 15.6138C14.4805 15.6138 14.7961 15.2982 14.7961 14.9088C14.7961 14.5194 14.4805 14.2037 14.0911 14.2037C13.7017 14.2037 13.386 14.5194 13.386 14.9088Z" fill="#FF5F5C"/>
</svg>
