
<svg viewBox="0 0 22 22" version="1.1" xmlns="http://www.w3.org/2000/svg" xmlns:xlink="http://www.w3.org/1999/xlink">

    <g id="Page-1" stroke="none" stroke-width="1" fill="none" fill-rule="evenodd">
        <g id="icons" transform="translate(-443.000000, -94.000000)" fill="#646B7D">
            <g id="fa-alarm" transform="translate(443.000000, 94.000000)">
                <path d="M18.8188777,11.0026298 L18.8188777,7.58406881 C18.8375731,4.97776762 16.8328078,3.24910234 15.1102139,2.560753 C14.6167399,2.36348447 14.1080486,2.21144706 13.5910966,2.09855929 L13.5910966,1.88038562 C13.5910966,0.832467813 12.8666448,0 10.9999998,0 C9.1333548,0 8.2612429,0.83208772 8.2612429,1.88000552 L8.2612429,2.13124733 C7.79559473,2.24109436 7.33777259,2.38438961 6.89342859,2.56379375 C4.98953193,3.33082245 3.06085288,5.17959728 3.04346173,7.58140816 L3.04346173,11.0022497 C3.04346173,13.4302871 2.0626006,16.6547692 0.128269429,18.3355427 C0.0130530292,18.4358874 -0.0286857419,18.5837437 0.0200094911,18.7194371 C0.0687047241,18.8551305 0.200442721,18.9554752 0.360876122,18.9798012 L4.48736234,19.6027744 C5.25605138,19.7187029 5.84795571,19.8125866 6.52142817,19.8908858 C7.28055207,21.1908056 9.13378507,22 10.9999998,22 C12.8662145,22 14.6150008,21.1915653 15.3732551,19.8908853 C16.0441189,19.8129661 16.7484607,19.7183229 17.5128019,19.6027744 L21.6388534,18.9798012 C21.7992868,18.9558553 21.93059,18.8551305 21.97972,18.7194371 C22.02885,18.5841238 21.9871113,18.4362674 21.8718949,18.3359228 C19.8458253,16.5757097 18.8188777,13.3512276 18.8188777,11.0026298 Z M10.9573975,0.992553709 C11.5953689,0.992553709 12.3713989,1.25230679 12.3713989,1.88098146 L12.3713989,1.95015848 C11.6026704,1.84145173 10.3090389,1.82814846 9.543396,1.95015848 L9.543396,1.86311706 C9.543396,1.2344424 10.319426,0.992553709 10.9573975,0.992553709 Z M8.26391602,20.0522461 C9.92163086,20.2247314 12.8726163,20.1408079 13.7381592,20.0522461 C13.1518735,20.8348586 11.9814258,21.0395084 11.0047972,21.0395084 C10.0281686,21.0395084 8.84981602,20.8340984 8.26391602,20.0522461 Z M17.070397,18.5155301 C16.0332144,18.7447248 13.0174174,18.9849852 11.0288696,18.9849852 C9.31308328,18.9849852 6.24426175,18.7590762 5.10975248,18.5155306 C2.16966156,17.8843802 1.97827148,18.0487975 1.97827148,18.0487975 C2.88505859,16.6974638 4.03317871,14.7722622 4.21569824,12.2989699 L4.21569824,8.87812868 C4.08483887,5.20983878 6.06111611,4.36517021 7.47424316,3.61450193 C8.54394531,3.04626465 12.4701008,2.69101373 14.4881592,3.61450192 C15.1793213,3.93078616 17.7954102,4.56738284 17.7954102,8.87812868 L17.7954098,12.2989702 C17.7954098,14.5920743 19.1840454,16.7221368 20.0794678,18.048797 C20.0794678,18.048797 19.641248,17.9474284 17.070397,18.5155301 Z" id="Shape"></path>
            </g>
        </g>
    </g>
</svg>
