<?xml version="1.0" encoding="UTF-8"?>
<svg viewBox="0 0 18 22" version="1.1" xmlns="http://www.w3.org/2000/svg" xmlns:xlink="http://www.w3.org/1999/xlink">

    <g id="Page-1" stroke="none" stroke-width="1" fill="none" fill-rule="evenodd">
        <g id="icons" transform="translate(-102.000000, -1099.000000)" fill="#585F73">
            <g id="fa-approved" transform="translate(100.000000, 1099.000000)">
                <g id="approved" transform="translate(2.000000, 0.000000)">
                    <path d="M17.8612105,3.96621739 L14.0717368,0.140130435 C13.9831579,0.0502173913 13.8623684,0 13.7368421,0 L12.7894737,0 L1.42105263,0 C1.42105263,0 1.42105263,0 1.42057895,0 C1.04115789,0 0.684473684,0.149217391 0.416368421,0.419913043 C0.147789474,0.691086957 0,1.05121739 0,1.43478261 L0,20.5652174 C0,21.3562609 0.637578947,22 1.42105263,22 L16.5789474,22 C17.3624211,22 18,21.3562609 18,20.5652174 L18,5.26086957 L18,4.30434783 C18,4.1776087 17.9502632,4.05565217 17.8612105,3.96621739 Z M16.5780029,20.1037598 C16.5780029,20.3677598 16.3653187,20.5820206 16.1043187,20.5820206 L1.95507812,20.5820206 C1.69407812,20.5820206 1.48139391,20.3672815 1.48139391,20.1037598 L1.48139391,1.86779785 C1.48139391,1.7401022 1.53065707,1.61958046 1.62018339,1.52918916 C1.70923602,1.43927611 1.82813076,1.38953698 1.95507812,1.38953698 L11.7921143,1.38953698 L11.7921143,2.71118164 L3.31578947,2.71118164 C3.05431579,2.71118164 2.84210526,3.08382609 2.84210526,3.34782609 C2.84210526,3.61182609 3.05431579,3.98461914 3.31578947,3.98461914 L11.7921143,3.98461914 L11.7921143,5.75672448 C11.7921143,6.02072448 12.0043248,6.23498535 12.2657985,6.23498535 L16.5780029,6.23498535 L16.5780029,20.1037598 Z M13.1478522,8.50949254 C13.4547733,8.71823365 13.5372639,9.13984507 13.3334593,9.45171803 L12.363644,10.9357824 C13.0560331,11.7532628 13.445283,12.7903257 13.445283,13.8878405 C13.445283,16.3851882 11.4519268,18.41875 9,18.41875 C6.54807322,18.41875 4.55471698,16.3851882 4.55471698,13.8878405 C4.55471698,11.3904928 6.54807322,9.35693103 9,9.35693103 C9.74449304,9.35693103 10.4627088,9.5455931 11.1028361,9.89752287 L11.3391223,10.0371001 L12.2136016,8.6989241 C12.4189557,8.38399553 12.8386743,8.29852917 13.1478522,8.50949254 Z M9,10.6693554 C7.26276584,10.6693554 5.84811321,12.1125412 5.84811321,13.8878405 C5.84811321,15.6631398 7.26276584,17.1063257 9,17.1063257 C10.7372342,17.1063257 12.1518868,15.6631398 12.1518868,13.8878405 C12.1518868,13.2186814 11.9492334,12.5801302 11.5801386,12.0442803 L9.51788379,15.1995998 C9.4025366,15.3754777 9.20831166,15.481477 9,15.481477 C8.79168834,15.481477 8.5974634,15.3754777 8.48198102,15.1993933 L7.53850311,13.7556317 C7.34969712,13.466081 7.42613549,13.075597 7.71020496,12.882398 C7.99646645,12.6868613 8.38361987,12.7661686 8.57462276,13.0574999 L9,13.7084354 L10.6661531,11.1587967 L10.4766258,11.0465259 C10.0264917,10.8007768 9.52268763,10.6693554 9,10.6693554 Z M13.4459229,1.31746773 L16.8195801,4.68786621 L16.8195801,5.02148437 L13.0301064,5.02148437 L13.0301064,1.31746773 L13.4459229,1.31746773 Z" id="Shape" fill-rule="nonzero"></path>
                </g>
            </g>
        </g>
    </g>
</svg>
