<?xml version="1.0" encoding="UTF-8"?>
<svg viewBox="0 0 22 22" version="1.1" xmlns="http://www.w3.org/2000/svg" xmlns:xlink="http://www.w3.org/1999/xlink">

    <g id="Page-1" stroke="none" stroke-width="1" fill="none" fill-rule="evenodd">
        <g id="icons" transform="translate(-36.000000, -921.000000)" fill="#585F73">
            <g id="fa-attention" transform="translate(36.000000, 921.000000)">
                <path d="M11.0000044,0.699999988 C11.4779412,0.699999988 11.9169455,0.961998768 12.141725,1.38138146 L12.141725,1.38138146 L21.8447332,19.3907526 C22.0611426,19.7893951 22.0507192,20.2718345 21.8172915,20.6608682 C21.5838638,21.0499018 21.1618457,21.2881749 20.7062469,21.2881685 L20.7062469,21.2881685 L1.30023065,21.2881685 C0.843479225,21.2904488 0.41936632,21.0530806 0.184366688,20.66364 C-0.0506329429,20.2741993 -0.0616897272,19.7904056 0.155275692,19.3907526 L0.155275692,19.3907526 L9.8582838,1.38138146 C10.0830634,0.961998768 10.5220677,0.699999988 11.0000044,0.699999988 Z M11.0032388,1.9924137 L1.30023065,20.0017848 L20.7062469,20.0017848 L11.0032388,1.9924137 Z M11.0291134,16.5735724 C11.5042625,16.5735724 11.8894468,16.9565682 11.8894468,17.4290175 C11.8894468,17.9014668 11.5042625,18.2844626 11.0291134,18.2844626 C10.5539644,18.2844626 10.1687801,17.9014668 10.1687801,17.4290175 C10.1687801,16.9565682 10.5539644,16.5735724 11.0291134,16.5735724 Z M11.0032388,6.49475647 C11.3604937,6.49475647 11.650106,6.78272326 11.650106,7.1379483 L11.650106,7.1379483 L11.650106,14.2130584 C11.650106,14.5682834 11.3604937,14.8562502 11.0032388,14.8562502 C10.6459839,14.8562502 10.3563716,14.5682834 10.3563716,14.2130584 L10.3563716,14.2130584 L10.3563716,7.1379483 C10.3563716,6.78272326 10.6459839,6.49475647 11.0032388,6.49475647 Z" id="Combined-Shape"></path>
            </g>
        </g>
    </g>
</svg>
