<?xml version="1.0" encoding="UTF-8"?>
<svg viewBox="0 0 22 12" version="1.1" xmlns="http://www.w3.org/2000/svg" xmlns:xlink="http://www.w3.org/1999/xlink">

    <g id="Page-1" stroke="none" stroke-width="1" fill="none" fill-rule="evenodd">
        <g id="icons" transform="translate(-373.000000, -1044.000000)" fill="#585F73">
            <g id="fa-back" transform="translate(373.000000, 1039.000000)">
                <path d="M20.6434631,5.7739382 L20.6434631,10.7851303 C18.6815872,7.34366714 14.9637931,5 11,5 C4.93103448,5 -2.56104177e-14,10.0305984 -3.55271368e-15,16.2414527 C-1.62702562e-30,17.2528492 1.37113953,17.2528492 1.37113953,16.2414522 C1.37113953,10.8556358 5.6654129,6.41159886 10.9810346,6.41159886 C14.867775,6.41159886 18.2554332,8.79229736 19.7726746,12.1976255 L14.1482759,12.1976254 C13.712069,12.1976254 13.3375168,12.4764948 13.3375168,12.9215093 C13.3375168,13.3665237 13.7188193,13.6057572 14.1550262,13.6057572 L21.2291641,13.6057572 C21.665371,13.6057572 22,13.2145924 22,12.7695779 L22,5.77393822 C22,5.3482722 21.7418263,5 21.324585,5 C20.8883781,5 20.6434631,5.32892372 20.6434631,5.7739382 Z" id="refresh" transform="translate(11.000000, 11.000000) scale(-1, 1) translate(-11.000000, -11.000000) "></path>
            </g>
        </g>
    </g>
</svg>
