<?xml version="1.0" encoding="UTF-8"?>
<svg viewBox="0 0 22 18" version="1.1" xmlns="http://www.w3.org/2000/svg" xmlns:xlink="http://www.w3.org/1999/xlink">

    <g id="Page-1" stroke="none" stroke-width="1" fill="none" fill-rule="evenodd">
        <g id="icons" transform="translate(-165.000000, -1101.000000)" fill="#585F73" fill-rule="nonzero">
            <g id="fa-bed" transform="translate(165.000000, 1099.000000)">
                <path d="M0.711242676,6.4762085 C1.30981445,6.4762085 1.45623779,6.97023487 1.45623779,7.23201283 L1.45623779,7.23201283 L1.45623779,9.95876557 C1.73665744,9.78572589 2.15545642,9.69255069 2.47901755,9.69255069 L2.47901755,9.69255069 L5.24007256,9.69255069 C7.00543558,9.69255069 7.848009,9.95876557 8.21899206,11.5713134 C8.29179964,11.8877852 8.30527503,12.6092931 8.21899206,12.9154402 L8.21899206,12.9154402 L21.5383861,12.9154402 C21.7929209,12.9154402 22,13.1284121 22,13.3901901 L22,13.3901901 L22,19.3042417 C22,19.5660196 21.8070679,20.0020142 21.2952271,20.0020142 C20.7833862,20.0020142 20.5208288,19.5660196 20.5208288,19.3042417 L20.5208288,19.3042417 L20.5208288,17.8076846 L1.45623779,17.8076846 L1.45623779,19.3042417 C1.45623779,19.5660196 1.27581787,20.0020142 0.711242676,20.0020142 C0.14666748,20.0020142 0,19.5660196 0,19.3042417 L0,19.3042417 L0,7.23201283 C0,6.97023487 0.112670898,6.4762085 0.711242676,6.4762085 Z M20.5563781,14.3266393 L1.48209735,14.3266393 L1.4777832,16.3467529 L20.5563781,16.3467529 L20.5563781,14.3266393 Z M5.33215266,11.0766799 L2.42172124,11.0766799 C1.91265172,11.0766799 1.50280762,11.5026237 1.50280762,12.0217428 C1.50280762,12.5408618 1.91696587,12.9668056 2.42172124,12.9668056 L2.42172124,12.9668056 L6.20263322,12.9668056 C7.00900824,12.9668056 6.75109863,11.7338684 6.67037964,11.5619934 C6.58966064,11.3901184 6.30367867,11.0766799 5.33215266,11.0766799 L5.33215266,11.0766799 Z M11.3,2 C11.6890313,2 12,2.31096871 12,2.7 L12,2.7 L12,4.4 L13.7,4.4 C14.0890313,4.4 14.4,4.71096871 14.4,5.1 C14.4,5.48903129 14.0890313,5.8 13.7,5.8 L13.7,5.8 L12,5.8 L12,7.5 C12,7.88903129 11.6890313,8.2 11.3,8.2 C10.9109687,8.2 10.6,7.88903129 10.6,7.5 L10.6,7.5 L10.6,5.8 L8.9,5.8 C8.51096871,5.8 8.2,5.48903129 8.2,5.1 C8.2,4.71096871 8.51096871,4.4 8.9,4.4 L8.9,4.4 L10.6,4.4 L10.6,2.7 C10.6,2.31096871 10.9109687,2 11.3,2 Z" id="Combined-Shape"></path>
            </g>
        </g>
    </g>
</svg>
