<?xml version="1.0" encoding="UTF-8"?>
<svg viewBox="0 0 18 22" version="1.1" xmlns="http://www.w3.org/2000/svg" xmlns:xlink="http://www.w3.org/1999/xlink">

    <g id="Page-1" stroke="none" stroke-width="1" fill="none" fill-rule="evenodd">
        <g id="icons" transform="translate(-652.000000, -744.000000)" fill="#585F73">
            <g id="fa-blood-drop-o" transform="translate(650.000000, 744.000000)">
                <path d="M11.3157,0.129286344 C11.1622,-0.0431277533 10.8572,-0.0431277533 10.7037,0.129286344 C10.3697,0.504837004 2.5248,9.37752423 2.5248,13.7625022 C2.5248,18.2616476 6.331,22 11.0097,22 C15.6884,22 19.4946,18.2617445 19.4946,13.7625991 C19.4946,9.37752423 11.6497,0.504740088 11.3157,0.129286344 L11.3157,0.129286344 Z M12.579556,9.4444809 L12.579656,11.7092361 L15.143041,11.7092361 L15.143041,14.9346619 L12.579656,14.9346619 L12.579556,17.1992493 L9.41004099,17.1992493 L9.41014099,14.9346619 L6.91990662,14.9346619 L6.91990662,11.7092361 L9.41024099,11.7092361 L9.41014099,9.4444809 L12.579556,9.4444809 Z M11.4571958,10.6611779 L10.5329557,10.6611779 L10.539739,12.8902767 L8.23995133,12.8902767 L8.23995133,13.8431549 L10.539739,13.8431549 L10.5329557,16.1432484 L11.4571958,16.1432484 L11.4639791,13.8431549 L13.8964513,13.8431549 L13.8964513,12.8902767 L11.4639791,12.8902767 L11.4571958,10.6611779 Z M12.1781921,4.89457703 C11.9924921,5.01446249 11.8782599,5.36030963 12.0020599,5.5402832 L14.4599559,9.09401703 C14.5378559,9.20721527 14.8562317,9.34754944 15.1458079,9.1888504 C15.3366514,9.08426072 15.424579,8.71740637 15.300779,8.5374328 L12.876579,5.01316848 C12.752679,4.83300108 12.3638921,4.77420698 12.1781921,4.89457703 Z" id="Combined-Shape"></path>
            </g>
        </g>
    </g>
</svg>
