<?xml version="1.0" encoding="UTF-8"?>
<svg viewBox="0 0 22 22" version="1.1" xmlns="http://www.w3.org/2000/svg" xmlns:xlink="http://www.w3.org/1999/xlink">

    <g id="Page-1" stroke="none" stroke-width="1" fill="none" fill-rule="evenodd">
        <g id="icons" transform="translate(-373.000000, -744.000000)" fill="#585F73">
            <g id="fa-book-o" transform="translate(373.000000, 744.000000)">
                <path d="M10.0012207,3.17891438e-08 L11.9309082,2.02624515 L21.0085449,2.02624515 C22.0045414,2.02624515 22.0045408,2.99075073 22.0045408,2.99075073 L22.0040168,5.18444082 C22.0032997,8.18647748 22.0019832,13.6978618 22.0009444,18.0463777 L22.0002311,21.0323484 C22.0045414,22 21.0085449,22 21.0085449,22 L21.0085449,22 L1.01550293,22 C0,22 0,20.9952393 0,20.9952393 L0.000174126017,5.06179235 C0.0031342683,4.95894645 0.0564168294,4.03333333 1.01550293,4.03333333 L1.01550293,4.03333333 L1.01567503,3.03958946 C1.01860065,2.93825503 1.07126194,2.02624515 2.01916504,2.02624515 L2.01916504,2.02624515 L2.01933596,0.957571692 C2.02224166,0.861814526 2.07454427,3.17891438e-08 3.01599121,3.17891438e-08 L3.01599121,3.17891438e-08 L10.0012207,3.17891438e-08 Z M12.0620117,9.02050781 L10.3580322,7.02600098 L20.9949951,7.02600098 L20.9949954,9.02050781 L12.0620117,9.02050781 Z M9.79321289,6.00170895 L8.09387207,3.99902341 L2.01757812,3.99902339 L2.01757812,2.99174806 L2.38424479,2.99174806 L8.7154541,2.99174806 L10.4506836,5.02465817 L21.0426025,5.02465816 L21.0426025,6.00170894 L9.79321289,6.00170895 Z M19.0241699,12.0058594 C20.0299072,12.0058592 20.0299076,13.0541992 20.0299076,13.0541992 L20.0299076,18.0167236 C20.0299072,19.0185545 18.9918213,19.0185547 18.9918213,19.0185547 L11.0136719,19.0185545 C10.0167236,19.0185545 10.0167236,18.0249023 10.0167236,18.0249023 L10.0168946,13.0149694 C10.0198006,12.9140583 10.0721096,12.0058593 11.0136719,12.0058592 L11.0136719,12.0058592 Z M9.71116667,0.983642579 L11.5444997,2.97692871 L21.0450437,2.97692868 L21.0450439,3.98864746 L11,3.98864746 L9.25610352,1.9987793 L3.03869629,1.9987793 L3.03869629,0.983642579 L9.71116667,0.983642579 Z M18.0098877,16.0009766 L18.0098877,17.0196534 L11.9973145,17.0196533 L11.9973145,16.0009766 L18.0098877,16.0009766 Z M16.0223389,14.0087891 L16.0223389,15.0031739 L12.0067139,15.0031738 L12.0067139,14.0087891 L16.0223389,14.0087891 Z" id="Combined-Shape"></path>
            </g>
        </g>
    </g>
</svg>
