<?xml version="1.0" encoding="UTF-8"?>
<svg viewBox="0 0 23 22" version="1.1" xmlns="http://www.w3.org/2000/svg" xmlns:xlink="http://www.w3.org/1999/xlink">

    <g id="Page-1" stroke="none" stroke-width="1" fill="none" fill-rule="evenodd">
        <g id="icons" transform="translate(-99.000000, -685.000000)" fill="#585F73">
            <g id="fa-bookmark-clock" transform="translate(100.000000, 685.000000)">
                <path d="M2.29614266,0 L19.69492,0.00385964912 C20.955,0.0320350877 21.9999997,1.08533333 21.9999997,2.3682807 L21.9999997,2.3682807 L21.9999995,10.0081787 L18.0101312,10.0081791 L18.0101314,21.949053 L8.53539992,17.0073242 L-0.0180573369,21.9490526 L-0.0180573369,2.35052632 C-0.0180573369,1.05407018 1.02010266,0 2.29614266,0 L2.29614266,0 Z M18.0019531,9.01879852 L18.0019531,2.84335992 C18.0019531,2.71213185 18.0152531,2.58437746 18.0399531,2.46048273 C18.1870131,1.73100904 18.668844,1.23149639 19.379444,1.05549639 C19.393124,1.0520227 19.405284,1.04584726 19.418964,1.04314551 C19.511304,1.0223034 19.608204,1.01497007 19.705104,1.00879463 C19.736644,1.00686481 19.798584,1.23012479 19.798584,0.999145508 C20.652064,1.01342621 20.996704,1.64223711 20.996704,2.50988624 L20.996704,9.01879852 L18.0019531,9.01879852 Z M9.00516796,2 C12.3126615,2 15,4.68965517 15,8 C15,11.3103448 12.3126615,14 9.00516796,14 C5.6873385,14 3,11.3103448 3,8 C3,4.68965517 5.69767442,2 9.00516796,2 Z M9,2.75 C6.10671343,2.75 3.75,5.10671343 3.75,8 C3.75,10.8932866 6.10671343,13.25 9,13.25 C11.8932866,13.25 14.25,10.8932866 14.25,8 C14.25,5.10671343 11.8932866,2.75 9,2.75 Z M8.61785889,8.75 C8.5725889,8.75 8.52922885,8.74136312 8.48917529,8.72571406 C8.48475423,8.7238282 8.48082676,8.72226499 8.47693333,8.7206387 C8.46945822,8.7174438 8.46151361,8.71366346 8.45372627,8.70960818 C8.33254336,8.649143 8.25,8.52547341 8.25,8.37672591 L8.25,5.37327409 C8.25,5.1928897 8.38318062,5.04239002 8.55116343,5.0075836 L8.625,5 C8.83210678,5 9,5.16113281 9,5.37327409 L8.99994266,8 L10.8821411,8 C11.0599086,8 11.2082249,8.13318062 11.2425264,8.30116343 L11.25,8.375 C11.25,8.58210678 11.088707,8.75 10.8821411,8.75 L8.61785889,8.75 Z" id="Combined-Shape"></path>
            </g>
        </g>
    </g>
</svg>
