<?xml version="1.0" encoding="UTF-8"?>
<svg viewBox="0 0 22 22" version="1.1" xmlns="http://www.w3.org/2000/svg" xmlns:xlink="http://www.w3.org/1999/xlink">

    <g id="Page-1" stroke="none" stroke-width="1" fill="none" fill-rule="evenodd">
        <g id="icons" transform="translate(-514.000000, -35.000000)" fill="#585F73">
            <g id="fa-book" transform="translate(514.000000, 35.000000)">
                <path d="M6.1750661,-4.57763662e-07 C6.35451552,-4.57763662e-07 6.5,0.157136261 6.5,0.35105423 L6.5,0.35105423 L6.5,21.6489449 C6.5,21.8428628 6.35451552,21.9999995 6.1750661,21.9999995 L6.1750661,21.9999995 L0.324933902,22 C0.145484482,22 0,21.8428633 0,21.6489453 L0,21.6489453 L0,0.351054688 C0,0.157136719 0.145484482,6.57437275e-15 0.324933902,6.57437275e-15 L0.324933902,6.57437275e-15 Z M5.54926689,1.01367188 L0.940620736,1.01367279 L0.940620736,21.010376 L5.54926689,21.0103751 L5.54926689,1.01367188 Z M3.20000005,17.3435391 C4.02713561,17.3435391 4.70000005,18.0164536 4.70000005,18.8435391 C4.70000005,19.6706246 4.02713561,20.3435391 3.20000005,20.3435391 C2.37286449,20.3435391 1.70000005,19.6706246 1.70000005,18.8435391 C1.70000005,18.0164536 2.37286449,17.3435391 3.20000005,17.3435391 Z M3.20000005,18.1617118 C2.82401113,18.1617118 2.51817276,18.4675501 2.51817276,18.8435391 C2.51817276,19.219528 2.82401113,19.5253663 3.20000005,19.5253663 C3.57598897,19.5253663 3.88182733,19.219528 3.88182733,18.8435391 C3.88182733,18.4675501 3.57598897,18.1617118 3.20000005,18.1617118 Z M13.8950659,-4.57763662e-07 C14.0745153,-4.57763662e-07 14.2199998,0.157136261 14.2199998,0.35105423 L14.2199998,0.35105423 L14.2199998,21.6489449 C14.2199998,21.8428628 14.0745153,21.9999995 13.8950659,21.9999995 L13.8950659,21.9999995 L8.04493369,22 C7.86548427,22 7.71999979,21.8428633 7.71999979,21.6489453 L7.71999979,21.6489453 L7.71999979,0.351054688 C7.71999979,0.157136719 7.86548427,6.57437275e-15 8.04493369,6.57437275e-15 L8.04493369,6.57437275e-15 Z M13.1328844,1.01367188 L8.8071152,1.01367279 L8.8071152,21.010376 L13.1328844,21.0103751 L13.1328844,1.01367188 Z M11,17.3435391 C11.8271356,17.3435391 12.5,18.0164536 12.5,18.8435391 C12.5,19.6706246 11.8271356,20.3435391 11,20.3435391 C10.1728644,20.3435391 9.5,19.6706246 9.5,18.8435391 C9.5,18.0164536 10.1728644,17.3435391 11,17.3435391 Z M11,18.1617118 C10.6240111,18.1617118 10.3181727,18.4675501 10.3181727,18.8435391 C10.3181727,19.219528 10.6240111,19.5253663 11,19.5253663 C11.3759889,19.5253663 11.6818273,19.219528 11.6818273,18.8435391 C11.6818273,18.4675501 11.3759889,18.1617118 11,18.1617118 Z M3.68687748,3.01965332 L3.68687749,4.00830078 C3.49300248,4.00830078 3.12315679,4.14251709 3.12315679,4.50140381 C3.12315679,4.86029053 3.49300248,5.02807617 3.68687748,5.02807617 L3.68687749,12.9981689 L2.70000006,12.9981689 L2.70000005,3.01965332 L3.68687748,3.01965332 Z M11.4868774,3.01965332 L11.4868774,4.00830078 C11.2930024,4.00830078 10.9231567,4.14251709 10.9231567,4.50140381 C10.9231567,4.86029053 11.2930024,5.02807617 11.4868774,5.02807617 L11.4868774,12.9981689 L10.5,12.9981689 L10.5,3.01965332 L11.4868774,3.01965332 Z M21.6750661,-4.57763676e-07 C21.8545155,-4.57763676e-07 22,0.157136261 22,0.35105423 L22,0.35105423 L22,21.6489449 C22,21.8428628 21.8545155,21.9999995 21.6750661,21.9999995 L21.6750661,21.9999995 L15.8249339,22 C15.6454845,22 15.5,21.8428633 15.5,21.6489453 L15.5,21.6489453 L15.5,0.351054687 C15.5,0.157136719 15.6454845,-7.63648197e-15 15.8249339,-7.63648197e-15 L15.8249339,-7.63648197e-15 Z M21.0492669,1.01367188 L16.4406207,1.01367279 L16.4406207,21.010376 L21.0492669,21.0103751 L21.0492669,1.01367188 Z M18.7000008,17.3435391 C19.5271363,17.3435391 20.2000008,18.0164536 20.2000008,18.8435391 C20.2000008,19.6706246 19.5271363,20.3435391 18.7000008,20.3435391 C17.8728652,20.3435391 17.2000008,19.6706246 17.2000008,18.8435391 C17.2000008,18.0164536 17.8728652,17.3435391 18.7000008,17.3435391 Z M18.7000008,18.1617118 C18.3240118,18.1617118 18.0181735,18.4675501 18.0181735,18.8435391 C18.0181735,19.219528 18.3240118,19.5253663 18.7000008,19.5253663 C19.0759897,19.5253663 19.381828,19.219528 19.381828,18.8435391 C19.381828,18.4675501 19.0759897,18.1617118 18.7000008,18.1617118 Z M19.1868782,3.01965332 L19.1868782,4.00830078 L19.1868782,4.00830078 C18.9930032,4.00830078 18.6231575,4.14251709 18.6231575,4.50140381 C18.6231575,4.86029053 18.9930032,5.02807617 19.1868782,5.02807617 L19.1868782,12.9981689 L18.2000008,12.9981689 L18.2000008,3.01965332 L19.1868782,3.01965332 Z" id="book"></path>
            </g>
        </g>
    </g>
</svg>
