<?xml version="1.0" encoding="UTF-8"?>
<svg viewBox="0 0 23 22" version="1.1" xmlns="http://www.w3.org/2000/svg" xmlns:xlink="http://www.w3.org/1999/xlink">

    <g id="Page-1" stroke="none" stroke-width="1" fill="none" fill-rule="evenodd">
        <g id="icons" transform="translate(-372.000000, -685.000000)" fill="#585F73">
            <g id="fa-bookmark-ok" transform="translate(373.000000, 685.000000)">
                <path d="M2.29614266,0 L19.69492,0.00385964912 C20.955,0.0320350877 21.9999997,1.08533333 21.9999997,2.3682807 L21.9999997,2.3682807 L21.9999995,10.0081787 L18.0101312,10.0081791 L18.0101314,21.949053 L8.53539992,17.0073242 L-0.0180573369,21.9490526 L-0.0180573369,2.35052632 C-0.0180573369,1.05407018 1.02010266,0 2.29614266,0 L2.29614266,0 Z M4.75292853,3.76364543 C6.73854669,1.78041628 9.78936626,1.42921946 12.1679713,2.91664131 C12.3644648,3.04059313 12.5001998,3.26057584 12.3760986,3.45683289 C12.2519975,3.65308994 11.9768837,3.67957399 11.7822418,3.55273438 C9.77453613,2.24440002 7.00747333,2.56076866 5.29074097,4.2651062 C3.28443929,6.26899398 3.19468689,9.63755798 5.29074097,11.7047272 C7.38679504,13.7718964 10.6322937,13.7471771 12.7164001,11.7047272 C14.4493313,10.0064333 14.7565155,7.32891846 13.4394836,5.23222351 C13.315972,5.03559491 13.3215424,4.78882304 13.5180359,4.66487122 C13.7145294,4.54091939 13.9467543,4.62097886 14.0708554,4.81723591 C15.5704108,7.19297915 15.2291327,10.2504574 13.2331728,12.2440159 C12.0645537,13.4112288 10.5236313,14 8.99305064,14 C7.46246998,14 5.92154755,13.4112288 4.75292853,12.2440159 C2.41569049,9.9095899 2.41569049,6.09807139 4.75292853,3.76364543 Z M8.2470197,10.2192959 C8.10431861,10.3072855 7.90928028,10.2929838 7.78433234,10.1680359 L7.78433234,10.1680359 L5.66057118,8.04427472 C5.51056465,7.89426819 5.51534498,7.66161165 5.66179159,7.51516504 L5.66179159,7.51516504 L5.7282139,7.46268466 C5.870915,7.37469506 6.06595333,7.3889967 6.19090127,7.51394464 L6.19090127,7.51394464 L8.02894266,9.352 L12.6016531,3.90447334 C12.7184248,3.76531023 12.917873,3.73480946 13.0690872,3.81593425 L13.1305585,3.85754487 C13.2892115,3.99067054 13.3070645,4.23058962 13.1761864,4.38656405 L8.35646612,10.1304831 C8.32713866,10.1654342 8.29274437,10.1936555 8.25525945,10.2150181 Z M19.798584,0.999145508 C20.652064,1.01342621 20.996704,1.64223711 20.996704,2.50988624 L20.996704,9.01879852 L18.0019531,9.01879852 L18.0019531,2.84335992 C18.0019531,2.71213185 18.0152531,2.58437746 18.0399531,2.46048273 C18.1870131,1.73100904 18.668844,1.23149639 19.379444,1.05549639 L19.418964,1.04314551 L19.418964,1.04314551 C19.511304,1.0223034 19.608204,1.01497007 19.705104,1.00879463 C19.736644,1.00686481 19.798584,1.23012479 19.798584,0.999145508 Z" id="Combined-Shape"></path>
            </g>
        </g>
    </g>
</svg>
