<?xml version="1.0" encoding="UTF-8"?>
<svg viewBox="0 0 23 22" version="1.1" xmlns="http://www.w3.org/2000/svg" xmlns:xlink="http://www.w3.org/1999/xlink">

    <g id="Page-1" stroke="none" stroke-width="1" fill="none" fill-rule="evenodd">
        <g id="icons" transform="translate(-164.000000, -685.000000)" fill="#585F73">
            <g id="fa-bookmark-plus" transform="translate(165.000000, 685.000000)">
                <path d="M2.29614266,0 L19.69492,0.00385964912 C20.955,0.0320350877 21.9999997,1.08533333 21.9999997,2.3682807 L21.9999997,2.3682807 L21.9999995,10.0081787 L18.0101312,10.0081791 L18.0101314,21.949053 L8.53539992,17.0073242 L-0.0180573369,21.9490526 L-0.0180573369,2.35052632 C-0.0180573369,1.05407018 1.02010266,0 2.29614266,0 L2.29614266,0 Z M9.00516796,2 C5.69767442,2 3,4.68965517 3,8 C3,11.3103448 5.6873385,14 9.00516796,14 C12.3126615,14 15,11.3103448 15,8 C15,4.68965517 12.3126615,2 9.00516796,2 Z M9,2.75 C11.8932866,2.75 14.25,5.10671343 14.25,8 C14.25,10.8932866 11.8932866,13.25 9,13.25 C6.10671343,13.25 3.75,10.8932866 3.75,8 C3.75,5.10671343 6.10671343,2.75 9,2.75 Z M9,4.625 L8.92616343,4.63276595 C8.75818062,4.66840928 8.625,4.82252769 8.625,5.00724939 L8.625,5.00724939 L8.62494266,7.625 L6.00724939,7.625 C5.81877917,7.625 5.66747215,7.75354325 5.63259024,7.92442442 L5.625,8 L5.63276595,8.07383657 C5.66840928,8.24181938 5.82252769,8.375 6.00724939,8.375 L6.00724939,8.375 L8.62494266,8.375 L8.625,10.9927506 C8.625,11.1812208 8.75354325,11.3325279 8.92442442,11.3674098 L9,11.375 L9.07383657,11.3672341 C9.24181938,11.3315907 9.375,11.1774723 9.375,10.9927506 L9.375,10.9927506 L9.37494266,8.375 L11.9927506,8.375 C12.1812208,8.375 12.3325279,8.24645675 12.3674098,8.07557558 L12.375,8 L12.3672341,7.92616343 C12.3315907,7.75818062 12.1774723,7.625 11.9927506,7.625 L11.9927506,7.625 L9.37494266,7.625 L9.375,5.00724939 C9.375,4.81877917 9.24645675,4.66747215 9.07557558,4.63259024 L9,4.625 Z M19.798584,0.999145508 C19.798584,1.23012479 19.736644,1.00686481 19.705104,1.00879463 C19.608204,1.01497007 19.511304,1.0223034 19.418964,1.04314551 L19.418964,1.04314551 L19.379444,1.05549639 C18.668844,1.23149639 18.1870131,1.73100904 18.0399531,2.46048273 C18.0152531,2.58437746 18.0019531,2.71213185 18.0019531,2.84335992 L18.0019531,2.84335992 L18.0019531,9.01879852 L20.996704,9.01879852 L20.996704,2.50988624 C20.996704,1.64223711 20.652064,1.01342621 19.798584,0.999145508 Z" id="Combined-Shape"></path>
            </g>
        </g>
    </g>
</svg>
