<?xml version="1.0" encoding="UTF-8"?>
<svg viewBox="0 0 23 22" version="1.1" xmlns="http://www.w3.org/2000/svg" xmlns:xlink="http://www.w3.org/1999/xlink">

    <g id="Page-1" stroke="none" stroke-width="1" fill="none" fill-rule="evenodd">
        <g id="icons" transform="translate(-442.000000, -685.000000)" fill="#585F73">
            <g id="fa-bookmark-undo" transform="translate(443.000000, 685.000000)">
                <path d="M2.29614266,0 L19.69492,0.00385964912 C20.955,0.0320350877 21.9999997,1.08533333 21.9999997,2.3682807 L21.9999997,2.3682807 L21.9999995,10.0081787 L18.0101312,10.0081791 L18.0101314,21.949053 L8.53539992,17.0073242 L-0.0180573369,21.9490526 L-0.0180573369,2.35052632 C-0.0180573369,1.05407018 1.02010266,0 2.29614266,0 L2.29614266,0 Z M14.6500122,2.6 C14.8662191,2.6 15,2.77674419 15,2.99276486 L15,2.99276486 L15,6.54297256 C15,6.76881236 14.8266013,6.96732407 14.6005669,6.96732407 L14.6005669,6.96732407 L10.9348772,6.96732407 C10.7088427,6.96732407 10.5112587,6.84591578 10.5112587,6.62007599 C10.5112587,6.3942362 10.7053448,6.25271318 10.9313793,6.25271318 L10.9313793,6.25271318 L13.8458405,6.25271322 C13.0596336,4.52454785 11.3042107,3.31637039 9.29017249,3.31637039 C6.53571396,3.31637039 4.31049957,5.57166865 4.31049957,8.30490934 C4.31049957,11.03815 6.58758629,13.2922836 9.29017249,13.2922836 C11.9927587,13.2922836 14.2970673,11.0858559 14.2970673,8.30490934 C14.2970673,8.07906954 14.4239777,7.90713348 14.6500122,7.90713348 C14.8760467,7.90713348 15,8.07906977 15,8.30490956 C15,11.4470284 12.4448276,14 9.3,14 C6.15517241,14 3.6,11.4568475 3.6,8.30490956 C3.6,5.15297158 6.15517241,2.6 9.3,2.6 C11.3539655,2.6 13.2804588,3.78938446 14.2970673,5.53588791 L14.2970673,5.53588791 L14.2970673,2.99276485 C14.2970673,2.76692505 14.4239777,2.6 14.6500122,2.6 Z M19.798584,0.999145508 C20.652064,1.01342621 20.996704,1.64223711 20.996704,2.50988624 L20.996704,9.01879852 L18.0019531,9.01879852 L18.0019531,2.84335992 C18.0019531,2.71213185 18.0152531,2.58437746 18.0399531,2.46048273 C18.1870131,1.73100904 18.668844,1.23149639 19.379444,1.05549639 L19.418964,1.04314551 L19.418964,1.04314551 C19.511304,1.0223034 19.608204,1.01497007 19.705104,1.00879463 C19.736644,1.00686481 19.798584,1.23012479 19.798584,0.999145508 Z" id="Combined-Shape"></path>
            </g>
        </g>
    </g>
</svg>
