<?xml version="1.0" encoding="UTF-8"?>
<svg viewBox="0 0 23 22" version="1.1" xmlns="http://www.w3.org/2000/svg" xmlns:xlink="http://www.w3.org/1999/xlink">

    <g id="Page-1" stroke="none" stroke-width="1" fill="none" fill-rule="evenodd">
        <g id="icons" transform="translate(-513.000000, -685.000000)" fill="#585F73">
            <g id="fa-bookmark-calendar" transform="translate(514.000000, 685.000000)">
                <path d="M2.29614266,0 L19.69492,0.00385964912 C20.955,0.0320350877 21.9999997,1.08533333 21.9999997,2.3682807 L21.9999997,2.3682807 L21.9999995,10.0081787 L18.0101312,10.0081791 L18.0101314,21.949053 L8.53539992,17.0073242 L-0.0180573369,21.9490526 L-0.0180573369,2.35052632 C-0.0180573369,1.05407018 1.02010266,0 2.29614266,0 L2.29614266,0 Z M19.798584,0.999145508 C19.798584,1.23012479 19.736644,1.00686481 19.705104,1.00879463 C19.608204,1.01497007 19.511304,1.0223034 19.418964,1.04314551 L19.418964,1.04314551 L19.379444,1.05549639 C18.668844,1.23149639 18.1870131,1.73100904 18.0399531,2.46048273 C18.0152531,2.58437746 18.0019531,2.71213185 18.0019531,2.84335992 L18.0019531,2.84335992 L18.0019531,9.01879852 L20.996704,9.01879852 L20.996704,2.50988624 C20.996704,1.64223711 20.652064,1.01342621 19.798584,0.999145508 Z M9.00516796,2 C12.3126615,2 15,4.68965517 15,8 C15,11.3103448 12.3126615,14 9.00516796,14 C5.6873385,14 3,11.3103448 3,8 C3,4.68965517 5.69767442,2 9.00516796,2 Z M9,2.75 C6.10671343,2.75 3.75,5.10671343 3.75,8 C3.75,10.8932866 6.10671343,13.25 9,13.25 C11.8932866,13.25 14.25,10.8932866 14.25,8 C14.25,5.10671343 11.8932866,2.75 9,2.75 Z M10.4192505,5 C10.600647,5 10.739018,5.09285867 10.739018,5.21151142 L10.739018,5.21151142 L10.7390181,5.76896152 L11.7881137,5.76896152 C11.9069767,5.76896152 12,5.86182019 12,5.98047294 L12,5.98047294 L12,10.7884886 C12,10.9071413 11.9069767,11 11.7881137,11 L11.7881137,11 L6.21188631,11 C6.09819122,11 6,10.9071413 6,10.7936474 L6,10.7936474 L6,5.98047294 C6,5.86182019 6.09302326,5.76896152 6.2118863,5.76896152 L6.2118863,5.76896152 L7.29715762,5.76896152 L7.29715755,5.21151142 C7.29715755,5.09285867 7.40930176,5 7.62573242,5 C7.84216309,5 7.95648186,5.09285867 7.95648186,5.21151142 L7.95648186,5.21151142 L7.95648193,5.76896152 L10.1084595,5.76896152 L10.1084594,5.21151142 C10.1084594,5.09285867 10.237854,5 10.4192505,5 Z M11.2802734,7.55615234 L6.7388916,7.55615234 L6.7388916,10.3100586 L11.2802734,10.3100586 L11.2802734,7.55615234 Z M7.30769231,6.43688968 L6.76831055,6.43688965 L6.76831055,6.87872096 L11.3198853,6.87872096 L11.3198853,6.43688965 L10.7230769,6.43688968 L10.7230769,6.55038361 C10.7230769,6.66903636 10.6179199,6.76189503 10.4217529,6.76189503 C10.2255859,6.76189503 10.118103,6.66903636 10.118103,6.55038361 L10.118103,6.55038361 L10.118103,6.43688968 L7.92340088,6.43688968 L7.92340088,6.55038361 C7.92340088,6.66903636 7.82928467,6.76189503 7.61334229,6.76189503 C7.3973999,6.76189503 7.30769231,6.66903636 7.30769231,6.55038361 L7.30769231,6.55038361 L7.30769231,6.43688968 Z" id="Combined-Shape"></path>
            </g>
        </g>
    </g>
</svg>
