<?xml version="1.0" encoding="UTF-8"?>
<svg viewBox="0 0 23 22" version="1.1" xmlns="http://www.w3.org/2000/svg" xmlns:xlink="http://www.w3.org/1999/xlink">

    <g id="Page-1" stroke="none" stroke-width="1" fill="none" fill-rule="evenodd">
        <g id="icons" transform="translate(-228.000000, -685.000000)" fill="#585F73">
            <g id="fa-bookmark-clock-o" transform="translate(229.000000, 685.000000)">
                <path d="M2.29614266,0 L19.69492,0.00385964912 C20.955,0.0320350877 21.9999997,1.08533333 21.9999997,2.3682807 L21.9999997,2.3682807 L21.9999995,10.0081787 L18.0101312,10.0081791 L18.0101314,21.949053 L8.53539992,17.0073242 L-0.0180573369,21.9490526 L-0.0180573369,2.35052632 C-0.0180573369,1.05407018 1.02010266,0 2.29614266,0 L2.29614266,0 Z M10.1597166,2.01969736 C10.3368002,2.01969736 10.4845459,2.15236561 10.5187154,2.31970216 L10.5261603,2.39325467 C10.5261603,2.59956467 10.3654878,2.76681197 10.1597166,2.76681197 L9.40548307,2.76630382 L9.40548307,2.76630382 L9.40548836,3.05718215 L9.4039551,3.07723734 C10.8326789,3.16762315 12.1164028,3.78160292 13.0546278,4.72385594 L13.2169427,4.561 L12.9596553,4.30392535 C12.8151174,4.15938749 12.8204745,3.91968825 12.9620913,3.7780715 C13.1079745,3.63218829 13.3505982,3.63828864 13.4879451,3.77563554 L14.5493966,4.83708707 C14.6732862,4.96097667 14.6870489,5.15478075 14.5992714,5.29680638 L14.5469607,5.36294093 C14.4010775,5.50882413 14.1584537,5.50272379 14.0211068,5.36537688 L13.7459427,5.09 L13.5470375,5.29040502 C14.1903552,6.14116138 14.5863361,7.17999081 14.6310485,8.30564608 L14.6352907,8.51959464 C14.6352907,11.5286632 12.1256033,13.9735315 9.03675737,13.9735315 C5.93825877,13.9735315 3.42857143,11.5286632 3.42857143,8.51959464 C3.42857143,5.63376771 5.74576954,3.26687194 8.66023002,3.07783207 C8.65856811,3.07163052 8.65837374,3.06443563 8.65837374,3.05718215 L8.65794266,2.766 L7.90414548,2.76681197 C7.70176423,2.76681197 7.53770182,2.593531 7.53770182,2.39325467 C7.53770182,2.18694466 7.69837432,2.01969736 7.90414548,2.01969736 L10.1597166,2.01969736 Z M9.03193105,3.74739991 C6.32991019,3.74739991 4.12899138,5.8896276 4.12899138,8.51959464 C4.12899138,11.1495617 6.32991019,13.2917894 9.03193105,13.2917894 C11.7339519,13.2917894 13.9348707,11.1495617 13.9348707,8.51959464 C13.9348707,5.8896276 11.7339519,3.74739991 9.03193105,3.74739991 Z M9.03193105,5.38171313 C9.23824105,5.38171313 9.40548836,5.54222604 9.40548836,5.75355117 L9.40494266,8.37 L11.2803885,8.37017159 C11.4574721,8.37017159 11.6052179,8.50283984 11.6393874,8.6701764 L11.6468322,8.7437289 C11.6468322,8.95003891 11.4861597,9.11728621 11.2803885,9.11728621 L9.02481741,9.11728621 C8.96498644,9.11728621 8.90850454,9.10214145 8.85862074,9.07563173 C8.73949081,9.01514931 8.65837374,8.89262103 8.65837374,8.74544817 L8.65837374,5.75355117 C8.65837374,5.57386075 8.79104199,5.42394007 8.95837854,5.38926756 L9.03193105,5.38171313 Z M19.798584,0.999145508 C20.652064,1.01342621 20.996704,1.64223711 20.996704,2.50988624 L20.996704,9.01879852 L18.0019531,9.01879852 L18.0019531,2.84335992 C18.0019531,2.71213185 18.0152531,2.58437746 18.0399531,2.46048273 C18.1870131,1.73100904 18.668844,1.23149639 19.379444,1.05549639 L19.418964,1.04314551 L19.418964,1.04314551 C19.511304,1.0223034 19.608204,1.01497007 19.705104,1.00879463 C19.736644,1.00686481 19.798584,1.23012479 19.798584,0.999145508 Z" id="Combined-Shape"></path>
            </g>
        </g>
    </g>
</svg>
