<?xml version="1.0" encoding="UTF-8"?>
<svg viewBox="0 0 23 22" version="1.1" xmlns="http://www.w3.org/2000/svg" xmlns:xlink="http://www.w3.org/1999/xlink">

    <g id="Page-1" stroke="none" stroke-width="1" fill="none" fill-rule="evenodd">
        <g id="icons" transform="translate(-298.000000, -685.000000)" fill="#585F73">
            <g id="fa-bookmark-remove" transform="translate(299.000000, 685.000000)">
                <path d="M2.29614266,0 L19.69492,0.00385964912 C20.955,0.0320350877 21.9999997,1.08533333 21.9999997,2.3682807 L21.9999997,2.3682807 L21.9999995,10.0081787 L18.0101312,10.0081791 L18.0101314,21.949053 L8.53539992,17.0073242 L-0.0180573369,21.9490526 L-0.0180573369,2.35052632 C-0.0180573369,1.05407018 1.02010266,0 2.29614266,0 L2.29614266,0 Z M9.00516796,2 C12.3126615,2 15,4.68965517 15,8 C15,11.3103448 12.3126615,14 9.00516796,14 C5.6873385,14 3,11.3103448 3,8 C3,4.68965517 5.69767442,2 9.00516796,2 Z M19.798584,0.999145508 C20.652064,1.01342621 20.996704,1.64223711 20.996704,2.50988624 L20.996704,9.01879852 L18.0019531,9.01879852 L18.0019531,2.84335992 C18.0019531,2.71213185 18.0152531,2.58437746 18.0399531,2.46048273 C18.1870131,1.73100904 18.668844,1.23149639 19.379444,1.05549639 L19.418964,1.04314551 L19.418964,1.04314551 C19.511304,1.0223034 19.608204,1.01497007 19.705104,1.00879463 C19.736644,1.00686481 19.798584,1.23012479 19.798584,0.999145508 Z M9,13.25 C6.10671343,13.25 3.75,10.8932866 3.75,8 C3.75,5.10671343 6.10671343,2.75 9,2.75 C11.8932866,2.75 14.25,5.10671343 14.25,8 C14.25,10.8932866 11.8932866,13.25 9,13.25 L9,13.25 Z M6.59779831,5.06746822 L8.98294266,7.453 L11.3694636,5.06746822 C11.4952983,4.94163356 11.6910794,4.92658911 11.8339746,5.01438456 L11.9004464,5.06681547 C12.046893,5.21326208 12.0437678,5.45382419 11.8997937,5.59779831 L9.51294266,7.983 L11.8997937,10.3694636 C12.0256283,10.4952983 12.0406728,10.6910794 11.9528773,10.8339746 L11.9004464,10.9004464 C11.7539998,11.046893 11.5134377,11.0437678 11.3694636,10.8997937 L8.98294266,8.513 L6.59779831,10.8997937 C6.47196364,11.0256283 6.27618249,11.0406728 6.13328726,10.9528773 L6.06681547,10.9004464 C5.92036887,10.7539998 5.9234941,10.5134377 6.06746822,10.3694636 L8.45294266,7.983 L6.06746822,5.59779831 C5.94163356,5.47196364 5.92658911,5.27618249 6.01438456,5.13328726 L6.06681547,5.06681547 C6.21326208,4.92036887 6.45382419,4.9234941 6.59779831,5.06746822 Z" id="Combined-Shape"></path>
            </g>
        </g>
    </g>
</svg>
