<?xml version="1.0" encoding="UTF-8"?>
<svg viewBox="0 0 23 22" version="1.1" xmlns="http://www.w3.org/2000/svg" xmlns:xlink="http://www.w3.org/1999/xlink">

    <g id="Page-1" stroke="none" stroke-width="1" fill="none" fill-rule="evenodd">
        <g id="icons" transform="translate(-35.000000, -685.000000)" fill="#585F73">
            <g id="fa-bookmark-end" transform="translate(36.000000, 685.000000)">
                <path d="M2.29614266,0 L19.69492,0.00385964912 C20.955,0.0320350877 21.9999997,1.08533333 21.9999997,2.3682807 L21.9999997,2.3682807 L21.9999995,10.0081787 L18.0101312,10.0081791 L18.0101314,21.949053 L8.53539992,17.0073242 L-0.0180573369,21.9490526 L-0.0180573369,2.35052632 C-0.0180573369,1.05407018 1.02010266,0 2.29614266,0 L2.29614266,0 Z M9.00516796,2 C12.3126615,2 15,4.68965517 15,8 C15,11.3103448 12.3126615,14 9.00516796,14 C5.6873385,14 3,11.3103448 3,8 C3,4.68965517 5.69767442,2 9.00516796,2 Z M12.9506755,4.54726113 L5.54726113,11.9506755 C6.47112984,12.7592377 7.67969689,13.25 9,13.25 C11.8932866,13.25 14.25,10.8932866 14.25,8 C14.25,6.67969689 13.7592377,5.47112984 12.9506755,4.54726113 Z M9,2.75 C6.10671343,2.75 3.75,5.10671343 3.75,8 C3.75,9.30390782 4.22864954,10.4988374 5.0193501,11.4181902 L12.4181902,4.0193501 C11.4988374,3.22864954 10.3039078,2.75 9,2.75 Z M19.798584,0.999145508 C20.652064,1.01342621 20.996704,1.64223711 20.996704,2.50988624 L20.996704,9.01879852 L18.0019531,9.01879852 L18.0019531,2.84335992 C18.0019531,2.71213185 18.0152531,2.58437746 18.0399531,2.46048273 C18.1870131,1.73100904 18.668844,1.23149639 19.379444,1.05549639 L19.418964,1.04314551 L19.418964,1.04314551 C19.511304,1.0223034 19.608204,1.01497007 19.705104,1.00879463 C19.736644,1.00686481 19.798584,1.23012479 19.798584,0.999145508 Z" id="Combined-Shape"></path>
            </g>
        </g>
    </g>
</svg>
