<?xml version="1.0" encoding="UTF-8"?>
<svg viewBox="0 0 23 22" version="1.1" xmlns="http://www.w3.org/2000/svg" xmlns:xlink="http://www.w3.org/1999/xlink">

    <g id="Page-1" stroke="none" stroke-width="1" fill="none" fill-rule="evenodd">
        <g id="icons" transform="translate(-373.000000, -35.000000)" fill="#585F73">
            <g id="fa-briefcase" transform="translate(373.000000, 35.000000)">
                <path d="M6.00622559,20.0244141 L6.00622559,21.0140381 L16.0124512,21.0140381 L16.0124512,20.0244141 L16.9998779,20.0244141 L16.9998779,22 L5.00341797,22 L5.00341797,20.0244141 L6.00622559,20.0244141 Z M13.009222,10 C13.5564136,10 14,10.4426603 14,10.9989566 L14,11 L14.9852905,11 L18.965,15 L19,15 L19,19 L3,19 L3,15 L3.038,15 L7.01220703,11 L8,11 L8,10.9989566 C8,10.4472481 8.45097518,10 8.99077797,10 L13.009222,10 Z M11.0057268,-5.68434189e-14 C16.3093262,-4.59812161e-10 19.5373736,3.34901299 20.9032593,6.18927002 C21.8760699,8.21215696 22.0021973,10.0090332 22.0021973,10.0090332 L22.0114536,18.0233154 L19.994873,18.0233154 L19.994873,17.0175781 L20.9697266,17.0175781 L21.0581055,10.0090332 C21.0581055,10.0090332 20.8671159,8.33902319 19.8364258,6.48510742 C18.4241999,3.94491822 15.5974291,1.00109863 11.0057268,1.00109863 C6.69683607,1.00109863 3.94622838,3.53268151 2.48413086,5.95837402 C1.25104111,8.00413125 0.982666016,10.0090332 0.982666016,10.0090332 L0.982666016,17.0175781 L1.9777832,17.0175781 L1.9777832,18.0233154 L0,18.0233154 L0,10.0200806 C0,10.0200806 0.0473580262,8.18208656 1.22558594,5.95837402 C2.67385356,3.22500569 5.79846191,4.51347875e-10 11.0057268,-5.68434189e-14 Z M18.0218506,16 L4.02893066,16 L4.02893066,18 L18.0218506,18 L18.0218506,16 Z M8,11.991 L7.44921875,11.9918213 L4.46264648,14.9832764 L17.6348877,14.9832764 L14.5197754,11.9918213 L14,11.991 L14,12.0010434 C14,12.5527519 13.5490248,13 13.009222,13 L8.99077797,13 C8.44358641,13 8,12.5573397 8,12.0010434 L8,11.991 Z M4,11 L4,12 L2,12 L2,11 L4,11 Z M12.5095215,11 L9.49047852,11 C9.21505737,11 9,11.2238576 9,11.5 C9,11.7680664 9.21959471,12 9.49047852,12 L9.49047852,12 L12.5095215,12 C12.7849426,12 13,11.7761424 13,11.5 L13,11.5 L12.9920977,11.4122514 C12.950568,11.1832562 12.7503071,11 12.5095215,11 L12.5095215,11 Z M11.0805664,2.972229 C12.8155518,2.97222665 14.436624,3.89008035 15.4080807,4.9309082 C16.6145945,6.22357856 17.0521066,7.78633919 17.0032959,8.9621582 C16.9636203,9.91791867 16.577087,11.1834717 16.577087,11.1834717 L16.553977,11.1678634 C16.476946,11.1153039 16.2073534,10.927358 15.7453609,10.5641479 C16.2997522,9.01798534 15.9654842,7.62491694 15.4080807,6.64874268 C14.7447506,5.48706055 13.0737301,3.98687744 11.0805664,3.98687744 C8.70867915,3.98687744 7.02032471,5.53167725 6.43084717,6.92871094 C5.9329438,8.10871821 5.90309039,9.2226952 6.30957028,10.5641479 C6.19220785,10.6568138 5.50445559,11.2719727 5.50445559,11.2719727 C5.3348999,10.8153687 5.05722078,10.0578044 4.99414063,9.05517578 C4.92440679,7.94679012 5.30706702,6.54785312 6.2241821,5.35516357 C7.24000023,4.03411271 8.90017352,2.97223197 11.0805664,2.972229 Z" id="Combined-Shape"></path>
            </g>
        </g>
    </g>
</svg>
