<?xml version="1.0" encoding="UTF-8"?>
<svg viewBox="0 0 22 22" version="1.1" xmlns="http://www.w3.org/2000/svg" xmlns:xlink="http://www.w3.org/1999/xlink">

    <g id="Page-1" stroke="none" stroke-width="1" fill="none" fill-rule="evenodd">
        <g id="icons" transform="translate(-165.000000, -389.000000)" fill="#585F73">
            <g id="fa-building-o" transform="translate(165.000000, 389.000000)">
                <path d="M20.0014145,1.36832903 L20.6421204,1.36832904 C20.6421204,1.36832904 21.4403992,1.40856934 21.4403992,0.704284668 C21.4403992,2.30926389e-14 20.6421204,9.44562951e-09 20.6421204,9.44562951e-09 L1.37604026,2.30926389e-14 C1.37604026,2.30926389e-14 0.557418823,2.30926389e-14 0.557418823,0.704284668 C0.557418823,1.40856934 1.37604026,1.36832903 1.37604026,1.36832903 L2.09776153,1.36832903 L2.09776153,20.638092 L0.740875244,20.638092 C0.740875244,20.638092 1.23126557e-15,20.638092 0,21.308136 C-1.14920879e-15,21.9781799 0.740875244,22 0.740875244,22 L21.2242126,22 C21.2242126,22 22,21.9781799 22,21.308136 C22,20.638092 21.2242126,20.638092 21.2242126,20.638092 L20.0014145,20.638092 L20.0014145,1.36832903 Z M9.63466701,17.9318935 L9.63423067,20.6380926 L3.48365706,20.6380918 L3.48365758,1.40446303 L18.5824738,1.40403747 L18.5824732,20.638092 L12.3766783,20.638092 L12.3766791,17.9318929 C12.3767517,17.2390349 11.758126,16.6000367 11.0330655,16.6000367 C10.3085133,16.6000366 9.63466701,17.2390354 9.63466701,17.9318935 Z M7.60765076,2.76393124 L7.60765076,5.49211118 L4.8477478,5.49211125 C4.8477478,5.49218222 4.8477478,2.76393131 4.8477478,2.76393131 L7.60765076,2.76393124 Z M12.3812103,2.78289799 L12.3812103,5.50469971 L9.65789795,5.50469967 C9.65789795,5.50477063 9.65789795,2.78289795 9.65789795,2.78289795 L12.3812103,2.78289799 Z M14.4552917,5.49832148 L14.4552917,2.7877655 L17.1945496,2.78776555 L17.1945496,5.49832153 L14.4552917,5.49832148 Z M7.58398438,6.90353379 L7.58398438,9.63339224 L4.80326843,9.63339228 L4.80326843,6.90353384 L7.58398438,6.90353379 Z M12.3875885,6.90521243 L12.3875885,9.65722653 L9.65638733,9.65722651 L9.65638733,6.9052124 L12.3875885,6.90521243 Z M14.4599915,9.66998293 L14.4599915,6.91494757 L17.2215729,6.91494759 L17.2215729,9.66998295 L14.4599915,9.66998293 Z M7.60429382,11.0048676 L7.60429382,13.7795412 L4.86352539,13.779541 L4.86352539,11.0048675 L7.60429382,11.0048676 Z M12.4072266,11.0083923 L12.4072266,13.7844085 L9.72578572,13.7844085 L9.72578572,11.0083922 L12.4072266,11.0083923 Z M14.4905395,13.7461396 L14.4905395,11.0735168 L17.1692046,11.0735168 L17.1692046,13.7461395 L14.4905395,13.7461396 Z M7.54252625,15.1417849 L7.54252625,17.8729859 L4.81115723,17.8729859 L4.81115723,17.6581423 L4.81115723,15.1417848 L7.54252625,15.1417849 Z M14.447403,17.8875887 L14.4474029,15.1864321 L17.1868286,15.186432 L17.1868286,17.8875886 L14.447403,17.8875887 Z" id="building-(1)"></path>
            </g>
        </g>
    </g>
</svg>
