<?xml version="1.0" encoding="UTF-8"?>
<svg viewBox="0 0 22 22" version="1.1" xmlns="http://www.w3.org/2000/svg" xmlns:xlink="http://www.w3.org/1999/xlink">

    <g id="Page-1" stroke="none" stroke-width="1" fill="none" fill-rule="evenodd">
        <g id="icons" transform="translate(-165.000000, -330.000000)" fill="#585F73">
            <g id="fa-calendar-plus" transform="translate(165.000000, 330.000000)">
                <path d="M16.5994829,0.345659262 C17.0353141,0.345659262 17.3763994,0.68079148 17.3763994,1.10901598 L17.3763994,1.10901598 L17.3763997,3.12088505 L21.2230835,3.12088505 C21.6589147,3.12088505 22,3.45601727 22,3.88424177 L22,3.88424177 L22,21.2366433 C22,21.6648678 21.6589147,22 21.2230836,22 L21.2230836,22 L0.776916467,22 C0.360034468,22 1.5318291e-08,21.6648678 1.5318291e-08,21.2552617 L1.5318291e-08,21.2552617 L0,3.88424177 C0,3.45601727 0.341085271,3.12088505 0.776916451,3.12088505 L0.776916451,3.12088505 L4.75624462,3.12088505 L4.75624435,1.10901598 C4.75624435,0.68079148 5.09732962,0.345659262 5.5331608,0.345659262 C5.96899198,0.345659262 6.31007725,0.68079148 6.31007725,1.10901598 L6.31007725,1.10901598 L6.31007752,3.12088505 L15.8225668,3.12088505 L15.8225665,1.10901598 C15.8225665,0.68079148 16.1636518,0.345659262 16.5994829,0.345659262 Z M20.6419525,8.51220646 L1.40957642,8.51220703 L1.40957642,20.6639041 L20.6419525,20.6639035 L20.6419525,8.51220646 Z M11,15.2352941 C11.4324786,15.2352941 11.7709402,15.5322812 11.7709402,15.9117647 C11.7709402,16.2912482 11.4324786,16.5882353 11,16.5882353 L11,16.5882353 L5.45299145,16.5882353 C5.02051282,16.5882353 4.68205128,16.2912482 4.68205128,15.9117647 C4.68205128,15.5322812 5.02051282,15.2352941 5.45299145,15.2352941 L5.45299145,15.2352941 Z M16.5470085,11.1764706 C16.9794872,11.1764706 17.3179487,11.4734577 17.3179487,11.8529412 C17.3179487,12.2324247 16.9794872,12.5294118 16.5470085,12.5294118 L16.5470085,12.5294118 L5.45299145,12.5294118 C5.02051282,12.5294118 4.68205128,12.2324247 4.68205128,11.8529412 C4.68205128,11.4734577 5.02051282,11.1764706 5.45299145,11.1764706 L5.45299145,11.1764706 Z M4.79487179,4.41969215 L4.79487179,4.82929819 C4.79487179,5.25752269 5.13333333,5.59265491 5.56581197,5.59265491 C5.9982906,5.59265491 6.33675214,5.25752269 6.33675214,4.82929819 L6.33675214,4.41969215 L15.7760684,4.41969215 L15.7760684,4.82929819 C15.7760684,5.25752269 16.1145299,5.59265491 16.5470085,5.59265491 C16.9794872,5.59265491 17.3179487,5.25752269 17.3179487,4.82929819 L17.3179487,4.41969215 L20.6308746,4.41969204 L20.6308746,7.1260699 L1.38725281,7.12606995 L1.38725281,4.4196921 L4.79487179,4.41969215 Z" id="calendar-plus"></path>
            </g>
        </g>
    </g>
</svg>
