<?xml version="1.0" encoding="UTF-8"?>
<svg viewBox="0 0 22 22" version="1.1" xmlns="http://www.w3.org/2000/svg" xmlns:xlink="http://www.w3.org/1999/xlink">

    <g id="Page-1" stroke="none" stroke-width="1" fill="none" fill-rule="evenodd">
        <g id="icons" transform="translate(-299.000000, -626.000000)" fill="#585F73">
            <g id="fa-calendar-plus-circle" transform="translate(299.000000, 626.000000)">
                <path d="M11.0094746,0 C17.0732127,0 22,4.93103448 22,11 C22,17.0689655 17.0732127,22 11.0094746,22 C4.92678725,22 0,17.0689655 0,11 C0,4.93103448 4.94573643,0 11.0094746,0 Z M11,1.375 C5.69564128,1.375 1.375,5.69564128 1.375,11 C1.375,16.3043587 5.69564128,20.625 11,20.625 C16.3043587,20.625 20.625,16.3043587 20.625,11 C20.625,5.69564128 16.3043587,1.375 11,1.375 Z M16.1115418,16.5 C16.3294574,16.5 16.5,16.3297591 16.5,16.1122291 L16.5,7.29753372 C16.5,7.08000368 16.3294574,6.90976278 16.1115418,6.90976278 L14.1881998,6.90976278 L14.1881997,5.88777093 C14.1881997,5.6702409 13.9345194,5.5 13.6019592,5.5 C13.269399,5.5 13.0321756,5.6702409 13.0321756,5.88777093 L13.0321757,6.90976278 L9.08688354,6.90976278 L9.08688341,5.88777093 C9.08688341,5.6702409 8.87729899,5.5 8.48050944,5.5 C8.08371989,5.5 7.87812217,5.6702409 7.87812217,5.88777093 L7.87812231,6.90976278 L5.88845823,6.90976278 C5.67054264,6.90976278 5.5,7.08000368 5.5,7.29753372 L5.5,15.4107897 C5.5,15.5941611 5.50000001,16.1216869 5.50000001,16.1216869 C5.50000001,16.3297591 5.68001723,16.5 5.88845823,16.5 L16.1115418,16.5 Z M7.8974359,8.13429774 L7.8974359,8.34236995 C7.8974359,8.55989998 8.06189982,8.73014088 8.45779419,8.73014088 C8.85368856,8.73014088 9.02623494,8.55989998 9.02623494,8.34236995 L9.02623494,8.13429774 L13.0498556,8.13429774 L13.0498556,8.34236995 C13.0498556,8.55989998 13.2469076,8.73014088 13.606547,8.73014088 C13.9661865,8.73014088 14.1589744,8.55989998 14.1589744,8.34236995 L14.1589744,8.13429774 L15.253123,8.13429769 L15.253123,8.94432176 L6.90856934,8.94432176 L6.90856934,8.13429769 L7.8974359,8.13429774 Z M15.1805013,10.1862793 L15.1805013,15.2351074 L6.8546346,15.2351074 L6.8546346,10.1862793 L15.1805013,10.1862793 Z" id="Combined-Shape"></path>
            </g>
        </g>
    </g>
</svg>
