<?xml version="1.0" encoding="UTF-8"?>
<svg viewBox="0 0 22 22" version="1.1" xmlns="http://www.w3.org/2000/svg" xmlns:xlink="http://www.w3.org/1999/xlink">

    <g id="Page-1" stroke="none" stroke-width="1" fill="none" fill-rule="evenodd">
        <g id="icons" transform="translate(-38.000000, -1159.000000)" fill="#585F73">
            <g id="fa-call" transform="translate(38.000000, 1159.000000)">
                <path d="M11,0 C17.0751605,0 22,4.92488145 22,11 C22,17.0751186 17.0751605,22 11,22 C4.92488145,22 0,17.0751186 0,11 C0,4.92488145 4.92488145,0 11,0 Z M7.96856067,4.00384449 C7.96537985,4.00415424 7.96215359,4.00446399 7.95897276,4.00472949 C7.15636055,4.07973316 6.41604701,4.46647777 5.88644018,5.05849791 C3.24517667,8.01116462 7.3479369,13.482229 7.3479369,13.482229 C7.3479369,13.482229 11.080086,19.1994559 14.8672632,17.8831967 C15.6266163,17.6192457 16.2666885,17.0893083 16.6314379,16.3891413 C16.6325739,16.3870173 16.6336644,16.384849 16.634755,16.382725 C16.8191972,16.0265129 16.738677,15.5940581 16.4445873,15.3163896 L14.1012759,13.1042459 C14.1012759,13.1042459 13.3468313,12.4963736 12.6826524,12.9323776 L12.5729365,13.014861 L12.572573,13.015215 C12.4588813,13.1125206 12.3494156,13.244297 12.2485836,13.4195268 C11.9233218,13.8516276 11.4806877,14.5253774 11.5562095,14.9068563 C11.1526541,14.6156031 10.2493462,13.8604334 9.15064492,12.2914627 C8.05194364,10.7224921 7.6598392,9.62783671 7.5287439,9.1556012 C7.86586557,9.36339898 8.67161316,9.20812589 9.20344656,9.07108378 C9.35670537,9.05050756 9.48839139,9.01658997 9.60139931,8.97242989 L9.70865194,8.92479343 C10.5218972,8.51601235 10.1814129,7.50662664 10.1814129,7.50662664 L8.91849037,4.56568617 C8.76044897,4.19765929 8.37647834,3.96702853 7.96856067,4.00384449 Z" id="Combined-Shape"></path>
            </g>
        </g>
    </g>
</svg>
