<?xml version="1.0" encoding="UTF-8"?>
<svg viewBox="0 0 22 22" version="1.1" xmlns="http://www.w3.org/2000/svg" xmlns:xlink="http://www.w3.org/1999/xlink">

    <g id="Page-1" stroke="none" stroke-width="1" fill="none" fill-rule="evenodd">
        <g id="icons" transform="translate(-100.000000, -1159.000000)" fill="#585F73">
            <g id="fa-callend" transform="translate(100.000000, 1159.000000)">
                <path d="M11.000021,0 C17.075319,0 22,4.92488145 22,11 C22,17.0751186 17.075319,22 11.000021,22 C4.92484888,22 0,17.0751186 0,11 C0,4.92488145 4.92484888,0 11.000021,0 Z M3.05331302,11.3676157 C2.83689538,12.0913329 2.91206057,12.8710724 3.28852195,13.5352949 C3.28965669,13.5373275 3.29079143,13.5393177 3.29197156,13.5413502 C3.48410575,13.8783735 3.89288453,14.0558411 4.29499103,13.9852521 L7.49877086,13.4228268 C7.49877086,13.4228268 8.43052112,13.1872284 8.45980107,12.4524223 L8.45426743,12.3083506 C8.43829028,12.1681042 8.39094893,12.0120208 8.30221225,11.8385337 C8.12759844,11.3524139 7.81817751,10.6435175 7.45501529,10.4904406 C7.93160613,10.3440542 9.0848652,10.073343 11.0325785,10.1031962 C12.9802464,10.133007 14.1233836,10.4389068 14.5945731,10.5997752 C14.2262365,10.741673 13.8919874,11.4407031 13.7003525,11.921191 C13.6292724,12.0492103 13.581809,12.1681783 13.5536923,12.2785775 L13.5318209,12.3865194 C13.4056832,13.231216 14.4476016,13.5292819 14.4476016,13.5292819 L17.6395347,14.1915142 C18.0389632,14.2743833 18.4533703,14.1094498 18.6576235,13.7786089 C18.6589852,13.7760258 18.6608008,13.7734004 18.6621625,13.7708174 C19.0620449,13.1184938 19.1646254,12.3414644 18.9735352,11.6115225 C18.0963677,8.25657213 12.126662,8.08057728 11.1956334,8.07360816 L11.0736561,8.07364619 C11.0736561,8.07364619 4.13281398,7.75826117 3.05331302,11.3676157 Z" id="Combined-Shape"></path>
            </g>
        </g>
    </g>
</svg>
