<?xml version="1.0" encoding="UTF-8"?>
<svg viewBox="0 0 22 22" version="1.1" xmlns="http://www.w3.org/2000/svg" xmlns:xlink="http://www.w3.org/1999/xlink">

    <g id="Page-1" stroke="none" stroke-width="1" fill="none" fill-rule="evenodd">
        <g id="icons" transform="translate(-299.000000, -1159.000000)" fill="#585F73" fill-rule="nonzero">
            <g id="fa-camera2" transform="translate(299.000000, 1159.000000)">
                <path d="M11,0 C17.0655833,0 22,4.93441667 22,11 C22,17.0655833 17.0655833,22 11,22 C4.93441667,22 0,17.0655833 0,11 C0,4.93441667 4.93441667,0 11,0 Z M11,1.3 C5.65238684,1.3 1.3,5.65238684 1.3,11 C1.3,16.3476132 5.65238684,20.7 11,20.7 C16.3476132,20.7 20.7,16.3476132 20.7,11 C20.7,5.65238684 16.3476132,1.3 11,1.3 Z M4.84584457,7 L13.3041554,7 C13.7346755,7 14.0911089,7.32963543 14.1433974,7.75437828 L14.15,7.86240968 L14.15,9.375 L16.474574,7.15999121 C16.7296942,6.98836977 17.0544303,6.95330212 17.3446695,7.0621409 L17.4666421,7.11761812 C17.7589886,7.27553932 17.9530266,7.56555822 17.9925369,7.89326253 L18,8.01773375 L18,14.0325456 C18,14.4101524 17.7955319,14.7551944 17.4666421,14.9326613 C17.3214514,15.0112946 17.1626257,15.05 17.0046539,15.05 C16.8543673,15.05 16.7047329,15.0148434 16.5680628,14.945085 L16.4681835,14.886287 L14.15,12.712 L14.15,14.1858081 C14.15,14.6247481 13.8266835,14.9881716 13.4101088,15.0414856 L13.3041554,15.0482178 L4.84584457,15.0482178 C4.41532449,15.0482178 4.05889108,14.7185823 4.00660262,14.2938395 L4,14.1858081 L4,7.86240968 C4,7.42344426 4.32331649,7.06004225 4.73989116,7.00673168 L4.84584457,7 L13.3041554,7 Z" id="Path"></path>
            </g>
        </g>
    </g>
</svg>
