<?xml version="1.0" encoding="UTF-8"?>
<svg viewBox="0 0 22 22" version="1.1" xmlns="http://www.w3.org/2000/svg" xmlns:xlink="http://www.w3.org/1999/xlink">

    <g id="Page-1" stroke="none" stroke-width="1" fill="none" fill-rule="evenodd">
        <g id="icons" transform="translate(-229.000000, -1159.000000)" fill="#585F73" fill-rule="nonzero">
            <g id="fa-cameraoff" transform="translate(229.000000, 1159.000000)">
                <path d="M11,0 C17.0655833,0 22,4.93441667 22,11 C22,17.0655833 17.0655833,22 11,22 C4.93441667,22 0,17.0655833 0,11 C0,4.93441667 4.93441667,0 11,0 Z M15.5464466,5.35355339 C15.3511845,5.15829124 15.034602,5.15829124 14.8393398,5.35355339 L14.8393398,5.35355339 L13.192,7 L13.19,7 L5.142,15.048 L5.144,15.048 L4.23273811,15.9601551 C4.05917176,16.1337215 4.03988661,16.4031459 4.17488266,16.598014 L4.23273811,16.6672619 C4.42800026,16.862524 4.74458275,16.862524 4.93984489,16.6672619 L4.93984489,16.6672619 L6.558,15.048 L13.3041554,15.0482178 L13.4101088,15.0414856 C13.8266835,14.9881716 14.15,14.6247481 14.15,14.1858081 L14.15,14.1858081 L14.15,12.712 L16.4681835,14.886287 L16.5680628,14.945085 C16.7047329,15.0148434 16.8543673,15.05 17.0046539,15.05 C17.1626257,15.05 17.3214514,15.0112946 17.4666421,14.9326613 C17.7955319,14.7551944 18,14.4101524 18,14.0325456 L18,14.0325456 L18,8.01773375 L17.9925369,7.89326253 C17.9530266,7.56555822 17.7589886,7.27553932 17.4666421,7.11761812 L17.4666421,7.11761812 L17.3446695,7.0621409 C17.0544303,6.95330212 16.7296942,6.98836977 16.474574,7.15999121 L16.474574,7.15999121 L14.15,9.375 L14.15,7.86240968 L14.1433974,7.75437828 C14.1334774,7.67379764 14.1126106,7.59664012 14.0823678,7.52450717 L15.5464466,6.06066017 C15.7417088,5.86539803 15.7417088,5.54881554 15.5464466,5.35355339 Z M11.775,7 L4.84584457,7 L4.73989116,7.00673168 C4.32331649,7.06004225 4,7.42344426 4,7.86240968 L4,7.86240968 L4,14.1858081 L4.00660262,14.2938395 C4.02234858,14.421745 4.06567534,14.5410259 4.13030049,14.6452776 L11.775,7 Z" id="Shape"></path>
            </g>
        </g>
    </g>
</svg>
