<?xml version="1.0" encoding="UTF-8"?>
<svg viewBox="0 0 22 22" version="1.1" xmlns="http://www.w3.org/2000/svg" xmlns:xlink="http://www.w3.org/1999/xlink">

    <g id="Page-1" stroke="none" stroke-width="1" fill="none" fill-rule="evenodd">
        <g id="icons" transform="translate(-586.000000, -744.000000)" fill="#585F73">
            <g id="fa-chat-o" transform="translate(586.000000, 744.000000)">
                <path d="M14.5851386,0 C15.9143611,0 16.9959723,1.10963139 16.9959723,2.47378971 L16.9959723,2.47378971 L16.9959717,8.02870464 L19.9953409,8.02870464 C21.1007863,8.02870464 22.0007282,8.89036861 22,10.025344 L22,10.025344 L22,16.9388823 C22,18.073382 21.1004559,18.9969764 19.9444289,18.9969764 L19.9444289,18.9969764 L19.9656811,22 L15.7302699,18.9969764 L10.012435,18.9969764 C8.90652607,18.9969764 8.00704821,18.073382 8.00704821,16.9388823 L8.00704821,16.9388823 L8.00704779,13.0133238 L7.73560225,13.0133238 L2.55774533,16.6840559 L2.58409541,13.0133238 L2.41003922,13.0133238 C1.08121396,13.0133238 0,11.9028091 0,10.5386508 L0,10.5386508 L4.21263591e-07,2.47385765 C4.21263591e-07,1.11010702 1.08121438,6.79463224e-05 2.41003965,0 L2.41003965,0 Z M2.5706169,0.858654054 C1.71294724,0.858654054 1.01489318,1.57382329 1.01489318,2.45307867 L1.01489318,2.45307867 L1.0148932,10.4445981 C1.0148932,11.3242596 1.7124848,12.0399027 2.57061693,12.0399027 L2.57061693,12.0399027 L3.67797888,12.0399027 L3.67797888,14.5785094 L7.13806213,12.0399027 L7.99049258,12.0399028 L14.4624605,12.0513775 C15.3205926,12.0513775 16.0190431,11.3357344 16.0190431,10.4560728 L16.0190431,10.4560728 L16.0190436,2.60115655 C16.0190436,1.72196886 15.3205931,1.00673194 14.462461,1.00673194 L14.462461,1.00673194 Z M13.5,7.00023348 C13.5,7.55244988 13.0520726,8 12.5004335,8 C11.9479274,8 11.5,7.55238318 11.5,7.00023348 C11.5,6.44808379 11.9479274,6 12.5004335,6 C13.0520726,6 13.5,6.44801708 13.5,7.00023348 L13.5,7.00023348 Z M9.5,7 C9.5,7.55248766 9.05293961,8 8.50043352,8 C7.94792744,8 7.5,7.55248766 7.5,7 C7.5,6.44751234 7.94792744,6 8.50043352,6 C9.05293961,6 9.5,6.44704548 9.5,7 L9.5,7 Z M5.5,7 C5.5,7.55248766 5.05226667,8 4.5,8 C3.94773333,8 3.5,7.55248766 3.5,7 C3.5,6.44751234 3.94773333,6 4.5,6 C5.05226667,6 5.5,6.44704548 5.5,7 L5.5,7 Z" id="Combined-Shape"></path>
            </g>
        </g>
    </g>
</svg>
