<?xml version="1.0" encoding="UTF-8"?>
<svg viewBox="0 0 22 22" version="1.1" xmlns="http://www.w3.org/2000/svg" xmlns:xlink="http://www.w3.org/1999/xlink">

    <g id="Page-1" stroke="none" stroke-width="1" fill="none" fill-rule="evenodd">
        <g id="icons" transform="translate(-373.000000, -94.000000)" fill="#585F73">
            <g id="fa-chat" transform="translate(373.000000, 94.000000)">
                <path d="M16.9959713,8.04589849 L16.9959719,2.49098355 C16.9959719,1.12682524 15.9143607,0.0171938462 14.5851382,0.0171938462 L2.41003922,0.0171938462 C1.08121396,0.0172617925 -3.71249373e-13,1.12730086 -3.71249373e-13,2.4910515 L-4.21263962e-07,10.5558446 C-4.21263962e-07,11.9200029 1.08121354,13.0305176 2.4100388,13.0305176 L2.58409498,13.0305176 L2.5577449,16.7012498 L7.73560182,13.0305176 L8.00704737,13.0305176 L8.00704779,16.9560761 C8.00704779,18.0905759 8.90652565,19.0141702 10.0124345,19.0141702 L15.7302695,19.0141702 L19.9656807,22.0171938 L19.9444285,19.0141702 C21.1004555,19.0141702 21.9999996,18.0905759 21.9999996,16.9560761 L21.9999996,10.0425378 C22.0007278,8.90756245 21.1007859,8.04589849 19.9953404,8.04589849 L16.9959713,8.04589849 Z M3.67797846,14.5957032 L3.67797846,12.0570966 L2.57061651,12.0570966 C1.71248437,12.0570966 1.01489278,11.3414535 1.01489278,10.461792 L1.01489276,2.47027252 C1.01489276,1.59101713 1.71294681,0.875847901 2.57061648,0.875847901 L14.4624606,1.02392578 C15.3205927,1.02392578 16.0190432,1.7391627 16.0190432,2.6183504 L16.019043,7.96620076 L16.0190426,10.4732667 C16.0190426,11.3529282 15.3205922,12.0685713 14.4624601,12.0685713 L7.99049216,12.0570967 L7.13806171,12.0570966 L3.67797846,14.5957032 Z M19.8852931,8.99781725 C20.5205183,8.99781725 21.037221,9.52723878 21.037221,10.1781003 L21.0372211,16.8922767 C21.0373532,17.5431382 20.5206505,18.0725598 19.8854253,18.0725598 L19.020874,18.0725605 L19.020874,20.0526125 L16.168457,18.0725605 L10.1803703,18.0725601 C9.54514509,18.0725601 9.02844238,17.5431386 9.02844238,16.8922771 L9.02844238,13.0281984 L14.5823071,13.0281983 C15.9087155,13.0281983 16.9880368,11.9219029 16.9880368,10.5627768 L16.9880367,8.99781746 L19.8852931,8.99781725 Z M12.5004331,6.01719385 C13.0520721,6.01719385 13.4999996,6.46521092 13.4999996,7.01742733 C13.4999996,7.56964373 13.0520721,8.01719385 12.5004331,8.01719385 C11.947927,8.01719385 11.4999996,7.56957702 11.4999996,7.01742733 C11.4999996,6.46527763 11.947927,6.01719385 12.5004331,6.01719385 Z M8.5004331,6.01719385 C9.05293919,6.01719385 9.49999958,6.46423933 9.49999958,7.01719385 C9.49999958,7.56968151 9.05293919,8.01719385 8.5004331,8.01719385 C7.94792701,8.01719385 7.49999958,7.56968151 7.49999958,7.01719385 C7.49999958,6.46470618 7.94792701,6.01719385 8.5004331,6.01719385 Z M4.49999958,6.01719385 C5.05226625,6.01719385 5.49999958,6.46423933 5.49999958,7.01719385 C5.49999958,7.56968151 5.05226625,8.01719385 4.49999958,8.01719385 C3.94773291,8.01719385 3.49999958,7.56968151 3.49999958,7.01719385 C3.49999958,6.46470618 3.94773291,6.01719385 4.49999958,6.01719385 Z" id="Combined-Shape"></path>
            </g>
        </g>
    </g>
</svg>
