<?xml version="1.0" encoding="UTF-8"?>
<svg viewBox="0 0 8 14" version="1.1" xmlns="http://www.w3.org/2000/svg" xmlns:xlink="http://www.w3.org/1999/xlink">

    <g id="Page-1" stroke="none" stroke-width="1" fill="none" fill-rule="evenodd">
        <g id="icons" transform="translate(-307.000000, -511.000000)" fill="#585F73">
            <g id="fa-chevron-circle-right-o" transform="translate(299.000000, 507.000000)">
                <path d="M8.51739033,4.47601244 C8.7164853,4.27691747 9.0236984,4.28029563 9.21526527,4.4718625 L9.21526527,4.4718625 L15.327443,10.5840403 C15.3700929,10.6266901 15.4031556,10.6752741 15.4266585,10.7271762 L15.4554261,10.8067371 C15.4992261,10.9709445 15.4551543,11.150054 15.327443,11.2777653 L15.327443,11.2777653 L9.21526527,17.389943 C9.02334104,17.5818673 8.71124915,17.5796519 8.51739033,17.3857931 L8.51739033,17.3857931 L8.24714339,17.1155462 C8.04804842,16.9164512 8.05142658,16.6092381 8.24299345,16.4176712 L8.24299345,16.4176712 L13.7295701,10.9304391 L8.24299345,5.44413433 C8.07239413,5.27353501 8.05518905,5.0079884 8.18962511,4.81493097 L8.24714339,4.74625938 Z" id="Combined-Shape"></path>
            </g>
        </g>
    </g>
</svg>
