<?xml version="1.0" encoding="UTF-8"?>
<svg viewBox="0 0 22 22" version="1.1" xmlns="http://www.w3.org/2000/svg" xmlns:xlink="http://www.w3.org/1999/xlink">

    <g id="Page-1" stroke="none" stroke-width="1" fill="none" fill-rule="evenodd">
        <g id="icons" transform="translate(-443.000000, -567.000000)" fill="#585F73">
            <g id="fa-chevron-circle-left" transform="translate(443.000000, 567.000000)">
                <path d="M11.0094746,0 C4.94573643,0 0,4.93103448 0,11 C0,17.0689655 4.92678725,22 11.0094746,22 C17.0732127,22 22,17.0689655 22,11 C22,4.93103448 17.0732127,0 11.0094746,0 L11.0094746,0 Z M11,20.625 C5.69564128,20.625 1.375,16.3043587 1.375,11 C1.375,5.69564128 5.69564128,1.375 11,1.375 C16.3043587,1.375 20.625,5.69564128 20.625,11 C20.625,16.3043587 16.3043587,20.625 11,20.625 L11,20.625 Z M12.6465403,4.4718625 C12.8381071,4.28029563 13.1453202,4.27691747 13.3444152,4.47601244 L13.6146622,4.74625938 C13.808521,4.9401182 13.8107363,5.2522101 13.6188121,5.44413433 L8.132,10.931 L13.6188121,16.4176712 C13.810379,16.6092381 13.8137571,16.9164512 13.6146622,17.1155462 L13.3444152,17.3857931 C13.1505564,17.5796519 12.8384645,17.5818673 12.6465403,17.389943 L6.81352006,11.5568643 C6.81192643,11.5553096 6.8103395,11.5537423 6.80875938,11.5521622 L6.53851244,11.2819152 L6.5343625,11.2777653 C6.34279563,11.0861984 6.33941747,10.7789853 6.53851244,10.5798903 L12.6465403,4.4718625 Z" id="chevron-circle-left"></path>
            </g>
        </g>
    </g>
</svg>
