<?xml version="1.0" encoding="UTF-8"?>
<svg viewBox="0 0 22 22" version="1.1" xmlns="http://www.w3.org/2000/svg" xmlns:xlink="http://www.w3.org/1999/xlink">

    <g id="Page-1" stroke="none" stroke-width="1" fill="none" fill-rule="evenodd">
        <g id="icons" transform="translate(-650.000000, -567.000000)" fill="#585F73">
            <g id="fa-chevron-circle-up" transform="translate(661.000000, 578.000000) scale(1, -1) rotate(90.000000) translate(-661.000000, -578.000000) translate(650.000000, 567.000000)">
                <path d="M11.0094746,0 C4.94573643,0 0,4.93103448 0,11 C0,17.0689655 4.92678725,22 11.0094746,22 C17.0732127,22 22,17.0689655 22,11 C22,4.93103448 17.0732127,0 11.0094746,0 L11.0094746,0 Z M11,20.625 C5.69564128,20.625 1.375,16.3043587 1.375,11 C1.375,5.69564128 5.69564128,1.375 11,1.375 C16.3043587,1.375 20.625,5.69564128 20.625,11 C20.625,16.3043587 16.3043587,20.625 11,20.625 L11,20.625 Z M15.3232931,10.5798903 C15.5223881,10.7789853 15.5190099,11.0861984 15.327443,11.2777653 L15.327443,11.2777653 L15.3232931,11.2819152 L15.0530462,11.5521622 C15.0514883,11.55372 15.0499238,11.5552655 15.0483528,11.5567986 L9.21526527,17.389943 C9.02334104,17.5818673 8.71124915,17.5796519 8.51739033,17.3857931 L8.51739033,17.3857931 L8.24714339,17.1155462 C8.04804842,16.9164512 8.05142658,16.6092381 8.24299345,16.4176712 L8.24299345,16.4176712 L13.729,10.931 L8.24299345,5.44413433 C8.07239413,5.27353501 8.05518905,5.0079884 8.18962511,4.81493097 L8.24714339,4.74625938 L8.51739033,4.47601244 C8.7164853,4.27691747 9.0236984,4.28029563 9.21526527,4.4718625 L9.21526527,4.4718625 Z" id="chevron-circle-down"></path>
            </g>
        </g>
    </g>
</svg>
