<?xml version="1.0" encoding="UTF-8"?>
<svg viewBox="0 0 14 14" version="1.1" xmlns="http://www.w3.org/2000/svg" xmlns:xlink="http://www.w3.org/1999/xlink">

    <g id="Page-1" stroke="none" stroke-width="1" fill="none" fill-rule="evenodd">
        <g id="icons" transform="translate(-518.000000, -511.000000)" fill="#585F73" stroke="#585F73" stroke-width="0.4">
            <g id="fa-chevron-circle-undo-o-" transform="translate(514.000000, 507.000000)">
                <path d="M16.2600708,5.41343668 L16.2600708,8.09040833 C15.1899567,6.25198364 13.162069,5 11,5 C7.68965517,5 5,7.6873385 5,11.005168 C5,14.3229974 7.68965517,17 11,17 C14.3103448,17 17,14.3126615 17,11.005168 C17,10.7674419 16.8695228,10.5864563 16.6315918,10.5864563 C16.3936608,10.5864563 16.2600708,10.7674416 16.2600708,11.0051677 C16.2600708,13.9324799 13.8344828,16.2550354 10.9896553,16.2550354 C8.14482767,16.2550354 5.74789429,13.8822632 5.74789429,11.0051677 C5.74789429,8.12807226 8.09022522,5.7540741 10.9896553,5.7540741 C13.1096954,5.7540741 14.957509,7.02583984 15.7850952,8.84496129 L12.7172414,8.84496124 C12.4793103,8.84496124 12.2750092,8.99393284 12.2750092,9.23165894 C12.2750092,9.46938503 12.4829923,9.59718323 12.7209234,9.59718323 L16.5795441,9.59718323 C16.8174751,9.59718323 17,9.38822353 17,9.15049744 L17,5.41343669 C17,5.18604651 16.859178,5 16.6315918,5 C16.3936608,5 16.2600708,5.17571058 16.2600708,5.41343668 Z" id="Shape"></path>
            </g>
        </g>
    </g>
</svg>
