<?xml version="1.0" encoding="UTF-8"?>
<svg width="14px" height="22px" viewBox="0 0 14 22" version="1.1" xmlns="http://www.w3.org/2000/svg" xmlns:xlink="http://www.w3.org/1999/xlink">

    <g id="Page-1" stroke="none" stroke-width="1" fill="none" fill-rule="evenodd">
        <g id="icons" transform="translate(-447.000000, -448.000000)" fill="#585F73">
            <g id="fa-chevron-down-up" transform="translate(443.000000, 448.000000)">
                <path d="M17.2233609,13.9411232 C17.7309936,14.4641388 17.6990447,15.3445089 17.2209943,15.8343923 C16.7441271,16.3230924 11.7198643,21.10833 11.7198643,21.10833 C11.464273,21.3698378 11.1305843,21.5 10.7968956,21.5 C10.4632069,21.5 10.128335,21.3698378 9.87392693,21.10833 C9.87392693,21.10833 4.8496641,16.3230924 4.37279695,15.8343923 C3.8959298,15.3445089 3.86279759,14.4641388 4.37279695,13.9411232 C4.88279631,13.4181076 5.59395551,13.3766923 6.2199176,13.9411232 L10.7980789,18.3311409 L15.3762402,13.9411232 C16.001019,13.3766923 16.7133615,13.4181076 17.2233609,13.9411232 Z M10.7942778,0.5 C11.1279665,0.5 11.4616552,0.630162249 11.7172465,0.891670042 C11.7172465,0.891670042 16.2632928,5.22144184 17.11724,6.06447351 L17.2183765,6.16560773 C17.6964269,6.65549111 17.7283758,7.53586123 17.2207431,8.05887681 C16.7107437,8.5818924 15.9984012,8.62330766 15.3736224,8.05887681 L15.3736224,8.05887681 L10.7954611,3.66885913 L6.21729981,8.05887681 C5.59133772,8.62330766 4.88017852,8.5818924 4.37017917,8.05887681 C3.86017981,7.53586123 3.89331202,6.65549111 4.37017917,6.16560773 C4.84704632,5.67690765 9.87130914,0.891670042 9.87130914,0.891670042 C10.1257172,0.630162249 10.4605891,0.5 10.7942778,0.5 Z" id="Combined-Shape"></path>
            </g>
        </g>
    </g>
</svg>
