<?xml version="1.0" encoding="UTF-8"?>
<svg width="14px" height="8px" viewBox="0 0 14 8" version="1.1" xmlns="http://www.w3.org/2000/svg" xmlns:xlink="http://www.w3.org/1999/xlink">

    <g id="Page-1" stroke="none" stroke-width="1" fill="none" fill-rule="evenodd">
        <g id="icons" transform="translate(-377.000000, -455.000000)" fill="#585F73">
            <g id="fa-chevron-up" transform="translate(373.000000, 448.000000)">
                <path d="M11.7172465,14.5751469 C11.4616552,14.8366547 11.1279665,14.966817 10.7942778,14.966817 C10.4605891,14.966817 10.1257172,14.8366547 9.87130914,14.5751469 C9.87130914,14.5751469 4.84704632,9.78990934 4.37017917,9.30120926 C3.89331202,8.81132588 3.86017981,7.93095576 4.37017917,7.40794018 C4.88017852,6.88492459 5.59133772,6.84350933 6.21729981,7.40794018 L10.7954611,11.7979579 L15.3736224,7.40794018 C15.9984012,6.84350933 16.7107437,6.88492459 17.2207431,7.40794018 C17.7283758,7.93095576 17.6964269,8.81132588 17.2183765,9.30120926 C16.7415093,9.78990934 11.7172465,14.5751469 11.7172465,14.5751469 Z" id="Shape-Copy" transform="translate(10.794651, 10.983408) scale(1, -1) translate(-10.794651, -10.983408) "></path>
            </g>
        </g>
    </g>
</svg>
