<?xml version="1.0" encoding="UTF-8"?>
<svg width="14px" height="15px" viewBox="0 0 14 15" version="1.1" xmlns="http://www.w3.org/2000/svg" xmlns:xlink="http://www.w3.org/1999/xlink">

    <g id="Page-1" stroke="none" stroke-width="1" fill="none" fill-rule="evenodd">
        <g id="icons" transform="translate(-40.000000, -452.000000)" fill="#585F73">
            <g id="fa-chevron-down-o" transform="translate(36.000000, 448.000000)">
                <path d="M17.2233609,11.4411232 C17.7309936,11.9641388 17.6990447,12.8445089 17.2209943,13.3343923 C16.7441271,13.8230924 11.7198643,18.60833 11.7198643,18.60833 C11.464273,18.8698378 11.1305843,19 10.7968956,19 C10.4632069,19 10.128335,18.8698378 9.87392693,18.60833 C9.87392693,18.60833 4.8496641,13.8230924 4.37279695,13.3343923 C3.8959298,12.8445089 3.86279759,11.9641388 4.37279695,11.4411232 C4.88279631,10.9181076 5.59395551,10.8766923 6.2199176,11.4411232 L10.7980789,15.8311409 L15.3762402,11.4411232 C16.001019,10.8766923 16.7133615,10.9181076 17.2233609,11.4411232 Z M17.2207431,4.40794018 C17.7283758,4.93095576 17.6964269,5.81132588 17.2183765,6.30120926 L17.11724,6.40234347 C16.2632928,7.24537514 11.7172465,11.5751469 11.7172465,11.5751469 C11.4616552,11.8366547 11.1279665,11.966817 10.7942778,11.966817 C10.4605891,11.966817 10.1257172,11.8366547 9.87130914,11.5751469 C9.87130914,11.5751469 4.84704632,6.78990934 4.37017917,6.30120926 C3.89331202,5.81132588 3.86017981,4.93095576 4.37017917,4.40794018 C4.88017852,3.88492459 5.59133772,3.84350933 6.21729981,4.40794018 L10.7954611,8.79795786 L15.3736224,4.40794018 C15.9984012,3.84350933 16.7107437,3.88492459 17.2207431,4.40794018 Z" id="Combined-Shape"></path>
            </g>
        </g>
    </g>
</svg>
