<?xml version="1.0" encoding="UTF-8"?>
<svg width="14px" height="15px" viewBox="0 0 14 15" version="1.1" xmlns="http://www.w3.org/2000/svg" xmlns:xlink="http://www.w3.org/1999/xlink">

    <g id="Page-1" stroke="none" stroke-width="1" fill="none" fill-rule="evenodd">
        <g id="icons" transform="translate(-104.000000, -452.000000)" fill="#585F73">
            <g id="fa-chevron-up-o" transform="translate(100.000000, 448.000000)">
                <path d="M10.7968956,11.033183 C11.1305843,11.033183 11.464273,11.1633453 11.7198643,11.4248531 C11.7198643,11.4248531 16.7441271,16.2100907 17.2209943,16.6987907 C17.6990447,17.1886741 17.7309936,18.0690442 17.2233609,18.5920598 C16.7133615,19.1150754 16.001019,19.1564907 15.3762402,18.5920598 L15.3762402,18.5920598 L10.7980789,14.2020421 L6.2199176,18.5920598 C5.59395551,19.1564907 4.88279631,19.1150754 4.37279695,18.5920598 C3.86279759,18.0690442 3.8959298,17.1886741 4.37279695,16.6987907 C4.8496641,16.2100907 9.87392693,11.4248531 9.87392693,11.4248531 C10.128335,11.1633453 10.4632069,11.033183 10.7968956,11.033183 Z M10.7942778,4 C11.1279665,4 11.4616552,4.13016225 11.7172465,4.39167004 C11.7172465,4.39167004 16.2632928,8.72144184 17.11724,9.56447351 L17.2183765,9.66560773 C17.6964269,10.1554911 17.7283758,11.0358612 17.2207431,11.5588768 C16.7107437,12.0818924 15.9984012,12.1233077 15.3736224,11.5588768 L15.3736224,11.5588768 L10.7954611,7.16885913 L6.21729981,11.5588768 C5.59133772,12.1233077 4.88017852,12.0818924 4.37017917,11.5588768 C3.86017981,11.0358612 3.89331202,10.1554911 4.37017917,9.66560773 C4.84704632,9.17690765 9.87130914,4.39167004 9.87130914,4.39167004 C10.1257172,4.13016225 10.4605891,4 10.7942778,4 Z" id="Combined-Shape"></path>
            </g>
        </g>
    </g>
</svg>
