<?xml version="1.0" encoding="UTF-8"?>
<svg width="22px" height="22px" viewBox="0 0 22 22" version="1.1" xmlns="http://www.w3.org/2000/svg" xmlns:xlink="http://www.w3.org/1999/xlink">

    <g id="Page-1" stroke="none" stroke-width="1" fill="none" fill-rule="evenodd">
        <g id="icons" transform="translate(-650.000000, -212.000000)" fill="#585F73">
            <g id="fa-clinic-o" transform="translate(650.000000, 212.000000)">
                <path d="M20.6416698,20.6947668 L20.6416698,5.46959432 C20.6327753,4.75388255 20.0244881,4.1715967 19.2768169,4.1715967 L15.8070772,4.17159632 C15.8070772,2.95908827 15.023812,2.77599536 14.4660181,2.77599536 L13.0670134,2.77599536 L13.0753782,0.97712915 C13.0753782,0.443178257 12.6215842,0.00878172057 12.0637902,0.00878172057 L10.0014068,0.00878172057 C9.4436129,0.00878172057 8.98981884,0.443178257 8.98981884,0.97712915 L8.98145405,2.77599536 L7.58244938,2.77599536 C7.02465546,2.77599536 6.26138205,3.01967172 6.26138205,4.17159632 L2.71299724,4.17159632 C1.9653261,4.17159632 1.35703887,4.75388217 1.36593339,5.46959393 L1.36593339,20.6947664 L0.5299793,20.6947664 C0.351681535,20.6947664 3.92643514e-17,20.6947668 0,21.3358437 C3.92643498e-17,21.9769207 0.35168153,22 0.529979295,22 L21.481447,22 C21.6597448,22 21.996658,21.9769207 21.996658,21.3358437 C21.996658,20.6947668 21.6597448,20.6947664 21.481447,20.6947664 L20.6416698,20.6947668 Z M19.2605014,6.19373222 L19.2605014,7.26756128 L12.9918769,7.26756137 L12.9918769,6.88643964 L14.3908815,6.88643964 C15.4786878,6.88643963 15.7252172,6.04777973 15.7252172,5.51382884 L15.7252172,5.4932257 L18.5502375,5.51382871 C18.9418727,5.51382871 19.2605014,5.81883754 19.2605014,6.19373222 Z M10.0105255,4.15145774 C10.1888233,4.15145774 10.3333727,4.01308707 10.3333727,3.84241069 L10.3333728,1.38878544 L11.7539006,1.38878544 L11.7539006,3.84241069 C11.7539006,4.01308707 11.89845,4.15145774 12.0767478,4.15145774 L14.4013923,4.15145774 L14.4013923,5.51126477 L12.0767478,5.51126477 C11.89845,5.51126477 11.7539006,5.64963543 11.7539006,5.82031182 L11.7539006,8.2605594 L10.3333728,8.2605594 L10.3333727,5.82031182 C10.3333727,5.64963543 10.1888233,5.51126477 10.0105255,5.51126477 L7.59322264,5.51126477 L7.59322264,4.15145774 L10.0105255,4.15145774 Z M6.24882168,5.49100643 L6.24882168,5.51160957 C6.24882168,6.04556046 6.64202671,6.89315241 7.64303277,6.89315237 L8.97826539,6.89315237 L8.97826539,7.29122421 L2.79317892,7.29122421 L2.77739594,6.1709099 C2.77739594,5.79601522 3.09602463,5.49100639 3.48765985,5.49100639 L6.24882168,5.49100643 Z M9.00112846,8.27230714 C9.00112846,8.82686117 8.99449166,9.63788731 10.0605441,9.65849045 L12.0319397,9.63788731 C12.9957,9.63788731 12.9957,8.80625804 12.9957,8.27230714 L19.2734238,8.2723072 L19.2734238,20.6479443 L9.64237058,20.6479443 L9.64237058,13.008724 C9.64237058,12.656534 9.34306967,12.3700268 8.97515297,12.3700268 L4.78890586,12.3700268 C4.42098915,12.3700268 4.12168824,12.6565341 4.12168824,13.0087241 L4.12168824,20.6479443 L2.79556526,20.647944 L2.79556526,8.27230685 L9.00112846,8.27230714 Z M5.50520619,20.6536501 L5.50520605,19.2931238 L8.31419686,19.2931239 L8.31419701,20.6536502 L5.50520619,20.6536501 Z M5.52752629,17.8876215 L5.52752629,16.514173 L8.29036642,16.514173 L8.29036642,17.8876215 L5.52752629,17.8876215 Z M17.5386129,10.9950377 C17.7403709,10.9950377 17.9045064,11.1521572 17.9045064,11.345291 L17.9045064,11.345291 L17.9045062,16.1862503 C17.9045062,16.3793841 17.7403707,16.5365037 17.5386127,16.5365037 L17.5386127,16.5365037 L11.3642224,16.5365037 C11.1624644,16.5365037 10.9983289,16.3793842 10.9983289,16.1862504 L10.9983289,16.1862504 L10.998329,11.345291 C10.998329,11.1521572 11.1624646,10.9950377 11.3642226,10.9950377 L11.3642226,10.9950377 Z M8.27929019,13.7490866 L8.27929023,15.1215927 L5.54315469,15.1215927 L5.54315469,13.7490866 L8.27929019,13.7490866 L8.27929019,13.7490866 Z M16.4817183,15.1017899 L12.4028245,15.1017899 L12.4028245,12.4382998 L16.4817183,12.4382998 L16.4817183,15.1017899 Z" id="Combined-Shape"></path>
            </g>
        </g>
    </g>
</svg>
