<?xml version="1.0" encoding="UTF-8"?>
<svg width="22px" height="22px" viewBox="0 0 22 22" version="1.1" xmlns="http://www.w3.org/2000/svg" xmlns:xlink="http://www.w3.org/1999/xlink">

    <g id="Page-1" stroke="none" stroke-width="1" fill="none" fill-rule="evenodd">
        <g id="icons" transform="translate(-443.000000, -35.000000)" fill="#585F73">
            <g id="fa-clock-o" transform="translate(443.000000, 35.000000)">
                <path d="M18.9963989,1.11181644 L18.9963989,0.366666698 C18.9963989,0.163900032 18.8207918,3.17891278e-08 18.6035418,3.17891278e-08 L15.4112287,3.17891278e-08 C15.1939787,3.17891278e-08 15.0183716,0.163900032 15.0183716,0.366666698 L15.0183716,1.11181644 L7.00354004,1.11181645 L7.00354004,0.366666706 C7.00354004,0.16390004 6.8279329,3.97364135e-08 6.6106829,3.97364135e-08 L3.39749581,3.17891278e-08 C3.18024581,3.17891278e-08 3.00463867,0.163900032 3.00463867,0.366666698 L3.00463867,1.11181644 L0.392857143,1.11181641 C0.175607143,1.11181641 0,1.27571641 0,1.47848307 L0,5.86666667 L0,21.6333333 C0,21.8361 0.175607143,22 0.392857143,22 L21.6071429,22 C21.8243929,22 22,21.8361 22,21.6333333 L22,5.86666667 L22,1.47848307 C22,1.27571641 21.8243929,1.11181641 21.6071429,1.11181641 L18.9963989,1.11181644 Z M18.0238037,1.0067749 L18.0238037,2.00634766 L18.0238037,3.00592039 L16.0039063,3.00592039 L16.0039063,2.00634766 L16.0039063,1.0067749 L18.0238037,1.0067749 Z M6.0201416,1.00347905 L6.0201416,1.83333343 L6.0201416,3.01074219 L4.01171875,3.01074214 L4.01171875,1.83333338 L4.01171875,1.003479 L6.0201416,1.00347905 Z M3.0253644,1.98486328 L3.02536447,3.59103599 C3.02536447,3.79380266 3.20097161,3.95770266 3.41822161,3.95770266 L6.62963867,3.95770266 C6.84688867,3.95770266 7.02249581,3.79380266 7.02249581,3.59103599 L7.02249575,1.98486328 L15.0255475,1.98486328 L15.0164185,3.59103596 C15.0164185,3.79380263 15.1920256,3.95770263 15.4092756,3.95770263 L18.6120867,3.95770263 C18.8293367,3.95770263 19.0049438,3.79380263 19.0049438,3.59103596 L19.0140729,1.98486328 L21.0188947,1.98486338 L21.0097656,5.02026367 L1.01574707,5.02026358 L1.02487612,1.98486328 L3.0253644,1.98486328 Z M1.00903402,21.0120843 L1.00903484,6.00781205 L21.0118416,6.0078125 L21.0118408,21.0120847 L1.00903402,21.0120843 Z M19,8 L19,19 L3,19 L3,8 L19,8 Z M4,14 L4,17.9902343 L8.0526123,17.9902344 L8.0526123,14.0000002 L4,14 Z M9,14 L9,17.9902343 L13.0526123,17.9902344 L13.0526123,14.0000002 L9,14 Z M13.979126,14 L13.979126,17.9902343 L18.0317383,17.9902344 L18.0317383,14.0000002 L13.979126,14 Z M18.0526123,9.00976573 L14,9.00976557 L14,12.9999998 L18.0526123,13 L18.0526123,9.00976573 Z M4,9 L4,12.9902343 L8.0526123,12.9902344 L8.0526123,9.00000015 L4,9 Z M8.97912598,9 L8.97912598,12.9902343 L13.0317383,12.9902344 L13.0317383,9.00000015 L8.97912598,9 Z M17.5,9.5 L17.5,12.5 L14.5,12.5 L14.5,9.5 L17.5,9.5 Z" id="Combined-Shape"></path>
            </g>
        </g>
    </g>
</svg>
