<?xml version="1.0" encoding="UTF-8"?>
<svg width="22px" height="22px" viewBox="0 0 22 22" version="1.1" xmlns="http://www.w3.org/2000/svg" xmlns:xlink="http://www.w3.org/1999/xlink">

    <g id="Page-1" stroke="none" stroke-width="1" fill="none" fill-rule="evenodd">
        <g id="icons" transform="translate(-299.000000, -567.000000)" fill="#585F73">
            <g id="fa-clock" transform="translate(299.000000, 567.000000)">
                <path d="M11.0094746,0 C17.0732127,0 22,4.93103448 22,11 C22,17.0689655 17.0732127,22 11.0094746,22 C4.92678725,22 0,17.0689655 0,11 C0,4.93103448 4.94573643,0 11.0094746,0 Z M11,1.375 C5.69564128,1.375 1.375,5.69564128 1.375,11 C1.375,16.3043587 5.69564128,20.625 11,20.625 C16.3043587,20.625 20.625,16.3043587 20.625,11 C20.625,5.69564128 16.3043587,1.375 11,1.375 Z M10.8089066,12.375 L10.734,12.368 C10.7284881,12.3671867 10.7281441,12.367127 10.7278002,12.3670671 L10.8089066,12.375 C10.7250372,12.375 10.6460258,12.3535931 10.5767489,12.3162702 C10.5717211,12.3132274 10.566164,12.3101876 10.5606738,12.3070493 C10.5532219,12.3028368 10.5462802,12.2985181 10.539454,12.2940377 C10.4027394,12.2069578 10.3125,12.0560227 10.3125,11.8785934 L10.3125,5.99443305 C10.3125,5.72136521 10.5273438,5.5 10.8089066,5.5 L11.1910934,5.5 C11.4652512,5.5 11.6875,5.72874355 11.6875,5.99443305 L11.687,11 L15.3049316,11 C15.5852539,11 15.8125,11.2148438 15.8125,11.4964066 L15.8125,11.8785934 C15.8125,12.1527512 15.5900815,12.375 15.3049316,12.375 L10.8089066,12.375 Z" id="clock"></path>
            </g>
        </g>
    </g>
</svg>
