<?xml version="1.0" encoding="UTF-8"?>
<svg width="22px" height="22px" viewBox="0 0 22 22" version="1.1" xmlns="http://www.w3.org/2000/svg" xmlns:xlink="http://www.w3.org/1999/xlink">

    <g id="Page-1" stroke="none" stroke-width="1" fill="none" fill-rule="evenodd">
        <g id="icons" transform="translate(-515.000000, -1099.000000)" fill="#585F73">
            <g id="fa-clock-off" transform="translate(515.000000, 1099.000000)">
                <path d="M1.20007382,2.90000041 L19.0191647,20.7190913 C19.2730055,20.9729321 19.2730055,21.3844893 19.0191647,21.6383301 C18.7653239,21.8921709 18.3537667,21.8921709 18.0999259,21.6383301 L16.6827269,20.2208816 C15.0393871,21.3425175 13.0460494,22 10.8988119,22 C5.26401219,22 0.699999988,17.500431 0.699999988,11.9625 C0.699999988,9.79174202 1.40394974,7.78052663 2.59829099,6.13731206 L0.280835,3.81923922 C0.0269942104,3.56539843 0.0269942104,3.1538412 0.280835,2.90000041 C0.53467579,2.64615962 0.946233026,2.64615962 1.20007382,2.90000041 Z M3.50694396,7.04538879 C2.53958772,8.44962553 1.97375436,10.1426129 1.97375436,11.9625 C1.97375436,16.8027273 5.97625305,20.7453125 10.8900349,20.7453125 C12.689682,20.7453125 14.3670938,20.2164728 15.7704104,19.3083804 Z M13.1058368,6.31088724e-30 C13.3828301,6.31088724e-30 13.6073776,0.214843745 13.6073776,0.496406544 L13.6073776,0.878593425 C13.6073776,1.15275119 13.3738559,1.37499997 13.1058368,1.37499997 L11.577,1.374 L11.5777765,1.94703382 C14.169858,2.11579848 16.4988179,3.24369259 18.202297,4.97347323 L18.493,4.682 L17.9045351,4.09300237 C17.7093514,3.8978186 17.7030411,3.58767341 17.9021361,3.38857845 L18.172383,3.11833151 C18.3662418,2.9244727 18.6783538,2.92227744 18.8768069,3.12073057 L21.0521611,5.29608471 C21.2473448,5.49126849 21.2536551,5.80141367 21.0545601,6.00050864 L20.7843132,6.27075557 C20.5904544,6.46461439 20.2783424,6.46680965 20.0798893,6.26835652 L19.466,5.655 L19.1012057,6.01970601 C20.2931359,7.61502263 21.0181298,9.56964279 21.0762828,11.6864847 L21.0800699,11.9625 C21.0800699,14.3252592 20.2492811,16.4990049 18.8603621,18.2149286 L17.9565889,17.3105838 C19.1159232,15.8281474 19.8063155,13.972741 19.8063155,11.9625 C19.8063155,7.12227261 15.8038168,3.17968743 10.8900349,3.17968743 C8.89726298,3.17968743 7.05436866,3.82811958 5.56753573,4.92188648 L4.66745892,4.02249962 C6.22046044,2.83921697 8.12796962,2.08671281 10.2023068,1.9481848 L10.202,1.374 L8.67423306,1.37499997 C8.39723973,1.37499997 8.17269227,1.16015622 8.17269227,0.878593425 L8.17269227,0.496406544 C8.17269227,0.22224878 8.40621391,6.31088724e-30 8.67423306,6.31088724e-30 L13.1058368,6.31088724e-30 Z M15.1704735,11.6956641 C15.4507958,11.6956641 15.6780418,11.920021 15.6780418,12.1861756 L15.6780418,12.5638239 C15.6780418,12.8347259 15.4556234,13.0543354 15.1704735,13.0543354 L13.6994544,13.054 L12.3404544,11.695 L15.1704735,11.6956641 Z M11.0788591,6.18749986 C11.3497611,6.18749986 11.5693706,6.41624341 11.5693706,6.6819329 L11.5684544,10.923 L10.2094544,9.564 L10.2106993,6.6819329 C10.2106993,6.40886507 10.4350562,6.18749986 10.7012108,6.18749986 L11.0788591,6.18749986 Z" id="Combined-Shape"></path>
            </g>
        </g>
    </g>
</svg>
