<?xml version="1.0" encoding="UTF-8"?>
<svg width="22px" height="14px" viewBox="0 0 22 14" version="1.1" xmlns="http://www.w3.org/2000/svg" xmlns:xlink="http://www.w3.org/1999/xlink">
    <g id="Page-1" stroke="none" stroke-width="1" fill="none" fill-rule="evenodd">
        <g id="icons" transform="translate(-165.000000, -866.000000)" fill="#585F73">
            <g id="fa-clock-up" transform="translate(165.000000, 862.000000)">
                <path d="M7.00602929,4 C10.8647717,4 14,7.13793103 14,11 C14,14.862069 10.8647717,18 7.00602929,18 C3.13522825,18 0,14.862069 0,11 C0,7.13793103 3.14728682,4 7.00602929,4 Z M7,4.875 C3.624499,4.875 0.875,7.624499 0.875,11 C0.875,14.375501 3.624499,17.125 7,17.125 C10.375501,17.125 13.125,14.375501 13.125,11 C13.125,7.624499 10.375501,4.875 7,4.875 Z M6.9916687,11.875 L6.945,11.87 L6.92135882,11.8682137 C6.92066932,11.868093 6.91998038,11.8679708 6.919292,11.867847 L6.9916687,11.875 C6.9469337,11.875 6.90379733,11.8677709 6.86324967,11.8544645 C6.85695307,11.8519503 6.85107078,11.8499333 6.84524777,11.8477978 C6.83844401,11.8455222 6.83122193,11.8425554 6.82409841,11.8393958 C6.66981823,11.773303 6.5625,11.6227107 6.5625,11.4395136 L6.5625,7.93548644 C6.5625,7.72169753 6.72284915,7.54388974 6.92321995,7.50701627 L7,7.5 C7.24162458,7.5 7.4375,7.68798828 7.4375,7.93548644 L7.437,10.999 L9.6333313,11 C9.8440187,11 10.019247,11.1603492 10.0555855,11.36072 L10.0625,11.4375 C10.0625,11.6791246 9.8743248,11.875 9.6333313,11.875 L6.9916687,11.875 Z M18.5018799,4.21796158 L21.6425781,7.33743044 C21.7528373,7.44768957 21.7508545,7.76638552 21.562439,7.92889141 C21.3740234,8.0913973 21.0947562,8.03915054 20.9844971,7.92889141 L18.6865234,5.56435915 L18.6865234,17.7234548 C18.6865234,17.8793967 18.5313721,18.0022254 18.2128906,18.0022254 C17.8944092,18.0022254 17.7325244,17.8793967 17.7325244,17.7234548 L17.7325244,5.56435915 L15.4099121,7.92889141 C15.299653,8.03915054 14.9705332,8.09439486 14.7913208,7.92889141 C14.5668833,7.72162233 14.7246704,7.33743044 14.7246704,7.33743044 C14.7246704,7.33743044 17.7959516,4.37006791 17.9473264,4.21796158 C18.0987013,4.06585525 18.3068309,4.06585525 18.5018799,4.21796158 Z" id="Combined-Shape"></path>
            </g>
        </g>
    </g>
</svg>
