<?xml version="1.0" encoding="UTF-8"?>
<svg width="22px" height="22px" viewBox="0 0 22 22" version="1.1" xmlns="http://www.w3.org/2000/svg" xmlns:xlink="http://www.w3.org/1999/xlink">

    <g id="Page-1" stroke="none" stroke-width="1" fill="none" fill-rule="evenodd">
        <g id="icons" transform="translate(-229.000000, -980.000000)" fill="#585F73">
            <g id="fa-close-up" transform="translate(229.000000, 980.000000)">
                <path d="M-3.24612794,10.3253236 L25.1967752,10.3253236 C25.5557602,10.3253236 25.8467751,10.6163385 25.8467751,10.9753236 C25.8467751,11.3343087 25.5557602,11.6253236 25.1967752,11.6253236 L-3.24612794,11.6253236 C-3.60511301,11.6253236 -3.89612792,11.3343087 -3.89612792,10.9753236 C-3.89612792,10.6163385 -3.60511301,10.3253236 -3.24612794,10.3253236 Z" id="Rectangle-8" transform="translate(10.975324, 10.975324) rotate(45.000000) translate(-10.975324, -10.975324) "></path>
                <path d="M-3.24612794,10.3253236 L25.1967752,10.3253236 C25.5557602,10.3253236 25.8467751,10.6163385 25.8467751,10.9753236 C25.8467751,11.3343087 25.5557602,11.6253236 25.1967752,11.6253236 L-3.24612794,11.6253236 C-3.60511301,11.6253236 -3.89612792,11.3343087 -3.89612792,10.9753236 C-3.89612792,10.6163385 -3.60511301,10.3253236 -3.24612794,10.3253236 Z" id="Rectangle-8" transform="translate(10.975324, 10.975324) rotate(-45.000000) translate(-10.975324, -10.975324) "></path>
            </g>
        </g>
    </g>
</svg>
