<?xml version="1.0" encoding="UTF-8"?>
<svg width="22px" height="20px" viewBox="0 0 22 20" version="1.1" xmlns="http://www.w3.org/2000/svg" xmlns:xlink="http://www.w3.org/1999/xlink">

    <g id="Page-1" stroke="none" stroke-width="1" fill="none" fill-rule="evenodd">
        <g id="icons" transform="translate(-514.000000, -804.000000)" fill="#585F73" fill-rule="nonzero">
            <g id="fa-cloud" transform="translate(514.000000, 803.000000)">
                <path d="M22,11.8707505 C22,14.4135873 19.9501826,16.4831144 17.4290081,16.4831144 L16.5535396,16.4831144 C16.2072428,16.4831144 15.9275233,16.2009004 15.9275233,15.8536585 C15.9275233,15.5064166 16.2072428,15.2242026 16.5535396,15.2242026 L17.4290081,15.2242026 C19.2581101,15.2242026 20.7479675,13.7200197 20.7479675,11.8707505 C20.7479675,10.2611988 19.5830111,8.82323599 18.0589221,8.53001821 C18.001945,8.52220618 17.9261567,8.51337969 17.8207675,8.50411282 C17.4035038,8.46742282 16.9621605,8.46455151 16.5535396,8.51699811 C16.5066437,8.5231984 16.5066437,8.5231984 16.461479,8.52988691 C16.4135282,8.5362243 16.4135282,8.5362243 16.3651382,8.53752345 C16.0567575,8.53752345 15.7930244,8.31045046 15.7467628,8.00218777 C15.6951365,7.65930848 15.9291056,7.33818327 16.271066,7.28570046 C16.761407,7.2103096 16.5535396,7.23868607 17.4722784,7.23868607 C17.1148677,4.70045989 14.9790813,2.75891182 12.4609431,2.75891182 C11.3501204,2.75891182 9.4796748,3.26360717 8.58309473,4.71149401 C9.24150907,5.36617293 9.4796748,6.23134777 9.4796748,7.18574109 C9.4796748,7.53298299 9.19995536,7.815197 8.85365854,7.815197 C8.50736171,7.815197 8.22764228,7.53298299 8.22764228,7.18574109 C8.22764228,6.41167742 7.83633311,5.70361302 7.2020116,5.28830378 C7.13310297,5.24314352 7.05870792,5.20091887 6.97689391,5.16013244 C6.94151848,5.14254472 6.94151848,5.14254472 6.91104513,5.1281075 C6.81496374,5.08424116 6.72800776,5.05016552 6.64941218,5.02589639 C6.53039695,4.99275175 6.44657315,4.97392725 6.35909023,4.95937151 C6.31889472,4.95262433 6.31889472,4.95262433 6.28445715,4.9477374 C6.17553297,4.9332197 6.08116953,4.92589118 5.99186992,4.92589118 C4.75993807,4.92589118 3.75609756,5.93948396 3.75609756,7.18574109 C3.75677331,7.21513569 3.75677331,7.21513569 3.75970843,7.25691683 L3.76432746,7.36279305 L3.76105815,7.426209 C3.75697925,7.49984418 3.75609756,7.52071992 3.75609756,7.54690432 L3.75609756,7.77443715 L3.75609756,8.00218777 L3.40151746,8.11379831 C2.16125144,8.71419179 1.25203252,10.1774848 1.25203252,11.5753189 C1.25203252,13.5877818 2.87276523,15.2242026 4.86325203,15.2242026 L6.1497061,15.2242026 C6.49600293,15.2242026 6.77572236,15.5064166 6.77572236,15.8536585 C6.77572236,16.2009004 6.49600293,16.4831144 6.1497061,16.4831144 L4.86325203,16.4831144 C2.18080578,16.4831144 0,14.2811027 0,11.5753189 C0,9.76564617 1.25203252,7.77443715 2.50406504,7.18574109 C2.50406504,5.24580581 4.06797499,3.66697936 5.99186992,3.66697936 C6.11889833,3.66697936 6.24780072,3.67512535 6.38256401,3.69074577 C6.43180002,3.69724462 6.43180002,3.69724462 6.47154271,3.70391973 C6.60155426,3.72360982 6.68466239,3.73853292 6.76549283,3.75708228 C6.81512338,3.76918618 6.81512338,3.76918618 6.86031852,3.7813116 C6.98518131,3.81534202 7.06257223,3.83936855 7.13743866,3.86584298 C7.20345301,3.88914847 7.40478633,4.00445965 7.44483849,4.02056608 C8.58309473,2.46105745 10.43854,1.5 12.4609431,1.5 C15.7375938,1.5 18.4793059,4.10907543 18.7588287,7.428866 C20.4783435,8.00218777 22,9.77619127 22,11.8707505 Z M15.5609756,16.3210362 C15.5609756,18.6590934 13.6760688,20.5621244 11.3577236,20.5621244 C9.03937837,20.5621244 7.15447154,18.6590934 7.15447154,16.3210362 C7.15447154,13.9829789 9.03937837,12.079948 11.3577236,12.079948 C12.5440158,12.079948 13.7479827,12.8516709 13.9512195,13.0262955 L13.9512195,11.9870775 C13.9512195,11.6398356 14.2309389,11.3576216 14.5772358,11.3576216 C14.9235326,11.3576216 15.203252,11.6398356 15.203252,11.9870775 L15.203252,14.8716882 C15.1978479,14.9411335 15.1978479,14.9411335 15.1902415,14.9675992 C15.185631,15.0173293 15.1771293,15.0613032 15.1569286,15.1116901 C15.122638,15.180767 15.122638,15.180767 15.101161,15.2098592 C15.074491,15.254867 15.074491,15.254867 15.0250607,15.3154554 C14.982739,15.3588414 14.9478731,15.3823851 14.8874894,15.4169924 C14.9106903,15.4015405 14.9106903,15.4015405 14.9102316,15.4015538 C14.750465,15.4839017 14.750465,15.4839017 14.7199228,15.4760432 C14.7454914,15.4778437 14.7454914,15.4778437 14.8254366,15.4541621 C14.7504995,15.4788671 14.7504995,15.4788671 14.7181948,15.4830071 C14.6642855,15.4975868 14.6252586,15.505478 14.5790244,15.505478 C14.6454414,15.4985277 14.6454414,15.4985277 14.6637048,15.4916452 C14.6446365,15.4987986 14.6446365,15.4987986 14.5772358,15.5058392 L11.7154472,15.5058392 C11.3691503,15.5058392 11.0894309,15.2236252 11.0894309,14.8763833 C11.0894309,14.5291414 11.3691503,14.2469274 11.7154472,14.2469274 C11.7154472,14.2469274 12.0235188,14.2469274 13.4223348,14.2430723 C12.885882,13.6664543 12.153226,13.3388598 11.3577236,13.3388598 C9.73132277,13.3388598 8.40650407,14.6763146 8.40650407,16.3210362 C8.40650407,17.9657578 9.73132277,19.3032126 11.3577236,19.3032126 C12.9841244,19.3032126 14.3089431,17.9657578 14.3089431,16.3210362 C14.3089431,15.9737943 14.5886625,15.6915803 14.9349593,15.6915803 C15.2812562,15.6915803 15.5609756,15.9737943 15.5609756,16.3210362 Z" id="Combined-Shape"></path>
            </g>
        </g>
    </g>
</svg>
