<?xml version="1.0" encoding="UTF-8"?>
<svg width="20px" height="22px" viewBox="0 0 20 22" version="1.1" xmlns="http://www.w3.org/2000/svg" xmlns:xlink="http://www.w3.org/1999/xlink">

    <g id="Page-1" stroke="none" stroke-width="1" fill="none" fill-rule="evenodd">
        <g id="icons" transform="translate(-651.000000, -980.000000)" fill="#585F73" fill-rule="nonzero">
            <g id="fa-copy" transform="translate(650.000000, 980.000000)">
                <path d="M7.30980023,-3.55271368e-15 L19.4055784,0.0225926328 C19.9900279,0.0225926328 20.4654782,0.498090734 20.4654782,1.08249247 L20.4654782,1.08249247 L20.4654782,18.9558779 C20.4654782,19.5402796 19.9899801,20.0044336 19.4055784,20.0044336 L19.4055784,20.0044336 L17.4855943,20.0044336 L17.4855943,20.9388252 C17.4855943,21.5231791 17.010144,21.9986295 16.4257423,21.9986295 L16.4257423,21.9986295 L7.77066592,21.9980481 C7.5689325,21.9862263 7.22397942,21.7340277 1.61156091,16.3537911 C1.46451418,16.2128276 1.50276185,16.3039063 1.5063657,4.73185988 L1.50662175,3.08044431 C1.50662175,2.49609034 1.98207208,2.02064001 2.56647382,2.02064001 L2.56647382,2.02064001 L3.48078422,2.02064001 L3.48078422,1.05989984 C3.48078422,0.475450336 3.95618679,-3.55271368e-15 4.54058852,-3.55271368e-15 L4.54058852,-3.55271368e-15 L7.30980023,-3.55271368e-15 Z M15.8999996,3.29999995 L3.20000005,3.29999995 C3.01066057,3.29999995 2.9000001,3.41066043 2.9000001,3.5999999 L2.9000001,3.5999999 L2.9000001,15.6999998 L6.80000019,15.6999998 C7.38435416,15.6999998 7.80000019,16.1155981 7.80000019,16.6999998 L7.80000019,16.6999998 L7.79926543,20.7 L15.8999996,20.7000008 C16.0656299,20.7000008 16.1710956,20.5387126 16.194874,20.3715479 L16.2000008,20.2999992 L16.2000008,20.2999992 L16.2000008,3.5999999 C16.2000008,3.41070819 16.0893391,3.29999995 15.8999996,3.29999995 L15.8999996,3.29999995 Z M6.19999999,17 L4.19999981,17 L6.5,19.2999992 L6.5,17.3 C6.5,17.1343146 6.36568542,17 6.19999999,17 L6.19999999,17 Z M18.9000008,1.29999995 L5.20000011,1.29999995 C5.03431468,1.29999995 4.9000001,1.43431453 4.9000001,1.59999996 L4.9000001,1.59999996 L4.9000001,2.02064001 L4.9000001,2.02064001 L16.495403,2.02081132 C16.5944221,2.02372365 17.4855943,2.07614554 17.4855943,3.01973965 L17.4855943,3.01973965 L17.4855943,18.7000008 L18.9000008,18.7000008 C19.0656862,18.7000008 19.2000008,18.5656862 19.2000008,18.4000008 L19.2000008,18.4000008 L19.2000008,1.59999996 C19.2000008,1.43431453 19.0656862,1.29999995 18.9000008,1.29999995 L18.9000008,1.29999995 Z" id="Combined-Shape"></path>
            </g>
        </g>
    </g>
</svg>
