<?xml version="1.0" encoding="UTF-8"?>
<svg width="20px" height="22px" viewBox="0 0 20 22" version="1.1" xmlns="http://www.w3.org/2000/svg" xmlns:xlink="http://www.w3.org/1999/xlink">

    <g id="Page-1" stroke="none" stroke-width="1" fill="none" fill-rule="evenodd">
        <g id="icons" transform="translate(-711.000000, -980.000000)" fill="#585F73" fill-rule="nonzero">
            <g id="fa-copy_o" transform="translate(710.000000, 980.000000)">
                <path d="M17.4241551,0 C18.0085568,0 18.4839594,0.475450336 18.4839594,1.05989984 L18.4839594,2.02064001 L19.3982698,2.02064001 C19.9826715,2.02064001 20.4581219,2.49609034 20.4581219,3.08044431 L20.4581885,3.92464404 C20.4601475,16.3081661 20.5035714,16.2096239 20.3531827,16.3537911 C14.7407642,21.7340277 14.3958111,21.9862263 14.1940777,21.9980481 L5.53900136,21.9986295 C4.95459963,21.9986295 4.47914929,21.5231791 4.47914929,20.9388252 L4.47914929,20.0044336 L2.55916526,20.0044336 C1.97476353,20.0044336 1.49926543,19.5402796 1.49926543,18.9558779 L1.49926543,1.08249247 C1.49926543,0.498090734 1.97471577,0.0225926328 2.55916526,0.0225926328 L14.6549434,0 L17.4241551,0 Z M18.8999996,3.29999995 L6.06474401,3.29999995 L6.06474401,3.29999995 C5.87540453,3.29999995 5.76474287,3.41070819 5.76474287,3.5999999 L5.76474287,20.2999992 L5.76474287,20.2999992 C5.76474287,20.4893387 5.8754523,20.7000008 6.06474401,20.7000008 L14.1647434,20.7000008 L14.1647434,16.6999998 C14.1647434,16.1155981 14.5803895,15.6999998 15.1647434,15.6999998 L19.2000008,15.6999998 L19.2000008,3.5999999 C19.2000008,3.5 19.0893391,3.29999995 18.8999996,3.29999995 Z M18,17 L15.9999844,17 C15.834299,17 15.6999844,17.1343146 15.6999844,17.3 L15.6999844,17.3 L15.6999844,19.3000002 L18,17 Z M16.8500024,1.29999995 L3.14999992,1.29999995 C2.98431449,1.29999995 2.8499999,1.43431453 2.8499999,1.59999996 L2.8499999,18.4000268 C2.8499999,18.5657123 2.98431449,18.7000269 3.14999992,18.7000269 L4.56440814,18.7000269 L4.56440814,3.01973965 L4.56440814,3.01973965 C4.56440814,2.07614554 5.45558035,2.02372365 5.55459949,2.02081132 L17.1500024,2.02064001 L17.1500024,2.02064001 L17.1500024,1.59999996 C17.1500024,1.43431453 17.0156878,1.29999995 16.8500024,1.29999995 Z" id="Combined-Shape"></path>
            </g>
        </g>
    </g>
</svg>
