<?xml version="1.0" encoding="UTF-8"?>
<svg width="22px" height="22px" viewBox="0 0 22 22" version="1.1" xmlns="http://www.w3.org/2000/svg" xmlns:xlink="http://www.w3.org/1999/xlink">

    <g id="Page-1" stroke="none" stroke-width="1" fill="none" fill-rule="evenodd">
        <g id="icons" transform="translate(-229.000000, -1099.000000)" fill="#585F73">
            <g id="fa-critical" transform="translate(229.000000, 1099.000000)">
                <path d="M11,-2.14273044e-14 C11.4779367,-2.14273044e-14 11.9169411,0.26199878 12.1417206,0.681381474 L12.1417206,0.681381474 L21.8245318,20.1025841 C22.0409412,20.5012266 22.0305178,20.9836661 21.7970901,21.3726997 C21.5636624,21.7617333 21.1416443,22.0000064 20.6860455,22 L20.6860455,22 L1.2800293,22 C0.823277873,22.0022804 0.399164968,21.7649122 0.164165336,21.3754715 C-0.0708342947,20.9860308 -0.081891079,20.5022371 0.13507434,20.1025841 L0.13507434,20.1025841 L9.85827938,0.681381474 C10.0830589,0.26199878 10.5220633,-2.14273044e-14 11,-2.14273044e-14 Z M11.0291134,16.2735724 C10.3886605,16.2735724 9.86878006,16.7904989 9.86878006,17.4290175 C9.86878006,18.0675361 10.3886605,18.5844626 11.0291134,18.5844626 C11.6695664,18.5844626 12.1894468,18.0675361 12.1894468,17.4290175 C12.1894468,16.7904989 11.6695664,16.2735724 11.0291134,16.2735724 Z M11.0032388,6.19475647 C10.4806799,6.19475647 10.0563716,6.61665397 10.0563716,7.1379483 L10.0563716,7.1379483 L10.0563716,14.2130584 C10.0563716,14.7343527 10.4806799,15.1562502 11.0032388,15.1562502 C11.5257976,15.1562502 11.950106,14.7343527 11.950106,14.2130584 L11.950106,14.2130584 L11.950106,7.1379483 C11.950106,6.61665397 11.5257976,6.19475647 11.0032388,6.19475647 Z" id="Combined-Shape"></path>
            </g>
        </g>
    </g>
</svg>
