<?xml version="1.0" encoding="UTF-8"?>
<svg width="22px" height="23px" viewBox="0 0 22 23" version="1.1" xmlns="http://www.w3.org/2000/svg" xmlns:xlink="http://www.w3.org/1999/xlink">

    <g id="Page-1" stroke="none" stroke-width="1" fill="none" fill-rule="evenodd">
        <g id="icons" transform="translate(-373.000000, -980.000000)" fill="#585F73" fill-rule="nonzero">
            <g id="fa-dashboard" transform="translate(373.000000, 980.000000)">
                <path d="M19.3042419,0 C20.3850259,0 21.2640623,0.879050604 21.2640623,1.9598203 L21.2640623,2.68252218 C21.2640623,2.96651456 21.0336381,3.19693873 20.7496457,3.19693873 C20.4656533,3.19693873 20.2352292,2.96651456 20.2352292,2.68252218 L20.2352292,1.9598203 C20.2352292,1.44671066 19.8173939,1.02887544 19.3042843,1.02887544 L2.68247984,1.02887544 C2.1693702,1.02887544 1.75153497,1.44671066 1.75153497,1.9598203 L1.75166201,15.1797378 C2.03226871,15.2074434 2.29738542,15.3108505 2.52621467,15.4769603 L9.46284954,8.54036676 C9.41840863,8.39284754 9.39508208,8.24647696 9.39508208,8.09844819 C9.39508208,7.21678475 10.1118523,6.5 10.9935303,6.5 C11.8751937,6.5 12.5919785,7.21677026 12.5919785,8.09844819 C12.5919785,8.34268227 12.5334779,8.57954476 12.4241329,8.79873939 L13.9066638,10.2812702 C14.1258584,10.1719253 14.3627209,10.1134247 14.606955,10.1134247 C14.8522099,10.1134247 15.0896104,10.1722056 15.3092095,10.2821864 L18.9588123,6.63258362 C18.8488242,6.41291602 18.7900371,6.17555616 18.7900371,5.93034255 C18.7900371,5.04867912 19.5068074,4.33189436 20.3884853,4.33189436 C21.2700905,4.33189436 21.9869066,5.04863798 21.9871876,5.9303849 C21.9871876,6.47287379 21.7104509,6.96609018 21.2644857,7.25962275 L21.2643587,20.0690551 C21.2643587,21.1498391 20.3853081,22.0288754 19.3045384,22.0288754 L2.68273391,22.0288754 C1.60194999,22.0288754 0.722913604,21.1498248 0.722913604,20.0690551 C0.722913604,19.7850628 0.953337771,19.5546386 1.23733015,19.5546386 C1.52132253,19.5546386 1.7517467,19.7850628 1.7517467,20.0690551 C1.7517467,20.5821648 2.16958192,21 2.68269156,21 L2.89093455,21 L2.89106159,19.2184273 C2.89106159,18.9344349 3.12148575,18.7040108 3.40547813,18.7040108 C3.68947051,18.7040108 3.91989468,18.9344349 3.91989468,19.2184273 L3.91976764,21 L5.78165738,21 L5.78165738,14.5 C5.78165738,14.2160076 6.01208154,13.9855835 6.29607392,13.9855835 C6.5800663,13.9855835 6.81049047,14.2160076 6.81049047,14.5 L6.81049047,20.9999577 L8.6723802,20.9999577 L8.6723802,11.7118306 C8.6723802,11.4278382 8.90280437,11.197414 9.18679675,11.197414 C9.47078913,11.197414 9.70121329,11.4278382 9.70121329,11.7118306 L9.70121329,20.9999577 L11.563103,20.9999577 L11.563103,11.7118306 C11.563103,11.4278382 11.7935272,11.197414 12.0775196,11.197414 C12.361512,11.197414 12.5919361,11.4278382 12.5919361,11.7118306 L12.5919361,21 L14.4538259,21 L14.4538259,14.5 C14.4538259,14.2160076 14.68425,13.9855835 14.9682424,13.9855835 C15.2522348,13.9855835 15.4826589,14.2160076 15.4826589,14.5 L15.4826589,20.9999153 L17.3445487,20.9999153 L17.3446757,10.6277566 C17.3446757,10.3437642 17.5750999,10.11334 17.8590923,10.11334 C18.1430846,10.11334 18.3735088,10.3437642 18.3735088,10.6277566 L18.3733818,20.9999153 L19.3043266,20.9999153 C19.8174363,20.9999153 20.2352715,20.5820801 20.2352715,20.0689704 L20.2353985,7.52107137 C20.0444959,7.50185864 19.8598027,7.44691593 19.6862308,7.35998673 L16.036628,11.0095895 C16.1466161,11.2292571 16.2054032,11.4666169 16.2054032,11.7118306 C16.2054032,12.593494 15.4886329,13.3102787 14.606955,13.3102787 C13.7252915,13.3102787 13.0085068,12.5935085 13.0085068,11.7118306 C13.0085068,11.4659908 13.067561,11.2279038 13.177951,11.0077602 L11.6976059,9.52741512 C11.4774922,9.63780158 11.2394005,9.69685404 10.9935303,9.69685404 C10.6565656,9.69685404 10.3359563,9.58814808 10.0658912,9.39210485 L3.12925587,16.3287401 C3.17369684,16.4762595 3.19702342,16.6226301 3.19702342,16.770659 C3.19702342,17.6523225 2.48025316,18.3691072 1.59857523,18.3691072 C0.71691179,18.3691072 0.000127034958,17.6523369 0.000127034958,16.770659 C0.000127034958,16.2281818 0.276853369,15.734964 0.722786569,15.4414254 L0.722659534,1.9598203 C0.722659534,0.879036382 1.60171014,0 2.68247984,0 L19.3042419,0 Z M1.58871824,16.1000004 C1.20335262,16.1000004 0.889999986,16.413394 0.889999986,16.7987186 C0.889999986,17.1840842 1.20339356,17.4974369 1.58871824,17.4974369 C1.97408385,17.4974369 2.28743649,17.1840842 2.28743649,16.7987186 C2.28743649,16.413353 1.97404291,16.1000004 1.58871824,16.1000004 Z M14.5999996,11 C14.2139271,11 13.8999996,11.3139685 13.8999996,11.7 C13.8999996,12.0860725 14.2139681,12.4 14.5999996,12.4 C14.9860721,12.4 15.2999996,12.0860725 15.2999996,11.7 C15.2999996,11.3139275 14.9860311,11 14.5999996,11 Z M11.0000002,7.3499999 C10.6139276,7.3499999 10.3000002,7.66396838 10.3000002,8.04999989 C10.3000002,8.43607242 10.6139687,8.74999988 11.0000002,8.74999988 C11.3860317,8.74999988 11.7000002,8.43607242 11.7000002,8.04999989 C11.7000002,7.66392736 11.3860317,7.3499999 11.0000002,7.3499999 Z M20.4000008,5.19999981 C20.0139282,5.19999981 19.7000008,5.51396828 19.7000008,5.8999998 C19.7000008,6.09071873 19.7773547,6.26396534 19.9015886,6.39033201 C19.9030241,6.39172651 19.9051159,6.39209565 19.9065104,6.39349015 C19.9079049,6.39492567 19.908274,6.39701743 19.9096685,6.39841193 C20.0359942,6.52264583 20.2092408,6.59999979 20.4000008,6.59999979 C20.7860323,6.59999979 21.1000007,6.28607233 21.1000007,5.8999998 C21.1000007,5.51392727 20.7860733,5.19999981 20.4000008,5.19999981 Z" id="Combined-Shape"></path>
            </g>
        </g>
    </g>
</svg>
