<?xml version="1.0" encoding="UTF-8"?>
<svg width="19px" height="22px" viewBox="0 0 19 22" version="1.1" xmlns="http://www.w3.org/2000/svg" xmlns:xlink="http://www.w3.org/1999/xlink">

    <g id="Page-1" stroke="none" stroke-width="1" fill="none" fill-rule="evenodd">
        <g id="icons" transform="translate(-711.000000, -448.000000)" fill="#585F73" fill-rule="nonzero">
            <g id="fa-disability" transform="translate(710.000000, 448.000000)">
                <path d="M4.48122443,14.9568272 C4.04834894,14.9568272 3.69536284,15.3009767 3.69536284,15.7280446 C3.69536284,18.0076059 5.59511095,19.8596866 7.92811327,19.8596866 C8.36098877,19.8596866 8.71397487,19.5155371 8.71397487,19.0884692 C8.71397487,18.6614013 8.36098877,18.3172518 7.92811327,18.3172518 C6.45986784,18.3172518 5.26708603,17.1543776 5.26708603,15.7280446 C5.26708603,15.3009363 4.91411704,14.9568272 4.48122443,14.9568272 Z M15.4524319,14.4457387 C15.3107116,14.2110078 15.0535268,14.0676226 14.7763268,14.0676226 L8.51146254,14.0676226 L8.71391653,14.2700766 L8.71391653,8.50452227 C8.71391653,8.07745441 8.36093043,7.73330492 7.92805493,7.73330492 C7.49517944,7.73330492 7.14219334,8.07745441 7.14219334,8.50452227 L7.14219334,14.8388399 C7.14219334,15.2659078 7.49517944,15.6100573 7.92805493,15.6100573 L14.442676,15.6100573 L14.269352,15.5122283 L17.9573048,21.6217707 C18.1005692,21.8591992 18.358758,22 18.633993,22 C18.7721304,22 18.9084246,21.964294 19.0301638,21.8944101 C19.4058112,21.6788655 19.5319609,21.2039915 19.3095107,20.8355043 L15.4524319,14.4457387 Z M7.94712613,6.94238791 C9.90668648,6.94238791 11.5026049,5.38658504 11.5026049,3.47119395 C11.5026049,1.55582194 9.90664775,-8.34887715e-14 7.94713236,-8.34887715e-14 C5.98773462,-8.34887715e-14 4.39189318,1.55582126 4.39189318,3.47119395 C4.39189318,5.38650876 5.98773217,6.94232762 7.94712613,6.94238791 Z M7.94713236,1.54243472 C9.04188436,1.54243472 9.93082337,2.40904431 9.93082337,3.47119395 C9.93082337,4.53335154 9.04187614,5.39995319 7.94707402,5.39995319 C6.85244771,5.39995319 5.96361638,4.53335278 5.96361638,3.47119395 C5.96361638,2.40904767 6.85249332,1.54243472 7.94713236,1.54243472 Z M12.4845258,17.368753 C11.7831326,19.2150552 9.9516339,20.4574515 7.92805493,20.4574515 C5.24932569,20.4574515 3.07178154,18.3345326 3.07178154,15.7280446 C3.07178154,14.0013592 4.03785885,12.4116154 5.59450176,11.5792556 C5.97656064,11.374944 6.11737153,10.9041418 5.90638497,10.529223 C5.69715714,10.1573662 5.22149512,10.0222082 4.84241415,10.2248511 C2.78127049,11.3270376 1.5,13.4356734 1.5,15.7280446 C1.5,19.1876866 4.38455085,21.9998862 7.92799659,21.9998862 C10.6042832,21.9998862 13.0268794,20.3564414 13.9572212,17.9076118 C14.1096833,17.5064752 13.9000606,17.0616488 13.4922926,16.9143775 C13.0871998,16.7681799 12.6359275,16.9701985 12.4845258,17.368753 Z" id="Shape"></path>
            </g>
        </g>
    </g>
</svg>
