<?xml version="1.0" encoding="UTF-8"?>
<svg width="22px" height="23px" viewBox="0 0 22 23" version="1.1" xmlns="http://www.w3.org/2000/svg" xmlns:xlink="http://www.w3.org/1999/xlink">

    <g id="Page-1" stroke="none" stroke-width="1" fill="none" fill-rule="evenodd">
        <g id="icons" transform="translate(-229.000000, -803.000000)" fill="#585F73">
            <g id="fa-doc-o" transform="translate(229.000000, 803.000000)">
                <path d="M-5.21139191e-15,1 C-1.52555719e-09,7.68054199 -5.1487699e-15,20.0558511 -5.20911895e-15,21.041626 C-5.1487699e-15,22.0274009 0.5,22.0274009 1,22.0274009 L21,22.0274009 C21.9955311,22.0274009 21.9955311,21.4999999 21.9955312,21 C21.9955335,14.3371582 21.9955312,7.6685791 21.9955312,1 C21.9955311,0.99999999 21.9955311,0.0274009009 21,0.0274009009 L1,0.0274009009 C-5.20911895e-15,0.0274009009 -5.20911895e-15,0.99999999 -5.21139191e-15,1 Z M1.00207516,21 L1.00207519,1.01324463 L4,1.01324463 L3.99999997,21 L1.00207516,21 Z M7.98883109,21 L4.99090625,21 L4.99090625,1.01324463 L7.98883109,1.01324463 L7.98883109,21 L7.98883109,21 Z M21,2.18483784 C20.4231667,2.07352894 19.9676335,1.61393091 19.8573571,1.03186187 L21,1.03186187 L21,2.18483784 L21,2.18483784 Z M19.0152588,1.01245025 C19.1680311,2.13454934 19.9046433,2.86440607 21.0167236,3.01855471 L21.0167237,19.0489507 C19.9046433,19.2030993 19.167982,19.8906068 19.0152588,21.0127554 L9.01477051,21.0127559 L9.01477051,1.01245025 L19.0152588,1.01245025 Z M21.0126437,19.8600006 L21.0126437,21.0130156 L19.8700008,21.0130156 C19.9802772,20.4309466 20.4358104,19.9713095 21.0126437,19.8600006 Z M2.49107143,16 C3.03752213,16 3.48214286,16.4485935 3.48214286,17 C3.48214286,17.5514065 3.03752213,18 2.49107143,18 C1.94462073,18 1.5,17.5514065 1.5,17 C1.5,16.4485935 1.94462073,16 2.49107143,16 Z M6.49110392,16 C7.03758711,16 7.48217535,16.4485935 7.48217535,17 C7.48217535,17.5514065 7.03755462,18 6.49110392,18 C5.94462073,18 5.5,17.5514065 5.5,17 C5.5,16.4485935 5.94462073,16 6.49110392,16 Z M2.5,3 C2.77614237,3 3,3.23290253 3,3.50342274 L3,9.49657726 C3,9.74371744 2.81674383,9.94926342 2.58774863,9.99188919 L2.5,10 C2.22385763,10 2,9.76709747 2,9.49657726 L2,3.50342274 C2,3.25628256 2.18325617,3.05073658 2.41225137,3.00811081 L2.5,3 Z M6.5,3 C6.77614237,3 7,3.23290253 7,3.50342274 L7,9.49657726 C7,9.74371744 6.81674383,9.94926342 6.58774863,9.99188919 L6.5,10 C6.22385763,10 6,9.76709747 6,9.49657726 L6,3.50342274 C6,3.25628256 6.18325617,3.05073658 6.41225137,3.00811081 L6.5,3 Z M18.0269775,4.0087889 C19.0108643,4.00878904 19.0108643,5.03051758 19.0108643,5.03051758 L19.0108643,9.01953125 C19.0108643,9.9952391 18.0303955,9.99523928 18.0303955,9.99523928 L12.0168528,9.99506815 C11.9151675,9.99215673 11,9.93975137 11,8.99645996 L11,8.99645996 L11,5.03051758 C11,4.00878904 12.050293,4.00878904 12.050293,4.00878904 Z M17.9990354,5.00201421 L11.9911499,5.00201416 L11.9911008,8.99859614 L17.9989863,8.99859619 L17.9990354,5.00201421 Z" id="Combined-Shape"></path>
            </g>
        </g>
    </g>
</svg>
