<?xml version="1.0" encoding="UTF-8"?>
<svg width="22px" height="22px" viewBox="0 0 22 22" version="1.1" xmlns="http://www.w3.org/2000/svg" xmlns:xlink="http://www.w3.org/1999/xlink">

    <g id="Page-1" stroke="none" stroke-width="1" fill="none" fill-rule="evenodd">
        <g id="icons" transform="translate(-165.000000, -803.000000)" fill="#585F73">
            <g id="fa-doc" transform="translate(165.000000, 803.000000)">
                <path d="M10.0012207,3.1789142e-08 L3.01599121,3.1789142e-08 C2.01916504,3.1789142e-08 2.01916504,0.966186523 2.01916504,0.966186523 L2.01916504,2.02624515 C1.01550293,2.02624515 1.01550293,3.04870605 1.01550293,3.04870605 L1.01550293,4.03333333 C0,4.03333333 0,5.07104492 0,5.07104492 L0,20.9952393 C0,20.9952393 0,22 1.01550293,22 L21.0085449,22 C21.0085449,22 22.0045414,22 22.0002311,21.0323484 C22.0016677,15.0184825 22.0045408,2.99075073 22.0045408,2.99075073 C22.0045408,2.99075073 22.0045414,2.02624515 21.0085449,2.02624515 L11.9309082,2.02624515 L10.0012207,3.1789142e-08 Z M1,5.01428223 L1.36666667,5.01428223 L7.5982666,5.01428223 C7.5982666,5.01428223 11.4443163,10.0075679 11.5583496,10.0079346 L21.0170898,10.0079347 L21.0170898,21.0257568 L1,21.0257568 L1,5.01428223 Z M12.0620117,9.02050781 L10.3580322,7.02600098 L20.9949951,7.02600098 L20.9949954,9.02050781 L12.0620117,9.02050781 Z M9.79321289,6.00170895 L8.09387207,3.99902341 L2.01757812,3.99902339 L2.01757812,2.99174806 L2.38424479,2.99174806 L8.7154541,2.99174806 L10.4506836,5.02465817 L21.0426025,5.02465816 L21.0426025,6.00170894 L9.79321289,6.00170895 Z M19.0241699,12.0058594 C20.0299072,12.0058592 20.0299076,13.0541992 20.0299076,13.0541992 L20.0299076,18.0167236 C20.0299072,19.0185545 18.9918213,19.0185547 18.9918213,19.0185547 L11.0136719,19.0185545 C10.0167236,19.0185545 10.0167236,18.0249023 10.0167236,18.0249023 L10.0168946,13.0149694 C10.0198006,12.9140583 10.0721096,12.0058593 11.0136719,12.0058592 L11.0136719,12.0058592 Z M19.01355,12.9979249 L11.0000002,12.9979249 L11.0000002,18.034668 L19.01355,18.034668 L19.01355,12.9979249 Z M9.71116667,0.983642579 L11.5444997,2.97692871 L21.0450437,2.97692868 L21.0450439,3.98864746 L11,3.98864746 L9.25610352,1.9987793 L3.03869629,1.9987793 L3.03869629,0.983642579 L9.71116667,0.983642579 Z M12.0067139,14.0087891 L16.0223389,14.0087891 L16.0223389,15.0031739 L12.0067139,15.0031738 L12.0067139,14.0087891 Z M11.9973145,16.0009766 L18.0098877,16.0009766 L18.0098877,17.0196534 L11.9973145,17.0196533 L11.9973145,16.0009766 Z" id="Combined-Shape"></path>
            </g>
        </g>
    </g>
</svg>
