<?xml version="1.0" encoding="UTF-8"?>
<svg width="20px" height="22px" viewBox="0 0 20 22" version="1.1" xmlns="http://www.w3.org/2000/svg" xmlns:xlink="http://www.w3.org/1999/xlink">

    <g id="Page-1" stroke="none" stroke-width="1" fill="none" fill-rule="evenodd">
        <g id="icons" transform="translate(-37.000000, -1039.000000)" fill="#585F73">
            <g id="fa-doc" transform="translate(36.000000, 1039.000000)">
                <path d="M19.7194389,22 C20.1573146,22 20.5,21.6589147 20.5,21.2230835 L20.5,0.776916451 C20.5,0.341085271 20.1573146,0 19.7194389,0 L6.64028056,0 C6.58316633,0 6.50701403,0 6.4498998,0.0189491817 C6.35470942,0.0568475452 6.31663327,0.075796727 6.25951904,0.0947459087 C6.24048096,0.11369509 6.22144289,0.11369509 6.20240481,0.132644272 C6.14529058,0.170542636 6.08817635,0.208440999 6.0501002,0.265288544 L1.69038076,5.38156761 C1.63326653,5.43841516 1.59519038,5.51421189 1.55711423,5.59000861 C1.53807615,5.6089578 1.53807615,5.64685616 1.53807615,5.66580534 C1.51903808,5.72265289 1.51903808,5.77950043 1.5,5.83634798 L1.5,21.2041344 C1.5,21.6589147 1.86172345,22 2.28056112,22 L19.7194389,22 Z M5.61102299,5.54229738 L3.21382359,5.54229738 L5.61102292,2.95213675 L5.61102299,5.54229738 Z M6.19096438,6.91259729 C6.61115668,6.91259729 6.94000284,6.57413575 6.94000284,6.14165712 L6.94000244,1.40873738 L19.1687014,1.40873738 L19.1687018,20.66008 L2.8882885,20.6600805 L2.8882885,6.91259785 L6.19096438,6.91259729 Z M5.73722205,12 C6.62190783,12 7.29360307,12.255638 7.75288186,12.7664317 C8.21158656,13.2777078 8.44065186,13.9925296 8.44065186,14.9108971 C8.44065186,15.8292647 8.21158656,16.5411924 7.75288186,17.0466804 C7.29417716,17.5526508 6.61903733,17.8053948 5.72746237,17.8053948 L5.72746237,17.8053948 L4,17.8053948 L4,12 Z M5.73664795,12.8609696 L5.18034651,12.8609696 L5.18034651,16.9444252 L5.73664795,16.9444252 C5.95767587,16.9444252 6.16262903,16.9019797 6.35150744,16.8170886 C6.54038584,16.7326798 6.70285571,16.6053431 6.83949116,16.4360432 C6.9761266,16.2667433 7.08233482,16.0549979 7.15696762,15.8003245 C7.23217453,15.5461335 7.26949093,15.2499792 7.26892335,14.9108971 C7.26892335,14.5665093 7.23160043,14.266014 7.15696762,14.008929 C7.08176072,13.751844 6.9761266,13.5386515 6.83949116,13.3693516 C6.70285571,13.2000517 6.54038584,13.072715 6.35150744,12.9878239 C6.16262903,12.9034151 5.95767587,12.8609696 5.73664795,12.8609696 L5.73664795,12.8609696 Z M15.4569332,13.4669546 C15.5662032,13.2847328 15.7027907,13.1406077 15.8666957,13.0336614 C16.0306006,12.9271741 16.2218231,12.8739304 16.4403631,12.8739304 C16.8351277,12.8739304 17.15651,13.0272354 17.4055813,13.3343045 L18.0338838,12.6788567 C17.8576591,12.4603741 17.6300133,12.2928401 17.3509463,12.1753369 C17.0718794,12.0582926 16.7467476,12 16.3766223,12 C16.018281,12 15.6920779,12.0716035 15.3980131,12.2143516 C15.1034126,12.3575587 14.8532701,12.5576814 14.6465141,12.8151788 C14.4402938,13.0731351 14.2806739,13.3797452 14.1687257,13.7359269 C14.0562419,14.0925676 14,14.4813381 14,14.9026974 C14,15.3240567 14.0562419,15.7114502 14.1687257,16.065337 C14.2812095,16.4192237 14.4386869,16.7244567 14.642229,16.9819541 C14.8457711,17.2399104 15.0943068,17.4414101 15.3889073,17.5869122 C15.6835077,17.7324143 16.0129246,17.8053948 16.3771579,17.8053948 C16.7778145,17.8053948 17.1099096,17.7379222 17.3739787,17.6025181 C17.6380479,17.467114 17.854981,17.2904001 18.0247779,17.0719175 L17.3964755,16.4398786 C17.2930975,16.5752827 17.1645446,16.689573 17.0097454,16.7832084 C16.8549463,16.8768438 16.6712227,16.9236615 16.4591104,16.9236615 C16.2346784,16.9236615 16.0386352,16.8704178 15.8715164,16.7634715 C15.7043976,16.6569842 15.5667388,16.5128591 15.4574688,16.3306373 C15.3481988,16.1484154 15.2662463,15.9340638 15.2116114,15.6866644 C15.1569764,15.439724 15.1296589,15.1785546 15.1296589,14.9026974 C15.1296589,14.6217912 15.1569764,14.3578679 15.2116114,14.1104685 C15.2657107,13.8635281 15.3476632,13.6491764 15.4569332,13.4669546 Z M11.2200698,12 C11.5622495,12 11.8716454,12.0688496 12.1472332,12.2065487 C12.4228211,12.3447068 12.6564048,12.5411575 12.8479844,12.7959009 C13.039564,13.0506443 13.1860661,13.3549593 13.2880028,13.7088461 C13.3899396,14.0627328 13.4406519,14.4579293 13.4406519,14.8948945 C13.4406519,15.3318597 13.3894274,15.7284331 13.2880028,16.0846148 C13.1865783,16.4412555 13.0400763,16.7469476 12.8484966,17.001691 C12.656917,17.2564343 12.4233333,17.4542621 12.1477455,17.5947152 C11.8721577,17.7351683 11.563274,17.8053948 11.2205821,17.8053948 C10.8722555,17.8053948 10.561835,17.7351683 10.2888084,17.5947152 C10.0157818,17.4542621 9.78373484,17.2564343 9.59215521,17.001691 C9.40108783,16.7469476 9.25407352,16.4412555 9.15264901,16.0846148 C9.05071225,15.7284331 9,15.3318597 9,14.8948945 C9,14.4579293 9.04917552,14.0627328 9.1480388,13.7088461 C9.24690209,13.3549593 9.39186742,13.0506443 9.58344705,12.7959009 C9.77502668,12.5411575 10.0086104,12.3447068 10.2841982,12.2065487 C10.559786,12.0688496 10.8717432,12 11.2200698,12 Z M11.2195576,12.8817334 C11.0279779,12.8817334 10.8609861,12.9336 10.718582,13.0377924 C10.5761778,13.1419847 10.457337,13.2833558 10.3615472,13.4628236 C10.2652451,13.6427505 10.1945553,13.8557251 10.147941,14.1026655 C10.1013267,14.3500649 10.0782757,14.6139883 10.0782757,14.8948945 C10.0782757,15.1758007 10.1013267,15.439724 10.147941,15.6866644 C10.1945553,15.9340638 10.2657574,16.1484154 10.3615472,16.3306373 C10.457337,16.5128591 10.5761778,16.6556072 10.718582,16.7597995 C10.8609861,16.8639918 11.0279779,16.9158585 11.2195576,16.9158585 C11.4111372,16.9158585 11.5781291,16.8639918 11.7205332,16.7597995 C11.8629373,16.6556072 11.9817781,16.5128591 12.0775679,16.3306373 C12.1733577,16.1484154 12.2440476,15.9340638 12.2906618,15.6866644 C12.3372761,15.439724 12.3603272,15.1758007 12.3603272,14.8948945 C12.3603272,14.6139883 12.3352272,14.3500649 12.2860516,14.1026655 C12.2368761,13.8557251 12.1641373,13.6427505 12.0683475,13.4628236 C11.9725577,13.2833558 11.8537169,13.1419847 11.7113128,13.0377924 C11.5694209,12.9336 11.4055025,12.8817334 11.2195576,12.8817334 Z" id="Combined-Shape"></path>
            </g>
        </g>
    </g>
</svg>
