<?xml version="1.0" encoding="UTF-8"?>
<svg width="22px" height="22px" viewBox="0 0 22 22" version="1.1" xmlns="http://www.w3.org/2000/svg" xmlns:xlink="http://www.w3.org/1999/xlink">

    <g id="Page-1" stroke="none" stroke-width="1" fill="none" fill-rule="evenodd">
        <g id="icons" transform="translate(-100.000000, -626.000000)" fill="#585F73">
            <g id="fa-dollar-o" transform="translate(100.000000, 626.000000)">
                <path d="M11.0094746,0 C4.94573643,0 0,4.93103448 0,11 C0,17.0689655 4.92678725,22 11.0094746,22 C17.0732127,22 22,17.0689655 22,11 C22,4.93103448 17.0732127,0 11.0094746,0 L11.0094746,0 Z M11,20.625 C5.69564128,20.625 1.375,16.3043587 1.375,11 C1.375,5.69564128 5.69564128,1.375 11,1.375 C16.3043587,1.375 20.625,5.69564128 20.625,11 C20.625,16.3043587 16.3043587,20.625 11,20.625 L11,20.625 Z M11.9992627,16.8581161 L12.5487546,16.8647078 C14.3460856,16.8647078 15.8125,15.3750169 15.8125,13.5491569 C15.8125,11.7232969 14.3460856,10.2401976 12.5487546,10.2401976 L9.37527371,10.2401977 C8.43443259,10.2401977 7.66878258,9.46239456 7.66878258,8.50661946 C7.66878258,7.55084436 8.43443259,6.77304118 9.37527371,6.77304118 L14.352905,6.77304105 C14.7811499,6.77304105 15.1315321,6.41709722 15.1315321,5.98205476 C15.1315321,5.5470123 14.7811499,5.19106847 14.352905,5.19106847 L11.9992627,5.18447674 L11.9992624,3.55230713 C11.9992624,3.11726467 11.6488802,2.76132084 11.2206353,2.76132084 C10.7923904,2.76132084 10.4420082,3.11726467 10.4420082,3.55230713 L10.4420084,5.18447674 L9.36878515,5.1910686 C7.57145419,5.1910686 6.10503977,6.68075945 6.10503977,8.50661946 C6.10503977,10.3324795 7.57145419,11.8221703 9.36878515,11.8221703 L12.5422661,11.8221702 C13.4831072,11.8221702 14.2487572,12.5999734 14.2487572,13.5557485 C14.2487572,14.5115236 13.4831072,15.2893268 12.5422661,15.2893268 L7.66878254,15.282735 C7.24053762,15.282735 6.89015541,15.6386788 6.89015541,16.0737213 C6.89015541,16.5087638 7.24053762,16.8647076 7.66878254,16.8647076 L10.4420084,16.8647076 L10.4420083,18.4782325 C10.4420083,18.913275 10.7923905,19.2692188 11.2206355,19.2692188 C11.6488804,19.2692188 11.9992626,18.9066834 11.9992626,18.471641 L11.9992627,16.8581161 Z" id="Combined-Shape"></path>
            </g>
        </g>
    </g>
</svg>
