<?xml version="1.0" encoding="UTF-8"?>
<svg width="14px" height="22px" viewBox="0 0 14 22" version="1.1" xmlns="http://www.w3.org/2000/svg" xmlns:xlink="http://www.w3.org/1999/xlink">

    <g id="Page-1" stroke="none" stroke-width="1" fill="none" fill-rule="evenodd">
        <g id="icons" transform="translate(-40.000000, -803.000000)" fill="#585F73" fill-rule="nonzero">
            <g id="fa-dollar" transform="translate(36.000000, 803.000000)">
                <path d="M11.835855,18.9428881 L11.835855,18.6608368 L12.1357035,18.6608368 L12.6619633,18.6608368 C15.1467974,18.6608368 17.1750002,16.7530161 17.1750002,14.4156669 C17.1750002,12.0802014 15.1488044,10.1794974 12.6619633,10.1794974 L9.32260544,10.1794974 C7.7695914,10.1794974 6.5062781,8.99116685 6.5062781,7.53033046 C6.5062781,6.06949407 7.7695914,4.88116351 9.32260544,4.88116351 L15.2167156,4.88116351 C15.6826256,4.88116351 16.0650704,4.52141842 16.0650704,4.08316202 C16.0650704,3.64490561 15.6826256,3.28516052 15.2167156,3.28516052 L12.1357035,3.28516052 L11.835855,3.28516052 L11.835855,3.00310924 L11.835855,0.798001493 C11.835855,0.359745089 11.4534102,0 10.9875002,0 C10.5215901,0 10.1391454,0.359745089 10.1391454,0.798001493 L10.1391454,3.00310924 L10.1391454,3.28516052 L9.83929692,3.28516052 L9.31303708,3.28516052 C6.82820294,3.28516052 4.80000019,5.19298126 4.80000019,7.53033046 C4.80000019,9.86767966 6.82820294,11.7755004 9.31303708,11.7755004 L12.6523949,11.7755004 C14.205409,11.7755004 15.4687223,12.9638309 15.4687223,14.4246673 C15.4687223,15.8855037 14.205409,17.0738343 12.6523949,17.0738343 L6.65303283,17.0738343 C6.18712278,17.0738343 5.80467806,17.4335794 5.80467806,17.8718358 C5.80467806,18.3100922 6.18712278,18.6698373 6.65303283,18.6698373 L9.83929692,18.6698373 L10.1391454,18.6698373 L10.1391454,18.9518886 L10.1391454,21.2019985 C10.1391454,21.6402549 10.5215901,22 10.9875002,22 C11.4508442,22 11.835855,21.6336785 11.835855,21.1929981 L11.835855,18.9428881 Z" id="Shape"></path>
            </g>
        </g>
    </g>
</svg>
