<?xml version="1.0" encoding="UTF-8"?>
<svg width="22px" height="22px" viewBox="0 0 22 22" version="1.1" xmlns="http://www.w3.org/2000/svg" xmlns:xlink="http://www.w3.org/1999/xlink">

    <g id="Page-1" stroke="none" stroke-width="1" fill="none" fill-rule="evenodd">
        <g id="icons" transform="translate(-100.000000, -271.000000)" fill="#585F73">
            <g id="fa_download" transform="translate(100.000000, 271.000000)">
                <path d="M21.4991639,20.625 C21.775768,20.625 22,20.8398438 22,21.1214066 L22,21.5035934 C22,21.7777512 21.7822583,22 21.4991639,22 L0.500836134,22 C0.224231975,22 0,21.7851563 0,21.5035934 L0,21.1214066 C0,20.8472488 0.217741728,20.625 0.500836134,20.625 L21.4991639,20.625 Z M11.3541037,0.137500033 C11.6324662,0.137500033 11.8581237,0.368247464 11.8581237,0.644657109 L11.858,16.6805 L20.2807462,8.25867311 C20.4552848,8.08413452 20.7267664,8.06480325 20.9231823,8.20090366 L20.9929836,8.25922761 L21.4469179,8.71316193 C21.6410856,8.9073296 21.6427922,9.23007961 21.4447786,9.42809319 L21.4447786,9.42809319 L13.4592196,17.4136522 L11.4552066,19.4176652 C11.3382503,19.5346215 11.1766247,19.5786094 11.0236316,19.5510683 C10.8651804,19.5813783 10.6950449,19.5353161 10.5726112,19.4128824 L0.589304018,9.42957527 C0.392778207,9.23304946 0.395690843,8.91150552 0.589858516,8.71733785 L1.04379284,8.26340353 C1.24062489,8.06657148 1.55967434,8.06649312 1.75603025,8.26284903 L10.208,16.7145 L10.2081236,0.644657109 C10.2081236,0.36456199 10.437549,0.137500033 10.7121436,0.137500033 L11.3541037,0.137500033 Z" id="Combined-Shape"></path>
            </g>
        </g>
    </g>
</svg>
