<?xml version="1.0" encoding="UTF-8"?>
<svg width="22px" height="22px" viewBox="0 0 22 22" version="1.1" xmlns="http://www.w3.org/2000/svg" xmlns:xlink="http://www.w3.org/1999/xlink">

    <g id="Page-1" stroke="none" stroke-width="1" fill="none" fill-rule="evenodd">
        <g id="icons" transform="translate(-586.000000, -1099.000000)" fill="#585F73">
            <g id="fa-drag&amp;drop" transform="translate(586.000000, 1099.000000)">
                <g id="move-(2)" transform="translate(11.000000, 11.000000) scale(-1, -1) translate(-11.000000, -11.000000) ">
                    <path d="M12.0581055,0 C13.7149597,0 15.0581055,1.34314575 15.0581055,3 L15.0854492,6.93457031 L16.8867188,6.93457031 L16.859375,8.3026123 L15.0581055,8.30047607 L15.0581055,11.859375 C15.0581055,13.5162292 13.7149597,14.859375 12.0581055,14.859375 L8.2192688,14.859375 L8.2192688,16.9296875 L6.81762695,16.9296875 L6.81762695,14.859375 L3,14.859375 C1.34314575,14.859375 0,13.5162292 0,11.859375 L0,3 C0,1.34314575 1.34314575,0 3,0 L12.0581055,0 Z M12.0581055,1.3 L3,1.3 C2.06111593,1.3 1.3,2.06111593 1.3,3 L1.3,11.859375 C1.3,12.7982591 2.06111593,13.559375 3,13.559375 L12.0581055,13.559375 C12.9969895,13.559375 13.7581055,12.7982591 13.7581055,11.859375 L13.7581055,3 C13.7581055,2.06111593 12.9969895,1.3 12.0581055,1.3 Z M20.6291504,18.5625 L22,18.5625 L22,20.28125 C22,21.230423 21.230423,22 20.28125,22 L18.6054688,22 L18.6054688,20.6757812 L20.6291504,20.6757812 L20.6291504,18.5625 Z M11.7304688,20.6757812 L13.4492188,20.6757812 L13.4492188,22 L11.7304688,22 L11.7304688,20.6757812 Z M15.1679688,20.6757812 L16.8867188,20.6757812 L16.8867188,22 L15.1679688,22 L15.1679688,20.6757812 Z M22,8.65332031 L22,10.2265625 L20.6291504,10.2265625 L20.6291504,8.3 L18.6054688,8.3 L18.6054688,6.93457031 L20.28125,6.93457031 C21.230423,6.93457031 22,7.70414733 22,8.65332031 Z M20.6291504,11.859375 L22,11.859375 L22,13.578125 L20.6291504,13.578125 L20.6291504,11.859375 Z M20.6291504,15.2109375 L22,15.2109375 L22,16.9296875 L20.6291504,16.9296875 L20.6291504,15.2109375 Z M8.21707153,18.5625 L8.21707153,20.6757812 L10.0976563,20.6757812 L10.0976563,22 L8.53637695,22 C7.58720397,22 6.81762695,21.230423 6.81762695,20.28125 L6.81762695,18.5625 L8.21707153,18.5625 Z M11.2263237,6.41022161 L11.2263237,7.78897161 L8.76378516,7.78897161 L12,11.0251865 L11.0250518,12 L7.78882367,8.76394899 L7.78882367,11.2264716 L6.41007367,11.2264716 L6.41007367,6.41022161 L11.2263237,6.41022161 Z" id="Shape" fill-rule="nonzero"></path>
                </g>
            </g>
        </g>
    </g>
</svg>
