<?xml version="1.0" encoding="UTF-8"?>
<svg width="14px" height="22px" viewBox="0 0 14 22" version="1.1" xmlns="http://www.w3.org/2000/svg" xmlns:xlink="http://www.w3.org/1999/xlink">

    <g id="Page-1" stroke="none" stroke-width="1" fill="none" fill-rule="evenodd">
        <g id="icons" transform="translate(-654.000000, -507.000000)" fill="#585F73">
            <g id="fa-drop-counter" transform="translate(650.000000, 507.000000)">
                <path d="M16.4914072,0 L5.24828641,0 C4.94552255,0 4.69999981,0.243195062 4.69999981,0.543209877 L4.69999981,13.2167511 C4.69999981,13.5167659 4.94552255,13.759961 5.24828641,13.759961 L8.77632427,13.759961 L8.77632427,14.8348647 C8.77632427,15.6162178 9.44090297,16.2760005 10.1674376,16.4726968 L10.1674376,21.4267506 C10.1674376,21.7267654 10.5670281,22 10.869792,22 C11.1725559,22 11.5409269,21.7267654 11.5409269,21.4267506 L11.5409269,16.4726968 C12.2675163,16.2760005 12.954196,15.6162178 12.954196,14.8348647 L12.954196,13.759961 L16.4912976,13.759961 C16.7940614,13.759961 17.0395842,13.5167659 17.0395842,13.2167511 L17.0395842,0.543209877 C17.0396938,0.243195062 16.7941711,0 16.4914072,0 L16.4914072,0 Z M11.5408721,14.8230574 C11.5408721,15.1600105 11.2641519,15.4341685 10.9240497,15.4341685 L10.8269481,15.4341685 L10.7298466,15.4341685 C10.3897444,15.4341685 10.1491423,15.1600105 10.1491423,14.8230574 L10.1491423,13.7481537 L11.5409269,13.7481537 L11.5409269,14.8230574 L11.5408721,14.8230574 Z M15.7025175,12.4052124 L12.4945858,12.4052124 L6.07634258,12.4052124 L6.07634258,1.38204956 L15.7025175,1.38204956 L15.7025175,12.4052124 L15.7025175,12.4052124 Z M9.10167375,11.0000543 L12.6327696,11 C13.5506562,11 14.2973677,10.2602025 14.2973677,9.35081481 L14.2973677,4.68678284 C14.2973677,4.51789889 14.2180855,4.35862975 14.082878,4.25580012 C13.9476705,4.15302481 13.7717802,4.11836802 13.6071845,4.1620421 L7.84346565,5.76853099 C7.60375474,5.83214086 7.43707561,6.04736061 7.43707561,6.2932174 L7.43707561,9.35081481 C7.43707561,10.2602568 8.18378714,11.0000543 9.10167375,11.0000543 L9.10167375,11.0000543 Z M8.78328022,6.94913891 L12.9726591,5.9347229 L12.9726591,9.09020376 C12.9726591,9.40048524 12.7178703,9.65296919 12.4046342,9.65296919 L9.35130515,9.62363274 C9.03806901,9.62363274 8.78328022,9.37120311 8.78328022,9.06086731 L8.78328022,6.94913891 L8.78328022,6.94913891 Z M8.07081303,3.10594479 L8.27126661,3.10594479 L8.27126661,2.90734726 C8.27126661,2.60733244 8.51678936,2.36413738 8.81955322,2.36413738 C9.12231708,2.36413738 9.36783982,2.60733244 9.36783982,2.90734726 L9.36783982,3.10594479 L9.56829341,3.10594479 C9.87105727,3.10594479 10.11658,3.34913985 10.11658,3.64915466 C10.11658,3.94916948 9.87105727,4.19236454 9.56829341,4.19236454 L9.36783982,4.19236454 L9.36783982,4.39096207 C9.36783982,4.69097689 9.12231708,4.93417195 8.81955322,4.93417195 C8.51678936,4.93417195 8.27126661,4.69097689 8.27126661,4.39096207 L8.27126661,4.19236454 L8.07081303,4.19236454 C7.76804917,4.19236454 7.52252643,3.94916948 7.52252643,3.64915466 C7.52252643,3.34913985 7.76804917,3.10594479 8.07081303,3.10594479 Z" id="Shape"></path>
            </g>
        </g>
    </g>
</svg>
