<?xml version="1.0" encoding="UTF-8"?>
<svg width="22px" height="22px" viewBox="0 0 22 22" version="1.1" xmlns="http://www.w3.org/2000/svg" xmlns:xlink="http://www.w3.org/1999/xlink">

    <g id="Page-1" stroke="none" stroke-width="1" fill="none" fill-rule="evenodd">
        <g id="icons" transform="translate(-710.000000, -271.000000)" fill="#585F73">
            <g id="fa-drugs" transform="translate(710.000000, 271.000000)">
                <path d="M4.12804837,0 L4.19668784,5.4819984 L5.55139782,5.4819984 L5.55139782,7.93397369 L5.55139782,15.2568831 C5.55139782,15.2568831 -2.22044605e-16,15.2568831 0.0123199056,17.3301775 L-2.22044605e-16,19.7729174 C0.00659994943,20.2151899 0.235398196,20.638497 0.662634922,20.9969426 C1.41370917,21.6277308 2.69409936,21.9998314 4.10164857,21.9998314 C4.13288833,21.9998314 6.29155975,22.0002107 6.32323951,21.9998314 C7.16187308,21.9899694 6.74788836,21.9998314 8.76085816,21.620524 L19.3422816,21.620524 C20.0453962,21.620524 20.6622715,21.1213554 20.6622715,20.5520149 L20.6965912,18.8546141 L20.6965912,8.45552141 L20.6965912,5.4819984 L21.9998314,5.4819984 L21.9998314,0 L4.12804837,0 Z M1.308187,18.939842 C1.29945904,19.7416395 1.308187,19.622805 1.308187,19.622805 C1.308187,19.622805 1.96328757,20.7916803 4.96385967,20.7916803 C6.46560154,20.7916803 8.36356811,20.6594181 8.61953234,19.8657612 C8.61953234,19.7752086 8.57639607,20.3420225 8.61953234,19.2923174 C7.18596483,20.3420225 2.89508127,20.3011521 1.308187,18.939842 Z M6.92597232,1.37599654 L6.92597232,4.13822818 L5.53638031,4.13822818 L5.53638031,1.37599654 L6.92597232,1.37599654 Z M9.67595125,1.37599654 L9.67595125,4.13822818 L8.28635923,4.13822818 L8.28635923,1.37599654 L9.67595125,1.37599654 Z M12.4259302,1.37599654 L12.4259302,4.13822818 L11.0363382,4.13822818 L11.0363382,1.37599654 L12.4259302,1.37599654 Z M15.1759091,1.37599654 L15.1759091,4.13822818 L13.7863171,4.13822818 L13.7863171,1.37599654 L15.1759091,1.37599654 Z M17.925888,1.37599654 L17.925888,4.13822818 L16.536296,4.13822818 L16.536296,1.37599654 L17.925888,1.37599654 Z M5.28582156,19.0169178 C5.06808102,19.0169178 4.85462487,19.0104695 4.64606646,18.9930214 C4.62934659,18.9915042 4.82865908,19.018435 4.8123792,19.0169178 C4.62318065,18.9998489 4.58458021,19.0222281 4.40594158,18.9896076 L7.24892232,16.7805057 C7.25728226,16.7831608 7.26652219,16.7850573 7.27444213,16.7877125 C7.30832187,16.7987124 7.33912163,16.8116089 7.37212138,16.8229881 C7.40380114,16.8343673 7.43196092,16.8476431 7.46276069,16.8594016 C7.54416006,16.8908841 7.62643943,16.9212287 7.70211885,16.9565043 C7.72279869,16.965987 7.74259854,16.9754697 7.76239839,16.9853317 C7.87459753,17.0403312 7.98063672,17.0987446 8.074796,17.1613303 C8.07919596,17.1643648 8.08447592,17.1670199 8.08887589,17.1700544 C9.31458011,17.8987117 8.08887589,19.0169178 5.28582156,19.0169178 Z M4.97587949,16.3994751 C5.00403928,16.3990958 5.03175906,16.3990958 5.05991885,16.3990958 C5.33887671,16.3990958 5.60771465,16.4214749 5.87039264,16.4537161 L2.6502597,18.7523194 C2.56886032,18.7193197 2.48086099,18.6908716 2.40562157,18.6536995 C2.24634279,18.5751829 2.03558441,18.4526666 1.85870576,18.2918402 C1.85210581,18.2857713 1.84418587,18.2800817 1.83802592,18.2736335 C1.82394603,18.2603577 1.81206612,18.2451854 1.79842622,18.2315303 C1.6453074,18.0714626 1.54894814,17.8969812 1.52826829,17.7133964 L1.52386833,17.5757078 C1.59998774,16.7852311 3.25065271,16.4199577 4.97587949,16.3994751 L4.97587949,16.3994751 Z M6.87754892,15.4341392 L6.87754892,8.27612066 L8.26302872,8.27612066 C8.26302872,8.27612066 8.26302872,13.9022983 8.26302872,15.8841327 C7.83242137,15.6390785 7.07511869,15.5027483 6.87754892,15.4341392 Z M15.1146455,9.64489985 L15.1146455,10.9999157 L19.2355856,10.9999157 L19.2355856,12.3804441 L15.1146455,12.3804441 L15.1146455,13.762483 L19.2355856,13.762483 L19.2355856,15.1616422 L15.1146455,15.1616422 L15.1146455,16.5302536 L19.2355856,16.5302536 L19.2355856,17.8995363 L13.7866528,17.8995363 L13.7866528,8.26806408 L19.2355856,8.26806408 L19.2355856,9.64489985 L15.1146455,9.64489985 Z M12.3557708,6.90583087 L12.3557708,19.2892962 L19.275805,19.2892962 L19.275805,20.3181884 C19.275805,20.4714286 19.0536067,20.6280826 18.8358084,20.6280826 L9.88835959,20.6280826 C10.0205666,20.5050917 10.1125676,20.2682544 10.1125676,20.0384741 L10.1125676,17.4814334 C10.1125676,16.9245224 9.67645478,16.6067911 9.67645478,16.6067911 L9.67645478,6.90583087 L6.91348822,6.90583087 L6.91348822,5.52439087 L19.275805,5.49290835 L19.275805,6.90583087 L12.3557708,6.90583087 Z M19.2750293,4.15601979 L19.2750293,1.37650007 L20.6305487,1.37650007 L20.6305487,4.15601979 L19.2750293,4.15601979 Z" id="Combined-Shape"></path>
            </g>
        </g>
    </g>
</svg>
