<?xml version="1.0" encoding="UTF-8"?>
<svg width="22px" height="11px" viewBox="0 0 22 11" version="1.1" xmlns="http://www.w3.org/2000/svg" xmlns:xlink="http://www.w3.org/1999/xlink">

    <g id="Page-1" stroke="none" stroke-width="1" fill="none" fill-rule="evenodd">
        <g id="icons" transform="translate(-650.000000, -453.000000)" fill="#585F73">
            <g id="fa-EN" transform="translate(650.000000, 448.000000)">
                <path d="M14.0133111,5 C14.2939559,5 14.4907094,5.03202963 14.6035774,5.09608985 C14.7164454,5.16015007 14.8491396,5.32334866 15.0016639,5.58569052 L19.6139767,13.547421 L19.6139767,6.31780366 L18.6073211,6.31780366 C18.2778686,6.31780366 18.038409,6.26442094 17.8889351,6.15765391 C17.7394613,6.05088688 17.6647255,5.88463785 17.6647255,5.65890183 C17.6647255,5.40876192 17.7287847,5.23641201 17.8569052,5.14184692 C17.9850256,5.04728183 18.2534644,5 18.6622296,5 L21.2886855,5 C21.5083206,5 21.6715192,5.05490794 21.7782862,5.16472546 C21.8850532,5.27454298 21.9384359,5.43926679 21.9384359,5.65890183 C21.9384359,5.90294077 21.8728515,6.07376546 21.7416805,6.17138103 C21.6105096,6.26899661 21.37105,6.31780366 21.0232945,6.31780366 L20.9134775,6.31780366 L20.9134775,15.5332779 C20.9134775,15.7102061 20.8722966,15.8322237 20.7899334,15.8993344 C20.7075703,15.9664451 20.5169177,16 20.21797,16 C19.9190224,16 19.7344707,15.9832226 19.6643095,15.9496672 C19.5941483,15.9161119 19.4767063,15.7590142 19.31198,15.4783694 L14.4434276,7.08652246 L14.4434276,14.7096506 L15.5873544,14.7096506 C15.916807,14.7096506 16.1516909,14.7584576 16.2920133,14.8560732 C16.4323357,14.9536888 16.5024958,15.1153622 16.5024958,15.3410982 C16.5024958,15.5912381 16.4369114,15.763588 16.3057404,15.8581531 C16.1745695,15.9527182 15.8863028,16 15.4409318,16 L12.7229617,16 C12.5033267,16 12.3386029,15.9450921 12.2287854,15.8352745 C12.1189678,15.725457 12.0640599,15.5607332 12.0640599,15.3410982 C12.0640599,15.0970592 12.1265939,14.9308102 12.2516639,14.8423461 C12.3767338,14.753882 12.6192439,14.7096506 12.9792013,14.7096506 L13.1530782,14.7096506 L13.1530782,6.31780366 L12.9242928,6.31780366 C12.4118111,6.31780366 12.065586,6.26899661 11.8856073,6.17138103 C11.7056286,6.07376546 11.6156406,5.90294077 11.6156406,5.65890183 C11.6156406,5.43316582 11.6934268,5.26996723 11.8490017,5.16930116 C12.0045765,5.0686351 12.2562379,5.01830283 12.6039933,5.01830283 C12.6039933,5.01830283 12.6650022,5.01525239 12.7870216,5.00915141 C12.9090411,5.00305044 13.0310587,5 13.1530782,5 L14.0133111,5 Z M8.75468376,5.02425482 C8.96445172,5.02425482 9.12331772,5.08749274 9.23128652,5.21397049 C9.33925532,5.34044823 9.39323892,5.52399244 9.39323892,5.76460863 L9.39323892,7.94865236 C9.39323892,8.26947394 9.34696727,8.49157786 9.25442258,8.61497078 C9.16187789,8.7383637 8.99529995,8.80005923 8.75468376,8.80005923 C8.50172828,8.80005923 8.32743839,8.73219415 8.23180888,8.59646194 C8.13617937,8.46072973 8.08836533,8.15533684 8.08836533,7.6802741 L8.08836533,6.35689167 L3.16501252,6.35689167 L3.16501252,9.47563208 L5.58967124,9.47563208 L5.58967124,8.98514769 C5.58967124,8.65198681 5.6344005,8.42062856 5.72386036,8.29106599 C5.81332023,8.16150343 5.96910145,8.09672312 6.1912087,8.09672312 C6.40714631,8.09672312 6.55675798,8.16613059 6.6400482,8.30494763 C6.72333842,8.44376466 6.7649829,8.74144561 6.7649829,9.19799941 L6.7649829,10.919322 C6.7649829,11.3820454 6.72179603,11.678184 6.63542099,11.8077466 C6.54904595,11.9373091 6.39480711,12.0020894 6.17269986,12.0020894 C5.95059261,12.0020894 5.79789616,11.9280548 5.71460594,11.7799833 C5.63131572,11.6319118 5.58967124,11.3450276 5.58967124,10.919322 L5.58967124,10.5954172 L3.16501252,10.5954172 L3.16501252,14.6951264 L8.08836533,14.6951264 L8.08836533,13.19591 C8.08836533,12.7208472 8.13617937,12.4154543 8.23180888,12.2797221 C8.32743839,12.1439899 8.50172828,12.0761248 8.75468376,12.0761248 C8.9891303,12.0761248 9.15416586,12.1393627 9.24979537,12.2658405 C9.34542488,12.3923182 9.39323892,12.6313884 9.39323892,12.9830582 L9.39323892,15.3151727 C9.39323892,15.53728 9.33771294,15.7069427 9.22665931,15.824166 C9.11560568,15.9413892 8.95828207,16 8.75468376,16 L0.675572848,16 C0.453465596,16 0.285345267,15.944474 0.171206818,15.8334204 C0.0570683685,15.7223668 3.94430453e-31,15.5557888 3.94430453e-31,15.3336816 C3.94430453e-31,15.0868957 0.0663226986,14.9187754 0.198970085,14.8293155 C0.331617472,14.7398557 0.635467975,14.6951264 1.11053071,14.6951264 L1.70281375,14.6951264 L1.70281375,6.35689167 L1.11053071,6.35689167 C0.647807267,6.35689167 0.347041541,6.30907764 0.208224508,6.21344812 C0.0694074753,6.11781861 3.94430453e-31,5.94352873 3.94430453e-31,5.69057325 C3.94430453e-31,5.46229635 0.0570683685,5.29417602 0.171206818,5.18620722 C0.285345267,5.07823841 0.459635149,5.02425482 0.694081693,5.02425482 L8.75468376,5.02425482 Z" id="Combined-Shape"></path>
            </g>
        </g>
    </g>
</svg>
