<?xml version="1.0" encoding="UTF-8"?>
<svg width="22px" height="22px" viewBox="0 0 22 22" version="1.1" xmlns="http://www.w3.org/2000/svg" xmlns:xlink="http://www.w3.org/1999/xlink">

    <g id="Page-1" stroke="none" stroke-width="1" fill="none" fill-rule="evenodd">
        <g id="icons" transform="translate(-373.000000, -567.000000)" fill="#585F73">
            <g id="fa-end" transform="translate(373.000000, 567.000000)">
                <path d="M11.0094746,4.4408921e-16 C17.0732127,4.4408921e-16 22,4.93103448 22,11 C22,17.0689655 17.0732127,22 11.0094746,22 C4.92678725,22 8.8817842e-16,17.0689655 8.8817842e-16,11 C8.8817842e-16,4.93103448 4.94573643,4.4408921e-16 11.0094746,4.4408921e-16 Z M18.242667,4.66970677 L4.66970677,18.242667 C6.36350085,19.7251729 8.57931474,20.625 11,20.625 C16.3043587,20.625 20.625,16.3043587 20.625,11 C20.625,8.57931474 19.7251729,6.36350085 18.242667,4.66970677 Z M11,1.375 C5.69564128,1.375 1.375,5.69564128 1.375,11 C1.375,13.3902004 2.25230596,15.5806571 3.70160116,17.2660533 L17.2660533,3.70160116 C15.5806571,2.25230596 13.3902004,1.375 11,1.375 Z" id="end"></path>
            </g>
        </g>
    </g>
</svg>
