<?xml version="1.0" encoding="UTF-8"?>
<svg width="22px" height="16px" viewBox="0 0 22 16" version="1.1" xmlns="http://www.w3.org/2000/svg" xmlns:xlink="http://www.w3.org/1999/xlink">

    <g id="Page-1" stroke="none" stroke-width="1" fill="none" fill-rule="evenodd">
        <g id="icons" transform="translate(-373.000000, -333.000000)" fill="#6B7386">
            <g id="fa-envelope" transform="translate(373.000000, 330.000000)">
                <path d="M20.6194611,3 C22,3 22,4.35304083 22,4.35304083 L22,17.6540198 C22,19 20.6194611,19 20.6194611,19 L1.37290192,19 C1.2383728,19 0,19 0,17.6540198 L0.000794503424,4.34824058 C0.00953404109,4.22421845 0.114408493,3 1.37290192,3 L20.6194611,3 Z M20.6165566,5.09481968 L13.851,10.969 L17.6505889,14.6913135 C17.7887764,14.8217366 18.0023117,15.2975602 17.650589,15.6061172 C17.2988662,15.9146741 16.853569,15.7814963 16.6676787,15.6061172 L12.826,11.859 L12.138728,12.4578593 C11.7901655,12.7644923 11.3336655,12.9178087 10.876478,12.9178087 C10.4192905,12.9178087 9.96210304,12.7644923 9.61422804,12.458553 L8.93,11.864 L4.87762451,15.6406087 C4.81162451,15.703739 4.37047577,15.9317981 3.95931237,15.55158 C3.5351851,15.1593737 3.82112487,14.6756549 3.95931237,14.5452319 L7.815,10.895 L1.403222,5.32514931 C1.40242593,5.34187812 1.40202332,5.35870912 1.40202332,5.3756331 L1.40202332,16.6394614 C1.40202332,17.2131841 1.86471082,17.680071 2.43327332,17.680071 L19.6234589,17.6800716 C20.1920214,17.6800716 20.6547089,17.2131848 20.6547089,16.639462 L20.6547089,5.37563371 C20.6547089,5.27837405 20.641412,5.18418467 20.6165566,5.09481968 Z M19.39,4.335 L2.426,4.335 L10.0585029,10.9752474 C10.4978154,11.3616604 11.2403154,11.3616604 11.6789404,10.9752474 L19.39,4.335 Z" id="Combined-Shape"></path>
            </g>
        </g>
    </g>
</svg>
