<?xml version="1.0" encoding="UTF-8"?>
<svg width="22px" height="22px" viewBox="0 0 22 22" version="1.1" xmlns="http://www.w3.org/2000/svg" xmlns:xlink="http://www.w3.org/1999/xlink">

    <g id="Page-1" stroke="none" stroke-width="1" fill="none" fill-rule="evenodd">
        <g id="icons" transform="translate(-299.000000, -921.000000)" fill="#585F73" fill-rule="nonzero">
            <g id="fa-event4" transform="translate(299.000000, 921.000000)">
                <path d="M15.0081362,-5.68434189e-14 C15.4264236,-5.68434189e-14 15.7651647,0.338741009 15.7650937,0.756957558 L15.7650937,1.78136601 L18.1255475,1.78136601 C19.2798278,1.78136601 20.2185922,2.71997857 20.2185922,3.8744107 L20.2185922,12.8697893 C21.3405007,13.8520047 22,15.2686256 22,16.7895439 C22,19.6627355 19.6625842,22 16.7895439,22 C15.2686818,22 13.8520457,21.3405276 12.8697152,20.2185922 L2.09304469,20.2185922 C0.938764426,20.2185922 0,19.2799797 0,18.1255475 L0,3.8744107 C0,2.71998425 0.938758733,1.78140776 2.09304469,1.78140776 L5.34418153,1.78140776 L5.34418153,0.756999309 C5.34418153,0.338720623 5.68290216,-5.68434189e-14 6.10118084,-5.68434189e-14 C6.5194606,-5.68434189e-14 6.8581384,0.338721687 6.8581384,0.756999309 L6.8581384,1.78140776 L14.2511368,1.78140776 L14.2511368,0.756999309 C14.2511368,0.338720623 14.5898575,-5.68434189e-14 15.0081362,-5.68434189e-14 Z M16.7757987,12.7 C14.5280356,12.7 12.7,14.5280356 12.7,16.7757987 C12.7,19.0235749 14.5280094,20.8515974 16.7757987,20.8515974 C19.0235618,20.8515974 20.8515974,19.0235618 20.8515974,16.7757987 C20.8515974,14.5280356 19.0235618,12.7 16.7757987,12.7 Z M16.856896,13.95 C17.1370694,13.95 17.3638353,14.1769079 17.3638353,14.4572844 L17.3638353,14.4572844 L17.3638353,16.9494538 L18.5861528,18.2140938 C18.7841684,18.4122115 18.7841651,18.7332187 18.5861316,18.9314018 C18.4904435,19.0271162 18.3621803,19.0800002 18.2277138,19.0800002 C18.0932208,19.0800002 17.9649214,19.0270994 17.8692706,18.9313763 L17.8692706,18.9313763 L16.4984957,17.5595659 C16.4033676,17.464366 16.3499996,17.3354862 16.3499996,17.2009053 L16.3499996,17.2009053 L16.3499996,14.4572844 C16.3499996,14.1768966 16.576734,13.95 16.856896,13.95 Z M18.9500008,8.2 L1.25,8.2 L1.25,17.8187256 C1.25,18.6187261 1.66666667,19.0187263 2.5,19.0187263 L2.5,19.0187263 L12.110879,19.018194 C11.7835329,18.3395065 11.6,17.5788013 11.6,16.7757987 C11.6,13.9205224 13.9205224,11.6 16.7757987,11.6 C17.5523155,11.6 18.2892811,11.7716292 18.9507758,12.0789678 L18.9500008,8.2 Z M5.30616359,3 L2.25,3 C1.30555556,3 1.25308642,3.89197531 1.25017147,3.99108368 L1.25,6.97957306 L18.9500008,6.97957306 L18.9500008,4 C18.9500008,4 18.9500008,3 17.75,3 L15.75,3 L15.75,3 L15.75,4.48976556 C15.75,5.14889823 15.2144406,5.68464834 14.5551172,5.68464834 C13.8958235,5.68464834 13.3602344,5.14888592 13.3602344,4.48976556 C13.3602344,3.93419026 13.7407285,3.46627344 14.2551172,3.332957 L14.2551172,3 L6.80104636,3 L6.80104636,4.48976556 C6.80104636,5.14888592 6.2654573,5.68464834 5.60616359,5.68464834 C4.94686988,5.68464834 4.41128081,5.14888592 4.41128081,4.48976556 C4.41128081,3.93419026 4.79177484,3.46627344 5.30616359,3.332957 L5.30616359,3 Z" id="Combined-Shape"></path>
            </g>
        </g>
    </g>
</svg>
