<?xml version="1.0" encoding="UTF-8"?>
<svg width="22px" height="22px" viewBox="0 0 22 22" version="1.1" xmlns="http://www.w3.org/2000/svg" xmlns:xlink="http://www.w3.org/1999/xlink">

    <g id="Page-1" stroke="none" stroke-width="1" fill="none" fill-rule="evenodd">
        <g id="icons" transform="translate(-229.000000, -921.000000)" fill="#585F73" fill-rule="nonzero">
            <g id="fa-event3" transform="translate(229.000000, 921.000000)">
                <path d="M15.0081362,0 C15.4264236,0 15.7651647,0.338741009 15.7650937,0.756957558 L15.7650937,1.78136601 L18.1255475,1.78136601 C19.2798278,1.78136601 20.2185922,2.71997857 20.2185922,3.8744107 L20.2185922,12.8697893 C21.3405007,13.8520047 22,15.2686256 22,16.7895439 C22,19.6627355 19.6625842,22 16.7895439,22 C15.2686818,22 13.8520457,21.3405276 12.8697152,20.2185922 L2.09304469,20.2185922 C0.938764426,20.2185922 0,19.2799797 0,18.1255475 L0,3.8744107 C0,2.71998425 0.938758733,1.78140776 2.09304469,1.78140776 L5.34418153,1.78140776 L5.34418153,0.756999309 C5.34418153,0.338720623 5.68290216,0 6.10118084,0 C6.5194606,0 6.8581384,0.338721687 6.8581384,0.756999309 L6.8581384,1.78140776 L14.2511368,1.78140776 L14.2511368,0.756999309 C14.2511368,0.338720623 14.5898575,0 15.0081362,0 Z M16.7757987,12.7 C14.5280356,12.7 12.7,14.5280356 12.7,16.7757987 C12.7,19.0235749 14.5280094,20.8515974 16.7757987,20.8515974 C19.0235618,20.8515974 20.8515974,19.0235618 20.8515974,16.7757987 C20.8515974,14.5280356 19.0235618,12.7 16.7757987,12.7 Z M19.490693,14.9924371 C19.7473182,15.2490008 19.7473182,15.6647947 19.49071,15.921403 L16.2921869,19.1199261 C16.1673905,19.2446626 16.0005873,19.3123356 15.8277249,19.3123356 C15.6548406,19.3123356 15.4879847,19.2446478 15.363229,19.1198922 L13.9924711,17.7491342 C13.7358458,17.4925705 13.7358458,17.0767766 13.9924371,16.8201853 C14.2490008,16.56356 14.6647947,16.56356 14.921403,16.8201683 L15.8276821,17.7264474 L18.5616754,14.9924541 C18.818278,14.7358515 19.2340458,14.7358515 19.490693,14.9924371 Z M18.9500008,8.2 L1.25,8.2 L1.25,17.7937622 C1.25,18.5937627 1.66666667,18.993763 2.5,18.993763 L2.5,18.993763 L12.0990361,18.9934723 C11.7791096,18.3210544 11.6,17.5690656 11.6,16.7757987 C11.6,13.9205224 13.9205224,11.6 16.7757987,11.6 C17.5523155,11.6 18.2892811,11.7716292 18.9507758,12.0789678 L18.9500008,8.2 Z M5.30616359,3 L2.25,3 C1.30555556,3 1.25308642,3.89197531 1.25017147,3.99108368 L1.25,6.97957306 L18.9500008,6.97957306 L18.9500008,4 C18.9500008,4 18.9500008,3 17.75,3 L15.75,3 L15.75,3 L15.75,4.48976556 C15.75,5.14889823 15.2144406,5.68464834 14.5551172,5.68464834 C13.8958235,5.68464834 13.3602344,5.14888592 13.3602344,4.48976556 C13.3602344,3.93419026 13.7407285,3.46627344 14.2551172,3.332957 L14.2551172,3 L6.80104636,3 L6.80104636,4.48976556 C6.80104636,5.14888592 6.2654573,5.68464834 5.60616359,5.68464834 C4.94686988,5.68464834 4.41128081,5.14888592 4.41128081,4.48976556 C4.41128081,3.93419026 4.79177484,3.46627344 5.30616359,3.332957 L5.30616359,3 Z" id="Combined-Shape"></path>
            </g>
        </g>
    </g>
</svg>
