<?xml version="1.0" encoding="UTF-8"?>
<svg width="22px" height="22px" viewBox="0 0 22 22" version="1.1" xmlns="http://www.w3.org/2000/svg" xmlns:xlink="http://www.w3.org/1999/xlink">

    <g id="Page-1" stroke="none" stroke-width="1" fill="none" fill-rule="evenodd">
        <g id="icons" transform="translate(-650.000000, -921.000000)" fill="#585F73" fill-rule="nonzero">
            <g id="fa-event5" transform="translate(650.000000, 921.000000)">
                <path d="M15.0175232,0 C15.4298186,0 15.763701,0.333882431 15.7636311,0.746107871 L15.7636311,1.78389556 L18.1393613,1.78389556 C19.2890085,1.78389556 20.2234536,2.71835579 20.2234536,3.86798781 L20.223,10.337 L20.5921368,10.7002166 C20.9657337,11.0744577 20.9657337,11.6815245 20.5921368,12.0557656 L20.2517591,12.3967301 C20.3762058,12.6460827 20.4815566,12.8998175 20.5677077,13.159321 L21.0419767,13.159321 C21.5752498,13.159321 22,13.5848035 22,14.1181336 L22,15.9076144 C22,16.4409444 21.5752498,16.866427 21.0419767,16.866427 L20.5677077,16.866427 C20.4815566,17.1259305 20.3762058,17.3796652 20.2517591,17.6290178 L20.5921368,17.9699823 C20.9657337,18.3442234 20.9657337,18.9512902 20.5921368,19.3255313 L19.3304912,20.5893522 C18.9564187,20.9640696 18.3489125,20.9640696 17.97484,20.5893522 L17.6352948,20.2492215 C17.386778,20.3736001 17.1338927,20.4789232 16.8752627,20.565086 L16.8752627,21.0411874 C16.8752627,21.5745175 16.4505125,22 15.9172394,22 L14.1308386,22 C13.5975654,22 13.1728152,21.5745175 13.1728152,21.0411874 L13.1728152,20.5768025 C12.9094059,20.4898266 12.6519074,20.3838308 12.4021698,20.2598532 L12.073238,20.5893522 C11.6991655,20.9640696 11.0916592,20.9640696 10.7175867,20.5893522 L10.352,20.223 L2.08409225,20.2234536 L2.08409225,20.2234536 C0.934445113,20.2234536 0,19.2889933 0,18.1393613 L0,3.86798781 C0,2.71836158 0.934439328,1.78393737 2.08409225,1.78393737 L5.35177029,1.78393737 L5.35177029,0.746149682 C5.35177029,0.333862796 5.68563309,0 6.09791997,0 C6.51020758,0 6.84402784,0.333863515 6.84402784,0.746149682 L6.84402784,1.78393737 L14.2713735,1.78393737 L14.2713735,0.746149682 C14.2713735,0.333862796 14.6052363,0 15.0175232,0 Z M15.8597927,9.18835449 L14.1996555,9.18835449 L14.1996555,10.344941 L13.8327025,10.4389745 C13.4131719,10.5464814 13.0076972,10.7134362 12.627332,10.9340273 L12.3023859,11.1224784 L11.4892643,10.3079548 L10.3158238,11.4938145 L11.1239875,12.3033716 L10.9264397,12.6303176 C10.7012132,13.0030725 10.5347521,13.4052297 10.4266536,13.8383693 L10.3343311,14.2082957 L9.18835449,14.2082957 L9.18835449,15.8729784 L10.3430857,15.8729784 L10.4368958,16.2403226 C10.5458816,16.6670926 10.7135228,17.0696313 10.9373338,17.4400436 L11.1348816,17.7669896 L10.3268426,18.5764217 L11.5000251,19.751627 L12.31328,18.9369699 L12.6382262,19.1254209 C13.0185913,19.346012 13.424066,19.5129669 13.8435967,19.6204737 L14.2105497,19.7145073 L14.2105497,20.8710938 L15.8706868,20.8710938 L15.8706868,19.7035943 L16.2376398,19.6095608 C16.6495712,19.5040013 17.0441051,19.3395333 17.4321162,19.114508 L17.7570623,18.926057 L18.5812114,19.751627 L19.7543939,18.5764217 L18.9299387,17.7505451 L19.1172794,17.4263986 C19.3419861,17.0375997 19.5062337,16.6422347 19.6116583,16.2294096 L19.7054684,15.8620655 L20.8710938,15.8620655 L20.8710938,14.1973828 L19.7054684,14.1973828 L19.6116583,13.8300386 C19.5062337,13.4172135 19.3419861,13.0218485 19.1172794,12.6330496 L18.9299387,12.3089032 L19.75413,11.4832909 L18.5705782,10.3184728 L17.7570623,11.1333913 L17.4321162,10.9449402 C17.0577707,10.7278402 16.6498654,10.5573778 16.2164978,10.4362294 L15.8597927,10.3365122 L15.8597927,9.18835449 Z M13.5665793,8.19924913 L1.25,8.2 L1.25,18 C1.25,18.8 1.66666667,19.2 2.5,19.2 L2.5,19.2 L9.3511504,19.2012414 C9.08641582,18.8270775 9.12134608,18.3051543 9.45594117,17.9699823 L9.77035362,17.6550278 C9.64308953,17.4051866 9.53499225,17.1455301 9.44649953,16.8776112 L8.98377128,16.8776112 C8.45049812,16.8776112 8.02574793,16.4521287 8.02574793,15.9187986 L8.02574793,14.1293178 C8.02574793,13.5959877 8.45049812,13.1705052 8.98377128,13.1705052 L9.43328415,13.1705052 C9.52186248,12.8978847 9.63053445,12.6349592 9.75924174,12.3819576 L9.44477616,12.0669499 C9.07117919,11.6927088 9.07117919,11.0856419 9.44322266,10.7129639 L10.7064217,9.43639577 C11.0804942,9.06167832 11.6880005,9.06167832 12.062073,9.43639577 L12.3910048,9.76589471 C12.6407424,9.64191708 12.8982409,9.5359213 13.1616502,9.44894544 L13.1616502,8.98456053 C13.1616502,8.65809519 13.3208035,8.37204017 13.5665793,8.19924913 Z M15.0206503,12.0248616 C16.6803473,12.0248616 18.0257976,13.3703119 18.0257976,15.0300089 C18.0257976,16.689706 16.6803473,18.0351562 15.0206503,18.0351562 C13.3609532,18.0351562 12.0155029,16.689706 12.0155029,15.0300089 C12.0155029,13.3703119 13.3609532,12.0248616 15.0206503,12.0248616 Z M15.0233765,13.1849365 C13.9944158,13.1849365 13.1602783,14.019074 13.1602783,15.0480347 C13.1602783,16.0769954 13.9944158,16.9111328 15.0233765,16.9111328 C16.0523372,16.9111328 16.8864746,16.0769954 16.8864746,15.0480347 C16.8864746,14.019074 16.0523372,13.1849365 15.0233765,13.1849365 Z M18.9500008,8.2 L16.4591686,8.19924913 C16.7049444,8.37204017 16.8640977,8.65809519 16.8640977,8.98456053 L16.8640977,9.45520585 C17.1298019,9.54630889 17.3872038,9.65369227 17.6348477,9.77697424 L17.963675,9.44758003 C18.2307159,9.18007864 18.6167188,9.10353978 18.9506929,9.21682868 L18.9500008,8.2 Z M5.30592306,2.99857 L2.2481816,2.99857 C1.30324955,2.99857 1.25075332,3.89100583 1.24783687,3.99016537 L1.24766531,6.98019769 L18.9568044,6.98019769 L18.9568044,3.99908629 C18.9568044,3.99908629 18.9568044,2.99857 17.7561841,2.99857 L15.7551515,2.99857 L15.7551515,2.99857 L15.7551515,4.48910471 C15.7551515,5.14857769 15.2193156,5.6846044 14.5596518,5.6846044 C13.9000177,5.6846044 13.3641522,5.14856537 13.3641522,4.48910471 C13.3641522,3.93324257 13.7448426,3.46508418 14.259497,3.3316989 L14.259497,2.99857 L6.80157763,2.99857 L6.80157763,4.48910471 C6.80157763,5.14856537 6.26571204,5.6846044 5.60607794,5.6846044 C4.94644385,5.6846044 4.41057826,5.14856537 4.41057826,4.48910471 C4.41057826,3.93324257 4.79126873,3.46508418 5.30592306,3.3316989 L5.30592306,2.99857 Z" id="Combined-Shape"></path>
            </g>
        </g>
    </g>
</svg>
