<?xml version="1.0" encoding="UTF-8"?>
<svg width="22px" height="22px" viewBox="0 0 22 22" version="1.1" xmlns="http://www.w3.org/2000/svg" xmlns:xlink="http://www.w3.org/1999/xlink">

    <g id="Page-1" stroke="none" stroke-width="1" fill="none" fill-rule="evenodd">
        <g id="icons" transform="translate(-299.000000, -862.000000)" fill="#585F73" fill-rule="nonzero">
            <g id="fa-expand" transform="translate(299.000000, 862.000000)">
                <path d="M8.15680952,8.29077907 C8.34494453,8.09949073 8.34494453,7.79088277 8.15694418,7.599731 L0.824018255,0.143884519 C0.635335092,-0.0479615064 0.329683426,-0.0479615064 0.141000264,0.143884519 C-0.0470000879,0.335036288 -0.0470000879,0.643644244 0.141000264,0.834796012 L7.47392619,8.2906425 C7.56553468,8.38378661 7.68819287,8.43442346 7.81543519,8.43442346 C7.9422374,8.43442346 8.06484601,8.38380707 8.15680952,8.29077907 Z M5.85380556,0.489340266 C5.85380556,0.219536758 5.63799003,0.000103559177 5.37139815,0.000103559177 L0.482509259,0.000103559177 C0.215917373,0.000103559177 0.000101851852,0.219536758 0.000101851852,0.489340266 C0.000101851852,0.759143774 0.215917373,0.978576973 0.482509259,0.978576973 L5.37139815,0.978576973 C5.63799003,0.978576973 5.85380556,0.759143774 5.85380556,0.489340266 Z M0.964916667,5.46018075 L0.964916667,0.489340266 C0.964916667,0.219536758 0.749101146,0.000103559177 0.482509259,0.000103559177 C0.215917373,0.000103559177 0.000101851852,0.219536758 0.000101851852,0.489340266 L0.000101851852,5.46018075 C0.000101851852,5.72998425 0.215917373,5.94941745 0.482509259,5.94941745 C0.749101146,5.94941745 0.964916667,5.72998425 0.964916667,5.46018075 Z M21.9982498,21.5056014 C21.9982498,21.2357979 21.7824343,21.0163647 21.5158424,21.0163647 L16.6269535,21.0163647 C16.3603616,21.0163647 16.1445461,21.2357979 16.1445461,21.5056014 C16.1445461,21.7754049 16.3603616,21.9948381 16.6269535,21.9948381 L21.5158424,21.9948381 C21.7824343,21.9948381 21.9982498,21.7754049 21.9982498,21.5056014 Z M21.9982498,21.5056014 L21.9982498,16.5347609 C21.9982498,16.2649574 21.7824343,16.0455242 21.5158424,16.0455242 C21.2492505,16.0455242 21.033435,16.2649574 21.033435,16.5347609 L21.033435,21.5056014 C21.033435,21.7754049 21.2492505,21.9948381 21.5158424,21.9948381 C21.7824343,21.9948381 21.9982498,21.7754049 21.9982498,21.5056014 Z M21.8573514,21.8510572 C22.0453517,21.6599054 22.0453517,21.3512974 21.8573514,21.1601457 L14.5240181,13.7038849 C14.3353349,13.5120389 14.0296832,13.5120389 13.8410001,13.7038849 C13.6529997,13.8950367 13.6529997,14.2036447 13.8410001,14.3947964 L21.1743334,21.8510572 C21.2659419,21.9442013 21.3886001,21.9948381 21.5158424,21.9948381 C21.6430847,21.9948381 21.7657429,21.9442013 21.8573514,21.8510572 Z M0.482509259,21.9948381 C0.609751572,21.9948381 0.732409762,21.9442013 0.824018255,21.8510572 L8.15735159,14.3947964 C8.34535194,14.2036447 8.34535194,13.8950367 8.15735159,13.7038849 C7.96866843,13.5120389 7.66301676,13.5120389 7.4743336,13.7038849 L0.141000264,21.1601457 C-0.0470000879,21.3512974 -0.0470000879,21.6599054 0.141000264,21.8510572 C0.232608757,21.9442013 0.355266946,21.9948381 0.482509259,21.9948381 Z M5.85380556,21.5056014 C5.85380556,21.2357979 5.63799003,21.0163647 5.37139815,21.0163647 L0.482509259,21.0163647 C0.215917373,21.0163647 0.000101851852,21.2357979 0.000101851852,21.5056014 C0.000101851852,21.7754049 0.215917373,21.9948381 0.482509259,21.9948381 L5.37139815,21.9948381 C5.63799003,21.9948381 5.85380556,21.7754049 5.85380556,21.5056014 Z M0.964916667,21.5056014 L0.964916667,16.5347609 C0.964916667,16.2649574 0.749101146,16.0455242 0.482509259,16.0455242 C0.215917373,16.0455242 0.000101851852,16.2649574 0.000101851852,16.5347609 L0.000101851852,21.5056014 C0.000101851852,21.7754049 0.215917373,21.9948381 0.482509259,21.9948381 C0.749101146,21.9948381 0.964916667,21.7754049 0.964916667,21.5056014 Z M21.9982498,5.46018075 L21.9982498,0.489340266 C21.9982498,0.219536758 21.7824343,0.000103559177 21.5158424,0.000103559177 C21.2492505,0.000103559177 21.033435,0.219536758 21.033435,0.489340266 L21.033435,5.46018075 C21.033435,5.72998425 21.2492505,5.94941745 21.5158424,5.94941745 C21.7824343,5.94941745 21.9982498,5.72998425 21.9982498,5.46018075 Z M14.1825091,8.43483769 C14.3097514,8.43483769 14.4324096,8.38420084 14.5240181,8.29105673 L21.8573514,0.834796012 C22.0453517,0.643644244 22.0453517,0.335036288 21.8573514,0.143884519 C21.6686682,-0.0479615064 21.3630166,-0.0479615064 21.1743334,0.143884519 L13.8410001,7.60014524 C13.6529997,7.79129701 13.6529997,8.09990496 13.8410001,8.29105673 C13.9326086,8.38420084 14.0552668,8.43483769 14.1825091,8.43483769 Z M21.9982498,0.489340266 C21.9982498,0.219536758 21.7824343,0.000103559177 21.5158424,0.000103559177 L16.6269535,0.000103559177 C16.3603616,0.000103559177 16.1445461,0.219536758 16.1445461,0.489340266 C16.1445461,0.759143774 16.3603616,0.978576973 16.6269535,0.978576973 L21.5158424,0.978576973 C21.7824343,0.978576973 21.9982498,0.759143774 21.9982498,0.489340266 Z" id="Combined-Shape"></path>
            </g>
        </g>
    </g>
</svg>
