<?xml version="1.0" encoding="UTF-8"?>
<svg width="22px" height="22px" viewBox="0 0 22 22" version="1.1" xmlns="http://www.w3.org/2000/svg" xmlns:xlink="http://www.w3.org/1999/xlink">

    <g id="Page-1" stroke="none" stroke-width="1" fill="none" fill-rule="evenodd">
        <g id="icons" transform="translate(-373.000000, -862.000000)" fill="#585F73" fill-rule="nonzero">
            <g id="fa-expand-o" transform="translate(373.000000, 862.000000)">
                <path d="M0.141118099,0.143644389 C-0.0470169163,0.334932729 -0.0470169163,0.643540685 0.140983435,0.834692453 L7.47390936,8.29053894 C7.66259252,8.48238496 7.96824419,8.48238496 8.15692735,8.29053894 C8.3449277,8.09938717 8.3449277,7.79077921 8.15692735,7.59962744 L0.824001426,0.14378096 C0.732392933,0.0506368497 0.609734744,0 0.482492431,0 C0.355690218,0 0.233081602,0.0506163843 0.141118099,0.143644389 Z M2.44412206,7.94508319 C2.44412206,8.2148867 2.65993758,8.4343199 2.92652947,8.4343199 L7.81541836,8.4343199 C8.08201024,8.4343199 8.29782576,8.2148867 8.29782576,7.94508319 C8.29782576,7.67527968 8.08201024,7.45584648 7.81541836,7.45584648 L2.92652947,7.45584648 C2.65993758,7.45584648 2.44412206,7.67527968 2.44412206,7.94508319 Z M7.33301095,2.97424271 L7.33301095,7.94508319 C7.33301095,8.2148867 7.54882647,8.4343199 7.81541836,8.4343199 C8.08201024,8.4343199 8.29782576,8.2148867 8.29782576,7.94508319 L8.29782576,2.97424271 C8.29782576,2.7044392 8.08201024,2.485006 7.81541836,2.485006 C7.54882647,2.485006 7.33301095,2.7044392 7.33301095,2.97424271 Z M13.7001017,14.0492371 C13.7001017,14.3190406 13.9159172,14.5384738 14.1825091,14.5384738 L19.071398,14.5384738 C19.3379898,14.5384738 19.5538054,14.3190406 19.5538054,14.0492371 C19.5538054,13.7794336 19.3379898,13.5600004 19.071398,13.5600004 L14.1825091,13.5600004 C13.9159172,13.5600004 13.7001017,13.7794336 13.7001017,14.0492371 Z M13.7001017,14.0492371 L13.7001017,19.0200776 C13.7001017,19.2898811 13.9159172,19.5093143 14.1825091,19.5093143 C14.449101,19.5093143 14.6649165,19.2898811 14.6649165,19.0200776 L14.6649165,14.0492371 C14.6649165,13.7794336 14.449101,13.5600004 14.1825091,13.5600004 C13.9159172,13.5600004 13.7001017,13.7794336 13.7001017,14.0492371 Z M13.8410001,13.7037814 C13.6529997,13.8949331 13.6529997,14.2035411 13.8410001,14.3946929 L21.1743334,21.8509536 C21.3630166,22.0427996 21.6686682,22.0427996 21.8573514,21.8509536 C22.0453517,21.6598018 22.0453517,21.3511939 21.8573514,21.1600421 L14.5240181,13.7037814 C14.4324096,13.6106373 14.3097514,13.5600004 14.1825091,13.5600004 C14.0552668,13.5600004 13.9326086,13.6106373 13.8410001,13.7037814 Z M7.81584259,13.5600004 C7.68860028,13.5600004 7.56594209,13.6106373 7.4743336,13.7037814 L0.141000264,21.1600421 C-0.0470000879,21.3511939 -0.0470000879,21.6598018 0.141000264,21.8509536 C0.329683426,22.0427996 0.635335092,22.0427996 0.824018255,21.8509536 L8.15735159,14.3946929 C8.34535194,14.2035411 8.34535194,13.8949331 8.15735159,13.7037814 C8.0657431,13.6106373 7.94308491,13.5600004 7.81584259,13.5600004 Z M2.4445463,14.0492371 C2.4445463,14.3190406 2.66036182,14.5384738 2.9269537,14.5384738 L7.81584259,14.5384738 C8.08243448,14.5384738 8.29825,14.3190406 8.29825,14.0492371 C8.29825,13.7794336 8.08243448,13.5600004 7.81584259,13.5600004 L2.9269537,13.5600004 C2.66036182,13.5600004 2.4445463,13.7794336 2.4445463,14.0492371 Z M7.33343519,14.0492371 L7.33343519,19.0200776 C7.33343519,19.2898811 7.54925071,19.5093143 7.81584259,19.5093143 C8.08243448,19.5093143 8.29825,19.2898811 8.29825,19.0200776 L8.29825,14.0492371 C8.29825,13.7794336 8.08243448,13.5600004 7.81584259,13.5600004 C7.54925071,13.5600004 7.33343519,13.7794336 7.33343519,14.0492371 Z M13.7001017,2.97465695 L13.7001017,7.94549743 C13.7001017,8.21530093 13.9159172,8.43473413 14.1825091,8.43473413 C14.449101,8.43473413 14.6649165,8.21530093 14.6649165,7.94549743 L14.6649165,2.97465695 C14.6649165,2.70485344 14.449101,2.48542024 14.1825091,2.48542024 C13.9159172,2.48542024 13.7001017,2.70485344 13.7001017,2.97465695 Z M21.5158424,0 C21.3886001,0 21.2659419,0.0506368497 21.1743334,0.14378096 L13.8410001,7.60004168 C13.6529997,7.79119345 13.6529997,8.09980141 13.8410001,8.29095317 C14.0296832,8.4827992 14.3353349,8.4827992 14.5240181,8.29095317 L21.8573514,0.834692453 C22.0453517,0.643540685 22.0453517,0.334932729 21.8573514,0.14378096 C21.7657429,0.0506368497 21.6430847,0 21.5158424,0 Z M13.7001017,7.94549743 C13.7001017,8.21530093 13.9159172,8.43473413 14.1825091,8.43473413 L19.071398,8.43473413 C19.3379898,8.43473413 19.5538054,8.21530093 19.5538054,7.94549743 C19.5538054,7.67569392 19.3379898,7.45626072 19.071398,7.45626072 L14.1825091,7.45626072 C13.9159172,7.45626072 13.7001017,7.67569392 13.7001017,7.94549743 Z" id="Combined-Shape"></path>
            </g>
        </g>
    </g>
</svg>
