<?xml version="1.0" encoding="UTF-8"?>
<svg width="18px" height="22px" viewBox="0 0 18 22" version="1.1" xmlns="http://www.w3.org/2000/svg" xmlns:xlink="http://www.w3.org/1999/xlink">

    <g id="Page-1" stroke="none" stroke-width="1" fill="none" fill-rule="evenodd">
        <g id="icons" transform="translate(-102.000000, -212.000000)" fill="#585F73">
            <g id="fa-experiment-results-o" transform="translate(100.000000, 212.000000)">
                <path d="M15.0526251,1.40029016 L15.0526251,-4.07559233e-07 L14.3307321,-4.05818747e-07 L6.93279566,-4.30448383e-07 L6.93279566,1.40029014 L3.33260673,1.40028967 C2.22843715,1.40028967 2.22843715,2.1388703 2.22843715,2.86145009 C2.22843715,2.86145009 2.17601332,19.8082352 2.22843715,20.7156368 C2.28086098,21.6230383 2.96963066,21.973468 3.33260672,21.973468 L18.4503697,21.973468 C18.4503697,21.973468 19.7070162,21.9084064 19.7070162,20.7156368 L19.7070162,2.86145009 C19.7070162,2.51115424 19.7070162,1.40028967 18.4503697,1.40028967 L15.0526251,1.40029016 Z M5.82133702,10.8388551 C5.99473499,10.8388551 6.16927259,10.8444392 6.34153094,10.8388551 C6.80945696,10.8236862 7.22296143,12.3331485 8.36274937,12.3331485 C9.50253732,12.3331485 9.74291992,11.3984541 9.84820121,10.8388551 C9.95348249,10.279256 10.0654733,9.90018824 10.0654733,9.90018824 C10.1079378,9.72860016 10.2521225,9.70934271 10.3121691,9.70904461 C10.3745275,9.70928309 10.5165829,9.72651344 10.5608725,9.89768417 L11.1082623,11.467733 C11.2086928,11.8557306 11.6765834,12.3331485 12.3394993,12.3331485 C12.7093493,12.3331485 13.1049471,12.0792615 13.299566,11.6678794 L13.5530148,11.1323672 C13.6094111,11.0132452 13.7189185,10.9920203 13.7633907,10.9883238 C13.8076803,10.984985 13.9194387,10.9879661 13.9951205,11.0963563 L14.0083222,11.1152561 C14.2264852,11.4277276 14.6328857,11.6679389 15.0187167,11.6678793 C15.4190879,11.6644809 15.8970293,11.3581009 16.0603768,10.9883238 C16.0603768,10.9883238 16.470568,10.279256 16.6351611,10.2792561 L18.5211377,10.2789996 L18.5221034,20.6719967 L3.60860768,20.6719967 L3.60813767,10.8379996 L5.82133702,10.8388551 L5.82133702,10.8388551 Z M6.91945982,2.77950819 L6.91945982,4.15065621 L15.0604943,4.15059659 L15.0604943,2.77950819 L18.5221034,2.77950819 L18.5211377,8.90799957 L16.6351611,8.90804293 C16.4609175,8.90809567 16.0688835,9.02506574 15.7965524,9.32139904 C15.453209,9.69500346 15.2247113,10.073088 15.0187167,10.073088 C14.6493327,10.073088 14.5319345,9.5897522 13.7633904,9.5897522 C13.1242632,9.5897522 12.8351412,10.0017876 12.709349,10.2676214 L12.4559003,10.8031336 C12.387519,10.9477732 12.2545892,10.9519466 12.2007481,10.9469385 C12.1467852,10.94199 12.017019,10.913849 11.9770488,10.7593721 L11.4412865,9.11695253 C11.3075049,8.60004196 10.8532926,8.2539444 10.3098318,8.2539444 C9.75700198,8.25668694 9.3033372,8.60815036 9.17454435,9.1284593 C9.17454435,9.1284593 8.85767909,10.279256 8.55608259,10.8388551 C8.25448608,11.3984541 7.70446848,10.073088 7.70446848,10.073088 C7.51903597,9.65502841 7.12341647,9.47385408 6.65831425,9.47385408 L3.60813767,9.47299957 L3.60860768,2.77950781 L6.91945982,2.77950819 Z M13.695234,1.37004865 L13.695234,2.74211143 L8.30824498,2.74211136 L8.30824498,1.37004858 L13.695234,1.37004865 Z M5.57896641,15.140358 L11,15.140358 L11,16.5020143 L5.57896641,16.5020142 L5.57896641,15.140358 Z M5.57399641,17.9011842 L15.0802089,17.9011841 L15.0802089,19.2493286 L5.57399641,19.2493287 L5.57399641,17.9011842 Z" id="Combined-Shape"></path>
            </g>
        </g>
    </g>
</svg>
