<?xml version="1.0" encoding="UTF-8"?>
<svg width="22px" height="18px" viewBox="0 0 22 18" version="1.1" xmlns="http://www.w3.org/2000/svg" xmlns:xlink="http://www.w3.org/1999/xlink">

    <g id="Page-1" stroke="none" stroke-width="1" fill="none" fill-rule="evenodd">
        <g id="icons" transform="translate(-229.000000, -1041.000000)" fill="#585F73" fill-rule="nonzero">
            <g id="fa-eye-hide" transform="translate(229.000000, 1039.000000)">
                <path d="M19.5591971,2.48738434 C19.2449334,2.16863113 18.7331325,2.17312061 18.4143793,2.48738434 L15.5411109,5.36065272 C14.081892,4.69820782 12.5826994,4.37365368 11.0719736,4.38420807 C8.89687537,4.39940398 6.6978695,5.10925938 4.55983829,6.50547059 C1.8616597,8.26534747 0.0249023438,10.7382812 -0.000138244854,11.0491053 C-0.0249023437,11.3599294 3.3207413,14.9142701 4.96389166,15.9378719 L2.43631338,18.4654502 C2.12204965,18.779714 2.12204965,19.2915149 2.43631338,19.6102681 C2.59344524,19.7674 2.79996141,19.8482106 3.00647757,19.8482106 C3.21299374,19.8482106 3.4195099,19.7674 3.57664177,19.6102681 L19.5591971,3.63220221 C19.8734609,3.31793848 19.8734609,2.80613755 19.5591971,2.48738434 Z M8.99993584,11.9018278 C8.88320931,11.6369483 8.82484605,11.3496215 8.82484605,11.0488262 C8.82484605,10.4696831 9.04932014,9.92196627 9.46235247,9.50893394 C10.1088379,8.86244856 11.0650975,8.70980618 11.8552463,9.04651731 L8.99993584,11.9018278 Z M17.256093,7.25072458 C17.5344408,6.90054499 18.0417523,6.83769225 18.3964213,7.11155064 C19.5636866,8.02291545 22.0288086,10.7797852 21.9992648,11.0112917 C21.9697209,11.2427983 20.4346461,13.4282516 18.1719472,15.0848704 C16.8295922,16.0635774 15.4423423,16.7818945 14.0461134,17.2173743 C12.9821062,17.5495959 11.9136096,17.7157068 10.8540918,17.7157068 C10.1492432,17.7157068 9.44888402,17.643875 8.75301434,17.4957221 C8.3175346,17.4059325 8.03469724,16.9749423 8.12897636,16.5394625 C8.218766,16.1039828 8.64975625,15.8211454 9.08523599,15.9154245 C11.7564777,16.4810992 14.4815932,15.7717611 17.1797718,13.8098576 C18.5804901,12.7907452 19.6130709,11.6773537 20.1428298,11.0578052 C19.2449334,10.0072664 18.3201001,9.10937006 17.3952669,8.38656348 C17.0450873,8.10821561 16.9822346,7.60090416 17.256093,7.25072458 Z M14.3109929,6.59526023 L13.0494485,7.85680462 C11.5813879,6.91401344 9.60152641,7.08461375 8.32202408,8.36411607 C7.60370698,9.08243317 7.21312206,10.0342033 7.21312206,11.0443367 C7.21312206,11.7806118 7.42412771,12.4854604 7.81471263,13.0915405 L6.14911487,14.7571382 C4.69003327,13.9131156 3.25339908,12.6650397 1.85717022,11.0353578 C2.45427131,10.3349986 3.71581571,8.98366457 5.44426622,7.85680462 C8.43426113,5.9083695 11.4107876,5.48635821 14.3109929,6.59526023 Z" id="Combined-Shape"></path>
            </g>
        </g>
    </g>
</svg>
