<?xml version="1.0" encoding="UTF-8"?>
<svg width="22px" height="16px" viewBox="0 0 22 16" version="1.1" xmlns="http://www.w3.org/2000/svg" xmlns:xlink="http://www.w3.org/1999/xlink">

    <g id="Page-1" stroke="none" stroke-width="1" fill="none" fill-rule="evenodd">
        <g id="icons" transform="translate(-165.000000, -1042.000000)" fill="#585F73">
            <g id="fa-eye-o" transform="translate(165.000000, 1039.000000)">
                <g id="fa-eye" transform="translate(0.000000, 3.000000)">
                    <path d="M11,0.5 C16.9363333,0.5 22,8 22,8 C22,8 16.9326667,15.5 11,15.5 C5.06366667,15.5 0,8 0,8 C0,8 5.06733333,0.5 11,0.5 Z M2.05121756,8.22980614 C2.71893839,9.05714139 3.47446962,9.88502202 4.29761659,10.6536638 C6.55631059,12.7627968 8.86050535,14 11,14 C13.1378641,14 15.4418562,12.7627432 17.7011332,10.6535472 C18.524526,9.88485142 19.2803931,9.05691318 19.9484992,8.22951825 C20.011675,8.15128024 20.0727674,8.07463694 20.1317315,7.99973659 C20.0728574,7.92491248 20.0118594,7.84834896 19.9487824,7.77019386 C19.2810616,6.94285861 18.5255304,6.11497798 17.7023834,5.34633624 C15.4436894,3.23720321 13.1394946,2 11,2 C8.86213586,2 6.55814379,3.23725678 4.29886677,5.34645279 C3.475474,6.11514858 2.71960686,6.94308682 2.05150078,7.77048175 C1.98832503,7.84871976 1.92723256,7.92536306 1.86826853,8.00026341 C1.92714262,8.07508753 1.98814061,8.15165104 2.05121756,8.22980614 Z M11,4.25 C8.72196875,4.25 6.875,5.9290625 6.875,8 C6.875,10.0709375 8.72196875,11.75 11,11.75 C13.2780312,11.75 15.125,10.0709375 15.125,8 C15.125,5.9290625 13.2780312,4.25 11,4.25 L11,4.25 Z M8.40829393,7.94882755 C8.40829393,6.49056495 9.56863443,5.71118164 10.9944912,5.71118164 C12.420348,5.71118164 13.5806885,6.49056495 13.5806885,7.94882755 C13.5806885,9.40709015 12.420348,10.2420468 10.9944912,10.2420468 C9.56863443,10.2420468 8.40829393,9.40709015 8.40829393,7.94882755 Z" id="Shape" fill-rule="nonzero"></path>
                </g>
            </g>
        </g>
    </g>
</svg>
