<?xml version="1.0" encoding="UTF-8"?>
<svg width="23px" height="22px" viewBox="0 0 23 22" version="1.1" xmlns="http://www.w3.org/2000/svg" xmlns:xlink="http://www.w3.org/1999/xlink">

    <g id="Page-1" stroke="none" stroke-width="1" fill="none" fill-rule="evenodd">
        <g id="icons" transform="translate(-710.000000, -212.000000)" fill="#585F73">
            <g id="fa-farm" transform="translate(710.000000, 212.000000)">
                <path d="M21.8370653,13.4263889 L17.65611,11.012614 L21.8370653,8.59873641 C21.932192,8.54363068 22.0018695,8.45312181 22.030192,8.34691243 C22.0585145,8.24060044 22.0439427,8.12741305 21.9889396,8.03228639 L19.0866015,3.00545286 C18.9716697,2.80709273 18.7177933,2.73905715 18.5201515,2.85357857 L14.3391962,5.26735349 L14.3391962,0.439803652 C14.3391962,0.210863433 14.1537659,0.025227907 13.9246204,0.025227907 L8.11984167,0.025227907 C7.89069621,0.025227907 7.70526592,0.210863433 7.70526592,0.439803652 L7.70526592,5.26745611 L3.52420796,2.85368119 C3.3262583,2.73905715 3.07227935,2.80709273 2.95775793,3.00555547 L0.0554198619,8.03228639 C0.000314125473,8.12741305 -0.0142575963,8.24060044 0.0141675229,8.34691243 C0.0425926421,8.45322443 0.112167483,8.5437333 0.207294145,8.59873641 L4.38824949,11.0125113 L0.207294145,13.4263889 C0.112167483,13.4814946 0.0424900243,13.5720035 0.0141675229,13.6782129 C-0.0141549785,13.7845249 0.000416743231,13.8977122 0.0554198619,13.9928389 L2.95775793,19.0196724 C3.07238197,19.2180326 3.3262583,19.2854524 3.52420796,19.1715467 L7.70516331,16.7577718 L7.70516331,21.5854243 C7.70516331,21.8143645 7.8905936,22 8.11973905,22 L13.9244152,22 C14.1535606,22 14.3389909,21.8143645 14.3389909,21.5854243 L14.3389909,16.7577718 L18.5199463,19.1715467 C18.7175881,19.285555 18.9714644,19.2181352 19.0863963,19.0196724 L21.9887344,13.9928389 C22.0438401,13.8977122 22.0584118,13.7845249 22.0299867,13.6782129 C22.0015616,13.5719009 21.932192,13.4814946 21.8370653,13.4263889 L21.8370653,13.4263889 Z M14.4022761,15.1442041 C14.2743117,15.0701141 13.7709201,14.8895791 13.4172673,15.1442041 C13.0636145,15.3988291 13.0636145,15.8914727 13.0636145,16.0396527 L13.0636145,20.7143941 L9.24025897,20.7143941 L9.24025897,16.0396527 C9.24025897,15.8914727 9.10660817,15.3969135 8.70767568,15.1442041 C8.30874319,14.8914947 7.79213476,15.0701141 7.66427303,15.1442041 L3.79104318,17.4418011 L1.8810487,14.1038976 L5.62958331,11.9171752 C5.75795812,11.8430852 6.28479204,11.4928702 6.28479204,11.012614 C6.28479204,10.5323577 5.75795812,10.1544084 5.62958331,10.0803184 L1.8810487,7.89519514 L3.79104318,4.69043749 L7.41131342,6.77599594 C7.66427303,6.87808563 8.16187881,7.16028407 8.60339776,6.87808563 C8.98214475,6.63600811 9.00308771,6.13375523 9.00308771,5.98557519 L9.00308771,1.37071323 L13.0636145,1.37071323 L13.0636145,5.98557519 C13.0636145,6.13375523 12.9971257,6.74012746 13.4172673,6.98370263 C13.8374088,7.2272778 14.3833558,6.95217565 14.5112176,6.87808563 L18.3073043,4.69043749 L20.2667866,7.89519514 L16.3615531,10.1886655 C16.2331783,10.2627555 15.6730874,10.5594582 15.6730874,11.0218496 C15.6730874,11.4842409 16.2333836,11.7320054 16.3617584,11.8060954 L20.2667866,14.1038976 L18.3073043,17.4418011 L14.4022761,15.1442041 Z M18.3004029,6.86942194 C17.9488542,6.23323914 17.4034558,6.46105957 17.2046852,6.57383648 L11.0314153,9.92066123 L4.86395275,6.48613867 C4.66518215,6.37336175 4.07306528,6.37370714 3.79419528,6.86942194 C3.51532529,7.36513674 3.8877053,7.84166896 4.08729684,7.95444587 C4.08729684,7.95444587 9.72764674,11.0218496 9.72764674,11.0218496 L4.08729684,14.1003627 C3.8877053,14.2131397 3.50859225,14.5711704 3.79419528,15.1556007 C4.07979832,15.740031 4.7995088,15.5019524 4.86395275,15.4653178 L11.0314153,12.0525093 L17.2046852,15.590384 C17.2690265,15.6270185 18.0701022,15.9783753 18.4313872,15.3732435 C18.7926721,14.7681118 18.2434657,14.3301262 18.0438742,14.2173493 L12.3940139,11.0218496 L18.0438742,7.86944127 C18.0438742,7.86944127 18.6519516,7.50560474 18.3004029,6.86942194 Z" id="Combined-Shape"></path>
            </g>
        </g>
    </g>
</svg>
