<?xml version="1.0" encoding="UTF-8"?>
<svg width="16px" height="22px" viewBox="0 0 16 22" version="1.1" xmlns="http://www.w3.org/2000/svg" xmlns:xlink="http://www.w3.org/1999/xlink">

    <g id="Page-1" stroke="none" stroke-width="1" fill="none" fill-rule="evenodd">
        <g id="icons" transform="translate(-446.000000, -271.000000)" fill="#585F73">
            <g id="fa-female" transform="translate(443.000000, 271.000000)">
                <path d="M11.2393508,17.9251307 L11.2394833,15.1310546 C15.1230704,14.853996 18.0882852,11.4801822 18.0882852,7.51861728 C18.0882852,3.37588856 14.626439,0.00562952742 10.4929134,0.00562952742 C6.35938787,0.00562952742 3.00866699,3.37602137 3.00866699,7.51861728 C3.00866699,11.4801822 5.98895408,14.853996 9.87240868,15.1310546 L9.87227623,17.9251307 L7.99826819,17.9251307 C7.70260933,17.9251307 7.46206686,18.2764282 7.46206686,18.5727454 C7.46206686,18.8690625 7.70274185,19.2302639 7.99840071,19.2302639 L9.87240875,19.2302639 L9.87240868,21.4711567 C9.87240868,21.7674738 10.1972546,22 10.4929135,22 C10.9735886,22 11.2393507,21.7674738 11.2393507,21.4711567 L11.2393508,19.2302639 L13.1429115,19.2302639 C13.4385703,19.2302639 13.6773636,18.8690625 13.6773636,18.5727454 C13.6773636,18.2764282 13.4387029,17.9251307 13.143044,17.9251307 L11.2393508,17.9251307 Z M10.5689394,1.34616213 C14.1705316,1.34616213 16.7855018,3.97854418 16.7855018,7.58013639 C16.7855018,11.1817286 14.1705318,13.7500474 10.5689396,13.7500474 C6.96734739,13.7500474 4.2862707,11.1817286 4.2862707,7.58013639 C4.2862707,3.97854418 6.96734715,1.34616213 10.5689394,1.34616213 Z M10.3704678,2.3975767 C10.0832584,2.3975767 9.85037537,2.6309782 9.85037537,2.91882714 C9.85037537,3.20667609 10.0832584,3.44007759 10.3704678,3.44007759 C12.6649253,3.44020661 14.5317226,5.31116025 14.5317226,7.61059724 C14.5317226,7.89844619 14.7646056,8.13184769 15.051815,8.13184769 C15.3390245,8.13184769 15.5719075,7.89844619 15.5719075,7.61059724 C15.5719075,4.73597845 13.2387006,2.3975767 10.3704678,2.3975767 Z" id="Combined-Shape"></path>
            </g>
        </g>
    </g>
</svg>
