<?xml version="1.0" encoding="UTF-8"?>
<svg width="22px" height="22px" viewBox="0 0 22 22" version="1.1" xmlns="http://www.w3.org/2000/svg" xmlns:xlink="http://www.w3.org/1999/xlink">

    <g id="Page-1" stroke="none" stroke-width="1" fill="none" fill-rule="evenodd">
        <g id="icons" transform="translate(-299.000000, -271.000000)" fill="#585F73">
            <g id="fa-fileplus" transform="translate(299.000000, 271.000000)">
                <path d="M10.5299229,0 C12.8206004,0 14.8249209,1.64781712 15.2067302,3.75335409 C17.4019554,4.1195642 19.2766882,6.04199635 19.2766882,8.23908584 L19.2766882,8.23908584 L19.2764946,13.0030945 C19.2737921,13.0956337 19.2332545,13.7364873 18.6251907,13.7425308 C17.9736938,13.749006 17.9157867,13.0183563 17.9157867,13.0183563 L17.9157867,13.0183563 L17.9157873,9.59378052 C17.9157873,9.4227151 17.9368683,8.39973814 17.9157873,8.23908603 C17.7450842,6.93820849 16.0887762,5.21516418 14.9744422,5.21516418 L14.9744422,5.21516418 L14.0200082,5.21516418 L14.0200078,4.4939231 C14.0200078,2.93765851 12.1524789,1.36509688 10.5299231,1.36509688 L10.5299231,1.36509688 L1.37651076,1.36509705 L1.37651024,20.6337282 L13.0733366,20.6339292 C13.1591247,20.6367455 13.802536,20.6789907 13.8025357,21.3126678 C13.8025355,21.9916077 13.0639267,22 13.0639267,22 L13.0639267,22 L1.93125527e-07,22 L0.000918226865,1.33510461 C0.0105594688,1.13731133 0.1214336,0 1.39648437,0 L1.39648437,0 Z M18.7535934,15.125 C19.0277512,15.125 19.25,15.3537436 19.25,15.619433 L19.249,17.875 L21.505567,17.875 C21.7786348,17.875 22,18.0898438 22,18.3714066 L22,18.7535934 C22,19.0277512 21.7712564,19.25 21.505567,19.25 L19.249,19.25 L19.25,21.505567 C19.25,21.7786348 19.0351562,22 18.7535934,22 L18.3714066,22 C18.0972488,22 17.875,21.7712564 17.875,21.505567 L17.874,19.25 L15.619433,19.25 C15.3463652,19.25 15.125,19.0351562 15.125,18.7535934 L15.125,18.3714066 C15.125,18.0972488 15.3537436,17.875 15.619433,17.875 L17.874,17.875 L17.875,15.619433 C17.875,15.3463652 18.0898438,15.125 18.3714066,15.125 L18.7535934,15.125 Z M13.7458038,9.6805572 L13.7458038,10.9999999 L4.14816284,10.9999999 L4.14816284,9.6805572 L13.7458038,9.6805572 Z M8.27702331,6.91108713 L8.27702331,8.24647527 L4.17367554,8.24647522 L4.17367554,6.91108709 L8.27702331,6.91108713 Z" id="Combined-Shape"></path>
            </g>
        </g>
    </g>
</svg>
