<?xml version="1.0" encoding="UTF-8"?>
<svg width="20px" height="22px" viewBox="0 0 20 22" version="1.1" xmlns="http://www.w3.org/2000/svg" xmlns:xlink="http://www.w3.org/1999/xlink">

    <g id="Page-1" stroke="none" stroke-width="1" fill="none" fill-rule="evenodd">
        <g id="icons" transform="translate(-300.000000, -153.000000)" fill="#585F73">
            <g id="fa-file-o" transform="translate(299.000000, 153.000000)">
                <path d="M19.7194389,22 C20.1573146,22 20.5,21.6589147 20.5,21.2230835 L20.5,0.776916451 C20.5,0.341085271 20.1573146,0 19.7194389,0 L6.64028056,0 C6.58316633,0 6.50701403,0 6.4498998,0.0189491817 C6.35470942,0.0568475452 6.31663327,0.075796727 6.25951904,0.0947459087 C6.24048096,0.11369509 6.22144289,0.11369509 6.20240481,0.132644272 C6.14529058,0.170542636 6.08817635,0.208440999 6.0501002,0.265288544 L1.69038076,5.38156761 C1.63326653,5.43841516 1.59519038,5.51421189 1.55711423,5.59000861 C1.53807615,5.6089578 1.53807615,5.64685616 1.53807615,5.66580534 C1.51903808,5.72265289 1.51903808,5.77950043 1.5,5.83634798 L1.5,21.2041344 C1.5,21.6589147 1.86172345,22 2.28056112,22 L19.7194389,22 Z M5.61102299,5.54229738 L3.21382359,5.54229738 L5.61102292,2.95213675 L5.61102299,5.54229738 Z M6.19096438,6.91259729 C6.61115668,6.91259729 6.94000284,6.57413575 6.94000284,6.14165712 L6.94000244,1.40873738 L19.1687014,1.40873738 L19.1687018,20.66008 L2.8882885,20.6600805 L2.8882885,6.91259785 L6.19096438,6.91259729 Z M6.21217274,8.25 C5.85273089,8.25 5.57142857,8.55182927 5.57142857,8.9375 C5.57142857,9.32317073 5.85273089,9.625 6.21217274,9.625 L15.843657,9.625 C16.2030988,9.625 16.4844012,9.32317073 16.4844012,8.9375 C16.4844012,8.55182927 16.2030988,8.25 15.843657,8.25 L6.21217274,8.25 Z M6.21217274,12.375 C5.85273089,12.375 5.57142857,12.6768293 5.57142857,13.0625 C5.57142857,13.4481707 5.85273089,13.75 6.21217274,13.75 L15.7651309,13.75 C16.1245728,13.75 16.4058751,13.4481707 16.4058751,13.0625 C16.4058751,12.6768293 16.1245728,12.375 15.7651309,12.375 L6.21217274,12.375 Z M6.21217274,16.5 C5.85273089,16.5 5.57142857,16.8018293 5.57142857,17.1875 C5.57142857,17.5731707 5.85273089,17.875 6.21217274,17.875 L13.0958514,17.875 C13.4552932,17.875 13.7365955,17.5731707 13.7365955,17.1875 C13.7365955,16.8018293 13.4552932,16.5 13.0958514,16.5 L6.21217274,16.5 Z" id="Combined-Shape"></path>
            </g>
        </g>
    </g>
</svg>
