<?xml version="1.0" encoding="UTF-8"?>
<svg width="22px" height="22px" viewBox="0 0 22 22" version="1.1" xmlns="http://www.w3.org/2000/svg" xmlns:xlink="http://www.w3.org/1999/xlink">

    <g id="Page-1" stroke="none" stroke-width="1" fill="none" fill-rule="evenodd">
        <g id="icons" transform="translate(-586.000000, -980.000000)" fill="#585F73">
            <g id="fa-filemin" transform="translate(586.000000, 980.000000)">
                <g id="Combined-Shape">
                    <path d="M10.5299229,0 C12.8206004,0 14.8249209,1.64781712 15.2067302,3.75335409 C17.4019554,4.1195642 19.2766882,6.04199635 19.2766882,8.23908584 L19.2766882,8.23908584 L19.2764946,13.0030945 C19.2737921,13.0956337 19.2332545,13.7364873 18.6251907,13.7425308 C17.9736938,13.749006 17.9157867,13.0183563 17.9157867,13.0183563 L17.9157867,13.0183563 L17.9157873,9.59378052 C17.9157873,9.4227151 17.9368683,8.39973814 17.9157873,8.23908603 C17.7450842,6.93820849 16.0887762,5.21516418 14.9744422,5.21516418 L14.9744422,5.21516418 L14.0200082,5.21516418 L14.0200078,4.4939231 C14.0200078,2.93765851 12.1524789,1.36509688 10.5299231,1.36509688 L10.5299231,1.36509688 L1.37651076,1.36509705 L1.37651024,20.6337282 L13.0733366,20.6339292 C13.1591247,20.6367455 13.802536,20.6789907 13.8025357,21.3126678 C13.8025355,21.9916077 13.0639267,22 13.0639267,22 L13.0639267,22 L1.93125527e-07,22 L0.000918226865,1.33510461 C0.0105594688,1.13731133 0.1214336,0 1.39648437,0 L1.39648437,0 Z M20.8580561,15.996697 L21.128303,16.2669439 C21.3221618,16.4608027 21.3175694,16.7797025 21.1296985,16.9675733 L19.534,18.562 L21.1296985,20.1574267 C21.3227866,20.3505148 21.327398,20.6589611 21.128303,20.8580561 L20.8580561,21.128303 C20.6641973,21.3221618 20.3452975,21.3175694 20.1574267,21.1296985 L18.562,19.534 L16.9675733,21.1296985 C16.7744852,21.3227866 16.4660389,21.327398 16.2669439,21.128303 L15.996697,20.8580561 C15.8028382,20.6641973 15.8074306,20.3452975 15.9953015,20.1574267 L17.59,18.562 L15.9953015,16.9675733 C15.8022134,16.7744852 15.797602,16.4660389 15.996697,16.2669439 L16.2669439,15.996697 C16.4608027,15.8028382 16.7797025,15.8074306 16.9675733,15.9953015 L18.562,17.59 L20.1574267,15.9953015 C20.3505148,15.8022134 20.6589611,15.797602 20.8580561,15.996697 Z M13.7458038,9.6805572 L13.7458038,10.9999999 L4.14816284,10.9999999 L4.14816284,9.6805572 L13.7458038,9.6805572 Z M8.27702331,6.91108713 L8.27702331,8.24647527 L4.17367554,8.24647522 L4.17367554,6.91108709 L8.27702331,6.91108713 Z"></path>
                </g>
            </g>
        </g>
    </g>
</svg>
