<?xml version="1.0" encoding="UTF-8"?>
<svg width="22px" height="22px" viewBox="0 0 22 22" version="1.1" xmlns="http://www.w3.org/2000/svg" xmlns:xlink="http://www.w3.org/1999/xlink">

    <g id="Page-1" stroke="none" stroke-width="1" fill="none" fill-rule="evenodd">
        <g id="icons" transform="translate(-586.000000, -35.000000)" fill="#585F73">
            <g id="fa-file-text-o" transform="translate(586.000000, 35.000000)">
                <path d="M15.0179548,-5.83407001e-07 L15.0179548,1.02197187 L15.0200005,4.58003349e-13 L17.5970674,4.58003349e-13 C17.8196233,4.58003349e-13 18.0000537,0.178014458 18,0.397590361 L18,0.397590361 L18,11 C18,11.004453 17.9994627,11.0088 17.9925313,11.0754892 C17.9923701,11.0763904 17.9922627,11.0772916 17.9741551,11.1391036 C17.9684596,11.154053 17.9620656,11.1686313 17.9247759,11.2307614 C17.9220893,11.2344193 17.9192953,11.2380241 17.8820056,11.2812289 L17.8820056,11.2812289 L7.16041015,21.8861191 C7.15063101,21.8958733 7.14031456,21.9050444 7.09792041,21.9367986 C7.09324577,21.9398733 7.0883562,21.9425239 7.0482725,21.9642588 C7.04171725,21.9673335 7.03521574,21.9705673 6.99126337,21.9864179 C6.9856753,21.9880612 6.98003349,21.9892275 6.93323335,21.9988227 C6.92689303,21.9997239 6.92066018,22.0008902 6.87461228,22.0034877 C6.87461228,22.0034877 6.63487084,22.0020812 6.43508631,22.000909 L6.28015137,22 C4.24954069,21.9880863 0.402986277,22 0.402986277,22 C0.180430389,22 0,21.8219855 0,21.6024096 L0,21.6024096 L0,0.397590361 C0,0.178014458 0.180430389,4.58003349e-13 0.402986277,4.58003349e-13 L0.402986277,4.58003349e-13 L15.0179548,-5.83407001e-07 Z M19.146,11.1462467 C19.341,10.9512511 19.658,10.9512511 19.853,11.1462467 L19.853,11.1462467 L21.853,13.1462012 C22.048,13.3411968 22.048,13.6581896 21.853,13.8531852 L21.853,13.8531852 L19.854,15.8526397 L19.854,15.8526397 C19.852,15.8551397 19.851,15.8551397 19.85,15.8561396 L13.853,21.8530033 C13.76,21.9470012 13.633,22 13.5,22 L13.5,22 L11.5,22 C11.224,22 11,21.7760051 11,21.5000114 L11,21.5000114 L11,19.5000568 C11,19.3670598 11.053,19.2400627 11.146,19.1460649 L11.146,19.1460649 Z M17.0148926,1.02197266 L0.989257812,1.0219719 L1.03009137,21.0078119 L6.64693955,21.0113002 L16.2265625,11.6062009 L7.48168944,11.6062014 C7.20430278,11.6062014 7.01336669,11.7545168 7.01336669,12.0891116 L7.01336669,12.0891116 L7.01336669,18.5745852 C7.01336669,18.7942141 6.80450439,18.9663069 6.52205848,18.9663069 C6.23614501,18.9663069 6.02806288,18.7942143 6.02806288,18.5745854 L6.02806288,18.5745854 L6.02806288,11.8482993 C6.02806288,11.1613692 6.59450039,10.6025162 7.29075322,10.6025162 L7.29075322,10.6025162 L17.0148926,10.6025159 L17.0148926,1.02197266 Z M17.5,14.2071771 L12,19.7070521 L12,21.0000227 L13.293,21.0000227 L18.793,15.5001477 L17.5,14.2071771 Z M19.5,12.2072226 L18.207,13.5001932 L19.5,14.7931638 L20.793,13.5001932 L19.5,12.2072226 Z M13,8 L13,9 L4,9 L4,8 L13,8 Z M14,6 L14,7 L4,7 L4,6 L14,6 Z M11,4 L11,5 L4,5 L4,4 L11,4 Z" id="Combined-Shape"></path>
            </g>
        </g>
    </g>
</svg>
