<?xml version="1.0" encoding="UTF-8"?>
<svg width="22px" height="23px" viewBox="0 0 22 23" version="1.1" xmlns="http://www.w3.org/2000/svg" xmlns:xlink="http://www.w3.org/1999/xlink">

    <g id="Page-1" stroke="none" stroke-width="1" fill="none" fill-rule="evenodd">
        <g id="icons" transform="translate(-443.000000, -803.000000)" fill="#585F73">
            <g id="fa-first-aid-kit-o" transform="translate(443.000000, 803.000000)">
                <path d="M11.0000859,3.04632248 L9.65698253,1.23352053 C8.79518869,0.197538709 8.52117578,0.0204545455 7.56258594,0.0204545455 L1.71883594,0.0204545455 C0.782976563,0.0204545455 0.0215703125,0.745363636 0.0215703125,1.63636364 L0.0215703125,20.3962404 C0.0215703125,21.2872404 0.782976563,22.0121495 1.71883594,22.0121495 L20.2813359,22.0121495 C21.2171953,22.0121495 21.9786016,21.2872404 21.9786016,20.3962404 L21.9786016,4.66223158 C21.9786016,3.77123158 21.2171953,3.04632249 20.2813359,3.04632249 L11.0000859,3.04632248 Z M7.55694308,1.03061524 C8.22287277,1.03061524 9.61450198,2.98950199 9.61450198,2.98950199 L2.1236296,2.98950193 C1.72616866,2.98950193 1.3930664,2.98950199 1.03464034,3.42016593 L1.03464034,2.03288799 C1.03464034,1.48024709 1.50690987,1.03061527 2.08737471,1.03061527 L7.55694308,1.03061524 Z M19.94104,4.01298607 C20.5215049,4.01298607 20.9937744,4.46261789 20.9937744,5.0152588 L20.9937744,20.0085914 C20.9937744,20.5612323 20.5215049,21.0108641 19.94104,21.0108641 L2.10864258,21.010864 C1.52817774,21.010864 1.05590821,20.5612321 1.05590821,20.0085912 L1.05590821,5.01525875 C1.05590821,4.46261784 1.52817774,4.01298602 2.10864258,4.01298602 L19.94104,4.01298607 Z M17.875,3.29318182 C18.0530195,3.29318182 18.1972656,3.44816643 18.1972656,3.63933566 C18.1972656,3.8305049 18.0530195,3.98548951 17.875,3.98548951 L17.875,3.98548951 L17.1875859,3.98548951 C17.0096094,3.98548951 16.8653203,3.8305049 16.8653203,3.63933566 C16.8653203,3.44816643 17.0096094,3.29318182 17.1875859,3.29318182 L17.1875859,3.29318182 Z M15.0162353,5.00488279 C15.1942978,5.00488279 15.6230469,5.15527343 15.6230469,5.54296873 C15.6230469,5.93066403 15.1942978,6.00830073 15.0162353,6.00830073 L15.0162353,6.00830073 L3.02575682,6.00830076 L3.02575682,19.0001218 L19.0395508,19.0001221 L19.0395508,6.00830097 L18.0119629,6.00830076 C17.8339863,6.00830076 17.4473877,5.9398193 17.4473877,5.54296873 C17.4473877,5.14611816 17.8339855,5.00488279 18.0119621,5.00488279 L18.0119621,5.00488279 L19.7080078,5.00488279 C19.8859844,5.00488279 20.0302734,5.14225552 20.0302734,5.31170098 L20.0302734,5.31170098 L20.0302734,19.7128349 C20.0302734,19.8822804 19.8859844,20.0196531 19.7080078,20.0196531 L19.7080078,20.0196531 L2.33972167,20.0196531 C2.1617451,20.0196531 2.01745604,19.8822804 2.01745604,19.7128349 L2.01745604,19.7128349 L2.01745604,5.31170099 C2.01745604,5.14225554 2.1617451,5.00488281 2.33972167,5.00488281 L2.33972167,5.00488281 Z M12.0252686,8.00000001 C12.5820576,8.00000001 13.0350342,8.43126365 13.0350342,8.96136365 L13.0350342,8.96136365 L13.0350342,10.1469727 L14.3847656,10.1469727 C14.9415547,10.1469727 15.3945313,10.5782363 15.3945313,11.1083363 L15.3945313,11.1083363 L15.3945313,13.3053601 C15.3945313,13.8354601 14.9415547,14.2667237 14.3847656,14.2667236 L14.3847656,14.2667236 L13.0350342,14.2667236 L13.0350342,15.5068181 C13.0350342,16.0369181 12.5820576,16.4681817 12.0252686,16.4681817 L12.0252686,16.4681817 L10.0163574,16.4681817 C9.45956836,16.4681817 9.0065918,16.0369181 9.0065918,15.5068181 L9.0065918,15.5068181 L9.0065918,14.2667236 L7.50976563,14.2667236 C6.95297656,14.2667237 6.5,13.8354601 6.5,13.3053601 L6.5,13.3053601 L6.5,11.1083363 C6.5,10.5782363 6.95297656,10.1469726 7.50976563,10.1469727 L7.50976563,10.1469727 L9.0065918,10.1469727 L9.0065918,8.96136366 C9.0065918,8.43126366 9.45956836,8.00000003 10.0163574,8.00000003 L10.0163574,8.00000003 Z M11.6347656,8.98650125 L10.3945313,8.98650119 C10.1931367,8.98650119 10.0292969,9.14248756 10.0292969,9.33422846 L10.0292969,9.33422846 L10.0292969,10.9962847 C10.0292969,11.1657301 9.88500781,11.3031029 9.70703125,11.3031029 L9.70703125,11.3031029 L7.94091797,11.3031029 C7.73952344,11.3031029 7.57568359,11.4590893 7.57568359,11.6508302 L7.57568359,11.6508302 L7.57568359,12.8424029 C7.57568359,13.0341438 7.73952344,13.1901301 7.94091797,13.1901301 L7.94091797,13.1901301 L9.70703125,13.19013 C9.88500781,13.19013 10.0292969,13.3275028 10.0292969,13.4969482 L10.0292969,13.4969482 L10.0292969,15.2178244 C10.0292969,15.4095653 10.1931367,15.5655517 10.3945313,15.5655517 L10.3945313,15.5655517 L11.6347656,15.5655518 C11.8361602,15.5655518 12,15.4096063 12,15.2178245 L12,15.2178245 L12,13.4969483 C12,13.3275028 12.1442891,13.1901301 12.3222656,13.1901301 L12.3222656,13.1901301 L14.0565186,13.1901301 C14.2579131,13.1901301 14.4217529,13.0341847 14.4217529,12.8424029 L14.4217529,12.8424029 L14.4217529,11.6508302 C14.4217529,11.4590893 14.2579561,11.3031029 14.0565186,11.3031029 L14.0565186,11.3031029 L12.3222656,11.3031029 C12.1442891,11.3031029 12,11.1657302 12,10.9962847 L12,10.9962847 L12,9.33422852 C12,9.14248761 11.8362031,8.98650125 11.6347656,8.98650125 L11.6347656,8.98650125 Z" id="Combined-Shape"></path>
            </g>
        </g>
    </g>
</svg>
