<?xml version="1.0" encoding="UTF-8"?>
<svg width="22px" height="22px" viewBox="0 0 22 22" version="1.1" xmlns="http://www.w3.org/2000/svg" xmlns:xlink="http://www.w3.org/1999/xlink">

    <g id="Page-1" stroke="none" stroke-width="1" fill="none" fill-rule="evenodd">
        <g id="icons" transform="translate(-165.000000, -212.000000)" fill="#585F73">
            <g id="fa-first-aid-o" transform="translate(165.000000, 212.000000)">
                <path d="M16.4776764,4.14492688 L16.4776764,2.43365619 C16.4776764,1.09172509 15.911026,0 13.0665362,0 L8.9334638,0 C6.10475159,0 5.51409912,1.09172509 5.51409912,2.43365619 L5.51409912,4.14492688 L1.36325073,4.14492672 C0.0457047442,4.14492672 -2.52242671e-13,5.50889587 -2.52242671e-13,5.50889587 L-2.52242671e-13,20.6525269 C-2.52242671e-13,20.6525269 0.0457047227,22 1.36325071,22 L20.6926417,22 C20.6926417,22 21.9999995,21.9944579 21.9999995,20.6525269 L22,5.50889587 C22,4.16696478 20.6926422,4.14492688 20.6926422,4.14492688 L16.4776764,4.14492688 Z M8.26158145,1.41679382 L13.751175,1.41679382 C14.5502931,1.41679382 15.100998,1.79282127 15.100998,2.77207184 L15.1009979,4.12734985 L6.90538036,4.12734985 L6.90538047,2.77207184 C6.90538047,1.79282127 7.39717101,1.41679382 8.26158145,1.41679382 Z M1.38037109,20.6523609 L1.38037097,9.66159072 L2.76544182,9.66159126 L2.76544194,10.8081124 C2.76544194,11.3763163 3.00881962,11.8385795 3.48818974,11.8385795 C3.96755986,11.8385795 4.14732349,11.3763164 4.14732349,10.8081125 L4.14732337,9.66159141 L13.0153966,9.66159072 C13.1937214,9.66159072 13.7018279,9.68994632 13.7018279,9.03220141 C13.7018279,8.37445649 13.1937212,8.29901081 13.0153964,8.29901081 L4.14732349,8.29901138 L4.1386381,7.64042792 C4.1386381,7.64042792 4.13863808,6.97126743 3.48818974,6.97126743 C2.8377414,6.97126743 2.79805042,7.64042792 2.79805042,7.64042792 L2.76544192,8.29901192 L1.38037107,8.29901138 L1.38037107,5.49781912 L20.6065371,5.49781912 L20.6065367,8.29901138 L17.8931273,8.29901138 L17.8931273,7.64042792 C17.8931273,7.64042792 17.8931273,6.97634332 17.2262725,6.97126743 C16.5594176,6.96619154 16.5129984,7.64042792 16.5129984,7.64042792 L16.5129984,8.29901138 C16.5129984,8.29901138 15.5600756,8.29901138 15.5600756,9.03220141 C15.5600756,9.76539144 16.5129984,9.66159072 16.5129984,9.66159072 L16.5129984,10.9999998 C16.516281,11.5682037 16.7912689,11.8385795 17.2262725,11.8385794 C17.661276,11.8385792 17.9070814,11.5682037 17.8931273,10.9999998 L17.8931273,9.66159072 L20.6065368,9.66159072 L20.6065369,20.6523609 L1.38037109,20.6523609 Z M12.1317804,10.9999998 C12.6482225,10.9999998 13.0683746,11.420152 13.0683746,11.936594 L13.0683746,11.936594 L13.0683746,13.0766828 L14.1884058,13.076683 C14.7048478,13.076683 15.125,13.4968352 15.125,14.0132772 L15.125,14.0132772 L15.125,16.3468302 C15.125,16.8632722 14.7048478,17.2834244 14.1884058,17.2834244 L14.1884058,17.2834244 L13.0683746,17.2834242 L13.0683746,18.3134056 C13.0683746,18.8298476 12.6482225,19.2499998 12.1317804,19.2499998 L12.1317804,19.2499998 L9.89448757,19.25 C9.37804555,19.25 8.95789337,18.8298478 8.95789337,18.3134058 L8.95789337,18.3134058 L8.95789337,17.2834244 L7.8115942,17.2834244 C7.29515217,17.2834244 6.875,16.8632722 6.875,16.3468302 L6.875,16.3468302 L6.875,14.0132772 C6.875,13.4968352 7.29515217,13.076683 7.8115942,13.076683 L7.8115942,13.076683 L8.95789337,13.076683 L8.95789337,11.9365942 C8.95789337,11.4201522 9.37804555,11 9.89448757,11 L9.89448757,11 Z M11.4382779,12.3542173 L10.648529,12.3542173 C10.4617282,12.3542173 10.3097609,12.5061846 10.3097609,12.6929854 L10.3097609,12.6929854 L10.3097609,14.136687 C10.3097609,14.3017667 10.1759276,14.4356001 10.0108479,14.4356001 L10.0108479,14.4356001 L8.58938599,14.4356002 C8.40258526,14.4356002 8.25061787,14.5875676 8.25061787,14.7743684 L8.25061787,14.7743684 L8.25061787,15.5193559 C8.25061787,15.7061566 8.40258526,15.858124 8.58938599,15.858124 L8.58938599,15.858124 L10.0108479,15.8581238 C10.1759276,15.8581238 10.3097609,15.9919571 10.3097609,16.1570368 L10.3097609,16.1570368 L10.3097609,17.5429151 C10.3097609,17.7297158 10.4617282,17.8816832 10.648529,17.8816832 L10.648529,17.8816832 L11.4382779,17.8816833 C11.6250786,17.8816833 11.777046,17.7297159 11.777046,17.5429151 L11.777046,17.5429151 L11.7770461,16.1570369 C11.7770461,15.9919572 11.9108795,15.8581239 12.0759592,15.8581239 L12.0759592,15.8581239 L13.4415816,15.858124 C13.6283824,15.858124 13.7803498,15.7061566 13.7803498,15.5193559 L13.7803498,15.5193559 L13.7803498,14.7743684 C13.7803498,14.5875676 13.6283824,14.4356002 13.4415816,14.4356002 L13.4415816,14.4356002 L12.0759592,14.4356001 C11.9108795,14.4356001 11.7770461,14.3017668 11.7770461,14.1366871 L11.7770461,14.1366871 L11.777046,12.6929854 C11.777046,12.5061847 11.6250786,12.3542173 11.4382779,12.3542173 L11.4382779,12.3542173 Z" id="Combined-Shape"></path>
            </g>
        </g>
    </g>
</svg>
