<?xml version="1.0" encoding="UTF-8"?>
<svg width="22px" height="22px" viewBox="0 0 22 22" version="1.1" xmlns="http://www.w3.org/2000/svg" xmlns:xlink="http://www.w3.org/1999/xlink">

    <g id="Page-1" stroke="none" stroke-width="1" fill="none" fill-rule="evenodd">
        <g id="icons" transform="translate(-229.000000, -153.000000)" fill="#585F73">
            <g id="fa-flask-o" transform="translate(229.000000, 153.000000)">
                <path d="M21.311006,0.000101770335 C20.7499811,-0.0188792837 20.6511195,0.691468752 20.6511195,0.938464459 L20.6600993,6.86969903 L12.4129909,6.86969903 L12.3950322,4.13967442 C12.8215608,4.13967442 13.7331831,4.22285259 13.7331831,3.48189702 C13.7331831,2.74094145 12.9876819,2.7625934 12.4040112,2.7625934 L6.70581064,2.7625934 C6.23959814,2.7625934 5.47709442,2.74094145 5.47709468,3.48189702 C5.47709496,4.312986 6.89136428,4.14416417 6.89136428,4.14416417 L6.89136428,8.25929525 L1.69963857,17.7385604 C1.39882364,18.3042721 1.69963857,19.2510198 4.07583678,19.2510198 L15.2194586,19.2510198 C17.6418107,19.2510198 17.9471154,18.3087618 17.6418107,17.7385604 L12.4040112,8.25929525 L20.6600993,8.25929525 L20.6600993,20.6409517 C20.6600993,20.6409517 9.27830074,20.6409519 3.58740146,20.640952 C2.70439903,20.640952 0.938394187,20.640952 0.938394187,20.640952 C0.255156752,20.6409517 0.00635596659,20.8457118 3.09836544e-05,21.3057894 C-0.00648881778,21.7800379 0.267157735,22 0.938394149,22 L21.0840149,21.9999998 C21.5913595,21.9999998 21.999929,21.5914303 21.999929,21.0840857 L21.999929,0.916015893 C21.9999286,0.590177236 21.8720309,0.0190828244 21.311006,0.000101770335 Z M8.3475937,4.13617466 L10.9999799,4.13617466 L10.99998,6.89135105 L8.28473685,6.89135105 L8.28473685,4.13617466 L8.3475937,4.13617466 Z M3.10501232,17.8946569 L8.00081003,8.77461253 C8.08611576,8.61747041 8.14448284,8.44685895 8.18040104,8.2762475 L10.9999798,8.2762475 C11.035898,8.45134873 11.0942651,8.61747041 11.1795708,8.77461253 L16.0882287,17.8946569 L3.10501232,17.8946569 Z" id="Shape"></path>
            </g>
        </g>
    </g>
</svg>
