<?xml version="1.0" encoding="UTF-8"?>
<svg width="22px" height="22px" viewBox="0 0 22 22" version="1.1" xmlns="http://www.w3.org/2000/svg" xmlns:xlink="http://www.w3.org/1999/xlink">

    <g id="Page-1" stroke="none" stroke-width="1" fill="none" fill-rule="evenodd">
        <g id="icons" transform="translate(-650.000000, -94.000000)" fill="#585F73">
            <g id="fa-flask" transform="translate(650.000000, 94.000000)">
                <path d="M14.359346,0 C14.6076403,0 14.8089373,0.159559395 14.8089373,0.35637149 C14.8089373,0.553183585 14.6076403,0.712742981 14.3570082,0.712742981 C14.0760436,0.712742981 13.8474714,0.893922246 13.8474714,1.11663067 L13.8474714,1.11663067 L13.8474714,5.72052268 C13.8474714,6.13514903 13.971079,6.55034557 14.2049864,6.92116199 L14.2049864,6.92116199 L21.6561526,18.733594 C22.1007084,19.4383542 22.0541308,20.2592916 21.5314659,20.9295551 C21.008861,21.5998661 20.1033842,22 19.1093079,22 L19.1093079,22 L2.89063215,22 C1.89655586,22 0.991079019,21.5998661 0.46853406,20.9295551 C-0.0540708447,20.2592441 -0.100708447,19.4383542 0.343907357,18.733594 L0.343907357,18.733594 L7.79501362,6.9212095 C8.02892098,6.55034557 8.15258856,6.13519654 8.15258856,5.72057019 L8.15258856,5.72057019 L8.15258856,1.11663067 C8.15258856,0.893922246 7.92401635,0.712742981 7.64305177,0.712742981 L7.55244578,0.705502514 C7.34757851,0.672271058 7.19346049,0.528582073 7.19346049,0.35637149 C7.19346049,0.159559395 7.39475749,0 7.64305177,0 L7.64305177,0 Z M12.862915,0.991210938 L9.140625,0.993164063 L9.1400544,5.0326502 C9.13099861,6.85077658 9.00722501,6.72096654 8.28222656,8.00976562 C5.06310393,13.2927546 1.49267597,18.6717814 1.24608284,19.0427528 L1.23254395,19.0631104 C1.23254395,19.0631104 0.784057617,19.8684082 1.23254395,20.3879395 C1.68103027,20.9074707 2.45275879,20.9864502 2.99780273,20.9864502 L2.99780273,20.9864502 L18.9816895,20.9864502 C19.7322998,20.9864502 20.1739502,20.8566895 20.6600342,20.3879395 C21.1461182,19.9191895 20.8574219,19.4380492 20.8574219,19.3551025 C17.6488037,14.3117676 17.4088135,13.8736572 13.6943359,8.00976562 C13.0638428,6.93066406 12.862915,7.01171875 12.862915,4.78417969 L12.862915,4.78417969 L12.862915,0.991210938 Z M16.0314941,14.015184 C16.1919942,14.015184 16.3386532,14.0853879 16.4104574,14.1965331 L16.4104574,14.1965331 L19.4498291,19.0280152 C19.588579,19.2429135 19.5746249,19.4833564 19.4114696,19.6876695 C19.2483142,19.8919825 18.9768594,20.0092078 18.666593,20.0092078 L18.666593,20.0092078 L3.33773559,20.0092078 C3.02752572,20.0092078 2.75601441,19.8919825 2.59291555,19.6876695 C2.42981668,19.4834002 2.41580611,19.2429573 2.55455596,19.0280589 L2.55455596,19.0280589 L5.68146137,14.1965331 C5.75320905,14.0853879 5.89992459,14.015184 6.06042472,14.015184 L6.06042472,14.015184 Z" id="Combined-Shape"></path>
            </g>
        </g>
    </g>
</svg>
