<?xml version="1.0" encoding="UTF-8"?>
<svg width="22px" height="22px" viewBox="0 0 22 22" version="1.1" xmlns="http://www.w3.org/2000/svg" xmlns:xlink="http://www.w3.org/1999/xlink">

    <g id="Page-1" stroke="none" stroke-width="1" fill="none" fill-rule="evenodd">
        <g id="icons" transform="translate(-514.000000, -153.000000)" fill="#585F73">
            <g id="fa-folder-o" transform="translate(514.000000, 153.000000)">
                <path d="M20.6198802,10.9999996 C20.6247285,8.71801937 20.6344252,4.1540588 20.6344252,4.1540588 C20.6344252,4.1540588 20.6344258,2.75498489 19.291485,2.75498485 C16.875509,2.75498486 12.043557,2.75498487 12.043557,2.75498487 L10.500247,0.531329341 C10.500247,0.531329341 9.943498,-2.16157904e-07 9.62209776,-2.04970773e-07 C7.94911161,-1.46738347e-07 2.661187,3.39418664e-08 1.45449867,3.40069746e-08 C0.015991367,3.40845911e-08 0.00618517503,1.3586087 0.00618517503,1.3586087 L0.00614475775,20.6233598 C0.00614475775,20.6233598 0.00614475775,21.9999995 1.40321933,21.9999999 C2.8002939,22.0000002 15.2814579,21.9999996 20.6344258,21.9999995 C21.9984466,21.9999995 21.9986046,20.6281444 21.9986046,20.6281444 L21.9984472,12.7064297 L20.6198802,10.9999996 Z M16.3543788,11.5022592 L17.8777362,11.5022593 L17.8777362,10.5250449 L15.234626,10.5250451 L13.790076,9.52256078 L17.8777362,9.52256085 L17.8777362,8.53045321 L12.8085732,8.53045332 L11.3284158,7.51978996 L17.8777362,7.51979009 L17.8777362,6.54892359 L10.1552854,6.54892372 L8.9407791,5.5210479 L6.90538366,5.5210479 L6.90538366,4.09798327 L19.2150354,4.09798327 L19.2150354,13.7301909 L16.3543788,11.5022592 Z M9.63921886,1.37264137 L10.6277863,2.80752304 L5.51907905,2.80752304 L5.51907905,5.50543751 L1.40994114,5.50543766 L1.40994112,1.40997217 L9.63921886,1.37264137 Z M1.37946752,6.88721021 L8.28094589,6.88721021 L20.6351548,16.2155948 L20.6351543,20.6225201 L1.37946752,20.6225207 L1.37946752,6.88721021 Z" id="Shape"></path>
            </g>
        </g>
    </g>
</svg>
