<?xml version="1.0" encoding="UTF-8"?>
<svg width="22px" height="22px" viewBox="0 0 22 22" version="1.1" xmlns="http://www.w3.org/2000/svg" xmlns:xlink="http://www.w3.org/1999/xlink">

    <g id="Page-1" stroke="none" stroke-width="1" fill="none" fill-rule="evenodd">
        <g id="icons" transform="translate(-373.000000, -389.000000)" fill="#585F73">
            <g id="fa-folder" transform="translate(373.000000, 389.000000)">
                <path d="M21.2290586,21.9999998 C21.6615372,21.9999998 21.9999988,21.6534998 21.9999988,21.2107498 L21.9999988,4.92814652 C21.9999988,4.48539652 21.6615372,4.13889652 21.2290586,4.13889652 L9.76834116,4.13889668 L7.94441079,0.269499911 C7.78137541,-2.57015294e-07 7.58714583,-8.91685922e-08 7.38030822,-8.91685922e-08 L0.770940207,-1.67846707e-07 C0.338461574,-1.67846707e-07 3.60048635e-08,0.346499832 3.60048635e-08,0.789249832 L-1.21939888e-06,21.2107499 C-1.21939888e-06,21.6534999 0.357263738,21.9999999 0.770938952,21.9999999 L21.2290586,21.9999998 Z M7.02178618,1.38817593 L8.84571799,5.24510266 C9.01084861,5.51460262 9.20298295,5.51460266 9.40982056,5.51460266 L20.6285248,5.5146027 L20.6285246,20.6435471 L1.38515472,20.6435471 L1.38515472,1.38817596 L7.02178618,1.38817593 Z" id="Shape"></path>
            </g>
        </g>
    </g>
</svg>
