<?xml version="1.0" encoding="UTF-8"?>
<svg width="22px" height="22px" viewBox="0 0 22 22" version="1.1" xmlns="http://www.w3.org/2000/svg" xmlns:xlink="http://www.w3.org/1999/xlink">

    <g id="Page-1" stroke="none" stroke-width="1" fill="none" fill-rule="evenodd">
        <g id="icons" transform="translate(-650.000000, -271.000000)" fill="#585F73">
            <g id="fa-funnel" transform="translate(650.000000, 271.000000)">
                <path d="M11.007886,0 C5.54568476,0 0.0157720588,0.981877913 0.0157720588,2.8590455 C0.0157720588,3.28463485 0.302006707,3.66325416 0.805445526,3.99572031 L8.24983187,13.6115075 L8.24983184,21.6482844 L8.64049502,21.6470588 L13.7674558,16.9145219 L13.7674558,13.6115075 L21.2019725,4.00633962 C21.7098082,3.66774695 22,3.28667703 22,2.8590455 C22,0.981877913 16.4700873,0 11.007886,0 Z M20.4882886,2.93495088 C20.4817924,4.22942756 15.6583699,4.90122087 11.0157721,4.90122087 C6.36857097,4.90122087 1.82139377,4.13044425 1.71111298,2.93495088 C1.64438253,2.2115629 5.14033728,1.35294118 11.0157721,1.35294118 C16.8912068,1.35294118 20.4919194,2.21145722 20.4882886,2.93495088 Z M9.64035797,18.993778 L9.64035797,13.5403119 L12.3825532,13.5403119 L12.3825532,16.5767458 L9.64035797,18.993778 Z M8.82193756,12.1824987 L3.53694916,5.4121395 C5.65754779,6.01443281 7.80874118,6.32363753 11.007886,6.32363753 C14.2070309,6.32363753 16.3653432,6.01405802 18.4863815,5.4121395 L13.3549728,12.1824987 L8.82193756,12.1824987 Z" id="Shape"></path>
            </g>
        </g>
    </g>
</svg>
