<?xml version="1.0" encoding="UTF-8"?>
<svg width="22px" height="22px" viewBox="0 0 22 22" version="1.1" xmlns="http://www.w3.org/2000/svg" xmlns:xlink="http://www.w3.org/1999/xlink">

    <g id="Page-1" stroke="none" stroke-width="1" fill="none" fill-rule="evenodd">
        <g id="icons" transform="translate(-586.000000, -271.000000)" fill="#585F73">
            <g id="fa-gallery" transform="translate(586.000000, 271.000000)">
                <path d="M1.39472198,22 L20.5740441,22 C22,22 22,20.8123169 22,20.6504521 L22,1.36937714 C22,1.26111603 22,0 20.5740441,0 L1.39472198,0 C1.29349667,0 0,0 0,1.36937714 L0,20.6504521 C8.26359694e-17,22 1.25809479,22 1.39472198,22 Z M3.09777832,20.6187058 L15.9641026,12.1470085 L20.6249995,16.3777779 L20.6249995,20.6187058 L3.09777832,20.6187058 Z M20.623909,1.38607788 L20.623909,14.2529915 L16.5846154,10.6051282 C16.3213675,10.3606838 15.9264957,10.3230769 15.625641,10.5111111 L12.034188,12.8803419 L9.53333333,10.3606838 C9.27008547,10.0974359 8.87521368,10.0598291 8.57435897,10.2478632 L1.3926239,14.6478632 L1.3926239,1.38607788 L20.623909,1.38607788 Z M8.87521368,11.8837607 L10.7179487,13.7452991 L1.39363098,19.8355332 L1.39363098,16.6013452 L8.87521368,11.8837607 Z M13.1623932,8.08547009 C13.8477927,8.08547009 14.4034188,7.52984398 14.4034188,6.84444444 C14.4034188,6.15904491 13.8477927,5.6034188 13.1623932,5.6034188 C12.4769936,5.6034188 11.9213675,6.15904491 11.9213675,6.84444444 C11.9213675,7.52984398 12.4769936,8.08547009 13.1623932,8.08547009 Z" id="gallery"></path>
            </g>
        </g>
    </g>
</svg>
