<svg width="22" height="22" viewBox="0 0 22 22" fill="none" xmlns="http://www.w3.org/2000/svg">
<path fill-rule="evenodd" clip-rule="evenodd" d="M11 22C17.0751 22 22 17.0751 22 11C22 4.92487 17.0751 0 11 0C4.92487 0 0 4.92487 0 11C0 17.0751 4.92487 22 11 22ZM17.7246 3.34662C17.9021 3.13508 18.2175 3.10749 18.4291 3.28499L18.7163 3.52603C18.9279 3.70353 18.9555 4.01891 18.778 4.23045L9.91986 14.7871C9.90956 14.8008 9.89847 14.814 9.88658 14.8268L9.69858 15.0508C9.63298 15.129 9.54856 15.1821 9.4575 15.2089C9.2741 15.29 9.05192 15.2554 8.90162 15.1051L4.74737 10.9508C4.55211 10.7556 4.55211 10.439 4.74737 10.2437L5.01253 9.97857C5.2078 9.7833 5.52438 9.7833 5.71964 9.97857L9.22143 13.4804L17.7246 3.34662Z" fill="#585F73"/>
</svg>
