<?xml version="1.0" encoding="UTF-8"?>
<svg width="22px" height="22px" viewBox="0 0 22 22" version="1.1" xmlns="http://www.w3.org/2000/svg" xmlns:xlink="http://www.w3.org/1999/xlink">

    <g id="Page-1" stroke="none" stroke-width="1" fill="none" fill-rule="evenodd">
        <g id="icons" transform="translate(-299.000000, -35.000000)" fill="#585F73">
            <g id="-glyphicon-book" transform="translate(299.000000, 35.000000)">
                <path d="M21.9999797,12.9814255 L20.0134284,11.4018554 L20.0134284,2.95188882 C20.0134284,2.95188882 20.0399176,2.04248041 18.9956055,2.04248041 C16.6730145,2.0424804 12.0278324,2.0424804 12.0278324,2.0424804 C12.0278324,2.0424804 10.1296993,-3.1114848e-08 10.0489499,-3.11148476e-08 C9.82434052,-3.11148465e-08 3.75012207,-1.10749747e-07 1.05969238,-3.11148473e-08 C0.00844830135,-1.20639605e-07 0.00849012058,1.04248043 0.00849012058,1.04248043 L0.00844830135,20.9754639 C0.00844830135,20.9754639 0.00844830135,21.9990632 1.01965332,21.9990638 C7.69742852,21.9990636 14.3752037,21.9990634 21.0529789,21.9990632 C21.9998156,21.9990632 21.9999805,20.9974374 21.9999805,20.9974374 L21.9999797,12.9814255 Z M21.0007935,15.119751 L20.0213623,14.2800903 L20.0213623,12.6185303 L21.0007935,13.3592529 L21.0007935,13.4523926 L21.0007935,15.119751 Z M16.2632449,11 L16.9946292,11 C16.9946292,11 17.558472,11.0020752 17.558472,10.5124512 C17.558472,10.0228272 16.9946292,10.0228272 16.9946292,10.0228272 L15.1298221,10.0228272 L13.9797362,9.02038575 L16.9946292,9.02038575 C16.9946292,9.02038575 17.558472,9.01904298 17.558472,8.52368165 C17.558472,8.02832032 16.9946292,8.02832032 16.9946292,8.02832032 L12.8431395,8.02832032 L11.6832274,7.0177002 L16.9946292,7.0177002 C16.9946292,7.0177002 17.558472,7.01025391 17.558472,6.52856446 C17.558472,6.04687501 16.9946292,6.04687501 16.9946292,6.04687501 L10.5609129,6.04687501 L9.37609871,5.01904298 L6.02661164,5.01904297 L6.02661164,3.0177002 L19.0211185,3.0177002 L19.0211185,13.392273 L16.2632449,11 Z M9.59167482,1.01379395 L10.5802002,2.02817381 L6.02746583,2.02817381 C4.88671876,2.02817381 5.02026368,3.03369141 5.02026368,3.03369141 L5.02026368,5.02819824 L1.00341798,5.02819824 L1.00341798,1.01379395 L9.59167482,1.01379395 Z M1.03924461,6.01245117 L9.28576656,6.01245117 L20.9960947,16.2149048 L20.9960947,21.0025634 L1.03924461,21.0025635 L1.03924461,6.01245117 Z" id="Shape"></path>
            </g>
        </g>
    </g>
</svg>
