<?xml version="1.0" encoding="UTF-8"?>
<svg width="22px" height="22px" viewBox="0 0 22 22" version="1.1" xmlns="http://www.w3.org/2000/svg" xmlns:xlink="http://www.w3.org/1999/xlink">

    <g id="Page-1" stroke="none" stroke-width="1" fill="none" fill-rule="evenodd">
        <g id="icons" transform="translate(-586.000000, -862.000000)" fill="#585F73">
            <g id="fa-grivna" transform="translate(586.000000, 862.000000)">
                <path d="M11.0094746,0 C17.0732127,0 22,4.93103448 22,11 C22,17.0689655 17.0732127,22 11.0094746,22 C4.92678725,22 0,17.0689655 0,11 C0,4.93103448 4.94573643,0 11.0094746,0 Z M11,1.375 C5.69564128,1.375 1.375,5.69564128 1.375,11 C1.375,16.3043587 5.69564128,20.625 11,20.625 C16.3043587,20.625 20.625,16.3043587 20.625,11 C20.625,5.69564128 16.3043587,1.375 11,1.375 Z M14.8913595,11.8088539 C15.2347981,11.8088539 15.5097793,12.0897694 15.5097793,12.4317517 C15.5097793,12.7774849 15.2368821,13.0604325 14.8913595,13.0604325 L8.75464375,13.0604325 C8.12682667,13.675016 7.90204169,14.5130939 8.16569341,15.2578604 C8.49837315,16.2013665 9.55275446,16.7635892 11.0266272,16.748502 C11.9409357,16.7290336 12.6614837,16.4848628 13.1792309,16.0339667 C13.4393781,15.7999719 13.8353829,15.8336616 14.0616362,16.1041382 C14.2742867,16.3660765 14.2434945,16.7527206 13.9870548,16.9779415 C13.2441195,17.6283225 12.2527789,17.9698761 11.0482165,18 L10.9099606,18 C8.98751741,18 7.51992605,17.1447732 7.00216326,15.678955 C6.69678866,14.8153053 6.78696003,13.87685 7.2228361,13.0604325 C6.90957398,13.0604325 6.61841981,13.0604325 6.61841981,13.0604325 C6.27289714,13.0604325 6,12.7774849 6,12.4317517 C6,12.0897694 6.27498114,11.8088539 6.61841981,11.8088539 L8.3053786,11.8088539 L11.2943833,10.1410276 L6.61841981,10.1410276 C6.27498114,10.1410276 6,9.86011207 6,9.51812974 C6,9.17427663 6.27393596,8.89234044 6.61841981,8.89234044 L13.1327661,8.89234044 C13.1817867,8.83577213 13.2226283,8.78306058 13.2567007,8.73213504 C13.6958379,8.08109421 13.7445445,7.31572145 13.3912475,6.61893173 C12.9653853,5.77881394 12.0429641,5.25157862 10.9753519,5.25157862 C9.99636764,5.25157862 9.23415577,5.52956912 8.69648036,6.07146185 C8.45056141,6.31396094 8.06095358,6.30905023 7.81038484,6.05245243 C7.58464408,5.8019674 7.58983618,5.41760808 7.82967543,5.17884597 C8.60740291,4.39550866 9.67323511,4 10.9753519,4 C12.5005829,4 13.8470008,4.78033862 14.4889507,6.0463412 C14.9479443,6.9439938 14.9761818,7.96155359 14.5678472,8.89234044 C14.8913595,8.89234044 14.8913595,8.89234044 14.8913595,8.89234044 C15.2358433,8.89234044 15.5097793,9.17427663 15.5097793,9.51812974 C15.5097793,9.86323524 15.2365366,10.1458467 14.8913595,10.1458467 L13.6367912,10.1458467 L10.7417964,11.8088539 L14.8913595,11.8088539 Z" id="Combined-Shape"></path>
            </g>
        </g>
    </g>
</svg>
