<?xml version="1.0" encoding="UTF-8"?>
<svg width="22px" height="22px" viewBox="0 0 22 22" version="1.1" xmlns="http://www.w3.org/2000/svg" xmlns:xlink="http://www.w3.org/1999/xlink">

    <g id="Page-1" stroke="none" stroke-width="1" fill="none" fill-rule="evenodd">
        <g id="icons" transform="translate(-299.000000, -744.000000)" fill="#585F73">
            <g id="fa-group-o" transform="translate(299.000000, 744.000000)">
                <path d="M10.9999879,16 C11.9163306,16 12.6618306,16.7222031 12.6618306,17.6099102 C12.6618306,18.2453594 12.2797782,18.7959648 11.7265202,19.0575859 C12.249379,19.1831172 12.7289677,19.4441992 13.1196815,19.8227031 C13.6858831,20.3711992 13.9977016,21.100457 13.9977016,21.8761445 C13.9977016,21.9445469 13.9404597,21.9999883 13.8698629,21.9999883 L13.8698629,21.9999883 L8.130125,21.9999883 C8.05951613,21.9999883 8.00228629,21.9445352 8.00228629,21.8761445 C8.00228629,21.100457 8.31410484,20.3711992 8.88030645,19.8227031 C9.27102016,19.4441992 9.75059677,19.1831055 10.2734677,19.0575859 C9.72020968,18.7959648 9.33815726,18.2453828 9.33815726,17.6099102 C9.33815726,16.7222031 10.0836452,16 10.9999879,16 Z M19.2807007,14.8746336 C19.6381532,15.1123603 19.5141115,15.4369118 19.4152833,15.6015625 C18.3206544,17.4247252 16.3408826,18.9574759 14.3566287,19.6381227 C14.1768474,19.6998013 13.8168335,19.7672119 13.6860352,19.3857422 C13.5552368,19.0042725 13.945499,18.7679164 14.1253662,18.7062378 C15.9569092,18.0779719 17.5724801,16.7813715 18.583191,15.0980222 C18.6479449,14.9901611 18.9264527,14.6390381 19.2807007,14.8746336 Z M3.5894165,15.1159057 C4.50768388,16.7505602 6.20088916,17.9828649 7.9373781,18.5782471 C8.11728826,18.6399256 8.48785427,18.8386841 8.35876487,19.2230224 C8.22967546,19.6073608 7.76492147,19.5324749 7.58522616,19.4707091 C5.60045663,18.7901932 3.89153931,17.5057607 2.80531916,15.6796934 C2.66631431,15.4460094 2.62365072,15.0265148 2.8764038,14.8901369 C3.12915689,14.7537591 3.39508057,14.7699585 3.5894165,15.1159057 Z M2.9999879,8 C3.91633065,8 4.66183065,8.72220312 4.66183065,9.60991016 C4.66183065,10.2453594 4.27977823,10.7959648 3.72652016,11.0575859 C4.24937903,11.1831172 4.72896774,11.4441992 5.11968145,11.8227031 C5.68588306,12.3711992 5.99770161,13.100457 5.99770161,13.8761445 C5.99770161,13.9445469 5.94045968,13.9999883 5.8698629,13.9999883 L5.8698629,13.9999883 L0.130125,13.9999883 C0.059516129,13.9999883 0.00228629032,13.9445352 0.00228629032,13.8761445 C0.00228629032,13.100457 0.314104839,12.3711992 0.880306452,11.8227031 C1.27102016,11.4441992 1.75059677,11.1831055 2.27346774,11.0575859 C1.72020968,10.7959648 1.33815726,10.2453828 1.33815726,9.60991016 C1.33815726,8.72220312 2.08364516,8 2.9999879,8 Z M18.9999879,8 C19.9163306,8 20.6618306,8.72220312 20.6618306,9.60991016 C20.6618306,10.2453594 20.2797782,10.7959648 19.7265202,11.0575859 C20.249379,11.1831172 20.7289677,11.4441992 21.1196815,11.8227031 C21.6858831,12.3711992 21.9977016,13.100457 21.9977016,13.8761445 C21.9977016,13.9445469 21.9404597,13.9999883 21.8698629,13.9999883 L21.8698629,13.9999883 L16.130125,13.9999883 C16.0595161,13.9999883 16.0022863,13.9445352 16.0022863,13.8761445 C16.0022863,13.100457 16.3141048,12.3711992 16.8803065,11.8227031 C17.2710202,11.4441992 17.7505968,11.1831055 18.2734677,11.0575859 C17.7202097,10.7959648 17.3381573,10.2453828 17.3381573,9.60991016 C17.3381573,8.72220312 18.0836452,8 18.9999879,8 Z M13.7329102,2.36993409 C13.8665771,1.96600343 14.2669352,2.03384126 14.4467165,2.09551983 C16.4309704,2.77616666 18.4107422,4.30891733 19.5053711,6.13208003 C19.6041993,6.29673082 19.7049562,6.63977085 19.3860475,6.84930441 C18.9834721,7.1138098 18.7325396,6.74763183 18.6677857,6.63977072 C17.6570747,4.95642151 15.9574585,3.67251633 14.1259155,3.04425046 C13.9460483,2.98257189 13.5992432,2.77386475 13.7329102,2.36993409 Z M7.44494605,2.22582992 C7.62464136,2.16406404 8.12097155,2.06549072 8.24078353,2.47009276 C8.36059551,2.8746948 8.02878694,3.05141958 7.84887679,3.11309815 C6.11238785,3.70848027 4.39782062,4.9153334 3.47955324,6.54998786 C3.28521731,6.89593512 3.00842285,6.996887 2.73855862,6.84482888 C2.46869439,6.69277077 2.5260342,6.25052956 2.66503906,6.0168456 C3.7512592,4.19077828 5.46017652,2.90634579 7.44494605,2.22582992 Z M10.9999879,0 C11.9163306,0 12.6618306,0.722203125 12.6618306,1.60991016 C12.6618306,2.24535938 12.2797782,2.79596484 11.7265202,3.05758594 C12.249379,3.18311719 12.7289677,3.44419922 13.1196815,3.82270312 C13.6858831,4.37119922 13.9977016,5.10045703 13.9977016,5.87614453 C13.9977016,5.94454687 13.9404597,5.99998828 13.8698629,5.99998828 L13.8698629,5.99998828 L8.130125,5.99998828 C8.05951613,5.99998828 8.00228629,5.94453516 8.00228629,5.87614453 C8.00228629,5.10045703 8.31410484,4.37119922 8.88030645,3.82270312 C9.27102016,3.44419922 9.75059677,3.18310547 10.2734677,3.05758594 C9.72020968,2.79596484 9.33815726,2.24538281 9.33815726,1.60991016 C9.33815726,0.722203125 10.0836452,0 10.9999879,0 Z" id="Combined-Shape"></path>
            </g>
        </g>
    </g>
</svg>
