<?xml version="1.0" encoding="UTF-8"?>
<svg width="18px" height="22px" viewBox="0 0 18 22" version="1.1" xmlns="http://www.w3.org/2000/svg" xmlns:xlink="http://www.w3.org/1999/xlink">

    <g id="Page-1" stroke="none" stroke-width="1" fill="none" fill-rule="evenodd">
        <g id="icons" transform="translate(-712.000000, -803.000000)" fill="#585F73" fill-rule="nonzero">
            <g id="fa-hand_о" transform="translate(710.000000, 803.000000)">
                <path d="M8.16505682,15.4847467 L3.81363636,18.682001 C3.56732955,18.8700915 3.22525284,18.8969278 2.9515625,18.7626045 C2.67787216,18.6148157 2.5,18.3461691 2.5,18.0371734 L2.5,0.814919132 C2.5,0.519341546 2.66420455,0.250694994 2.92417898,0.102906201 C3.18415341,-0.0448351786 3.5125625,-0.0314170751 3.75886932,0.129789821 L19.0983267,9.86938896 C19.372017,10.0305959 19.5088381,10.3530096 19.4677869,10.6620053 C19.4267358,10.9709536 19.1940966,11.2262295 18.893071,11.320251 L13.8848324,12.7039278 L17.5931023,18.4401907 C17.7162557,18.6148157 17.7573068,18.8432079 17.7025881,19.0581346 C17.6478693,19.2731088 17.5110483,19.4611519 17.3194602,19.568639 L13.2553977,21.8792553 C13.1322443,21.9464407 12.9817074,21.9867424 12.8448864,21.9867424 C12.571196,21.9867424 12.297554,21.8524191 12.147017,21.6106088 L8.16505682,15.4847467 Z M3.70149193,17.2753006 L7.4545229,14.5177195 L8.47859496,13.7652713 L9.17117791,14.8307434 L13.1657391,20.9764122 C13.0870469,20.8500074 12.9666397,20.7867424 12.8448864,20.7867424 C12.7763282,20.7867424 12.7299308,20.7989642 12.6622973,20.8360718 L16.732314,18.5220926 C16.6289318,18.5800933 16.5636948,18.6677387 16.5396846,18.762068 C16.5083943,18.8849714 16.5320093,19.0177376 16.5853434,19.0916674 L12.8770735,13.3554045 L11.9896002,11.9825864 L13.5652683,11.5472607 L17.6909502,10.4079856 L3.68970558,1.50763128 L3.70149193,17.2753006 Z" id="Shape"></path>
            </g>
        </g>
    </g>
</svg>
