<?xml version="1.0" encoding="UTF-8"?>
<svg width="22px" height="22px" viewBox="0 0 22 22" version="1.1" xmlns="http://www.w3.org/2000/svg" xmlns:xlink="http://www.w3.org/1999/xlink">

    <g id="Page-1" stroke="none" stroke-width="1" fill="none" fill-rule="evenodd">
        <g id="icons" transform="translate(-36.000000, -862.000000)" fill="#585F73" fill-rule="nonzero">
            <g id="fa-hand" transform="translate(36.000000, 862.000000)">
                <path d="M18.399064,20.0856545 C18.248157,21.1692984 17.2607907,21.987445 16.10225,21.9888272 L6.5,22 C5.29372093,22 4.27778488,21.1110157 4.18743605,19.976 L4.05400581,17.323445 C3.59737791,16.6880942 2.64334302,15.2946073 1.84863953,13.7017382 C0.641017442,11.2811623 0.276569767,9.3912356 0.734296512,7.92391623 C1.03122674,6.9719267 1.67184884,6.2322199 2.59804651,5.76492147 C2.59670349,5.14627225 2.59475,4.97603141 2.59243023,4.79726702 C2.58962209,4.57358115 2.58681395,4.34206283 2.58534884,3.25162304 C2.58412791,2.33153927 2.91793023,1.52928796 3.55073837,0.931486911 C4.18672093,0.330806283 5.06261628,0 6.01701744,0 C6.75555814,0 7.46369767,0.200534031 8.05279651,0.565434555 C8.60233721,0.249602094 9.23551163,0.0794764398 9.88272674,0.0794764398 C10.9494535,0.0794764398 11.9841919,0.536293194 12.7235872,1.31815707 C13.0262558,1.26505759 13.3275814,1.2382199 13.6234128,1.2382199 C14.9396977,1.23833508 16.0850523,1.77336126 16.8933081,2.75529843 C16.929814,2.75437696 16.966564,2.75391623 17.0031919,2.75391623 C18.048186,2.75391623 19.0349419,3.12158115 19.781907,3.78941361 C20.6292326,4.54685864 21.1475174,5.63868063 21.3223547,7.03424084 C21.6218488,9.42579058 21.6871686,13.0825131 18.840936,17.2955707 L18.399064,20.0856545 Z M17.6557078,17.1078633 L17.6973948,16.844642 L17.8465824,16.6238111 C20.0418173,13.374375 20.5443985,10.479232 20.1316624,7.18341198 C19.9909866,6.06052953 19.5995378,5.2359561 18.9820889,4.68400352 C18.4577687,4.2152292 17.7565196,3.95391623 17.0031919,3.95391623 C16.9632499,3.95408393 16.9632499,3.95408393 16.9235884,3.95491633 L16.33866,3.96968087 L15.9668075,3.51792316 C15.3863891,2.81278206 14.580672,2.43830367 13.6234128,2.4382199 C13.3981322,2.4382199 13.1661533,2.45884137 12.9309455,2.50010568 L12.2952013,2.61163918 L11.8517107,2.14267588 C11.3339498,1.5951765 10.6123169,1.27947644 9.88272674,1.27947644 C9.44790928,1.27947644 9.02055765,1.39330777 8.65074353,1.60584763 L8.02977157,1.96273312 L7.42089521,1.58558197 C7.01922284,1.33677744 6.52924692,1.2 6.01701744,1.2 C5.3619249,1.2 4.78229763,1.41891723 4.3747951,1.80380022 C3.98623081,2.17086904 3.78455892,2.65555325 3.78534775,3.25001072 C3.78656547,4.15631964 3.78822723,4.45493935 3.79232921,4.78169632 C3.79555281,5.03011127 3.79689076,5.23123303 3.79804368,5.7623164 L3.7996511,6.50275374 L3.13858555,6.83628394 C2.49740129,7.15978334 2.07837385,7.64478934 1.8798525,8.28126966 C1.53162928,9.39755723 1.83996686,10.9963332 2.92241853,13.1660157 C3.53934624,14.4025587 4.29767006,15.6063124 5.02844641,16.6231126 L5.23473271,16.9101388 L5.25249048,17.2631582 L5.38365219,19.8807795 C5.42319358,20.3775219 5.90593504,20.8 6.49860373,20.8000008 L16.1008183,20.7888281 C16.6734417,20.7881449 17.1439487,20.3982759 17.2138357,19.8979471 L17.6557078,17.1078633 Z" id="Shape"></path>
            </g>
        </g>
    </g>
</svg>
