<?xml version="1.0" encoding="UTF-8"?>
<svg width="22px" height="20px" viewBox="0 0 22 20" version="1.1" xmlns="http://www.w3.org/2000/svg" xmlns:xlink="http://www.w3.org/1999/xlink">

    <g id="Page-1" stroke="none" stroke-width="1" fill="none" fill-rule="evenodd">
        <g id="icons" transform="translate(-586.000000, -1040.000000)" fill="#585F73" fill-rule="nonzero">
            <g id="fa-heart_o" transform="translate(586.000000, 1039.000000)">
                <path d="M15.3827012,1.5 C15.4712519,1.5 15.5595169,1.50137863 15.6472106,1.50427375 C18.2136081,1.58795658 20.4376574,3.06846711 21.4514194,5.36815946 C22.4860337,7.71513881 22.0364249,10.3454266 20.2782662,12.232495 L20.2657829,12.2441224 C20.0534106,12.4407706 17.1353054,15.1268313 11.5114672,20.3023045 C11.3683579,20.4341015 11.1841155,20.5 11.0000158,20.5 C10.8157734,20.5 10.6316737,20.4341015 10.4885645,20.3023045 L1.76161324,12.2719238 C-0.0363932277,10.3455644 -0.486001963,7.71527667 0.548469469,5.36829732 C1.56223148,3.06860497 3.78628078,1.58795658 6.35282112,1.50427375 C6.44051482,1.50137863 6.52877981,1.5 6.61733045,1.5 C8.18339137,1.5 9.71860239,1.96514969 11.0000158,2.81948657 C12.2814293,1.96514969 13.8164975,1.5 15.3827012,1.5 Z M6.61733045,2.8 C6.54176809,2.8 6.46785471,2.80118429 6.3951855,2.80358328 C4.32488784,2.87108597 2.54878467,4.05347445 1.73804235,5.89262199 C0.911074402,7.76882334 1.27282064,9.84300911 2.64188085,11.3153001 L10.9999967,19.0062854 C13.7343184,16.4899465 15.8009171,14.5879468 17.1997801,13.300298 C17.9302766,12.6278784 18.4786642,12.1230083 18.8449145,11.7857139 C19.0967804,11.5537403 19.0967804,11.5537403 19.2573901,11.4057275 C19.3161299,11.351163 19.3474687,11.3220517 19.3584841,11.3123632 C20.7369128,9.8077127 21.0802664,7.74903561 20.2618732,5.89254474 C19.4511347,4.05340575 17.6750771,2.87108755 15.6043157,2.80356588 C15.532177,2.80118429 15.4582636,2.8 15.3827012,2.8 C14.0763317,2.8 12.7916296,3.1874318 11.7211619,3.90112809 L11.0000158,4.38192659 L10.2788698,3.90112809 C9.20844838,3.18746265 7.92361298,2.8 6.61733045,2.8 Z" id="Path"></path>
            </g>
        </g>
    </g>
</svg>
