<?xml version="1.0" encoding="UTF-8"?>
<svg width="22px" height="20px" viewBox="0 0 22 20" version="1.1" xmlns="http://www.w3.org/2000/svg" xmlns:xlink="http://www.w3.org/1999/xlink">

    <g id="Page-1" stroke="none" stroke-width="1" fill="none" fill-rule="evenodd">
        <g id="icons" transform="translate(-443.000000, -745.000000)" fill="#585F73">
            <g id="fa-heart" transform="translate(443.000000, 744.000000)">
                <path d="M21.4514194,5.36815946 C20.4376574,3.06846711 18.2136081,1.58795658 15.6472106,1.50427375 C15.5595169,1.50137863 15.4712519,1.5 15.3827012,1.5 C13.8164975,1.5 12.2814293,1.96514969 11.0000158,2.81948657 C9.71860239,1.96514969 8.18339137,1.5 6.61733045,1.5 C6.52877981,1.5 6.44051482,1.50137863 6.35282112,1.50427375 C3.78628078,1.58795658 1.56223148,3.06860497 0.548469469,5.36829732 C-0.486001963,7.71527667 -0.0363932277,10.3455644 1.72190828,12.232495 C1.73461958,12.2461435 1.74790217,12.2592404 1.76161324,12.2719238 L10.4885645,20.3023045 C10.6316737,20.4341015 10.8157734,20.5 11.0000158,20.5 C11.1841155,20.5 11.3683579,20.4341015 11.5114672,20.3023045 L20.2385613,12.2719238 C20.2522723,12.2592404 20.2655549,12.2461435 20.2782662,12.232495 C22.0364249,10.3454266 22.4860337,7.71513881 21.4514194,5.36815946 L21.4514194,5.36815946 Z" id="Path"></path>
            </g>
        </g>
    </g>
</svg>
