<?xml version="1.0" encoding="UTF-8"?>
<svg width="22px" height="22px" viewBox="0 0 22 22" version="1.1" xmlns="http://www.w3.org/2000/svg" xmlns:xlink="http://www.w3.org/1999/xlink">

    <g id="Page-1" stroke="none" stroke-width="1" fill="none" fill-rule="evenodd">
        <g id="icons" transform="translate(-514.000000, -1039.000000)" fill="#585F73" fill-rule="nonzero">
            <g id="fa-history" transform="translate(514.000000, 1039.000000)">
                <path d="M11,0 C17.0689655,0 22,4.92678725 22,11.0094746 C22,17.0921619 17.0689655,22 11,22 C4.93103448,22 0,17.0732127 0,11.0094746 C0,10.5736434 0.239208143,10.2418365 0.675415039,10.2418365 C1.11162194,10.2418365 1.35653687,10.573643 1.35653687,11.0094742 C1.35653687,16.3762131 5.80344812,20.6342316 11.0189654,20.6342316 C16.2344826,20.6342316 20.6288605,16.2841492 20.6288605,11.0094742 C20.6288605,5.73479915 16.3345871,1.38246918 11.0189654,1.38246918 C7.13222504,1.38246918 3.74456682,3.7140397 2.22732544,7.04909569 L7.85172414,7.04909561 C8.28793103,7.04909561 8.66248322,7.3222102 8.66248322,7.75804138 C8.66248322,8.19387256 8.2811807,8.42816925 7.84497381,8.42816925 L0.770835876,8.42816925 C0.33462898,8.42816925 0,8.04507648 0,7.6092453 L3.55271368e-15,0.75796727 C0,0.341085271 0.25817366,0 0.675415039,0 C1.11162194,0 1.35653687,0.322136069 1.35653687,0.757967249 L1.35653687,5.6657486 C3.31841278,2.29530334 7.0362069,0 11,0 Z M11.1910934,5.5 C11.4652512,5.5 11.6875,5.72874355 11.6875,5.99443305 L11.6875,11 L15.3049316,11 C15.5852539,11 15.8125,11.2148438 15.8125,11.4964066 L15.8125,11.8785934 C15.8125,12.1527512 15.5900815,12.375 15.3049316,12.375 L10.8089066,12.375 C10.7140222,12.375 10.6253555,12.3476008 10.549968,12.3007536 C10.4072987,12.2144732 10.3125,12.0604497 10.3125,11.8785934 L10.3125,5.99443305 C10.3125,5.72136521 10.5273438,5.5 10.8089066,5.5 L11.1910934,5.5 Z" id="Combined-Shape"></path>
            </g>
        </g>
    </g>
</svg>
