<?xml version="1.0" encoding="UTF-8"?>
<svg width="22px" height="22px" viewBox="0 0 22 22" version="1.1" xmlns="http://www.w3.org/2000/svg" xmlns:xlink="http://www.w3.org/1999/xlink">

    <g id="Page-1" stroke="none" stroke-width="1" fill="none" fill-rule="evenodd">
        <g id="icons" transform="translate(-229.000000, -389.000000)" fill="#585F73">
            <g id="fa-home" transform="translate(229.000000, 389.000000)">
                <path d="M11.3378372,4.02061094 L19.3355361,11.0798379 C19.3459409,11.0881218 19.3556773,11.0966136 19.3647438,11.1052788 L19.4421828,11.1760277 C19.4421828,11.1878103 19.4431861,11.2045216 19.4442257,11.2253408 C19.4525755,11.2485365 19.4562505,11.2707677 19.4562505,11.2926823 L19.45625,20.5281913 C19.45625,20.8670711 19.4562505,21.8575797 18.0837411,21.8570369 C13.4484506,21.8572178 8.81316016,21.8573986 4.17786969,21.8575795 C2.8320517,21.8574065 2.77353787,20.7928082 2.77099379,20.5679022 L2.76934488,11.3576354 C2.74786552,11.1695854 2.80330661,10.9949185 2.87756492,10.9277106 L10.8889643,4.02061094 C11.0150669,3.90612944 11.212388,3.90675502 11.3378372,4.02061094 Z M11.1055881,5.87715197 L4.18401914,11.6851834 L4.18422712,20.5426167 L18.0635777,20.5426167 L18.0630191,11.9871834 L11.1055881,5.87715197 Z M13.5648925,12.2970212 C13.7452257,12.2970212 13.8915831,12.4371515 13.8915831,12.6098121 L13.8915828,18.8221395 C13.8915828,18.9954257 13.7452254,19.1349305 13.5648922,19.1349305 L8.66757403,19.1349306 C8.48724082,19.1349306 8.34088343,18.9948003 8.34088343,18.8221396 L8.34088373,12.6098123 C8.34088373,12.4371517 8.48724112,12.2970213 8.66757433,12.2970213 L13.5648925,12.2970212 Z M11.3405482,0.246575369 L21.9397387,9.71330856 C21.939738,9.71330856 22.1231226,10.2613071 21.8500795,10.5261341 C21.5770364,10.7909612 21.060527,10.6262781 21.0605269,10.6262781 L11.1202849,1.83853941 L1.17897368,10.6262781 C1.1789737,10.6262781 0.679072681,10.8049697 0.382216724,10.5261341 C0.0853607671,10.2472986 0.294676845,9.71330856 0.294676849,9.71330856 L10.8910219,0.246575369 C11.0171245,0.132719445 11.2137923,0.132719445 11.3405482,0.246575369 Z M12.5337351,17.7741068 L12.533735,13.6686205 L9.72754381,13.6686205 L9.72754387,17.7741068 L12.5337351,17.7741068 Z" id="Combined-Shape"></path>
            </g>
        </g>
    </g>
</svg>
