<?xml version="1.0" encoding="UTF-8"?>
<svg width="22px" height="22px" viewBox="0 0 22 22" version="1.1" xmlns="http://www.w3.org/2000/svg" xmlns:xlink="http://www.w3.org/1999/xlink">

    <g id="Page-1" stroke="none" stroke-width="1" fill="none" fill-rule="evenodd">
        <g id="icons" transform="translate(-586.000000, -212.000000)" fill="#585F73">
            <g id="fa-hospital" transform="translate(586.000000, 212.000000)">
                <path d="M19.4616754,0 L2.53842932,0 C1.13863874,0 0,1.13863874 0,2.53842932 L0,19.4615707 C0,20.8613613 1.13863874,22 2.53842932,22 L19.4615707,22 C20.8613613,22 22,20.8613613 22,19.4615707 L22,2.53842932 C22.0001047,1.13863874 20.861466,0 19.4616754,0 L19.4616754,0 Z M19.0169492,20.7438612 L3.09296826,20.7438612 C2.15956512,20.7438612 1.40061224,19.9846989 1.40061224,19.0515052 L1.40061224,3.08875412 C1.40061224,2.1555604 2.15956512,1.39639809 3.09296826,1.39639809 L19.0169492,1.39639809 C19.9503523,1.39639809 20.7093052,2.1555604 20.7093052,3.08875412 L20.7093052,19.0515052 C20.7093052,19.9846989 19.9503523,20.7438612 19.0169492,20.7438612 Z M8.32259333,2.81706965 L8.32259333,8.29595995 L13.8240714,8.29595995 L13.8240714,2.81706965 L19.3811762,2.81706965 L19.3811762,19.3537 L13.8240714,19.3537 L13.8240714,13.840928 L8.32259333,13.840928 L8.32259333,19.3537 L2.77678245,19.3537 L2.77678245,2.81706965 L8.32259333,2.81706965 Z M6.9150699,4.16795501 L4.18144026,4.16795501 L4.18144026,17.9630331 L6.9150699,17.9630331 L6.9150699,12.4355959 L15.1983874,12.4355959 L15.1983874,17.9630331 L17.9456709,17.9630331 L17.9456709,4.16795501 L15.1982827,4.16795501 L15.1982827,9.69572936 L6.9150699,9.69572936 L6.9150699,4.16795501 Z" id="Combined-Shape"></path>
            </g>
        </g>
    </g>
</svg>
