<?xml version="1.0" encoding="UTF-8"?>
<svg width="22px" height="22px" viewBox="0 0 22 22" version="1.1" xmlns="http://www.w3.org/2000/svg" xmlns:xlink="http://www.w3.org/1999/xlink">

    <g id="Page-1" stroke="none" stroke-width="1" fill="none" fill-rule="evenodd">
        <g id="icons" transform="translate(-373.000000, -153.000000)" fill="#585F73">
            <g id="fa-hospital-o" transform="translate(373.000000, 153.000000)">
                <path d="M20.6313303,9.63738983 L16.5287171,9.63738924 L16.5287171,1.37897386 L17.8943485,1.37897412 L17.8943485,0.00492870458 L16.5287171,0.00492845026 L5.50118674,0.00492827116 L4.13454817,0.00492870458 L4.13454817,1.37897412 L5.50118674,1.37897368 L5.50118674,9.63738906 L1.38003662,9.63738899 L1.38414938,20.6695346 L0.00299084499,20.6695351 L0.00299084499,21.9999996 L1.38414938,21.9999992 L5.76757088,21.9999996 L6.54060105,21.9999996 L8.85959591,21.9999996 L13.1111184,21.9999996 L15.4301132,21.9999996 L16.2031434,21.9999996 L20.6353474,22 L22.0007262,21.9999996 L22.0007262,20.6695351 L20.635443,20.6695354 L20.6313303,9.63738983 Z M2.75666291,20.6374734 L2.75666291,10.9990754 L5.51226555,10.9990757 L5.51226555,20.6374738 L2.75666291,20.6374734 Z M9.62851349,15.1267724 L9.62851344,12.4158207 L12.3340712,12.4158207 L12.3340713,15.1267724 L9.62851349,15.1267724 Z M15.1555322,20.6614787 L12.3826396,20.6615764 L12.3826396,16.6928947 L9.63677289,16.6928947 L9.63677289,20.6614782 L6.89543873,20.6614782 L6.89543842,9.52956771 L6.89543873,1.36705544 L15.1555322,1.36695769 L15.1555319,9.52946996 L15.1555322,20.6614787 Z M19.3340904,10.9990757 L19.3340904,20.6487208 L16.5309832,20.6487206 L16.5309832,10.9990756 L19.3340904,10.9990757 Z M10.3122447,8.93640238 L8.93712914,8.93640238 L8.93712914,3.4359402 L10.3122447,3.4359402 L10.3119908,5.53192827 L11.7285924,5.53278736 L11.7285924,3.45331379 L13.1057839,3.45331379 L13.1057839,8.95379015 L11.7285924,8.95379015 L11.7285924,6.86828788 L10.3119908,6.86792827 L10.3122447,8.93640238 Z" id="Combined-Shape"></path>
            </g>
        </g>
    </g>
</svg>
