<?xml version="1.0" encoding="UTF-8"?>
<svg width="18px" height="22px" viewBox="0 0 18 22" version="1.1" xmlns="http://www.w3.org/2000/svg" xmlns:xlink="http://www.w3.org/1999/xlink">

    <g id="Page-1" stroke="none" stroke-width="1" fill="none" fill-rule="evenodd">
        <g id="icons" transform="translate(-588.000000, -921.000000)" fill="#585F73" fill-rule="nonzero">
            <g id="fa-hourglass" transform="translate(586.000000, 921.000000)">
                <path d="M18.0184058,0.0178222656 C18.8194927,0.0178222656 19.4707276,0.669057155 19.4707276,1.47014399 C19.4707276,2.27123083 18.8194927,2.92246572 18.0184058,2.92246572 L16.6446165,2.92246572 L16.6446165,4.64951897 C16.6446165,7.2252198 15.3576323,9.6018011 13.2295388,11.0082689 C15.3576323,12.4147367 16.6446165,14.791318 16.6446165,17.3670189 L16.6446165,19.0940721 L18.0184058,19.0940721 C18.8194927,19.0940721 19.4707276,19.745307 19.4707276,20.5463939 C19.4707276,21.3474807 18.8194927,21.9987156 18.0184058,21.9987156 L3.88785038,21.9987156 C3.08676354,21.9987156 2.43552865,21.3474807 2.43552865,20.5463939 C2.43552865,19.745307 3.08676354,19.0940721 3.88785038,19.0940721 L5.26163974,19.0940721 L5.26163974,17.3670189 C5.26163974,14.791318 6.54862389,12.4147367 8.67671744,11.0082689 C6.54862389,9.6018011 5.26163974,7.2252198 5.26163974,4.64951897 L5.26163974,2.92246572 L3.88785038,2.92246572 C3.08676354,2.92246572 2.43552865,2.27123083 2.43552865,1.47014399 C2.43552865,0.669057155 3.08676354,0.0178222656 3.88785038,0.0178222656 L18.0184058,0.0178222656 Z M18.0184058,20.19313 L3.88785038,20.19313 C3.69320198,20.19313 3.5345865,20.3513922 3.5345865,20.5463939 C3.5345865,20.7413955 3.69320198,20.8996577 3.88785038,20.8996577 L18.0184058,20.8996577 C18.2130542,20.8996577 18.3716697,20.7413955 18.3716697,20.5463939 C18.3716697,20.3513922 18.2130542,20.19313 18.0184058,20.19313 Z M10.4387204,11.6826385 C8.10299648,12.6845448 6.60000002,14.964099 6.60000002,17.5077532 L6.60000002,19 C6.64974996,18.9851841 15.3425811,18.9851841 15.392331,19 L15.392331,17.5077532 C15.392331,14.9641705 13.8893992,12.6845681 11.631334,11.6985322 L10.4387204,11.6826385 Z M15.5455586,3 L6.36069759,3 L6.36069759,4.64951897 C6.36069759,7.27320985 7.91187931,9.62276796 10.3179596,10.655005 L11.5879433,10.655005 C13.9943769,9.62276796 15.5455586,7.27320985 15.5455586,4.64951897 L15.5455586,3 Z M18.0184058,1.11688011 L3.88785038,1.11688011 C3.69320198,1.11688011 3.5345865,1.27514233 3.5345865,1.47014399 C3.5345865,1.66514566 3.69320198,1.82340788 3.88785038,1.82340788 L18.0184058,1.82340788 C18.2130542,1.82340788 18.3716697,1.66514566 18.3716697,1.47014399 C18.3716697,1.27514233 18.2130542,1.11688011 18.0184058,1.11688011 Z" id="Shape"></path>
            </g>
        </g>
    </g>
</svg>
