<svg width="18" height="18" viewBox="0 0 18 18" fill="none" xmlns="http://www.w3.org/2000/svg">
<path fill-rule="evenodd" clip-rule="evenodd" d="M18 8.98447C18 13.8161 13.806 18 8.97081 18C4.13564 18 0 13.8161 0 8.98447C0 4.15285 4.13564 0 8.97081 0C13.806 0 18 4.15285 18 8.98447ZM8.99992 14.5633C9.4066 14.5633 9.73628 14.2336 9.73628 13.8269C9.73628 13.4203 9.4066 13.0906 8.99992 13.0906C8.59324 13.0906 8.26355 13.4203 8.26355 13.8269C8.26355 14.2336 8.59324 14.5633 8.99992 14.5633ZM8.42727 4.80249L8.42725 11.1268C8.42725 11.5555 8.67141 11.8388 9.04087 11.8388C9.41033 11.8388 9.65452 11.4809 9.65452 11.1268L9.65454 4.80249C9.65454 4.37386 9.41034 4.09058 9.04089 4.09058C8.67143 4.09058 8.42727 4.4484 8.42727 4.80249Z" fill="#FF5F5C"/>
</svg>
