<?xml version="1.0" encoding="UTF-8"?>
<svg width="22px" height="22px" viewBox="0 0 22 22" version="1.1" xmlns="http://www.w3.org/2000/svg" xmlns:xlink="http://www.w3.org/1999/xlink">

    <g id="Page-1" stroke="none" stroke-width="1" fill="none" fill-rule="evenodd">
        <g id="icons" transform="translate(-36.000000, -94.000000)" fill="#585F73">
            <g id="fa-indent" transform="translate(36.000000, 94.000000)">
                <path d="M21.4991639,20.5 C21.7450342,20.5 21.9495241,20.6832562 21.9919309,20.9122514 L22,21 C22,21.2761424 21.7822583,21.5 21.4991639,21.5 L0.500836134,21.5 C0.224231975,21.5 0,21.2680664 0,21 C0,20.7238576 0.217741728,20.5 0.500836134,20.5 L21.4991639,20.5 Z M21.5036068,16.5 C21.747296,16.5 21.9499719,16.6832562 21.9920024,16.9122514 L22,17 C22,17.2761424 21.773819,17.5 21.5036068,17.5 L6.4963932,17.5 C6.22224281,17.5 6,17.2680664 6,17 C6,16.7238576 6.22618103,16.5 6.4963932,16.5 L21.5036068,16.5 Z M0,7.5 C0,7.5 5.59552404e-14,7.5 3.13218131,9.95170288 C3.97187886,10.6089729 4.02105034,10.7328966 3.13218131,11.4551027 C0.145682851,13.8816327 0.00677594658,13.9944945 0.000315160306,13.9997439 Z M21.5036068,12.5 C21.747296,12.5 21.9499719,12.6832562 21.9920024,12.9122514 L22,13 C22,13.2761424 21.773819,13.5 21.5036068,13.5 L6.4963932,13.5 C6.22224281,13.5 6,13.2680664 6,13 C6,12.7238576 6.22618103,12.5 6.4963932,12.5 L21.5036068,12.5 Z M21.5036068,8.5 C21.747296,8.5 21.9499719,8.68325617 21.9920024,8.91225137 L22,9 C22,9.27614237 21.773819,9.5 21.5036068,9.5 L6.4963932,9.5 C6.22224281,9.5 6,9.26806641 6,9 C6,8.72385763 6.22618103,8.5 6.4963932,8.5 L21.5036068,8.5 Z M21.5036068,4.5 C21.747296,4.5 21.9499719,4.68325617 21.9920024,4.91225137 L22,5 C22,5.27614237 21.773819,5.5 21.5036068,5.5 L6.4963932,5.5 C6.22224281,5.5 6,5.26806641 6,5 C6,4.72385763 6.22618103,4.5 6.4963932,4.5 L21.5036068,4.5 Z M21.4991639,0.5 C21.7450342,0.5 21.9495241,0.683256173 21.9919309,0.912251372 L22,1 C22,1.27614237 21.7822583,1.5 21.4991639,1.5 L0.500836134,1.5 C0.224231975,1.5 0,1.26806641 0,1 C0,0.723857625 0.217741728,0.5 0.500836134,0.5 L21.4991639,0.5 Z" id="Combined-Shape"></path>
            </g>
        </g>
    </g>
</svg>
