<?xml version="1.0" encoding="UTF-8"?>
<svg width="13px" height="22px" viewBox="0 0 13 22" version="1.1" xmlns="http://www.w3.org/2000/svg" xmlns:xlink="http://www.w3.org/1999/xlink">

    <g id="Page-1" stroke="none" stroke-width="1" fill="none" fill-rule="evenodd">
        <g id="icons" transform="translate(-41.000000, -389.000000)" fill="#585F73">
            <g id="fa-info" transform="translate(36.000000, 389.000000)">
                <path d="M11.3018373,6.4624814 C12.043027,6.4624814 12.5556918,6.9925141 12.5556918,7.66977834 L12.5556918,7.66977834 L12.5556918,19.8381352 L15.8823202,19.838135 C16.6235099,19.838135 17.281492,20.2769912 17.281492,20.9542555 C17.281492,21.6315197 16.6235102,22 15.8823205,22 L15.8823205,22 L7.07339011,22 C6.33220043,22 5.5,21.7679044 5.5,20.9542555 C5.5,20.1406066 6.3322002,19.838135 7.07338988,19.838135 L7.07338988,19.838135 L10.1992768,19.8381351 L10.1992768,8.62756606 L7.07338988,8.62756594 C6.69024472,8.62756594 5.491712,8.57920005 5.50468734,7.52084057 C5.51642693,6.56327722 6.49796097,6.47208071 6.94999285,6.46339533 Z M10.2565673,0.0124289773 C11.5717234,0.0124289773 12.6742441,0.976442992 12.6742441,2.38343755 C12.674244,3.79043211 11.6202036,4.82361606 10.2565673,4.8236161 C8.89293097,4.82361614 7.86305694,3.87896978 7.86305694,2.38343746 C7.86305694,0.887905149 8.94141123,0.0124289773 10.2565673,0.0124289773 Z" id="Combined-Shape"></path>
            </g>
        </g>
    </g>
</svg>
