<?xml version="1.0" encoding="UTF-8"?>
<svg width="22px" height="22px" viewBox="0 0 22 22" version="1.1" xmlns="http://www.w3.org/2000/svg" xmlns:xlink="http://www.w3.org/1999/xlink">

    <g id="Page-1" stroke="none" stroke-width="1" fill="none" fill-rule="evenodd">
        <g id="icons" transform="translate(-165.000000, -626.000000)" fill="#585F73">
            <g id="fa-info-circle" transform="translate(165.000000, 626.000000)">
                <path d="M22,11.0188041 C22,5.00171006 17.017094,0 11,0 C4.98290599,0 -4.64979166e-10,5.00171006 -4.64979166e-10,11.0188041 C-4.64979166e-10,17.0358981 4.98290598,22 11,22 C17.017094,22 22,17.0358981 22,11.0188041 Z M20.6562195,11 C20.6562195,16.1709402 16.1709403,20.6486664 11.0000001,20.6486664 C5.82905993,20.6486664 1.40621948,16.1709402 1.40621948,11 C1.40621948,5.82905983 5.82905993,1.38456726 11.0000001,1.38456726 C16.1709403,1.38456726 20.6562195,5.82905983 20.6562195,11 Z M8.26074219,17.2200621 C8.26074219,17.7396315 8.7463249,17.8878401 9.17880354,17.8878401 L14.3187485,17.8878401 C14.7512271,17.8878401 15.1351546,17.6525407 15.1351546,17.2200621 C15.1351546,16.7875835 14.751227,16.5073443 14.3187483,16.5073443 L12.3776855,16.5073444 L12.3749505,9.02564112 C12.3749505,8.59316249 12.0758144,8.25470106 11.6433358,8.25470106 L9.17606838,8.25470085 C8.96715208,8.25470085 8.2683132,8.25470085 8.26074219,8.93053436 C8.25317117,9.60636787 8.95250604,9.63725274 9.17606838,9.63725274 L11,9.63725281 L11.002735,16.5073444 L9.17880341,16.5073443 C8.74632477,16.5073443 8.26074219,16.7004927 8.26074219,17.2200621 Z M11,6.90865324 C11.7766265,6.90865321 12.3769302,6.31321726 12.3769302,5.5023499 C12.3769302,4.69148254 11.7490158,4.13591003 11,4.13591003 C10.2509842,4.13591003 9.63683319,4.64045715 9.63683319,5.50234985 C9.63683319,6.36424255 10.2233734,6.90865326 11,6.90865324 Z" id="Combined-Shape"></path>
            </g>
        </g>
    </g>
</svg>
