<?xml version="1.0" encoding="UTF-8"?>
<svg width="22px" height="22px" viewBox="0 0 22 22" version="1.1" xmlns="http://www.w3.org/2000/svg" xmlns:xlink="http://www.w3.org/1999/xlink">

    <g id="Page-1" stroke="none" stroke-width="1" fill="none" fill-rule="evenodd">
        <g id="icons" transform="translate(-443.000000, -212.000000)" fill="#585F73">
            <g id="fa-injection" transform="translate(443.000000, 212.000000)">
                <path d="M19.3033752,17.5205078 L19.3033752,13.9497375 C19.3033752,13.8336686 19.2560419,13.7222597 19.1718197,13.6401119 L11.0198889,5.70146798 C11.0196667,5.70125123 6.89311111,1.6766601 6.89311111,1.6766601 L4.76600647,3.71234894 L3.76748657,2.73279572 L5.35968018,1.2509613 C5.53501351,1.07994653 5.66457367,0.693629919 5.35968018,0.377067566 C5.05478668,0.0605052123 4.59232982,0.206052788 4.41688538,0.377067566 L0.226777778,4.46329064 C0.0514444444,4.63430542 -0.0374799059,5.1451185 0.226777778,5.42329324 C0.491035461,5.70146798 1.02820022,5.50880063 1.115978,5.42329324 L2.84634399,3.71234894 L3.76748657,4.60420227 L1.814,6.63056158 L6.25822222,10.9653202 L14.1943333,18.7057438 C14.2785556,18.7878916 14.3926667,18.8340591 14.5117778,18.8340591 L18.3241577,18.8340591 C18.3449355,18.8999507 20.3737335,21.074913 20.3737335,21.074913 C20.4614002,21.1604204 21.0179774,21.5043488 21.4256287,21.1837616 C21.8332799,20.8631744 21.6955436,20.2679691 21.5202103,20.0969543 C21.5202103,20.0969543 19.580188,17.8570404 19.3033752,17.5205078 Z M3.46435547,6.60095215 L6.84973145,3.31567383 L9.24938965,5.74475098 L5.87841797,8.98875427 L3.46435547,6.60095215 Z M14.5840747,17.6721243 L12.8109635,15.8002177 L14.3981858,14.2520896 C14.5735191,14.0810748 14.5735191,13.8039615 14.3981858,13.6328384 C14.2228524,13.4617152 13.9387413,13.4618236 13.7632969,13.6328384 L12.1760747,15.1809665 L11.5411858,14.5617152 L12.5008524,13.6256857 C12.6761858,13.4546709 12.6761858,13.1775576 12.5008524,13.0064345 C12.3255191,12.8353113 12.041408,12.8354197 11.8659635,13.0064345 L10.9062969,13.942464 L9.63640799,12.7038532 L11.2236302,11.1557251 C11.3989635,10.9847103 11.3989635,10.707597 11.2236302,10.5364739 C11.0482969,10.3653507 10.7641858,10.3654591 10.5887413,10.5364739 L9.0015191,12.0846019 L8.36640799,11.465134 L9.32618576,10.528996 C9.5015191,10.3579813 9.5015191,10.080868 9.32618576,9.9097448 C9.15085243,9.73862165 8.86674132,9.73873002 8.69129687,9.9097448 L7.7315191,10.8458827 L6.77929687,9.91711426 L10.1539307,6.64404297 L18.0061035,14.1214692 L18.0061035,17.5415039 L14.5840747,17.6721243 Z" id="Shape"></path>
            </g>
        </g>
    </g>
</svg>
