<?xml version="1.0" encoding="UTF-8"?>
<svg width="22px" height="22px" viewBox="0 0 22 22" version="1.1" xmlns="http://www.w3.org/2000/svg" xmlns:xlink="http://www.w3.org/1999/xlink">

    <g id="Page-1" stroke="none" stroke-width="1" fill="none" fill-rule="evenodd">
        <g id="icons" transform="translate(-514.000000, -94.000000)" fill="#585F73">
            <g id="fa-ivents" transform="translate(514.000000, 94.000000)">
                <path d="M21.9996333,1.6896 C21.9996333,0.7579 21.2417333,0 20.3100333,0 L1.68923333,0 C0.757533331,0 -0.000366669464,0.7579 -0.000366669464,1.6896 L9.81322119e-09,6.26608644 C9.81322119e-09,6.80471978 0.257766676,7.27955311 0.651566676,7.58901978 C0.257766676,7.89885311 9.81322119e-09,8.37405311 9.81322119e-09,8.91231978 L3.21904721e-13,13.1600333 C3.21904721e-13,13.6986667 0.257766667,14.1735 0.651566667,14.4829667 C0.257766667,14.7928 3.21904721e-13,15.268 3.21904721e-13,15.8062667 L2.44776714e-07,20.3100333 C2.44776714e-07,21.2421 0.757900245,22 1.68960024,22 L20.3100336,22 C21.2417336,22 21.9996336,21.2421 21.9996336,20.3104 L21.9996333,15.8062667 C21.9996333,15.2676333 21.7418667,14.7928 21.3480667,14.4833333 C21.7422333,14.1738667 22,13.6986667 22,13.1604 L22,8.91231978 C22,8.37368644 21.7422333,7.89885311 21.3484333,7.58938644 C21.7422333,7.27991978 22,6.80471978 22,6.26645311 L21.9996333,1.6896 Z M18.3897436,3.96282051 C18.6234025,3.96282051 18.8128205,3.77340252 18.8128205,3.53974359 C18.8128205,3.30608466 18.6234025,3.11666667 18.3897436,3.11666667 C18.1560847,3.11666667 17.9666667,3.30608466 17.9666667,3.53974359 C17.9666667,3.77340252 18.1560847,3.96282051 18.3897436,3.96282051 Z M16.9230769,3.96282051 C17.1567359,3.96282051 17.3461538,3.77340252 17.3461538,3.53974359 C17.3461538,3.30608466 17.1567359,3.11666667 16.9230769,3.11666667 C16.689418,3.11666667 16.5,3.30608466 16.5,3.53974359 C16.5,3.77340252 16.689418,3.96282051 16.9230769,3.96282051 Z M19.1230769,5.06282051 C19.3567359,5.06282051 19.5461538,4.87340252 19.5461538,4.63974359 C19.5461538,4.40608466 19.3567359,4.21666667 19.1230769,4.21666667 C18.889418,4.21666667 18.7,4.40608466 18.7,4.63974359 C18.7,4.87340252 18.889418,5.06282051 19.1230769,5.06282051 Z M17.6564103,5.06282051 C17.8900692,5.06282051 18.0794872,4.87340252 18.0794872,4.63974359 C18.0794872,4.40608466 17.8900692,4.21666667 17.6564103,4.21666667 C17.4227513,4.21666667 17.2333333,4.40608466 17.2333333,4.63974359 C17.2333333,4.87340252 17.4227513,5.06282051 17.6564103,5.06282051 Z M15.4564103,3.96282051 C15.6900692,3.96282051 15.8794872,3.77340252 15.8794872,3.53974359 C15.8794872,3.30608466 15.6900692,3.11666667 15.4564103,3.11666667 C15.2227513,3.11666667 15.0333333,3.30608466 15.0333333,3.53974359 C15.0333333,3.77340252 15.2227513,3.96282051 15.4564103,3.96282051 Z M16.1897436,5.06282051 C16.4234025,5.06282051 16.6128205,4.87340252 16.6128205,4.63974359 C16.6128205,4.40608466 16.4234025,4.21666667 16.1897436,4.21666667 C15.9560847,4.21666667 15.7666667,4.40608466 15.7666667,4.63974359 C15.7666667,4.87340252 15.9560847,5.06282051 16.1897436,5.06282051 Z M13.9897436,3.96282051 C14.2234025,3.96282051 14.4128205,3.77340252 14.4128205,3.53974359 C14.4128205,3.30608466 14.2234025,3.11666667 13.9897436,3.11666667 C13.7560847,3.11666667 13.5666667,3.30608466 13.5666667,3.53974359 C13.5666667,3.77340252 13.7560847,3.96282051 13.9897436,3.96282051 Z M14.7230769,5.06282051 C14.9567359,5.06282051 15.1461538,4.87340252 15.1461538,4.63974359 C15.1461538,4.40608466 14.9567359,4.21666667 14.7230769,4.21666667 C14.489418,4.21666667 14.3,4.40608466 14.3,4.63974359 C14.3,4.87340252 14.489418,5.06282051 14.7230769,5.06282051 Z M12.5230769,3.96282051 C12.7567359,3.96282051 12.9461538,3.77340252 12.9461538,3.53974359 C12.9461538,3.30608466 12.7567359,3.11666667 12.5230769,3.11666667 C12.289418,3.11666667 12.1,3.30608466 12.1,3.53974359 C12.1,3.77340252 12.289418,3.96282051 12.5230769,3.96282051 Z M13.2564103,5.06282051 C13.4900692,5.06282051 13.6794872,4.87340252 13.6794872,4.63974359 C13.6794872,4.40608466 13.4900692,4.21666667 13.2564103,4.21666667 C13.0227513,4.21666667 12.8333333,4.40608466 12.8333333,4.63974359 C12.8333333,4.87340252 13.0227513,5.06282051 13.2564103,5.06282051 Z M21.0224609,20.0669273 C21.0224609,20.594194 20.5934609,21.023194 20.0661943,21.023194 L1.98715047,21.0228273 C1.4598838,21.023194 1.0308838,20.594194 1.0308838,20.0669273 L1.03125073,15.9754312 C1.03125073,15.4481645 1.46025073,15.0191645 1.9875174,15.0191645 L20.0661945,15.0195312 C20.5938279,15.0195312 21.0228279,15.4485312 21.0228279,15.9757979 L21.0224609,20.0669273 Z M21.0206303,13.0641191 C21.0206303,13.5913857 20.5916303,14.0203857 20.0643637,14.0203857 L1.97372319,14.020019 C1.44645652,14.0203857 1.01745652,13.5913857 1.01745652,13.064119 L1.01782228,8.97335651 C1.01782228,8.44608984 1.44682228,8.01708984 1.97408894,8.01708984 L20.0643628,8.01745655 C20.5919961,8.01745655 21.0209961,8.44645655 21.0209961,8.97372322 L21.0206303,13.0641191 Z M1.01977557,6.05716103 L1.02014158,1.96175983 C1.02014158,1.43449316 1.44914158,1.00549316 1.97640824,1.00549316 L20.0644848,1.00585987 C20.5921181,1.00585987 21.0211181,1.43485987 21.0211181,1.96212654 L21.0207521,6.05716107 C21.0207521,6.58442773 20.5917521,7.01342773 20.0644855,7.01342773 L1.97604223,7.01306103 C1.44877557,7.01342769 1.01977557,6.58442769 1.01977557,6.05716103 Z M18.3897436,10.9294872 C18.6234025,10.9294872 18.8128205,10.7400692 18.8128205,10.5064103 C18.8128205,10.2727513 18.6234025,10.0833333 18.3897436,10.0833333 C18.1560847,10.0833333 17.9666667,10.2727513 17.9666667,10.5064103 C17.9666667,10.7400692 18.1560847,10.9294872 18.3897436,10.9294872 Z M16.9230769,10.9294872 C17.1567359,10.9294872 17.3461538,10.7400692 17.3461538,10.5064103 C17.3461538,10.2727513 17.1567359,10.0833333 16.9230769,10.0833333 C16.689418,10.0833333 16.5,10.2727513 16.5,10.5064103 C16.5,10.7400692 16.689418,10.9294872 16.9230769,10.9294872 Z M19.1230769,12.0294872 C19.3567359,12.0294872 19.5461538,11.8400692 19.5461538,11.6064103 C19.5461538,11.3727513 19.3567359,11.1833333 19.1230769,11.1833333 C18.889418,11.1833333 18.7,11.3727513 18.7,11.6064103 C18.7,11.8400692 18.889418,12.0294872 19.1230769,12.0294872 Z M17.6564103,12.0294872 C17.8900692,12.0294872 18.0794872,11.8400692 18.0794872,11.6064103 C18.0794872,11.3727513 17.8900692,11.1833333 17.6564103,11.1833333 C17.4227513,11.1833333 17.2333333,11.3727513 17.2333333,11.6064103 C17.2333333,11.8400692 17.4227513,12.0294872 17.6564103,12.0294872 Z M15.4564103,10.9294872 C15.6900692,10.9294872 15.8794872,10.7400692 15.8794872,10.5064103 C15.8794872,10.2727513 15.6900692,10.0833333 15.4564103,10.0833333 C15.2227513,10.0833333 15.0333333,10.2727513 15.0333333,10.5064103 C15.0333333,10.7400692 15.2227513,10.9294872 15.4564103,10.9294872 Z M16.1897436,12.0294872 C16.4234025,12.0294872 16.6128205,11.8400692 16.6128205,11.6064103 C16.6128205,11.3727513 16.4234025,11.1833333 16.1897436,11.1833333 C15.9560847,11.1833333 15.7666667,11.3727513 15.7666667,11.6064103 C15.7666667,11.8400692 15.9560847,12.0294872 16.1897436,12.0294872 Z M13.9897436,10.9294872 C14.2234025,10.9294872 14.4128205,10.7400692 14.4128205,10.5064103 C14.4128205,10.2727513 14.2234025,10.0833333 13.9897436,10.0833333 C13.7560847,10.0833333 13.5666667,10.2727513 13.5666667,10.5064103 C13.5666667,10.7400692 13.7560847,10.9294872 13.9897436,10.9294872 Z M14.7230769,12.0294872 C14.9567359,12.0294872 15.1461538,11.8400692 15.1461538,11.6064103 C15.1461538,11.3727513 14.9567359,11.1833333 14.7230769,11.1833333 C14.489418,11.1833333 14.3,11.3727513 14.3,11.6064103 C14.3,11.8400692 14.489418,12.0294872 14.7230769,12.0294872 Z M12.5230769,10.9294872 C12.7567359,10.9294872 12.9461538,10.7400692 12.9461538,10.5064103 C12.9461538,10.2727513 12.7567359,10.0833333 12.5230769,10.0833333 C12.289418,10.0833333 12.1,10.2727513 12.1,10.5064103 C12.1,10.7400692 12.289418,10.9294872 12.5230769,10.9294872 Z M13.2564103,12.0294872 C13.4900692,12.0294872 13.6794872,11.8400692 13.6794872,11.6064103 C13.6794872,11.3727513 13.4900692,11.1833333 13.2564103,11.1833333 C13.0227513,11.1833333 12.8333333,11.3727513 12.8333333,11.6064103 C12.8333333,11.8400692 13.0227513,12.0294872 13.2564103,12.0294872 Z M6,18 C6,16.8973333 5.10266667,16 4,16 C2.89733333,16 2,16.8973333 2,18 C2,19.1026667 2.89733333,20 4,20 C5.10266667,20 6,19.1026667 6,18 Z M4,17 C4.5512,17 5,17.4484 5,18 C5,18.5516 4.5512,19 4,19 C3.4488,19 3,18.5516 3,18 C3,17.4484 3.4488,17 4,17 L4,17 Z M6,11 C6,9.89733333 5.10266667,9 4,9 C2.89733333,9 2,9.89733333 2,11 C2,12.1026667 2.89733333,13 4,13 C5.10266667,13 6,12.1026667 6,11 Z M4,10 C4.5512,10 5,10.4484 5,11 C5,11.5516 4.5512,12 4,12 C3.4488,12 3,11.5516 3,11 C3,10.4484 3.4488,10 4,10 L4,10 Z M6,4 C6,2.89733333 5.10266667,2 4,2 C2.89733333,2 2,2.89733333 2,4 C2,5.10266667 2.89733333,6 4,6 C5.10266667,6 6,5.10266667 6,4 Z M4,3 C4.5512,3 5,3.4484 5,4 C5,4.5516 4.5512,5 4,5 C3.4488,5 3,4.5516 3,4 C3,3.4484 3.4488,3 4,3 L4,3 Z M18.3897436,17.8961538 C18.6234025,17.8961538 18.8128205,17.7067359 18.8128205,17.4730769 C18.8128205,17.239418 18.6234025,17.05 18.3897436,17.05 C18.1560847,17.05 17.9666667,17.239418 17.9666667,17.4730769 C17.9666667,17.7067359 18.1560847,17.8961538 18.3897436,17.8961538 Z M16.9230769,17.8961538 C17.1567359,17.8961538 17.3461538,17.7067359 17.3461538,17.4730769 C17.3461538,17.239418 17.1567359,17.05 16.9230769,17.05 C16.689418,17.05 16.5,17.239418 16.5,17.4730769 C16.5,17.7067359 16.689418,17.8961538 16.9230769,17.8961538 Z M19.1230769,18.9961538 C19.3567359,18.9961538 19.5461538,18.8067359 19.5461538,18.5730769 C19.5461538,18.339418 19.3567359,18.15 19.1230769,18.15 C18.889418,18.15 18.7,18.339418 18.7,18.5730769 C18.7,18.8067359 18.889418,18.9961538 19.1230769,18.9961538 Z M17.6564103,18.9961538 C17.8900692,18.9961538 18.0794872,18.8067359 18.0794872,18.5730769 C18.0794872,18.339418 17.8900692,18.15 17.6564103,18.15 C17.4227513,18.15 17.2333333,18.339418 17.2333333,18.5730769 C17.2333333,18.8067359 17.4227513,18.9961538 17.6564103,18.9961538 Z M15.4564103,17.8961538 C15.6900692,17.8961538 15.8794872,17.7067359 15.8794872,17.4730769 C15.8794872,17.239418 15.6900692,17.05 15.4564103,17.05 C15.2227513,17.05 15.0333333,17.239418 15.0333333,17.4730769 C15.0333333,17.7067359 15.2227513,17.8961538 15.4564103,17.8961538 Z M16.1897436,18.9961538 C16.4234025,18.9961538 16.6128205,18.8067359 16.6128205,18.5730769 C16.6128205,18.339418 16.4234025,18.15 16.1897436,18.15 C15.9560847,18.15 15.7666667,18.339418 15.7666667,18.5730769 C15.7666667,18.8067359 15.9560847,18.9961538 16.1897436,18.9961538 Z M13.9897436,17.8961538 C14.2234025,17.8961538 14.4128205,17.7067359 14.4128205,17.4730769 C14.4128205,17.239418 14.2234025,17.05 13.9897436,17.05 C13.7560847,17.05 13.5666667,17.239418 13.5666667,17.4730769 C13.5666667,17.7067359 13.7560847,17.8961538 13.9897436,17.8961538 Z M14.7230769,18.9961538 C14.9567359,18.9961538 15.1461538,18.8067359 15.1461538,18.5730769 C15.1461538,18.339418 14.9567359,18.15 14.7230769,18.15 C14.489418,18.15 14.3,18.339418 14.3,18.5730769 C14.3,18.8067359 14.489418,18.9961538 14.7230769,18.9961538 Z M12.5230769,17.8961538 C12.7567359,17.8961538 12.9461538,17.7067359 12.9461538,17.4730769 C12.9461538,17.239418 12.7567359,17.05 12.5230769,17.05 C12.289418,17.05 12.1,17.239418 12.1,17.4730769 C12.1,17.7067359 12.289418,17.8961538 12.5230769,17.8961538 Z M13.2564103,18.9961538 C13.4900692,18.9961538 13.6794872,18.8067359 13.6794872,18.5730769 C13.6794872,18.339418 13.4900692,18.15 13.2564103,18.15 C13.0227513,18.15 12.8333333,18.339418 12.8333333,18.5730769 C12.8333333,18.8067359 13.0227513,18.9961538 13.2564103,18.9961538 Z" id="Combined-Shape"></path>
            </g>
        </g>
    </g>
</svg>
