<?xml version="1.0" encoding="UTF-8"?>
<svg width="20px" height="22px" viewBox="0 0 20 22" version="1.1" xmlns="http://www.w3.org/2000/svg" xmlns:xlink="http://www.w3.org/1999/xlink">

    <g id="Page-1" stroke="none" stroke-width="1" fill="none" fill-rule="evenodd">
        <g id="icons" transform="translate(-711.000000, -626.000000)" fill="#585F73">
            <g id="fa-key-o" transform="translate(710.000000, 626.000000)">
                <path d="M16.614366,5.04795111 C16.5764362,2.25709479 14.2800845,0 11.7188642,0 C9.15764398,0 6.97106452,1.97760645 6.97106452,4.45208451 C6.97106452,4.92424935 6.99758479,5.55213598 7.71111433,5.55213598 C8.42464387,5.55213598 8.42464387,4.92424935 8.42464387,4.45208451 C8.42464387,3.12905614 9.5849896,1.37133294 11.7188642,1.37133294 C13.8527388,1.37133294 15.1847949,3.23940947 15.1847949,5.12294588 L15.1847949,8.30923694 C15.1847949,8.30923694 9.48176196,8.30923694 3.04757524,8.30923695 C1.5,8.30923706 1.5,9.80477874 1.5,9.80477874 L1.5,20.5624408 C1.5,22 2.9065814,22 2.9065814,22 C2.9065814,22 5.50808559,22 19.2152045,22 C20.6352139,22 20.6352139,20.601382 20.6352139,20.601382 L20.6352139,9.81988522 C20.6352139,8.30923706 19.2360179,8.30923694 19.2360179,8.30923694 L16.6148753,8.30923694 L16.6148753,5.12294617 C16.6148753,5.09790596 16.6147051,5.07290719 16.614366,5.04795111 Z M2.89516761,20.6354555 L2.89516761,9.65505671 L19.3434418,9.65505671 L19.3434418,20.6354555 L2.89516761,20.6354555 Z M11.0808671,17.8701465 C12.600285,17.8701465 13.8309184,16.6406737 13.8309184,15.1226886 C13.8309184,13.6047035 12.600285,12.3752307 11.0808671,12.3752307 C9.56144917,12.3752307 8.33081582,13.6047035 8.33081582,15.1226886 C8.33081582,16.6406737 9.56144917,17.8701465 11.0808671,17.8701465 L11.0808671,17.8701465 Z M11.0808671,13.7489813 C11.8384994,13.7489813 12.4558711,14.3657708 12.4558711,15.1227318 C12.4558711,15.8796497 11.8384994,16.4964392 11.0808671,16.4964392 C10.3232348,16.4964392 9.70586309,15.8796497 9.70586309,15.1227318 C9.70581983,14.3657708 10.3232348,13.7489813 11.0808671,13.7489813 L11.0808671,13.7489813 Z" id="Combined-Shape"></path>
            </g>
        </g>
    </g>
</svg>
