<?xml version="1.0" encoding="UTF-8"?>
<svg width="22px" height="22px" viewBox="0 0 22 22" version="1.1" xmlns="http://www.w3.org/2000/svg" xmlns:xlink="http://www.w3.org/1999/xlink">

    <g id="Page-1" stroke="none" stroke-width="1" fill="none" fill-rule="evenodd">
        <g id="icons" transform="translate(-710.000000, -35.000000)" fill="#585F73">
            <g id="fa-key" transform="translate(710.000000, 35.000000)">
                <path d="M19.9375,15.9982909 L17.024292,15.9982909 L17.024292,13.6854857 C17.024292,13.121704 17.5463257,13.0117186 17.5463257,13.0117186 L19.5275269,13.0117186 C20.1109009,13.0117186 20.0080566,13.6854857 20.0080566,13.6854857 L19.9874268,15.0135497 L20.9937134,15.0135497 L20.9937134,14.0095824 C20.9937134,14.0095824 20.9870258,13.9019178 20.9901733,13.0117186 C20.9937134,12.010498 20.0080566,12.010498 20.0080566,12.010498 L20.0080566,3.99206543 C19.9589996,3.00750732 19.133667,3.00750732 19.133667,3.00750732 C22.1051025,3.00750732 11,3.00750732 11,3.00750732 L9.03637695,0 L1.09265137,0 C0.366821289,0 2.59348099e-13,0.69152832 2.59348099e-13,1.05187988 L2.59348099e-13,18.0668945 C2.59348099e-13,18.3656006 0.189288667,19.0128174 0.945556641,19.0128174 L15.0269156,19.0128173 L15.0269156,21.0108641 C15.0269156,21.6371459 15.5537109,21.9999999 16.0247192,21.9999999 L20.9937134,21.9999999 C21.4062134,21.9999999 22,21.6606444 22,21.0108641 L22,16.9783324 C22,16.6831053 22,15.9982909 20.9937143,15.9982902 C20.9937143,15.9982902 20.0364178,15.9982908 19.9375,15.9982909 Z M1.0343628,1.0032959 L8.53781738,1.0032959 L10.4460449,4.01708341 L19.019165,4.01708341 L19.019165,5.99487308 L1.0343628,5.99487308 L1.0343628,1.0032959 Z M15.0078125,17.9963376 L0.99621582,17.9963376 L0.99621582,7.04175442 L18.9992676,7.03485363 L18.9992676,12.0231325 C18.8617676,12.0231325 17.2717773,12.0231325 17.1342773,12.0231325 C15.8280094,12.0231325 15.9904785,13.3828127 15.9904785,13.1166994 L15.9904785,16.0297848 C15.8386841,16.0297848 15.0078125,16.0853268 15.0078125,17.0045163 L15.0078125,17.9963376 Z M16.0228451,21.0217285 L16.0228451,17.0129395 L21.0189208,17.0129395 L21.0189208,21.0217285 L16.0228451,21.0217285 Z" id="Shape"></path>
            </g>
        </g>
    </g>
</svg>
