<?xml version="1.0" encoding="UTF-8"?>
<svg width="22px" height="22px" viewBox="0 0 22 22" version="1.1" xmlns="http://www.w3.org/2000/svg" xmlns:xlink="http://www.w3.org/1999/xlink">

    <g id="Page-1" stroke="none" stroke-width="1" fill="none" fill-rule="evenodd">
        <g id="icons" transform="translate(-586.000000, -94.000000)" fill="#585F73">
            <g id="fa-laboratory" transform="translate(586.000000, 94.000000)">
                <path d="M19.995118,8.03216983 L19.9951172,1.09705185 C19.9951172,0.878248408 20.1762965,0.700245951 20.3990049,0.700245951 C20.595817,0.700245951 20.7553764,0.54348428 20.7553764,0.350123101 C20.7553764,0.156761921 20.595817,2.5072029e-07 20.3990049,2.5072029e-07 L15.6058779,2.5072029e-07 C15.4090658,2.5072029e-07 15.2495064,0.156761921 15.2495064,0.350123101 C15.2495064,0.54348428 15.4090658,0.700245951 15.6058779,0.700245951 C15.8285864,0.700245951 16.0097656,0.878248408 16.0097656,1.09705185 L16.0097665,8.03216983 L13.017456,8.03216983 L13.0174551,1.09705185 C13.0174551,0.878248408 13.1986344,0.700245951 13.4213428,0.700245951 C13.6181549,0.700245951 13.7777143,0.54348428 13.7777143,0.350123101 C13.7777143,0.156761921 13.6181549,2.5072029e-07 13.4213428,2.5072029e-07 L8.59782034,2.5072029e-07 C8.40100825,2.5072029e-07 8.24144885,0.156761921 8.24144885,0.350123101 C8.24144885,0.54348428 8.40100825,0.700245951 8.59782034,0.700245951 C8.82052877,0.700245951 9.00170803,0.878248408 9.00170803,1.09705185 L9.00170889,8.03216983 L6.02832022,8.03216983 L6.02831936,1.09705185 C6.02831936,0.878248408 6.20949862,0.700245951 6.43220705,0.700245951 C6.62901914,0.700245951 6.78857854,0.54348428 6.78857854,0.350123101 C6.78857854,0.156761921 6.62901914,2.5072029e-07 6.43220705,2.5072029e-07 L1.62479788,-4.68636017e-07 C1.42798579,-4.68636017e-07 1.26842639,0.156761202 1.26842639,0.350122381 C1.26842639,0.543483561 1.42798579,0.700245232 1.62479788,0.700245232 C1.8475063,0.700245232 2.02868557,0.878247689 2.02868557,1.09705113 L2.02868643,8.03216911 L1.49676112,8.03216958 C0.671452265,8.03216958 8.60987146e-07,8.69184771 8.60987146e-07,9.50268555 L1.09168158e-06,19.515568 C1.09168158e-06,19.7874292 1.09168159e-06,20.9702907 1.26842644,20.9702907 C2.5368518,20.9702907 1.7380101,20.9860835 2.02868643,20.9860835 L2.0524443,21.6498767 C2.0524443,21.8432379 2.31234309,21.9999995 2.50915518,21.9999995 C2.70596728,21.9999995 3.00109831,21.8432379 3.00109831,21.6498767 L3.00109854,20.9860835 L19.0133065,20.9702907 L19.0133063,21.6340838 C19.0133063,21.827445 19.3409085,21.9999995 19.5377206,21.9999995 C19.7345327,21.9999995 19.9899653,21.827445 19.9899653,21.6340838 L19.9899655,20.9702907 C20.0667133,20.9702907 20.631527,20.9806941 20.7050077,20.9702899 C21.4444495,20.8655914 22.0000011,20.2531137 22.0000011,19.515568 L22.0000009,9.50268555 C22.0000009,8.69184771 21.3285495,8.03216958 20.5032406,8.03216958 L19.995118,8.03216983 Z M19.0215899,1.50320675 L19.0215898,7.99530029 L17.0288599,7.99530029 L17.0137496,1.50320675 C17.0137496,1.3310114 16.9866653,1.16640023 16.9378662,1.01483154 L19.0974732,1.01483154 C19.0486741,1.16640023 19.0215899,1.3310114 19.0215899,1.50320675 Z M19.945312,9.03325717 L19.9453119,16.6517511 C19.9453119,17.9446546 19.2265625,19.0157473 17.9853513,19.0157473 C16.7441401,19.0157473 16.0253906,17.9446542 16.0253906,16.6517507 L16.0253907,9.03325681 L19.945312,9.03325717 Z M12.0996125,1.01457106 C12.0507659,1.13772093 12.0236817,1.27146786 12.0236817,1.41137695 L12.0236817,8.00878889 L10.0013428,8.00878886 L10.0013428,1.41137692 C10.0013428,1.27146783 9.97425854,1.1377209 9.9254594,1.01457102 L12.0996125,1.01457106 Z M13.0195732,9.015625 L13.0195734,16.4986121 C13.0195734,17.885327 12.4186873,19.013581 11.0058805,19.0135806 C9.59307359,19.0135802 8.9921875,17.885327 8.9921875,16.4986121 L8.9921875,9.015625 C9.0311602,9.04209021 12.0757446,9.015625 13.0195732,9.015625 Z M5.09509592,1.01323631 C5.04624926,1.13638618 5.01916503,1.27013311 5.01916503,1.4100422 L5.01916506,8.02026346 L3.00610354,8.02026349 L3.00610351,1.41004224 C3.00610351,1.27013315 2.97901928,1.13638622 2.93022014,1.01323634 L5.09509592,1.01323631 Z M6.01916482,9.02270496 L6.01916504,16.7625446 C6.01916504,17.9962428 5.17869979,18.9999995 4.06838047,18.9999995 C2.95806114,18.9999995 2.0546875,17.9962429 2.0546875,16.7625448 L2.0546875,9.02270508 C2.0936602,9.04624999 2.69881035,9.02270496 6.01916482,9.02270496 Z M3.0585413,10.1619015 C3.18349949,10.2867688 3.33902442,10.4422035 3.62937527,10.4422035 C3.91999193,10.4422035 4.07319514,10.2383308 4.20077406,10.1620673 C4.55194094,9.95214844 5.00225832,10.1620673 5.00225824,10.3970985 L5.00225832,16.5866088 C5.00225832,17.3860474 4.68060305,18.0180054 3.99788942,18.0180054 C3.31517579,18.0180054 2.99352052,17.3114014 2.9935206,16.5866089 L2.99352052,10.0989979 C3.01441887,10.1179022 3.03554979,10.1389068 3.0585413,10.1619015 Z M20.2220859,20.0012212 L1.7913413,20.0012212 C1.35903893,20.0012212 1.00732403,19.6556733 1.00732403,19.2309509 L1.00732422,9.78388113 C1.00732422,9.35915877 1.40368651,9.01361084 1.9246826,9.01361084 L20.222086,9.01361086 C20.6543884,9.01361086 21.0061033,9.35915877 21.0061033,9.78388113 L21.0061031,19.2309509 C21.0061031,19.6556733 20.6543882,20.0012212 20.2220859,20.0012212 Z M17.0755701,10.1185058 C17.2005283,10.2433732 17.3560532,10.3988078 17.6464041,10.3988078 C17.9370207,10.3988078 18.0902239,10.1949352 18.2178029,10.1186716 C18.5689697,9.9087528 19.0192871,10.1186716 19.019287,10.3537029 L19.0192871,16.5432131 C19.0192871,17.3426518 18.6976318,17.9746098 18.0149182,17.9746098 C17.3322046,17.9746098 17.0105493,17.2680058 17.0105494,16.5432133 L17.0105493,10.0556023 C17.0314477,10.0745065 17.0525786,10.0955112 17.0755701,10.1185058 Z M10.0721521,10.1265621 C10.1971103,10.2514294 10.3526352,10.4068641 10.642986,10.4068641 C10.9336027,10.4068641 11.0868059,10.2029914 11.2143848,10.1267279 C11.5655517,9.91680908 12.0158691,10.1267279 12.015869,10.3617592 L12.0158691,16.5512694 C12.0158691,17.350708 11.6942138,17.9826661 11.0115002,17.9826661 C10.3287866,17.9826661 10.0071313,17.276062 10.0071314,16.5512695 L10.0071313,10.0636586 C10.0280296,10.0825628 10.0491606,10.1035675 10.0721521,10.1265621 Z" id="Shape"></path>
            </g>
        </g>
    </g>
</svg>
