<?xml version="1.0" encoding="UTF-8"?>
<svg width="22px" height="22px" viewBox="0 0 22 22" version="1.1" xmlns="http://www.w3.org/2000/svg" xmlns:xlink="http://www.w3.org/1999/xlink">

    <g id="Page-1" stroke="none" stroke-width="1" fill="none" fill-rule="evenodd">
        <g id="icons" transform="translate(-586.000000, -389.000000)" fill="#585F73">
            <g id="fa-layout" transform="translate(586.000000, 389.000000)">
                <path d="M8.92355988,9.6214753 C9.3290086,9.6214753 9.64631629,9.30416761 9.64631629,8.89871889 L9.64631653,0.722756494 C9.64631653,0.317307776 9.32900884,8.40578299e-08 8.92356012,8.40578299e-08 L0.72275641,-5.29395592e-23 C0.317307692,-5.29395592e-23 6.24413166e-13,0.317307692 6.24413166e-13,0.72275641 L-2.35361313e-07,8.89871881 C-2.35361313e-07,9.28653932 0.334935662,9.62147522 0.722756175,9.62147522 L8.92355988,9.6214753 Z M8.90291477,12.416626 C9.30836349,12.416626 9.62567118,12.7339337 9.62567118,13.1393824 L9.62567118,13.1393824 L9.62567112,21.2772436 C9.62567112,21.6826923 9.30836343,22 8.90291471,22 L8.90291471,22 L0.722756209,22 C0.334935696,22 -2.01738317e-07,21.6650641 -2.01738317e-07,21.2772436 L-2.01738317e-07,21.2772436 L-1.34492043e-07,13.1393824 C-1.34492043e-07,12.7339337 0.317307558,12.416626 0.722756276,12.416626 L0.722756276,12.416626 Z M21.2772437,12.3800354 C21.6650642,12.3800354 22.0000001,12.7149713 22.0000001,13.1027918 L22.0000001,13.1027918 L22,21.2772435 C22,21.6826922 21.6826923,21.9999999 21.2772436,21.9999999 L21.2772436,21.9999999 L13.0977564,22 C12.6923077,22 12.375,21.6826923 12.375,21.2772436 L12.375,21.2772436 L12.3750001,13.1027918 C12.3750001,12.6973431 12.6923078,12.3800354 13.0977565,12.3800354 L13.0977565,12.3800354 Z M20.6669617,13.7726595 L13.7558746,13.7726593 L13.7558746,20.6518552 L20.6669617,20.6518555 L20.6669617,13.7726595 Z M8.28524821,13.780716 L1.38372826,13.7807161 L1.38372809,20.6375886 L8.28524804,20.6375886 L8.28524821,13.780716 Z M21.2772436,-8.40578062e-08 C21.6826923,-8.40578062e-08 22,0.317307608 22,0.722756326 L22,0.722756326 L22,8.90376257 C22,9.30921128 21.6826923,9.62651898 21.2772436,9.62651898 L21.2772436,9.62651898 L13.0987635,9.62651881 C12.6933148,9.62651881 12.3760071,9.30921112 12.3760071,8.9037624 L12.3760071,8.9037624 L12.3760071,0.722756158 C12.3760071,0.31730744 12.6933148,-2.52173493e-07 13.0987635,-2.52173493e-07 L13.0987635,-2.52173493e-07 Z M8.27903771,1.40991224 L8.27903771,8.28608717 L1.38859582,8.2860871 L1.38859582,1.40991218 L8.27903771,1.40991224 Z M20.649506,1.39564521 L13.7416077,1.39564514 L13.7416077,8.27651977 L20.649506,8.27651984 L20.649506,1.39564521 Z" id="Combined-Shape"></path>
            </g>
        </g>
    </g>
</svg>
