<?xml version="1.0" encoding="UTF-8"?>
<svg width="22px" height="22px" viewBox="0 0 22 22" version="1.1" xmlns="http://www.w3.org/2000/svg" xmlns:xlink="http://www.w3.org/1999/xlink">

    <g id="Page-1" stroke="none" stroke-width="1" fill="none" fill-rule="evenodd">
        <g id="icons" transform="translate(-710.000000, -685.000000)" fill="#585F73" fill-rule="nonzero">
            <g id="fa-link" transform="translate(710.000000, 685.000000)">
                <path d="M21.9983842,5.14885519 C21.9983842,6.52733331 21.4641039,7.82171904 20.4948725,8.79095051 L15.6412174,13.6450093 C14.6639584,14.6222684 13.3570125,15.1513564 11.9991131,15.1513564 C10.6413732,15.1513564 9.33478446,14.6223672 8.35700879,13.6450093 C8.0797511,13.3677516 8.0797511,12.9190099 8.35700879,12.6417522 C8.63426648,12.3644945 9.08300822,12.3644945 9.36023818,12.6417245 C10.8151294,14.0962426 13.1838737,14.0962426 14.6383371,12.6417792 L19.4912026,7.78770238 C20.1930274,7.08587758 20.5790387,6.15015184 20.5790387,5.14925895 C20.5790387,4.14826199 20.1929542,3.21216331 19.4912026,2.51041175 C18.7893436,1.80855271 17.8536032,1.42257566 16.8523554,1.42257566 C15.8514609,1.42257566 14.9154518,1.80846814 14.213912,2.51000799 L10.502514,6.22140593 C10.2252563,6.49866362 9.7765146,6.49866362 9.49925691,6.22140593 C9.22199922,5.94414824 9.22199922,5.4954065 9.49925691,5.21814881 L13.2106087,1.50679706 C15.2189459,-0.502398617 18.4868385,-0.502132762 20.4949097,1.50679708 C21.4641039,2.47599133 21.9983842,3.77037706 21.9983842,5.14885519 Z M10.9265624,16.3527464 C11.2041723,16.0758461 11.6522962,16.0756269 11.9294157,16.3527464 C12.2066734,16.6300041 12.2066734,17.0787458 11.9294157,17.3560035 L8.78898784,20.4964314 C7.82013869,21.4657098 6.52572889,22 5.14683565,22 C3.76906902,22 2.47461951,21.4655343 1.50518298,20.4965271 C0.535944144,19.5277175 0.00161435396,18.2333245 0.00161435396,16.8547787 C0.00161435396,15.476084 0.535642837,14.1817629 1.50473133,13.2126744 L6.07327388,8.64413185 C8.08161112,6.63493617 11.3495038,6.63520202 13.3575287,8.64408565 C13.6347864,8.92134334 13.6347864,9.37008509 13.3575287,9.64734277 C13.080271,9.92460046 12.6315293,9.92460046 12.3543271,9.64739824 C10.8995449,8.1933625 8.53116174,8.19313129 7.07657718,9.64734277 L2.50841994,14.2155 C1.05390184,15.6703913 1.05390184,18.0387318 2.50833473,19.4931647 C3.21061281,20.1950694 4.14638178,20.5810582 5.14723941,20.5810582 C6.14823637,20.5810582 7.08433505,20.1949737 7.78608661,19.4932221 L10.9265624,16.3527464 Z" id="Combined-Shape"></path>
            </g>
        </g>
    </g>
</svg>
