<?xml version="1.0" encoding="UTF-8"?>
<svg width="18px" height="22px" viewBox="0 0 18 22" version="1.1" xmlns="http://www.w3.org/2000/svg" xmlns:xlink="http://www.w3.org/1999/xlink">

    <g id="Page-1" stroke="none" stroke-width="1" fill="none" fill-rule="evenodd">
        <g id="icons" transform="translate(-652.000000, -153.000000)" fill="#585F73">
            <g id="fa-list-disease-o" transform="translate(650.000000, 153.000000)">
                <path d="M12.7429198,0.215510204 C12.5771616,0.0763265306 12.371084,1.77635684e-15 12.1560464,1.77635684e-15 L2.91390977,1.77635684e-15 C2.40767544,1.77635684e-15 2,0.408571428 2,0.915918367 L2,21.0840816 C2,21.5914286 2.40767544,22 2.91390977,22 L18.9765321,22 C19.4827664,22 19.8904419,21.5914286 19.8904419,21.0840816 L19.8904419,6.59551022 C19.8904419,6.32612246 19.7694832,6.0657143 19.5634055,5.89510205 L12.7429198,0.215510204 Z M12.9735851,10.6641062 C13.6165796,10.6641062 14.1769409,11 14.1769409,12.1186981 C14.1769409,12.1962208 14.1532141,13.6972204 11.0446018,16.6963808 C8.04234937,13.6778397 7.90870666,12.1235433 7.90870666,12.1186981 C7.90870666,11 8.48229286,10.6641062 9.12045279,10.6641062 C9.56039638,10.6641062 9.96166361,10.9112099 10.1598799,11.3085138 C10.329089,11.6428306 10.6723417,11.8560181 11.0446017,11.8560181 C11.4265307,11.8560181 11.7697834,11.6428306 11.9341579,11.3085138 C12.1323743,10.9112099 12.5336415,10.6641062 12.9735851,10.6641062 Z M9.22615914,9.2310204 C7.61785714,9.2310204 6.31419173,10.5420408 6.31419173,12.1493877 C6.31419173,14.1563265 10.3461466,17.8110204 10.3864662,17.8469388 C10.6194236,18.0579592 11.1032581,18.2734694 11.6139724,17.8648979 C11.654292,17.8334694 15.7086466,14.3808163 15.7086466,12.1493877 C15.7086466,10.537551 14.4005012,9.2310204 12.7966792,9.2310204 C12.1381266,9.2310204 11.5154135,9.4510204 11.0136591,9.83714285 C10.5074248,9.4510204 9.88471177,9.2310204 9.22615914,9.2310204 L9.22615914,9.2310204 Z M17.1877746,5.52954101 L13,5.52954101 L13,2.07072449 L17.1877746,5.52954101 Z M3.38003579,20.6486664 L3.3800354,1.40202335 L11.6345673,1.40202335 L11.6345676,5.98581139 C11.6345676,6.49315832 12.046723,6.90621955 12.5529574,6.90621955 L18.518631,6.90621951 L18.518631,20.6486664 L3.38003579,20.6486664 Z M4.75,4.62140655 C4.75,4.34724878 4.97241848,4.125 5.25756836,4.125 L9.74243163,4.125 C10.0227539,4.125 10.25,4.33984375 10.25,4.62140655 L10.25,5.00359344 C10.25,5.27775121 10.0275815,5.5 9.74243163,5.5 L5.25756836,5.5 C4.97724609,5.5 4.75,5.28515625 4.75,5.00359344 L4.75,4.62140655 Z" id="Combined-Shape"></path>
            </g>
        </g>
    </g>
</svg>
