<?xml version="1.0" encoding="UTF-8"?>
<svg width="22px" height="22px" viewBox="0 0 22 22" version="1.1" xmlns="http://www.w3.org/2000/svg" xmlns:xlink="http://www.w3.org/1999/xlink">

    <g id="Page-1" stroke="none" stroke-width="1" fill="none" fill-rule="evenodd">
        <g id="icons" transform="translate(-586.000000, -153.000000)" fill="#585F73">
            <g id="fa-list-use-o" transform="translate(586.000000, 153.000000)">
                <path d="M18.7663043,4.35807261 C18.3761549,4.03967485 17.8066265,4.09348856 17.4837443,4.47915345 L16.5185381,5.64691815 L16.4808971,0.940902256 C16.4808971,0.43415652 16.0728098,0.0260692464 15.5660641,0.0260692464 L0.918091665,0.0260692464 C0.411345929,0.0260692464 0.0032586558,0.43415652 0.0032586558,0.940902256 L0.0032586558,21.0851664 C0.0032586558,21.5919121 0.411345929,21.9999994 0.918091665,21.9999994 L15.5660641,22 C16.0728098,22 16.4808971,21.5919127 16.4808971,21.085167 L16.5185378,14.0716259 L21.761934,7.99946675 C21.9233751,7.81111877 22.2103815,7.21468353 21.6408531,6.70345332 L18.7663043,4.35807261 Z M1.39258596,20.6415293 L1.39258621,1.39122883 L15.1773349,1.39122883 L15.1773349,7.23996656 L9.62245868,13.9010366 C9.53725364,14.0041795 9.47447099,14.1207759 9.43859518,14.2508256 L8.2995384,18.5110774 C8.20536441,18.856382 8.32196077,19.2285935 8.59999826,19.4528173 C9.02602343,19.7981219 9.45204861,19.6366808 9.57761392,19.5738981 L13.2544717,17.6545426 C13.3710681,17.5962444 13.4786955,17.5155238 13.5639005,17.4168654 L15.1773349,15.6927147 L15.1773349,20.6415298 L1.39258596,20.6415293 Z M9.72169481,18.1208416 L10.2777414,15.6755803 L11.8150172,17.0996309 L9.72169481,18.1208416 Z M18.191124,5.51432303 L20.7073955,7.45566557 L12.7881828,16.484788 L10.5754601,14.5423713 L18.191124,5.51432303 Z M11.8925472,6.87106059 C12.1641541,6.87106059 12.384335,7.08608769 12.384335,7.36789078 L12.384335,7.75040383 C12.384335,8.02479557 12.1634792,8.24723402 11.8925472,8.24723402 L4.61908234,8.24723402 C4.3474754,8.24723402 4.12729447,8.03220692 4.12729447,7.75040383 L4.12729447,7.36789078 C4.12729447,7.09349904 4.34815036,6.87106059 4.61908234,6.87106059 L11.8925472,6.87106059 Z M11.8925472,4.11871373 C12.1641541,4.11871373 12.384335,4.33374083 12.384335,4.61554392 L12.384335,4.99805697 C12.384335,5.27244871 12.1634792,5.49488716 11.8925472,5.49488716 L4.61908234,5.49488716 C4.3474754,5.49488716 4.12729447,5.27986006 4.12729447,4.99805697 L4.12729447,4.61554392 C4.12729447,4.34115218 4.34815036,4.11871373 4.61908234,4.11871373 L11.8925472,4.11871373 Z" id="Combined-Shape"></path>
            </g>
        </g>
    </g>
</svg>
