<?xml version="1.0" encoding="UTF-8"?>
<svg width="22px" height="22px" viewBox="0 0 22 22" version="1.1" xmlns="http://www.w3.org/2000/svg" xmlns:xlink="http://www.w3.org/1999/xlink">

    <g id="Page-1" stroke="none" stroke-width="1" fill="none" fill-rule="evenodd">
        <g id="icons" transform="translate(-710.000000, -153.000000)" fill="#585F73">
            <g id="fa-list-services-o" transform="translate(710.000000, 153.000000)">
                <path d="M17.9133876,10.0756368 L17.9178721,0.940901804 C17.9178721,0.434156058 17.5097848,0.026068776 17.0030391,0.026068776 L0.918091684,0.0260694234 C0.411345938,0.0260694234 0.0032586558,0.434156706 0.0032586558,0.940902451 L0.0032586558,21.085167 C0.0032586558,21.5919127 0.411345938,22 0.918091684,22 L16.9985546,21.9999994 C17.5053003,21.9999994 17.9133876,21.5919121 17.9133876,21.0851663 L17.9133876,11.7474725 C18.3059531,11.411677 21.4092756,9.42910094 21.5957267,9.31397051 C22.0175494,9.05350213 21.9519247,8.79620641 21.9122418,8.64397321 C21.8069342,8.23998796 21.5028384,7.93578747 21.1322425,8.09310373 C20.125618,8.55826783 19.5559091,9.09852343 17.9133876,10.0756368 Z M1.37125186,20.6532903 L1.37125204,1.37107079 L16.5210874,1.37107079 L16.5210872,11.0121805 C14.5545131,12.4952796 11.3444975,15.2374108 10.4117266,16.3719831 L9.16279253,15.0777047 C8.78609658,14.7368845 8.33896994,14.9910468 8.15754082,15.171695 C7.97896753,15.3621366 7.78084487,15.8342275 8.15754082,16.1705631 L9.66730363,17.8737403 C9.88255846,18.0979641 10.5372919,18.3221879 11.0081618,17.757144 C12.0485602,16.5014908 14.8253969,14.1846702 16.5210872,12.7572599 L16.5210872,20.6532903 L1.37125186,20.6532903 Z M11.0081618,2.74254068 L11.0081618,5.51588632 L13.7710081,5.51588634 L13.7710081,9.62911963 L11.0081618,9.62911953 L11.0081618,12.3966183 L6.92802257,12.3966185 L6.91030784,9.63749953 L4.12729456,9.62911963 L4.12729456,5.51588634 L6.91030769,5.52426645 L6.92802249,2.74254073 L11.0081618,2.74254068 Z M9.6459316,4.12005858 L8.28386929,4.12005836 L8.28386869,6.90953117 L5.52614636,6.9095306 L5.52614636,8.27965642 L8.28386869,8.27965699 L8.28386928,10.9995815 L9.64593158,10.9995817 L9.64593099,8.27965722 L12.3971025,8.27965642 L12.3971025,6.9095306 L9.64593099,6.90953139 L9.6459316,4.12005858 Z" id="Combined-Shape"></path>
            </g>
        </g>
    </g>
</svg>
