<?xml version="1.0" encoding="UTF-8"?>
<svg width="22px" height="22px" viewBox="0 0 22 22" version="1.1" xmlns="http://www.w3.org/2000/svg" xmlns:xlink="http://www.w3.org/1999/xlink">

    <g id="Page-1" stroke="none" stroke-width="1" fill="none" fill-rule="evenodd">
        <g id="icons" transform="translate(-650.000000, -330.000000)" fill="#585F73">
            <g id="fa-lock" transform="translate(650.000000, 330.000000)">
                <path d="M19.2827305,8.24222004 L19.2827305,6.97430256 C19.2827305,3.12244401 15.8067483,0 11.0181049,0 C6.22946139,0 2.78961186,3.12244401 2.78961186,6.97430256 L2.78961186,8.24222004 L1.50594871,8.24222004 C0.694637052,8.24222004 0.036209361,8.85765815 0.036209361,9.61590177 L0.036209361,20.6055285 C0.036209361,21.3638153 0.694683296,21.9792102 1.50594871,21.9792102 L20.530261,21.9792101 C21.3415727,21.9792101 22.0000004,21.363772 22.0000004,20.6055284 L22.0000004,9.61590167 C22.0000004,8.85761484 21.3415727,8.24221995 20.530261,8.24221995 L19.2827305,8.24222004 Z M11.0146027,1.33135986 C15.2379608,1.33135986 17.8899384,3.88622004 17.8899384,6.97430256 L17.8899384,8.24222004 L4.17921448,8.24222004 L4.17921448,6.97430256 C4.17921448,3.88622004 6.79124451,1.33135986 11.0146027,1.33135986 Z M20.6921387,9.63674904 L20.6921387,20.6736753 L1.41662652,20.6736756 L1.41662652,9.63674927 L20.6921387,9.63674904 Z M11,13.748725 C10.2423818,13.748725 9.62497837,14.3655029 9.62502163,15.1224499 C9.62502163,15.8793536 10.2423818,16.4961316 11,16.4961316 C11.7576182,16.4961316 12.3749784,15.8793536 12.3749784,15.1224499 C12.3749784,14.3655029 11.7576182,13.748725 11,13.748725 Z" id="Combined-Shape"></path>
            </g>
        </g>
    </g>
</svg>
