<?xml version="1.0" encoding="UTF-8"?>
<svg width="22px" height="22px" viewBox="0 0 22 22" version="1.1" xmlns="http://www.w3.org/2000/svg" xmlns:xlink="http://www.w3.org/1999/xlink">

    <g id="Page-1" stroke="none" stroke-width="1" fill="none" fill-rule="evenodd">
        <g id="icons" transform="translate(-299.000000, -980.000000)" fill="#585F73">
            <g id="fa-login" transform="translate(299.000000, 980.000000)">
                <path d="M13.6,0 C13.8212,0 14,0.1788 14,0.4 L14,0.4 L13.973,6.387 L15.7715879,4.63725594 C15.9279879,4.48085594 16.2688868,4.48085594 16.4252868,4.63725594 C16.5816868,4.79365594 16.5816868,5.11061667 16.4252868,5.26701667 L12.5951353,9.0121341 L21.5456602,9.0121342 C21.7668602,9.0121342 21.9456602,9.30259191 21.9456602,9.52379191 C21.9456602,9.74499191 21.7668602,10.0071291 21.5456602,10.0071291 L12.5951353,10.0071292 L13.6011217,11.0152883 C13.8105384,11.0579599 13.9492298,11.231843 13.9885464,11.4026542 L16.4252868,13.8465458 C16.5816868,14.0029458 16.6600496,14.268973 16.4252868,14.5231815 C16.1312805,14.8415409 15.7715879,14.6030155 15.7715879,14.6030155 C15.7715879,14.6030155 14.9504837,13.7663441 14.0007159,12.7989839 L14.0000004,18.5903292 C14.0000004,18.8115292 13.8212004,18.9903292 13.6000004,18.9903292 L13.6000004,18.9903292 L10.0081453,18.9903297 L10.008145,21.6071297 C10.008145,21.7351297 9.94734495,21.8551297 9.84414495,21.9303297 C9.77494495,21.9807297 9.69214495,22.0071297 9.60814495,22.0071297 C9.56734495,22.0071297 9.52654495,22.0007297 9.48734495,21.9887297 C9.48734495,21.9887297 0.2672,19.1815291 0.2604,19.1791291 C0.2444,19.1731291 0.2308,19.1647291 0.216,19.1567291 C0.188,19.1419291 0.162,19.1251291 0.1388,19.1047291 C0.126,19.0931291 0.1144,19.0815291 0.1028,19.0687291 C0.0816,19.0447291 0.0648,19.0187291 0.0288,18.9491291 C0.0116,18.9043291 0,18.8571291 0,18.8071291 L0,18.8071291 L0,0.407129097 C0,0.358329097 0.0112,0.311529097 0.0368,0.242729097 C0.0552,0.202729097 0.08,0.166329097 0.1308,0.114729097 C0.142,0.104729097 0.1516,0.093129097 0.1968,0.070329097 C0.2292,0.050729097 0.2628,0.037129097 0.3004,0.027129097 C0.3216,0.021529097 0.3412,0.016329097 0.4,0.00712909698 L0.4,0.00712909698 Z M1.00088174,1.44145527 L1.00088174,18.3637575 L9.00857217,20.8015627 L9.00857217,3.6600832 L1.00088174,1.44145527 Z M13.0448275,1.02080095 L2.9471097,1.02080097 L9.72934495,2.82592967 C9.89534495,2.87872967 10.008145,3.03272967 10.008145,3.20712967 L10.008145,3.20712967 L10.0081453,18.0172005 L13.0448275,18.0171999 L13.0442761,11.8249706 C12.1005254,10.8640477 11.2531682,10.0018789 11.1614195,9.9105714 C10.9456602,9.69584972 10.9456602,9.40062267 11.1614195,9.12395031 L13.0792269,7.25752733 C13.0519158,7.17341147 13.0448275,7.08266177 13.0448275,7.00377226 L13.0448275,7.00377226 L13.0448275,1.02080095 Z" id="Combined-Shape" transform="translate(10.972830, 11.003565) scale(-1, 1) translate(-10.972830, -11.003565) "></path>
            </g>
        </g>
    </g>
</svg>
