<?xml version="1.0" encoding="UTF-8"?>
<svg width="20px" height="20px" viewBox="0 0 20 20" version="1.1" xmlns="http://www.w3.org/2000/svg" xmlns:xlink="http://www.w3.org/1999/xlink">

    <g id="Page-1" stroke="none" stroke-width="1" fill="none" fill-rule="evenodd">
        <g id="icons" transform="translate(-515.000000, -272.000000)" fill="#585F73">
            <g id="fa-male" transform="translate(514.000000, 271.000000)">
                <path d="M19.9813986,1.5 L14.4057767,1.5 C14.0979059,1.5 13.8997253,1.81444538 13.8997253,2.11637451 C13.8997253,2.87807762 14.2640543,2.8780776 14.5719251,2.8780776 L18.5338252,2.87807762 L14.4057767,6.94350641 C14.3832832,6.96556578 14.4057767,6.94350641 14.255603,7.09291764 C12.894698,5.97884143 10.917935,5.20437665 8.9963032,5.20437665 C4.69204566,5.20437665 1,8.49942705 1,12.7206156 C1,16.9418042 4.69204566,20.5 8.9963032,20.5 C13.3005607,20.5 16.802229,16.9418042 16.802229,12.7206156 C16.802229,10.9357015 16.3041032,9.44185304 15.2560177,8.13845568 L15.5870125,7.79948162 L19.6513107,3.81004227 L19.6513101,7.66599087 C19.6513101,7.96792001 19.7940419,8.37581094 20.388813,8.37581094 C20.6966839,8.37581094 21,8.13845568 21,7.66599056 L21,2.33146511 C21,2.26014433 21,1.5 19.9813986,1.5 Z M8.99616497,6.52515498 C12.6853709,6.52515498 15.3429351,9.07685258 15.3429351,12.6948595 C15.3429351,16.3128665 12.6853707,19.1082193 8.99616483,19.1082193 C5.30695893,19.1082193 2.40398473,16.5217157 2.40398473,12.9037087 C2.40398473,9.28570172 5.30695907,6.52515498 8.99616497,6.52515498 Z M8.99616522,7.25259908 C5.92159698,7.25259908 3.42054336,9.70538423 3.42054336,12.7206156 C3.42054336,13.0225447 3.67017953,13.2673631 3.97805035,13.2673631 C4.28592116,13.2673631 4.53555734,13.0225447 4.53555734,12.7206156 C4.53555734,10.3085658 6.53664863,8.34622945 8.99602723,8.34622945 C9.30389804,8.34622945 9.55353421,8.10141106 9.55353421,7.79948193 C9.55353421,7.49755279 9.30403604,7.25259908 8.99616522,7.25259908 Z" id="Combined-Shape"></path>
            </g>
        </g>
    </g>
</svg>
