<?xml version="1.0" encoding="UTF-8"?>
<svg width="20px" height="22px" viewBox="0 0 20 22" version="1.1" xmlns="http://www.w3.org/2000/svg" xmlns:xlink="http://www.w3.org/1999/xlink">

    <g id="Page-1" stroke="none" stroke-width="1" fill="none" fill-rule="evenodd">
        <g id="icons" transform="translate(-101.000000, -744.000000)" fill="#585F73">
            <g id="fa-md" transform="translate(100.000000, 744.000000)">
                <path d="M17.0241191,10.1868519 C17.6663027,10.3297768 18.2333002,10.6184829 18.7243672,11.0524692 C19.2156824,11.486656 19.5981638,11.9778223 19.8722581,12.5262688 C20.1460546,13.0746651 20.3705707,13.7067016 20.5451613,14.4219772 C20.7200993,15.1374533 20.8330521,15.7956492 20.8852109,16.3965649 C20.9371216,16.9975308 20.9634739,17.6221002 20.9634243,18.2710251 C20.9634243,19.4251982 20.6188089,20.3314077 19.928933,20.9892528 C19.239206,21.6474989 18.3229777,21.9763964 17.1801489,21.9763964 L17.1801489,21.9763964 L4.79637717,21.9763964 C3.65344913,21.9763964 2.73712159,21.6474989 2.0474938,20.9892528 C1.35801489,20.3314077 1.01315136,19.4251982 1.01315136,18.2710251 C1.01315136,17.622451 1.03905707,16.9975308 1.09101737,16.3965649 C1.14307692,15.7955991 1.25627792,15.1374533 1.43101737,14.4222779 C1.60575682,13.7070023 1.83012407,13.0749658 2.10406948,12.5262187 C2.37801489,11.9777722 2.76054591,11.4866059 3.25171216,11.0526196 C3.74297767,10.6186834 4.30962779,10.3301276 4.95200993,10.1870023 C4.74421836,10.6829294 4.64034739,11.2552802 4.64034739,11.9037039 L4.64034739,11.9037039 L4.64034739,14.808205 C4.09255583,14.9992392 3.65320099,15.3329476 3.32263027,15.8097312 C2.99200993,16.2868155 2.8266005,16.8162688 2.8266005,17.3981412 C2.8266005,18.1609749 3.09111663,18.8098998 3.62,19.3439134 C4.14908189,19.8779772 4.79136476,20.1449841 5.54694789,20.1449841 C6.3026799,20.1449841 6.94506203,19.8779772 7.47409429,19.3439134 C8.00307692,18.8098998 8.26744417,18.1609749 8.26744417,17.3981412 C8.26744417,16.8160683 8.09985112,16.2868656 7.76431762,15.8097312 C7.42888337,15.3329977 6.99215881,14.9992392 6.45369727,14.808205 L6.45369727,14.808205 L6.45369727,11.9037039 C6.45369727,11.3125604 6.57186104,10.8690524 6.80799007,10.5731298 C8.05473945,11.5654351 9.44818859,12.0613121 10.9877916,12.0613121 C12.5275931,12.0613121 13.9209429,11.5654852 15.1678412,10.5731298 C15.4039206,10.8690524 15.5217866,11.3125604 15.5217866,11.9037039 L15.5217866,11.9037039 L15.5217866,12.8194852 C14.5204467,12.8194852 13.6658065,13.1772483 12.9572705,13.8927244 C12.2490819,14.6078998 11.8947891,15.4711617 11.8947891,16.4823599 L11.8947891,16.4823599 L11.8947891,17.7559043 C11.5926551,18.0323326 11.4414888,18.3709021 11.4414888,18.7715125 C11.4414888,19.1532301 11.5737965,19.4774169 11.8382134,19.7442232 C12.1026799,20.0114305 12.4236725,20.1448337 12.80134,20.1448337 C13.1795533,20.1448337 13.5005459,20.0114305 13.7650124,19.7442232 C14.0295782,19.4774169 14.161737,19.1532301 14.161737,18.7715125 C14.161737,18.3708519 14.0105707,18.0323326 13.7084367,17.7559043 L13.7084367,17.7559043 L13.7084367,16.4823599 C13.7084367,15.9863827 13.8879901,15.5568064 14.246799,15.1947335 C14.6056576,14.8318588 15.0309677,14.6507973 15.5222829,14.6507973 C16.0133995,14.6507973 16.4385112,14.8318588 16.7973697,15.1947335 C17.1562283,15.5567563 17.3359305,15.9863827 17.3359305,16.4823599 L17.3359305,16.4823599 L17.3359305,17.7559043 C17.0339454,18.0323326 16.8827792,18.3709021 16.8827792,18.7715125 C16.8827792,19.1532301 17.0147395,19.4774169 17.279206,19.7442232 C17.5436228,20.0114305 17.8647643,20.1448337 18.2428288,20.1448337 C18.6208437,20.1448337 18.9416873,20.0114305 19.2061042,19.7442232 C19.4705211,19.4774169 19.6028288,19.1532301 19.6028288,18.7715125 C19.6028288,18.3708519 19.4516625,18.0323326 19.149727,17.7559043 L19.149727,17.7559043 L19.149727,16.4823599 C19.149727,15.833385 18.9865012,15.2256036 18.6605955,14.6579636 C18.3348883,14.0906743 17.8933002,13.6444601 17.3359305,13.3202733 C17.3359305,13.2249066 17.33866,13.022246 17.3430769,12.7121412 C17.3476923,12.4020866 17.3476923,12.1733166 17.3430769,12.0254806 C17.33866,11.8772938 17.3262531,11.6793941 17.3077419,11.4314305 C17.2890819,11.1835672 17.2557816,10.9595581 17.2085856,10.7591526 C17.1613896,10.5588474 17.0998511,10.3680638 17.0241191,10.1868519 Z M5.54734491,16.4823098 C5.79295285,16.4823098 6.00550868,16.5732164 6.18511166,16.7542779 C6.36461538,16.9354396 6.45439206,17.1501276 6.45439206,17.3981412 C6.45439206,17.6461549 6.36461538,17.8608428 6.18511166,18.0419544 C6.00565757,18.2233667 5.79310174,18.3139226 5.54734491,18.3139226 C5.30158809,18.3139226 5.0892804,18.2233667 4.90977667,18.0419544 C4.73037221,17.8607927 4.64059553,17.6461048 4.64059553,17.3981412 C4.64059553,17.1501276 4.73037221,16.9353895 4.90977667,16.7542779 C5.08933002,16.5731663 5.3017866,16.4823098 5.54734491,16.4823098 Z M10.9883375,0 C12.4902233,0 13.7725062,0.536469248 14.8353846,1.60940774 C15.8980149,2.68264692 16.4294293,3.97748975 16.4294293,5.49403645 C16.4294293,7.01083371 15.8980149,8.30562642 14.8353846,9.37861503 C13.7728536,10.4516036 12.4906203,10.9883235 10.9883375,10.9883235 C9.48640199,10.9883235 8.20426799,10.4516036 7.14143921,9.37861503 C6.07870968,8.30562642 5.54734491,7.01083371 5.54734491,5.49403645 C5.54734491,3.97743964 6.07870968,2.68264692 7.14143921,1.60940774 C8.20397022,0.536469248 9.48645161,0 10.9883375,0 Z" id="Combined-Shape"></path>
            </g>
        </g>
    </g>
</svg>
