<?xml version="1.0" encoding="UTF-8"?>
<svg width="22px" height="22px" viewBox="0 0 22 22" version="1.1" xmlns="http://www.w3.org/2000/svg" xmlns:xlink="http://www.w3.org/1999/xlink">

    <g id="Page-1" stroke="none" stroke-width="1" fill="none" fill-rule="evenodd">
        <g id="icons" transform="translate(-165.000000, -153.000000)" fill="#585F73">
            <g id="fa-mdchat" transform="translate(165.000000, 153.000000)">
                <path d="M0,8.4052974 C0,11.3847922 2.0609382,14.1349396 5.40048263,15.6436469 C4.82447782,18.7568234 3.76221711,21.2414544 3.69814095,21.5209444 C3.66762252,21.5868255 3.73631948,21.8622637 3.92043846,21.9377449 C4.10455744,22.0132261 4.37934506,21.959397 4.42261966,21.8179507 C4.49719692,21.6622293 5.77949457,19.4328351 7.99794928,16.4939549 C8.97007894,16.7039574 9.97876798,16.8103061 11,16.8103061 C17.0655523,16.8103061 22,13.039789 22,8.4052974 C22.0000972,3.77051705 17.0655523,0 11,0 C4.93454491,0 0,3.77051705 0,8.4052974 Z M8.2001065,15.2739711 L7.96420116,15.2183315 L7.81887396,15.410401 C7.0707588,16.3996088 6.44042575,16.9724246 6.03524621,17.5307199 C6.19592874,16.6878939 6.28298761,15.8007207 6.42932022,15.0078346 L6.48233265,14.7201374 L6.21059822,14.6058728 C3.18934634,13.33322 1.40499656,11.1319661 1.40499656,8.54956748 C1.40499656,4.59608385 5.79614361,1.37948485 11.0905322,1.37948485 C16.3849208,1.37948485 20.6922727,4.59617425 20.6922727,8.54956741 C20.6922727,12.5029606 14.3662091,16.9430244 8.2001065,15.2739711 Z M12.8901941,3.44572858 L12.8724194,6.41286609 L15.8840304,6.40445782 L15.8840304,10.0312539 L12.8724194,10.0396621 L12.8901941,13.1324766 L9.20173938,13.1324766 L9.1839647,10.0396621 L6.2076818,10.0312539 L6.2076818,6.40445782 L9.18396456,6.41286624 L9.2017393,3.44572872 L12.8901941,3.44572858 Z M11.6427133,4.65323478 L10.4487785,4.65323455 L10.4487786,7.70849531 L7.44358352,7.70849517 L7.44358334,8.93069147 L10.4487784,8.9306916 L10.4487785,11.9116943 L11.6427133,11.9116945 L11.6427132,8.93069183 L14.7201869,8.93069147 L14.7201871,7.70849517 L11.6427134,7.70849554 L11.6427133,4.65323478 Z" id="Combined-Shape"></path>
            </g>
        </g>
    </g>
</svg>
