<?xml version="1.0" encoding="UTF-8"?>
<svg width="18px" height="22px" viewBox="0 0 18 22" version="1.1" xmlns="http://www.w3.org/2000/svg" xmlns:xlink="http://www.w3.org/1999/xlink">

    <g id="Page-1" stroke="none" stroke-width="1" fill="none" fill-rule="evenodd">
        <g id="icons" transform="translate(-712.000000, -330.000000)" fill="#585F73" fill-rule="nonzero">
            <g id="fa-medal" transform="translate(710.000000, 330.000000)">
                <path d="M11.0304921,0 L12.2386403,0.989783328 L13.7115433,0.438577849 L14.5262663,1.75800983 L16.1013215,1.70511531 L16.4352945,3.21198088 L17.9430561,3.66228205 L17.7588541,5.19426902 L19.034795,6.09926761 L18.3525918,7.49043515 L19.259701,8.75201812 L18.1519229,9.84989327 L18.5921827,11.3316374 L17.1806567,12.0178007 L17.105094,13.5596269 L15.5427989,13.7592025 L14.9604669,15.1925181 L13.4151378,14.8857579 L12.3893381,16.0566944 L11.0300643,15.2754188 L9.67029164,16.0566944 L8.64406423,14.8857579 L7.09923413,15.1925181 L6.51690211,13.7592025 L4.95417932,13.5596269 L4.87861659,12.0178007 L3.46709054,11.3316374 L3.90735037,9.84989327 L2.79999995,8.75201812 L3.70703785,7.49043515 L3.02397929,6.09926761 L4.30141713,5.19385033 L4.11678744,3.66186336 L5.62405004,3.21156219 L5.95802305,1.70469662 L7.53307825,1.75759114 L8.34858545,0.438159159 L9.82056168,0.989364638 L11.0304921,0 Z M10.6929769,2.05627334 L10.0794496,2.55795693 L9.33725148,2.28002874 L8.96084969,2.06890512 L8.7054139,2.48218185 L8.28534729,3.1618194 L7.48682113,3.13500279 L7.04861298,3.153218 L6.96958681,3.50977921 L6.7943805,4.30029923 L6.01856008,4.53207891 L5.62775767,4.68089074 L5.66970445,5.02894915 L5.76789579,5.84370356 L5.09836518,6.31825079 L4.76188449,6.51180218 L4.94414988,6.88301733 L5.30815591,7.62437892 L4.82603214,8.29495634 L4.67872614,8.67393705 L4.87768032,8.87118883 L5.46335397,9.45185105 L5.22845681,10.242424 L5.14292541,10.6138865 L5.48115377,10.7783042 L6.21520064,11.135135 L6.25515262,11.9503386 L6.3397505,12.3471967 L6.69149274,12.3921177 L7.49052963,12.4941629 L7.7937326,13.2404477 L7.96854625,13.6147999 L8.37563546,13.5339633 L9.15608512,13.3789877 L9.68052892,13.9773838 L9.96656026,14.2969916 L10.3434695,14.0804334 L11.0301904,13.6858687 L11.7168487,14.0805423 L12.1303098,14.2608871 L12.3784854,13.9775979 L12.9028933,13.3789934 L13.6834831,13.5339467 L14.111407,13.6208754 L14.2659684,13.2404477 L14.5691594,12.4941923 L15.3681612,12.3921237 L15.7816455,12.4089341 L15.8041207,11.9503386 L15.8440726,11.135135 L16.5781195,10.7783042 L16.9584745,10.6720716 L16.8308165,10.242424 L16.5958678,9.45167783 L17.1817819,8.8710015 L17.4987401,8.66370937 L17.2336275,8.29499803 L16.7517293,7.62478703 L17.115179,6.88363049 L17.2541567,6.52595695 L16.9615294,6.31840243 L16.2926224,5.8439604 L16.3905215,5.0297444 L16.4941614,4.66790108 L16.0409043,4.53253341 L15.2649823,4.30080007 L15.0897577,3.5101979 L15.0006694,3.12104321 L14.5725234,3.13542148 L13.7736014,3.16225139 L13.3536191,2.4820962 L13.1567503,2.11773205 L12.7216838,2.28054728 L11.978807,2.55855457 L11.3652334,2.05588036 L11.0398477,1.78930606 L10.6929769,2.05627334 Z M14.778546,16.0724651 L13.7610155,15.8706565 L13.0848003,16.6416045 L12.5863714,17.2107438 L11.9257678,16.8313409 L11.0305633,16.3160729 L10.1349311,16.8313409 L9.47475526,17.2103252 L8.97539967,16.6420929 L8.29961224,15.8702378 L7.28165396,16.0720464 L6.73510731,16.1805569 L6.73510731,22 L6.82535487,22 L11.0301356,18.2924296 L15.2344887,22 L15.325663,22 L15.325663,16.1809756 L14.778546,16.0724651 L14.778546,16.0724651 Z M6.86320752,8.4519569 C6.60943081,8.4519569 6.40505501,8.25105545 6.40505501,8.00347005 C6.40505501,5.96200705 7.82392347,4.22283827 9.85392333,3.77344427 C10.0995022,3.72006128 10.3459365,3.87030123 10.4018244,4.11202497 C10.4572846,4.3537487 10.302381,4.59365811 10.0559467,4.64836695 C8.47076895,4.99860119 7.32036204,6.40951695 7.32036204,8.00249311 C7.32136004,8.25105545 7.11655653,8.4519569 6.86320752,8.4519569 L6.86320752,8.4519569 Z" id="Combined-Shape"></path>
            </g>
        </g>
    </g>
</svg>
