<?xml version="1.0" encoding="UTF-8"?>
<svg width="22px" height="22px" viewBox="0 0 22 22" version="1.1" xmlns="http://www.w3.org/2000/svg" xmlns:xlink="http://www.w3.org/1999/xlink">

    <g id="Page-1" stroke="none" stroke-width="1" fill="none" fill-rule="evenodd">
        <g id="icons" transform="translate(-373.000000, -212.000000)" fill="#585F73">
            <g id="fa-medical-records" transform="translate(373.000000, 212.000000)">
                <path d="M1.42782922,0 C0,0 0.0630471926,0.421863817 0,1.39329529 C0.0493998689,9.36910822 0.0138880263,19.2850301 0.00694401313,20.6425151 C0,22 1.42481126,22 1.42481126,22 C1.42481126,22 9.57011084,22 17.8996735,22 C19.2772034,22 19.2772034,20.6728363 19.2772034,20.6728363 L19.2772034,17.9068909 L22,17.9068909 L21.9760957,0 L1.42782922,0 Z M4.50164795,17.8750014 C4.3115542,17.8750014 4.15789795,18.0389014 4.15789795,18.2416681 C4.15789795,18.4444348 4.3115542,18.6083348 4.50164795,18.6083348 L14.7971954,18.6083348 C14.9872892,18.6083348 15.1409454,18.4444348 15.1409454,18.2416681 C15.1409454,18.0389014 14.9872892,17.8750014 14.7971954,17.8750014 L4.50164795,17.8750014 Z M5.28087616,16.5000028 C5.09078241,16.5000028 4.93712616,16.6639028 4.93712616,16.8666695 C4.93712616,17.0694362 5.09078241,17.2333362 5.28087616,17.2333362 L14.0874557,17.2366993 C14.2775495,17.2366993 14.4312057,17.0727993 14.4312057,16.8700327 C14.4312057,16.667266 14.2775495,16.503366 14.0874557,16.503366 L5.28087616,16.5000028 Z M4.50164795,15.1250014 C4.3115542,15.1250014 4.15789795,15.2889014 4.15789795,15.4916681 C4.15789795,15.6944348 4.3115542,15.8583348 4.50164795,15.8583348 L14.7971954,15.8583348 C14.9872892,15.8583348 15.1409454,15.6944348 15.1409454,15.4916681 C15.1409454,15.2889014 14.9872892,15.1250014 14.7971954,15.1250014 L4.50164795,15.1250014 Z M1.38557781,20.6281891 L1.38557781,1.39715576 L17.8882723,1.39715576 L17.8882723,3.79310345 L17.8882723,4.55172414 L17.8882723,7.5862069 L17.8882723,8.34482759 L17.8882723,11.3793103 L17.8882723,12.137931 L17.8882723,15.1724138 L17.8882723,15.9310345 L17.8882723,19.7241379 L17.8882723,20.6281891 L1.38557781,20.6281891 Z M19.2634549,1.38916279 L20.6103023,1.38916279 L20.6103023,4.12936401 L19.2634549,4.12936401 L19.2634549,1.38916279 Z M19.2634549,5.51416279 L20.6103023,5.51416279 L20.6103023,8.25436401 L19.2634549,8.25436401 L19.2634549,5.51416279 Z M19.2634549,9.63916279 L20.6103023,9.63916279 L20.6103023,12.379364 L19.2634549,12.379364 L19.2634549,9.63916279 Z M20.6103023,13.7641628 L20.6103023,16.504364 L19.2634549,16.504364 L19.2634549,13.7641628 L20.6103023,13.7641628 Z M11,3.23323059 L11,6.06896552 L13.7503357,6.06896552 L13.7503357,9.10344828 L11,9.10344828 L11,11.9374237 L8.30203247,11.9374237 L8.30203247,9.10344828 L5.52198792,9.10344828 L5.52198792,6.06896552 L8.30203247,6.06896552 L8.30203247,3.23323059 L11,3.23323059 Z M6.58613586,7.21488953 L9.29216003,7.21488953 L9.29216003,4.16142273 L9.97496033,4.16142273 L9.97496033,7.21488953 L12.6934052,7.21488953 L12.6934052,7.94375795 L9.97496033,7.94375795 L9.97496033,11 L9.29216003,11 L9.29216003,7.94375795 L6.58613586,7.94375795 L6.58613586,7.21488953 Z" id="Combined-Shape"></path>
            </g>
        </g>
    </g>
</svg>
