<?xml version="1.0" encoding="UTF-8"?>
<svg width="22px" height="18px" viewBox="0 0 22 18" version="1.1" xmlns="http://www.w3.org/2000/svg" xmlns:xlink="http://www.w3.org/1999/xlink">

    <g id="Page-1" stroke="none" stroke-width="1" fill="none" fill-rule="evenodd">
        <g id="icons" transform="translate(-586.000000, -509.000000)" fill="#585F73" fill-rule="nonzero">
            <g id="fa-medical-computer" transform="translate(586.000000, 507.000000)">
                <path d="M13.6147375,15.8510191 C13.2452111,15.8510191 12.9455797,16.186989 12.9455797,16.5518317 C12.9455797,16.9166743 13.2750774,17.2401545 13.6446037,17.2401545 L20.0551135,17.2401545 C20.4246398,17.2401545 20.7242713,16.9444266 20.7242713,16.5795839 L20.7242713,2.66057057 C20.7242713,2.29572789 20.4246398,2 20.0551135,2 L2.02452885,2 C1.6549727,2 1.35537105,2.29570481 1.35537105,2.66057057 L1.32550481,6.02304972 C1.32550481,6.38792793 1.58784086,6.68367284 2.02452885,6.68367284 C2.68445262,6.68367284 2.68445262,6.02304972 2.68445262,6.02304972 L2.68445262,3.37442211 L19.3541956,3.37442211 L19.3541956,15.8510191 L13.6147375,15.8510191 Z M2.67574606,10.8218499 C2.67574606,10.4569842 2.37614441,10.1612793 2.00658826,10.1612793 C1.63703212,10.1612793 1.30418187,10.4569842 1.30418187,10.8218499 L1.32212245,16.5518317 C1.32212245,16.9166974 1.63703212,17.2299229 2.00658826,17.2299229 L8.46457098,17.2299229 C8.83412712,17.2299229 9.11842076,16.9166974 9.11842076,16.5518317 C9.11842076,16.1869659 8.81881911,15.8596441 8.44926296,15.8596441 L2.67574606,15.8596441 L2.67574606,10.8218499 Z M4.09887114,8.92555184 L5.4564935,11.1858012 C5.59090406,11.3957171 5.83397974,11.5135495 6.08470399,11.4905125 C6.33610726,11.4670674 6.552581,11.3062671 6.64485773,11.0744674 L7.79111188,8.38283861 L8.00938191,7.8346396 L9.54279553,12.6394163 C9.63055774,12.9144634 9.88896713,13.1014772 10.1786566,13.101513 C10.5006824,13.0911566 10.7600688,12.8876755 10.8314752,12.5961665 L11.4067873,10.5387624 L11.8049555,8.92549928 L13.8478904,8.92549928 C14.2174167,8.92549928 14.53971,8.63276514 14.53971,8.26792246 C14.53971,7.90307978 14.2174167,7.53565543 13.8478904,7.53565543 L11.1964913,7.53565543 C10.8875217,7.53565543 10.6197581,7.83970911 10.5471095,8.13619196 L10.0909267,9.73235909 L10.047868,9.88301977 L10.0558703,9.85035362 L8.68402174,5.551729 C8.59875223,5.28465282 8.35223199,5.09965252 8.06905954,5.09005587 C7.78499414,5.08139688 7.52643498,5.24883559 7.4229944,5.50860503 L6.2497725,8.26792246 L5.83626745,9.30645071 L4.96028391,7.93858388 C4.83765685,7.74709012 4.62314767,7.53576054 4.39365502,7.53576054 L0.700497506,7.53576054 C0.330941362,7.53576054 0.054001543,7.9031618 0.054001543,8.26802757 C0.054001543,8.63288088 0.330928416,8.92549928 0.700497506,8.92549928 L4.09887114,8.92555184 Z M0.669157796,18.6424811 C0.322804101,18.6424811 0,18.9523241 0,19.3171899 C0,19.6820557 0.316546734,19.9955943 0.669157796,19.9955943 L21.3308422,19.9955943 C21.8451009,19.9955943 22,19.6820326 22,19.3171899 C22,18.9523472 21.9015018,18.6424811 21.3308422,18.6424811 L0.669157796,18.6424811 Z M11.0130715,17.2634197 C11.4137576,17.2634197 11.738633,16.9428135 11.738633,16.5472997 C11.738633,16.151828 11.413747,15.8312323 11.0130715,15.8312323 C10.6123699,15.8312323 10.2874032,16.1518531 10.2874032,16.5472997 C10.2874032,16.9427883 10.6123593,17.2634197 11.0130715,17.2634197 Z" id="Shape"></path>
            </g>
        </g>
    </g>
</svg>
