<?xml version="1.0" encoding="UTF-8"?>
<svg width="19px" height="23px" viewBox="0 0 19 23" version="1.1" xmlns="http://www.w3.org/2000/svg" xmlns:xlink="http://www.w3.org/1999/xlink">

    <g id="Page-1" stroke="none" stroke-width="1" fill="none" fill-rule="evenodd">
        <g id="icons" transform="translate(-38.000000, -744.000000)" fill="#585F73">
            <g id="fa-medical-tags" transform="translate(36.000000, 744.000000)">
                <path d="M12.6740479,0.00614929199 C12.8675979,0.00614929199 13.0240479,0.170049292 13.0240479,0.372815959 L13.0240479,0.372815959 L13.0240479,2.06347656 L18.6778068,2.06358269 C18.9423276,2.06591744 20.036377,2.11961665 20.036377,3.35469869 L20.036377,3.35469869 L20.0362628,20.669429 C20.0337506,20.9396225 19.9759718,22.0061493 18.6470581,22.0061493 L18.6470581,22.0061493 L3.39150391,22.0061493 C3.19795391,22.0061493 2.04174805,22.0061493 2.04174805,20.6376953 L2.04174805,20.6376953 L2.04263553,3.28300983 C2.05195414,2.97086571 2.15911812,2.06347656 3.39150391,2.06347656 L3.39150391,2.06347656 L5.02160645,2.06347656 L5.02160645,0.372815959 C5.02160645,0.170049292 5.17805645,0.00614929199 5.37160645,0.00614929199 L5.37160645,0.00614929199 Z M4.33427739,12.5419963 C4.14072739,12.5419963 3.98427739,12.7058963 3.98427739,12.9086629 C3.98427739,13.1114296 4.14072739,13.2753296 4.33427739,13.2753296 L17.6623047,13.275331 C17.8558547,13.275331 18.0123047,13.111431 18.0123047,12.9086643 C18.0123047,12.7058977 17.8558547,12.5419977 17.6623047,12.5419977 L4.33427739,12.5419963 Z M17.6928956,11.0465047 C17.8864456,11.0465047 18.0428956,10.8826047 18.0428956,10.6798381 C18.0428956,10.4770714 17.8864456,10.3131714 17.6928956,10.3131714 L14.1306885,10.3131714 C13.9371385,10.3131714 13.7806885,10.4770714 13.7806885,10.6798381 C13.7806885,10.8826047 13.9371385,11.0465047 14.1306885,11.0465047 L17.6928956,11.0465047 Z M17.6452149,8.59126483 C17.8387649,8.59126483 17.9952149,8.42736483 17.9952149,8.22459816 C17.9952149,8.02183149 17.8387649,7.85793149 17.6452149,7.85793149 L14.1737549,7.85793149 C13.9802049,7.85793149 13.8237549,8.02183149 13.8237549,8.22459816 C13.8237549,8.42736483 13.9802049,8.59126483 14.1737549,8.59126483 L17.6452149,8.59126483 Z M17.6903321,6.23333333 C17.8838821,6.23333333 18.0403321,6.06943333 18.0403321,5.86666667 C18.0403321,5.6639 17.8838821,5.5 17.6903321,5.5 L14.1732422,5.5 C13.9796922,5.5 13.8232422,5.6639 13.8232422,5.86666667 C13.8232422,6.06943333 13.9796922,6.23333333 14.1732422,6.23333333 L17.6903321,6.23333333 Z M4.41682134,17.6 C4.22327134,17.6 4.06682134,17.7639 4.06682134,17.9666667 C4.06682134,18.1694333 4.22327134,18.3333333 4.41682134,18.3333333 L17.6346192,18.3333333 C17.8281692,18.3333333 17.9846192,18.1694333 17.9846192,17.9666667 C17.9846192,17.7639 17.8281692,17.6 17.6346192,17.6 L4.41682134,17.6 Z M4.35000005,15.8583333 L9.25000005,15.8583333 C9.44355005,15.8583333 9.60000005,15.6944333 9.60000005,15.4916667 C9.60000005,15.2889 9.44355005,15.125 9.25000005,15.125 L4.35000005,15.125 C4.15645005,15.125 4.00000005,15.2889 4.00000005,15.4916667 C4.00000005,15.6944333 4.15645005,15.8583333 4.35000005,15.8583333 L4.35000005,15.8583333 Z M13.0712891,15.125 C12.8777391,15.125 12.7212891,15.2889 12.7212891,15.4916667 C12.7212891,15.6944333 12.8777391,15.8583333 13.0712891,15.8583333 L17.6212891,15.8583333 C17.8148391,15.8583333 17.9712891,15.6944333 17.9712891,15.4916667 C17.9712891,15.2889 17.8148391,15.125 17.6212891,15.125 L13.0712891,15.125 Z M11.5985,15.7469629 C11.6615,15.6772963 11.7,15.5819629 11.7,15.4866296 C11.7,15.3909296 11.6615,15.2955963 11.5985,15.2299629 C11.469,15.0906296 11.22715,15.0906296 11.1015,15.2262963 C11.03815,15.2955963 11,15.3909296 11,15.4866296 C11,15.5819629 11.03815,15.6772963 11.1015,15.7469629 C11.16765,15.8129629 11.25515,15.8532963 11.35,15.8532963 C11.441,15.8532963 11.532,15.8129629 11.5985,15.7469629 L11.5985,15.7469629 Z M6.02526855,1.00328903 L12.0166016,1.00328903 L12.0166016,9.46508789 L9.23974609,7.8404541 C9.11549609,7.74218743 8.94434609,7.74218743 8.82009609,7.8404541 L6.02526855,9.46508789 L6.02526855,1.00328903 Z" id="Combined-Shape"></path>
            </g>
        </g>
    </g>
</svg>
