<?xml version="1.0" encoding="UTF-8"?>
<svg width="18px" height="22px" viewBox="0 0 18 22" version="1.1" xmlns="http://www.w3.org/2000/svg" xmlns:xlink="http://www.w3.org/1999/xlink">

    <g id="Page-1" stroke="none" stroke-width="1" fill="none" fill-rule="evenodd">
        <g id="icons" transform="translate(-231.000000, -212.000000)" fill="#585F73">
            <g id="fa-medicalrecord-o" transform="translate(229.000000, 212.000000)">
                <path d="M12.3404106,1.37836742 L12.3404106,0.915918444 C12.3404106,0 11.5039906,0 11,0 C10.4960094,0 9.65089205,0 9.65089205,0.915918444 L9.65089205,1.37836742 L3.54267228,1.37836742 C3.09479194,1.37836742 2.19295862,1.73721313 2.19295862,2.78457642 L2.19295862,20.6602478 C2.19295862,21.9218805 3.27594864,22 3.54267228,22 L18.5931746,22 C18.7510551,22 19.9166431,21.9218805 19.9166431,20.6602478 L19.9166431,2.78457642 C19.9211032,1.52294376 18.7117921,1.37836742 18.5931746,1.37836742 L12.3404106,1.37836742 Z M4.7669503,2.76460266 L6.08759342,6.37297058 C6.2436967,6.6827665 6.55590328,6.87582772 6.89933051,6.87582772 L15.043462,6.87582772 C15.3868892,6.87582772 15.6990958,6.6827665 15.8551991,6.37297058 L17.3571341,2.76460266 L18.5709752,2.76460271 L18.5709752,20.639267 L3.46083287,20.639267 L3.46083287,2.76460271 L4.7669503,2.76460266 Z M15.8864267,2.74689484 L14.7392665,5.49706268 L7.27547782,5.49706268 L6.31883458,2.74689484 L15.8864267,2.74689484 Z M11.0035059,14.5606814 C13.7152429,14.5606814 15.8427077,16.2308855 15.8337875,18.3635386 C15.8337875,18.8708855 15.6230481,19.2794571 15.1190575,19.2794571 C14.6150669,19.2794571 14.4435509,18.8708854 14.4435509,18.3635384 C14.4435509,17.0628558 12.6403603,15.9141061 11.0035059,15.9141061 C9.3711115,15.9141061 7.58527484,16.9200693 7.58527484,18.3635384 C7.58527484,18.8708854 7.47265343,19.2794571 6.96866282,19.2794571 C6.46467221,19.2794571 6.16430398,18.8708855 6.16430398,18.3635386 C6.16430398,16.2308855 8.29176877,14.5606814 11.0035059,14.5606814 Z M11,7.83020408 C12.4584507,7.83020408 13.6492958,9.00653061 13.6492958,10.4567347 C13.6492958,11.9069388 12.4629108,13.0832653 11,13.0832653 C9.5370892,13.0832653 8.35070423,11.9069388 8.35070423,10.4567347 C8.35070423,9.00653061 9.5370892,7.83020408 11,7.83020408 Z" id="Combined-Shape"></path>
            </g>
        </g>
    </g>
</svg>
