<?xml version="1.0" encoding="UTF-8"?>
<svg width="22px" height="20px" viewBox="0 0 22 20" version="1.1" xmlns="http://www.w3.org/2000/svg" xmlns:xlink="http://www.w3.org/1999/xlink">

    <g id="Page-1" stroke="none" stroke-width="1" fill="none" fill-rule="evenodd">
        <g id="icons" transform="translate(-710.000000, -390.000000)" fill="#585F73" fill-rule="nonzero">
            <g id="fa-medicine-drugs" transform="translate(710.000000, 389.000000)">
                <path d="M8.6171582,4.69061336 C7.87735421,3.55000421 6.61558111,2.86942386 5.23320164,2.86942386 C4.467383,2.86942386 3.72092059,3.08513774 3.0728216,3.4937794 C2.17100836,4.06236829 1.55319978,4.93549819 1.32432535,5.96164569 C1.095898,6.98582351 1.28446348,8.02968191 1.85848245,8.91464078 L7.52692427,17.6541132 C8.26674211,18.7947087 9.5284951,19.4752834 10.9108911,19.4753186 C11.6767233,19.4753186 12.4232188,19.2595978 13.0712712,18.8509631 C13.9731066,18.2823602 14.5908958,17.4092668 14.8197674,16.3830968 C15.0481948,15.3589189 14.8596293,14.3150605 14.2856103,13.4301017 L8.6171582,4.69061336 Z M15.3173973,12.7608823 C16.0709163,13.9225746 16.3204647,15.3040378 16.0200876,16.65081 C15.7197104,17.9975822 14.9054289,19.148382 13.7271763,19.8912646 C12.8827689,20.4237126 11.9088525,20.7051311 10.910984,20.7051311 C9.1131774,20.7050853 7.46247252,19.8146972 6.49514767,18.3233485 L0.826695534,9.58386014 C0.0731764456,8.42216788 -0.17637192,7.04070465 0.124005214,5.69393247 C0.424382349,4.34720605 1.23866387,3.19636045 2.4169165,2.45347786 C3.26137035,1.92102985 4.23524027,1.63961135 5.23320164,1.63961135 C7.03086897,1.63961135 8.68162027,2.52999953 9.64894512,4.021394 L15.3173973,12.7608823 Z M6.61832154,13.9081172 C6.87498798,13.7463479 7.21563967,13.8201905 7.38042977,14.074238 L7.38042977,14.074238 L8.87476585,16.4822303 C9.41838988,17.3203033 10.3464715,17.8206115 11.3588991,17.8206115 C11.6637578,17.8206115 11.9120101,18.0653972 11.9120101,18.3688294 C11.9120101,18.67225 11.6637233,18.9170472 11.3588991,18.9170472 C9.9693466,18.9170472 8.69228205,18.2284441 7.94429125,17.0751498 L7.94429125,17.0751498 L6.44995509,14.6671574 C6.28403783,14.4113721 6.35992856,14.0710212 6.61832154,13.9081172 Z M13.0345702,13.2766771 C13.291233,13.1148377 13.6319577,13.1886638 13.7967595,13.4427294 C14.3797534,14.3415689 14.5730917,15.4118334 14.3406601,16.4541975 C14.2842897,16.7070419 14.0581488,16.8841752 13.8009089,16.8841752 C13.7613076,16.8841752 13.7216213,16.8799524 13.6824061,16.8714634 C13.3840767,16.8067621 13.1943182,16.5142537 13.2605108,16.2175669 C13.4290468,15.4618457 13.2892213,14.6878158 12.8662534,14.0357177 C12.7003127,13.7799695 12.7762115,13.4395596 13.0345702,13.2766771 Z M11.8716661,3.79878238 C13.5050087,1.2806021 16.9081809,0.542529223 19.4609631,2.15198474 C20.6978742,2.9318512 21.5541246,4.14209188 21.8697163,5.55703224 C22.1854443,6.97263179 21.9228062,8.42653801 21.1309675,9.64715677 L21.1309675,9.64715677 L18.336815,13.9270239 C18.2108275,14.1214275 17.9948617,14.2374648 17.76345,14.2374648 C17.6344213,14.2374648 17.5082245,14.2011412 17.3983537,14.1319229 C17.0794228,13.9307625 16.9859802,13.5100591 17.1907996,13.1942496 L17.1907996,13.1942496 L17.542,12.662 L16.8832979,12.2821321 C16.5933728,12.0992666 16.4897727,11.7349577 16.6271672,11.4330343 L16.67567,11.3445726 C16.8785486,11.0315258 17.2977691,10.9402933 17.614086,11.1396014 C17.614086,11.1396014 17.9574557,11.3561012 18.2227869,11.5233965 L18.283,11.561 L19.9850107,8.91433724 C20.5366927,8.06371773 20.7454414,7.06566555 20.5829276,6.0774939 L20.5388211,5.84970128 C20.3019453,4.78754353 19.6604436,3.88108474 18.730181,3.29454802 C16.8091921,2.08336208 14.2452315,2.63897788 13.0176151,4.53161397 L13.0176151,4.53161397 L12.7024781,5.00510477 C12.4995954,5.31815808 12.0803058,5.40939502 11.7640174,5.21004783 C11.4450873,5.00888794 11.3516434,4.58818488 11.5564587,4.27238179 L11.5564587,4.27238179 Z M17.614086,12.5538376 L17.542,12.662 L17.614086,12.703711 L17.614086,12.5538376 Z M18.283,11.561 L18.2425456,11.6247214 C18.2425456,11.6247214 18.4364142,11.6580918 18.3834886,11.6247214 L18.3077622,11.5769748 L18.3077622,11.5769748 L18.283,11.561 Z M3.13616695,4.75072071 C3.40888998,4.88373662 3.52007523,5.21417131 3.38643398,5.48817647 C2.94261494,6.39814036 2.98544472,7.45161531 3.50039065,8.30760837 L5.00960597,10.7063031 C5.16570318,10.9657826 5.08274056,11.3043287 4.82482818,11.464104 C4.56513893,11.6249336 4.22596528,11.5439438 4.06880037,11.2826895 L2.55958497,8.88399463 C1.85090849,7.706134 1.79182436,6.25645224 2.4009641,5.0075307 C2.5345902,4.73355658 2.86345426,4.61770985 3.13616695,4.75072071 Z M16.736469,3.24958998 C17.4948148,3.24958998 18.2341906,3.46298494 18.8743927,3.8666675 C19.100639,4.00932771 19.1669977,4.30691006 19.0219225,4.53066454 C18.8776373,4.75330036 18.5786066,4.81811216 18.3535675,4.67619543 C17.8691528,4.37078319 17.3100527,4.20937985 16.736469,4.20937985 C15.6998185,4.20937985 14.749819,4.72078081 14.1941872,5.57733587 C14.103893,5.71656601 13.9496386,5.79798247 13.7859403,5.79798247 C13.6945228,5.79798247 13.6046196,5.77247046 13.5257417,5.72281721 C13.2995454,5.58014765 13.2332003,5.28251643 13.3783022,5.05878502 C14.1131154,3.92591449 15.3688596,3.24958998 16.736469,3.24958998 Z" id="Combined-Shape"></path>
            </g>
        </g>
    </g>
</svg>
