<?xml version="1.0" encoding="UTF-8"?>
<svg width="22px" height="22px" viewBox="0 0 22 22" version="1.1" xmlns="http://www.w3.org/2000/svg" xmlns:xlink="http://www.w3.org/1999/xlink">

    <g id="Page-1" stroke="none" stroke-width="1" fill="none" fill-rule="evenodd">
        <g id="icons" transform="translate(-443.000000, -153.000000)" fill="#585F73">
            <g id="fa-medicines-o" transform="translate(443.000000, 153.000000)">
                <path d="M11.0848027,0.733951081 C9.3711515,-0.499952287 6.96533731,-0.122212595 5.72116453,1.57622727 L2.98882627,5.30531556 L0.731868643,8.38556055 C-0.512504209,10.0840004 -0.131359377,12.4697718 1.58149149,13.7038735 C2.26154991,14.1939035 3.05084984,14.4296932 3.83354725,14.4296932 C5.02179878,14.4296932 6.19454441,13.8857004 6.94492955,12.8617957 L9.67716778,9.13270744 L11.9342254,6.05226406 C13.1785983,4.3538242 12.7976535,1.96805284 11.0848027,0.733951081 L11.0848027,0.733951081 Z M2.45316269,12.5594806 C1.36373902,11.7746595 1.12132251,10.2573599 1.91272216,9.17710202 L4.06459955,6.27467545 L5.99456228,7.80361552 L7.97032133,9.22693795 L5.86424025,12.0239067 C5.07259883,13.1036851 3.54242519,13.3445415 2.45316269,12.5594806 Z M13.4668083,10.4925293 C14.9462705,9.83912296 16.5931963,9.79666692 18.105571,10.3720057 C19.4904973,10.8993335 20.6046206,11.891297 21.3070876,13.1734098 L21.3070876,13.1734098 L21.6177056,13.9134145 C22.1264989,15.2810346 22.1243982,16.7659047 21.5927961,18.139179 C21.0122756,19.6384326 19.8779445,20.8238289 18.3984823,21.4768385 C17.6095826,21.825216 16.7730647,22 15.9346461,22 C15.2006672,22 14.4654878,21.8659857 13.7597196,21.5974612 C12.3747934,21.0701334 11.26067,20.07817 10.5582031,18.7960572 L10.5582031,18.7960572 L10.2482853,18.0556556 C9.15677056,15.113492 10.5374952,11.7859505 13.4668083,10.4925293 Z M10.1529047,2.00693736 C11.2423284,2.79175851 11.4845838,4.3090581 10.6931841,5.38931595 L8.7196659,8.06997462 L6.77102448,6.65857384 L4.79534602,5.23525141 L6.74166601,2.54267109 C7.53298507,1.46241324 9.06331989,1.22187647 10.1529047,2.00693736 Z M20.3764315,14.7894161 C20.739191,15.7959323 20.5645281,16.853282 20.1742673,17.8617582 C19.7420669,18.978121 18.8975188,19.860559 17.7960052,20.346816 C15.628472,21.3032236 13.0297059,20.5136174 11.9205435,18.47715 L20.3764315,14.7894161 Z M15.94326,11.3480256 C17.5888802,11.3480256 19.2805798,12.1891631 20.0984556,13.6906938 L11.5041255,17.4493698 C10.7074717,15.2339214 11.8819152,12.7133369 14.0841974,11.741096 C14.6886308,11.4741995 15.3207487,11.3480256 15.94326,11.3480256 Z M18.0192377,0.523158842 C19.9152997,0.523158842 21.4580444,2.06590352 21.4580444,3.96196556 C21.4580444,5.8580276 19.9154061,7.40077228 18.0192377,7.40077228 C16.1230693,7.40077228 14.580431,5.8580276 14.580431,3.96196556 C14.580431,2.06590352 16.1231757,0.523158842 18.0192377,0.523158842 Z M18.0192377,1.89868153 C16.881376,1.89868153 15.9559537,2.82425496 15.9559537,3.96200811 C15.9559537,5.09976127 16.8814611,6.02524959 18.0192377,6.02524959 C19.1570143,6.02524959 20.0825217,5.09967616 20.0825217,3.961923 C20.0825217,2.82416985 19.1570143,1.89868153 18.0192377,1.89868153 Z" id="Combined-Shape"></path>
            </g>
        </g>
    </g>
</svg>
