<svg width="22" height="22" viewBox="0 0 22 22" fill="none" xmlns="http://www.w3.org/2000/svg">
<mask id="path-1-inside-1_11592_130671" fill="white">
<path d="M19.099 10L20.4776 6.17317C19.975 4.95991 19.2385 3.85752 18.3099 2.92893C17.3813 2.00035 16.2789 1.26375 15.0656 0.761205C13.8524 0.258658 12.552 -5.74026e-08 11.2388 0C9.92558 5.74026e-08 8.62522 0.258658 7.41196 0.761205C6.1987 1.26375 5.09631 2.00035 4.16773 2.92893C3.23914 3.85752 2.50255 4.95991 2 6.17317L3.37854 10H4.18082C4.97122 8.54084 6.96161 6 11.2388 6C15.5159 6 17.5063 8.54084 18.2967 10H19.099Z"/>
</mask>
<path d="M19.099 10V11.3H20.0125L20.3221 10.4406L19.099 10ZM20.4776 6.17317L21.7007 6.61376L21.8712 6.14046L21.6786 5.67568L20.4776 6.17317ZM11.2388 0V1.3V0ZM2 6.17317L0.798957 5.67568L0.60644 6.14045L0.776936 6.61375L2 6.17317ZM4.18082 10V11.3H4.9551L5.32389 10.6192L4.18082 10ZM18.2967 10L17.1536 10.6192L17.5224 11.3H18.2967V10ZM3.37854 10L2.15548 10.4406L2.46506 11.3H3.37854V10ZM21.6786 5.67568C21.1108 4.3047 20.2784 3.059 19.2291 2.00969L17.3906 3.84817C18.1985 4.65604 18.8393 5.61512 19.2766 6.67065L21.6786 5.67568ZM19.2291 2.00969C18.1798 0.96039 16.9341 0.128039 15.5631 -0.439839L14.5681 1.96225C15.6237 2.39946 16.5828 3.0403 17.3906 3.84817L19.2291 2.00969ZM15.5631 -0.439839C14.1921 -1.00772 12.7227 -1.3 11.2388 -1.3V1.3C12.3813 1.3 13.5126 1.52503 14.5681 1.96225L15.5631 -0.439839ZM11.2388 -1.3C9.75486 -1.3 8.28545 -1.00772 6.91447 -0.439838L7.90945 1.96225C8.96498 1.52503 10.0963 1.3 11.2388 1.3V-1.3ZM6.91447 -0.439838C5.54349 0.12804 4.29779 0.960392 3.24849 2.00969L5.08697 3.84817C5.89484 3.0403 6.85392 2.39946 7.90945 1.96225L6.91447 -0.439838ZM3.24849 2.00969C2.19919 3.059 1.36683 4.3047 0.798957 5.67568L3.20104 6.67065C3.63826 5.61512 4.2791 4.65604 5.08697 3.84817L3.24849 2.00969ZM20.3221 10.4406L21.7007 6.61376L19.2545 5.73257L17.876 9.5594L20.3221 10.4406ZM11.2388 7.3C14.8734 7.3 16.499 9.4106 17.1536 10.6192L19.4398 9.38082C18.5137 7.67109 16.1585 4.7 11.2388 4.7V7.3ZM18.2967 11.3H19.099V8.7H18.2967V11.3ZM5.32389 10.6192C5.97856 9.4106 7.60416 7.3 11.2388 7.3V4.7C6.31907 4.7 3.96387 7.67109 3.03774 9.38082L5.32389 10.6192ZM0.776936 6.61375L2.15548 10.4406L4.6016 9.55942L3.22306 5.73258L0.776936 6.61375ZM3.37854 11.3H4.18082V8.7H3.37854V11.3Z" fill="#585F73" mask="url(#path-1-inside-1_11592_130671)"/>
<path fill-rule="evenodd" clip-rule="evenodd" d="M11.2388 21C15.1048 21 18.2388 17.866 18.2388 14C18.2388 10.134 15.1048 7 11.2388 7C7.37278 7 4.23877 10.134 4.23877 14C4.23877 17.866 7.37278 21 11.2388 21ZM5.48877 14.0816C5.48877 17.3595 8.04656 19.7029 11.2971 19.7029C14.5476 19.7029 16.8892 17.1703 16.8892 13.8923C16.8892 10.6144 14.5476 8.30252 11.2971 8.30252C8.04656 8.30252 5.48877 10.8036 5.48877 14.0816Z" fill="#585F73"/>
<rect x="9.73877" y="2.5" width="3" height="1" rx="0.5" fill="#585F73"/>
<rect x="11.7388" y="1.5" width="3" height="1" rx="0.5" transform="rotate(90 11.7388 1.5)" fill="#585F73"/>
</svg>
