<?xml version="1.0" encoding="UTF-8"?>
<svg width="18px" height="22px" viewBox="0 0 18 22" version="1.1" xmlns="http://www.w3.org/2000/svg" xmlns:xlink="http://www.w3.org/1999/xlink">

    <g id="Page-1" stroke="none" stroke-width="1" fill="none" fill-rule="evenodd">
        <g id="icons" transform="translate(-516.000000, -212.000000)" fill="#585F73">
            <g id="fa-medlist" transform="translate(514.000000, 212.000000)">
                <path d="M2.94949256,0.026068776 C2.42354815,0.026068776 2,0.434156058 2,0.940901805 L2,21.0851663 C2,21.5919121 2.42354815,21.9999994 2.94949256,21.9999994 L18.9416999,22 C19.4676443,22 19.8911924,21.5919127 19.8911924,21.085167 L19.8911924,0.940902438 C19.8911924,0.438641168 19.4676443,0.0260694095 18.9416999,0.0260694095 L2.94949256,0.026068776 Z M3.41632361,20.656649 L3.41632346,1.39996451 L18.510806,1.39996506 L18.5108061,20.6566495 L3.41632361,20.656649 Z M15.9421151,12.3757548 C16.2191735,12.3757548 16.4437737,12.5907819 16.4437737,12.872585 L16.4437737,13.255098 C16.4437737,13.5294898 16.213827,13.7519282 15.9421151,13.7519282 L5.93604461,13.7519282 C5.65898622,13.7519282 5.43438601,13.5369011 5.43438601,13.255098 L5.43438601,12.872585 C5.43438601,12.5981932 5.66433272,12.3757548 5.93604461,12.3757548 L15.9421151,12.3757548 Z M11.1303364,2.74254054 C11.4047281,2.74254054 11.6271666,2.97147931 11.6271666,3.23739554 L11.627,5.49406878 L13.8846585,5.49488746 C14.1579594,5.49488746 14.3795135,5.70991456 14.3795135,5.99171766 L14.3795135,6.37423071 C14.3795135,6.64862246 14.1505747,6.87106091 13.8846585,6.87106091 L11.627,6.87006878 L11.6271666,9.12855283 C11.6271666,9.4018537 11.4121395,9.62340783 11.1303364,9.62340783 L10.7478233,9.62340783 C10.4734316,9.62340783 10.2509931,9.39446906 10.2509931,9.12855283 L10.25,6.87006878 L7.99350121,6.87106091 C7.72020033,6.87106091 7.4986462,6.65603381 7.4986462,6.37423071 L7.4986462,5.99171766 C7.4986462,5.71732591 7.72758497,5.49488746 7.99350121,5.49488746 L10.25,5.49406878 L10.2509931,3.23739554 C10.2509931,2.96409467 10.4660202,2.74254054 10.7478233,2.74254054 L11.1303364,2.74254054 Z M5.43438601,15.6249319 C5.43438601,15.3505401 5.66433272,15.1281017 5.93604461,15.1281017 L15.9421151,15.1281017 C16.2191735,15.1281017 16.4437737,15.3431288 16.4437737,15.6249319 L16.4437737,16.0074449 C16.4437737,16.2818367 16.213827,16.5042751 15.9421151,16.5042751 L5.93604461,16.5042751 C5.65898622,16.5042751 5.43438601,16.289248 5.43438601,16.0074449 L5.43438601,15.6249319 Z" id="Combined-Shape"></path>
            </g>
        </g>
    </g>
</svg>
