<?xml version="1.0" encoding="UTF-8"?>
<svg width="22px" height="22px" viewBox="0 0 22 22" version="1.1" xmlns="http://www.w3.org/2000/svg" xmlns:xlink="http://www.w3.org/1999/xlink">

    <g id="Page-1" stroke="none" stroke-width="1" fill="none" fill-rule="evenodd">
        <g id="icons" transform="translate(-443.000000, -389.000000)" fill="#585F73">
            <g id="fa-megaphone" transform="translate(443.000000, 389.000000)">
                <path d="M17.8699646,2.27899518 L17.8699646,2.97501772 L4.00113043,8.19662476 C3.894,7.25394545 2.86590131,6.8699646 2.01651001,6.8699646 C1.09346653,6.8699646 0,7.4807611 0,8.54100064 L0,13.4851229 C0,14.5453624 1.09346653,15.1793823 2.01651001,15.1793823 C2.86590131,15.1793823 4.0690628,14.7762669 4.17619324,13.8335876 L5.19680193,14.2027488 C5.0456715,14.3928228 4.9246715,14.6191537 4.85101932,14.8795442 C4.57458454,15.8590297 5.04328019,16.9148745 5.89697585,17.232397 L11.3563237,19.2638819 C11.5227585,19.3254087 11.690628,19.3550735 11.8561063,19.3550735 C12.5424106,19.3550735 13.1818454,18.8513223 13.404715,18.0619108 C13.4864976,17.770757 13.4960628,17.4752083 13.4558889,17.1917453 L17.8699646,19.1620738 L17.8699646,19.8580964 C17.8699646,21.0699557 18.8676453,22 19.9094696,22 C21.3220673,22 22,21.0144716 22,19.8026123 L22,2.22351114 C22,1.01165185 20.9645131,0 19.9094696,0 C18.8544261,0 17.8699646,1.06713589 17.8699646,2.27899518 Z M19.25,1.87019004 C19.25,1.59670413 19.4648438,1.375 19.7464066,1.375 L20.1285934,1.375 C20.4027512,1.375 20.625,1.59118652 20.625,1.87019004 L20.625,20.12981 C20.625,20.4032959 20.4101562,20.625 20.1285934,20.625 L19.7464066,20.625 C19.4722488,20.625 19.25,20.4088135 19.25,20.12981 L19.25,1.87019004 Z M1.375,8.75756836 C1.375,8.4772461 1.58984375,8.25 1.87140656,8.25 L2.25359344,8.25 C2.52775121,8.25 2.75,8.47241849 2.75,8.75756836 L2.75,13.2424316 C2.75,13.5227539 2.53515625,13.75 2.25359344,13.75 L1.87140656,13.75 C1.59724879,13.75 1.375,13.5275815 1.375,13.2424316 L1.375,8.75756836 Z M6.43556708,16.3086199 C6.17545656,16.2142696 6.0380762,15.9358966 6.13437635,15.6713141 L6.26509197,15.3121759 C6.35885945,15.0545518 6.64848959,14.9231917 6.90584478,15.0165425 L11.9659637,16.8520062 C12.2260742,16.9463564 12.3634545,17.2247295 12.2671544,17.489312 L12.1364388,17.8484502 C12.0426713,18.1060742 11.7530411,18.2374343 11.495686,18.1440835 L6.43556708,16.3086199 Z M4.15672302,9.71177673 L17.8761749,4.79689026 L17.8761749,17.3748169 L4.15672302,12.4238434 L4.15672302,9.71177673 Z" id="Combined-Shape"></path>
            </g>
        </g>
    </g>
</svg>
