<?xml version="1.0" encoding="UTF-8"?>
<svg width="23px" height="23px" viewBox="0 0 23 23" version="1.1" xmlns="http://www.w3.org/2000/svg" xmlns:xlink="http://www.w3.org/1999/xlink">

    <g id="Page-1" stroke="none" stroke-width="1" fill="none" fill-rule="evenodd">
        <g id="icons" transform="translate(-373.000000, -270.000000)" fill="#585F73">
            <g id="fa-microscope-o" transform="translate(373.000000, 271.000000)">
                <path d="M15.0928815,2.37145683 C15.7767297,1.80142484 16.7893512,1.8986396 17.3548411,2.5879806 L17.3548411,2.5879806 L19.1082981,4.73112411 C19.673788,5.42046511 19.5773479,6.44122006 18.8934996,7.01125204 L18.8934996,7.01125204 L16.8814077,8.68599717 C18.3762298,9.84373654 22.0058853,16.3450756 15.4544199,20.6391849 L15.4544199,20.6391849 L19.4107694,20.639185 C19.906121,20.639185 20.2699625,20.9418633 20.2699634,21.3455586 C20.2699643,21.7492539 19.9061215,22 19.4107699,22 L19.4107699,22 L0.929332679,22 C0.433981065,22 4.06141814e-17,21.7651197 0,21.3455586 C2.60376717e-17,20.9259975 0.433980579,20.6436039 0.929332193,20.6436039 L0.929332193,20.6436039 L13.4914315,20.6391849 C20.7688601,16.2720428 17.1493388,10.4503307 15.8210951,9.55772251 L15.8210951,9.55772251 L11.9454261,12.7999489 C11.2615778,13.3699809 10.2489564,13.2727661 9.68346651,12.5834251 L9.68346651,12.5834251 L9.27466695,12.1308289 L8.09546709,13.1118142 C7.70970654,13.4299716 7.26977567,13.4962544 6.95415341,13.1118142 C6.63853114,12.7229552 6.83645539,12.2961997 7.21783229,11.9780423 L7.21783229,11.9780423 L8.39264851,10.9970571 L7.92124218,10.4402816 C7.35575229,9.75094064 7.45219242,8.73018569 8.13604067,8.16015371 L8.13604067,8.16015371 Z M3.23576677,12.841422 C3.434915,12.6422737 3.74760336,12.6510459 3.94587417,12.8493167 L3.94587417,12.8493167 L7.11799985,16.0214423 C7.3196852,16.2231277 7.31980523,16.5376391 7.12589455,16.7315497 L7.12589455,16.7315497 L6.8555753,17.001869 C6.65642707,17.2010172 6.34373871,17.1922451 6.1454679,16.9939743 L6.1454679,16.9939743 L2.97334222,13.8218486 C2.77165687,13.6201632 2.77153684,13.3056519 2.96544752,13.1117412 L2.96544752,13.1117412 Z M16.0944231,3.2310639 L8.71927277,9.41954986 L10.9294463,12.0535321 L18.3045967,5.86504618 L16.0944231,3.2310639 Z M18.3457752,0.0531783342 C18.5615226,-0.127855169 18.8722565,-0.0918638346 19.0524924,0.122932929 L19.0524924,0.122932929 L21.9360782,3.55945668 C22.119418,3.7779526 22.0921261,4.09127761 21.8820529,4.26754998 L21.8820529,4.26754998 L21.5892025,4.5132807 C21.3734551,4.6943142 21.0627212,4.65832287 20.8824853,4.44352611 L20.8824853,4.44352611 L17.9988995,1.00700235 C17.8155596,0.788506437 17.8428515,0.475181421 18.0529248,0.298909056 L18.0529248,0.298909056 Z" id="Combined-Shape"></path>
            </g>
        </g>
    </g>
</svg>
