<?xml version="1.0" encoding="UTF-8"?>
<svg width="22px" height="22px" viewBox="0 0 22 22" version="1.1" xmlns="http://www.w3.org/2000/svg" xmlns:xlink="http://www.w3.org/1999/xlink">

    <g id="Page-1" stroke="none" stroke-width="1" fill="none" fill-rule="evenodd">
        <g id="icons" transform="translate(-514.000000, -1159.000000)" fill="#9B9FAB">
            <g id="fa-microphoneoff" transform="translate(514.000000, 1159.000000)">
                <path d="M11.000021,0 C17.075319,0 22,4.92488145 22,11 C22,17.0751186 17.075319,22 11.000021,22 C4.92484888,22 0,17.0751186 0,11 C0,4.92488145 4.92484888,0 11.000021,0 Z M16.1568542,5.35355339 C15.9923043,5.18900347 15.741597,5.16312188 15.5499441,5.27590862 L5.16066017,15.6672619 C5.13040025,15.6975218 5.0972267,15.7230923 5.06204259,15.7439734 L4.84314575,15.9601551 C4.6478836,16.1554173 4.6478836,16.4719997 4.84314575,16.6672619 C5.0384079,16.862524 5.35499039,16.862524 5.55025253,16.6672619 L5.55025253,16.6672619 L7.60666387,14.6103226 C8.36450457,15.302187 9.26595456,15.7058964 10.3110325,15.8213948 L10.3110325,15.8213948 L10.3110325,16.9329499 L8.15554573,16.9329499 L8.07033462,16.9393578 C7.95986649,16.9564439 7.86198382,17.0076926 7.7766715,17.0930285 C7.67000161,17.1996099 7.61665192,17.3259505 7.61665192,17.4719027 C7.61665192,17.6176191 7.67000161,17.7441955 7.7766715,17.850777 C7.8833119,17.9573584 8.00959348,18.0108555 8.15554573,18.0108555 L8.15554573,18.0108555 L13.5441594,18.0108555 L13.6293733,18.004442 C13.7398669,17.9873427 13.8378392,17.9360657 13.9230336,17.850777 C14.0298214,17.744225 14.0832006,17.6176485 14.0832006,17.4719027 C14.0832006,17.32598 14.0298214,17.1996394 13.9230336,17.0930285 C13.8165701,16.9863586 13.6901116,16.9329499 13.5441594,16.9329499 L13.5441594,16.9329499 L11.388938,16.9329499 L11.388938,15.8213948 L11.6469443,15.7865525 C12.7520364,15.6095966 13.6889741,15.095004 14.4578281,14.2428456 C15.2858247,13.3251661 15.7,12.2459629 15.7,11.005413 L15.7,11.005413 L15.7,9.92759592 L15.6935848,9.84243624 C15.676479,9.73203229 15.6251689,9.63418736 15.539715,9.54878067 C15.4333695,9.44211078 15.306793,9.38876109 15.1608408,9.38876109 C15.015036,9.38876109 14.8887544,9.44211078 14.7819666,9.54878067 C14.6754146,9.65542107 14.6220944,9.78170265 14.6220944,9.92759592 L14.6220944,9.92759592 L14.6220944,11.005413 L14.6155412,11.2424008 C14.5631154,12.1796835 14.1961408,12.9889453 13.5147566,13.6703023 C12.7768263,14.4084686 11.888461,14.7775517 10.8499263,14.7775517 C9.89755403,14.7775517 9.07152397,14.4671527 8.37172234,13.8463548 L9.1360711,13.0821704 C9.62409856,13.4937274 10.1954341,13.6995871 10.8499558,13.6995871 C11.5910122,13.6995871 12.2251922,13.4357583 12.7528204,12.9083366 C13.28036,12.3809149 13.5441594,11.7464104 13.5441594,11.005413 L13.5441594,11.005413 L13.544,8.672 L16.1568542,6.06066017 C16.3304206,5.88709382 16.3497058,5.61766942 16.2147097,5.42280128 Z M6.53898228,9.38876109 C6.39294156,9.38876109 6.26663049,9.44211078 6.16001958,9.54878067 C6.0533202,9.65542107 6,9.78170265 6,9.92759592 L6,9.92759592 L6,11.005413 L6.00633753,11.2687755 C6.03636512,11.8868428 6.17309576,12.4633259 6.41649857,12.9982018 L7.24979966,12.1634142 C7.13514341,11.8007485 7.0778171,11.4147403 7.0778171,11.005413 L7.0778171,11.005413 L7.0778171,9.92759592 L7.07141584,9.84241359 C7.05434677,9.73197567 7.00314523,9.63409299 6.9178565,9.54878067 C6.81118661,9.44211078 6.685023,9.38876109 6.53898228,9.38876109 Z M10.8499558,4 C10.1089878,4 9.4747193,4.26397627 8.94706167,4.79154543 C8.41937454,5.31914408 8.15557522,5.95347161 8.15557522,6.69446902 L8.15557522,6.69446902 L8.15557522,11.005413 L8.16349247,11.2245097 C8.1640624,11.2322808 8.16466311,11.2400395 8.16529458,11.2477858 L13.4500139,5.96564896 C13.3308394,5.52852901 13.0984941,5.1371805 12.7528204,4.79154543 C12.2251922,4.26397627 11.5910122,4 10.8499558,4 Z" id="Combined-Shape"></path>
            </g>
        </g>
    </g>
</svg>
