<?xml version="1.0" encoding="UTF-8"?>
<svg width="22px" height="22px" viewBox="0 0 22 22" version="1.1" xmlns="http://www.w3.org/2000/svg" xmlns:xlink="http://www.w3.org/1999/xlink">

    <g id="Page-1" stroke="none" stroke-width="1" fill="none" fill-rule="evenodd">
        <g id="icons" transform="translate(-514.000000, -862.000000)" fill="#585F73">
            <g id="fa-minus" transform="translate(514.000000, 862.000000)">
                <path d="M11.0094746,0 C4.94573643,0 0,4.93103448 0,11 C0,17.0689655 4.92678725,22 11.0094746,22 C17.0732127,22 22,17.0689655 22,11 C22,4.93103448 17.0732127,0 11.0094746,0 L11.0094746,0 Z M11,20.625 C5.69564128,20.625 1.375,16.3043587 1.375,11 C1.375,5.69564128 5.69564128,1.375 11,1.375 C16.3043587,1.375 20.625,5.69564128 20.625,11 C20.625,16.3043587 16.3043587,20.625 11,20.625 L11,20.625 Z M16.6870584,10.3125 C16.9634447,10.3125 17.1875,10.5273438 17.1875,10.8089066 L17.1875,11.1910934 C17.1875,11.4652512 16.9727087,11.6875 16.6870584,11.6875 L5.3129416,11.6875 C5.03655533,11.6875 4.8125,11.4726562 4.8125,11.1910934 L4.8125,10.8089066 C4.8125,10.5347488 5.0272913,10.3125 5.3129416,10.3125 L16.6870584,10.3125 Z" id="Combined-Shape"></path>
            </g>
        </g>
    </g>
</svg>
