<?xml version="1.0" encoding="UTF-8"?>
<svg width="22px" height="22px" viewBox="0 0 22 22" version="1.1" xmlns="http://www.w3.org/2000/svg" xmlns:xlink="http://www.w3.org/1999/xlink">

    <g id="Page-1" stroke="none" stroke-width="1" fill="none" fill-rule="evenodd">
        <g id="icons" transform="translate(-650.000000, -626.000000)" fill="#585F73">
            <g id="fa-moon-sun" transform="translate(650.000000, 626.000000)">
                <path d="M15.5021717,11.7789819 C13.4866411,11.7789819 11.8471789,13.411516 11.8471789,15.4180236 C11.8471789,17.4245312 13.486755,19.0570653 15.5021717,19.0570653 C17.5175884,19.0570653 19.1571645,17.4245312 19.1571645,15.4180236 C19.1571645,13.411516 17.5175884,11.7789819 15.5021717,11.7789819 L15.5021717,11.7789819 Z M15.4612208,19.4614285 C15.7016541,19.4614285 15.8962208,19.6425188 15.8962208,19.8657917 L15.8962208,19.8657917 L15.8962208,21.4831309 C15.8962208,21.7064038 15.7016541,21.8874941 15.4612208,21.8874941 C15.2207876,21.8874941 15.0262208,21.7064038 15.0262208,21.4831309 L15.0262208,21.4831309 L15.0262208,19.8657917 C15.0262208,19.6425188 15.2207876,19.4614285 15.4612208,19.4614285 Z M18.4639095,18.3669492 C18.6225598,18.2089913 18.8794981,18.2089913 19.0381483,18.3669492 L19.0381483,18.3669492 L20.1866261,19.5106415 C20.3452764,19.6685994 20.3452764,19.9246432 20.1866261,20.0823743 C20.1073579,20.1614099 20.0033753,20.2008711 19.8995066,20.2008711 C19.795638,20.2008711 19.6916554,20.1612966 19.6123872,20.0823743 L19.6123872,20.0823743 L18.4639095,18.9386819 C18.3052592,18.780724 18.3052592,18.5246803 18.4639095,18.3669492 Z M15.5021717,12.5875948 C17.0695409,12.5875948 18.3450072,13.857268 18.3450072,15.4180236 C18.3450072,16.9787793 17.069427,18.2484524 15.5021717,18.2484524 C13.9348025,18.2484524 12.6593362,16.9787793 12.6593362,15.4180236 C12.6593362,13.857268 13.9348025,12.5875948 15.5021717,12.5875948 Z M21.5966145,15.0136604 C21.8213979,15.0136604 22.0033002,15.1927967 22.0033002,15.4136604 C22.0033002,15.6345242 21.8213979,15.8136604 21.5966145,15.8136604 L21.5966145,15.8136604 L19.9699858,15.8136604 C19.7452025,15.8136604 19.5633001,15.6345242 19.5633001,15.4136604 C19.5633001,15.1927967 19.7452025,15.0136604 19.9699858,15.0136604 L19.9699858,15.0136604 Z M19.6125011,11.0887523 C19.7710375,10.9307944 20.0280897,10.9307944 20.18674,11.0887523 C20.3453903,11.2464834 20.3453903,11.5025272 20.18674,11.6604851 L20.18674,11.6604851 L19.0382622,12.8041774 C18.958994,12.8832131 18.8550115,12.9226742 18.7511428,12.9226742 C18.6472741,12.9226742 18.5432916,12.8830997 18.4640234,12.8041774 C18.3053731,12.6464463 18.3053731,12.3904026 18.4640234,12.2324447 L18.4640234,12.2324447 Z M3.65499283,0.053130351 C4.29745246,0.053130351 4.92932023,0.22152051 5.48294481,0.540157779 C5.60822501,0.612389787 5.68555706,0.745854579 5.68555706,0.8902052 C5.68555706,1.03455582 5.60822501,1.16802061 5.48294481,1.24025262 C4.60609731,1.7453097 4.06112845,2.68466598 4.06112845,3.69217208 C4.06112845,4.69967818 4.60609731,5.63903446 5.48294481,6.14409154 C5.60822501,6.21632355 5.68555706,6.34978834 5.68555706,6.49413896 C5.68555706,6.63848958 5.60822501,6.77195437 5.48294481,6.84418638 C4.92920633,7.16282365 4.29745246,7.33121381 3.65499283,7.33121381 C1.63957612,7.33121381 0,5.69867973 0,3.69217208 C0,1.68566443 1.63957612,0.053016957 3.65499283,0.053130351 Z M19.5601112,0.648675881 C19.7187615,0.490717975 19.9756998,0.490717975 20.1343501,0.648675881 C20.2930004,0.806633788 20.2930004,1.06256415 20.1343501,1.22052206 L20.1343501,1.22052206 L1.12752178,20.1445142 C1.04825358,20.2235499 0.944271019,20.263011 0.840402346,20.263011 C0.736533673,20.263011 0.632551109,20.2234365 0.553282911,20.1445142 C0.394632624,19.9865563 0.394632624,19.7307394 0.553282911,19.5727815 L0.553282911,19.5727815 Z M3.94222616,10.1124296 C4.10087644,9.95447167 4.35781474,9.95447167 4.51646503,10.1124296 C4.67511531,10.2701607 4.67511531,10.5263178 4.51646503,10.6841624 L4.51646503,10.6841624 L4.2292317,10.9701421 L4.51646503,11.2561219 C4.67511531,11.4140798 4.67511531,11.6698968 4.51646503,11.8278547 C4.43719683,11.9068904 4.33321427,11.9463515 4.22934559,11.9463515 C4.12547692,11.9463515 4.02149435,11.906777 3.94222616,11.8278547 L3.94222616,11.8278547 L3.65510672,11.5419883 L3.36798729,11.8278547 C3.28871909,11.9068904 3.18473652,11.9463515 3.08086785,11.9463515 C2.97699918,11.9463515 2.87301661,11.906777 2.79374841,11.8278547 C2.63509813,11.6701236 2.63509813,11.4140798 2.79374841,11.2561219 L2.79374841,11.2561219 L3.08086785,10.9702555 L2.79374841,10.6843891 C2.63509813,10.5264312 2.63509813,10.2706143 2.79374841,10.1126564 C2.9523987,9.95469846 3.209337,9.95469846 3.36798729,10.1126564 L3.36798729,10.1126564 L3.65499283,10.3984094 Z M3.65499283,0.861743294 C3.9314065,0.861743294 4.20542846,0.901771392 4.46806131,0.979559708 C3.70305487,1.66309902 3.24885721,2.64928704 3.24885721,3.69205869 C3.24885721,4.73483033 3.70294098,5.72113175 4.46806131,6.40455766 C4.20554235,6.48234598 3.9314065,6.52237408 3.65499283,6.52237408 C2.08762366,6.52237408 0.812157356,5.25270094 0.812157356,3.69194529 C0.812157356,2.13118964 2.08762366,0.861743294 3.65499283,0.861743294 Z M8.81551197,2.42998295 C8.97416225,2.27202505 9.23110055,2.27202505 9.38975084,2.42998295 C9.54840112,2.58771407 9.54840112,2.84375783 9.38975084,3.00171573 L9.38975084,3.00171573 L9.10251751,3.28769552 L9.38975084,3.5736753 C9.54840112,3.73163321 9.54840112,3.98745018 9.38975084,4.14540808 C9.31048264,4.22444373 9.20650008,4.26390486 9.1026314,4.26390486 C8.99876273,4.26390486 8.89478016,4.22433034 8.81551197,4.14540808 L8.81551197,4.14540808 L8.52839253,3.85954169 L8.2412731,4.14540808 C8.1620049,4.22444373 8.05802233,4.26390486 7.95415366,4.26390486 C7.85028499,4.26390486 7.74630242,4.22433034 7.66703422,4.14540808 C7.50838394,3.98767696 7.50838394,3.73163321 7.66703422,3.5736753 L7.66703422,3.5736753 L7.95415366,3.28780891 L7.66703422,3.00194252 C7.50838394,2.84398461 7.50838394,2.58816765 7.66703422,2.43020974 C7.82568451,2.27225183 8.08262281,2.27225183 8.2412731,2.43020974 L8.2412731,2.43020974 L8.52827864,2.71596274 Z" id="Combined-Shape"></path>
            </g>
        </g>
    </g>
</svg>
