<?xml version="1.0" encoding="UTF-8"?>
<svg width="22px" height="21px" viewBox="0 0 22 21" version="1.1" xmlns="http://www.w3.org/2000/svg" xmlns:xlink="http://www.w3.org/1999/xlink">

    <g id="Page-1" stroke="none" stroke-width="1" fill="none" fill-rule="evenodd">
        <g id="icons" transform="translate(-373.000000, -627.000000)" fill="#585F73">
            <g id="fa-moon-o" transform="translate(373.000000, 626.000000)">
                <path d="M12.5650932,2.85052363 C12.7100209,2.71781128 12.9204179,2.68194307 13.1011579,2.75809403 C14.3562656,3.2865982 15.4678444,4.05735071 16.4056779,5.04883061 C18.1853792,6.93094559 19.1155187,9.38405476 19.0244492,11.9560808 C18.9333798,14.5282448 17.8318731,16.9112731 15.9233316,18.6666077 C14.100124,20.3431703 11.7482659,21.2551884 9.26826717,21.2551884 C9.15173744,21.2551884 9.03562739,21.253257 8.91867799,21.2491184 C6.31053847,21.1593099 3.8937707,20.0733311 2.11406941,18.1912161 C1.17637583,17.1997362 0.474399637,16.0523676 0.0274458852,14.7809777 C-0.0370441554,14.5969463 0.0142960722,14.3927734 0.158524341,14.2599231 C0.302892501,14.1270728 0.513149618,14.0913425 0.69458906,14.1672176 C3.88635645,15.5113095 7.58970752,14.871338 10.1274815,12.5374216 C12.6653955,10.2039191 13.5707741,6.60606244 12.4340147,3.37157825 C12.3695247,3.18754678 12.4208649,2.98337393 12.5650932,2.85052363 Z M2.72111124,8.02564025 C2.93256185,7.81711747 3.27501167,7.81711747 3.48646229,8.02564025 L3.48646229,8.02564025 L4.24118768,8.77006507 L4.99606486,8.02564025 C5.20751548,7.81711747 5.5499653,7.81711747 5.76141591,8.02564025 C5.97286653,8.23416302 5.97286653,8.57187113 5.76141591,8.78039391 L5.76141591,8.78039391 L5.00653873,9.52481873 L5.78175646,10.2893025 C5.99320708,10.4978252 5.99320708,10.8355333 5.78175646,11.0440561 C5.67610705,11.1483924 5.53751809,11.2004856 5.39908094,11.2004856 C5.26064378,11.2004856 5.12205482,11.1482427 5.01640541,11.0440561 L5.01640541,11.0440561 L4.24118768,10.2795724 L3.46596994,11.0440561 C3.36016874,11.1482427 3.22173158,11.2003359 3.08329442,11.2003359 C2.94485726,11.2003359 2.80626831,11.148093 2.70061889,11.0439064 C2.48916828,10.8353836 2.48916828,10.4976755 2.70061889,10.2891528 L2.70061889,10.2891528 L3.47598842,9.52481873 L2.72111124,8.78039391 C2.50966062,8.57187113 2.50966062,8.23416302 2.72111124,8.02564025 Z M18.2643506,1.35713974 C18.4758083,1.14860998 18.8182696,1.14860998 19.0297273,1.35713974 L19.0297273,1.35713974 L19.7846298,2.10158951 L20.5395323,1.35713974 C20.75099,1.14860998 21.0934513,1.14860998 21.304909,1.35713974 C21.5163667,1.56566951 21.5163667,1.90338893 21.304909,2.11191869 L21.304909,2.11191869 L20.5500065,2.85636845 L21.3252502,3.62087779 C21.5365561,3.82940756 21.5365561,4.16712697 21.3252502,4.37565674 C21.2195973,4.47999647 21.0810037,4.53209149 20.9425619,4.53209149 C20.8041201,4.53209149 20.6655265,4.47984677 20.5598735,4.37565674 C20.5598735,4.37565674 20.0814033,3.90381163 19.8421682,3.66788907 C19.835775,3.66158444 19.8272508,3.65317827 19.8187266,3.6447721 L19.7846298,3.6111474 L19.0093861,4.37565674 C18.9037332,4.47999647 18.7651396,4.53209149 18.6266978,4.53209149 C18.488256,4.53209149 18.3496624,4.47984677 18.2440094,4.37565674 C18.0325517,4.16712697 18.0325517,3.82940756 18.2440094,3.62087779 L18.2440094,3.62087779 L19.0192531,2.85636845 L18.2643506,2.11191869 C18.0528929,1.90338893 18.0528929,1.56566951 18.2643506,1.35713974 Z M6.18913095,1.19385263 C6.40058157,0.985329856 6.74303138,0.985329856 6.954482,1.19385263 L6.954482,1.19385263 L7.70935919,1.93827746 L8.46408458,1.19400233 C8.67553519,0.985479549 9.01798501,0.985479549 9.22943563,1.19400233 C9.44088624,1.40252511 9.44088624,1.74023321 9.22943563,1.94875599 L9.22943563,1.94875599 L8.47471024,2.69303112 L9.24977617,3.45736515 C9.46122679,3.66588793 9.46122679,4.00359604 9.24977617,4.21211882 C9.14412676,4.31645505 9.00553781,4.36854832 8.86710065,4.36854832 C8.72866349,4.36854832 8.59007453,4.31630536 8.48442512,4.21211882 L8.48442512,4.21211882 L7.70920739,3.44763509 L6.93398966,4.21211882 C6.82834025,4.31645505 6.68975129,4.36854832 6.55131413,4.36854832 C6.41287697,4.36854832 6.27428802,4.31630536 6.16863861,4.21211882 C5.95718799,4.00359604 5.95718799,3.66588793 6.16863861,3.45736515 L6.16863861,3.45736515 L6.94400814,2.69303112 L6.18913095,1.9486063 C5.97768033,1.74008352 5.97768033,1.40237541 6.18913095,1.19385263 Z" id="Combined-Shape"></path>
            </g>
        </g>
    </g>
</svg>
