<?xml version="1.0" encoding="UTF-8"?>
<svg width="22px" height="22px" viewBox="0 0 22 22" version="1.1" xmlns="http://www.w3.org/2000/svg" xmlns:xlink="http://www.w3.org/1999/xlink">

    <g id="Page-1" stroke="none" stroke-width="1" fill="none" fill-rule="evenodd">
        <g id="icons" transform="translate(-586.000000, -626.000000)" fill="#585F73">
            <g id="fa-moon" transform="translate(586.000000, 626.000000)">
                <path d="M14.9831248,0.544685148 C14.7833195,0.45841391 14.550729,0.499048914 14.3905136,0.649398425 C14.2310715,0.799904226 14.1743157,1.03121117 14.2456084,1.23969999 C15.5022781,4.90403955 14.5013962,8.98004294 11.6957722,11.6236625 C8.89030274,14.2677509 4.79630616,14.9927731 1.26785732,13.4700545 C1.06727886,13.3840958 0.834842914,13.4245746 0.675246175,13.5750804 C0.515804084,13.7255862 0.459048267,13.9568931 0.530340996,14.1653819 C1.02444137,15.6057365 1.80046504,16.9055877 2.83707061,18.028833 C4.8045025,20.1610766 7.4762014,21.3913795 10.3594588,21.4931233 C10.4887445,21.497812 10.6171023,21.5 10.7459241,21.5 C13.4875239,21.5 16.0874662,20.4667769 18.1029936,18.5674031 C20.2128563,16.5787885 21.4305547,13.8790614 21.5312305,10.9650628 C21.6319064,8.05122054 20.6036518,5.2720989 18.6362199,3.13985525 C17.5994597,2.01660999 16.3706267,1.14342629 14.9831248,0.544685148 L14.9831248,0.544685148 Z M17.1983313,17.7612013 C12.221641,22.449045 4.49695021,20.0404944 2.18270402,15.0066099 C5.61333835,16.0207076 9.82862802,15.1567195 12.4852492,12.6531014 C15.141578,10.1497787 16.5267039,5.96428247 15.7636583,2.4337094 C20.671935,5.15653974 22.1750216,13.0733576 17.1983313,17.7612013 Z" id="Shape"></path>
            </g>
        </g>
    </g>
</svg>
