<?xml version="1.0" encoding="UTF-8"?>
<svg width="22px" height="22px" viewBox="0 0 22 22" version="1.1" xmlns="http://www.w3.org/2000/svg" xmlns:xlink="http://www.w3.org/1999/xlink">

    <g id="Page-1" stroke="none" stroke-width="1" fill="none" fill-rule="evenodd">
        <g id="icons" transform="translate(-650.000000, -862.000000)" fill="#585F73">
            <g id="fa-move" transform="translate(650.000000, 862.000000)">
                <path d="M11.0094746,0 C17.0732127,0 22,4.93103448 22,11 C22,17.0689655 17.0732127,22 11.0094746,22 C4.92678725,22 0,17.0689655 0,11 C0,4.93103448 4.94573643,0 11.0094746,0 Z M11,1.375 C5.69564128,1.375 1.375,5.69564128 1.375,11 C1.375,16.3043587 5.69564128,20.625 11,20.625 C16.3043587,20.625 20.625,16.3043587 20.625,11 C20.625,5.69564128 16.3043587,1.375 11,1.375 Z M4.28080962,15.1797654 C3.97832312,15.1797654 3.8,14.9034973 3.8,14.5076793 C3.8,14.1108433 3.9781819,13.8288817 4.28080962,13.8288817 L16.0361187,13.8288817 L14.0063404,11.8560201 C13.8014323,11.6532641 13.7748988,11.2028653 14.0008002,10.9608212 C14.0950371,10.8598503 14.2163145,10.8033229 14.3523078,10.7843502 C14.4710376,10.7677858 14.5912951,10.7802578 14.7077981,10.8103515 C14.7560704,10.8228207 14.7938332,10.835705 14.8858987,10.8911259 C14.9840773,10.9916755 14.9840773,10.9916755 15.3769151,11.3938985 C15.868037,11.8966775 16.1136439,12.1480633 16.4576324,12.500003 C17.3795967,13.4432767 17.9614137,14.0374526 18.0254156,14.1004777 C18.255403,14.3269552 18.255403,14.6489562 18.0421662,14.9195221 L14.8834731,18.0683329 C14.6744109,18.2751993 14.2202109,18.234648 13.9962472,17.9777033 C13.7783102,17.7276728 13.8028406,17.3294313 14.0083836,17.1260758 L16.0323245,15.1797654 L4.28080962,15.1797654 Z M17.7191904,6.82023459 C18.0216769,6.82023459 18.2,7.09650272 18.2,7.49232072 C18.2,7.88915672 18.0218181,8.17111832 17.7191904,8.17111832 L5.96388132,8.17111832 L7.99365959,10.1439799 C8.19856768,10.3467359 8.22510118,10.7971347 7.99919975,11.0391788 C7.90496289,11.1401497 7.78368548,11.1966771 7.64769224,11.2156498 C7.52896238,11.2322142 7.40870492,11.2197422 7.29220187,11.1896485 C7.24392959,11.1771793 7.20616685,11.164295 7.11410127,11.1088741 C7.01592268,11.0083245 7.01592268,11.0083245 6.62308492,10.6061015 C6.131963,10.1033225 5.88635605,9.85193675 5.54236764,9.49999701 C4.62040328,8.55672327 4.03858632,7.96254744 3.97458441,7.89952229 C3.74459696,7.67304482 3.74459696,7.35104381 3.95783381,7.08047793 L7.11652691,3.93166714 C7.32558908,3.72480075 7.77978915,3.76535202 8.00375278,4.02229666 C8.22168979,4.27232718 8.19715939,4.67056869 7.99161643,4.87392418 L5.96767546,6.82023459 L17.7191904,6.82023459 Z" id="Combined-Shape"></path>
            </g>
        </g>
    </g>
</svg>
