<?xml version="1.0" encoding="UTF-8"?>
<svg width="22px" height="22px" viewBox="0 0 22 22" version="1.1" xmlns="http://www.w3.org/2000/svg" xmlns:xlink="http://www.w3.org/1999/xlink">

    <g id="Page-1" stroke="none" stroke-width="1" fill="none" fill-rule="evenodd">
        <g id="icons" transform="translate(-36.000000, -626.000000)" fill="#585F73" fill-rule="nonzero">
            <g id="fa-navigation" transform="translate(36.000000, 626.000000)">
                <path d="M1.375,11 C1.375,16.3060085 5.69399153,20.625 11,20.625 C16.3060085,20.625 20.625,16.3060085 20.625,11 C20.625,5.69399153 16.3060085,1.375 11,1.375 C5.69399153,1.375 1.375,5.69399153 1.375,11 Z M22,11 C22,17.0654 17.0654,22 11,22 C4.9346,22 0,17.0654 0,11 C0,4.9346 4.9346,0 11,0 C17.0654,0 22,4.9346 22,11 Z M3.50005601,10.6115746 C3.0913916,10.8000301 2.8534479,11.2311004 2.91268863,11.6764272 C2.97198582,12.1221785 3.31508748,12.4768056 3.75861699,12.5505564 L8.56380019,13.3530821 L9.10944885,17.8624505 C9.16487482,18.312031 9.50749762,18.6720953 9.95320374,18.7479166 C10.0356655,18.7599721 10.0356655,18.7599721 10.1252171,18.7626875 C10.5129114,18.7626875 10.8697983,18.5431748 11.0426068,18.1924753 L16.8446744,6.48767814 C17.0369858,6.09896421 16.9641738,5.63168087 16.6623482,5.32064708 C16.3599914,5.00906581 15.8925216,4.92249733 15.4990283,5.10482277 L3.50005601,10.6115746 Z M9.86739881,12.6801169 L9.80562863,12.1696336 L9.29849188,12.0846571 L5.1274293,11.3776025 L15.1019021,6.79996175 L10.361738,16.5427421 L9.86739881,12.6801169 Z" id="Combined-Shape"></path>
            </g>
        </g>
    </g>
</svg>
