<?xml version="1.0" encoding="UTF-8"?>
<svg width="20px" height="22px" viewBox="0 0 20 22" version="1.1" xmlns="http://www.w3.org/2000/svg" xmlns:xlink="http://www.w3.org/1999/xlink">

    <g id="Page-1" stroke="none" stroke-width="1" fill="none" fill-rule="evenodd">
        <g id="icons" transform="translate(-650.000000, -1099.000000)" fill="#D7DAE0">
            <g id="fa-nczu1" transform="translate(649.000000, 1099.000000)">
                <path d="M10.9883461,0 C15.2968708,0 18.5108883,1.2051606 19.7451517,1.74086711 C20.0945421,1.87479374 20.3273444,2.20961031 20.3506994,2.56662862 C20.5138105,4.59772977 20.9095371,11.4716751 19.0232029,15.0200145 C17.1135138,18.6132946 12.618523,21.2245057 11.3377364,21.9163406 C11.1281022,22.0278865 10.8719449,22.0278865 10.6623107,21.9163406 C9.38152419,21.2243267 4.88653335,18.6131155 2.97684421,15.0200145 C1.0903232,11.4491152 1.48623664,4.55278915 1.64934774,2.54424783 C1.67270271,2.18722952 1.90550505,1.87479374 2.23154042,1.71848633 C3.39592578,1.18277982 6.49354209,0 10.9883461,0 Z M12.6650087,4.2628953 L9.31123507,4.2628953 C9.21800203,4.2628953 9.14812396,4.32985861 9.14812396,4.41902367 L9.14812396,7.78903301 L5.63142609,7.78903301 C5.53819305,7.78903301 5.46831498,7.85599632 5.46831498,7.94534042 L5.46831498,11.1592214 C5.46831498,11.2483864 5.53819305,11.3155288 5.63142609,11.3155288 L9.14849764,11.3155288 L9.14849764,14.6853591 C9.14849764,14.7747032 9.21837571,14.8414875 9.31160875,14.8414875 L12.6653824,14.8414875 C12.7586154,14.8414875 12.8284935,14.7747032 12.8284935,14.6853591 L12.8284935,11.3155288 L16.3451913,11.3155288 C16.4384244,11.3155288 16.5083025,11.2483864 16.5083025,11.1592214 L16.5083025,7.96772121 C16.5083025,7.87837711 16.4384244,7.81141379 16.3451913,7.81141379 L12.8281198,7.81141379 L12.8281198,4.41902367 C12.8281198,4.32967957 12.7582417,4.2628953 12.6650087,4.2628953 Z" id="Combined-Shape"></path>
            </g>
        </g>
    </g>
</svg>
