<?xml version="1.0" encoding="UTF-8"?>
<svg width="20px" height="22px" viewBox="0 0 20 22" version="1.1" xmlns="http://www.w3.org/2000/svg" xmlns:xlink="http://www.w3.org/1999/xlink">

    <g id="Page-1" stroke="none" stroke-width="1" fill="none" fill-rule="evenodd">
        <g id="icons" transform="translate(-716.000000, -1099.000000)" fill="#1BC424" fill-rule="nonzero">
            <g id="fa-nczu2" transform="translate(715.000000, 1099.000000)">
                <path d="M10.9598419,-3.55271368e-15 C14.2670142,-3.55271368e-15 17.085092,0.704657033 19.2961108,1.68040785 C19.8583981,1.8993989 20.2414277,2.43660068 20.2817482,3.03335711 L20.2817482,3.03335711 L20.317957,3.51840916 C20.6358221,8.04047858 20.3844082,12.4021582 18.980173,15.0860089 C17.513058,17.8908261 14.6227517,20.1830672 11.6020219,21.8409185 C11.2090542,22.0533701 10.7322131,22.0533701 10.3354548,21.8388534 C7.31746442,20.1820616 4.42818061,17.8906314 2.96033595,15.0845548 C1.50643583,12.2883915 1.28762405,7.66524501 1.6592044,3.01722636 C1.69626307,2.44163669 2.05365913,1.93450078 2.58291389,1.67679127 C4.65470762,0.70831564 7.50315138,-3.55271368e-15 10.9598419,-3.55271368e-15 Z M10.9598419,1.3427387 C7.71231897,1.3427387 5.05440383,2.00367605 3.16122641,2.88856121 C3.06538487,2.93524656 3.0044329,3.02173586 2.99842169,3.113852 C2.6469725,7.51100704 2.85838808,11.9778836 4.15088982,14.4636474 C5.45909895,16.964545 8.17579122,19.1203533 10.970619,20.6557907 C13.7669109,19.1193783 16.4827082,16.9636376 17.790407,14.463591 C19.0830154,11.9930873 19.2930757,7.56598966 18.9427987,3.13427666 L18.9427987,3.13427666 L18.9420986,3.12451347 C18.9366454,3.03981515 18.8792015,2.95901636 18.7815656,2.920295 C16.701737,2.0031065 14.0607816,1.3427387 10.9598419,1.3427387 Z M12.6903593,4.04153535 C12.7673978,4.04153535 12.8289977,4.08568246 12.8505562,4.15058937 L12.8588328,4.20279659 L12.8588328,7.70671467 L16.4915313,7.70671467 C16.5685699,7.70671467 16.6301698,7.75098014 16.6517282,7.81593439 L16.6600049,7.86816084 L16.6600049,11.1645845 C16.6600049,11.2382617 16.6138126,11.297381 16.5460311,11.3180816 L16.4915313,11.3260307 L12.8592188,11.3260307 L12.8592188,14.8066473 C12.8592188,14.8804724 12.8130265,14.9393845 12.745245,14.9599964 L12.6907452,14.9679085 L9.22671321,14.9679085 C9.14967468,14.9679085 9.08807473,14.9237614 9.06651629,14.8588545 L9.05823967,14.8066473 L9.05823967,11.3260307 L5.42554113,11.3260307 C5.3485026,11.3260307 5.28690266,11.2816469 5.26534422,11.21674 L5.2570676,11.1645845 L5.2570676,7.84504426 C5.2570676,7.77121917 5.30325984,7.71218868 5.37104139,7.69152949 L5.42554113,7.6835981 L9.05785371,7.6835981 L9.05785371,4.20279659 C9.05785371,4.12911944 9.10404595,4.07011854 9.1718275,4.04946526 L9.22632724,4.04153535 L12.6903593,4.04153535 Z M11.8259569,5.07441128 L10.0907296,5.07441128 L10.0907296,8.71647402 L6.28994352,8.71647402 L6.28994352,10.2931548 L10.0911156,10.2931548 L10.0911156,13.9350326 L11.8263428,13.9350326 L11.8263428,10.2931548 L15.6271289,10.2931548 L15.6271289,8.7395906 L11.8259569,8.7395906 L11.8259569,5.07441128 Z" id="Combined-Shape"></path>
            </g>
        </g>
    </g>
</svg>
