<?xml version="1.0" encoding="UTF-8"?>
<svg width="22px" height="22px" viewBox="0 0 22 22" version="1.1" xmlns="http://www.w3.org/2000/svg" xmlns:xlink="http://www.w3.org/1999/xlink">

    <g id="Page-1" stroke="none" stroke-width="1" fill="none" fill-rule="evenodd">
        <g id="icons" transform="translate(-100.000000, -389.000000)" fill="#585F73">
            <g id="fa-office" transform="translate(100.000000, 389.000000)">
                <path d="M13.7801285,22 C13.7801285,22 14.1127167,22 15.1473236,22 C15.1473236,22 16.4477997,22 16.4477997,20.6312103 L16.4477997,16.5 L17.908905,16.5 L17.908905,20.6416168 C17.908905,22 19.2365723,22 19.2365723,22 C20.0753021,22 20.6704025,22 20.6704025,22 C20.6704025,22 22,22 22,20.6153488 L22,10.9741516 C22,10.9741516 22,9.625 20.6704025,9.625 L13.7886887,9.625 C12.375,9.625 12.375,10.9972305 12.375,10.9972305 L12.375,20.5842972 C12.375,22 13.7801285,22 13.7801285,22 Z M1.42266846,22 L9.64849854,22 C9.64849854,22 11,22 11,20.6449738 L11,1.36795044 C11,0 9.69146729,0 9.69146729,0 L1.4131012,0 C1.4131012,0 0,0 0,1.35838318 L0,20.6991882 C0,22 1.42266846,22 1.42266846,22 Z M13.7865906,10.9827118 L20.6991882,10.9714661 L20.6991882,20.6474915 L19.2922974,20.6474915 L19.2922974,15.1385956 L15.1443024,15.1385956 L15.1443024,20.6474915 L13.7865906,20.6474915 L13.7865906,10.9827118 Z M1.375,1.375 L9.625,1.375 L9.625,20.625 L1.375,20.625 L1.375,1.375 Z M4.125,2.75 L6.875,2.75 L6.875,5.5 L4.125,5.5 L4.125,2.75 L4.125,2.75 Z M4.125,6.875 L6.875,6.875 L6.875,9.625 L4.125,9.625 L4.125,6.875 L4.125,6.875 Z M6.875,11 L6.875,13.75 L4.125,13.75 L4.125,11 L6.875,11 Z M6.875,15.125 L6.875,17.875 L4.125,17.875 L4.125,15.125 L6.875,15.125 Z M13.0353088,6.875 L21.2149811,6.875 C21.2149811,6.875 22,6.875 22,7.51751709 C22,8.16003418 21.2149811,8.25 21.2149811,8.25 L13.0353088,8.25 C13.0353088,8.25 12.375,8.16003418 12.375,7.51751709 C12.375,6.875 13.0353088,6.875 13.0353088,6.875 Z" id="Combined-Shape"></path>
            </g>
        </g>
    </g>
</svg>
