<?xml version="1.0" encoding="UTF-8"?>
<svg width="22px" height="22px" viewBox="0 0 22 22" version="1.1" xmlns="http://www.w3.org/2000/svg" xmlns:xlink="http://www.w3.org/1999/xlink">
    <g id="Page-1" stroke="none" stroke-width="1" fill="none" fill-rule="evenodd">
        <g id="icons" transform="translate(-100.000000, -1219.000000)" fill="#239FFF">
            <g id="fa-kyivstar" transform="translate(100.000000, 1219.000000)">
                <g id="Combined-Shape-path">
                    <path d="M14.3263191,10.3817236 C14.3263191,9.75976595 14.7270335,9.24146791 15.3281051,8.93048908 C16.9309628,8.30853143 18.5338204,7.79023339 20.136678,7.27193534 C20.9381068,7.06461613 21.639357,7.47925456 21.9398928,8.20487182 C22.14025,9.03414869 21.8397142,9.86342556 21.0382854,10.0707448 C19.4354278,10.5890428 17.7323916,11.2110005 16.1295339,11.7292985 C15.2279265,12.0402773 14.3263191,11.4183197 14.3263191,10.3817236 Z" fill-rule="nonzero"></path>
                    <path d="M5.21006635,21.9915998 C4.50881614,21.9915998 4.10810173,21.6806209 3.80756593,21.1623229 C3.60720872,20.6440249 3.60720872,20.1257268 3.90774453,19.7110884 C4.90953054,18.1561942 6.01149516,16.7049597 7.01328118,15.2537252 C7.51417419,14.6317676 8.315603,14.5281079 8.91667461,14.9427464 C9.61792483,15.3573848 9.71810343,16.2903213 9.31738902,16.9122789 C8.315603,18.4671731 7.21363838,19.9184076 6.21185237,21.3696421 C5.91131656,21.7842805 5.51060215,21.9915998 5.21006635,21.9915998 Z" fill-rule="nonzero"></path>
                    <path d="M7.71453139,10.3817236 C7.71453139,11.3146601 6.91310258,12.0402773 6.01149516,11.8329581 C5.31024495,11.6256389 4.50881614,11.3146601 3.80756593,11.1073409 C2.80577991,10.6927024 1.90417249,10.3817236 0.902386475,10.0707448 C0.201136263,9.75976595 -0.199578144,8.93048908 0.100957661,8.20487182 C0.301314864,7.47925456 1.10274368,7.16827574 1.80399389,7.37559495 C3.50703012,7.893893 5.10988775,8.51585065 6.71274538,9.03414869 C7.31381699,9.24146791 7.71453139,9.75976595 7.71453139,10.3817236 Z" fill-rule="nonzero"></path>
                    <path d="M12.5231043,16.1866617 C12.5231043,15.4610444 12.9238187,14.9427464 13.4247117,14.7354272 C13.9256047,14.6317676 14.5266763,14.7354272 14.9273907,15.2537252 C15.1277479,15.6683636 15.4282837,16.0830021 15.7288195,16.4976405 C16.5302483,17.5342366 17.3316772,18.6744923 18.0329274,19.7110884 C18.4336418,20.4367056 18.3334632,21.3696421 17.632213,21.7842805 C17.0311414,22.198919 16.1295339,21.9915998 15.7288195,21.3696421 C15.5284623,20.9550037 15.2279265,20.5403652 14.9273907,20.1257268 C14.2261405,19.0891307 13.4247117,18.0525346 12.7234615,17.0159386 C12.6232829,16.7049597 12.5231043,16.4976405 12.5231043,16.1866617 Z" fill-rule="nonzero"></path>
                    <path d="M12.4229257,4.16214709 L12.4229257,6.85729691 C12.4229257,7.06461613 12.4229257,7.27193534 12.3227471,7.47925456 C12.1223899,8.20487182 11.5213183,8.41219104 10.820068,8.30853143 C10.2189964,8.10121221 9.71810343,7.58291417 9.71810343,6.85729691 L9.71810343,1.46699726 L9.71810343,1.05235883 C9.91846063,0.326741567 10.6197108,-0.0878968675 11.2207825,0.0157627411 C11.8218541,0.11942235 12.4229257,0.741380001 12.4229257,1.46699726 L12.4229257,4.16214709 Z" fill-rule="nonzero"></path>
                </g>
            </g>
        </g>
    </g>
</svg>
