<?xml version="1.0" encoding="UTF-8"?>
<svg width="22px" height="22px" viewBox="0 0 22 22" version="1.1" xmlns="http://www.w3.org/2000/svg" xmlns:xlink="http://www.w3.org/1999/xlink">

    <g id="Page-1" stroke="none" stroke-width="1" fill="none" fill-rule="evenodd">
        <g id="icons" transform="translate(-38.000000, -1219.000000)" fill="#63AEFF">
            <g id="fa-phone" transform="translate(38.000000, 1219.000000)">
                <g id="Combined-Shape-path">
                    <path d="M20.4283062,5.388603 C22.1305655,8.18188527 22.5310971,11.6734881 21.2293694,14.9655708 C20.3281733,17.2600526 18.6259141,19.3550143 16.4229903,20.5521353 C13.4190034,22.2480567 9.61395327,22.5473369 6.50983344,20.9511756 C6.20943474,20.7516554 5.90903605,20.4523752 5.50850446,20.0533349 C5.10797287,19.6542946 5.00783997,19.1554942 4.90770707,18.6566938 C4.80757417,17.9583732 5.00783997,17.2600526 5.40837156,16.6614921 C5.50850446,16.5617321 5.20810577,15.6638913 5.20810577,15.4643712 C5.20810577,14.9655708 5.30823866,14.3670103 5.40837156,13.8682099 C5.60863736,12.8706091 5.90903605,11.7732482 6.30956764,10.7756474 C7.01049793,8.88020583 8.2120927,6.9847643 9.41368747,5.18908284 C9.91435196,4.49076228 10.4150165,3.79244171 11.1159467,3.29364131 C11.7167441,2.89460098 12.4176744,2.7948409 13.1186047,2.89460098 C14.0198008,2.99436106 13.9196679,3.69268163 13.7194021,4.49076228 C13.6192692,4.98956268 13.5191363,5.48836308 13.3188705,5.98716349 C13.2187376,6.48596389 13.0184718,6.9847643 12.5178073,7.08452438 C11.5164783,7.38380462 11.1159467,7.58332478 10.6152822,8.48116551 C9.81421906,9.87780664 8.81289009,11.4739679 8.81289009,13.1698893 C8.81289009,13.3694095 9.01315588,13.5689296 9.11328878,13.7684498 C9.31355458,13.96797 9.31355458,14.4667704 9.11328878,14.7660506 C8.91302298,15.0653308 8.81289009,15.4643712 8.61262429,15.7636514 C8.4123585,16.1626917 8.1119598,16.461972 7.81156111,16.7612522 C7.61129531,16.9607724 7.31089662,17.1602925 7.01049793,17.3598127 C6.81023213,17.4595728 6.60996633,17.3598127 6.40970054,17.3598127 C6.00916895,17.2600526 6.00916895,17.2600526 5.90903605,17.6590929 C5.80890315,18.1578933 5.80890315,18.7564538 6.20943474,19.2552542 C7.91169401,21.8490163 12.9183389,21.0509357 15.2213955,19.9535748 C20.3281733,17.4595728 22.4309642,10.7756474 19.4269773,5.88740341 C17.3241864,2.49556066 13.2187376,0.699879205 9.31355458,1.39819977 C7.21076372,1.79724009 5.30823866,2.69508082 3.8062452,4.29124211 C2.40438463,5.78764333 1.50318855,7.58332478 1.20278985,9.77804656 C1.00252406,11.8730083 1.40305565,13.8682099 2.50451752,15.9631716 C2.80491622,16.461972 3.30558071,17.0605325 3.8062452,17.758853 L3.7061123,17.8586131 C2.40438463,18.1578933 1.50318855,16.2624518 1.00252406,15.3646111 C0.40172667,13.96797 0.00119507888,12.4715687 0.00119507888,10.9751675 C-0.0989378189,4.39100219 6.10930185,-0.796522007 12.6179402,0.10131872 C16.0224587,0.600119124 18.8261799,2.59532074 20.4283062,5.388603 Z" fill-rule="nonzero"></path>
                    <path d="M7.41102952,17.6590929 C8.71275719,16.8610123 9.41368747,15.6638913 9.81421906,14.1674901 C10.2147507,14.6662905 10.6152822,14.9655708 10.9156809,15.3646111 C11.0158138,15.5641312 10.9156809,15.9631716 10.815548,16.1626917 C10.5151493,16.8610123 10.1146178,17.4595728 9.51382037,17.9583732 C9.11328878,18.2576534 8.71275719,18.3574135 8.3122256,18.1578933 C8.0118269,18.0581333 7.81156111,17.9583732 7.51116241,17.8586131 C7.51116241,17.758853 7.51116241,17.758853 7.41102952,17.6590929 Z" fill-rule="nonzero"></path>
                    <path d="M13.3188705,7.18428446 C14.1199337,5.98716349 14.5204653,4.69028244 14.5204653,3.29364131 C14.820864,3.39340139 15.0211298,3.59292155 15.3215284,3.69268163 C15.8221929,3.89220179 16.1225916,4.49076228 15.9223258,5.08932276 C15.8221929,5.48836308 15.8221929,5.88740341 15.6219271,6.28644373 C15.5217942,6.68548405 15.2213955,6.9847643 15.0211298,7.38380462 C15.0211298,7.38380462 14.9209969,7.38380462 14.9209969,7.4835647 C14.7207311,7.58332478 13.6192692,7.4835647 13.3188705,7.18428446 Z" fill-rule="nonzero"></path>
                </g>
            </g>
        </g>
    </g>
</svg>
