<?xml version="1.0" encoding="UTF-8"?>
<svg width="22px" height="22px" viewBox="0 0 22 22" version="1.1" xmlns="http://www.w3.org/2000/svg" xmlns:xlink="http://www.w3.org/1999/xlink">

    <g id="Page-1" stroke="none" stroke-width="1" fill="none" fill-rule="evenodd">
        <g id="icons" transform="translate(-165.000000, -1219.000000)" fill="#FE0000">
            <g id="fa-vodafone" transform="translate(165.000000, 1219.000000)">
                <g id="Shape">
                    <path d="M15.2290078,0.827429144 C15.1289074,0.827429144 13.9277017,0.827429144 12.726496,1.02763009 C12.0257927,1.12773056 11.4251898,1.42803198 10.7244865,1.62823293 C9.52328085,2.22883577 8.32207517,3.12974003 7.42117091,4.13074477 C5.41916144,6.33295518 4.4181567,9.83647175 5.51926191,12.7393855 C6.42016617,15.0416964 8.72247706,16.8435049 11.2249889,16.7434044 C12.8265965,16.6433039 14.428204,15.7423997 15.4292088,14.3409931 C16.6304145,12.639285 16.7305149,10.4370746 15.9297111,8.43506512 C15.6294097,7.53416086 14.9287064,6.83345755 14.2280031,6.33295518 C13.8276012,6.03265376 13.4271993,5.83245281 13.0267974,5.73235234 C12.8265965,5.63225187 12.6263955,5.63225187 12.4261946,5.53215139 C12.2259936,5.53215139 12.0257927,5.43205092 11.8255917,5.43205092 C11.8255917,5.03164903 11.9256922,4.33094571 12.0257927,4.03064429 C12.4261946,2.52913719 13.4271993,1.42803198 14.9287064,0.827429144 C14.9287064,0.927529617 15.0288069,0.927529617 15.2290078,0.827429144 C15.2290078,0.927529617 15.3291083,0.927529617 15.4292088,0.927529617 C16.6304145,1.62823293 17.8316201,2.22883577 18.8326249,3.22984051 C21.5353377,5.93255329 22.6364429,10.0366727 21.6354381,13.7403902 C20.8346343,16.7434044 18.7325244,19.2459162 16.1299121,20.6473229 C12.6263955,22.5492319 8.42217564,22.3490309 5.11886002,20.246921 C1.8155444,18.144811 -0.186465072,14.3409931 0.0137358748,10.3369741 C0.213936822,6.6332566 2.31604676,3.32994098 5.41916144,1.52813246 C7.02076901,0.627228197 8.82257753,0.12672583 10.6243861,0.0266253569 C12.0257927,-0.0734751165 12.6263955,0.12672583 13.4271993,0.326926777 C13.8276012,0.326926777 15.0288069,0.727328671 15.2290078,0.827429144 Z" fill-rule="nonzero"></path>
                </g>
            </g>
        </g>
    </g>
</svg>
