<?xml version="1.0" encoding="UTF-8"?>
<svg width="22px" height="22px" viewBox="0 0 22 22" version="1.1" xmlns="http://www.w3.org/2000/svg" xmlns:xlink="http://www.w3.org/1999/xlink">
    <g id="Page-1" stroke="none" stroke-width="1" fill="none" fill-rule="evenodd">
        <g id="icons" transform="translate(-229.000000, -1219.000000)" fill="#F9D010">
            <g id="fa-lifecell" transform="translate(229.000000, 1219.000000)">
                <g id="Shape">
                    <path d="M7.40865737,7.31209269 C7.84446075,7.74221579 8.42553191,8.02896452 9.15187087,8.02896452 C9.73294204,8.02896452 10.1687454,7.88559015 10.6045488,7.59884142 C11.6214233,6.73859522 11.9119589,5.73497466 11.4761555,4.73135409 C11.0403522,3.44098479 9.87820983,3.01086169 8.86133529,3.15423606 C7.69919296,3.29761043 6.82758621,4.30123099 6.82758621,5.87834902 C5.37490829,6.30847212 4.06749817,7.02534395 2.90535583,8.02896452 C1.88848129,8.88921072 0.87160675,10.0362056 0.145267792,11.3265749 C0,11.0398262 0,10.8964518 0,10.6097031 L0,10.17958 C0,9.46270818 0.145267792,8.74583635 0.290535583,8.17233888 C0.581071167,7.02534395 1.16214233,5.87834902 1.88848129,4.73135409 C2.46955246,3.87110789 3.34115921,3.01086169 4.21276596,2.29398986 C5.66544387,1.14699493 7.26338958,0.573497466 9.00660308,0.143374366 C9.29713866,0 9.73294204,0 10.0234776,0 C10.459281,0 10.7498166,0 10.8950844,0 C11.6214233,0 12.4930301,0 13.219369,0.286748733 C14.0909758,0.430123099 15.1078503,0.860246198 15.9794571,1.2903693 C17.2868672,1.86386676 18.3037417,2.72411296 19.1753485,3.72773353 C20.192223,4.87472846 20.918562,6.02172339 21.3543654,7.45546705 C21.644901,8.17233888 21.7901687,8.88921072 21.9354365,9.74945692 C21.9354365,10.3229544 22.0807043,11.0398262 21.9354365,11.6133237 C21.9354365,12.4735699 21.7901687,13.1904417 21.4996332,13.9073135 C21.2090976,14.6241854 21.0638298,15.3410572 20.7732942,15.9145547 C20.4827586,16.4880521 20.0469552,17.204924 19.6111519,17.7784214 C18.7395451,18.9254164 17.5774028,19.9290369 16.2699927,20.6459088 C15.3983859,21.0760319 14.672047,21.3627806 13.6551724,21.6495293 C13.0741012,21.7929037 12.4930301,21.9362781 11.9119589,21.9362781 C11.4761555,21.9362781 11.18562,22.0796524 10.7498166,21.9362781 C9.73294204,21.9362781 8.7160675,21.7929037 7.69919296,21.506155 C7.55392517,21.506155 7.55392517,21.3627806 7.55392517,21.3627806 C8.13499633,17.204924 11.18562,13.0470673 14.9625825,11.6133237 C15.1078503,11.756698 15.2531181,11.756698 15.3983859,11.9000724 C15.8341893,12.3301955 16.4152605,12.4735699 16.9963316,12.4735699 C17.8679384,12.4735699 18.4490095,12.0434468 18.8848129,11.3265749 C19.3206163,10.7530775 19.3206163,10.0362056 19.1753485,9.31933382 C18.8848129,8.31571325 18.3037417,7.88559015 17.2868672,7.59884142 C15.9794571,7.31209269 14.5267792,8.31571325 14.3815114,9.60608255 C14.3815114,9.74945692 14.3815114,9.89283128 14.2362436,10.0362056 C9.44240646,11.6133237 5.81071167,14.6241854 3.486427,19.0687907 C2.90535583,18.782042 2.61482025,18.2085445 2.32428467,17.7784214 C1.88848129,17.3482983 1.7432135,16.9181752 1.88848129,16.3446778 C1.88848129,15.4844316 2.03374908,14.7675597 2.32428467,13.9073135 C2.61482025,12.903693 3.05062362,11.9000724 3.63169479,11.0398262 C4.35803375,10.17958 4.93910492,9.31933382 5.81071167,8.60246198 C6.24651504,8.17233888 6.68231842,7.74221579 7.26338958,7.45546705 C7.26338958,7.31209269 7.40865737,7.31209269 7.40865737,7.31209269 Z" fill-rule="nonzero"></path>
                </g>
            </g>
        </g>
    </g>
</svg>
