<?xml version="1.0" encoding="UTF-8"?>
<svg width="22px" height="19px" viewBox="0 0 22 19" version="1.1" xmlns="http://www.w3.org/2000/svg" xmlns:xlink="http://www.w3.org/1999/xlink">

    <g id="Page-1" stroke="none" stroke-width="1" fill="none" fill-rule="evenodd">
        <g id="icons" transform="translate(-229.000000, -746.000000)" fill="#585F73">
            <g id="fa-organization" transform="translate(229.000000, 744.000000)">
                <path d="M5.00922203,17 C5.55641359,17 6,17.4433532 6,18.0093689 L6,19.9906311 C6,20.5480902 5.54902482,21 5.00922203,21 L0.990777969,21 C0.443586406,21 0,20.5566468 0,19.9906311 L0,18.0093689 C0,17.4519098 0.45097518,17 0.990777969,17 L5.00922203,17 Z M13.009222,17 C13.5564136,17 14,17.4433532 14,18.0093689 L14,19.9906311 C14,20.5480902 13.5490248,21 13.009222,21 L8.99077797,21 C8.44358641,21 8,20.5566468 8,19.9906311 L8,18.0093689 C8,17.4519098 8.45097518,17 8.99077797,17 L13.009222,17 Z M21.009222,17 C21.5564136,17 22,17.4433532 22,18.0093689 L22,19.9906311 C22,20.5480902 21.5490248,21 21.009222,21 L16.990778,21 C16.4435864,21 16,20.5566468 16,19.9906311 L16,18.0093689 C16,17.4519098 16.4509752,17 16.990778,17 L21.009222,17 Z M3.09936523,9.99989728 C18.4492187,9.99989728 3.98941559,10.0978069 18.9902344,9.99989728 C20.0014519,9.99989728 20.0014519,11.1086426 20.0014519,11.1086426 L20.0014519,15.9577373 L17.9931506,15.9577373 L17.9931506,11.8995926 L11.9875093,11.8995926 L11.9875093,15.9577373 L9.99712946,15.9578706 L9.99712946,11.8997258 L3.98941559,11.8997258 L3.98941559,15.9578706 L1.9926962,15.9577373 L1.99285755,11.0178941 C1.99576176,10.920942 2.05094194,9.99989728 3.09936523,9.99989728 Z M13.9851222,2 C14.5350649,2 14.9808816,2.45063933 14.9808816,2.99004012 L14.9808816,7.00549158 C14.9808816,7.55227564 14.5284227,7.9955317 13.9851222,7.9955317 L7.98683742,7.9955317 C7.43689471,7.9955317 6.99107806,7.54489237 6.99107806,7.00549158 L6.99107806,2.99004012 C6.99107806,2.44325606 7.44353694,2 7.98683742,2 L13.9851222,2 Z" id="Combined-Shape"></path>
            </g>
        </g>
    </g>
</svg>
