<?xml version="1.0" encoding="UTF-8"?>
<svg width="22px" height="20px" viewBox="0 0 22 20" version="1.1" xmlns="http://www.w3.org/2000/svg" xmlns:xlink="http://www.w3.org/1999/xlink">

    <g id="Page-1" stroke="none" stroke-width="1" fill="none" fill-rule="evenodd">
        <g id="icons" transform="translate(-443.000000, -331.000000)" fill="#585F73">
            <g id="fa-paperclip" transform="translate(443.000000, 330.000000)">
                <path d="M15.5028982,1.29999995 C14.0166308,1.29999995 12.470834,1.81476186 11.4234115,2.74714281 L1.3683527,12.7028571 C-0.264524304,14.3233333 -0.17400024,17.1509523 1.56563612,18.8771428 C2.38281259,19.6885714 3.51731527,20.1533333 4.67838479,20.1533333 C5.70022436,20.1533333 6.65859869,19.8038095 7.41526179,19.1666666 L7.66863078,18.9390476 L17.2602457,9.42142852 C18.2688019,8.42047614 18.4282636,6.84821518 17.2602457,5.79095233 C16.7456695,5.32516982 16.1173794,5.03619043 15.4227056,5.03619043 C14.7280318,5.03619043 14.0756682,5.30428567 13.5846736,5.79095233 L5.09263078,14.217619 L6.00249315,15.1803278 L14.4946268,6.71849513 C14.8001455,6.41563799 15.6702752,6.00470964 16.3280834,6.62751238 C16.8035935,7.07771806 16.9694588,7.81370997 16.1808487,8.49665268 L6.75163148,17.9693089 C5.86665403,18.9385714 3.86977759,19.296376 2.50411956,18.0541071 C1.1936976,16.8620836 1.12934449,14.8294205 2.37257444,13.595611 L12.2131075,3.94391847 C13.098177,3.06582323 14.0948553,2.7361904 15.4227056,2.7361904 C16.8504275,2.7361904 17.8602328,3.15745122 18.8753354,4.11522396 C20.9474394,6.07030209 20.828446,9.09089096 19.0437924,10.8609105 L10.0347269,19.8196507 L11.0283527,20.8161904 L20.1279891,11.7866666 C22.6130171,9.42142876 22.2316896,5.5128571 19.8268982,3.12714281 C18.6559891,1.96523805 17.1903848,1.29999995 15.5028982,1.29999995 Z" id="Shape"></path>
            </g>
        </g>
    </g>
</svg>
