<?xml version="1.0" encoding="UTF-8"?>
<svg width="22px" height="22px" viewBox="0 0 22 22" version="1.1" xmlns="http://www.w3.org/2000/svg" xmlns:xlink="http://www.w3.org/1999/xlink">

    <g id="Page-1" stroke="none" stroke-width="1" fill="none" fill-rule="evenodd">
        <g id="icons" transform="translate(-443.000000, -921.000000)" fill="#585F73">
            <g id="fa-pause" transform="translate(443.000000, 921.000000)">
                <path d="M22,11.0188041 C22,5.00171006 17.017094,0 11,0 C4.98290599,0 0,5.00171006 0,11.0188041 C0,17.0358981 4.98290598,22 11,22 C17.017094,22 22,17.0358981 22,11.0188041 Z M20.6562195,11 C20.6562195,16.1709402 16.1709403,20.6486664 11.0000001,20.6486664 C5.82905993,20.6486664 1.40621948,16.1709402 1.40621948,11 C1.40621948,5.82905983 5.82905993,1.38456726 11.0000001,1.38456726 C16.1709403,1.38456726 20.6562195,5.82905983 20.6562195,11 Z M9.69671409,15.3670349 C9.69671409,16.0568107 9.13742362,16.6151556 8.44812056,16.6151556 C7.75881751,16.6151556 7.19999981,16.0568107 7.19999981,15.3670349 L7.19999981,7.04812094 C7.19999981,6.35929067 7.75881751,5.80000019 8.44812056,5.80000019 C9.13742362,5.80000019 9.69671409,6.35929067 9.69671409,7.04812094 L9.69671409,15.3670349 L9.69671409,15.3670349 Z M14.8924895,15.3670349 C14.8924895,16.0568107 14.333199,16.6151556 13.6443687,16.6151556 C12.9555385,16.6151556 12.396248,16.0568107 12.396248,15.3670349 L12.396248,7.04812094 C12.396248,6.35929067 12.9555385,5.80000019 13.6443687,5.80000019 C14.333199,5.80000019 14.8924895,6.35929067 14.8924895,7.04812094 L14.8924895,15.3670349 Z" id="Combined-Shape"></path>
            </g>
        </g>
    </g>
</svg>
