<?xml version="1.0" encoding="UTF-8"?>
<svg width="20px" height="22px" viewBox="0 0 20 22" version="1.1" xmlns="http://www.w3.org/2000/svg" xmlns:xlink="http://www.w3.org/1999/xlink">

    <g id="Page-1" stroke="none" stroke-width="1" fill="none" fill-rule="evenodd">
        <g id="icons" transform="translate(-101.000000, -1039.000000)" fill="#585F73">
            <g id="fa-pdf" transform="translate(100.000000, 1039.000000)">
                <path d="M19.7194389,22 C20.1573146,22 20.5,21.6589147 20.5,21.2230835 L20.5,0.776916451 C20.5,0.341085271 20.1573146,0 19.7194389,0 L6.64028056,0 C6.58316633,0 6.50701403,0 6.4498998,0.0189491817 C6.35470942,0.0568475452 6.31663327,0.075796727 6.25951904,0.0947459087 C6.24048096,0.11369509 6.22144289,0.11369509 6.20240481,0.132644272 C6.14529058,0.170542636 6.08817635,0.208440999 6.0501002,0.265288544 L1.69038076,5.38156761 C1.63326653,5.43841516 1.59519038,5.51421189 1.55711423,5.59000861 C1.53807615,5.6089578 1.53807615,5.64685616 1.53807615,5.66580534 C1.51903808,5.72265289 1.51903808,5.77950043 1.5,5.83634798 L1.5,21.2041344 C1.5,21.6589147 1.86172345,22 2.28056112,22 L19.7194389,22 Z M5.61102299,5.54229738 L3.21382359,5.54229738 L5.61102292,2.95213675 L5.61102299,5.54229738 Z M6.19096438,6.91259729 C6.61115668,6.91259729 6.94000284,6.57413575 6.94000284,6.14165712 L6.94000244,1.40873738 L19.1687014,1.40873738 L19.1687018,20.66008 L2.8882885,20.6600805 L2.8882885,6.91259785 L6.19096438,6.91259729 Z M7.33818506,12.3698054 C7.14629437,12.2343079 6.92945195,12.1384324 6.68646963,12.0831573 C6.44408139,12.0278822 6.20822813,12 5.97950394,12 L4,12 L4,17.8875362 L5.19174217,17.8875362 L5.19174217,15.5258691 L6.040101,15.5258691 C6.28902421,15.5258691 6.53141245,15.4896713 6.76726571,15.4177647 C7.00311897,15.3458581 7.21164414,15.2348186 7.39343532,15.0851355 C7.5752265,14.9354524 7.72137235,14.748593 7.83306104,14.5235792 C7.94415565,14.2990545 8,14.0373536 8,13.7379874 C8,13.4053582 7.93762067,13.1280042 7.81286202,12.9064145 C7.68810337,12.6848247 7.53007575,12.505792 7.33818506,12.3698054 Z M17.4725921,12 L17.4725921,12.8980987 L15.6258231,12.8980987 L15.6258231,14.5030345 L17.3319332,14.5030345 L17.3319332,15.3595546 L15.6346487,15.3595546 L15.6346487,17.8875362 L14.5,17.8875362 L14.5,12 L17.4725921,12 Z M5.87910293,12.8398886 C6.1618892,12.8398886 6.39417793,12.9117952 6.57596911,13.0560976 C6.75776029,13.2004 6.84865587,13.4303054 6.84865587,13.7463031 C6.84865587,14.0623008 6.75776029,14.3019895 6.57596911,14.4658583 C6.39417793,14.6292379 6.1618892,14.7109277 5.87910293,14.7109277 L5.19233625,14.7109277 L5.19233625,12.8398886 L5.87910293,12.8398886 Z M10.7702694,12 L9,12 L9,17.8875362 L10.7603241,17.8875362 C11.6688595,17.8875362 12.3568426,17.6312161 12.8242733,17.1185758 C13.291704,16.6054464 13.5251268,15.8834455 13.5251268,14.9520838 C13.5251268,14.0207222 13.291704,13.2957863 12.8242733,12.7772761 C12.3568426,12.2592551 11.6723697,12 10.7702694,12 Z M12.217608,15.8540959 C12.1415554,16.1123726 12.0333268,16.3271141 11.8946771,16.4988094 C11.7554425,16.6705048 11.5898819,16.7996432 11.3974104,16.8852463 C11.204939,16.9713385 10.996087,17.0143847 10.7708544,17.0143847 L10.2039704,17.0143847 L10.2039704,12.8731516 L10.7708544,12.8731516 C10.996087,12.8731516 11.204939,12.9161977 11.3974104,13.0022899 C11.5898819,13.087893 11.7554425,13.2170314 11.8946771,13.3887268 C12.0339118,13.5604221 12.1415554,13.7766311 12.217608,14.0373536 C12.2936605,14.2980762 12.3322718,14.6028232 12.3322718,14.9520838 C12.3322718,15.2959637 12.2936605,15.5963083 12.217608,15.8540959 Z" id="Combined-Shape"></path>
            </g>
        </g>
    </g>
</svg>
