<?xml version="1.0" encoding="UTF-8"?>
<svg width="22px" height="22px" viewBox="0 0 22 22" version="1.1" xmlns="http://www.w3.org/2000/svg" xmlns:xlink="http://www.w3.org/1999/xlink">

    <g id="Page-1" stroke="none" stroke-width="1" fill="none" fill-rule="evenodd">
        <g id="icons" transform="translate(-229.000000, -94.000000)" fill="#585F73">
            <g id="fa-pencil" transform="translate(229.000000, 94.000000)">
                <path d="M16.8126984,0.0166950355 L2.90525818,13.9375682 L0,20.7866359 L0,21.9999995 L1.78236389,21.9999995 L8.10380554,19.1774058 L21.9924784,5.26652513 L21.9924778,2.45130969 L19.5807213,0.0166950355 L16.8126984,0.0166950355 Z M18.5767025,6.03073428 L19.1886977,6.64875746 L7.65368652,18.2854004 L7.0416913,17.6673772 L18.5767025,6.03073428 Z M5.04082735,15.5620334 L16.5622426,4.00587397 L18.0987391,5.55689997 L6.57732384,17.1130594 L5.04082735,15.5620334 Z M3.90812639,14.4743818 L15.4504395,2.85400391 L16.0636826,3.45428466 L4.52162711,15.0748706 L3.90812639,14.4743818 Z M6.82568359,18.6925049 L3.98618945,20.0005947 L1.78407331,19.0825406 L3.47766113,15.3355713 L6.82568359,18.6925049 Z M1.74084473,21.1011206 L0.978515625,21.1011206 L1.4876709,20.0947266 L2.85571289,20.5634997 L1.74084473,21.1011206 Z M19.9041748,5.90783691 L16.1365967,2.21130371 L17.4112549,1.01843262 L18.9693604,1.01843262 L20.9899826,2.92290505 L20.9899826,4.83911133 L19.9041748,5.90783691 Z" id="Shape"></path>
            </g>
        </g>
    </g>
</svg>
