<?xml version="1.0" encoding="UTF-8"?>
<svg width="22px" height="22px" viewBox="0 0 22 22" version="1.1" xmlns="http://www.w3.org/2000/svg" xmlns:xlink="http://www.w3.org/1999/xlink">

    <g id="Page-1" stroke="none" stroke-width="1" fill="none" fill-rule="evenodd">
        <g id="icons" transform="translate(-229.000000, -271.000000)" fill="#585F73">
            <g id="fa-pencil-o" transform="translate(229.000000, 271.000000)">
                <path d="M21.4991639,20.625 C21.775768,20.625 22,20.8398438 22,21.1214066 L22,21.5035934 C22,21.7777512 21.7822583,22 21.4991639,22 L0.500836134,22 C0.224231975,22 0,21.7851562 0,21.5035934 L0,21.1214066 C0,20.8472488 0.217741728,20.625 0.500836134,20.625 L21.4991639,20.625 Z M13.8306377,0.242998028 C14.1748849,-0.0809993425 14.7013807,-0.0809993425 15.025378,0.242998028 L15.025378,0.242998028 L18.9133465,4.17146614 C19.2373439,4.51571335 19.2373439,5.04220907 18.9133465,5.36620644 L18.9133465,5.36620644 L5.34595661,18.9335963 C5.18395792,19.095595 4.98145957,19.1765943 4.75871137,19.1765943 L4.75871137,19.1765943 L0.830243261,19.1968442 C0.607495069,19.1968442 0.404996713,19.1158448 0.242998028,18.9538462 C0.0809993425,18.7918475 0,18.5690993 0,18.3463511 L0,18.3463511 L0.0202498356,14.3976331 C0.0202498356,14.1748849 0.121499014,13.9723866 0.263247863,13.8103879 L0.263247863,13.8103879 L11.1171598,2.97672584 Z M11.656868,4.38474274 L1.32162476,14.6582184 L1.34243774,17.8922882 L4.44961548,17.8802032 L14.8165817,7.51004791 L11.656868,4.38474274 Z M14.4077072,1.59345245 L12.6375961,3.39797211 L15.7691956,6.54560089 L17.5567627,4.76760101 L14.4077072,1.59345245 Z" id="edit"></path>
            </g>
        </g>
    </g>
</svg>
