<?xml version="1.0" encoding="UTF-8"?>
<svg width="22px" height="22px" viewBox="0 0 22 22" version="1.1" xmlns="http://www.w3.org/2000/svg" xmlns:xlink="http://www.w3.org/1999/xlink">

    <g id="Page-1" stroke="none" stroke-width="1" fill="none" fill-rule="evenodd">
        <g id="icons" transform="translate(-299.000000, -389.000000)" fill="#585F73">
            <g id="fa-phone" transform="translate(299.000000, 389.000000)">
                <path d="M14.3154,21.1207333 C11.6739333,20.1248667 8.8,18.1566 6.22306667,15.5796667 C3.6454,13.002 1.67713333,10.1273333 0.680533333,7.48586667 C-0.225133333,5.0842 -0.227333333,3.113 0.6754,2.211 C0.8052,2.0812 2.82773333,-0.0425333333 4.0612,0.00146666667 C4.91113333,0.0366666667 5.73466667,0.564666667 6.578,1.61406667 C9.06986667,4.71313333 7.9464,5.81753333 6.6462,7.09793333 L6.41666667,7.32526667 C6.204,7.53793333 5.80213333,8.5228 9.54066667,12.2613333 C10.7609333,13.4816 11.8015333,14.3748 12.6331333,14.9152667 C13.1567333,15.2555333 14.0932,15.7703333 14.4774667,15.3860667 L14.7084667,15.1528667 C15.9874,13.8556 17.0918,12.7358 20.1886667,15.2254667 C21.2380667,16.0688 21.7653333,16.8916 21.8005333,17.743 C21.8511333,18.9757333 19.7200667,20.9997333 19.5902667,21.1288 C19.1422,21.5776 18.4257333,21.8027333 17.523,21.8027333 C16.6158667,21.8027333 15.5202667,21.5754 14.3154,21.1207333 Z M1.59873962,3.51840217 C1.35548979,3.90972001 1.27581501,4.6851972 2.05314835,6.7465972 C3.01381501,9.29273053 4.65813287,11.9766569 7.16393287,14.4824569 C9.66899954,16.9867902 12.468194,18.797017 15.0150606,19.7569503 C17.0764606,20.5357503 18.0487215,20.4396968 18.5358126,20.0482784 C18.6839105,19.9292693 18.9895016,19.5341643 19.9158474,18.4280547 C20.8421932,17.3219451 19.2138628,16.3818228 18.535812,15.881317 C16.8326717,14.6241375 16.4078524,15.7760768 15.9660969,16.1436685 L15.7314303,16.3805351 C15.0150606,17.2339931 13.1217156,16.9635356 11.8603823,16.1436689 C10.9855156,15.5746023 9.9045823,14.6491356 8.64911563,13.3929356 C5.5463823,10.2909356 3.7800089,7.44836449 5.36639394,6.21989441 L5.60032727,5.98889441 C6.81692727,4.79209441 6.81809987,4.53269958 5.36639394,2.50796508 C4.72172889,1.60883287 4.12147515,1.44633484 3.78000897,1.7006255 C2.58869935,2.50796505 1.69901482,3.3570887 1.59873962,3.51840217 Z" id="Shape"></path>
            </g>
        </g>
    </g>
</svg>
