<?xml version="1.0" encoding="UTF-8"?>
<svg width="22px" height="18px" viewBox="0 0 22 18" version="1.1" xmlns="http://www.w3.org/2000/svg" xmlns:xlink="http://www.w3.org/1999/xlink">

    <g id="Page-1" stroke="none" stroke-width="1" fill="none" fill-rule="evenodd">
        <g id="icons" transform="translate(-299.000000, -332.000000)" fill="#585F73">
            <g id="fa-picture" transform="translate(299.000000, 330.000000)">
                <path d="M21.6206897,2.5 L0.379310345,2.5 C0.169931034,2.5 0,2.66288199 0,2.86438923 L0,18.8975155 C0,19.0990228 0.169931034,19.2619048 0.379310345,19.2619048 L21.6206897,19.2619048 C21.830069,19.2619048 22,19.0990228 22,18.8975155 L22,2.86438923 C22,2.66288199 21.830069,2.5 21.6206897,2.5 L21.6206897,2.5 Z M1.43273926,17.8623512 L1.43273926,3.92120846 L20.6476593,3.92120846 L20.6476593,17.8623512 L1.43273926,17.8623512 Z M6.06896552,10.5668489 C7.23382759,10.5668489 8.18134483,9.65660455 8.18134483,8.53792961 C8.18134483,7.41852588 7.23382759,6.50828157 6.06896552,6.50828157 C4.90410345,6.50828157 3.95658621,7.41852588 3.95658621,8.53756522 C3.95658621,9.65660455 4.90410345,10.5668489 6.06896552,10.5668489 L6.06896552,10.5668489 Z M7.0774231,8.56669302 C7.0774231,9.0993547 6.62612077,9.53317473 6.07136562,9.53317473 C5.51661048,9.53317473 5.06530815,9.09962549 5.06530815,8.56696382 C5.06530815,8.03430214 5.51661048,7.60021131 6.07136562,7.60021131 C6.62612077,7.60021131 7.0774231,8.03403134 7.0774231,8.56669302 Z M4.17434692,16.6106306 L9.0741272,12.7222112 L12.4436493,16.003356 C12.4436493,16.003356 13.0982513,16.483941 13.5372069,16.1173425 C13.9761625,15.750744 13.6855172,15.1322816 13.5372069,14.9898054 L12.1153412,13.6746032 L15.1553448,10.5919364 L18.9748993,13.6746032 C19.1292786,13.8105204 19.6525751,14.0129993 19.9801724,13.6746032 C20.3077698,13.336207 20.134931,12.9346501 19.9801724,12.7987329 L15.4284483,8.79045135 C15.3541034,8.72522567 15.2551034,8.69279503 15.1553448,8.69498137 C15.0548276,8.69935404 14.96,8.74198758 14.8921034,8.81340787 L11,12.554517 L9.37806897,10.993913 C9.2362069,10.8579959 9.00937931,10.8510725 8.85917241,10.9778799 L3.25706482,15.5050518 C3.09965103,15.6380538 2.81101752,16.2063492 3.07633853,16.6106306 C3.34165955,17.014912 4.10227796,16.6714836 4.17434692,16.6106306 Z" id="Combined-Shape"></path>
            </g>
        </g>
    </g>
</svg>
