<?xml version="1.0" encoding="UTF-8"?>
<svg width="17px" height="22px" viewBox="0 0 17 22" version="1.1" xmlns="http://www.w3.org/2000/svg" xmlns:xlink="http://www.w3.org/1999/xlink">

    <g id="Page-1" stroke="none" stroke-width="1" fill="none" fill-rule="evenodd">
        <g id="icons" transform="translate(-653.000000, -803.000000)" fill="#585F73">
            <g id="fa-placeholder" transform="translate(650.000000, 803.000000)">
                <path d="M11.2642783,22 C11.1672905,22 11.0755452,21.9569342 11.0132896,21.8814034 C10.6961132,21.4991116 3,12.4632435 3,8.10233399 C3,3.6347538 6.84609065,0 11.2642783,0 C15.6824659,0 19.5171204,3.6347538 19.5171204,8.10233399 C19.5171204,12.463906 11.8324433,21.4991116 11.5159223,21.882066 C11.4530113,21.9569342 11.3606108,22 11.2642783,22 L11.2642783,22 Z M4.375,8.26359558 C4.375,11.6801453 10.0172136,18.6953026 11.2370536,20.2119293 C12.456287,18.6946893 18.1368949,11.679532 18.1368949,8.26359558 C18.1362884,4.46620267 14.9918073,1.375 11.2370536,1.375 C7.48169341,1.375 4.375,4.46620267 4.375,8.26359558 Z M9.1875,8.03985596 C9.1875,9.17731589 10.1127378,10.102356 11.25,10.102356 C12.3872622,10.102356 13.3125,9.17731589 13.3125,8.03985596 C13.3125,6.90239602 12.3872622,5.97735596 11.25,5.97735596 C10.1127378,5.97735596 9.1875,6.90239602 9.1875,8.03985596 Z M7.8125,7.97498798 C7.8125,6.0582781 9.35419968,4.4989624 11.25,4.4989624 C13.1458003,4.4989624 14.6875,6.0582781 14.6875,7.97498798 C14.6875,9.89169786 13.145195,11.4510136 11.25,11.4510136 C9.35480498,11.4510136 7.8125,9.89169786 7.8125,7.97498798 Z" id="Combined-Shape"></path>
            </g>
        </g>
    </g>
</svg>
