<?xml version="1.0" encoding="UTF-8"?>
<svg width="22px" height="22px" viewBox="0 0 22 22" version="1.1" xmlns="http://www.w3.org/2000/svg" xmlns:xlink="http://www.w3.org/1999/xlink">

    <g id="Page-1" stroke="none" stroke-width="1" fill="none" fill-rule="evenodd">
        <g id="icons" transform="translate(-373.000000, -921.000000)" fill="#585F73">
            <g id="fa-play" transform="translate(373.000000, 921.000000)">
                <path d="M22,11.0188041 C22,5.00171006 17.017094,0 11,0 C4.98290599,0 0,5.00171006 0,11.0188041 C0,17.0358981 4.98290598,22 11,22 C17.017094,22 22,17.0358981 22,11.0188041 Z M20.6562195,11 C20.6562195,16.1709402 16.1709403,20.6486664 11.0000001,20.6486664 C5.82905993,20.6486664 1.40621948,16.1709402 1.40621948,11 C1.40621948,5.82905983 5.82905993,1.38456726 11.0000001,1.38456726 C16.1709403,1.38456726 20.6562195,5.82905983 20.6562195,11 Z M14.687453,10.4821439 L8.94282606,7.13175199 C8.41932951,6.8261228 7.99708049,7.07047243 8,7.67600114 L8.02943219,14.326196 C8.0320874,14.931585 8.4595071,15.1780309 8.98454088,14.8747774 L14.685217,11.583499 C15.2096918,11.2808045 15.2108098,10.787773 14.687453,10.4821439 Z" id="Combined-Shape"></path>
            </g>
        </g>
    </g>
</svg>
