<?xml version="1.0" encoding="UTF-8"?>
<svg width="14px" height="14px" viewBox="0 0 14 14" version="1.1" xmlns="http://www.w3.org/2000/svg" xmlns:xlink="http://www.w3.org/1999/xlink">

    <g id="Page-1" stroke="none" stroke-width="1" fill="none" fill-rule="evenodd">
        <g id="icons" transform="translate(-40.000000, -511.000000)" fill="#585F73">
            <g id="fa-plus-o" transform="translate(36.000000, 507.000000)">
                <path d="M11.1936707,4.8125 C11.4679393,4.8125 11.6902778,5.0272913 11.6902778,5.3129416 L11.6895,10.3115 L16.6895585,10.3122222 C16.9659447,10.3122222 17.1900001,10.5271528 17.1900001,10.8088293 L17.1900001,11.1911707 C17.1900001,11.4654392 16.9752088,11.6877778 16.6895585,11.6877778 L11.6895,11.6875 L11.6902778,16.6870584 C11.6902778,16.9634447 11.4753473,17.1875 11.1936707,17.1875 L10.8113294,17.1875 C10.5370609,17.1875 10.3147223,16.9727087 10.3147223,16.6870584 L10.3145,11.6875 L5.31544165,11.6877778 C5.03905539,11.6877778 4.81500006,11.4728472 4.81500006,11.1911707 L4.81500006,10.8088293 C4.81500006,10.5345608 5.02979136,10.3122222 5.31544165,10.3122222 L10.3145,10.3115 L10.3147223,5.3129416 C10.3147223,5.03655533 10.5296528,4.8125 10.8113294,4.8125 L11.1936707,4.8125 Z" id="Combined-Shape"></path>
            </g>
        </g>
    </g>
</svg>
