<?xml version="1.0" encoding="UTF-8"?>
<svg width="22px" height="22px" viewBox="0 0 22 22" version="1.1" xmlns="http://www.w3.org/2000/svg" xmlns:xlink="http://www.w3.org/1999/xlink">

    <g id="Page-1" stroke="none" stroke-width="1" fill="none" fill-rule="evenodd">
        <g id="icons" transform="translate(-100.000000, -567.000000)" fill="#585F73">
            <g id="fa-plus" transform="translate(100.000000, 567.000000)">
                <path d="M11.0094746,0 C17.0732127,0 22,4.93103448 22,11 C22,17.0689655 17.0732127,22 11.0094746,22 C4.92678725,22 0,17.0689655 0,11 C0,4.93103448 4.94573643,0 11.0094746,0 Z M11,1.375 C5.69564128,1.375 1.375,5.69564128 1.375,11 C1.375,16.3043587 5.69564128,20.625 11,20.625 C16.3043587,20.625 20.625,16.3043587 20.625,11 C20.625,5.69564128 16.3043587,1.375 11,1.375 Z M11.1910934,4.8125 C11.4652512,4.8125 11.6875,5.0272913 11.6875,5.3129416 L11.687,10.312 L16.6870584,10.3125 C16.9634447,10.3125 17.1875,10.5273438 17.1875,10.8089066 L17.1875,11.1910934 C17.1875,11.4652512 16.9727087,11.6875 16.6870584,11.6875 L11.687,11.687 L11.6875,16.6870584 C11.6875,16.9634447 11.4726562,17.1875 11.1910934,17.1875 L10.8089066,17.1875 C10.5347488,17.1875 10.3125,16.9727087 10.3125,16.6870584 L10.312,11.687 L5.3129416,11.6875 C5.03655533,11.6875 4.8125,11.4726562 4.8125,11.1910934 L4.8125,10.8089066 C4.8125,10.5347488 5.0272913,10.3125 5.3129416,10.3125 L10.312,10.312 L10.3125,5.3129416 C10.3125,5.03655533 10.5273438,4.8125 10.8089066,4.8125 L11.1910934,4.8125 Z" id="Combined-Shape"></path>
            </g>
        </g>
    </g>
</svg>
