<?xml version="1.0" encoding="UTF-8"?>
<svg width="16px" height="4px" viewBox="0 0 16 4" version="1.1" xmlns="http://www.w3.org/2000/svg" xmlns:xlink="http://www.w3.org/1999/xlink">

    <g id="Page-1" stroke="none" stroke-width="1" fill="none" fill-rule="evenodd">
        <g id="icons" transform="translate(-713.000000, -871.000000)" fill="#585F73" fill-rule="nonzero">
            <g id="fa-points" transform="translate(710.000000, 862.000000)">
                <path d="M4.5,12.5 C3.67157288,12.5 3,11.8284271 3,11 C3,10.1715729 3.67157288,9.5 4.5,9.5 C5.32842712,9.5 6,10.1715729 6,11 C6,11.8284271 5.32842712,12.5 4.5,12.5 Z M11,12.5 C10.1715729,12.5 9.5,11.8284271 9.5,11 C9.5,10.1715729 10.1715729,9.5 11,9.5 C11.8284271,9.5 12.5,10.1715729 12.5,11 C12.5,11.8284271 11.8284271,12.5 11,12.5 Z M17.5,12.5 C16.6715729,12.5 16,11.8284271 16,11 C16,10.1715729 16.6715729,9.5 17.5,9.5 C18.3284271,9.5 19,10.1715729 19,11 C19,11.8284271 18.3284271,12.5 17.5,12.5 Z" id="Combined-Shape"></path>
            </g>
        </g>
    </g>
</svg>
