<?xml version="1.0" encoding="UTF-8"?>
<svg width="22px" height="22px" viewBox="0 0 22 22" version="1.1" xmlns="http://www.w3.org/2000/svg" xmlns:xlink="http://www.w3.org/1999/xlink">

    <g id="Page-1" stroke="none" stroke-width="1" fill="none" fill-rule="evenodd">
        <g id="icons" transform="translate(-36.000000, -271.000000)" fill="#585F73">
            <g id="fa-print" transform="translate(36.000000, 271.000000)">
                <path d="M15.7302556,0 C16.1657117,0 16.5065034,0.340791731 16.5065034,0.776247831 L16.5065034,0.776247831 L16.506503,2.79531854 L21.2237522,2.79531854 C21.6592083,2.79531854 22,3.13611027 22,3.57156637 L22,3.57156637 L22,17.1252285 C22,17.5606846 21.6592083,17.9014763 21.2237522,17.9014763 L21.2237522,17.9014763 L16.5065027,17.9014768 L16.5065032,21.2237522 C16.5065032,21.6592083 16.1657115,22 15.7302554,22 L15.7302554,22 L6.31070015,22 C5.87524404,22 5.5344523,21.6592083 5.5344523,21.2237522 L5.5344523,21.2237522 L5.53445184,17.9014768 L0.776247849,17.9014763 C0.359724613,17.9014763 -1.40267637e-15,17.5417517 -1.40267637e-15,17.1252285 L-1.40267637e-15,17.1252285 L-1.77635684e-15,3.57156637 C-1.77635684e-15,3.13611027 0.340791738,2.79531854 0.776247849,2.79531854 L0.776247849,2.79531854 L5.53445161,2.79531854 L5.53445207,0.776247831 C5.53445207,0.340791731 5.87524381,0 6.31069992,0 L6.31069992,0 Z M15.125,13.75 L6.875,13.75 L6.875,20.625 L15.125,20.625 L15.125,13.75 Z M20.6622624,4.14161673 L20.6622624,16.5140982 L16.516953,16.5140982 L16.516,13.749 L17.3398913,13.75 C17.5968277,13.75 17.7956475,13.574396 17.8366577,13.3428231 L17.8444444,13.2535934 L17.8444444,12.8714065 C17.8444444,12.5898437 17.6185483,12.375 17.3398913,12.375 L17.3398913,12.375 L4.62955312,12.375 C4.34049971,12.375 4.125,12.5972488 4.125,12.8714065 L4.125,12.8714065 L4.125,13.2535934 C4.125,13.5351562 4.35089613,13.75 4.62955312,13.75 L4.62955312,13.75 L5.516,13.749 L5.51678482,16.5140976 L1.39010666,16.5140982 L1.39010666,4.14161673 L20.6622624,4.14161673 Z M15.1448064,1.38977048 L15.1448064,2.78877252 L6.90135238,2.78877252 L6.90135238,1.38977048 L15.1448064,1.38977048 Z M13.75,7.37140654 C13.75,7.09724878 13.9711828,6.875 14.2547485,6.875 L18.7146959,6.875 C18.9934608,6.875 19.2194444,7.08984375 19.2194444,7.37140654 L19.2194444,7.75359342 C19.2194444,8.02775119 18.9982616,8.24999997 18.7146959,8.24999997 L14.2547485,8.24999997 C13.9759836,8.24999997 13.75,8.03515622 13.75,7.75359342 L13.75,7.37140654 Z" id="print"></path>
            </g>
        </g>
    </g>
</svg>
