<svg width="18" height="18" viewBox="0 0 18 18" fill="none" xmlns="http://www.w3.org/2000/svg">
<path d="M6.72153 1.32784C4.92006 1.8633 3.36463 3.0159 2.328 4.58353C2.18563 4.8404 2.09673 5.1234 2.06667 5.41553V2.60487H1V6.87153H5.26666V5.80486H2.856C4.05026 3.50737 6.41086 2.05247 8.99999 2.0182C12.0705 2.0539 14.7619 4.08 15.6453 7.02086L16.6693 6.71686C15.4104 2.4817 10.9567 0.0689699 6.72153 1.32784Z" fill="#585F73"/>
<path d="M12.7332 11.1386V12.2053H15.1439C13.9496 14.5028 11.589 15.9577 8.99989 15.9919C5.92939 15.9562 3.23803 13.9301 2.35457 10.9893L1.33057 11.2933C2.59483 15.5268 7.05169 17.9338 11.2852 16.6696C13.1395 16.1159 14.7302 14.9087 15.7625 13.2719C15.8731 13.0632 15.9317 12.8308 15.9332 12.5946V15.4053H16.9999V11.1386H12.7332Z" fill="#585F73"/>
</svg>
