<?xml version="1.0" encoding="UTF-8"?>
<svg width="22px" height="22px" viewBox="0 0 22 22" version="1.1" xmlns="http://www.w3.org/2000/svg" xmlns:xlink="http://www.w3.org/1999/xlink">

    <g id="Page-1" stroke="none" stroke-width="1" fill="none" fill-rule="evenodd">
        <g id="icons" transform="translate(-299.000000, -803.000000)" fill="#585F73">
            <g id="fa-profil" transform="translate(299.000000, 803.000000)">
                <path d="M18.7721653,14.0165781 C17.3395484,12.6287305 15.5810565,11.6714297 13.6639073,11.2111484 C15.6925202,10.2518711 17.093379,8.23298437 17.093379,5.90300391 C17.093379,2.64807813 14.359879,0 10.9999556,0 C7.64003226,0 4.90657661,2.64807813 4.90657661,5.90300391 C4.90657661,8.23307031 6.30743548,10.2518711 8.33604839,11.2111484 C6.41885484,11.6713867 4.66040726,12.6287305 3.22779032,14.0165781 C1.15171774,16.0277305 0.00838306452,18.7016758 0.00838306452,21.5458633 C0.00838306452,21.7966289 0.218225806,21.999957 0.477125,21.999957 L21.5228306,21.999957 C21.7816855,21.999957 21.9915726,21.7966719 21.9915726,21.5458633 C21.9915726,18.7016758 20.8482379,16.0277305 18.7721653,14.0165781 L18.7721653,14.0165781 Z M6.00838306,5.91108203 C6.00838306,3.24023585 8.25138055,1.06733203 11.0083831,1.06733203 C13.7653856,1.06733203 16.0083831,3.24023585 16.0083831,5.91108203 C16.0083831,8.58192821 13.7653856,10.754832 11.0083831,10.754832 C8.25138055,10.754832 6.00838306,8.58188655 6.00838306,5.91108203 L6.00838306,5.91108203 Z M11.0000001,12.0256348 C16.386851,12.0256348 20.4912109,15.6998291 21.0092773,21.0074463 L1.01965332,21.0074463 C1.37927246,15.9937744 5.61314934,12.0256348 11.0000001,12.0256348 Z M6.94947177,14.0768633 C6.81667339,13.8615039 6.52889919,13.791293 6.30672581,13.9198984 C4.19818548,15.140168 2.6611129,17.1611602 2.08982258,19.4645859 C2.02936694,19.7084766 2.18434274,19.9535703 2.43605645,20.0122227 C2.47287097,20.0208164 2.50968548,20.0248984 2.54596774,20.0248984 C2.75762903,20.0248984 2.94968548,19.8849492 3.00122581,19.6768086 C3.51405645,17.6094961 4.89402419,15.7953555 6.78744355,14.6995664 C7.00966129,14.5709609 7.08218145,14.2921367 6.94947177,14.0768633 L6.94947177,14.0768633 Z M10.9999556,12.6686914 C10.2825605,12.6686914 9.56804839,12.7493867 8.87620161,12.908457 C8.62435484,12.9663789 8.468625,13.2110859 8.52841532,13.4551055 C8.57955645,13.6638477 8.77183468,13.8044414 8.98407258,13.8044414 C9.01986694,13.8044414 9.05628226,13.8004023 9.09265323,13.7920664 C9.71370968,13.6492383 10.3553911,13.5768789 10.9999556,13.5768789 C11.2588105,13.5768789 11.4686976,13.3735937 11.4686976,13.1227852 C11.4686976,12.8719766 11.2588548,12.6686914 10.9999556,12.6686914 L10.9999556,12.6686914 Z" id="Combined-Shape"></path>
            </g>
        </g>
    </g>
</svg>
