<svg width="18" height="18" viewBox="0 0 18 18" fill="none" xmlns="http://www.w3.org/2000/svg">
<path fill-rule="evenodd" clip-rule="evenodd" d="M12.9096 1.79618C15.0192 3.09468 16.5303 5.32981 16.0689 7.86706C16.0163 8.15603 15.7394 8.34769 15.4505 8.29514C15.1615 8.24259 14.9698 7.96573 15.0224 7.67675C15.3792 5.71479 14.2311 3.85853 12.3521 2.70199C10.4771 1.54792 8.00552 1.18365 5.94753 2.11944C3.2672 3.3382 2.98649 6.14336 2.98649 7.77191C2.98649 7.91296 2.93046 8.04823 2.83072 8.14796L1.49413 9.48455C1.64656 9.54947 1.81522 9.60599 1.95113 9.64736C2.01889 9.66798 2.07617 9.68413 2.116 9.695C2.13588 9.70042 2.1513 9.7045 2.16138 9.70712L2.17235 9.70995L2.17458 9.71052C2.39016 9.76448 2.54959 9.94683 2.57414 10.1677L2.57524 10.1775L2.57864 10.2074C2.58167 10.2339 2.58619 10.273 2.5921 10.323C2.60392 10.4231 2.6213 10.5669 2.64344 10.7408C2.68778 11.089 2.75095 11.5563 2.82655 12.035C2.90248 12.5158 2.98948 12.9986 3.08066 13.3816C3.11907 13.5429 3.15639 13.6786 3.1915 13.785L4.90943 13.7856C5.20308 13.7856 5.44108 14.0237 5.44108 14.3174V16.1232L6.85042 15.8413C6.88476 15.8345 6.91969 15.831 6.95472 15.831H8.59108C8.88479 15.831 9.1229 16.0691 9.1229 16.3628C9.1229 16.6565 8.88479 16.8946 8.59108 16.8946H7.00737L5.01356 17.2934C4.85732 17.3247 4.69531 17.2842 4.57209 17.1832C4.44888 17.0822 4.37744 16.9312 4.37744 16.7719V14.849L2.8636 14.8486C2.72247 14.8485 2.58715 14.7924 2.48743 14.6925C2.34436 14.5492 2.26113 14.3434 2.21075 14.2035C2.15087 14.0371 2.09604 13.8383 2.04596 13.628C1.94537 13.2055 1.8534 12.6914 1.77593 12.2009C1.69813 11.7082 1.63347 11.2297 1.58832 10.8751C1.57733 10.7887 1.56747 10.7096 1.55886 10.6392C1.41458 10.5934 1.23894 10.5324 1.06901 10.4596C0.88303 10.3799 0.634457 10.2578 0.461405 10.0847C0.37329 9.99661 0.249583 9.84095 0.225001 9.61956C0.197219 9.36935 0.308134 9.16633 0.442255 9.03222L1.92452 7.54996C1.95089 5.83425 2.3257 2.59787 5.50727 1.1512C7.94932 0.0407784 10.796 0.495208 12.9096 1.79618Z" fill="#FF5F5C"/>
<path fill-rule="evenodd" clip-rule="evenodd" d="M4.53981 6.59988C4.29003 6.59988 4.09108 6.40059 4.09108 6.15078V5.3126C4.09108 5.06279 4.29003 4.8635 4.53981 4.8635H4.75036C4.79185 4.7358 4.84275 4.61265 4.90304 4.49414L4.75574 4.3466C4.58075 4.17131 4.58075 3.88696 4.75502 3.7124L5.34669 3.11446C5.5219 2.93895 5.80646 2.93895 5.98167 3.11446L6.13574 3.2688C6.25271 3.21073 6.37333 3.16108 6.4967 3.12034V2.90282C6.4967 2.65302 6.69565 2.45372 6.94544 2.45372H7.78218C8.03196 2.45372 8.23091 2.65302 8.23091 2.90282V3.12327C8.35536 3.16594 8.47593 3.21624 8.59192 3.27399L8.74594 3.1197C8.92116 2.94418 9.20571 2.94419 9.37945 3.11824L9.9771 3.70643C10.1521 3.88172 10.1521 4.16607 9.9771 4.34136L9.81767 4.50106C9.87596 4.61786 9.9253 4.73671 9.96566 4.85826H10.1878C10.4376 4.85826 10.6365 5.05755 10.6365 5.30736V6.14554C10.6365 6.39535 10.4376 6.59464 10.1878 6.59464H9.96566C9.9253 6.71619 9.87596 6.83504 9.81767 6.95184L9.9771 7.11154C10.1521 7.28683 10.1521 7.57118 9.9771 7.74647L9.38615 8.33844C9.21094 8.51395 8.92639 8.51395 8.75117 8.33844L8.59213 8.17912C8.47573 8.23738 8.35728 8.28671 8.23614 8.32707V8.55008C8.23614 8.79988 8.03719 8.99918 7.78741 8.99918H6.95067C6.70088 8.99918 6.50193 8.79988 6.50193 8.55008V8.33256C6.37856 8.29182 6.25794 8.24217 6.14097 8.1841L5.9869 8.33844C5.81169 8.51395 5.52713 8.51395 5.35192 8.33844L4.76097 7.74647C4.58598 7.57118 4.58598 7.28683 4.76097 7.11154L4.90824 6.96402C4.84863 6.847 4.798 6.72537 4.75655 6.59988H4.53981ZM5.54232 4.45738L5.44979 4.61052C5.3443 4.78512 5.26633 4.97348 5.21569 5.17636L5.17245 5.34964H4.63568V6.12936H5.17655L5.22049 6.30142C5.27154 6.50132 5.35006 6.68987 5.45489 6.86337L5.54742 7.01651L5.16894 7.39564L5.71845 7.9461L6.09938 7.56452L6.25158 7.65279C6.42974 7.75611 6.61966 7.83431 6.81617 7.88467L6.98805 7.92871V8.47045H7.76565V7.9236L7.93752 7.87956C8.13047 7.83011 8.31527 7.75308 8.49701 7.64767L8.64921 7.55941L9.03524 7.9461L9.58475 7.39564L9.19858 7.0088L9.28633 6.85697C9.39158 6.67486 9.46851 6.48968 9.51789 6.29631L9.56183 6.12425H10.1078V5.34452H9.56183L9.51789 5.17246C9.46851 4.9791 9.39158 4.79391 9.28633 4.6118L9.19858 4.45997L9.58463 4.07326L9.03026 3.52767L8.64921 3.90937L8.49701 3.8211C8.32167 3.71941 8.13061 3.63957 7.92762 3.58282L7.76054 3.53612V2.99833H6.98294V3.54006L6.81107 3.58411C6.61456 3.63446 6.42464 3.71266 6.24648 3.81599L6.09427 3.90426L5.71341 3.52274L5.16378 4.07819L5.54232 4.45738ZM7.36739 7.14178C8.14478 7.14178 8.77498 6.51158 8.77498 5.73419C8.77498 4.95679 8.14478 4.32659 7.36739 4.32659C6.58999 4.32659 5.95979 4.95679 5.95979 5.73419C5.95979 6.51158 6.58999 7.14178 7.36739 7.14178ZM8.24141 5.74258C8.24141 5.26062 7.85071 4.86992 7.36875 4.86992C6.88679 4.86992 6.49609 5.26062 6.49609 5.74258C6.49609 6.22454 6.88679 6.61524 7.36875 6.61524C7.85071 6.61524 8.24141 6.22454 8.24141 5.74258Z" fill="#FF5F5C"/>
<path fill-rule="evenodd" clip-rule="evenodd" d="M11.2189 8.23011C10.7629 8.59009 10.4651 9.07516 10.285 9.57109C10.202 9.79941 10.1459 10.0251 10.1111 10.2338H15.9735C15.9548 9.76257 15.8377 9.21032 15.552 8.74105C15.1861 8.14022 14.5105 7.61561 13.2142 7.61561C12.3044 7.61561 11.6684 7.87524 11.2189 8.23011ZM17.0375 10.2338C17.0185 9.60655 16.8665 8.85478 16.4604 8.18789C15.8922 7.25463 14.8633 6.55197 13.2142 6.55197C12.0859 6.55197 11.2127 6.8799 10.5599 7.39525C9.9135 7.90548 9.51576 8.57329 9.28524 9.20797C9.15661 9.5621 9.07726 9.91321 9.03603 10.2338H8.71419C8.42047 10.2338 8.18237 10.4719 8.18237 10.7656V17.3111C8.18237 17.6048 8.42047 17.8429 8.71419 17.8429H17.3051C17.5988 17.8429 17.8369 17.6048 17.8369 17.3111V10.7656C17.8369 10.4719 17.5988 10.2338 17.3051 10.2338H17.0375ZM16.7732 11.2974H9.24601V16.7792H16.7732V11.2974Z" fill="#FF5F5C"/>
<path d="M14.4414 13.6292C14.4414 14.533 13.7088 15.2656 12.8051 15.2656C11.9014 15.2656 11.1687 14.533 11.1687 13.6292C11.1687 12.7255 11.9014 11.9929 12.8051 11.9929C13.7088 11.9929 14.4414 12.7255 14.4414 13.6292ZM12.1001 13.6292C12.1001 14.0186 12.4157 14.3343 12.8051 14.3343C13.1945 14.3343 13.5101 14.0186 13.5101 13.6292C13.5101 13.2399 13.1945 12.9242 12.8051 12.9242C12.4157 12.9242 12.1001 13.2399 12.1001 13.6292Z" fill="#FF5F5C"/>
</svg>
