<?xml version="1.0" encoding="UTF-8"?>
<svg width="23px" height="22px" viewBox="0 0 23 22" version="1.1" xmlns="http://www.w3.org/2000/svg" xmlns:xlink="http://www.w3.org/1999/xlink">

    <g id="Page-1" stroke="none" stroke-width="1" fill="none" fill-rule="evenodd">
        <g id="icons" transform="translate(-36.000000, -153.000000)" fill="#585F73">
            <g id="fa-pulse-o" transform="translate(36.000000, 153.000000)">
                <path d="M15.4360521,0 C13.7912617,0 12.2373194,0.652613114 11.0227246,1.84575923 C9.80812988,0.652613114 8.25413997,0 6.60939709,0 C2.96494627,0 0,3.23862119 0,7.21946757 C0,9.73599117 1.25044835,12.7352654 3.5210344,15.6647951 C5.60968597,18.3596067 8.28923176,20.6555067 10.8725013,21.9638015 C10.9201157,21.9879338 10.971444,22 11.0227246,22 C11.0740053,22 11.125286,21.9879338 11.1729479,21.9638015 C13.7562175,20.6555587 16.4357633,18.3596587 18.5244148,15.6647951 C20.7950009,12.7352134 22.0454492,9.73593916 22.0454492,7.21946757 C22.0454492,3.23862119 19.080503,0 15.4360521,0 L15.4360521,0 Z M10.7922706,3.26572771 C10.9316379,3.41743893 11.1570919,3.41743893 11.2964591,3.26572771 C12.409302,2.05411828 13.8871565,1.38683853 15.4576686,1.38683853 C18.708301,1.38683853 21.3589676,4.76895645 20.5886417,8.8054401 L16.4781076,8.80543994 C16.3107431,8.80543994 16.165805,8.93239472 16.1295229,9.11089075 L15.7062312,11.1911081 L14.5401079,5.77761258 C14.5023497,5.60239314 14.3597447,5.47814284 14.1949514,5.47689461 C14.0287296,5.47689461 13.8857913,5.59864846 13.8460333,5.77235964 L13.1520064,8.80543994 L8.85985742,8.80543994 C8.69249294,8.80543994 8.54755482,8.93239472 8.51127268,9.11089075 L8.08807624,11.190952 L6.92200053,5.77761258 C6.88424234,5.60239314 6.74163733,5.47814284 6.57684403,5.47689461 C6.41057468,5.47689461 6.26768398,5.59859645 6.22792599,5.77235964 L5.4750324,9.11089053 L1.67907501,9.11089053 C0.873237003,4.85523952 3.32621172,1.38683853 6.57684416,1.38683853 C8.14735625,1.38683853 9.67938018,2.05411828 10.7922706,3.26572771 Z M11.0515647,20.6159729 C8.00419787,19.3566193 2.93463896,13.2122666 2.12192831,10.2902548 L5.71875643,10.2902547 C5.88259744,10.2902547 6.02544053,10.1684488 6.06519852,9.99478969 L6.47006343,8.22579623 L7.65661331,13.7342087 C7.69460957,13.9105204 7.8385954,14.0349267 8.00419815,14.0349267 C8.17299106,14.0337825 8.3166912,13.9070878 8.3528305,13.7294759 L9.33658549,9.99478968 L13.4500922,9.99478968 C13.6139332,9.99478968 13.7567763,9.87298382 13.7965343,9.69932466 L14.0882184,8.22600427 L15.2747206,13.7342087 C15.3127169,13.9105204 15.4567027,14.0349267 15.6223055,14.0349267 C15.7910984,14.0337825 15.9347985,13.9070878 15.9709378,13.7294759 L16.7654666,9.9947896 L20.228792,9.99478968 C19.0916362,13.4340107 14.0882181,19.3566193 11.0515647,20.6159729 Z" id="Shape"></path>
            </g>
        </g>
    </g>
</svg>
