<svg width="23" height="23" viewBox="0 0 23 23" fill="none" xmlns="http://www.w3.org/2000/svg">
<path fill-rule="evenodd" clip-rule="evenodd" d="M0.772617 9.03966C4.33164 7.64795 7.48594 8.76873 8.39417 9.15699L14.5704 4.00003C14.3545 2.13899 15.3773 0.866249 15.423 0.810842C15.4973 0.720805 15.6064 0.665805 15.7239 0.659286C15.841 0.656842 15.9568 0.696361 16.0398 0.778249L22.3716 6.99284C22.4555 7.07473 22.4995 7.18799 22.4924 7.30451C22.4858 7.42021 22.4289 7.52818 22.3364 7.60029C21.1845 8.4974 19.7009 8.48314 19.1293 8.43751L13.8489 14.5295C14.2092 15.438 15.3101 18.7135 13.9764 22.0001C13.9249 22.1276 13.8116 22.2205 13.6746 22.2482C13.6468 22.2539 13.6185 22.2568 13.5907 22.2568C13.4816 22.2568 13.3757 22.2144 13.2973 22.1374L7.54866 16.5012C7.54866 16.5012 4.09031 20.158 2.30949 22.0001C2.14441 22.1709 1.58304 22.5399 1.11736 22.1374C0.651682 21.7349 0.956949 21.0978 1.11736 20.9333C2.91975 19.0851 6.40822 15.411 6.40822 15.411L0.632317 9.70658C0.533939 9.60962 0.491598 9.47029 0.519825 9.33584C0.548052 9.20181 0.643108 9.09018 0.772617 9.03966Z" fill="#585F73"/>
</svg>
