<?xml version="1.0" encoding="UTF-8"?>
<svg width="22px" height="22px" viewBox="0 0 22 22" version="1.1" xmlns="http://www.w3.org/2000/svg" xmlns:xlink="http://www.w3.org/1999/xlink">

    <g id="Page-1" stroke="none" stroke-width="1" fill="none" fill-rule="evenodd">
        <g id="icons" transform="translate(-586.000000, -330.000000)" fill="#585F73">
            <g id="fa-push-pin" transform="translate(597.000000, 341.000000) scale(-1, 1) translate(-597.000000, -341.000000) translate(586.000000, 330.000000)">
                <path d="M21.7318491,8.38037037 C18.1728302,6.98866667 15.0185283,8.10944444 14.1103019,8.4977037 L7.93411321,3.34074074 C8.14996226,1.4797037 7.12716981,0.206962963 7.08150943,0.151555556 C7.00720755,0.0615185185 6.89803774,0.00651851852 6.78056604,8.91613985e-15 C6.66350943,-0.00244444444 6.54769811,0.0370740741 6.46467925,0.118962963 L0.132830189,6.33355556 C0.0489811321,6.41544444 0.00498113208,6.5287037 0.0120377358,6.64522222 C0.0186792453,6.76092593 0.0755471698,6.86888889 0.168113208,6.941 C1.32,7.83811111 2.80354717,7.82385185 3.37513208,7.77822222 L8.65554717,13.8701852 C8.29524528,14.7787037 7.19441509,18.0542593 8.52811321,21.3408148 C8.57958491,21.4683333 8.69290566,21.5612222 8.82988679,21.5889259 C8.85769811,21.5946296 8.88592453,21.5974815 8.91373585,21.5974815 C9.02290566,21.5974815 9.12875472,21.5551111 9.20720755,21.4781111 L14.955811,15.8419565 C14.955811,15.8419565 18.414157,19.4986911 20.1949772,21.3408144 C20.3600623,21.5115824 20.9214308,21.8806303 21.3871083,21.4781117 C21.8527858,21.075593 21.5475176,20.4385177 21.3871083,20.274032 C19.584719,18.4258402 16.0962452,14.7517084 16.0962452,14.7517084 L21.8721509,9.0472963 C21.9705283,8.95033333 22.0128679,8.811 21.9846415,8.67655556 C21.9564151,8.54251852 21.8613585,8.43088889 21.7318491,8.38037037 Z M9.47007751,19.4037476 C8.67901611,17.4921417 10.0263139,13.6818547 10.0416724,13.6484473 C10.1072573,13.5046325 10.0831818,13.3367806 9.97940826,13.2170029 L4.3044194,6.73437233 C4.22513638,6.64270567 4.18006476,6.59096511 3.98728733,6.59096492 C3.79450989,6.59096473 3.16181183,6.73437235 1.99435425,6.31078339 L6.458992,2.01877594 C6.5488739,2.39517212 6.77125296,3.15753964 6.63095093,3.92945862 C6.60537644,4.07016531 6.67271683,4.14744994 6.78354702,4.23993142 L13.3737717,9.85218048 C13.5020358,9.95892122 13.6842622,9.97806937 13.8324509,9.90432863 C13.8644132,9.88803233 18.3191223,8.52384186 19.7683105,9.31423187 L14.4469868,14.4348005 L9.47007751,19.4037476 Z" id="Shape"></path>
            </g>
        </g>
    </g>
</svg>
