<?xml version="1.0" encoding="UTF-8"?>
<svg width="22px" height="22px" viewBox="0 0 22 22" version="1.1" xmlns="http://www.w3.org/2000/svg" xmlns:xlink="http://www.w3.org/1999/xlink">

    <g id="Page-1" stroke="none" stroke-width="1" fill="none" fill-rule="evenodd">
        <g id="icons" transform="translate(-586.000000, -685.000000)" fill="#585F73">
            <g id="fa-question-circle-o" transform="translate(586.000000, 685.000000)">
                <path d="M11,22 C4.95,22 0,17.05 0,11 C0,4.95 4.95,0 11,0 C17.05,0 22,4.95 22,11 C22,17.05 17.05,22 11,22 L11,22 Z M10.6293944,14.1789319 C10.1922207,14.1789319 10.0864943,13.6483686 10.0864943,13.3663022 L10.0864943,12.632969 C10.0864943,12.155518 10.234703,10.3518598 11.4632567,9.95792364 C12.6918105,9.56398748 12.9602816,8.15772693 12.9602816,7.71045693 C12.9602816,7.03780059 12.4355829,6.01159198 11.6591338,5.67548378 C11.1386632,5.45018321 9.85889424,5.28003692 9.00497442,6.01772316 C8.1510546,6.7554094 8.28894048,7.73386576 8.28894048,7.86630257 C8.28894048,8.41630257 8.1377609,8.76982125 7.5877609,8.76982125 C7.0377609,8.76982125 6.8799235,8.41630251 6.8799235,7.86630251 C6.8799235,6.76630251 7.33825684,5.75796918 8.16325684,5.02463585 C8.98825684,4.29130251 10.0882568,4.01630251 11.1882568,4.19963585 C12.6549235,4.47463585 13.9436281,5.6326605 14.2186281,7.09932717 C14.4936281,8.6576605 13.6632568,10.2496358 12.2882568,10.9829692 C11.7382568,11.2579692 11.4632568,11.8996358 11.4632568,12.6329692 L11.4632568,13.3663025 C11.4632567,14.1981504 11.0665681,14.1789319 10.6293944,14.1789319 Z M10.9999998,17.792923 C11.6794554,17.792923 12.230263,17.2421155 12.230263,16.5626599 C12.230263,15.8832043 11.6794554,15.3323967 10.9999998,15.3323967 C10.3205442,15.3323967 9.76973664,15.8832043 9.76973664,16.5626599 C9.76973664,17.2421155 10.3205442,17.792923 10.9999998,17.792923 Z" id="Combined-Shape"></path>
            </g>
        </g>
    </g>
</svg>
