<?xml version="1.0" encoding="UTF-8"?>
<svg width="20px" height="22px" viewBox="0 0 20 22" version="1.1" xmlns="http://www.w3.org/2000/svg" xmlns:xlink="http://www.w3.org/1999/xlink">

    <g id="Page-1" stroke="none" stroke-width="1" fill="none" fill-rule="evenodd">
        <g id="icons" transform="translate(-101.000000, -803.000000)" fill="#585F73" fill-rule="nonzero">
            <g id="fa-question" transform="translate(100.000000, 803.000000)">
                <path d="M11.0375494,8.8817842e-16 C13.4125575,8.8817842e-16 15.6542854,0.851675813 17.4426364,2.4530702 C19.4805199,4.27792963 20.6492792,6.89223942 20.6492792,9.62574458 C20.6492792,14.291392 17.3160132,18.2722792 12.7233125,19.0915109 C12.4552806,19.1393012 12.2601954,19.3722962 12.2601954,19.6445326 L12.2601954,21.9611693 C12.2139468,22.0052456 12.2058182,21.9971171 12.1962181,21.9877272 L9.42557389,19.217083 C9.34702127,19.1385304 9.24688594,19.084924 9.13785126,19.0633413 C6.8195328,18.6026067 4.75579211,17.3028095 3.32677904,15.4034617 C1.8688956,13.4656435 1.20263481,11.0547577 1.45083588,8.61486131 C1.66953591,6.46464967 2.6430699,4.41933836 4.19204915,2.85550349 C5.7413087,1.29145839 7.7770199,0.299284795 9.9244286,0.061805008 C10.2980616,0.0204615219 10.6691719,8.8817842e-16 11.0375494,8.8817842e-16 Z M11.0375494,1 C10.7050315,1 10.3706324,1.01853475 10.0343475,1.05574557 C8.11567331,1.26792983 6.29156062,2.15693301 4.90252244,3.55922765 C3.5135967,4.96147401 2.64114708,6.79448718 2.44570159,8.71606509 C2.22290079,10.9062687 2.8197794,13.0661963 4.12586892,14.8022501 C5.40726903,16.5054007 7.25607471,17.6698066 9.33202719,18.0823745 C9.63546258,18.1424376 9.91410232,18.2913978 10.1326807,18.5099762 L11.2602108,19.6375417 C11.2635397,18.8837449 11.8049892,18.2394774 12.5477802,18.1070372 C16.6633818,17.372909 19.6492792,13.8068647 19.6492792,9.62574458 C19.6492792,7.17665678 18.6016241,4.8332414 16.775543,3.19804424 C15.175573,1.76533733 13.1730802,1 11.0375494,1 Z M13.4500981,6.0360111 C12.7819436,5.36785652 11.9092561,5 10.992745,5 C9.06684725,5.00013759 7.5,6.56719124 7.5,8.49302022 C7.5,8.79758368 7.74691174,9.04456421 8.05154399,9.04456421 C8.35610745,9.04456421 8.60308798,8.79765248 8.60308798,8.49302022 C8.60308798,7.1752862 9.67514861,6.10308798 10.9928826,6.10301919 C11.614737,6.10301919 12.2103797,6.35612264 12.6701488,6.81589169 C13.1299178,7.27566074 13.3830901,7.87137228 13.3830901,8.49322661 C13.3830213,9.54079557 12.6830138,10.4822111 11.6809195,10.7827155 C10.9395651,11.004998 10.4416138,11.6692312 10.4416138,12.43549 L10.4416138,12.611197 C10.4416138,12.9157605 10.6885256,13.162741 10.9931578,13.162741 C11.2977213,13.162741 11.5447018,12.9158293 11.5447018,12.611197 L11.5447018,12.43549 C11.5447018,12.1601652 11.726807,11.9205459 11.9978664,11.8392969 C13.4628943,11.3999605 14.4862468,10.0240931 14.4862468,8.49329541 C14.4862468,7.57685316 14.1182527,6.70409688 13.4500981,6.0360111 Z M11.0791931,15 C11.4261865,15 11.7074802,14.7187063 11.7074802,14.3717129 C11.7074802,14.0247195 11.4261865,13.7434258 11.0791931,13.7434258 C10.7321997,13.7434258 10.450906,14.0247195 10.450906,14.3717129 C10.450906,14.7187063 10.7321997,15 11.0791931,15 Z"></path>
            </g>
        </g>
    </g>
</svg>
