<?xml version="1.0" encoding="UTF-8"?>
<svg width="22px" height="22px" viewBox="0 0 22 22" version="1.1" xmlns="http://www.w3.org/2000/svg" xmlns:xlink="http://www.w3.org/1999/xlink">

    <g id="Page-1" stroke="none" stroke-width="1" fill="none" fill-rule="evenodd">
        <g id="icons" transform="translate(-100.000000, -862.000000)" fill="#585F73">
            <g id="fa-refresh" transform="translate(100.000000, 862.000000)">
                <path d="M20.6288605,10.9427445 C20.6288605,9.95241831 22,9.95241831 22,10.9427441 C22,17.0242055 17.0689655,21.9499998 11,21.9499998 C7.0362069,21.9499998 3.31841278,19.6551591 1.35653687,16.2853931 L1.35653687,16.2853931 L1.35653687,21.1921853 C1.35653687,21.6279287 1.11162194,21.9499998 0.675415039,21.9499998 C0.25817366,21.9499998 -2.5243549e-29,21.6089833 -2.5243549e-29,21.1921853 L-2.5243549e-29,21.1921853 L-2.5243549e-29,14.3422881 C-2.5243549e-29,13.9065447 0.33462898,13.5235292 0.770835876,13.5235292 L0.770835876,13.5235292 L7.84497381,13.5235292 C8.2811807,13.5235292 8.66248322,13.7577787 8.66248322,14.193522 C8.66248322,14.6292653 8.28793103,14.9023249 7.85172414,14.9023249 L7.85172414,14.9023249 L2.22732544,14.9023248 C3.74456682,18.2367086 7.13222504,20.5678093 11.0189654,20.5678093 C16.3345871,20.5678093 20.6288605,16.2163565 20.6288605,10.9427445 Z M21.324585,-3.94430453e-31 C21.7418263,-3.94430453e-31 22,0.341085271 22,0.75796727 L22,0.75796727 L22,7.6092453 C22,8.04507648 21.665371,8.42816925 21.2291641,8.42816925 L21.2291641,8.42816925 L14.1550262,8.42816925 C13.7188193,8.42816925 13.3375168,8.19387256 13.3375168,7.75804138 C13.3375168,7.3222102 13.712069,7.04909561 14.1482759,7.04909561 L14.1482759,7.04909561 L19.7726746,7.04909569 C18.2554332,3.7140397 14.867775,1.38246918 10.9810346,1.38246918 C5.6654129,1.38246918 1.37113953,5.73479915 1.37113953,11.0094742 C1.37113953,12 -8.17124146e-14,12 -8.52651283e-14,11.0094746 C-1.07322832e-13,4.92678725 4.93103448,-3.94430453e-31 11,-3.94430453e-31 C14.9637931,-3.94430453e-31 18.6815872,2.29530334 20.6434631,5.6657486 L20.6434631,5.6657486 L20.6434631,0.757967249 C20.6434631,0.322136069 20.8883781,-3.94430453e-31 21.324585,-3.94430453e-31 Z" id="refresh"></path>
            </g>
        </g>
    </g>
</svg>
