<?xml version="1.0" encoding="UTF-8"?>
<svg width="22px" height="23px" viewBox="0 0 22 23" version="1.1" xmlns="http://www.w3.org/2000/svg" xmlns:xlink="http://www.w3.org/1999/xlink">

    <g id="Page-1" stroke="none" stroke-width="1" fill="none" fill-rule="evenodd">
        <g id="icons" transform="translate(-710.000000, -921.000000)" fill="#585F73">
            <g id="fa-replace" transform="translate(710.000000, 921.000000)">
                <path d="M21.4991639,20.6299992 C21.775768,20.6299992 22,20.8448183 22,21.126349 L22,21.5084922 C22,21.7826186 21.7822583,22.004842 21.4991639,22.004842 L0.500836134,22.004842 C0.224231975,22.004842 0,21.7900228 0,21.5084922 L0,21.126349 C0,20.8522225 0.217741728,20.6299992 0.500836134,20.6299992 L21.4991639,20.6299992 Z M11.4551399,0.110715302 L21.4447119,10.1002873 C21.6427255,10.2983009 21.6410375,10.6210323 21.446892,10.8151778 L20.9930096,11.2690602 C20.7962,11.4658698 20.4771688,11.4659299 20.2808129,11.269574 L11.858,2.84635772 L11.8581236,19.1740838 C11.8581236,19.4499501 11.6286982,19.673584 11.3541036,19.673584 L10.7121436,19.673584 C10.4337811,19.673584 10.2081236,19.45085 10.2081236,19.1740838 L10.208,2.82135772 L1.75596356,11.2737494 C1.58142497,11.448288 1.30995775,11.4676337 1.11356087,11.3315523 L1.04376689,11.2732357 L0.589884463,10.8193533 C0.395738988,10.6252078 0.392844898,10.3036824 0.589370709,10.1071566 L0.589370709,10.1071566 L10.5726779,0.123849441 C10.689208,0.00731926433 10.8489444,-0.0400332675 11.0006991,-0.0181384686 C11.1602555,-0.0544614505 11.332323,-0.0121015679 11.4551399,0.110715302 Z" id="Combined-Shape"></path>
            </g>
        </g>
    </g>
</svg>
