<?xml version="1.0" encoding="UTF-8"?>
<svg width="22px" height="11px" viewBox="0 0 22 11" version="1.1" xmlns="http://www.w3.org/2000/svg" xmlns:xlink="http://www.w3.org/1999/xlink">

    <g id="Page-1" stroke="none" stroke-width="1" fill="none" fill-rule="evenodd">
        <g id="icons" transform="translate(-586.000000, -453.000000)" fill="#585F73">
            <g id="fa-RU" transform="translate(586.000000, 448.000000)">
                <path d="M14.7841484,5.00470607 C15.2849941,5.00470607 15.6034282,5.05132851 15.7394604,5.14457481 C15.8754925,5.23782111 15.9435076,5.40776745 15.9435076,5.65441895 C15.9435076,5.89505455 15.8631262,6.06349694 15.7023609,6.15975118 C15.5415956,6.25600543 15.2355278,6.30413182 14.7841484,6.30413182 L14.3853288,6.30413182 L14.3853288,11.2491687 C14.3853288,11.9169325 14.4177906,12.4027084 14.482715,12.7065108 C14.5476394,13.0103133 14.6542994,13.288544 14.8026981,13.5412114 C15.0191129,13.9081807 15.3205433,14.1939312 15.7069983,14.3984714 C16.0934533,14.6030117 16.521639,14.7052803 16.9915683,14.7052803 C17.8757773,14.7052803 18.5203746,14.4466009 18.9253794,13.9292344 C19.3303843,13.4118678 19.5328836,12.5756716 19.5328836,11.4206208 L19.5328836,6.30413182 L19.0413153,6.30413182 C18.5590195,6.30413182 18.235948,6.25750938 18.0720911,6.16426308 C17.9082341,6.07101678 17.8263069,5.90107044 17.8263069,5.65441895 C17.8263069,5.40776745 17.8912304,5.23782111 18.0210793,5.14457481 C18.1509281,5.05132851 18.4198968,5.00470607 18.8279933,5.00470607 L21.3229342,5.00470607 C21.5455323,5.00470607 21.7140242,5.05884826 21.8284148,5.16713429 C21.9428055,5.27542031 22,5.4378469 22,5.65441895 C22,5.89505455 21.9319849,6.06349694 21.7959528,6.15975118 C21.6599206,6.25600543 21.4125931,6.30413182 21.0539629,6.30413182 L20.9241147,6.30413182 L20.9241147,11.6191441 C20.9241147,13.0810054 20.5886768,14.1773849 19.9177909,14.9083156 C19.246905,15.6392462 18.2374997,16.0047061 16.8895447,16.0047061 C15.6714385,16.0047061 14.6991324,15.6392462 13.972597,14.9083156 C13.2460616,14.1773849 12.8827993,13.1922977 12.8827993,11.9530244 L12.8827993,6.30413182 L12.7344013,6.30413182 C12.3634046,6.30413182 12.1083481,6.25600543 11.9692243,6.15975118 C11.8301005,6.06349694 11.7605396,5.89505455 11.7605396,5.65441895 C11.7605396,5.43183101 11.8192799,5.26790047 11.9367622,5.16262239 C12.0542445,5.05734431 12.2304654,5.00470607 12.46543,5.00470607 L14.7841484,5.00470607 Z M4.28821869,5 C5.17724408,5 5.84109786,5.04482811 6.27979993,5.13448567 C6.718502,5.22414323 7.08892369,5.37717711 7.39107612,5.59359191 C7.78038789,5.8718395 8.08689368,6.23973914 8.31060268,6.69730185 C8.53431169,7.15486457 8.64616451,7.64642795 8.64616451,8.17200675 C8.64616451,8.88308394 8.44134311,9.49367367 8.03169415,10.0037943 C7.6220452,10.5139149 7.05116,10.8679023 6.31902144,11.0657673 C6.47009765,11.1585165 6.60519262,11.2667223 6.7243104,11.3903879 C6.84342819,11.5140535 6.95818628,11.6624499 7.06858812,11.8355818 L8.82048235,14.6922428 L9.10810677,14.6922428 C9.43350168,14.6922428 9.65720733,14.7401625 9.77923043,14.8360034 C9.90125352,14.9318442 9.96226415,15.0972445 9.96226415,15.3322091 C9.96226415,15.5486239 9.91142196,15.7140242 9.80973605,15.8284148 C9.70805014,15.9428055 9.55842883,16 9.36086763,16 L8.37597187,16 C8.09125132,16 7.81234558,15.7774053 7.53924627,15.3322091 C7.50438253,15.2951094 7.47823512,15.2641935 7.46080325,15.2394604 L5.78735205,12.5404722 C5.44452527,11.9901603 5.16126162,11.634627 4.93755262,11.4738617 C4.71384361,11.3130964 4.41895889,11.232715 4.05288962,11.232715 L2.89367603,11.232715 L2.89367603,14.6922428 L3.48635666,14.6922428 C3.82337282,14.6922428 4.06160481,14.7417083 4.20105977,14.8406408 C4.34051474,14.9395733 4.41024117,15.1034277 4.41024117,15.3322091 C4.41024117,15.5795403 4.34923054,15.7526695 4.22720745,15.851602 C4.10518435,15.9505345 3.87566817,16 3.53865201,16 L0.610112415,16 C0.412551217,16 0.261477272,15.9428055 0.15688605,15.8284148 C0.0522948269,15.7140242 0,15.5486239 0,15.3322091 C0,15.1034277 0.0581053632,14.9395733 0.174317833,14.8406408 C0.290530303,14.7417083 0.482278001,14.6922428 0.749566682,14.6922428 L1.54271282,14.6922428 L1.54271282,6.25210793 L1.03719111,6.25210793 C0.601394345,6.25210793 0.319583333,6.20882562 0.191749616,6.1222597 C0.0639158996,6.03569378 0,5.87183932 0,5.6306914 C0,5.42045988 0.0508421928,5.26278861 0.152528104,5.15767285 C0.254214015,5.05255709 0.406740593,5 0.610112415,5 L4.28821869,5 Z M4.75016095,6.25210793 L2.89367603,6.25210793 L2.89367603,9.99915683 L4.6978656,9.99915683 C5.51135288,9.99915683 6.12291183,9.84303135 6.53256079,9.53077572 C6.94220974,9.21852008 7.14703115,8.75323524 7.14703115,8.13490725 C7.14703115,7.51039598 6.94656765,7.04047375 6.54563463,6.72512648 C6.14470161,6.4097792 5.54621636,6.25210793 4.75016095,6.25210793 Z" id="Combined-Shape"></path>
            </g>
        </g>
    </g>
</svg>
