<?xml version="1.0" encoding="UTF-8"?>
<svg width="16px" height="22px" viewBox="0 0 16 22" version="1.1" xmlns="http://www.w3.org/2000/svg" xmlns:xlink="http://www.w3.org/1999/xlink">

    <g id="Page-1" stroke="none" stroke-width="1" fill="none" fill-rule="evenodd">
        <g id="icons" transform="translate(-39.000000, -980.000000)" fill="#585F73" fill-rule="nonzero">
            <g id="fa-rubbish" transform="translate(36.000000, 980.000000)">
                <path d="M18.2832708,1.99995707 L14,2 L14,0.720000029 C14,0.324154613 13.6790733,0 13.2831849,0 L8.71681508,0 C8.32096967,0 8,0.32411168 8,0.720000029 L8,2 L3.78224209,1.99991413 C3.38639667,1.99991413 3.06542701,2.32084087 3.06542701,2.71672922 L3.06542701,5.28314198 C3.06542701,5.6789874 3.38635374,5.99995707 3.78224209,5.99995707 L4,5.99995707 L4.59007926,21.2954959 C4.60630807,21.6791912 4.92216867,21.9819142 5.30620741,21.9819142 L16.6649959,21.9819142 C17.0490776,21.9819142 17.3648952,21.6791912 17.3811241,21.295453 L18,5.99995707 L18.2831849,5.99995707 C18.6790303,5.99995707 19,5.67903033 19,5.28314198 L19,2.71677215 C19,2.32084087 18.6791591,1.99995707 18.2832708,1.99995707 Z M9.30000019,1.29999995 L12.5,1.29999995 L12.5,2 L9.30000019,2 L9.30000019,1.29999995 Z M16.3000002,20.6564716 L5.80000019,20.6564716 L5.30000019,6 L16.7000008,6 L16.3000002,20.6564716 Z M8.03516862,8.04158674 C8.39411686,8.04158674 8.68512966,8.36251347 8.6851686,8.75840182 L8.6851686,8.75840182 L8.6851686,17.6333247 C8.6851686,18.0292131 8.39411686,18.3501398 8.03516862,18.3501398 C7.67618145,18.3501398 7.38516864,18.0291701 7.38516864,17.6333247 L7.38516864,17.6333247 L7.38516864,8.75840182 C7.38516864,8.36251347 7.67622038,8.04158674 8.03516862,8.04158674 Z M10.9500002,8.04158674 C11.3089484,8.04158674 11.5999612,8.36251347 11.6000001,8.75840182 L11.6000001,8.75840182 L11.6000001,17.6333247 C11.6000001,18.0292131 11.3089484,18.3501398 10.9500002,18.3501398 C10.5909741,18.3501398 10.3000002,18.0291701 10.3000002,17.6333247 L10.3000002,17.6333247 L10.3000002,8.75840182 C10.3000002,8.36251347 10.5910519,8.04158674 10.9500002,8.04158674 Z M13.9500002,8.04158674 C14.3089873,8.04158674 14.6000001,8.36251347 14.6000001,8.75840182 L14.6000001,8.75840182 L14.6000001,17.6333247 C14.6000001,18.0292131 14.3089873,18.3501398 13.9500002,18.3501398 C13.591013,18.3501398 13.3000002,18.0291701 13.3000002,17.6333247 L13.3000002,17.6333247 L13.3000002,8.75840182 C13.3000002,8.36251347 13.5910519,8.04158674 13.9500002,8.04158674 Z M17.5373156,3.29999995 L17.5373156,4.69999981 L4.43397363,4.69999981 L4.43397363,4.69999981 L4.43397363,3.29999995 L17.5373156,3.29999995 Z" id="Shape"></path>
            </g>
        </g>
    </g>
</svg>
