<?xml version="1.0" encoding="UTF-8"?>
<svg width="22px" height="22px" viewBox="0 0 22 22" version="1.1" xmlns="http://www.w3.org/2000/svg" xmlns:xlink="http://www.w3.org/1999/xlink">

    <g id="Page-1" stroke="none" stroke-width="1" fill="none" fill-rule="evenodd">
        <g id="icons" transform="translate(-514.000000, -330.000000)" fill="#585F73">
            <g id="fa-save" transform="translate(514.000000, 330.000000)">
                <path d="M1.47570801,0 C0.983805339,6.02407029e-17 0,0 0,1.34613037 L0,20.5929413 C2.87191659e-17,21.0619609 0,22 1.43273926,22 L20.6426239,22 C22,22 22,21.123057 22,20.7060699 L22,5.15625 L16.7391304,0 L1.47570801,0 Z M13.737915,1.39665222 L13.7379152,6.87533569 L9.66629028,6.87533569 L9.66629015,1.39665222 L13.737915,1.39665222 Z M8.26242071,1.38557434 L8.2624206,6.88322449 L5.53105164,6.88322449 L5.53105174,1.38557434 L8.26242071,1.38557434 Z M5.50721741,20.6656189 L5.50721741,12.3857422 L16.5201416,12.3857422 L16.5201416,20.6656189 L5.50721741,20.6656189 Z M17.8889313,20.6453092 L17.8889313,11.0290372 L4.10502624,11.0290375 L4.10502624,20.6453094 L1.39916992,20.6453097 L1.39916992,1.4127655 L4.10502624,1.41276526 L4.10502579,8.25050324 L15.1305389,8.2505033 L15.1305394,1.41276532 L16.26087,1.4127655 L20.6347342,5.625 L20.6347347,20.6453097 L17.8889313,20.6453092 Z" id="Shape"></path>
            </g>
        </g>
    </g>
</svg>
