<?xml version="1.0" encoding="UTF-8"?>
<svg width="22px" height="22px" viewBox="0 0 22 22" version="1.1" xmlns="http://www.w3.org/2000/svg" xmlns:xlink="http://www.w3.org/1999/xlink">

    <g id="Page-1" stroke="none" stroke-width="1" fill="none" fill-rule="evenodd">
        <g id="icons" transform="translate(-165.000000, -271.000000)" fill="#585F73">
            <g id="fa-search" transform="translate(165.000000, 271.000000)">
                <path d="M9.25742181,0 C14.3701547,0 18.5148436,4.14473375 18.5148436,9.25752194 C18.5148436,11.5773965 17.6615366,13.6979683 16.2516711,15.3224856 L21.8081025,20.8800276 C22.0592055,21.1311467 22.0676012,21.5551489 21.8112796,21.8114869 L21.8112796,21.8114869 L21.7317039,21.8788348 C21.4792188,22.0589012 21.1121484,22.0405931 20.8798798,21.8083096 L20.8798798,21.8083096 L15.3233115,16.2509861 C13.6986832,17.6613803 11.5777433,18.5150439 9.25742181,18.5150439 C4.14468892,18.5150439 0,14.3703101 0,9.25752194 C0,4.14473375 4.14468892,0 9.25742181,0 Z M9.28125,1.375 C4.9147487,1.375 1.375,4.9147487 1.375,9.28125 C1.375,13.6477513 4.9147487,17.1875 9.28125,17.1875 C13.6477513,17.1875 17.1875,13.6477513 17.1875,9.28125 C17.1875,4.9147487 13.6477513,1.375 9.28125,1.375 Z" id="Combined-Shape"></path>
            </g>
        </g>
    </g>
</svg>
