<?xml version="1.0" encoding="UTF-8"?>
<svg width="22px" height="20px" viewBox="0 0 22 20" version="1.1" xmlns="http://www.w3.org/2000/svg" xmlns:xlink="http://www.w3.org/1999/xlink">

    <g id="Page-1" stroke="none" stroke-width="1" fill="none" fill-rule="evenodd">
        <g id="icons" transform="translate(-299.000000, -1040.000000)" fill="#585F73" fill-rule="nonzero">
            <g id="fa_send" transform="translate(299.000000, 1039.000000)">
                <path d="M21.8939423,1.59867441 C21.795458,1.50366422 21.6499659,1.47426339 21.521919,1.52361933 L0.223995892,9.71411081 C0.0974100168,9.76278598 0.0105702156,9.87932558 0.000902251625,10.0133951 C-0.00876571238,10.1474645 0.0604569099,10.2750241 0.178706852,10.3410164 L4.59241172,12.8034951 L6.12428987,20.2179069 C6.13382893,20.2703263 6.15535626,20.3191292 6.18625078,20.3610392 C6.24842653,20.438562 6.32495384,20.4852375 6.41415692,20.4993635 C6.53726233,20.5037885 6.60072714,20.4848545 6.65482477,20.4515393 C6.67312945,20.4403065 6.69053178,20.4273293 6.70668803,20.4126076 C6.71003959,20.4095442 7.82208461,19.305758 10.0428231,17.1012492 C10.1797215,16.9653076 10.1412023,16.6684058 9.96745598,16.4612521 C9.79370969,16.2540985 9.40817464,16.2529508 9.2712333,16.3888924 L7.08059449,18.4742759 L7.49971889,14.4190088 L15.4702033,18.7510142 C15.5504688,18.7944134 15.6396719,18.8037315 15.7213984,18.7842018 C15.8274023,18.7512269 15.8982148,18.6972758 15.943246,18.619838 C15.9586288,18.5914158 15.9659335,18.5745667 15.9717343,18.5574623 L21.9794071,1.96497211 C22.0257704,1.83681685 21.9924266,1.69359951 21.8939423,1.59867441 Z M2.06181401,10.1036386 L19.0461329,3.57532694 L5.11561549,11.7854983 L2.06181401,10.1036386 Z M6.55063117,13.8251744 C6.5042452,14.0686816 6.45940612,14.3492979 6.41611392,14.6670234 L6.28617545,16.1400751 L5.7686491,12.8421596 L15.7114169,6.44484309 L7.06927128,13.0741276 C6.76989718,13.3313183 6.59701714,13.5816673 6.55063117,13.8251744 Z M15.3147952,17.2903569 L8.45763287,13.6555793 L20.2467644,3.6658839 L15.3147952,17.2903569 Z" id="Shape"></path>
            </g>
        </g>
    </g>
</svg>
