<?xml version="1.0" encoding="UTF-8"?>
<svg width="22px" height="22px" viewBox="0 0 22 22" version="1.1" xmlns="http://www.w3.org/2000/svg" xmlns:xlink="http://www.w3.org/1999/xlink">

    <g id="Page-1" stroke="none" stroke-width="1" fill="none" fill-rule="evenodd">
        <g id="icons" transform="translate(-514.000000, -389.000000)" fill="#585F73">
            <g id="fa-settings-o" transform="translate(514.000000, 389.000000)">
                <path d="M2.20235151,21.2776173 C2.20235151,21.2776173 2.22115496,21.9853014 2.90147378,21.9853014 C3.5817926,21.9853014 3.59073617,21.2776167 3.59073617,21.2776167 L3.59073617,5.97089979 C4.83176181,5.63786812 5.81025641,4.54338742 5.81025641,3.21126072 C5.81025641,1.63861115 4.51282051,0.343487974 2.8957265,0.343487974 C1.27863248,0.343487974 0,1.63861115 0,3.21126072 C0,4.52488566 0.998932702,5.61936695 2.22115492,5.95239862 L2.20235151,21.2776173 Z M11,0.352941176 C11.6747437,0.35294111 11.6875,1.01867651 11.6875,1.01867651 L11.6875,8.99326275 C12.9285256,9.32629443 13.8498932,10.4364 13.8498932,11.7685267 C13.8498932,13.1006534 12.9285256,14.210759 11.6875,14.5437907 L11.6875,14.5437907 L11.6872963,21.3383438 C11.6844444,21.4161857 11.6416667,22 11,22 C10.3125,22 10.3252563,21.3298053 10.3252563,21.3298053 L10.3252563,14.5437909 C9.10303413,14.2107592 8.25,13.1006536 8.25,11.7870287 C8.25,10.4734037 9.10303413,9.3632982 10.3252563,9.03026652 L10.3252563,9.03026652 L10.3254563,1.01019479 C10.3282552,0.932870847 10.3702393,0.352941239 11,0.352941176 Z M2.88587255,1.78135828 C3.63800931,1.78135828 4.25852213,2.39191635 4.25852213,3.13198674 C4.25852213,3.87205713 3.63800931,4.4826152 2.88587255,4.4826152 C2.1337358,4.4826152 1.51322298,3.87205713 1.51322298,3.13198674 C1.51322298,2.39191635 2.1337358,1.78135828 2.88587255,1.78135828 Z M19.1860308,0.331293611 C19.6185094,0.331293611 19.8564105,0.664325285 19.8564105,1.08986576 L19.8564105,1.08986576 L19.8564103,16.3480886 C21.0974359,16.6811203 22.0188035,17.7912259 22,19.1048508 C22,20.6960022 20.7025641,21.9726236 19.0854701,21.9726236 C17.4683761,21.9726236 16.1979599,20.6775 16.1979599,19.1048504 C16.1979599,17.7912255 17.2343421,16.6811203 18.4753678,16.3480886 L18.4753678,16.3480886 L18.4753679,1.08986573 C18.4753679,0.664325256 18.7535521,0.331293611 19.1860308,0.331293611 Z M11.0097356,10.4364002 C11.7618724,10.4364002 12.3823852,11.0284565 12.3823852,11.7870287 C12.3823852,12.5270991 11.7618724,13.1376571 11.0097356,13.1376571 C10.2575989,13.1376571 9.63708604,12.5270991 9.63708604,11.7870287 C9.63708604,11.0469583 10.2575989,10.4364002 11.0097356,10.4364002 Z M17.7358563,19.1577835 C17.7358563,18.4177131 18.3563692,17.8071551 19.1085059,17.8071551 C19.8606427,17.8071551 20.4811555,18.4177131 20.4811555,19.1577835 C20.4811555,19.8978539 19.8606427,20.508412 19.1085059,20.508412 C18.3563692,20.508412 17.7358563,19.8978539 17.7358563,19.1577835 Z" id="Combined-Shape"></path>
            </g>
        </g>
    </g>
</svg>
