<?xml version="1.0" encoding="UTF-8"?>
<svg width="22px" height="22px" viewBox="0 0 22 22" version="1.1" xmlns="http://www.w3.org/2000/svg" xmlns:xlink="http://www.w3.org/1999/xlink">

    <g id="Page-1" stroke="none" stroke-width="1" fill="none" fill-rule="evenodd">
        <g id="icons" transform="translate(-299.000000, -94.000000)" fill="#585F73" fill-rule="nonzero">
            <g id="fa-settings" transform="translate(299.000000, 94.000000)">
                <path d="M0,9.50172414 C0,9.06551724 0.340791738,8.72413793 0.776247849,8.72413793 L2.17728055,8.72413793 C2.38554217,7.88965517 2.70740103,7.11206897 3.14285714,6.39137931 L2.15834768,5.40517241 C1.85542169,5.10172414 1.85542169,4.60862069 2.15834768,4.30517241 L4.29776248,2.14310345 C4.60068847,1.83965517 5.0929432,1.83965517 5.39586919,2.14310345 L6.39931153,3.14827586 C7.11876076,2.73103448 7.89500861,2.40862069 8.7091222,2.2 L8.7091222,0.777586207 C8.7091222,0.34137931 9.04991394,0 9.48537005,0 L12.5146299,0 C12.9500861,0 13.2908778,0.34137931 13.2908778,0.777586207 L13.2908778,2.2 C14.1049914,2.42758621 14.8812392,2.75 15.6006885,3.16724138 L16.6041308,2.16206897 C16.9070568,1.85862069 17.3993115,1.85862069 17.7022375,2.16206897 L19.8605852,4.2862069 C20.1635112,4.58965517 20.1635112,5.08275862 19.8605852,5.3862069 L18.83821,6.41034483 C19.2547332,7.13103448 19.5765921,7.88965517 19.7848537,8.70517241 L21.2237522,8.70517241 C21.6592083,8.70517241 22,9.04655172 22,9.48275862 L22,12.5172414 C22,12.9534483 21.6592083,13.2948276 21.2237522,13.2948276 L19.7848537,13.2948276 C19.5765921,14.1103448 19.2547332,14.8689655 18.83821,15.5896552 L19.8605852,16.6137931 C20.1635112,16.9172414 20.1635112,17.4103448 19.8605852,17.7137931 L17.7211704,19.8568966 C17.4182444,20.1603448 16.9259897,20.1603448 16.6230637,19.8568966 L15.6006885,18.8327586 C14.8812392,19.25 14.1239243,19.5724138 13.3098107,19.7810345 L13.3098107,21.2224138 C13.3098107,21.6586207 12.9690189,22 12.5335628,22 L9.50430293,22 C9.06884682,22 8.72805508,21.6586207 8.72805508,21.2224138 L8.72805508,19.8 C7.91394148,19.5913793 7.13769363,19.2689655 6.41824441,18.8517241 L5.41480207,19.8568966 C5.11187608,20.1603448 4.61962134,20.1603448 4.31669535,19.8568966 L2.17728055,17.7137931 C1.87435456,17.4103448 1.87435456,16.9172414 2.17728055,16.6137931 L3.16179002,15.6275862 C2.72633391,14.9068966 2.40447504,14.1293103 2.19621343,13.3137931 L0.776247849,13.3137931 C0.340791738,13.3137931 0,12.9724138 0,12.5362069 L0,9.50172414 Z M1,12.5362069 C1,12.4205143 0.893462484,12.3137931 0.776247849,12.3137931 L2.19621343,12.3137931 L2.97293265,12.3137931 L3.16511848,13.0663603 C3.35087288,13.7937431 3.63647085,14.4795185 4.01768483,15.1104363 L4.42239512,15.7802409 L3.86950559,16.3340837 L2.88499612,17.3202906 C2.9717827,17.2333544 2.9717827,17.0942319 2.88499612,17.0072956 L5.02441092,19.1503991 C4.93667376,19.0625107 4.79482366,19.0625107 4.7070865,19.1503991 L5.71052884,18.1452267 L6.25421972,17.6005984 L6.91992725,17.9866725 C7.56903228,18.3631181 8.26078497,18.6479484 8.97628932,18.8313 L9.72805508,19.0239437 L9.72805508,19.8 L9.72805508,21.2224138 C9.72805508,21.1067212 9.62151756,21 9.50430293,21 L12.5335628,21 C12.4163482,21 12.3098107,21.1067212 12.3098107,21.2224138 L12.3098107,19.7810345 L12.3098107,19.0049782 L13.0615764,18.8123344 C13.7636446,18.632426 14.4364335,18.3519628 15.0990056,17.967707 L15.7647132,17.5816329 L16.308404,18.1262612 L17.3307793,19.1503991 C17.2430421,19.0625107 17.101192,19.0625107 17.0134548,19.1503991 L19.1528696,17.0072956 C19.066083,17.0942319 19.066083,17.2333544 19.1528696,17.3202906 L18.1304944,16.2961526 L17.5886105,15.7533344 L17.9724098,15.0892652 C18.356145,14.4253072 18.6362538,13.7510493 18.8159486,13.0473948 L19.0081345,12.2948276 L19.7848537,12.2948276 L21.2237522,12.2948276 C21.1065375,12.2948276 21,12.4015488 21,12.5172414 L21,9.48275862 C21,9.59845121 21.1065375,9.70517241 21.2237522,9.70517241 L19.7848537,9.70517241 L19.0081345,9.70517241 L18.8159486,8.95260524 C18.6362538,8.24895071 18.356145,7.57469278 17.9724098,6.9107348 L17.5886105,6.2466656 L18.1304944,5.70384736 L19.1528696,4.67970943 C19.066083,4.76664564 19.066083,4.90576815 19.1591494,4.99893951 L16.994522,2.86856643 C17.0822591,2.95645487 17.2241092,2.95645487 17.3118464,2.86856643 L16.308404,3.87373885 L15.7647132,4.41836713 L15.0990056,4.03229301 C14.459657,3.66150564 13.7626167,3.37021446 13.0216489,3.16307623 L12.2908778,2.95878848 L12.2908778,2.2 L12.2908778,0.777586207 C12.2908778,0.893278799 12.3974153,1 12.5146299,1 L9.48537005,1 C9.60258469,1 9.7091222,0.893278799 9.7091222,0.777586207 L9.7091222,2.2 L9.7091222,2.97605629 L8.95735644,3.16870004 C8.2418521,3.35205161 7.55009941,3.63688192 6.90099438,4.01332749 L6.23528685,4.39940161 L5.69159596,3.85477333 L4.68815362,2.84960092 C4.77589078,2.93748935 4.91774089,2.93748935 5.00858345,2.84647643 L2.86606324,5.01166988 C2.95284983,4.92473367 2.95284983,4.78561116 2.86606324,4.69867494 L3.85057271,5.68488184 L4.40346224,6.23872463 L3.99875195,6.90852927 C3.61520623,7.54330606 3.33173769,8.22814421 3.1475212,8.96628061 L2.95838297,9.72413793 L2.17728055,9.72413793 L0.776247849,9.72413793 C0.893462484,9.72413793 1,9.61741673 1,9.50172414 L1,12.5362069 Z M16,11 C16,8.23857625 13.7614237,6 11,6 C8.23857625,6 6,8.23857625 6,11 C6,13.7614237 8.23857625,16 11,16 C13.7614237,16 16,13.7614237 16,11 Z M11,5 C14.3137085,5 17,7.6862915 17,11 C17,14.3137085 14.3137085,17 11,17 C7.6862915,17 5,14.3137085 5,11 C5,7.6862915 7.6862915,5 11,5 Z" id="Combined-Shape"></path>
            </g>
        </g>
    </g>
</svg>
