<svg width="14" height="13" viewBox="0 0 14 13" fill="none" xmlns="http://www.w3.org/2000/svg">
<path d="M7.75164 10.2477C7.75164 9.80581 7.42969 9.43982 7.00812 9.36688L7.00791 9.36465L6.84286 8.94277L7.02242 8.70445L8.34811 4.90597C8.24288 4.86712 8.13669 4.83112 8.02913 4.80444L7.3974 5.44051L6.78463 4.79767C6.78304 4.7983 6.78114 4.7982 6.7786 4.79894C6.03942 5.01565 5.12545 5.65786 5.12545 5.65786C4.79471 5.89394 4.47594 6.15375 4.18364 6.45495C3.33891 7.28432 2.74138 8.23821 2.34808 9.50843C2.24125 9.85271 2.2259 10.3395 2.44939 10.6223C2.72719 10.9731 2.88325 11.1564 4.6826 11.1564C4.6826 11.1523 6.85514 11.144 6.85514 11.144C7.34976 11.1439 7.75164 10.7419 7.75164 10.2477ZM5.76776 10.8776C5.49599 10.8789 5.22433 10.8803 5.02053 10.8815C4.91805 10.8824 4.83304 10.883 4.77333 10.8837C4.75173 10.8839 4.71934 10.8843 4.6827 10.8884V10.8856C3.00362 10.8856 2.88229 10.7324 2.66219 10.4543C2.50984 10.2612 2.51895 9.87283 2.60703 9.58867C2.97292 8.40696 3.53424 7.47256 4.37812 6.64382C4.63178 6.38221 4.92779 6.13226 5.2796 5.88103L5.33857 5.84027L6.74959 9.44829C6.77934 9.54336 6.86022 9.61641 6.96196 9.63399C7.26253 9.68607 7.48072 9.94439 7.48072 10.2479C7.48072 10.5928 7.20017 10.873 6.85419 10.873C6.85419 10.8729 6.31097 10.8749 5.76776 10.8776Z" fill="#585F73"/>
<path d="M10.6569 6.80047C10.2093 6.22539 9.55176 5.50114 8.59714 5.01562L7.86579 9.66371C7.86579 9.66371 7.98585 10.0301 7.98585 10.2479C7.98585 10.8711 7.47873 11.3784 6.85516 11.3784H4.80257C4.80257 11.3784 4.80257 11.8062 4.80257 12.6052C4.80257 12.7599 4.80988 12.8899 4.82152 13.0001H9.9745C9.98551 12.8899 9.99271 12.7597 9.99271 12.6052V9.44096C10.2246 10.2112 10.4074 11.2995 10.4074 12.8192C10.4074 12.8811 10.414 12.9416 10.4257 13H12.1968C12.2085 12.9416 12.2148 12.8811 12.2148 12.8192C12.2147 9.34769 11.3299 7.61577 10.6569 6.80047Z" fill="#585F73"/>
<path d="M7.403 4.74273C8.71267 4.74273 9.77437 3.68103 9.77437 2.37136C9.77437 1.0617 8.71267 0 7.403 0C6.09333 0 5.03164 1.0617 5.03164 2.37136C5.03164 3.68103 6.09333 4.74273 7.403 4.74273Z" fill="#585F73"/>
</svg>
