<?xml version="1.0" encoding="UTF-8"?>
<svg width="22px" height="23px" viewBox="0 0 22 23" version="1.1" xmlns="http://www.w3.org/2000/svg" xmlns:xlink="http://www.w3.org/1999/xlink">

    <g id="Page-1" stroke="none" stroke-width="1" fill="none" fill-rule="evenodd">
        <g id="icons" transform="translate(-100.000000, -93.000000)" fill="#585F73">
            <g id="fa-sign-in" transform="translate(100.000000, 94.000000)">
                <path d="M13.6004,-0.00712909698 C13.8216,-0.00712909698 14.0004,0.171670903 14.0004,0.392870903 L14.0004,0.392870903 L13.9711097,6.98951409 C13.9711097,7.19173559 13.9019532,7.53228769 13.5019535,7.53228769 C13.1009554,7.53228769 13.0452275,7.21784316 13.0452275,6.99664316 L13.0452275,6.99664316 L13.0452275,1.01367185 L2.9475097,1.01367188 L9.72974495,2.81880057 C9.89574495,2.87160057 10.008545,3.02560057 10.008545,3.20000057 L10.008545,3.20000057 L10.0085453,18.0100714 L13.0452275,18.0100708 L13.0452271,11.4928589 C13.0452271,11.2716589 13.2519535,10.9982666 13.5019535,10.9982666 C13.8110966,10.9982666 14.0004,11.2716589 14.0004,11.4928589 L14.0004,11.4928589 L14.0004004,18.5832001 C14.0004004,18.8044001 13.8216004,18.9832001 13.6004004,18.9832001 L13.6004004,18.9832001 L10.0085453,18.9832006 L10.008545,21.6000006 C10.008545,21.7280006 9.94774495,21.8480006 9.84454495,21.9232006 C9.77534495,21.9736006 9.69254495,22.0000006 9.60854495,22.0000006 C9.56774495,22.0000006 9.52694495,21.9936006 9.48774495,21.9816006 C9.48774495,21.9816006 0.2676,19.1744 0.2608,19.172 C0.2448,19.166 0.2312,19.1576 0.2164,19.1496 C0.1884,19.1348 0.1624,19.118 0.1392,19.0976 C0.1264,19.086 0.1148,19.0744 0.1032,19.0616 C0.082,19.0376 0.0652,19.0116 0.0292,18.942 C0.012,18.8972 0.0004,18.85 0.0004,18.8 L0.0004,18.8 L0.0004,0.4 C0.0004,0.3512 0.0116,0.3044 0.0372,0.2356 C0.0556,0.1956 0.0804,0.1592 0.1312,0.1076 C0.1424,0.0976 0.152,0.086 0.1972,0.0632 C0.2296,0.0436 0.2632,0.03 0.3008,0.02 C0.322,0.0144 0.3416,0.0092 0.4004,2.2223369e-13 L0.4004,2.2223369e-13 Z M1.00128174,1.43432617 L1.00128174,18.3566284 L9.00897217,20.7944336 L9.00897217,3.6529541 L1.00128174,1.43432617 Z M16.5203733,4.63012684 C16.6767733,4.47372684 17.0176723,4.47372684 17.1740723,4.63012684 L17.1740723,4.63012684 L21.7842407,9.11682121 C22,9.39349358 22,9.68872063 21.7842407,9.90344231 C21.5684814,10.118164 17.1740723,14.5958864 17.1740723,14.5958864 C17.1740723,14.5958864 16.8143797,14.8344118 16.5203733,14.5160524 C16.2856106,14.2618439 16.3639733,13.9958167 16.5203733,13.8394167 L16.5203733,13.8394167 L20.3505249,10.0000001 L11.4,10 C11.1788,10 11,9.73786282 11,9.51666282 C11,9.29546282 11.1788,9.0050051 11.4,9.0050051 L11.4,9.0050051 L20.3505249,9.005005 L16.5203733,5.25988757 C16.3639733,5.10348757 16.3639733,4.78652684 16.5203733,4.63012684 Z" id="Combined-Shape"></path>
            </g>
        </g>
    </g>
</svg>
