<?xml version="1.0" encoding="UTF-8"?>
<svg width="22px" height="22px" viewBox="0 0 22 22" version="1.1" xmlns="http://www.w3.org/2000/svg" xmlns:xlink="http://www.w3.org/1999/xlink">

    <g id="Page-1" stroke="none" stroke-width="1" fill="none" fill-rule="evenodd">
        <g id="icons" transform="translate(-443.000000, -980.000000)" fill="#585F73" fill-rule="nonzero">
            <g id="fa-star" transform="translate(443.000000, 980.000000)">
                <path d="M0.883519055,8.41082519 L0.889867102,8.41697756 C0.887777995,8.41490113 0.885661956,8.41285018 0.883519055,8.41082519 Z M5.00140186,20.9659541 L5.00241927,20.9599136 C5.00209615,20.9619278 5.00175706,20.9639413 5.00140186,20.9659541 Z M21.1289802,8.33089397 C21.123114,8.33630891 21.1174373,8.34187889 21.1119522,8.34759328 L21.1289802,8.33089397 Z M8.05215271,7.98170734 L7.53216774,8.05902089 L1.45310434,8.962853 L6.24145841,13.6036059 L6.15415392,14.1219549 L5.1340306,20.1785246 L11.025731,17.0568351 L11.4920544,17.3004471 L16.930533,20.1417206 L15.7828149,13.5739804 L16.1581571,13.2058299 L20.5480755,8.90059296 L13.9530563,7.96340602 L13.7189049,7.49270691 L10.9832963,1.99348959 L8.05215271,7.98170734 Z M21.9698144,8.43805801 C22.0420606,8.65931219 21.9833605,8.90314332 21.8072603,9.06569741 L16.8583913,13.9197431 L18.0459393,20.7154071 C18.0594854,20.760561 18.0640008,20.805715 18.0640008,20.8553843 C18.0640008,21.1895232 17.788562,21.4649621 17.454423,21.4649621 C17.3595998,21.4649621 17.2647766,21.4423851 17.1744687,21.3972312 L11.0290211,18.186788 L4.90163501,21.4333543 C4.81132718,21.4830237 4.71650396,21.5056006 4.61716535,21.5056006 C4.49073439,21.5056006 4.36430344,21.4649621 4.26044944,21.3882004 C4.070803,21.2527387 3.97597978,21.0224537 4.0166183,20.7921688 L5.1680431,13.9558663 L0.187566427,9.12891289 C0.0204969471,8.97087419 -0.042718532,8.72704306 0.0295277298,8.50578888 C0.101773992,8.28453471 0.291420429,8.12649601 0.521705388,8.09037288 L7.38510026,7.06989443 L10.4329894,0.843169743 C10.5368434,0.630946349 10.7490668,0.5 10.9793518,0.5 C11.2096367,0.5 11.4218601,0.630946349 11.5257141,0.838654352 L14.6142418,7.04731747 L21.4776367,8.02264201 C21.7079217,8.05876514 21.8975681,8.21680384 21.9698144,8.43805801 Z" id="Shape"></path>
            </g>
        </g>
    </g>
</svg>
