<?xml version="1.0" encoding="UTF-8"?>
<svg width="22px" height="22px" viewBox="0 0 22 22" version="1.1" xmlns="http://www.w3.org/2000/svg" xmlns:xlink="http://www.w3.org/1999/xlink">

    <g id="Page-1" stroke="none" stroke-width="1" fill="none" fill-rule="evenodd">
        <g id="icons" transform="translate(-514.000000, -980.000000)" fill="#585F73">
            <g id="fa-star_o" transform="translate(514.000000, 980.000000)">
                <path d="M10.8861657,17.7049531 C7.96736962,19.2450843 5.77827258,20.4001827 4.31887456,21.1702483 C4.19140647,21.2375081 4.10742302,21.1773027 4.12705424,21.062424 C4.54675805,18.606386 4.96646186,16.150348 5.38616567,13.69431 C3.60793389,11.9546037 1.82970211,10.2148973 0.0514703284,8.47519095 C-0.0311820002,8.39432929 -0.0115553746,8.2985511 0.0907235796,8.28363458 C2.55614196,7.92407409 5.02156035,7.56451361 7.48697873,7.20495313 C8.56981942,5.01239066 9.65072656,2.81897971 10.7297001,0.624720256 C10.8108332,0.45972356 10.9743298,0.45713464 11.0567359,0.624720256 C12.1348608,2.81725376 13.2110664,5.01066472 14.2853526,7.20495313 C16.7451076,7.56368765 19.2048626,7.92242217 21.6646175,8.28115669 C21.7753916,8.29731216 21.8034128,8.39442769 21.7206599,8.47538775 C19.9424951,10.2150285 18.1643304,11.9546693 16.3861657,13.69431 C16.8077196,16.1611748 17.2292736,18.6280396 17.6508276,21.0949044 C17.6676836,21.1935429 17.5975058,21.2462572 17.510472,21.200333 C15.3023699,20.0352063 13.0942678,18.8700797 10.8861657,17.7049531 Z" id="Star"></path>
            </g>
        </g>
    </g>
</svg>
