<?xml version="1.0" encoding="UTF-8"?>
<svg width="22px" height="22px" viewBox="0 0 22 22" version="1.1" xmlns="http://www.w3.org/2000/svg" xmlns:xlink="http://www.w3.org/1999/xlink">

    <g id="Page-1" stroke="none" stroke-width="1" fill="none" fill-rule="evenodd">
        <g id="icons" transform="translate(-100.000000, -330.000000)" fill="#585F73">
            <g id="fa-stethoscope" transform="translate(100.000000, 330.000000)">
                <path d="M9.20695271,-1.0658141e-14 C10.0555041,-1.0658141e-14 10.2578656,0.51537323 10.2578656,1.07640076 C10.2578656,1.63742828 10.1496045,2.21448517 9.20695262,2.21448517 L9.20695262,2.21448517 L8.51146562,2.21448526 C8.09532726,2.21448526 7.92309433,1.99286827 7.80738833,1.85630035 C7.57093792,1.99286821 7.23528292,2.09195709 6.88861789,2.48194885 C6.54195287,2.87194061 6.33151056,3.40409316 6.51496889,4.14377555 C6.7052231,4.91085815 7.17871737,5.56173509 7.39280703,5.9598586 C7.60689668,6.35798211 8.71137463,7.46649872 8.96611788,9.01563722 L8.96611788,9.01563722 L13.043,9.01563722 C13.7645614,7.38879646 14.420615,6.82845843 15.0329358,5.9598586 C15.6452566,5.09125876 15.6945443,4.85461786 15.8462369,4.14377555 C16.0066422,3.39210465 15.7372205,2.83686066 15.4567342,2.48194885 C15.176248,2.12703705 14.476608,1.85630035 14.476608,1.85630035 C14.365997,2.21448517 13.8524937,2.21448525 13.8088942,2.21448527 L13.0180074,2.21448518 C12.1883542,2.21448517 12.042915,1.68133518 12.042915,1.07640076 C12.042915,0.471466331 12.1533387,-1.0658141e-14 13.0430002,-1.0658141e-14 L13.0430002,-1.0658141e-14 L13.8338869,-1.0658141e-14 C14.2780796,-1.0658141e-14 14.6540152,0.305915153 14.7744147,0.724014974 C15.3372953,0.829959989 16.0348113,1.14598768 16.5352795,1.7700391 C17.0343282,2.39236924 17.2472401,3.21316339 17.151054,4.14373242 C17.0137885,5.4715307 16.2222155,6.48571108 15.4567347,7.46649856 C14.6114328,8.54953029 14.0064646,9.57253225 14.0064646,10.9946999 C14.0064646,11.5157959 14.0064646,12.0111415 12.4770958,12.0111415 L12.4770958,12.0111415 L11.7456586,12.0111412 L11.7497225,13.0100497 L14.681154,13.0100504 C15.4314323,13.0100504 16.434964,12.9820834 17.4578426,13.0916577 C19.6831383,13.3300391 22,14.2985018 22,17.542984 C22,22.2788235 17.0636793,21.9968058 14.6811536,21.9968058 C12.2986279,21.9968058 10.3482865,19.9988249 10.3482865,17.5429833 L10.3482865,17.5429833 L10.3482864,14.3955383 L3.81247174,14.3955422 C3.495013,15.079507 2.80221426,15.5538058 1.99865808,15.5538058 C0.894829701,15.5538058 0,14.6588067 0,13.5547694 C0,12.4507321 0.894829701,11.5557331 1.99865808,11.5557331 C2.9137022,11.5557331 3.68512316,12.1707733 3.9222253,13.0100843 L10.3482866,13.0100497 L10.3442227,12.0111412 L9.56084108,12.0111415 C8.51146534,12.0111415 8.04318377,11.7421243 8.04318377,10.9946999 C8.04318377,9.57253225 7.73391987,8.54953029 6.88861796,7.46649856 C6.12313714,6.48571108 5.33156417,5.4715307 5.19429863,4.14377545 C5.09811256,3.21320643 5.31102444,2.39236924 5.81007318,1.77008214 C6.31049959,1.14603072 7.00805735,0.830003021 7.57093792,0.724058006 C7.6913375,0.305915153 8.06727308,-1.0658141e-14 8.5114657,-1.0658141e-14 L8.5114657,-1.0658141e-14 Z M20.6642761,17.4395218 C20.6642761,14.095329 16.7183863,14.374054 14.6811536,14.374054 L14.6811536,14.374054 L11.7030258,14.374054 L11.7030258,17.5429841 C11.7030258,19.6429073 13.023482,20.6333926 15.0607147,20.6333926 C17.0979474,20.6333926 20.6642761,20.7837145 20.6642761,17.4395218 Z M1.99729926,12.6688838 C1.50898715,12.6688838 1.11168856,13.0784082 1.11168856,13.5817468 C1.11168856,14.0850854 1.50898715,14.4946098 1.99729926,14.4946098 C2.41528026,14.4946098 2.76630909,14.1944886 2.85884859,13.7924075 L2.85884859,13.7924075 L2.60403796,13.7924075 C2.51852884,14.0533459 2.27895071,14.241817 1.99729926,14.241817 C1.64419946,14.241817 1.3569346,13.9457123 1.3569346,13.5817468 C1.3569346,13.2177813 1.64419946,12.9216766 1.99729926,12.9216766 C2.27895071,12.9216766 2.51852884,13.1101477 2.60403796,13.3710861 L2.60403796,13.3710861 L2.85884859,13.3710861 C2.76630909,12.9690051 2.41528026,12.6688838 1.99729926,12.6688838 Z M12.7607117,10.1606827 L9.28279847,10.1606827 C9.39701943,10.390388 9.28551628,10.7113878 9.55265807,10.7113878 L9.55265807,10.7113878 L12.4439012,10.7113878 C12.7110847,10.7113878 12.6465324,10.390388 12.7607117,10.1606827 L12.7607117,10.1606827 Z M9.07257073,0.786685118 L8.7809877,0.786685118 C8.61015649,0.786685118 8.47118073,0.92993749 8.47118073,1.10602558 C8.47118073,1.28211366 8.61015649,1.42536603 8.7809877,1.42536603 L8.7809877,1.42536603 L9.07257073,1.42536603 C9.24340194,1.42536603 9.3823777,1.28211366 9.3823777,1.10602558 C9.3823777,0.92993749 9.24340194,0.786685118 9.07257073,0.786685118 L9.07257073,0.786685118 Z M13.4966736,0.776278453 L13.2050907,0.776278453 C13.0342596,0.776278453 12.8952839,0.919530763 12.8952839,1.09561877 C12.8952839,1.27170678 13.0342596,1.41495909 13.2050907,1.41495909 L13.2050907,1.41495909 L13.4966736,1.41495909 C13.6675047,1.41495909 13.8064804,1.27170678 13.8064804,1.09561877 C13.8064804,0.919530763 13.6675047,0.776278453 13.4966736,0.776278453 L13.4966736,0.776278453 Z" id="Combined-Shape"></path>
            </g>
        </g>
    </g>
</svg>
