<?xml version="1.0" encoding="UTF-8"?>
<svg width="22px" height="22px" viewBox="0 0 22 22" version="1.1" xmlns="http://www.w3.org/2000/svg" xmlns:xlink="http://www.w3.org/1999/xlink">

    <g id="Page-1" stroke="none" stroke-width="1" fill="none" fill-rule="evenodd">
        <g id="icons" transform="translate(-514.000000, -921.000000)" fill="#585F73">
            <g id="fa-stop" transform="translate(514.000000, 921.000000)">
                <path d="M22,11.0188041 C22,5.00171006 17.017094,0 11,0 C4.98290599,0 0,5.00171006 0,11.0188041 C0,17.0358981 4.98290598,22 11,22 C17.017094,22 22,17.0358981 22,11.0188041 Z M20.6562195,11 C20.6562195,16.1709402 16.1709403,20.6486664 11.0000001,20.6486664 C5.82905993,20.6486664 1.40621948,16.1709402 1.40621948,11 C1.40621948,5.82905983 5.82905993,1.38456726 11.0000001,1.38456726 C16.1709403,1.38456726 20.6562195,5.82905983 20.6562195,11 Z M13.6693025,6.83462973 L8.20158148,6.83462973 C7.4470334,6.83462973 6.83467273,7.4470334 6.83467273,8.20153847 L6.83467273,13.6692595 C6.83467273,14.4238075 7.44707641,15.0362112 8.20158148,15.0362112 L13.6693025,15.0362112 C14.4238505,15.0362112 15.0362542,14.4238075 15.0362542,13.6692595 L15.0362542,8.20153847 C15.0362542,7.4470334 14.4238505,6.83462973 13.6693025,6.83462973 Z" id="Combined-Shape"></path>
            </g>
        </g>
    </g>
</svg>
