<?xml version="1.0" encoding="UTF-8"?>
<svg width="23px" height="18px" viewBox="0 0 23 18" version="1.1" xmlns="http://www.w3.org/2000/svg" xmlns:xlink="http://www.w3.org/1999/xlink">

    <g id="Page-1" stroke="none" stroke-width="1" fill="none" fill-rule="evenodd">
        <g id="icons" transform="translate(-513.000000, -627.000000)" fill="#585F73">
            <g id="fa-sun-o" transform="translate(514.000000, 626.000000)">
                <path d="M10.8693569,11.217808 C7.55528414,11.217808 4.1808617,13.1190972 3.53795419,17.0592308 L0.725253353,17.0592308 L0.725253353,18.4899278 L5.10699268,18.4899277 L17.1397072,18.4899277 L21.0057377,18.4899278 L21.0057377,17.0592308 L18.1229191,17.0592308 C17.4103307,12.7276791 14.1834297,11.217808 10.8693569,11.217808 Z M10.9322551,12.4196846 C15.4290301,12.4196846 16.6885039,15.8418987 16.6885037,17.0592307 L5.03699891,17.0592307 C5.03699891,15.8550016 6.43548003,12.4196846 10.9322551,12.4196846 Z M1.08406612,7.00359263 L4.48719008,10.4067166 C4.68037658,10.5999031 4.67672291,10.916774 4.48973721,11.1037597 L4.1585546,11.4349423 C3.96677485,11.626722 3.65548523,11.6263688 3.46151154,11.4323951 L0.05838758,8.02927117 C-0.13479892,7.83608467 -0.13114525,7.5192138 0.0558404428,7.33222811 L0.387023054,7.0010455 C0.578802809,6.80926574 0.890092429,6.80961894 1.08406612,7.00359263 Z M21.5648966,7.0010455 L21.8960792,7.33222811 C22.087859,7.52400786 22.0875058,7.83529748 21.8935321,8.02927117 L18.4904081,11.4323951 C18.2972216,11.6255816 17.9803508,11.621928 17.7933651,11.4349423 L17.4621825,11.1037597 C17.2704027,10.9119799 17.2707559,10.6006903 17.4647296,10.4067166 L20.8678536,7.00359263 C21.0610401,6.81040613 21.3779109,6.8140598 21.5648966,7.0010455 Z M11.0341627,1.78937276 C11.3053802,1.78937276 11.5252455,2.01438291 11.5252455,2.28787625 L11.5252455,8.54351177 C11.5252455,8.81882765 11.2986004,9.04201527 11.0341627,9.04201527 L10.5657998,9.04201527 C10.2945822,9.04201527 10.074717,8.81700511 10.074717,8.54351177 L10.074717,2.28787625 C10.074717,2.01256037 10.3013621,1.78937276 10.5657998,1.78937276 L11.0341627,1.78937276 Z" id="Combined-Shape"></path>
            </g>
        </g>
    </g>
</svg>
