<?xml version="1.0" encoding="UTF-8"?>
<svg width="22px" height="22px" viewBox="0 0 22 22" version="1.1" xmlns="http://www.w3.org/2000/svg" xmlns:xlink="http://www.w3.org/1999/xlink">

    <g id="Page-1" stroke="none" stroke-width="1" fill="none" fill-rule="evenodd">
        <g id="icons" transform="translate(-443.000000, -626.000000)" fill="#585F73">
            <g id="fa-sun" transform="translate(443.000000, 626.000000)">
                <path d="M11.0744456,5.9837027 C13.8818714,5.9837027 16.1658497,8.26768106 16.1658497,11.0751068 C16.1658497,13.8825326 13.8818714,16.1665109 11.0744456,16.1665109 C8.26701985,16.1665109 5.98304149,13.8825326 5.98304149,11.0751068 C5.98304149,8.26768106 8.26701985,5.9837027 11.0744456,5.9837027 Z M4.58460699,10.405951 C4.86450332,10.405951 5.09140412,10.6241007 5.09140412,10.9055031 L5.09140412,11.037822 C5.09140412,11.313717 4.87263285,11.5373741 4.58460699,11.5373741 L0.506797128,11.5373741 C0.226900803,11.5373741 0,11.3192244 0,11.037822 L0,10.9055031 C0,10.6296081 0.218771271,10.405951 0.506797128,10.405951 L4.58460699,10.405951 Z M21.4932029,10.405951 C21.7730992,10.405951 22,10.6241007 22,10.9055031 L22,11.037822 C22,11.313717 21.7812287,11.5373741 21.4932029,11.5373741 L17.415393,11.5373741 C17.1354967,11.5373741 16.9085959,11.3192244 16.9085959,11.037822 L16.9085959,10.9055031 C16.9085959,10.6296081 17.1273671,10.405951 17.415393,10.405951 L21.4932029,10.405951 Z M11.1672274,16.9092571 C11.4431224,16.9092571 11.6667795,17.1277783 11.6667795,17.415475 L11.6667795,21.4886246 C11.6667795,21.7682011 11.4486298,21.9948426 11.1672274,21.9948426 L11.0349085,21.9948426 C10.7590135,21.9948426 10.5353564,21.7763213 10.5353564,21.4886246 L10.5353564,17.415475 C10.5353564,17.1358986 10.7535062,16.9092571 11.0349085,16.9092571 L11.1672274,16.9092571 Z M6.63665918,15.3672467 L6.73022277,15.4608103 C6.92531001,15.6558976 6.92910968,15.9683968 6.72876053,16.1687459 L4.2380105,18.659496 C4.04211569,18.8553908 3.72905639,18.8599397 3.53007487,18.6609582 L3.43651129,18.5673946 C3.24142405,18.3723074 3.23762438,18.0598081 3.43797353,17.859459 L5.92872355,15.368709 C6.12461837,15.1728142 6.43767766,15.1682652 6.63665918,15.3672467 Z M16.4357745,14.9011093 L18.9265245,17.3918593 C19.1224193,17.5877541 19.1269683,17.9008134 18.9279868,18.099795 L18.8344232,18.1933585 C18.6393359,18.3884458 18.3268367,18.3922455 18.1264876,18.1918963 L15.6357375,15.7011463 C15.4398427,15.5052515 15.4352938,15.1921922 15.6342753,14.9932107 L15.7278389,14.8996471 C15.9229261,14.7045598 16.2354254,14.7007602 16.4357745,14.9011093 Z M11.0744456,7.11512584 C13.2580903,7.11512584 15.0344266,8.89146212 15.0344266,11.0751068 C15.0344266,13.2587515 13.2580903,15.0350878 11.0744456,15.0350878 C8.89088634,15.0350878 7.11446463,13.2587515 7.11446463,11.0751068 C7.11446463,8.89146212 8.89080091,7.11512584 11.0744456,7.11512584 Z M3.98329375,3.44667183 L6.47404378,5.93742186 C6.66993859,6.13331667 6.67448754,6.44637597 6.47550602,6.64535748 L6.38194243,6.73892107 C6.18685519,6.93400831 5.87435596,6.93780798 5.67400681,6.73745883 L3.18325678,4.2467088 C2.98736197,4.05081399 2.98281302,3.7377547 3.18179454,3.53877318 L3.27535813,3.44520959 C3.47044537,3.25012235 3.7829446,3.24632268 3.98329375,3.44667183 Z M18.3848679,3.38537489 L18.4784315,3.47893848 C18.6735187,3.67402572 18.6773184,3.98652496 18.4769692,4.18687411 L15.9862192,6.67762413 C15.7903244,6.87351895 15.4772651,6.87806789 15.2782836,6.67908638 L15.18472,6.58552279 C14.9896328,6.39043555 14.9858331,6.07793631 15.1861822,5.87758716 L17.6769323,3.38683713 C17.8728271,3.19094232 18.1858864,3.18639338 18.3848679,3.38537489 Z M11.1672274,0.000661208629 C11.4431224,0.000661208629 11.6667795,0.21943248 11.6667795,0.507458337 L11.6667795,4.5852682 C11.6667795,4.86516453 11.4486298,5.09206533 11.1672274,5.09206533 L11.0349085,5.09206533 C10.7590135,5.09206533 10.5353564,4.87329406 10.5353564,4.5852682 L10.5353564,0.507458337 C10.5353564,0.227562012 10.7535062,0.000661208629 11.0349085,0.000661208629 L11.1672274,0.000661208629 Z" id="Combined-Shape"></path>
            </g>
        </g>
    </g>
</svg>
