<?xml version="1.0" encoding="UTF-8"?>
<svg width="22px" height="18px" viewBox="0 0 22 18" version="1.1" xmlns="http://www.w3.org/2000/svg" xmlns:xlink="http://www.w3.org/1999/xlink">

    <g id="Page-1" stroke="none" stroke-width="1" fill="none" fill-rule="evenodd">
        <g id="icons" transform="translate(-443.000000, -1041.000000)" fill="#585F73">
            <g id="fa-table" transform="translate(443.000000, 1039.000000)">
                <path d="M1,18 C1.55228475,18 2,18.4477153 2,19 C2,19.5522847 1.55228475,20 1,20 C0.44771525,20 6.76353751e-17,19.5522847 0,19 C-6.76353751e-17,18.4477153 0.44771525,18 1,18 Z M21.4997903,18.25 C21.7760485,18.25 22,18.4713302 22,18.7578316 L22,19.2421684 C22,19.5226361 21.7724135,19.75 21.4997903,19.75 L4.50020972,19.75 C4.22395152,19.75 4,19.5286698 4,19.2421684 L4,18.7578316 C4,18.4773639 4.22758651,18.25 4.50020972,18.25 L21.4997903,18.25 Z M1,12.6666667 C1.55228475,12.6666667 2,13.1143819 2,13.6666667 C2,14.2189514 1.55228475,14.6666667 1,14.6666667 C0.44771525,14.6666667 6.76353751e-17,14.2189514 0,13.6666667 C-6.76353751e-17,13.1143819 0.44771525,12.6666667 1,12.6666667 Z M21.4997903,12.9166667 C21.7760485,12.9166667 22,13.1379968 22,13.4244982 L22,13.9088351 C22,14.1893027 21.7724135,14.4166667 21.4997903,14.4166667 L4.50020972,14.4166667 C4.22395152,14.4166667 4,14.1953365 4,13.9088351 L4,13.4244982 C4,13.1440306 4.22758651,12.9166667 4.50020972,12.9166667 L21.4997903,12.9166667 Z M1,7.33333333 C1.55228475,7.33333333 2,7.78104858 2,8.33333333 C2,8.88561808 1.55228475,9.33333333 1,9.33333333 C0.44771525,9.33333333 6.76353751e-17,8.88561808 0,8.33333333 C-6.76353751e-17,7.78104858 0.44771525,7.33333333 1,7.33333333 Z M21.4997903,7.58333333 C21.7760485,7.58333333 22,7.8046635 22,8.09116491 L22,8.57550176 C22,8.85596939 21.7724135,9.08333333 21.4997903,9.08333333 L4.50020972,9.08333333 C4.22395152,9.08333333 4,8.86200317 4,8.57550176 L4,8.09116491 C4,7.81069727 4.22758651,7.58333333 4.50020972,7.58333333 L21.4997903,7.58333333 Z M1,2 C1.55228475,2 2,2.44771525 2,3 C2,3.55228475 1.55228475,4 1,4 C0.44771525,4 6.76353751e-17,3.55228475 0,3 C-6.76353751e-17,2.44771525 0.44771525,2 1,2 Z M21.4997903,2.25 C21.7760485,2.25 22,2.47133017 22,2.75783157 L22,3.24216843 C22,3.52263606 21.7724135,3.75 21.4997903,3.75 L4.50020972,3.75 C4.22395152,3.75 4,3.52866983 4,3.24216843 L4,2.75783157 C4,2.47736394 4.22758651,2.25 4.50020972,2.25 L21.4997903,2.25 Z" id="Combined-Shape"></path>
            </g>
        </g>
    </g>
</svg>
