<?xml version="1.0" encoding="UTF-8"?>
<svg width="22px" height="20px" viewBox="0 0 22 20" version="1.1" xmlns="http://www.w3.org/2000/svg" xmlns:xlink="http://www.w3.org/1999/xlink">

    <g id="Page-1" stroke="none" stroke-width="1" fill="none" fill-rule="evenodd">
        <g id="icons" transform="translate(-650.000000, -390.000000)" fill="#585F73" fill-rule="nonzero">
            <g id="fa-tag" transform="translate(650.000000, 389.000000)">
                <path d="M8.10603984,2.03250434 C8.81542986,2.80261881 11.6261429,5.60448791 18.3862773,12.4642554 C19.1355344,13.1289227 18.3645115,13.7235243 18.3645115,13.7235243 C18.3645115,13.7235243 18.3645115,13.7235243 12.2246036,19.9539243 C11.3888823,20.7667683 10.6957344,19.904611 10.6957344,19.904611 C10.6957344,19.904611 1.49823806,10.5753976 0.636046321,9.69498152 C-0.226145418,8.81456543 0.00815959909,8.29848948 0.00815959909,8.29848948 L0.00815959909,2.9452417 C0.00815959909,2.9452417 0.00815959909,1.43739695 1.45880029,1.43739695 C6.61056077,1.43739695 6.61056077,1.43739695 6.61056077,1.43739695 C6.61056077,1.43739695 7.39664982,1.26238986 8.10603984,2.03250434 Z M10.1269756,1.89129828 C10.6259214,1.4286772 11.126814,1.89129828 11.126814,1.89129828 C11.126814,1.89129828 16.3938012,7.18578288 21.680542,12.5939341 C22.2330801,13.1086109 21.680542,13.5980225 21.680542,13.5980225 L21.680542,13.5980225 L15.0149754,20.380457 C15.0149754,20.380457 14.4882511,20.8945755 14.015137,20.380457 C13.542023,19.8663384 14.015137,19.3634313 14.015137,19.3634313 L14.015137,19.3634313 L20.169746,13.1086109 L10.1269756,2.90832394 C10.1269756,2.90832394 9.62802984,2.35391936 10.1269756,1.89129828 Z M6.97780406,2.82794791 L17.0433425,13.05415 L11.468917,18.7431534 L1.37550866,8.50736069 L1.37550866,2.82794791 L6.97780406,2.82794791 Z" id="Combined-Shape"></path>
            </g>
        </g>
    </g>
</svg>
