<?xml version="1.0" encoding="UTF-8"?>
<svg width="22px" height="22px" viewBox="0 0 22 22" version="1.1" xmlns="http://www.w3.org/2000/svg" xmlns:xlink="http://www.w3.org/1999/xlink">

    <g id="Page-1" stroke="none" stroke-width="1" fill="none" fill-rule="evenodd">
        <g id="icons" transform="translate(-165.000000, -94.000000)" fill="#585F73">
            <g id="fa-translation" transform="translate(165.000000, 94.000000)">
                <path d="M11,21 C8.97768182,21 7.02931818,20.399 5.36540909,19.2620455 C5.30804545,19.2228636 5.24090909,19.2025909 5.17309091,19.2025909 C5.13686364,19.2025909 5.10045455,19.2083636 5.06527273,19.2200909 L1.63727273,20.3626818 L2.78,16.9347727 C2.81368182,16.8336364 2.79813636,16.7225909 2.73804545,16.6345909 C1.601,14.9707727 1,13.0223636 1,11.0000455 C1,5.486 5.48595455,1 11,1 C16.5140455,1 21,5.486 21,11.0000455 C21,16.5140455 16.5140455,21 11,21 L11,21 Z M18.7781702,3.22182979 C16.7005277,1.14418723 13.938217,0 11,0 C8.06178298,0 5.29947234,1.14418723 3.22182979,3.22182979 C1.14418723,5.29947234 0,8.06178298 0,11.0000468 C0,13.1659234 0.626812766,15.2548936 1.81448511,17.0531362 L0.470238298,21.0855957 C0.428204255,21.2117447 0.461017021,21.3508596 0.555055319,21.4448979 C0.649093617,21.5388894 0.788114894,21.5716553 0.914357447,21.5297149 L4.94691064,20.1855617 C6.7452,21.3731872 8.8341234,22 11,22 C13.938217,22 16.7005277,20.8558128 18.7781702,18.7781702 C20.8558128,16.7005277 22,13.938217 22,11.0000468 C22,8.06178298 20.8558128,5.29947234 18.7781702,3.22182979 L18.7781702,3.22182979 Z M16.5566845,10.5119629 C16.5298601,8.86834338 16.3589335,7.7394792 15.9642944,6.33117676 L17.8582634,6.33117676 C18.0401512,6.33117676 18.1875317,6.05273741 18.1875317,5.87084961 C18.1875317,5.6889618 18.0401512,5.37197073 17.8582634,5.37197073 L15.6547575,5.37197073 C15.3027478,4.31106829 14.7975491,3.29687805 14.2603149,2.54460976 C14.1545979,2.39661463 13.9040527,2.24810791 13.6377463,2.44348145 C13.4581813,2.57521786 13.4557707,2.85596585 13.5614439,3.00391707 C14.0276,3.65665854 14.425839,4.46147805 14.7453171,5.37201463 L11.4724731,5.37197073 L11.4724731,2.32926829 C11.4724731,2.14738049 11.3093872,1.934021 11,1.934021 C10.7438354,1.934021 10.5255127,2.14738049 10.5255127,2.32926829 L10.5255127,5.37197073 L7.20623779,5.37201463 C7.63378906,4.39416504 8.00961295,3.82840064 8.47576904,3.17565918 C8.58144221,3.02770796 8.67468262,2.74865028 8.47576904,2.54460976 C8.27685547,2.34056923 7.8835052,2.47515669 7.77783203,2.62310791 C7.24059788,3.3753762 6.63216112,4.3111561 6.28015137,5.37201463 L4.14169268,5.37197073 C3.95980488,5.37197073 3.81242439,5.6889618 3.81242439,5.87084961 C3.81242439,6.05273741 3.95980488,6.33117676 4.14169268,6.33117676 L6.01208496,6.33117676 C5.61748984,7.7394792 5.57533021,8.86834338 5.54846191,10.5119629 L2.3293122,10.5119629 C2.14742439,10.5119629 2,10.8181122 2,11 C2,11.1818878 2.14742439,11.5060253 2.3293122,11.5060253 L5.54846191,11.5060253 C5.54846191,12.5809937 5.77996991,14.7507356 6.01208496,15.5790577 L4.14169268,15.5791016 C3.95980488,15.5791016 3.81242439,15.9672821 3.81242439,16.1491699 C3.81242439,16.3310577 3.95980488,16.6280293 4.14169268,16.6280293 L6.37194824,16.6280732 C6.78289795,17.9666138 7.77783203,19.4557854 7.77783203,19.4557854 C7.77783203,19.4557854 8.10760498,19.7404621 8.38043213,19.6035767 C8.65325928,19.4666912 8.58144221,19.128708 8.47576904,18.9807129 C8.00948124,18.3279275 7.6224223,17.5387415 7.30285645,16.6280732 L10.5255127,16.6280732 L10.5255127,19.6707317 C10.5255127,19.8526195 10.8181122,20 11,20 C11.1818878,20 11.4724731,19.8526195 11.4724731,19.6707317 L11.4724731,16.6280732 L14.5790405,16.6280732 C14.2595186,17.5387854 13.827799,18.1838846 13.3615112,18.8366699 C13.2558381,18.984665 13.1619363,19.3079941 13.3615112,19.4557854 C13.5610862,19.6035767 13.9549654,19.5066276 14.0689087,19.3659058 C14.6505919,18.6475172 15.1745138,17.6891512 15.5266113,16.6280732 L17.8583073,16.6279854 C18.0401951,16.6279854 18.1875317,16.3310577 18.1875317,16.1491699 C18.1875317,15.9672821 18.0401951,15.5790577 17.8583073,15.5790577 L15.8564453,15.5791016 C16.2510843,14.1707991 16.5298601,13.149601 16.5566845,11.5059814 L19.6707756,11.5059814 C19.8526634,11.5059814 20,11.1818439 20,10.9999561 C20,10.8180683 19.8526634,10.5119629 19.6707756,10.5119629 L16.5566845,10.5119629 Z M15.6434326,10.4777832 L11.4797363,10.4777832 L11.5145264,6.32141113 L15.0296021,6.32141113 C15.4384655,7.71237211 15.6157302,8.82108076 15.6434326,10.4777832 Z M10.5202637,6.32397461 L10.5202637,10.5187988 L6.46130371,10.5187988 C6.48905005,8.86205249 6.45222057,7.71493558 6.86108398,6.32397461 L10.5202637,6.32397461 Z M6.48303223,11.532959 L10.5395508,11.532959 L10.5395508,15.5598145 L6.9777832,15.5598145 C6.56891979,14.1688535 6.51073467,13.1896614 6.48303223,11.532959 Z M11.4639282,15.5738525 L11.4639282,11.5197754 L15.6680908,11.5197754 C15.6403445,13.1765217 15.4105114,14.1829355 15.0016479,15.5738525 L11.4639282,15.5738525 Z" id="Combined-Shape"></path>
            </g>
        </g>
    </g>
</svg>
