<?xml version="1.0" encoding="UTF-8"?>
<svg width="23px" height="11px" viewBox="0 0 23 11" version="1.1" xmlns="http://www.w3.org/2000/svg" xmlns:xlink="http://www.w3.org/1999/xlink">

    <g id="Page-1" stroke="none" stroke-width="1" fill="none" fill-rule="evenodd">
        <g id="icons" transform="translate(-513.000000, -453.000000)" fill="#585F73">
            <g id="fa-UA" transform="translate(514.000000, 448.000000)">
                <path d="M2.94916317,5 C3.45000884,5 3.76844298,5.04662245 3.90447514,5.13986874 C4.0405073,5.23311504 4.10852236,5.40306139 4.10852236,5.64971288 C4.10852236,5.89034848 4.02814093,6.05879088 3.86737565,6.15504512 C3.70661037,6.25129936 3.40054261,6.29942576 2.94916317,6.29942576 L2.55034361,6.29942576 L2.55034361,11.2444627 C2.55034361,11.9122265 2.58280534,12.3980023 2.64772978,12.7018048 C2.71265422,13.0056072 2.8193142,13.2838379 2.96771292,13.5365053 C3.18412771,13.9034746 3.48555809,14.1892251 3.87201309,14.3937654 C4.25846808,14.5983056 4.68665379,14.7005742 5.15658307,14.7005742 C6.0407921,14.7005742 6.68538936,14.4418948 7.0903942,13.9245283 C7.49539903,13.4071618 7.69789841,12.5709656 7.69789841,11.4159147 L7.69789841,6.29942576 L7.20633012,6.29942576 C6.72403428,6.29942576 6.40096275,6.25280331 6.23710583,6.15955701 C6.07324892,6.06631072 5.99132169,5.89636437 5.99132169,5.64971288 C5.99132169,5.40306139 6.05624515,5.23311504 6.18609403,5.13986874 C6.31594291,5.04662245 6.58491155,5 6.99300803,5 L9.487949,5 C9.71054708,5 9.87903893,5.0541422 9.99342961,5.16242822 C10.1078203,5.27071424 10.1650148,5.43314084 10.1650148,5.64971288 C10.1650148,5.89034848 10.0969997,6.05879088 9.96096755,6.15504512 C9.8249354,6.25129936 9.57760791,6.29942576 9.21897767,6.29942576 L9.08912944,6.29942576 L9.08912944,11.6144381 C9.08912944,13.0762994 8.75369154,14.1726789 8.08280567,14.9036095 C7.41191979,15.6345402 6.40251449,16 5.05455946,16 C3.83645331,16 2.86414713,15.6345402 2.13761174,14.9036095 C1.41107634,14.1726789 1.0478141,13.1875916 1.0478141,11.9483183 L1.0478141,6.29942576 L0.899416121,6.29942576 C0.528419325,6.29942576 0.273362854,6.25129936 0.134239055,6.15504512 C-0.00488474306,6.05879088 -0.0744455989,5.89034848 -0.0744455989,5.64971288 C-0.0744455989,5.42712495 -0.0157053206,5.2631944 0.101776998,5.15791632 C0.219259317,5.05263825 0.395480152,5 0.630444789,5 L2.94916317,5 Z M16.4063149,5 C16.7414502,5 16.9684248,5.04482811 17.0872455,5.13448567 C17.2060662,5.22414323 17.3142219,5.38954348 17.4117158,5.6306914 L20.9854591,14.6922428 L21.1408392,14.6922428 C21.4698812,14.6922428 21.6953324,14.7386167 21.8171998,14.8313659 C21.9390672,14.9241151 22,15.0910612 22,15.3322091 C22,15.5857236 21.9421139,15.7603986 21.8263398,15.8562395 C21.7105658,15.9520803 21.4942545,16 21.1773993,16 L18.691317,16 C18.2282209,16 17.9311736,15.9520803 17.8001662,15.8562395 C17.6691587,15.7603986 17.603656,15.5857236 17.603656,15.3322091 C17.603656,15.0972445 17.675252,14.9318442 17.8184462,14.8360034 C17.9616404,14.7401625 18.2312679,14.6922428 18.6273369,14.6922428 L19.4773577,14.6922428 L18.5907769,12.4848229 L13.9476527,12.4848229 L13.161612,14.6922428 L14.0481928,14.6922428 C14.4503551,14.6922428 14.7245527,14.7401625 14.8707935,14.8360034 C15.0170344,14.9318442 15.0901537,15.0972445 15.0901537,15.3322091 C15.0901537,15.5857236 15.024651,15.7603986 14.8936435,15.8562395 C14.7626361,15.9520803 14.4747287,16 14.0299128,16 L11.6260906,16 C11.2361149,16 10.9771506,15.9520803 10.8491899,15.8562395 C10.7212291,15.7603986 10.6572497,15.5857236 10.6572497,15.3322091 C10.6572497,15.0910612 10.7212291,14.9241151 10.8491899,14.8313659 C10.9771506,14.7386167 11.2239284,14.6922428 11.5895305,14.6922428 L11.7631907,14.6922428 L14.8707935,6.33558179 L13.5363523,6.33558179 C13.1646568,6.33558179 12.9041691,6.28457049 12.7548816,6.18254637 C12.605594,6.08052226 12.5309514,5.90893881 12.5309514,5.66779089 C12.5309514,5.41427642 12.5964541,5.23960138 12.7274616,5.14376054 C12.858469,5.0479197 13.2164491,5 13.8014125,5 L16.4063149,5 Z M16.1778147,6.3161612 L14.4046531,11.1603656 L18.1429165,11.1603656 L16.1778147,6.3161612 Z" id="Combined-Shape"></path>
            </g>
        </g>
    </g>
</svg>
