<?xml version="1.0" encoding="UTF-8"?>
<svg width="22px" height="22px" viewBox="0 0 22 22" version="1.1" xmlns="http://www.w3.org/2000/svg" xmlns:xlink="http://www.w3.org/1999/xlink">

    <g id="Page-1" stroke="none" stroke-width="1" fill="none" fill-rule="evenodd">
        <g id="icons" transform="translate(-36.000000, -567.000000)" fill="#585F73">
            <g id="fa-undo" transform="translate(36.000000, 567.000000)">
                <path d="M20.6434631,0.757967249 L20.6434631,5.6657486 C18.6815872,2.29530334 14.9637931,-1.77635684e-15 11,-1.77635684e-15 C4.93103448,-1.77635684e-15 0,4.92678725 0,11.0094746 C0,17.0921619 4.93103448,22 11,22 C17.0689655,22 22,17.0732127 22,11.0094746 C22,10.5736434 21.7607919,10.2418365 21.324585,10.2418365 C20.8883781,10.2418365 20.6434631,10.573643 20.6434631,11.0094742 C20.6434631,16.3762131 16.1965519,20.6342316 10.9810346,20.6342316 C5.7655174,20.6342316 1.37113953,16.2841492 1.37113953,11.0094742 C1.37113953,5.73479915 5.6654129,1.38246918 10.9810346,1.38246918 C14.867775,1.38246918 18.2554332,3.7140397 19.7726746,7.04909569 L14.1482759,7.04909561 C13.712069,7.04909561 13.3375168,7.3222102 13.3375168,7.75804138 C13.3375168,8.19387256 13.7188193,8.42816925 14.1550262,8.42816925 L21.2291641,8.42816925 C21.665371,8.42816925 22,8.04507648 22,7.6092453 L22,0.75796727 C22,0.341085271 21.7418263,-1.77635684e-15 21.324585,-1.77635684e-15 C20.8883781,-1.77635684e-15 20.6434631,0.322136069 20.6434631,0.757967249 Z" id="undo"></path>
            </g>
        </g>
    </g>
</svg>
