<?xml version="1.0" encoding="UTF-8"?>
<svg width="22px" height="22px" viewBox="0 0 22 22" version="1.1" xmlns="http://www.w3.org/2000/svg" xmlns:xlink="http://www.w3.org/1999/xlink">

    <g id="Page-1" stroke="none" stroke-width="1" fill="none" fill-rule="evenodd">
        <g id="icons" transform="translate(-715.000000, -1039.000000)" fill="#585F73" fill-rule="nonzero">
            <g id="fa-unlink" transform="translate(715.000000, 1039.000000)">
                <path d="M21.9983842,5.14885519 C21.9983842,6.52733331 21.4641039,7.82171904 20.4948725,8.79095051 L15.6412174,13.6450093 C14.6639584,14.6222684 13.3570125,15.1513564 11.9991131,15.1513564 C10.6413732,15.1513564 9.33478446,14.6223672 8.35700879,13.6450093 C8.0797511,13.3677516 8.0797511,12.9190099 8.35700879,12.6417522 C8.63426648,12.3644945 9.08300822,12.3644945 9.36023818,12.6417245 C10.8151294,14.0962426 13.1838737,14.0962426 14.6383371,12.6417792 L19.4912026,7.78770238 C20.1930274,7.08587758 20.5790387,6.15015184 20.5790387,5.14925895 C20.5790387,4.14826199 20.1929542,3.21216331 19.4912026,2.51041175 C18.7893436,1.80855271 17.8536032,1.42257566 16.8523554,1.42257566 C15.8514609,1.42257566 14.9154518,1.80846814 14.213912,2.51000799 L10.502514,6.22140593 C10.2252563,6.49866362 9.7765146,6.49866362 9.49925691,6.22140593 C9.22199922,5.94414824 9.22199922,5.4954065 9.49925691,5.21814881 L13.2106087,1.50679706 C15.2189459,-0.502398617 18.4868385,-0.502132762 20.4949097,1.50679708 C21.4641039,2.47599133 21.9983842,3.77037706 21.9983842,5.14885519 Z M10.9265624,16.3527464 C11.2041723,16.0758461 11.6522962,16.0756269 11.9294157,16.3527464 C12.2066734,16.6300041 12.2066734,17.0787458 11.9294157,17.3560035 L8.78898784,20.4964314 C7.82013869,21.4657098 6.52572889,22 5.14683565,22 C3.76906902,22 2.47461951,21.4655343 1.50518298,20.4965271 C0.535944144,19.5277175 0.00161435396,18.2333245 0.00161435396,16.8547787 C0.00161435396,15.476084 0.535642837,14.1817629 1.50473133,13.2126744 L6.07327388,8.64413185 C8.08161112,6.63493617 11.3495038,6.63520202 13.3575287,8.64408565 C13.6347864,8.92134334 13.6347864,9.37008509 13.3575287,9.64734277 C13.080271,9.92460046 12.6315293,9.92460046 12.3543271,9.64739824 C10.8995449,8.1933625 8.53116174,8.19313129 7.07657718,9.64734277 L2.50841994,14.2155 C1.05390184,15.6703913 1.05390184,18.0387318 2.50833473,19.4931647 C3.21061281,20.1950694 4.14638178,20.5810582 5.14723941,20.5810582 C6.14823637,20.5810582 7.08433505,20.1949737 7.78608661,19.4932221 L10.9265624,16.3527464 Z M14.7306337,18.4787172 L14.7306337,20.9013007 C14.7306337,21.2934194 14.4132816,21.6107716 14.0211628,21.6107716 C13.6290441,21.6107716 13.3116919,21.2934194 13.3116919,20.9013007 L13.3116919,18.4787172 C13.3116919,18.0865984 13.6290441,17.7692463 14.0211628,17.7692463 C14.4132816,17.7692463 14.7306337,18.0865984 14.7306337,18.4787172 Z M17.7529027,18.8823273 C18.0301604,19.159585 18.0301604,19.6083268 17.7529027,19.8855845 C17.6183028,20.0201844 17.437913,20.0934268 17.2512742,20.0934268 C17.0646353,20.0934268 16.8842455,20.0201844 16.7496711,19.8856099 L15.0364753,18.1728179 C14.7592176,17.8955602 14.7592176,17.4468185 15.0364753,17.1695608 C15.313733,16.8923031 15.7624747,16.8923031 16.0397324,17.1695608 L17.7529027,18.8823273 Z M18.4625659,15.3466628 C18.8546847,15.3466628 19.1720368,15.6640149 19.1720368,16.0561337 C19.1720368,16.4482524 18.8546847,16.7656046 18.4625659,16.7656046 L16.0399824,16.7656046 C15.6478637,16.7656046 15.3305115,16.4482524 15.3305115,16.0561337 C15.3305115,15.6640149 15.6478637,15.3466628 16.0399824,15.3466628 L18.4625659,15.3466628 Z M6.04394139,4.34698004 L6.04394139,1.92439653 C6.04394139,1.53227779 6.36129353,1.21492565 6.75341228,1.21492565 C7.14553102,1.21492565 7.46288316,1.53227779 7.46288316,1.92439653 L7.46288316,4.34698004 C7.46288316,4.73909879 7.14553102,5.05645093 6.75341228,5.05645093 C6.36160504,5.05645093 6.04394139,4.73900666 6.04394139,4.34698004 Z M3.02167237,3.9433699 C2.74441468,3.66611221 2.74441468,3.21737047 3.02167237,2.94011278 C3.29893006,2.66285509 3.7476718,2.66285509 4.02492949,2.94011278 L5.73769603,4.65287932 C6.01495372,4.93013701 6.01495372,5.37887875 5.73769603,5.65613644 C5.60309609,5.79073639 5.42270629,5.86397877 5.23606747,5.86397877 C5.04942866,5.86397877 4.86903886,5.79073639 4.73443891,5.65613644 L3.02167237,3.9433699 Z M2.31200918,7.47903444 C1.92020194,7.47903444 1.60253829,7.16159017 1.60253829,6.76956355 C1.60253829,6.37744481 1.91989043,6.06009267 2.31200918,6.06009267 L4.73459269,6.06009267 C5.12671143,6.06009267 5.44406357,6.37744481 5.44406357,6.76956355 C5.44406357,7.1616823 5.12671143,7.47903444 4.73459269,7.47903444 L2.31200918,7.47903444 Z" id="Combined-Shape"></path>
            </g>
        </g>
    </g>
</svg>
