<?xml version="1.0" encoding="UTF-8"?>
<svg width="22px" height="22px" viewBox="0 0 22 22" version="1.1" xmlns="http://www.w3.org/2000/svg" xmlns:xlink="http://www.w3.org/1999/xlink">

    <g id="Page-1" stroke="none" stroke-width="1" fill="none" fill-rule="evenodd">
        <g id="icons" transform="translate(-586.000000, -803.000000)" fill="#585F73">
            <g id="fa-upload" transform="translate(586.000000, 803.000000)">
                <path d="M9.43127148,13.0636833 C9.73367698,12.7607573 10.2250859,12.7607573 10.5274914,13.0636833 L10.5274914,13.0636833 L15.5171821,18.0619621 C15.8195876,18.3648881 15.8195876,18.8571429 15.5171821,19.1600688 C15.3659794,19.3115318 15.1580756,19.3872633 14.9690722,19.3872633 C14.7611684,19.3872633 14.5721649,19.3115318 14.4209622,19.1600688 L14.4209622,19.1600688 L10.7542955,15.4870912 L10.7542955,21.2237522 C10.7542955,21.6592083 10.4140893,22 9.97938144,22 C9.54467354,22 9.20446735,21.6592083 9.20446735,21.2237522 L9.20446735,21.2237522 L9.20446735,15.4870912 L5.51890034,19.1790017 C5.21649485,19.4819277 4.72508591,19.4819277 4.42268041,19.1790017 C4.12027491,18.8760757 4.12027491,18.383821 4.42268041,18.080895 L4.42268041,18.080895 Z M14.2508591,1.34526163e-15 C18.5223368,1.34526163e-15 22,3.46471601 22,7.72461274 C22,7.83820998 21.9810997,7.93287435 21.9810997,8.0464716 L21.9810997,8.0464716 L21.9810997,8.1222031 C21.9810997,12.1927711 18.6735395,15.5060241 14.6099656,15.5060241 C14.1752577,15.5060241 13.8350515,15.1652324 13.8350515,14.7297762 C13.8350515,14.2943201 14.1752577,13.9535284 14.6099656,13.9535284 C17.7852234,13.9535284 20.3745704,11.3975904 20.4312715,8.23580034 L20.4312715,8.23580034 L20.4312715,7.95180723 C20.4501718,7.87607573 20.4501718,7.80034423 20.4501718,7.72461274 C20.4501718,4.29776248 17.6718213,1.51462995 14.2508591,1.51462995 C10.9054983,1.51462995 8.20274914,4.14629948 8.07044674,7.47848537 C8.05154639,7.78141136 7.8814433,8.0464716 7.61683849,8.16006885 C7.35223368,8.27366609 7.04982818,8.23580034 6.82302405,8.06540448 C6.19931271,7.59208262 5.46219931,7.34595525 4.66838488,7.383821 C2.94845361,7.4595525 1.54982818,9.01204819 1.54982818,10.8106713 C1.54982818,12.5524957 2.96735395,13.9535284 4.68728522,13.9535284 C5.12199313,13.9535284 5.46219931,14.2943201 5.46219931,14.7297762 C5.46219931,15.1652324 5.12199313,15.5060241 4.68728522,15.5060241 C2.09793814,15.5060241 -1.67868773e-16,13.404475 0,10.8106713 C0,8.16006885 2.02233677,5.96385542 4.59278351,5.86919105 C5.31099656,5.8313253 6.01030928,5.96385542 6.67182131,6.22891566 C7.37113402,2.65060241 10.5085911,0 14.2508591,0 Z" id="Combined-Shape"></path>
            </g>
        </g>
    </g>
</svg>
