<?xml version="1.0" encoding="UTF-8"?>
<svg width="22px" height="23px" viewBox="0 0 22 23" version="1.1" xmlns="http://www.w3.org/2000/svg" xmlns:xlink="http://www.w3.org/1999/xlink">

    <g id="Page-1" stroke="none" stroke-width="1" fill="none" fill-rule="evenodd">
        <g id="icons" transform="translate(-36.000000, -34.000000)" fill="#585F73">
            <g id="fa-user-md" transform="translate(36.000000, 35.000000)">
                <g id="stethoscope" transform="translate(-1.000000, -1.000000)">
                    <path d="M12.4725342,14.008912 L12.4684676,13.0095219 L13.4707026,13.0095219 C15.0010982,13.0095219 15.0010982,12.5139376 15.0010982,11.9925904 C15.0010982,10.5697372 15.6064726,9.54624208 16.452342,8.46268826 C17.2183368,7.48142799 18.0104412,6.46675871 18.1477989,5.13832035 C18.2440496,4.20730274 18.0309947,3.38611292 17.5316109,2.76348278 C17.0308068,2.13913053 16.3328224,1.82295049 15.7695639,1.71695441 C15.6490835,1.29865304 15.2728955,0.992590413 14.8284047,0.992590413 L14.0369869,0.992590413 C13.1467281,0.992590413 13.0142208,1.39910601 13.0142208,2.00433205 C13.0142208,2.60955809 13.1572262,3.01607369 14.0369869,3.01607369 L14.8284047,3.01607378 C15.0010982,3.01607369 15.2398067,2.93627928 15.4050289,2.76352583 C15.4050289,2.76352583 16.2671789,2.9033668 16.6372677,3.36480711 C17.0322546,3.85724547 17.2011621,4.3863301 17.040649,5.13836335 C16.8888546,5.84954833 16.7684322,6.18505858 16.1557003,7.05407713 C15.5429683,7.92309569 15.0010982,8.38494872 14.2790523,10.0125737 L9.75732382,10.0125737 C9.50240953,8.46268843 8.34533699,7.35363768 8.13110359,6.95532225 C7.91687019,6.55700682 7.44366463,5.92266224 7.32037361,5.04278563 C7.21365785,4.28119974 7.32037361,3.85455321 7.65954597,3.36480711 C7.99871834,2.87506102 8.69964607,2.76352583 8.79577644,2.76352583 C8.91156013,2.90015958 9.08599214,3.01607378 9.50240989,3.01607378 L10.1983639,3.01607369 C11.0937496,3.01607369 11.202026,2.61187743 11.202026,2.00433205 C11.202026,1.39678668 11.0474849,0.992590413 10.1983639,0.992590413 L9.50240989,0.992590413 C9.05791903,0.992590413 8.68173104,1.29865304 8.56125062,1.71699746 C7.99799214,1.82299354 7.29996603,2.13917358 6.79920363,2.76352583 C6.29981981,3.38611292 6.08676498,4.2073458 6.18301564,5.13836341 C6.32037334,6.46675871 7.11247778,7.48142799 7.87847256,8.46268826 C8.72434201,9.54624208 9.03381355,10.5697372 9.03381355,11.9925904 C9.03381355,12.7403751 9.50240953,13.0095219 10.5524898,13.0095219 L11.5144037,13.0095215 L11.5184704,14.0089116 L4.72125235,14.0089116 C4.72125244,14.3121333 4.72125244,14.5778193 4.72125244,15.0015254 L11.5184705,15.0015254 L11.5184699,18.5440305 C11.5184699,21.0010559 13.2921149,23 15.6762402,23 C18.0603655,23 23.0000006,23.2821536 23.0000006,18.5440311 C23.0000006,15.297985 20.6815833,14.3290554 18.4547935,14.0905591 C17.4312281,13.9809319 16.4270226,14.0089125 15.6762406,14.0089125 L12.4725342,14.008912 Z M14.1765497,2.37769195 C13.9807482,2.37769195 13.8214584,2.21353148 13.8214584,2.01174283 C13.8214584,1.80995418 13.9807482,1.64579371 14.1765497,1.64579371 L14.5107534,1.64579371 C14.706555,1.64579371 14.8658448,1.80995418 14.8658448,2.01174283 C14.8658448,2.21353148 14.706555,2.37769195 14.5107534,2.37769195 L14.1765497,2.37769195 Z M10.0678822,1.64579474 C10.2636838,1.64579474 10.4229736,1.80995521 10.4229736,2.01174386 C10.4229736,2.21353251 10.2636838,2.37769298 10.0678822,2.37769298 L9.73367858,2.37769298 C9.53787701,2.37769298 9.3785872,2.21353251 9.3785872,2.01174386 C9.3785872,1.80995521 9.53787701,1.64579474 9.73367858,1.64579474 L10.0678822,1.64579474 Z M14.0646973,11.0057373 C13.9504414,11.2355534 13.8808883,12 13.6135254,12 L11.997293,12 L10.3953857,12 C10.1280646,12 10.080118,11.2355534 9.96582031,11.0057373 L14.0646973,11.0057373 Z M12.4655762,18.5440313 L12.4655762,15.0080566 L15.6762402,15.0080566 C17.7148407,15.0080566 22.0458984,14.585133 22.0458984,18.5440314 C22.0458984,22.5029297 17.7148407,21.994873 15.6762402,21.994873 C13.6376397,21.994873 12.4655762,20.6449667 12.4655762,18.5440313 Z" id="Shape"></path>
                    <path d="M2.98522949,16.553894 C4.08979899,16.553894 4.98522949,15.6584635 4.98522949,14.553894 C4.98522949,13.4493245 4.08979899,12.553894 2.98522949,12.553894 C1.88065999,12.553894 0.985229492,13.4493245 0.985229492,14.553894 C0.985229492,15.6584635 1.88065999,16.553894 2.98522949,16.553894 Z M1.98874278,14.5599594 C1.98874278,13.9759881 2.44977419,13.5008595 3.0164191,13.5008595 C3.5014507,13.5008595 3.90878998,13.849059 4.01617425,14.3155518 L3.72048805,14.3155518 C3.62126195,14.0128121 3.34325179,13.7941487 3.0164191,13.7941487 C2.60667665,13.7941487 2.27333007,14.1376882 2.27333007,14.5599594 C2.27333007,14.9822307 2.60667665,15.3257701 3.0164191,15.3257701 C3.34325179,15.3257701 3.62126195,15.1071067 3.72048805,14.8043671 L4.01617425,14.8043671 C3.90878998,15.2708599 3.5014507,15.6190593 3.0164191,15.6190593 C2.44977419,15.6190593 1.98874278,15.1439308 1.98874278,14.5599594 Z" id="Oval-5"></path>
                </g>
            </g>
        </g>
    </g>
</svg>
