<?xml version="1.0" encoding="UTF-8"?>
<svg width="22px" height="22px" viewBox="0 0 22 22" version="1.1" xmlns="http://www.w3.org/2000/svg" xmlns:xlink="http://www.w3.org/1999/xlink">

    <g id="Page-1" stroke="none" stroke-width="1" fill="none" fill-rule="evenodd">
        <g id="icons" transform="translate(-165.000000, -35.000000)" fill="#585F73">
            <g id="fa-users" transform="translate(165.000000, 35.000000)">
                <path d="M21.0251457,4.02307129 C21.6618644,4.02307129 21.9999992,4.48730467 21.9999992,5.03015135 L21.9999992,21.0286865 C21.9999992,21.284668 21.9174398,21.9993324 21.0251457,21.9993324 L1.03479005,21.9993324 C0.142495935,21.9993324 -8.20438572e-07,21.3343506 -8.20438572e-07,21.0286865 L-8.20438572e-07,5.03015135 C-8.20438572e-07,4.79870604 0.142495935,4.02307129 1.03479005,4.02307129 L21.0251457,4.02307129 Z M20.9965821,5.01220544 L1.01281749,5.01220624 L1.01281738,21.052 L20.996582,21.0519992 L20.9965821,5.01220544 Z M7.49998185,9 C8.87449597,9 9.99274597,10.0833047 9.99274597,11.4148652 C9.99274597,12.3680391 9.41966734,13.1939473 8.58978024,13.5863789 C9.37406855,13.7746758 10.0934516,14.1662988 10.6795222,14.7340547 C11.5288246,15.5567988 11.9965524,16.6506855 11.9965524,17.8142168 C11.9965524,17.9168203 11.9106895,17.9999824 11.8047944,17.9999824 L11.8047944,17.9999824 L3.1951875,17.9999824 C3.08927419,17.9999824 3.00342944,17.9168027 3.00342944,17.8142168 C3.00342944,16.6506855 3.47115726,15.5567988 4.32045968,14.7340547 C4.90653024,14.1662988 5.62589516,13.7746582 6.41020161,13.5863789 C5.58031452,13.1939473 5.00723589,12.3680742 5.00723589,11.4148652 C5.00723589,10.0833047 6.12546774,9 7.49998185,9 Z M7.43909381,14.4340904 C5.00058982,14.4340904 4.21852133,16.2724641 4.00342944,17 L4.00342944,17 L11,17 C10.8558822,16.1396324 9.8775978,14.4340904 7.43909381,14.4340904 Z M18.5089948,16 C18.750039,16 18.9505149,16.1832562 18.9920892,16.4122514 L19,16.5 C19,16.7761424 18.7721195,17 18.5089948,17 L13.4910052,17 C13.2198305,17 13,16.7680664 13,16.5 C13,16.2238576 13.2278805,16 13.4910052,16 L18.5089948,16 Z M18.5089948,13 C18.750039,13 18.9505149,13.1832562 18.9920892,13.4122514 L19,13.5 C19,13.7761424 18.7721195,14 18.5089948,14 L13.4910052,14 C13.2198305,14 13,13.7680664 13,13.5 C13,13.2238576 13.2278805,13 13.4910052,13 L18.5089948,13 Z M7.50342944,10 C6.67632868,10 6.00342944,10.6518711 6.00342944,11.453125 C6.00342944,12.2543664 6.67632868,12.90625 7.50342944,12.90625 C8.33053019,12.90625 9.00342944,12.2543789 9.00342944,11.453125 C9.00342944,10.6518711 8.33053019,10 7.50342944,10 Z M18.5089948,10 C18.750039,10 18.9505149,10.1832562 18.9920892,10.4122514 L19,10.5 C19,10.7761424 18.7721195,11 18.5089948,11 L13.4910052,11 C13.2198305,11 13,10.7680664 13,10.5 C13,10.2238576 13.2278805,10 13.4910052,10 L18.5089948,10 Z M16.4996527,7 C16.7452831,7 16.9495734,7.18325617 16.9919387,7.41225137 L17,7.5 C17,7.77614237 16.7709994,8 16.4996527,8 L5.50034732,8 C5.22401312,8 5,7.76806641 5,7.5 C5,7.22385763 5.22900057,7 5.50034732,7 L16.4996527,7 Z M20.5056152,0 C20.7483185,0 20.9501743,0.183256173 20.9920348,0.412251372 L21,0.5 C21,0.776142375 20.7753906,1 20.5056152,1 L1.49438477,1 C1.2213436,1 1,0.768066406 1,0.5 C1,0.223857625 1.22460938,0 1.49438477,0 L20.5056152,0 Z" id="Combined-Shape"></path>
            </g>
        </g>
    </g>
</svg>
