<?xml version="1.0" encoding="UTF-8"?>
<svg width="22px" height="22px" viewBox="0 0 22 22" version="1.1" xmlns="http://www.w3.org/2000/svg" xmlns:xlink="http://www.w3.org/1999/xlink">

    <g id="Page-1" stroke="none" stroke-width="1" fill="none" fill-rule="evenodd">
        <g id="icons" transform="translate(-229.000000, -330.000000)" fill="#585F73">
            <g id="fa-user-o" transform="translate(229.000000, 330.000000)">
                <path d="M14.6236144,13.75 C18.7057162,13.75 22,17.2677796 22,21.2357937 C22,21.6590485 21.6568144,21.9941252 21.2233169,21.9941252 L21.2233169,21.9941252 L0.776683087,21.9941252 C0.34318555,21.9941252 -2.38524478e-16,21.6590485 0,21.2357937 C0,17.250144 3.33461607,13.75 7.39865548,13.75 L7.39865548,13.75 Z M15.1239929,15.125 L6.93643188,15.125 C5.07736206,15.125 1.73486328,17.0877991 1.44029236,20.625 L20.5675964,20.625 C20.3384861,17.4265137 17.2489323,15.125 15.1239929,15.125 Z M11.0287995,0 C14.4990723,0 17.313849,2.75633641 17.313849,6.17799539 C17.313849,9.59965438 14.4990723,12.375 11.0287995,12.375 C7.55852683,12.375 4.74375007,9.58064516 4.74375007,6.17799539 C4.74375007,2.77534562 7.55852683,0 11.0287995,0 Z M11.0287995,1.375 C8.32969854,1.375 6.14042773,3.53360215 6.14042773,6.18010753 C6.14042773,8.8266129 8.32969854,11 11.0287995,11 C13.7279006,11 15.9171714,8.84139785 15.9171714,6.18010753 C15.9171714,3.5188172 13.7279006,1.375 11.0287995,1.375 Z" id="user-o"></path>
            </g>
        </g>
    </g>
</svg>
