<?xml version="1.0" encoding="UTF-8"?>
<svg width="22px" height="22px" viewBox="0 0 22 22" version="1.1" xmlns="http://www.w3.org/2000/svg" xmlns:xlink="http://www.w3.org/1999/xlink">

    <g id="Page-1" stroke="none" stroke-width="1" fill="none" fill-rule="evenodd">
        <g id="icons" transform="translate(-710.000000, -94.000000)" fill="#585F73">
            <g id="fa-user" transform="translate(710.000000, 94.000000)">
                <path d="M17.321656,13.010207 C16.012128,11.7313711 14.407228,10.8458711 12.657304,10.4139492 C14.507416,9.51315234 15.78148,7.64628906 15.78148,5.49402734 C15.781436,2.46460156 13.257684,0 10.155552,0 C7.053464,0 4.529712,2.46460156 4.529712,5.49398438 C4.529712,7.64624609 5.80382,9.51310938 7.653888,10.4139063 C5.903964,10.8458711 4.299108,11.7313711 2.98958,13.010207 C1.075492,14.8794336 0.02134,17.3647031 0.02134,20.0082695 C0.02134,20.2503125 0.222244,20.4465078 0.470096,20.4465078 L14.069264,20.4465078 C14.892768,21.3960313 16.121864,22 17.492816,22 C19.96632,22 21.97866,20.0348242 21.97866,17.619293 C21.97866,15.2216797 19.99602,13.2681055 17.547772,13.2392305 C17.473676,13.1620156 17.398656,13.0854023 17.321656,13.010207 Z M10.1887207,0.999023872 C12.6699978,0.999023872 14.8076172,3.01773733 14.8076172,5.49900289 C14.8076172,7.98026845 12.6699978,9.99902387 10.1887207,9.99902387 C7.7074436,9.99902387 5.49829102,7.9803522 5.49829102,5.49900289 C5.49829102,3.01773733 7.7074436,0.999023872 10.1887207,0.999023872 Z M10.1419678,11 C12.1236228,11 14.7005615,11.8449707 16.270813,13.3770752 C14.4259033,13.814209 13.006928,15.6393206 13.006928,17.61925 C13.006928,18.3197266 13.1489258,18.8278807 13.3781738,19.388184 L1.04211426,19.3881836 C1.29614258,14.5118405 5.58431616,11 10.1419678,11 Z M17.492816,14.2497559 C19.1681271,14.2497559 20.9545898,15.5908203 20.9545898,17.619293 C20.9545898,19.6477656 19.2104492,21.0093384 17.492816,21.0093384 C15.8928223,21.0093384 14.0588379,19.670959 14.0588379,17.619293 C14.0588379,15.567627 15.8175049,14.2497559 17.492816,14.2497559 Z M6.26547544,13.0165039 C6.47817144,12.8924102 6.75374344,12.9601719 6.88085944,13.1679688 C7.00797544,13.3757227 6.93849944,13.644793 6.72580344,13.7689297 C4.98709944,14.7833359 3.71981144,16.4627266 3.24887944,18.3764688 C3.19951144,18.5774336 3.01559144,18.7124414 2.81292744,18.7124414 C2.77816744,18.7124414 2.74292344,18.7084883 2.70767944,18.7001953 C2.46669144,18.6436484 2.31827944,18.4070625 2.37618344,18.1716797 C2.90312744,16.0300742 4.32076344,14.1510938 6.26547544,13.0165039 Z M10.2008056,11.8979375 C10.4486576,11.8979375 10.6495616,12.0941328 10.6495616,12.3361758 C10.6495616,12.5782187 10.4486576,12.774414 10.2008056,12.774414 C9.60887364,12.774414 9.01958164,12.8414453 8.44929764,12.9736172 C8.41449364,12.9816953 8.37964564,12.9855625 8.34532564,12.9855625 C8.14208964,12.9855625 7.95803764,12.8499101 7.90906564,12.6484297 C7.85186564,12.4129179 8.00093764,12.1766758 8.24205764,12.1208164 C8.88010164,11.9729179 9.53913364,11.8979375 10.2008056,11.8979375 Z M18.0090943,17.006836 L18.0090942,15.6557007 C18.0090942,15.4136577 17.74718,15.2174623 17.499372,15.2174623 C17.251564,15.2174623 17.0135498,15.4136577 17.0135498,15.6557007 L17.0135498,17.006836 L15.6559921,17.006836 C15.4081841,17.006836 15.2274346,17.2417216 15.2274346,17.4837646 C15.2274346,17.7258075 15.408184,18.0037841 15.655992,18.0037841 L17.0135498,18.0037842 L17.0135498,19.4155273 C17.0135498,19.6575702 17.251564,19.8537655 17.499372,19.8537655 C17.74718,19.8537655 18.0090942,19.6575702 18.0090942,19.4155273 L18.0090943,18.0037842 L19.342752,18.0037841 C19.59056,18.0037841 19.8117066,17.7258075 19.8117066,17.4837646 C19.8117066,17.2417216 19.5905601,17.006836 19.3427521,17.006836 L18.0090943,17.006836 Z" id="Combined-Shape"></path>
            </g>
        </g>
    </g>
</svg>
