<svg width="14" height="13" viewBox="0 0 14 13" fill="none" xmlns="http://www.w3.org/2000/svg">
<path d="M5.84696 4.7828L7.02539 5.96358C7.09098 6.02918 7.09098 6.1371 7.02539 6.2027L6.78632 6.44182C6.72073 6.50742 6.61283 6.50742 6.54725 6.44182L5.36881 5.26104L4.41041 6.21963L5.59096 7.40041C5.65654 7.46601 5.65654 7.57393 5.59096 7.63953L5.35189 7.87864C5.2863 7.94424 5.1784 7.94424 5.11282 7.87864L3.93227 6.69575L3.37373 7.2544C3.00771 7.62048 2.83211 8.12411 2.88712 8.63832L3.03733 9.98416L1.63252 11.3892C1.56694 11.4548 1.56694 11.5628 1.63252 11.6284L1.8716 11.8675C1.93718 11.9331 2.04508 11.9331 2.11067 11.8675L3.51336 10.4645L4.85893 10.6148C5.36458 10.6698 5.87234 10.5005 6.24259 10.128L10.091 6.27888L7.22003 3.40734L5.84696 4.7828ZM12.3675 2.80849L10.6919 1.13254C10.6263 1.06694 10.5184 1.06694 10.4528 1.13254L10.2137 1.37166C10.1481 1.43726 10.1481 1.54518 10.2137 1.61078L10.8125 2.20963L9.85405 3.16822L8.65658 1.97052L8.29691 1.61078C8.23133 1.54518 8.12343 1.54518 8.05784 1.61078L7.34063 2.32813C7.27504 2.39373 7.27504 2.50165 7.34063 2.56725L7.70029 2.92699L10.5713 5.80276L10.9309 6.16249C10.9965 6.22809 11.1044 6.22809 11.17 6.16249L11.8872 5.44302C11.9528 5.37742 11.9528 5.2695 11.8872 5.2039L10.3322 3.64858L11.2906 2.68999L11.8893 3.28884C11.9549 3.35444 12.0628 3.35444 12.1284 3.28884L12.3675 3.04972C12.4331 2.98201 12.4331 2.8762 12.3675 2.80849Z" fill="#585F73"/>
</svg>
