<?xml version="1.0" encoding="UTF-8"?>
<svg width="22px" height="19px" viewBox="0 0 22 19" version="1.1" xmlns="http://www.w3.org/2000/svg" xmlns:xlink="http://www.w3.org/1999/xlink">
    <!-- Generator: Sketch 59.1 (86144) - https://sketch.com -->
    <title>fa-visits</title>
    <desc>Created with Sketch.</desc>
    <g id="Page-1" stroke="none" stroke-width="1" fill="none" fill-rule="evenodd">
        <g id="icons" transform="translate(-649.000000, -1160.000000)">
            <g id="fa-visits" transform="translate(649.000000, 1159.000000)">
                <g>
                    <g id="visiting-card" transform="translate(0.000000, 1.760000)">
                        <path d="M21.3213959,3.13513718 L18.9562683,3.13513718 L18.9562683,0.682535123 C18.9562683,0.305562321 18.6524658,0 18.2776642,0 L0.678604137,0 C0.303802469,0 0,0.305562321 0,0.682535123 L0,13.7824966 C0,14.1593005 0.303802469,14.4648629 0.678604137,14.4648629 L3.04373171,14.4648629 L3.04373171,17.4985136 C3.04373171,17.8754864 3.34753418,18.1810487 3.7223358,18.1810487 L21.3213959,18.1810487 C21.6961975,18.1810487 22,17.8754864 22,17.4985136 L22,3.81750345 C22,3.4406995 21.6961975,3.13513718 21.3213959,3.13513718 Z M1.35704039,1.36490139 L17.5990601,1.36490139 L17.5990601,13.0999614 L1.35704039,13.0999614 L1.35704039,1.36490139 Z M20.6429596,16.6750986 L4.40093994,16.6750986 L4.40093994,14.4648629 L18.2776642,14.4648629 C18.6524658,14.4648629 18.9562683,14.1593005 18.9562683,13.7824966 L18.9562683,4.50003857 L20.6429596,4.50003857 L20.6429596,16.6750986 Z" id="Shape" fill="#596073" fill-rule="nonzero"></path>
                        <path d="M11.6999558,11 L16.019871,11 C16.4065611,11 16.72,10.7044898 16.72,10.3399184 C16.72,9.97551019 16.4065611,9.68 16.019871,9.68 L11.6999558,9.68 C11.3134389,9.68 11,9.97551019 11,10.3399184 C11,10.7044898 11.3134389,11 11.6999558,11 L11.6999558,11 Z" id="Path" fill="#596073" fill-rule="nonzero"></path>
                        <path d="M11.6415873,8.8 L13.4384127,8.8 C13.7926984,8.8 14.08,8.50448977 14.08,8.13991835 C14.08,7.77551019 13.7926984,7.48 13.4384127,7.48 L11.6415873,7.48 C11.2873016,7.48 11,7.77551019 11,8.13991835 C11,8.50448977 11.2873016,8.8 11.6415873,8.8 Z" id="Path" fill="#596073" fill-rule="nonzero"></path>
                        <g id="Group-4" transform="translate(3.520000, 2.640000)" fill="#585F73">
                            <polygon id="Shape" points="3.96 5.74953829 3.95999999 3.58080377 3.95999999 2.19179923 3.95999999 0.0295382928 2.62716056 0.0295382928 2.62716056 2.19200352 0 2.19200352 0 3.58080377 2.62716056 3.58080377 2.62716057 5.74953829"></polygon>
                            <g id="Shape-Copy-2" transform="translate(0.000000, 0.029538)">
                                <polygon id="Shape-Copy" transform="translate(1.980000, 2.860000) rotate(-180.000000) translate(-1.980000, -2.860000) " points="3.96 5.72 3.95999999 3.55126547 3.95999999 2.16226094 3.95999999 0 2.62716056 0 2.62716056 2.16246523 0 2.16246523 0 3.55126547 2.62716056 3.55126547 2.62716057 5.72"></polygon>
                            </g>
                        </g>
                    </g>
                </g>
            </g>
        </g>
    </g>
</svg>
