<?xml version="1.0" encoding="UTF-8"?>
<svg width="22px" height="22px" viewBox="0 0 22 22" version="1.1" xmlns="http://www.w3.org/2000/svg" xmlns:xlink="http://www.w3.org/1999/xlink">

    <g id="Page-1" stroke="none" stroke-width="1" fill="none" fill-rule="evenodd">
        <g id="icons" transform="translate(-443.000000, -862.000000)" fill="#585F73">
            <g id="fa-warning" transform="translate(443.000000, 862.000000)">
                <path d="M22,11.0188041 C22,5.00171006 17.017094,0 11,0 C4.98290599,0 0,5.00171006 0,11.0188041 C0,17.0358981 4.98290598,22 11,22 C17.017094,22 22,17.0358981 22,11.0188041 Z M20.6562195,11 C20.6562195,16.1709402 16.1709403,20.6486664 11.0000001,20.6486664 C5.82905993,20.6486664 1.40621948,16.1709402 1.40621948,11 C1.40621948,5.82905983 5.82905993,1.38456726 11.0000001,1.38456726 C16.1709403,1.38456726 20.6562195,5.82905983 20.6562195,11 Z M11.0000004,17.8 C11.4970567,17.8 11.9000003,17.3970562 11.9000003,16.9 C11.9000003,16.4029437 11.4970567,16 11.0000004,16 C10.5029441,16 10.1000004,16.4029437 10.1000004,16.9 C10.1000004,17.3970562 10.5029441,17.8 11.0000004,17.8 L11.0000004,17.8 Z M10.3000198,5.8701054 L10.3000002,13.5998488 C10.3000002,14.1237343 10.5984217,14.4699998 11.0499806,14.4699998 C11.5015394,14.4699998 11.8000002,14.0326238 11.8000002,13.5998488 L11.8000198,5.8701054 C11.8000198,5.34621995 11.5015591,5 11.0500002,5 C10.5984414,5 10.3000198,5.43733046 10.3000198,5.8701054 Z" id="Combined-Shape"></path>
            </g>
        </g>
    </g>
</svg>
