<?xml version="1.0" encoding="UTF-8"?>
<svg width="22px" height="20px" viewBox="0 0 22 20" version="1.1" xmlns="http://www.w3.org/2000/svg" xmlns:xlink="http://www.w3.org/1999/xlink">

    <g id="Page-1" stroke="none" stroke-width="1" fill="none" fill-rule="evenodd">
        <g id="icons" transform="translate(-710.000000, -508.000000)" fill="#585F73">
            <g id="fa-wheelchair" transform="translate(710.000000, 507.000000)">
                <path d="M6.00521851,1.5 C6.43571784,1.5 6.8888305,1.9969381 6.8888305,2.42513318 L6.8888305,2.42513318 L6.8888305,6.97817993 L13.7231445,6.97817993 L13.7231445,5.63448916 L8.63421589,5.63448916 C8.33543396,5.63448916 7.84070587,5.39976795 7.84070587,4.97157288 C7.84070587,4.5433778 8.20371655,4.21928406 8.63421589,4.21928406 L8.63421589,4.21928406 L14.2855148,4.21928406 C15.1509323,4.21928406 15.1509323,4.97157288 15.1509323,4.97157288 L15.1509323,6.97817993 L18.4999642,6.97817993 C18.9304635,6.97817993 19.2765171,7.32282968 19.2765171,7.75102476 L19.2765171,7.75102476 L19.2765171,13.9052963 C20.9191513,14.298645 22,15.6938 22,17.186615 C22,19.301651 20.3673881,20.713191 18.5911179,20.713191 C16.8410272,20.713191 15.615448,19.6602554 15.1509323,17.9904327 L15.1509323,17.9904327 L10.5487442,17.9904327 C9.77597809,19.5095291 8.27295195,20.713191 6.17751312,20.713191 C3.42312024,20.713191 1.39208248,18.5270987 1.39208248,15.7857823 C1.39208248,13.6842422 2.92313385,11.6171265 5.48069763,11.108551 C5.48069763,3.40229034 5.48069763,2.83928965 5.48069763,2.83928965 L0.880396757,2.83932956 C0.667974582,2.8387107 4.39882242e-17,2.81294149 0,2.17910767 C0,1.5 0.735336304,1.5 0.973446612,1.5 Z M18.5625,15.233551 C17.4234127,15.233551 16.5,16.1569637 16.5,17.296051 C16.5,18.4351383 17.4234127,19.358551 18.5625,19.358551 C19.7015873,19.358551 20.625,18.4351383 20.625,17.296051 C20.625,16.1569637 19.7015873,15.233551 18.5625,15.233551 Z M6.1875,12.483551 C4.28902117,12.483551 2.75,14.0225722 2.75,15.921051 C2.75,17.8195299 4.28902117,19.358551 6.1875,19.358551 C8.08597883,19.358551 9.625,17.8195299 9.625,15.921051 C9.625,14.0225722 8.08597883,12.483551 6.1875,12.483551 Z M17.9393338,8.38154602 L6.88181181,8.38154602 L6.88181181,11.108551 C11.2385941,12.1207504 11,16.0368652 11,16.0368652 L15.3583908,16.0368652 C15.3583908,16.0368652 15.9639816,14.292099 17.9393338,13.9232559 L17.9393338,8.38154602 Z M14.4382641,9.59216026 C14.8577886,9.59216026 15.1440506,9.90684876 15.1440506,10.3246714 L15.1440506,10.3246714 L15.1440506,11.108551 L15.9311232,11.108551 C16.3506478,11.108551 16.6822151,11.3881733 16.6822151,11.8059959 C16.6822151,12.2238186 16.3506478,12.5034409 15.9311232,12.5034409 L15.9311232,12.5034409 L15.1440506,12.5034409 L15.1440506,13.2873205 C15.1440506,13.7051431 14.8577886,14.0634079 14.4382641,14.0634079 C14.0187395,14.0634079 13.7450373,13.7051431 13.7450373,13.2873205 L13.7450373,13.2873205 L13.7450373,12.5034409 L12.9579647,12.5034409 C12.5384402,12.5034409 12.194313,12.220121 12.194313,11.8059959 C12.194313,11.3881733 12.5384402,11.108551 12.9579647,11.108551 L12.9579647,11.108551 L13.7450373,11.108551 L13.7450373,10.3246714 C13.7450373,9.90684876 14.0187395,9.59216026 14.4382641,9.59216026 Z" id="Combined-Shape"></path>
            </g>
        </g>
    </g>
</svg>
