<?xml version="1.0" encoding="UTF-8"?>
<svg width="22px" height="24px" viewBox="0 0 22 24" version="1.1" xmlns="http://www.w3.org/2000/svg" xmlns:xlink="http://www.w3.org/1999/xlink">

    <g id="Page-1" stroke="none" stroke-width="1" fill="none" fill-rule="evenodd">
        <g id="icons" transform="translate(-100.000000, -152.000000)" fill="#585F73">
            <g id="fa-x-rays-o" transform="translate(100.000000, 153.000000)">
                <path d="M1.3825531,-0.00817871094 C0.77947998,-0.00817871094 0,0.317454711 0,1.47373962 L0,20.6599579 C0,21.490799 0.444862298,22.02388 1.3825531,22.02388 L20.5895844,22.02388 C21.067276,22.02388 22,21.8162428 22,20.6599579 L22,1.47373962 C22,0.317454711 21.204071,-0.00817871094 20.5895844,-0.00817871094 L1.3825531,-0.00817871094 Z M1.36627197,20.6478729 L1.36627197,1.369339 L20.6241608,1.36933899 L20.6241608,20.6478723 L1.36627197,20.6478729 Z M7.38356164,18.1920898 C7.65104892,18.1920898 7.86790607,18.4329278 7.86790607,18.7299949 C7.86790607,19.0270619 7.65104892,19.2679 7.38356164,19.2679 L7.38356164,19.2679 L4.80039139,19.2679 C4.53290411,19.2679 4.31604697,19.0270619 4.31604697,18.7299949 C4.31604697,18.4329278 4.53290411,18.1920898 4.80039139,18.1920898 L4.80039139,18.1920898 Z M17.1996086,18.1920898 C17.4670959,18.1920898 17.683953,18.4329278 17.683953,18.7299949 C17.683953,19.0270619 17.4670959,19.2679 17.1996086,19.2679 L17.1996086,19.2679 L14.6164384,19.2679 C14.3489511,19.2679 14.1320939,19.0270619 14.1320939,18.7299949 C14.1320939,18.4329278 14.3489511,18.1920898 14.6164384,18.1920898 L14.6164384,18.1920898 Z M8.41682975,16.2011929 C8.68431703,16.2011929 8.90117417,16.4420309 8.90117417,16.7390979 C8.90117417,17.036165 8.68431703,17.277003 8.41682975,17.277003 L8.41682975,17.277003 L3.76712329,17.277003 C3.49963601,17.277003 3.28277886,17.036165 3.28277886,16.7390979 C3.28277886,16.4420309 3.49963601,16.2011929 3.76712329,16.2011929 L3.76712329,16.2011929 Z M18.2328767,16.2011929 C18.500364,16.2011929 18.7172211,16.4420309 18.7172211,16.7390979 C18.7172211,17.036165 18.500364,17.277003 18.2328767,17.277003 L18.2328767,17.277003 L13.5831703,17.277003 C13.315683,17.277003 13.0988258,17.036165 13.0988258,16.7390979 C13.0988258,16.4420309 13.315683,16.2011929 13.5831703,16.2011929 L13.5831703,16.2011929 Z M11,3.26036287 C11.2674873,3.26036287 11.4843444,3.46928261 11.4843444,3.72697933 L11.4843444,3.72697933 L11.4843444,4.25581133 L16.1663405,4.25581133 C16.4338278,4.25581133 16.6506849,4.46473107 16.6506849,4.72242779 C16.6506849,4.98012451 16.4338278,5.18904426 16.1663405,5.18904426 L16.1663405,5.18904426 L11.4843444,5.18904426 L11.4843444,6.24670825 L17.7162427,6.24670825 C17.9837299,6.24670825 18.2005871,6.45562799 18.2005871,6.71332471 C18.2005871,6.97102143 17.9837299,7.17994118 17.7162427,7.17994118 L17.7162427,7.17994118 L11.4843444,7.17994118 L11.4843444,8.23760517 L18.2328767,8.23760517 C18.500364,8.23760517 18.7172211,8.44652491 18.7172211,8.70422164 C18.7172211,8.96191836 18.500364,9.1708381 18.2328767,9.1708381 L18.2328767,9.1708381 L11.4843444,9.1708381 L11.4843444,10.2285021 L18.7495108,10.2285021 C19.016998,10.2285021 19.2338552,10.4374218 19.2338552,10.6951186 C19.2338552,10.9528153 19.016998,11.161735 18.7495108,11.161735 L18.7495108,11.161735 L11.4843444,11.161735 L11.4843444,12.219399 L18.7495108,12.219399 C19.016998,12.219399 19.2338552,12.4283188 19.2338552,12.6860155 C19.2338552,12.9437122 19.016998,13.1526319 18.7495108,13.1526319 L18.7495108,13.1526319 L11.4843444,13.1526319 L11.4843444,15.1746366 C11.4843444,15.4323333 11.2674873,15.6412531 11,15.6412531 C10.7325127,15.6412531 10.5156556,15.4323333 10.5156556,15.1746366 L10.5156556,15.1746366 L10.5156556,13.1526319 L3.25048924,13.1526319 C2.98300196,13.1526319 2.76614481,12.9437122 2.76614481,12.6860155 C2.76614481,12.4283188 2.98300196,12.219399 3.25048924,12.219399 L3.25048924,12.219399 L10.5156556,12.219399 L10.5156556,11.161735 L3.25048924,11.161735 C2.98300196,11.161735 2.76614481,10.9528153 2.76614481,10.6951186 C2.76614481,10.4374218 2.98300196,10.2285021 3.25048924,10.2285021 L3.25048924,10.2285021 L10.5156556,10.2285021 L10.5156556,9.1708381 L3.76712329,9.1708381 C3.49963601,9.1708381 3.28277886,8.96191836 3.28277886,8.70422164 C3.28277886,8.44652491 3.49963601,8.23760517 3.76712329,8.23760517 L3.76712329,8.23760517 L10.5156556,8.23760517 L10.5156556,7.17994118 L4.28375734,7.17994118 C4.01627006,7.17994118 3.79941292,6.97102143 3.79941292,6.71332471 C3.79941292,6.45562799 4.01627006,6.24670825 4.28375734,6.24670825 L4.28375734,6.24670825 L10.5156556,6.24670825 L10.5156556,5.18904426 L5.83365949,5.18904426 C5.56617221,5.18904426 5.34931507,4.98012451 5.34931507,4.72242779 C5.34931507,4.46473107 5.56617221,4.25581133 5.83365949,4.25581133 L5.83365949,4.25581133 L10.5156556,4.25581133 L10.5156556,3.72697933 C10.5156556,3.46928261 10.7325127,3.26036287 11,3.26036287 Z M8.9334638,14.2102959 C9.20095108,14.2102959 9.41780822,14.451134 9.41780822,14.748201 C9.41780822,15.0452681 9.20095108,15.2861061 8.9334638,15.2861061 L8.9334638,15.2861061 L3.25048924,15.2861061 C2.98300196,15.2861061 2.76614481,15.0452681 2.76614481,14.748201 C2.76614481,14.451134 2.98300196,14.2102959 3.25048924,14.2102959 L3.25048924,14.2102959 Z M18.7495108,14.2102959 C19.016998,14.2102959 19.2338552,14.451134 19.2338552,14.748201 C19.2338552,15.0452681 19.016998,15.2861061 18.7495108,15.2861061 L18.7495108,15.2861061 L13.0665362,15.2861061 C12.7990489,15.2861061 12.5821918,15.0452681 12.5821918,14.748201 C12.5821918,14.451134 12.7990489,14.2102959 13.0665362,14.2102959 L13.0665362,14.2102959 Z" id="Combined-Shape"></path>
            </g>
        </g>
    </g>
</svg>
