<?xml version="1.0" encoding="UTF-8"?>
<svg width="122px" height="122px" viewBox="0 0 122 122" version="1.1" xmlns="http://www.w3.org/2000/svg" xmlns:xlink="http://www.w3.org/1999/xlink">
    <!-- Generator: Sketch 40.2 (33826) - http://www.bohemiancoding.com/sketch -->
    <title>2</title>
    <desc>Created with Sketch.</desc>
    <defs></defs>
    <g id="Версия-3" stroke="none" stroke-width="1" fill="none" fill-rule="evenodd">
        <g id="Главная-Helsi_№6-Copy-2" transform="translate(-407.000000, -634.000000)">
            <g id="2" transform="translate(410.000000, 637.000000)">
                <g id="Page-1">
                    <path d="M0.164772727,58.068875 C0.164772727,26.0894545 26.089125,0.164772727 58.068875,0.164772727 C90.048625,0.164772727 115.972977,26.0894545 115.972977,58.068875 C115.972977,90.0489545 90.048625,115.972977 58.068875,115.972977 C26.089125,115.972977 0.164772727,90.0489545 0.164772727,58.068875 Z" id="Stroke-1" stroke="#2A90FF" stroke-width="6"></path>
                    <polygon id="Fill-3" fill="#FE8380" points="42.4581091 76.01625 58.4348023 54.4092727 60.5956318 56.0059205 44.6189386 77.6138864"></polygon>
                    <polygon id="Fill-5" fill="#FE8380" points="93.3936432 40.8649216 58.215325 60.0606148 56.9277909 57.7017284 92.1067682 38.5057057"></polygon>
                    <path d="M53.3106011,12.5208159 L52.254408,12.8434409 C52.1512602,12.8724409 52.019442,12.8869409 51.931783,12.8869409 C51.5063398,12.8869409 51.1395557,12.5353159 51.1395557,12.1247023 C51.1395557,11.7430886 51.3738625,11.4501227 51.7409761,11.346975 L53.2961011,10.8483727 C53.6477261,10.7458841 53.911692,10.6875545 54.1753284,10.6875545 L54.204658,10.6875545 C54.7180898,10.6875545 55.0997034,11.0836682 55.0997034,11.5816114 L55.0997034,20.2638159 C55.0997034,20.7630773 54.7029307,21.1588614 54.204658,21.1588614 C53.7208852,21.1588614 53.3106011,20.7630773 53.3106011,20.2638159 L53.3106011,12.5208159 Z" id="Fill-7" fill="#2A90FF"></path>
                    <path d="M57.6080386,19.3401989 L60.7604705,16.6560511 C62.1686182,15.4686989 62.6817205,14.8086193 62.6817205,13.8845739 C62.6817205,12.8725398 61.9636409,12.2862784 61.025425,12.2862784 C60.2035386,12.2862784 59.6314477,12.667233 59.0006977,13.4298011 C58.8688795,13.5767784 58.6635727,13.7085966 58.3702773,13.7085966 C57.9155045,13.7085966 57.54905,13.3418125 57.54905,12.8870398 C57.54905,12.6965625 57.6222091,12.4912557 57.7540273,12.3294489 C58.5904136,11.2884148 59.5434591,10.6731534 61.1565841,10.6731534 C63.1661523,10.6731534 64.5446409,11.9049943 64.5446409,13.7379261 L64.5446409,13.7669261 C64.5446409,15.3803807 63.6940841,16.260267 61.8753227,17.7415739 L59.7635955,19.5016761 L63.92905,19.5016761 C64.3686636,19.5016761 64.7209477,19.8536307 64.7209477,20.2935739 C64.7209477,20.733517 64.3686636,21.0858011 63.92905,21.0858011 L58.1063114,21.0858011 C57.54905,21.0858011 57.1387659,20.7628466 57.1387659,20.2352443 C57.1387659,19.8829602 57.2995841,19.5899943 57.6080386,19.3401989" id="Fill-9" fill="#2A90FF"></path>
                    <path d="M97.9861886,62.0942398 C97.8250409,61.962092 97.6928932,61.7122966 97.6928932,61.4483307 C97.6928932,60.979058 98.0890068,60.5829443 98.55795,60.5829443 C98.822575,60.5829443 99.0130523,60.6857625 99.1597,60.8175807 C99.80495,61.4628307 100.537859,61.8006148 101.491564,61.8006148 C102.503598,61.8006148 103.266166,61.1846943 103.266166,60.2461489 L103.266166,60.2168193 C103.266166,59.2044557 102.341791,58.6326943 100.904643,58.6326943 L100.537859,58.6326943 C100.112745,58.6326943 99.7611205,58.2804102 99.7611205,57.8556261 C99.7611205,57.6206602 99.8636091,57.4001943 100.142405,57.122058 L102.547757,54.5558875 L98.822575,54.5558875 C98.3829614,54.5558875 98.0310068,54.203933 98.0310068,53.7781602 C98.0310068,53.338217 98.3829614,52.9862625 98.822575,52.9862625 L104.072893,52.9862625 C104.585995,52.9862625 104.967609,53.2943875 104.967609,53.7781602 C104.967609,54.203933 104.762302,54.4527398 104.454177,54.7611943 L102.034325,57.2683761 C103.588791,57.4595125 105.055598,58.2514102 105.055598,60.1430011 L105.055598,60.1729898 C105.055598,62.0652398 103.603291,63.4285693 101.462564,63.4285693 C99.9512682,63.4285693 98.822575,62.900308 97.9861886,62.0942398" id="Fill-11" fill="#2A90FF"></path>
                    <path d="M60.08655,102.245992 L60.08655,102.216992 C60.08655,101.190458 59.2646636,100.42756 57.9883341,100.42756 C56.7129932,100.42756 55.9065955,101.249117 55.9065955,102.231492 L55.9065955,102.261481 C55.9065955,103.302844 56.7568227,104.094083 58.0331523,104.094083 C59.3091523,104.094083 60.08655,103.302844 60.08655,102.245992 M55.2168568,104.578515 C54.4401182,103.801117 53.9708455,102.730424 53.9708455,100.662197 L53.9708455,100.632867 C53.9708455,97.4949352 55.4666523,95.0457534 58.3702773,95.0457534 C59.4254818,95.0457534 60.2621977,95.3235602 60.9371068,95.7786625 C61.2155727,95.9549693 61.3908909,96.1892761 61.3908909,96.5560602 C61.3908909,97.0250034 60.9947773,97.392117 60.5261636,97.392117 C60.3643568,97.392117 60.2035386,97.333458 60.0717205,97.2599693 C59.5138,96.8928557 59.0006977,96.688208 58.3116182,96.688208 C56.7858227,96.688208 55.9352659,98.066367 55.8479364,99.943458 C56.3900386,99.4155261 57.0939477,98.9165943 58.3116182,98.9165943 C60.2915273,98.9165943 61.8894932,100.090435 61.8894932,102.143833 L61.8894932,102.172503 C61.8894932,104.211731 60.2328682,105.663378 58.0766523,105.663378 C56.8154818,105.663378 55.9065955,105.267924 55.2168568,104.578515" id="Fill-13" fill="#2A90FF"></path>
                    <path d="M16.0803023,56.373858 L16.0803023,56.3445284 C16.0803023,55.2741648 15.2439159,54.452608 13.9389159,54.452608 C12.6632455,54.452608 11.9000182,55.3038239 11.9000182,56.359358 L11.9000182,56.3886875 C11.9000182,57.4593807 12.7219045,58.2219489 13.997575,58.2219489 C15.3029045,58.2219489 16.0803023,57.371392 16.0803023,56.373858 M10.8441545,62.6658693 C10.5950182,62.5047216 10.4338705,62.2552557 10.4338705,61.9181307 C10.4338705,61.4481989 10.814825,61.0965739 11.2844273,61.0965739 C11.4749045,61.0965739 11.6367114,61.155233 11.7827,61.2435511 C12.38445,61.6683352 12.9568705,61.873642 13.66045,61.873642 C15.1707568,61.873642 16.0803023,60.539642 16.1392909,58.6477216 C15.6255295,59.263642 14.8336318,59.7319261 13.7336091,59.7319261 C11.5480636,59.7319261 10.0964159,58.4565852 10.0964159,56.4770057 L10.0964159,56.4480057 C10.0964159,54.438108 11.6512114,52.8978125 13.9244159,52.8978125 C15.2149159,52.8978125 16.0506432,53.2645966 16.7842114,53.9839943 C17.53195,54.746233 18.0160523,55.8755852 18.0160523,57.8996534 L18.0160523,57.9286534 C18.0160523,61.2280625 16.3884273,63.5164261 13.6159614,63.5164261 C12.4576091,63.5164261 11.6070523,63.178642 10.8441545,62.6658693" id="Fill-15" fill="#2A90FF"></path>
                    <path d="M7.02182273,58.4244875 C7.02182273,58.8716807 6.65899318,59.2341807 6.2118,59.2341807 L3.40341364,59.2341807 C2.95589091,59.2341807 2.59306136,58.8716807 2.59306136,58.4244875 L2.59306136,58.1796352 C2.59306136,57.7321125 2.95589091,57.3696125 3.40341364,57.3696125 L6.2118,57.3696125 C6.65899318,57.3696125 7.02182273,57.7321125 7.02182273,58.1796352 L7.02182273,58.4244875 Z" id="Fill-17" fill="#2A90FF"></path>
                    <path d="M59.2343455,6.56583068 C59.2343455,7.01269432 58.9133682,7.25491023 58.4655159,7.25491023 L58.0743455,7.25491023 C57.6268227,7.25491023 57.3694477,7.01269432 57.3694477,6.56583068 L57.3694477,3.76008068 C57.3694477,3.31255795 57.6268227,2.82614886 58.0743455,2.82614886 L58.4655159,2.82614886 C58.9133682,2.82614886 59.2343455,3.31255795 59.2343455,3.76008068 L59.2343455,6.56583068 Z" id="Fill-19" fill="#2A90FF"></path>
                    <path d="M113.311502,58.4244875 C113.311502,58.8716807 112.949002,59.2341807 112.50148,59.2341807 L109.692764,59.2341807 C109.24557,59.2341807 108.882741,58.8716807 108.882741,58.4244875 L108.882741,58.1796352 C108.882741,57.7321125 109.24557,57.3696125 109.692764,57.3696125 L112.50148,57.3696125 C112.949002,57.3696125 113.311502,57.7321125 113.311502,58.1796352 L113.311502,58.4244875 Z" id="Fill-21" fill="#2A90FF"></path>
                    <path d="M59.2343455,112.50115 C59.2343455,112.948673 58.8715159,113.311502 58.4239932,113.311502 L58.1798,113.311502 C57.7322773,113.311502 57.3694477,112.948673 57.3694477,112.50115 L57.3694477,109.693093 C57.3694477,109.24557 57.7322773,108.88307 58.1798,108.88307 L58.4239932,108.88307 C58.8715159,108.88307 59.2343455,109.24557 59.2343455,109.693093 L59.2343455,112.50115 Z" id="Fill-23" fill="#2A90FF"></path>
                    <path d="M30.3275409,104.410875 C30.1064159,104.747011 30.1993477,105.199477 30.5358136,105.420273 C30.87195,105.642057 31.3237568,105.549455 31.5455409,105.213318 L32.7493705,103.386648 C32.970825,103.049852 32.8782227,102.598045 32.5410977,102.376591 C32.2052909,102.155466 31.7538136,102.248398 31.5317,102.584534 L30.3275409,104.410875 Z" id="Fill-25" fill="#2A90FF"></path>
                    <path d="M11.0296557,84.3523989 C10.6780307,84.5481489 10.5518148,84.9920466 10.7475648,85.343342 C10.9436443,85.6959557 11.3878716,85.8215125 11.739167,85.626092 L13.6498716,84.5613307 C14.0018261,84.3652511 14.128042,83.9210239 13.9319625,83.5697284 C13.7362125,83.2181034 13.2926443,83.0918875 12.9403602,83.287967 L11.0296557,84.3523989 Z" id="Fill-27" fill="#2A90FF"></path>
                    <path d="M11.7199545,30.2692773 C11.3831591,30.0478227 10.9313523,30.1407545 10.7105568,30.4768909 C10.4881136,30.8133568 10.581375,31.2654932 10.9175114,31.4869477 L12.7438523,32.6901182 C13.0803182,32.9125614 13.532125,32.8186409 13.7539091,32.4831636 C13.9750341,32.1466977 13.8824318,31.6945614 13.5459659,31.4727773 L11.7199545,30.2692773 Z" id="Fill-29" fill="#2A90FF"></path>
                    <path d="M31.7779693,10.9708977 C31.5825489,10.6189432 31.1386511,10.4927273 30.7870261,10.6888068 C30.4354011,10.8848864 30.3088557,11.3287841 30.5042761,11.6804091 L31.5690375,13.5911136 C31.7654466,13.9437273 32.2090148,14.0692841 32.5606398,13.872875 C32.9125943,13.677125 33.0384807,13.2332273 32.8427307,12.8816023 L31.7779693,10.9708977 Z" id="Fill-31" fill="#2A90FF"></path>
                    <path d="M85.8092534,11.942167 C86.0303784,11.6060307 85.9374466,11.1538943 85.6009807,10.9330989 C85.2651739,10.7113148 84.813367,10.803917 84.591583,11.140383 L83.3874239,12.9667239 C83.1662989,13.3031898 83.2595602,13.7549966 83.5956966,13.9767807 C83.931833,14.1982352 84.3839693,14.1049739 84.606083,13.769167 L85.8092534,11.942167 Z" id="Fill-33" fill="#2A90FF"></path>
                    <path d="M105.107633,32.0010057 C105.459587,31.8055852 105.585474,31.3610284 105.389724,31.009733 C105.194303,30.6577784 104.750406,30.531892 104.398122,30.727642 L102.487417,31.7924034 C102.135462,31.9881534 102.009247,32.4323807 102.205656,32.7840057 C102.401735,33.1356307 102.845303,33.261517 103.196599,33.0654375 L105.107633,32.0010057 Z" id="Fill-35" fill="#2A90FF"></path>
                    <path d="M104.417795,85.8408239 C104.754261,86.062608 105.206068,85.9696761 105.426864,85.6335398 C105.649307,85.2974034 105.556375,84.8449375 105.21925,84.6231534 L103.393239,83.4196534 C103.057761,83.1981989 102.605295,83.2914602 102.383511,83.627267 C102.161727,83.963733 102.255318,84.4155398 102.590795,84.6376534 L104.417795,85.8408239 Z" id="Fill-37" fill="#2A90FF"></path>
                    <path d="M84.3592864,105.140126 C84.5547068,105.491751 84.9989341,105.616649 85.3505591,105.421888 C85.7028432,105.225808 85.8284,104.781581 85.6329795,104.429626 L84.5678886,102.519251 C84.3721386,102.167297 83.9279114,102.04141 83.5762864,102.236501 C83.2246614,102.43324 83.0984455,102.877138 83.294525,103.228433 L84.3592864,105.140126 Z" id="Fill-39" fill="#2A90FF"></path>
                    <polygon id="Fill-41" fill="#A9D1F1" points="62.1112773 66.8111557 29.9575273 10.9831898 31.4213682 10.1395534 63.5751182 65.9688375"></polygon>
                    <path d="M63.2806364,58.068875 C63.2806364,60.9467955 60.9477841,63.2806364 58.068875,63.2806364 C55.1896364,63.2806364 52.8567841,60.9467955 52.8567841,58.068875 C52.8567841,55.190625 55.1896364,52.8571136 58.068875,52.8571136 C60.9477841,52.8571136 63.2806364,55.190625 63.2806364,58.068875" id="Fill-43" fill="#2A90FF"></path>
                </g>
            </g>
        </g>
    </g>
</svg>