<?xml version="1.0" encoding="UTF-8"?>
<svg width="120px" height="127px" viewBox="0 0 120 127" version="1.1" xmlns="http://www.w3.org/2000/svg" xmlns:xlink="http://www.w3.org/1999/xlink">
    <!-- Generator: Sketch 40.2 (33826) - http://www.bohemiancoding.com/sketch -->
    <title>4</title>
    <desc>Created with Sketch.</desc>
    <defs>
        <polygon id="path-1" points="6.41779922 33.9452122 6.41779922 0.0677905405 0.184563262 0.0677905405 0.184563262 33.9452122 6.41779922 33.9452122"></polygon>
        <polygon id="path-3" points="0 126.948857 119.107207 126.948857 119.107207 0 0 0"></polygon>
    </defs>
    <g id="Версия-3" stroke="none" stroke-width="1" fill="none" fill-rule="evenodd">
        <g id="Главная-Helsi_№6-Copy-2" transform="translate(-915.000000, -636.000000)">
            <g id="4" transform="translate(915.000000, 636.000000)">
                <g id="Page-1">
                    <path d="M24.4805371,56.8169511 C21.8859322,56.8169511 19.7826256,54.7156159 19.7826256,52.1230997 L19.7826256,29.9324241 C19.7826256,27.3399078 21.8859322,25.2385727 24.4805371,25.2385727 L64.2142039,25.2385727 C66.8091524,25.2385727 68.912459,27.3399078 68.912459,29.9324241 L68.912459,52.1230997 C68.912459,54.7156159 66.8091524,56.8169511 64.2142039,56.8169511 L24.4805371,56.8169511 Z" id="Fill-1" fill="#FFFFFF"></path>
                    <path d="M60.2076489,62.0135508 L60.2076489,62.0135508 C60.5117041,62.9389346 61.4207778,63.5269103 62.3906626,63.4256535 L75.1757569,62.0890643 C80.6353526,61.5182508 85.8671645,59.6002076 90.4008518,56.5075859 L98.9415408,50.6817184 C100.271482,49.7748697 100.53534,47.9230724 99.5118591,46.6812184 C98.5856072,45.55744 96.9409602,45.35424 95.7690591,46.2188697 L88.1367567,51.8497751 C83.5006869,55.2701941 78.0517418,57.4223292 72.3279444,58.093713 L61.9333772,59.3132562 C60.6329827,59.4656562 59.7991497,60.770667 60.2076489,62.0135508" id="Fill-3" fill="#FFD9CF"></path>
                    <path d="M97.3952222,46.0265849 C96.8998011,46.0265849 96.4006008,46.1796714 95.9732056,46.4951119 L88.3409031,52.1260173 C83.6646363,55.5756119 78.1411375,57.7576092 72.3682102,58.4344849 L61.973643,59.6540281 C61.4565773,59.7147822 60.9992919,60.001047 60.7192862,60.4390254 C60.4392806,60.8776903 60.3715982,61.41212 60.5341046,61.9063903 L60.5341046,61.9067335 C60.7855943,62.6725092 61.5520885,63.1640335 62.3550005,63.0844011 L75.1400948,61.7478119 C80.5247933,61.1845497 85.7353041,59.2747443 90.2071497,56.2239984 L98.7478387,50.3981308 C99.3105986,50.0147281 99.67306,49.4322443 99.7692582,48.7584578 C99.8651129,48.0850146 99.6795877,47.4246146 99.2466955,46.8994524 C98.7742932,46.3262362 98.0881934,46.0265849 97.3952222,46.0265849 M62.1790951,63.7801551 C61.14943,63.7801551 60.207374,63.112547 59.8813306,62.1205741 L59.8813306,62.1209173 C59.6542339,61.4299686 59.7483708,60.6823849 60.1400352,60.0696957 C60.5316996,59.4570065 61.170731,59.0571281 61.8935923,58.972347 L72.287816,57.7528038 C77.9425567,57.0893146 83.3523354,54.9526254 87.932404,51.5733957 L95.5647065,45.9428335 C96.8843407,44.9700822 98.7344396,45.1976524 99.7771602,46.462847 C100.326178,47.1290822 100.57114,48.0012632 100.449517,48.8552524 C100.327552,49.7095849 99.8486218,50.478793 99.1353803,50.9655119 L90.5946913,56.7910362 C86.0290525,59.9056254 80.7096314,61.855247 75.2115564,62.4301795 L62.4264621,63.7671119 C62.3436628,63.775693 62.2608636,63.7801551 62.1790951,63.7801551" id="Fill-5" fill="#727272"></path>
                    <path d="M86.26491,59.5742927 L82.5664299,53.1741792 L95.708145,45.5943386 C97.0226257,44.8361143 98.7036906,45.285763 99.4626262,46.5993549 L100.412584,48.2428035 C101.17152,49.5563954 100.721106,51.2358846 99.4062815,51.9941089 L86.26491,59.5742927 Z" id="Fill-7" fill="#FFFFFF"></path>
                    <path d="M83.0359462,53.3000465 L86.390861,59.1053195 L99.234705,51.6967573 C99.7912808,51.3761681 100.189129,50.8578708 100.355415,50.2379735 C100.521701,49.617733 100.436153,48.9703762 100.114919,48.4146654 L99.1649613,46.7712168 C98.8440713,46.2151627 98.3252878,45.8173438 97.7048089,45.6515573 C97.08433,45.4843978 96.4360224,45.5702086 95.8797902,45.8914843 L83.0359462,53.3000465 Z M86.1390277,60.0434032 L82.0973259,53.0487924 L95.5362249,45.296987 C96.2515278,44.8840654 97.0846736,44.7742276 97.8827757,44.9884114 C98.6805343,45.2019086 99.3473944,45.7129978 99.7603599,46.4279735 L100.709974,48.0714222 C101.123283,48.7860546 101.232881,49.6184195 101.018839,50.4157735 C100.805142,51.2127843 100.293573,51.8786762 99.5782703,52.2915978 L86.1390277,60.0434032 Z" id="Fill-9" fill="#727272"></path>
                    <path d="M113.252065,90.5181516 L113.252065,90.5181516 L116.769486,57.3725246 L118.729182,57.5798435 L115.419618,88.7676111 C115.304867,89.8491705 114.334296,90.6327949 113.252065,90.5181516" id="Fill-11" fill="#2A90FF"></path>
                    <g id="Group-15" transform="translate(112.689408, 56.927235)">
                        <mask id="mask-2" fill="white">
                            <use xlink:href="#path-1"></use>
                        </mask>
                        <g id="Clip-14"></g>
                        <path d="M4.38567937,0.822582432 L0.944186071,33.2494581 C1.6897227,33.1694824 2.30642236,32.5787608 2.38853446,31.8044041 L5.66202434,0.95782027 L4.38567937,0.822582432 Z M0.772059871,33.9452122 C0.690978468,33.9452122 0.608866369,33.94075 0.526410704,33.9321689 L0.184563262,33.8957851 L3.77482032,0.0677905405 L6.41786793,0.347533784 L3.07188578,31.8768284 C2.94614089,33.0620473 1.93949465,33.9452122 0.772059871,33.9452122 L0.772059871,33.9452122 Z" id="Fill-13" fill="#585F73" mask="url(#mask-2)"></path>
                    </g>
                    <mask id="mask-4" fill="white">
                        <use xlink:href="#path-3"></use>
                    </mask>
                    <g id="Clip-17"></g>
                    <polygon id="Fill-16" fill="#2A90FF" mask="url(#mask-4)" points="105.850741 116.238638 110.158706 116.238638 110.158706 88.4736919 105.850741 88.4736919"></polygon>
                    <path d="M106.194307,115.895395 L109.815141,115.895395 L109.815141,88.8169351 L106.194307,88.8169351 L106.194307,115.895395 Z M105.507176,116.581881 L110.502272,116.581881 L110.502272,88.1304486 L105.507176,88.1304486 L105.507176,116.581881 Z" id="Fill-18" fill="#585F73" mask="url(#mask-4)"></path>
                    <polygon id="Fill-19" fill="#2A90FF" mask="url(#mask-4)" points="81.6558445 116.238638 85.9638094 116.238638 85.9638094 88.4736919 81.6558445 88.4736919"></polygon>
                    <path d="M81.9994098,115.895395 L85.6202441,115.895395 L85.6202441,88.8169351 L81.9994098,88.8169351 L81.9994098,115.895395 Z M81.3122792,116.581881 L86.3073747,116.581881 L86.3073747,88.1304486 L81.3122792,88.1304486 L81.3122792,116.581881 Z" id="Fill-20" fill="#585F73" mask="url(#mask-4)"></path>
                    <path d="M112.409437,90.7578041 L78.0292039,90.7578041 C77.2517157,90.7578041 76.6212734,90.1279527 76.6212734,89.3511932 L76.6212734,86.9419689 C76.6212734,86.1648662 77.2517157,85.5353581 78.0292039,85.5353581 L112.409437,85.5353581 C113.186925,85.5353581 113.817367,86.1648662 113.817367,86.9419689 L113.817367,89.3511932 C113.817367,90.1279527 113.186925,90.7578041 112.409437,90.7578041" id="Fill-21" fill="#FFFFFF" mask="url(#mask-4)"></path>
                    <path d="M78.0292382,85.87867 C77.4424288,85.87867 76.964873,86.3557781 76.964873,86.9420376 L76.964873,89.3512619 C76.964873,89.9375214 77.4424288,90.4146295 78.0292382,90.4146295 L112.409471,90.4146295 C112.996281,90.4146295 113.473836,89.9375214 113.473836,89.3512619 L113.473836,86.9420376 C113.473836,86.3557781 112.996281,85.87867 112.409471,85.87867 L78.0292382,85.87867 Z M112.409471,91.1011159 L78.0292382,91.1011159 C77.0634763,91.1011159 76.2777425,90.3161186 76.2777425,89.3512619 L76.2777425,86.9420376 C76.2777425,85.9771808 77.0634763,85.1921835 78.0292382,85.1921835 L112.409471,85.1921835 C113.375233,85.1921835 114.160967,85.9771808 114.160967,86.9420376 L114.160967,89.3512619 C114.160967,90.3161186 113.375233,91.1011159 112.409471,91.1011159 L112.409471,91.1011159 Z" id="Fill-22" fill="#727272" mask="url(#mask-4)"></path>
                    <path d="M117.26532,51.24831 L115.441675,68.4331262 C115.359907,69.2054235 114.666592,69.7652532 113.893226,69.6835614 L111.649058,69.446037 C110.876036,69.3636586 110.315338,68.671337 110.39745,67.8990397 L112.221094,50.7138803 C112.303206,49.9412397 112.996521,49.3817532 113.769543,49.4637884 L116.013711,49.7013127 C116.787077,49.7830046 117.347432,50.4756695 117.26532,51.24831" id="Fill-23" fill="#FFFFFF" mask="url(#mask-4)"></path>
                    <path d="M113.618786,49.7988968 C113.376229,49.7988968 113.143292,49.8809319 112.95227,50.0350481 C112.731357,50.2138778 112.592901,50.4675346 112.56301,50.7500238 L110.739366,67.9351832 C110.677181,68.5180103 111.101827,69.0424859 111.685545,69.104613 L113.929369,69.3424805 C114.515492,69.4035778 115.038055,68.9800157 115.099896,68.3971886 L116.923541,51.2120292 C116.953775,50.92954 116.871662,50.6521995 116.693009,50.4314941 C116.514355,50.2104454 116.260116,50.0728049 115.977706,50.0425995 L113.733194,49.8050751 C113.695058,49.8009562 113.656922,49.7988968 113.618786,49.7988968 M114.042746,70.0348022 C113.981591,70.0348022 113.919406,70.0313697 113.856877,70.0248481 L111.612709,69.7869805 C110.652444,69.6853805 109.953976,68.8217805 110.055671,67.8627589 L111.879659,50.6779427 C111.929132,50.2128481 112.156573,49.7951211 112.520408,49.5013049 C112.8839,49.2074886 113.341873,49.0749968 113.80603,49.1223643 L116.050198,49.3602319 C116.515385,49.4093157 116.933504,49.6365427 117.227596,50.0000373 C117.521344,50.3635319 117.656366,50.8197022 117.606892,51.2844535 L115.783248,68.469613 C115.68808,69.3665076 114.926396,70.0348022 114.042746,70.0348022" id="Fill-24" fill="#727272" mask="url(#mask-4)"></path>
                    <path d="M104.92765,72.8635727 L104.919405,76.0876565 C104.908754,80.2807159 101.616712,83.7227592 97.425559,83.94827 C92.1387767,84.2331619 85.7336894,85.0878376 84.2312785,87.5145673 C80.8000921,93.0565727 75.4916652,111.601662 75.4916652,111.601662 L72.9664604,111.087827 C72.9664604,111.087827 75.0608343,88.2123808 79.1296778,81.1573592 C82.1808809,75.8662646 104.92765,72.8635727 104.92765,72.8635727" id="Fill-25" fill="#2A90FF" mask="url(#mask-4)"></path>
                    <path d="M73.3379576,110.813061 L75.2492112,111.202298 C75.977226,108.687698 80.722893,92.528493 83.9390075,87.3338497 C85.2153525,85.2726741 89.7466348,84.0184632 97.4071096,83.6051984 C101.41686,83.3896416 104.565636,80.0869551 104.575942,76.0864551 L104.583157,73.2577876 C103.198589,73.4534362 98.3288952,74.1787092 93.2458471,75.3618686 C85.4043134,77.186893 80.6260076,79.2501281 79.4273084,81.3288092 C75.6961896,87.7982578 73.6059385,108.073293 73.3379576,110.813061 L73.3379576,110.813061 Z M75.7346689,112.001369 L72.5962002,111.362936 L72.6243725,111.056763 C72.7102638,110.119366 74.7723426,88.0251416 78.8319098,80.9862524 C81.9322428,75.6096903 103.946874,72.6468146 104.882746,72.523247 L105.272349,72.4717605 L105.263073,76.0885146 C105.251735,80.4525092 101.817457,84.0555335 97.4438711,84.2909984 C90.2303747,84.6795497 85.6420605,85.8887957 84.5237556,87.6949416 C81.1564724,93.1332876 75.8751871,111.511217 75.8219345,111.696225 L75.7346689,112.001369 Z" id="Fill-26" fill="#585F73" mask="url(#mask-4)"></path>
                    <path d="M75.8131735,110.025008 L75.6729989,113.937638 L66.448615,114.031344 C66.448615,114.031344 66.4602962,110.748908 72.1480193,110.264249 L75.8131735,110.025008 Z" id="Fill-27" fill="#FFFFFF" mask="url(#mask-4)"></path>
                    <path d="M75.4562092,110.392382 L72.1706946,110.606909 C67.9688913,110.964911 67.0491671,112.885357 66.8481814,113.684084 L75.3414584,113.59793 L75.4562092,110.392382 Z M66.1040191,114.377779 L66.1050498,114.030074 C66.1057369,113.883165 66.1861312,110.428079 72.1188162,109.922482 L76.1701379,109.657498 L76.0045394,114.277552 L66.1040191,114.377779 Z" id="Fill-28" fill="#727272" mask="url(#mask-4)"></path>
                    <path d="M109.947276,73.6553319 L109.939031,76.8794157 C109.92838,81.0728184 106.636681,84.5145184 102.445185,84.7403724 C97.1584027,85.0249211 90.753659,85.87994 89.251248,88.3066697 C85.8197181,93.8486751 80.5112912,112.393421 80.5112912,112.393421 L77.9860864,111.879586 C77.9860864,111.879586 80.0808039,89.00414 84.1493038,81.9491184 C87.2005069,76.658367 109.947276,73.6553319 109.947276,73.6553319" id="Fill-29" fill="#2A90FF" mask="url(#mask-4)"></path>
                    <path d="M78.3575492,111.60482 L80.2688028,111.994058 C80.9971612,109.479458 85.7428282,93.3205954 88.9589427,88.1259522 C90.2356312,86.0644332 94.76657,84.8102224 102.426701,84.3973008 C106.436451,84.1814008 109.585227,80.8783711 109.595534,76.8782143 L109.602749,74.0495468 C108.218181,74.2455386 103.34883,74.9708116 98.2657823,76.1536278 C90.4242486,77.9786522 85.6455993,80.0422305 84.4469,82.1205684 C80.7154377,88.5907035 78.6255301,108.865395 78.3575492,111.60482 L78.3575492,111.60482 Z M80.7542605,112.793128 L77.6157918,112.154695 L77.6439642,111.848522 C77.7298555,110.911125 79.7922778,88.8169008 83.8515014,81.7780116 C86.9518344,76.4017927 108.966466,73.4385738 109.902338,73.3150062 L110.291941,73.2635197 L110.282665,76.8802738 C110.271327,81.2442684 106.837049,84.8472927 102.463806,85.0831008 C95.2506535,85.4713089 90.6619957,86.6802116 89.5433472,88.4870441 C86.176064,93.9257332 80.8947787,112.302976 80.8415261,112.487985 L80.7542605,112.793128 Z" id="Fill-30" fill="#585F73" mask="url(#mask-4)"></path>
                    <polygon id="Fill-31" fill="#FFD9CF" mask="url(#mask-4)" points="101.117786 46.3824595 105.218238 46.3824595 105.218238 40.0104919 101.117786 40.0104919"></polygon>
                    <path d="M101.461352,46.0392162 L104.874672,46.0392162 L104.874672,40.3537351 L101.461352,40.3537351 L101.461352,46.0392162 Z M100.773877,46.7257027 L105.561459,46.7257027 L105.561459,39.6672486 L100.773877,39.6672486 L100.773877,46.7257027 Z" id="Fill-32" fill="#727272" mask="url(#mask-4)"></path>
                    <path d="M112.91891,33.4777492 C111.313086,38.2323546 107.305053,41.6036897 102.610921,41.6036897 C96.5023305,41.6036897 91.5508678,35.8979573 91.5508678,28.8594114 C91.5508678,21.8208654 96.5023305,16.115133 102.610921,16.115133 C108.719168,16.115133 113.670974,21.8208654 113.670974,28.8594114 C113.670974,28.8762303 113.669943,28.8930492 113.669943,28.9095249" id="Fill-33" fill="#FFD9CF" mask="url(#mask-4)"></path>
                    <path d="M102.610784,41.9468643 C96.322852,41.9468643 91.2071651,36.0760319 91.2071651,28.8593427 C91.2071651,21.6429968 96.322852,15.7718211 102.610784,15.7718211 C108.898715,15.7718211 114.014402,21.6429968 114.014402,28.8593427 L114.013715,28.89504 L113.326241,28.9097995 L113.326928,28.8741022 C113.327271,22.0212508 108.520106,16.4583076 102.610784,16.4583076 C96.7018044,16.4583076 91.8942956,22.0212508 91.8942956,28.8593427 C91.8942956,35.6974346 96.7018044,41.2603778 102.610784,41.2603778 C107.055831,41.2603778 110.974193,38.1626076 112.593416,33.3681859 L113.244472,33.5875184 C111.529394,38.6654589 107.35542,41.9468643 102.610784,41.9468643" id="Fill-34" fill="#727272" mask="url(#mask-4)"></path>
                    <path d="M101.317054,36.0299686 C100.358163,36.0299686 99.5782703,35.2504632 99.5782703,34.2924714 C99.5782703,34.1030011 99.7321875,33.9492281 99.9218356,33.9492281 C100.111827,33.9492281 100.265401,34.1030011 100.265401,34.2924714 C100.265401,34.8722092 100.73746,35.3434822 101.317054,35.3434822 C101.896992,35.3434822 102.368707,34.8722092 102.368707,34.2924714 C102.368707,34.1030011 102.522625,33.9492281 102.712273,33.9492281 C102.901921,33.9492281 103.055838,34.1030011 103.055838,34.2924714 C103.055838,35.2504632 102.275945,36.0299686 101.317054,36.0299686" id="Fill-35" fill="#727272" mask="url(#mask-4)"></path>
                    <path d="M107.723653,30.7955092 C107.534005,30.7955092 107.380088,30.6420795 107.380088,30.4522659 C107.380088,30.0832795 106.963687,29.7716146 106.471014,29.7716146 C105.977998,29.7716146 105.561597,30.0832795 105.561597,30.4522659 C105.561597,30.6420795 105.40768,30.7955092 105.218032,30.7955092 C105.028384,30.7955092 104.874466,30.6420795 104.874466,30.4522659 C104.874466,29.6985038 105.5908,29.0851281 106.471014,29.0851281 C107.351228,29.0851281 108.067218,29.6985038 108.067218,30.4522659 C108.067218,30.6420795 107.913301,30.7955092 107.723653,30.7955092" id="Fill-36" fill="#727272" mask="url(#mask-4)"></path>
                    <path d="M97.701064,30.7955092 C97.511416,30.7955092 97.3574988,30.6420795 97.3574988,30.4522659 C97.3574988,30.0832795 96.9410977,29.7716146 96.4480815,29.7716146 C95.9550653,29.7716146 95.5390078,30.0832795 95.5390078,30.4522659 C95.5390078,30.6420795 95.3850906,30.7955092 95.1954425,30.7955092 C95.0054509,30.7955092 94.8518773,30.6420795 94.8518773,30.4522659 C94.8518773,29.6985038 95.5678673,29.0851281 96.4480815,29.0851281 C97.3286393,29.0851281 98.0446293,29.6985038 98.0446293,30.4522659 C98.0446293,30.6420795 97.8907121,30.7955092 97.701064,30.7955092" id="Fill-37" fill="#727272" mask="url(#mask-4)"></path>
                    <path d="M104.990248,32.9555046 C104.990248,33.4583559 105.704176,33.8657857 106.584734,33.8657857 C107.465292,33.8657857 108.179221,33.4583559 108.179221,32.9555046 C108.179221,32.4529965 107.465292,32.0455668 106.584734,32.0455668 C105.704176,32.0455668 104.990248,32.4529965 104.990248,32.9555046" id="Fill-38" fill="#FF9494" mask="url(#mask-4)"></path>
                    <path d="M94.7398063,32.7282432 C94.7398063,33.2307514 95.4537349,33.6381811 96.3342927,33.6381811 C97.2148505,33.6381811 97.9287791,33.2307514 97.9287791,32.7282432 C97.9287791,32.2253919 97.2148505,31.8179622 96.3342927,31.8179622 C95.4537349,31.8179622 94.7398063,32.2253919 94.7398063,32.7282432" id="Fill-39" fill="#FF9494" mask="url(#mask-4)"></path>
                    <path d="M111.823795,45.4721784 L105.44585,43.6516162 L102.256877,45.9273189 L100.434607,44.1067568 L97.7012015,44.5622405 C97.7012015,44.5622405 94.561702,44.8673838 93.60075,47.7482243 C92.9173987,49.7963568 93.1451824,55.030473 93.1451824,55.9407541 L93.1451824,77.3327027 L109.944493,77.5032946 L111.823795,45.4721784 Z" id="Fill-40" fill="#2A90FF" mask="url(#mask-4)"></path>
                    <path d="M93.4888508,76.9928919 L109.620958,77.1569622 L111.464873,45.7265216 L105.510543,44.0271243 L102.219875,46.3755946 L100.316523,44.4747135 L97.7576492,44.9006784 C97.6157568,44.9157811 94.8033315,45.2288189 93.9265529,47.8566892 C93.3576088,49.5626081 93.4455615,53.7453703 93.4785438,55.319827 C93.4843844,55.5981973 93.4888508,55.8120378 93.4888508,55.9407541 L93.4888508,76.9928919 Z M110.268235,77.8499703 L92.8017202,77.6725135 L92.8017202,55.9407541 C92.8017202,55.815127 92.7972539,55.6060919 92.7917568,55.3342432 C92.7546518,53.5758081 92.6680733,49.4579189 93.2748096,47.6394162 C94.2948549,44.5824919 97.5305526,44.2341 97.6679787,44.2203703 L100.552553,43.7391432 L102.293741,45.4790432 L105.380675,43.2764514 L112.182924,45.2178351 L112.166777,45.4924297 L110.268235,77.8499703 Z" id="Fill-41" fill="#585F73" mask="url(#mask-4)"></path>
                    <path d="M113.418316,28.6318068 C113.418316,28.6318068 104.431336,27.1802311 104.677672,20.0661716 C104.693133,19.6127473 104.110102,19.4273959 103.873042,19.8142311 C102.845782,21.4909743 101.271566,23.5483743 99.2957222,24.5351986 C95.6508383,26.3561041 91.7290408,27.2660419 91.6397138,28.6318068 C91.5507304,29.9972284 89.9689559,23.1447203 92.0062979,19.0735122 C93.3730006,16.3426689 96.5430773,13.6118257 102.029128,13.6118257 C106.584803,13.6118257 109.168757,13.8157122 111.596046,15.4323878 C115.696154,18.1632311 117.062857,23.6252608 117.062857,25.9009635 C117.062857,26.2977527 117.062857,29.0869473 116.188483,31.135423" id="Fill-42" fill="#5B4F4B" mask="url(#mask-4)"></path>
                    <path d="M116.188311,31.4786319 C116.143304,31.4786319 116.09761,31.4700508 116.053634,31.4511724 C115.879102,31.3766886 115.798021,31.1748616 115.872575,31.0004941 C116.658308,29.1600238 116.719463,26.6320373 116.719463,25.9009292 C116.719463,23.7333481 115.420443,18.39214 111.405539,15.7179319 C109.126671,14.2001103 106.774966,13.9550346 102.028956,13.9550346 C95.6413902,13.9550346 93.1069093,17.6418103 92.3136171,19.2272508 C90.9084351,22.0346373 91.2760499,26.1817022 91.6223637,27.8683995 C92.2431862,27.1366049 93.6964673,26.5482859 95.5386642,25.8024184 C96.6562821,25.3500238 97.9233508,24.8368751 99.1419768,24.2283049 C101.075906,23.2624184 102.62298,21.1971238 103.579809,19.6346805 C103.767396,19.3291941 104.121955,19.1912103 104.463116,19.2945265 C104.809429,19.3985292 105.033778,19.7132832 105.021066,20.0778076 C104.788128,26.8036589 113.386536,28.2789184 113.473458,28.2929914 C113.660701,28.32354 113.787821,28.4996238 113.757243,28.6866914 C113.72701,28.8737589 113.551448,29.0014454 113.363517,28.9705535 C113.270755,28.9554508 104.080384,27.3861427 104.334279,20.054467 C104.336684,19.9871914 104.298204,19.9614481 104.265222,19.9518373 C104.201662,19.9350184 104.175895,19.9768941 104.165932,19.9933697 C103.162034,21.632013 101.528725,23.803713 99.4491241,24.842367 C98.2067921,25.4632941 96.9263244,25.9812481 95.7963382,26.4384481 C93.8582865,27.2234454 92.0277708,27.9645076 91.9827637,28.6540832 C91.9755488,28.7615184 91.9569963,29.0467535 91.7010402,29.1329076 C91.5574299,29.1826778 91.4007641,29.1366832 91.294946,29.0148319 C90.8510597,28.5058022 89.860561,22.5937805 91.6989788,18.9200481 C92.5493028,17.2209941 95.258315,13.2685481 102.028956,13.2685481 C106.826501,13.2685481 109.374038,13.5397103 111.786553,15.1467751 C116.032676,17.9747562 117.406594,23.6135562 117.406594,25.9009292 C117.406594,26.8802022 117.318641,29.3628805 116.504391,31.2702832 C116.448734,31.4003724 116.321958,31.4786319 116.188311,31.4786319" id="Fill-43" fill="#727272" mask="url(#mask-4)"></path>
                    <path d="M113.669943,28.9096622 C113.815959,28.8767108 113.967471,28.8595486 114.122419,28.8595486 C115.368874,28.8595486 116.379643,29.9798946 116.379643,31.3624784 C116.379643,32.7454054 115.368874,33.8657514 114.122419,33.8657514 C113.67922,33.8657514 113.267628,33.7222757 112.91891,33.4778865" id="Fill-44" fill="#FFD9CF" mask="url(#mask-4)"></path>
                    <path d="M114.122384,34.2091662 C113.625933,34.2091662 113.141506,34.0533338 112.721325,33.7588311 C112.566034,33.6496797 112.528585,33.4354959 112.637839,33.28035 C112.746749,33.1255473 112.961477,33.0874473 113.116425,33.1969419 C113.420137,33.4100959 113.767825,33.5226797 114.122384,33.5226797 C115.177473,33.5226797 116.036043,32.5537041 116.036043,31.36265 C116.036043,30.1715959 115.177473,29.2026203 114.122384,29.2026203 C113.995952,29.2026203 113.869177,29.2166932 113.745493,29.2444959 C113.559281,29.2856851 113.376504,29.1696689 113.334933,28.9850041 C113.293018,28.7999959 113.409487,28.6163608 113.594325,28.5748284 C113.767482,28.5360419 113.945105,28.5161338 114.122384,28.5161338 C115.556426,28.5161338 116.723174,29.7929986 116.723174,31.36265 C116.723174,32.9323014 115.556426,34.2091662 114.122384,34.2091662" id="Fill-45" fill="#727272" mask="url(#mask-4)"></path>
                    <path d="M80.8329713,110.816768 L80.6924531,114.729741 L71.4684128,114.823103 C71.4684128,114.823103 71.480094,111.540668 77.167817,111.056351 L80.8329713,110.816768 Z" id="Fill-46" fill="#FFFFFF" mask="url(#mask-4)"></path>
                    <path d="M80.4759727,111.184141 L77.190458,111.399011 C72.9883112,111.756671 72.068587,113.677116 71.8679449,114.475844 L80.3608783,114.390033 L80.4759727,111.184141 Z M71.1234389,115.169538 L71.1248132,114.821833 C71.1251567,114.674925 71.2058946,111.219838 77.1385796,110.714584 L81.1899013,110.449257 L81.0243028,115.069654 L71.1234389,115.169538 Z" id="Fill-47" fill="#727272" mask="url(#mask-4)"></path>
                    <polygon id="Fill-48" fill="#FFFFFF" mask="url(#mask-4)" points="100.244581 98.5059368 111.751956 98.5059368 110.571809 44.8553016 105.260634 43.6762611 99.6546792 51.3405395"></polygon>
                    <path d="M100.583955,98.1626935 L111.400763,98.1626935 L110.234016,45.1319557 L105.40555,44.060007 L99.99955,51.4507205 L100.583955,98.1626935 Z M112.103354,98.84918 L99.9050696,98.84918 L99.309671,51.2303584 L105.115924,43.2925151 L110.909122,44.5789908 L112.103354,98.84918 Z" id="Fill-49" fill="#727272" mask="url(#mask-4)"></path>
                    <path d="M96.1137238,76.6918676 L81.0659086,79.3447946 L83.0884773,77.7384162 L91.9830386,74.6282892 L93.0089244,46.7569378 C93.1027178,45.959927 93.6596371,45.2936919 94.4281926,45.0602865 L100.539532,43.9711757 L98.1792382,51.6354541 L96.1137238,76.6918676 Z" id="Fill-50" fill="#FFFFFF" mask="url(#mask-4)"></path>
                    <path d="M83.256893,78.0430789 L82.3395737,78.7717843 L95.7932461,76.3999735 L97.8398644,51.5701005 L97.8508585,51.5347465 L100.045897,44.407987 L94.5096863,45.3944681 C93.8813054,45.5932059 93.4274557,46.1420519 93.3501535,46.79696 L92.3177398,74.875287 L83.256893,78.0430789 Z M79.7923808,79.9182168 L82.9205426,77.4338222 L82.9751695,77.4142573 L91.6481311,74.3817032 L92.6657715,46.7441005 C92.7774302,45.7847357 93.4291735,45.0052303 94.3282838,44.7316654 L94.3677938,44.7223978 L101.033647,43.534433 L98.5184058,51.7008762 L96.4343389,76.9838303 L79.7923808,79.9182168 Z" id="Fill-51" fill="#727272" mask="url(#mask-4)"></path>
                    <polygon id="Fill-52" fill="#FFFFFF" mask="url(#mask-4)" points="102.014835 82.2925676 108.211035 82.2925676 108.211035 76.1021757 102.014835 76.1021757"></polygon>
                    <path d="M102.3584,81.9493243 L107.86747,81.9493243 L107.86747,76.4454189 L102.3584,76.4454189 L102.3584,81.9493243 Z M101.67127,82.6358108 L108.5546,82.6358108 L108.5546,75.7589324 L101.67127,75.7589324 L101.67127,82.6358108 Z" id="Fill-53" fill="#727272" mask="url(#mask-4)"></path>
                    <path d="M98.7443343,80.6589357 L98.7443343,80.6589357 C99.5578969,80.9757492 100.482087,80.6822762 100.963766,79.9549438 L107.315601,70.3650708 C110.028048,66.2698357 111.67888,61.5653438 112.119674,56.6744708 L112.950071,47.4604492 C113.079252,46.0260357 111.948235,44.7896735 110.506291,44.7896735 C109.201774,44.7896735 108.125384,45.8097924 108.056327,47.1113708 L107.608318,55.5870762 C107.335871,60.7350384 105.723519,65.7230492 102.930677,70.0578681 L97.8582795,77.9301519 C97.2237144,78.9149168 97.6517968,80.2336573 98.7443343,80.6589357" id="Fill-54" fill="#FFD9CF" mask="url(#mask-4)"></path>
                    <path d="M110.506394,45.1329511 C109.383967,45.1329511 108.458745,46.0099376 108.399652,47.1292538 L107.951299,55.6053024 C107.676447,60.8040646 106.040046,65.8658727 103.219719,70.243597 L98.147321,78.1158808 C97.9009847,78.4982538 97.8401736,78.9657511 97.9806918,79.3982376 C98.1208664,79.8310673 98.4448485,80.1739673 98.8691516,80.3390673 C99.5267355,80.5951268 100.287389,80.35417 100.677336,79.7655078 L107.02917,70.1756349 C109.701421,66.1411538 111.343319,61.4620619 111.777242,56.6436132 L112.60764,47.4295916 C112.661579,46.8330349 112.468152,46.2608484 112.063776,45.8187511 C111.659056,45.3763105 111.105916,45.1329511 110.506394,45.1329511 M99.4095798,81.1268105 C99.1443474,81.1268105 98.8763665,81.0790997 98.6193796,80.9788727 C98.0023364,80.7382592 97.5309649,80.2395268 97.3268871,79.6100186 C97.1224658,78.9805105 97.2111056,78.3005457 97.5694442,77.7444916 L102.641842,69.8722078 C105.397579,65.5947105 106.996532,60.6489186 107.2652,55.5689186 L107.713552,47.0932132 C107.791885,45.6090295 109.018757,44.4464646 110.506394,44.4464646 C111.289723,44.4464646 112.042131,44.7776943 112.570878,45.3553727 C113.099281,45.9330511 113.362452,46.71187 113.292022,47.4913754 L112.461624,56.705397 C112.017394,61.6367727 110.337017,66.4253592 107.602237,70.5545754 L101.250402,80.1444484 C100.835719,80.7708673 100.132098,81.1264673 99.4095798,81.1268105" id="Fill-55" fill="#727272" mask="url(#mask-4)"></path>
                    <path d="M106.584769,61.3632422 L113.873849,61.3632422 L113.873849,47.3081178 C113.873849,45.7913259 112.643542,44.5621719 111.125327,44.5621719 L109.333291,44.5621719 C107.815419,44.5621719 106.584769,45.7913259 106.584769,47.3081178 L106.584769,61.3632422 Z" id="Fill-56" fill="#FFFFFF" mask="url(#mask-4)"></path>
                    <path d="M106.928334,61.0199989 L113.530284,61.0199989 L113.530284,47.3081178 C113.530284,45.9831989 112.451489,44.9054151 111.125327,44.9054151 L109.333291,44.9054151 C108.007129,44.9054151 106.928334,45.9831989 106.928334,47.3081178 L106.928334,61.0199989 Z M114.217415,61.7064854 L106.241203,61.7064854 L106.241203,47.3081178 C106.241203,45.6046016 107.62852,44.2189286 109.333291,44.2189286 L111.125327,44.2189286 C112.830442,44.2189286 114.217415,45.6046016 114.217415,47.3081178 L114.217415,61.7064854 Z" id="Fill-57" fill="#727272" mask="url(#mask-4)"></path>
                    <path d="M65.6914315,53.5427195 L24.5773194,53.5427195 C24.0417012,53.5427195 23.6077782,53.10886 23.6077782,52.5744303 L23.6077782,29.853787 C23.6077782,29.3190141 24.0417012,28.8854978 24.5773194,28.8854978 L65.6914315,28.8854978 C66.2270498,28.8854978 66.6609727,29.3190141 66.6609727,29.853787 L66.6609727,52.5744303 C66.6609727,53.10886 66.2270498,53.5427195 65.6914315,53.5427195" id="Fill-58" fill="#A6D5FF" mask="url(#mask-4)"></path>
                    <path d="M24.577182,29.2287754 C24.2322425,29.2287754 23.9512061,29.5092051 23.9512061,29.8538214 L23.9512061,52.5744646 C23.9512061,52.9190808 24.2322425,53.1995105 24.577182,53.1995105 L65.6912941,53.1995105 C66.0365772,53.1995105 66.31727,52.9190808 66.31727,52.5744646 L66.31727,29.8538214 C66.31727,29.5092051 66.0365772,29.2287754 65.6912941,29.2287754 L24.577182,29.2287754 Z M65.6912941,53.885997 L24.577182,53.885997 C23.85329,53.885997 23.2640755,53.2976781 23.2640755,52.5744646 L23.2640755,29.8538214 C23.2640755,29.1306078 23.85329,28.5422889 24.577182,28.5422889 L65.6912941,28.5422889 C66.4155297,28.5422889 67.0044006,29.1306078 67.0044006,29.8538214 L67.0044006,52.5744646 C67.0044006,53.2976781 66.4155297,53.885997 65.6912941,53.885997 L65.6912941,53.885997 Z" id="Fill-59" fill="#727272" mask="url(#mask-4)"></path>
                    <path d="M58.444197,60.8896008 L31.8244165,60.8896008 C31.3527014,60.8896008 30.9703132,60.6555089 30.9703132,60.3675278 C30.9703132,60.0788603 31.3527014,59.8451116 31.8244165,59.8451116 L58.444197,59.8451116 C58.9159122,59.8451116 59.2983003,60.0788603 59.2983003,60.3675278 C59.2983003,60.6555089 58.9159122,60.8896008 58.444197,60.8896008" id="Fill-60" fill="#727272" mask="url(#mask-4)"></path>
                    <path d="M26.0025999,26.0621505 C23.8168377,26.0621505 22.0382003,27.8391208 22.0382003,30.0228343 L22.0382003,52.364537 C22.0382003,54.5482505 23.8168377,56.3248776 26.0025999,56.3248776 L64.2664946,56.3248776 C66.4522568,56.3248776 68.2305506,54.5482505 68.2305506,52.364537 L68.2305506,30.0228343 C68.2305506,27.8391208 66.4522568,26.0621505 64.2664946,26.0621505 L26.0025999,26.0621505 Z M64.2664946,57.282183 L26.0025999,57.282183 C23.2884343,57.282183 21.0803403,55.0761586 21.0803403,52.364537 L21.0803403,30.0228343 C21.0803403,27.3112127 23.2884343,25.1051884 26.0025999,25.1051884 L64.2664946,25.1051884 C66.9803166,25.1051884 69.1887542,27.3112127 69.1887542,30.0228343 L69.1887542,52.364537 C69.1887542,55.0761586 66.9803166,57.282183 64.2664946,57.282183 L64.2664946,57.282183 Z" id="Fill-61" fill="#727272" mask="url(#mask-4)"></path>
                    <path d="M36.0955168,59.6641195 L54.1728906,59.6641195 L51.5755371,57.4220546 L38.6935574,57.4220546 L36.0955168,59.6641195 Z M56.7479122,60.6214249 L33.5204951,60.6214249 L38.3365931,56.4647492 L51.9321579,56.4647492 L56.7479122,60.6214249 Z" id="Fill-62" fill="#727272" mask="url(#mask-4)"></path>
                    <path d="M56.4888297,51.8194668 L33.7712634,51.8194668 C33.5173687,51.8194668 33.3115731,51.6135208 33.3115731,51.3602073 L33.3115731,34.3916343 C33.3115731,34.1376343 33.5173687,33.9320316 33.7712634,33.9320316 L56.4888297,33.9320316 C56.7427244,33.9320316 56.94852,34.1376343 56.94852,34.3916343 L56.94852,51.3602073 C56.94852,51.6135208 56.7427244,51.8194668 56.4888297,51.8194668" id="Fill-63" fill="#2A90FF" mask="url(#mask-4)"></path>
                    <path d="M33.7714008,34.1035846 C33.6126737,34.1035846 33.4834931,34.2326441 33.4834931,34.3915657 L33.4834931,51.3601386 C33.4834931,51.518717 33.6126737,51.6477765 33.7714008,51.6477765 L56.4889671,51.6477765 C56.6473507,51.6477765 56.7765312,51.518717 56.7765312,51.3601386 L56.7765312,34.3915657 C56.7765312,34.2326441 56.6473507,34.1035846 56.4889671,34.1035846 L33.7714008,34.1035846 Z M56.4889671,51.9910197 L33.7714008,51.9910197 C33.4230257,51.9910197 33.1399279,51.7081873 33.1399279,51.3601386 L33.1399279,34.3915657 C33.1399279,34.043517 33.4230257,33.7603414 33.7714008,33.7603414 L56.4889671,33.7603414 C56.8369987,33.7603414 57.1200965,34.043517 57.1200965,34.3915657 L57.1200965,51.3601386 C57.1200965,51.7081873 56.8369987,51.9910197 56.4889671,51.9910197 L56.4889671,51.9910197 Z" id="Fill-64" fill="#585F73" mask="url(#mask-4)"></path>
                    <path d="M33.9770934,34.3046908 C33.8159613,34.3046908 33.6847193,34.4358097 33.6847193,34.5971341 L33.6847193,51.1541584 C33.6847193,51.3154827 33.8159613,51.4466016 33.9770934,51.4466016 L56.2827249,51.4466016 C56.4442005,51.4466016 56.5750989,51.3154827 56.5750989,51.1541584 L56.5750989,34.5971341 C56.5750989,34.4358097 56.4442005,34.3046908 56.2827249,34.3046908 L33.9770934,34.3046908 Z M56.2827249,52.1924692 L33.9770934,52.1924692 C33.4043701,52.1924692 32.9384956,51.7263449 32.9384956,51.1541584 L32.9384956,34.5971341 C32.9384956,34.0249476 33.4043701,33.5591665 33.9770934,33.5591665 L56.2827249,33.5591665 C56.8554482,33.5591665 57.3213227,34.0249476 57.3213227,34.5971341 L57.3213227,51.1541584 C57.3213227,51.7263449 56.8554482,52.1924692 56.2827249,52.1924692 L56.2827249,52.1924692 Z" id="Fill-65" fill="#FFFFFF" mask="url(#mask-4)"></path>
                    <path d="M56.3373174,34.0107373 L34.0334037,33.9335076 C33.6389908,33.9321346 33.3184444,34.2503211 33.3170701,34.6443643 L33.306076,37.7414481 C33.3050453,38.078513 33.5774926,38.3524211 33.9148737,38.3534508 L56.3318203,38.4310238 C56.6692014,38.4323968 56.9437101,38.1602049 56.9447408,37.8227968 L56.9557349,34.6326941 C56.9571091,34.2901373 56.6801955,34.011767 56.3373174,34.0107373" id="Fill-66" fill="#2A90FF" mask="url(#mask-4)"></path>
                    <path d="M34.0307583,34.1052322 C33.8868044,34.1052322 33.7510961,34.1608376 33.6487137,34.2624376 C33.5459877,34.3643808 33.4892994,34.4999619 33.4886123,34.6448105 L33.4779617,37.7422376 C33.4776182,37.8592835 33.5226252,37.9694646 33.6054245,38.0525295 C33.6878801,38.1355943 33.7981646,38.1815889 33.9153203,38.1819322 L56.3326105,38.2595051 L56.3343284,38.2595051 C56.450797,38.2595051 56.5607379,38.214197 56.6431935,38.1318186 C56.7266799,38.0494403 56.7727177,37.9396024 56.7730612,37.8222132 L56.7840553,34.6321105 C56.7843989,34.5126619 56.7380176,34.3993916 56.6538441,34.3146105 C56.569327,34.2294862 56.4566376,34.1828051 56.3367333,34.1824619 L56.3367333,34.1824619 L34.0324761,34.1052322 L34.0307583,34.1052322 Z M56.3343284,38.6027484 L56.3312363,38.6027484 L33.9142896,38.5251754 C33.705402,38.5244889 33.5088826,38.442797 33.3618367,38.2945159 C33.2144472,38.1462349 33.1337094,37.9495565 33.1343965,37.7408646 L33.145047,34.6434376 C33.1467648,34.1567186 33.5439263,33.7619889 34.0307583,33.7619889 L34.0338504,33.7619889 L56.3381076,33.8392186 C56.5494002,33.8399051 56.7483245,33.9226268 56.8974318,34.0726241 C57.0465392,34.2229646 57.1283077,34.4220457 57.1276206,34.6334835 L57.1166265,37.8235862 C57.1159394,38.0322781 57.0338273,38.2286132 56.8854071,38.3755214 C56.737674,38.5220862 56.5421854,38.6027484 56.3343284,38.6027484 L56.3343284,38.6027484 Z" id="Fill-67" fill="#585F73" mask="url(#mask-4)"></path>
                    <path d="M34.0311018,34.3063727 C33.8435152,34.3063727 33.6906287,34.4580862 33.6899415,34.645497 L33.679291,37.7429241 C33.6789474,37.8733565 33.7854527,37.9804484 33.916351,37.9811349 L56.3332977,38.0583646 L56.3339848,38.0583646 C56.4648832,38.0583646 56.5713884,37.9523024 56.571732,37.82187 L56.5823825,34.6314241 C56.5830696,34.5655214 56.5573022,34.5030511 56.5105774,34.45637 C56.4645396,34.4096889 56.4023543,34.3836024 56.3360462,34.3836024 L56.3357026,34.3836024 L34.0321325,34.3063727 L34.0311018,34.3063727 Z M56.3346719,38.8038889 L56.3302056,38.8038889 L33.9136025,38.7266592 C33.3714565,38.7242565 32.931693,38.2818159 32.9330672,37.7401781 L32.9437178,34.6424078 C32.9461227,34.0451646 33.4336418,33.5605051 34.0307583,33.5605051 L34.034881,33.5605051 L56.3387947,33.6380781 C56.6040271,33.6391078 56.8531119,33.7424241 57.0400114,33.9308646 C57.2272545,34.1193051 57.329637,34.368843 57.3289498,34.63417 L57.3179557,37.8246159 C57.3155508,38.3652241 56.8751001,38.8038889 56.3346719,38.8038889 L56.3346719,38.8038889 Z" id="Fill-68" fill="#FFFFFF" mask="url(#mask-4)"></path>
                    <path d="M39.7071436,36.5384492 C39.7181377,36.5394789 39.7305061,36.5398222 39.7435616,36.5398222 L54.7518667,36.5916519 C54.750836,36.5954276 54.7762599,36.5913086 54.787254,36.5902789 L54.7903461,35.8265627 C54.7776341,35.825533 54.763548,35.8245032 54.7480875,35.8245032 L54.7474004,35.8245032 L39.814336,35.77336 C39.7686418,35.7767924 39.7377209,35.7774789 39.7098922,35.7829708 L39.7071436,36.5384492 Z M54.7869104,36.7550357 L54.7869104,36.7570951 L54.7869104,36.7550357 Z M54.7522103,37.3375195 L54.7494618,37.3375195 L39.7404695,37.2856897 C39.2883376,37.2836303 38.9602327,37.0385546 38.9602327,36.7028627 L38.9643555,35.6412114 C38.9650427,35.431833 39.0907875,35.2481978 39.3092951,35.1376735 C39.4535925,35.0649059 39.6195345,35.0439681 39.8174281,35.0274924 L54.7504925,35.0789789 C55.0098843,35.0793222 55.2404166,35.162387 55.3833397,35.3055195 C55.4829736,35.4060897 55.5376005,35.5341195 55.5369134,35.6666114 L55.5331342,36.7584681 C55.5331342,36.8889005 55.4781637,37.016587 55.3792169,37.1157843 C55.2373245,37.2565141 55.0088536,37.3375195 54.7522103,37.3375195 L54.7522103,37.3375195 Z" id="Fill-69" fill="#FFFFFF" mask="url(#mask-4)"></path>
                    <path d="M55.0019823,49.4801268 L55.0016387,49.4801268 L35.6224962,49.4629646 C35.4167006,49.4629646 35.2500714,49.2958051 35.2500714,49.0898592 C35.2500714,48.8842565 35.4170441,48.7174403 35.6231833,48.7174403 L35.6235269,48.7174403 L55.0023258,48.7346024 C55.208465,48.7346024 55.3750941,48.9017619 55.3750941,49.1077078 C55.3750941,49.3136538 55.2081214,49.4801268 55.0019823,49.4801268" id="Fill-70" fill="#FFFFFF" mask="url(#mask-4)"></path>
                    <path d="M55.0019823,48.0716281 L55.0016387,48.0716281 L35.6224962,48.0541227 C35.4167006,48.0541227 35.2500714,47.88662 35.2500714,47.6806741 C35.2500714,47.4750714 35.4170441,47.3082551 35.6231833,47.3082551 L35.6235269,47.3082551 L55.0023258,47.3261038 C55.208465,47.3261038 55.3750941,47.4932632 55.3750941,47.6992092 C55.3750941,47.9051551 55.2081214,48.0716281 55.0019823,48.0716281" id="Fill-71" fill="#FFFFFF" mask="url(#mask-4)"></path>
                    <path d="M55.0019823,46.662443 L55.0016387,46.662443 L35.6224962,46.6449376 C35.4167006,46.6449376 35.2500714,46.4774349 35.2500714,46.2714889 C35.2500714,46.0658862 35.4170441,45.8994132 35.6231833,45.8994132 L35.6235269,45.8994132 L55.0023258,45.9169186 C55.208465,45.9169186 55.3750941,46.0844214 55.3750941,46.2900241 C55.3750941,46.49597 55.2081214,46.662443 55.0019823,46.662443" id="Fill-72" fill="#FFFFFF" mask="url(#mask-4)"></path>
                    <path d="M45.3125484,45.2532922 L45.3122048,45.2532922 L35.6226336,45.2364732 C35.4161509,45.2357868 35.2495217,45.0689705 35.2498653,44.8630246 C35.2505524,44.6574219 35.4171816,44.4909489 35.6229771,44.4909489 L35.6236643,44.4909489 L45.312892,44.5077678 C45.5197183,44.5084543 45.6860039,44.6752705 45.6856603,44.8812165 C45.6853167,45.0871624 45.5186876,45.2532922 45.3125484,45.2532922" id="Fill-73" fill="#FFFFFF" mask="url(#mask-4)"></path>
                    <path d="M45.3125484,43.8447592 L45.3122048,43.8447592 L35.6226336,43.8272538 C35.4161509,43.8269105 35.2495217,43.6600943 35.2498653,43.4541484 C35.2505524,43.2485457 35.4175251,43.0817295 35.6229771,43.0817295 L35.6236643,43.0817295 L45.312892,43.0992349 C45.5197183,43.0999214 45.6860039,43.2667376 45.6856603,43.4726835 C45.6853167,43.6786295 45.5180004,43.8447592 45.3125484,43.8447592" id="Fill-74" fill="#FFFFFF" mask="url(#mask-4)"></path>
                    <path d="M45.3125484,42.4359516 L45.3122048,42.4359516 L35.6226336,42.4184462 C35.4161509,42.4177597 35.2495217,42.2509435 35.2498653,42.0449976 C35.2505524,41.8393949 35.4175251,41.6725786 35.6229771,41.6725786 L35.6236643,41.6725786 L45.312892,41.6900841 C45.5197183,41.6907705 45.6860039,41.8575868 45.6856603,42.0635327 C45.6853167,42.2694786 45.5180004,42.4359516 45.3125484,42.4359516" id="Fill-75" fill="#FFFFFF" mask="url(#mask-4)"></path>
                    <path d="M45.3125484,41.0267665 L45.3122048,41.0267665 L35.6226336,41.0096043 C35.4161509,41.0092611 35.2495217,40.8424449 35.2498653,40.6364989 C35.2505524,40.4308962 35.4171816,40.26408 35.6229771,40.26408 L35.6236643,40.26408 L45.312892,40.2812422 C45.5197183,40.2815854 45.6860039,40.4484016 45.6856603,40.6543476 C45.6853167,40.8602935 45.5186876,41.0267665 45.3125484,41.0267665" id="Fill-76" fill="#FFFFFF" mask="url(#mask-4)"></path>
                    <path d="M54.8736606,44.9891322 L46.9527634,44.9891322 C46.8819889,44.9891322 46.8246135,44.9314673 46.8246135,44.8607592 L46.8246135,40.8908078 C46.8246135,40.8200997 46.8819889,40.7624349 46.9527634,40.7624349 L54.8736606,40.7624349 C54.9447786,40.7624349 55.002154,40.8200997 55.002154,40.8908078 L55.002154,44.8607592 C55.002154,44.9314673 54.9447786,44.9891322 54.8736606,44.9891322" id="Fill-77" fill="#2A90FF" mask="url(#mask-4)"></path>
                    <path d="M46.9962931,44.8176135 L54.8302683,44.8176135 L54.8302683,40.9341595 L46.9962931,40.9341595 L46.9962931,44.8176135 Z M54.8735576,45.1608568 L46.9530039,45.1608568 C46.7874054,45.1608568 46.6527278,45.0263054 46.6527278,44.8608622 L46.6527278,40.8905676 C46.6527278,40.7251243 46.7874054,40.590573 46.9530039,40.590573 L54.8735576,40.590573 C55.039156,40.590573 55.1738336,40.7251243 55.1738336,40.8905676 L55.1738336,44.8608622 C55.1738336,45.0263054 55.039156,45.1608568 54.8735576,45.1608568 L54.8735576,45.1608568 Z" id="Fill-78" fill="#585F73" mask="url(#mask-4)"></path>
                    <path d="M47.1976223,44.4911892 L54.6289391,44.4911892 L54.6289391,41.009673 L47.1976223,41.009673 L47.1976223,44.4911892 Z M54.8158386,45.2363703 L47.0107228,45.2363703 C46.7022012,45.2363703 46.4513986,44.9861459 46.4513986,44.6779135 L46.4513986,40.8229486 C46.4513986,40.5147162 46.7022012,40.2641486 47.0107228,40.2641486 L54.8158386,40.2641486 C55.1243602,40.2641486 55.3751629,40.5147162 55.3751629,40.8229486 L55.3751629,44.6779135 C55.3751629,44.9861459 55.1243602,45.2363703 54.8158386,45.2363703 L54.8158386,45.2363703 Z" id="Fill-79" fill="#FFFFFF" mask="url(#mask-4)"></path>
                    <polygon id="Fill-80" fill="#A6D5FF" mask="url(#mask-4)" points="24.4000054 116.153514 73.0038403 116.153514 73.0038403 67.4318514 24.4000054 67.4318514"></polygon>
                    <path d="M24.7439142,115.81027 L72.6606186,115.81027 L72.6606186,67.7750946 L24.7439142,67.7750946 L24.7439142,115.81027 Z M24.0564401,116.496757 L73.3474056,116.496757 L73.3474056,67.0886081 L24.0564401,67.0886081 L24.0564401,116.496757 Z" id="Fill-81" fill="#727272" mask="url(#mask-4)"></path>
                    <polygon id="Fill-82" fill="#2A90FF" mask="url(#mask-4)" points="72.7087178 116.153514 76.7590087 116.153514 76.7590087 64.009373 72.7087178 64.009373"></polygon>
                    <path d="M73.052283,115.81027 L76.4154435,115.81027 L76.4154435,64.3526162 L73.052283,64.3526162 L73.052283,115.81027 Z M72.3651525,116.496757 L77.102574,116.496757 L77.102574,63.6661297 L72.3651525,63.6661297 L72.3651525,116.496757 Z" id="Fill-83" fill="#585F73" mask="url(#mask-4)"></path>
                    <polygon id="Fill-84" fill="#2A90FF" mask="url(#mask-4)" points="20.4118997 116.153514 24.4621907 116.153514 24.4621907 64.009373 20.4118997 64.009373"></polygon>
                    <path d="M20.755465,115.81027 L24.1186254,115.81027 L24.1186254,64.3526162 L20.755465,64.3526162 L20.755465,115.81027 Z M20.0683345,116.496757 L24.805756,116.496757 L24.805756,63.6661297 L20.0683345,63.6661297 L20.0683345,116.496757 Z" id="Fill-85" fill="#585F73" mask="url(#mask-4)"></path>
                    <path d="M82.2223149,68.2988495 L15.1817369,68.2988495 C14.4042487,68.2988495 13.77415,67.6689981 13.77415,66.8922386 L13.77415,62.4856819 C13.77415,61.7089224 14.4042487,61.0794143 15.1817369,61.0794143 L82.2223149,61.0794143 C82.9998031,61.0794143 83.6302454,61.7089224 83.6302454,62.4856819 L83.6302454,66.8922386 C83.6302454,67.6689981 82.9998031,68.2988495 82.2223149,68.2988495" id="Fill-86" fill="#FFFFFF" mask="url(#mask-4)"></path>
                    <path d="M15.1818057,61.4225889 C14.5949962,61.4225889 14.1174404,61.899697 14.1174404,62.4859565 L14.1174404,66.8925132 C14.1174404,67.4787727 14.5949962,67.9555376 15.1818057,67.9555376 L82.2223836,67.9555376 C82.8091931,67.9555376 83.2864053,67.4787727 83.2864053,66.8925132 L83.2864053,62.4859565 C83.2864053,61.899697 82.8091931,61.4225889 82.2223836,61.4225889 L15.1818057,61.4225889 Z M82.2223836,68.6420241 L15.1818057,68.6420241 C14.2160437,68.6420241 13.4303099,67.8570268 13.4303099,66.8925132 L13.4303099,62.4859565 C13.4303099,61.5210997 14.2160437,60.7361024 15.1818057,60.7361024 L82.2223836,60.7361024 C83.1881456,60.7361024 83.9735358,61.5210997 83.9735358,62.4859565 L83.9735358,66.8925132 C83.9735358,67.8570268 83.1881456,68.6420241 82.2223836,68.6420241 L82.2223836,68.6420241 Z" id="Fill-87" fill="#727272" mask="url(#mask-4)"></path>
                    <path d="M17.3051077,81.5291259 C17.3051077,81.5291259 17.4514665,111.120812 14.9413787,123.15698 L11.8987647,122.910188 C11.8987647,122.910188 12.6144111,101.548102 9.69822911,80.9116314 L17.3051077,81.5291259 Z" id="Fill-88" fill="#FFD9CF" mask="url(#mask-4)"></path>
                    <path d="M12.2512626,122.594301 L14.6654958,122.790293 C16.9409285,111.421047 16.9680702,85.0338797 16.9622296,81.8454932 L10.0977955,81.2884095 C12.7236649,100.205918 12.3237549,119.836685 12.2512626,122.594301 L12.2512626,122.594301 Z M15.2155438,123.523804 L11.5442053,123.225869 L11.5551994,122.898758 C11.5624143,122.685261 12.2364893,101.328666 9.3580995,80.9595824 L9.29797558,80.5349905 L17.6472987,81.2122095 L17.648673,81.5273068 C17.6500473,81.8238689 17.7661723,111.293361 15.2777291,123.227242 L15.2155438,123.523804 Z" id="Fill-89" fill="#727272" mask="url(#mask-4)"></path>
                    <path d="M26.9432129,82.7911627 C26.9432129,82.7911627 27.0895717,112.382849 24.5794839,124.418674 L21.5368698,124.171882 C21.5368698,124.171882 22.2528599,102.810138 19.3363343,82.1736681 L26.9432129,82.7911627 Z" id="Fill-90" fill="#FFD9CF" mask="url(#mask-4)"></path>
                    <path d="M21.8893678,123.855995 L24.303601,124.051987 C26.5790337,112.683427 26.6058318,86.2959165 26.6003348,83.10753 L19.7359007,82.5504462 C22.3621136,101.467954 21.9618601,121.098379 21.8893678,123.855995 L21.8893678,123.855995 Z M24.8539925,124.785498 L21.1823105,124.487562 L21.1933046,124.160452 C21.2005195,123.946954 21.8749381,102.590703 18.9962047,82.2216192 L18.9360808,81.7970273 L27.2854039,82.4742462 L27.2867782,82.7893435 C27.2881524,83.0859057 27.4042775,112.555398 24.9158343,124.488935 L24.8539925,124.785498 Z" id="Fill-91" fill="#727272" mask="url(#mask-4)"></path>
                    <path d="M4.89951558,83.9619997 L31.3571333,83.4539997 C31.3571333,83.4539997 31.3571333,66.1710159 24.2336511,60.5792403 L10.4965374,60.5792403 C10.4965374,60.5792403 2.86423493,67.6957024 4.89951558,83.9619997" id="Fill-92" fill="#FE8380" mask="url(#mask-4)"></path>
                    <path d="M10.6389452,60.9224492 C9.79171322,61.8001222 3.46324098,68.9117789 5.2030555,83.6125438 L31.0089299,83.1172438 C30.9587694,80.6997816 30.3953224,65.9914654 24.113575,60.9224492 L10.6389452,60.9224492 Z M4.59700636,84.311387 L4.55852705,84.0045276 C3.4975975,75.5250465 5.09380174,69.5519276 6.6195751,66.0343708 C8.282431,62.2003438 10.1816598,60.4027789 10.2620541,60.3282951 L10.3610009,60.2359627 L24.3526964,60.2359627 L24.4461462,60.3094168 C27.4684899,62.6819141 29.6078708,67.3064303 30.8048522,74.0535627 C31.6902199,79.0453492 31.7005268,83.4103735 31.7005268,83.4539654 L31.7005268,83.790687 L4.59700636,84.311387 Z" id="Fill-93" fill="#727272" mask="url(#mask-4)"></path>
                    <polygon id="Fill-94" fill="#FE8380" mask="url(#mask-4)" points="10.4962625 60.5793432 24.2337198 60.5793432 24.2337198 57.0212838 10.4962625 57.0212838"></polygon>
                    <path d="M10.8398278,60.2361 L23.8901545,60.2361 L23.8901545,57.364527 L10.8398278,57.364527 L10.8398278,60.2361 Z M10.1526973,60.9225865 L24.5772851,60.9225865 L24.5772851,56.6780405 L10.1526973,56.6780405 L10.1526973,60.9225865 Z" id="Fill-95" fill="#727272" mask="url(#mask-4)"></path>
                    <path d="M0.533797358,17.3721241 C0.497379439,19.7549186 0.379192987,27.7950484 0.379192987,27.7950484 C0.23592627,36.2988997 0.574681625,44.7591592 0.574681625,47.1090024 C0.574681625,49.6503754 6.17170341,49.1423754 6.17170341,49.1423754 L24.9970187,49.1423754 C24.9970187,49.1423754 27.5411196,49.1423754 27.5411196,45.5836295 L27.2020206,23.4403214 L7.44358204,26.2676159 L7.18900017,26.2676159 L4.64524293,17.1181241" id="Fill-96" fill="#FEC580" mask="url(#mask-4)"></path>
                    <path d="M5.06123175,49.5283868 C3.80927991,49.5283868 1.82381623,49.3739273 0.844655213,48.4801219 C0.437530369,48.1087327 0.231047643,47.647757 0.231047643,47.1088651 C0.231047643,46.4395408 0.202875291,45.2453976 0.167144503,43.7337543 C0.0740383154,39.8032759 -0.0664798795,33.8627651 0.0359025706,27.7894192 C0.0359025706,27.7901057 0.153745458,19.7499759 0.190163376,17.3668381 C0.193255464,17.1770246 0.365725228,17.0301165 0.538882124,17.0287435 C0.728873717,17.0318327 0.880386001,17.1876651 0.877293913,17.3774786 C0.840875995,19.75993 0.723033108,27.8000597 0.723033108,27.8000597 C0.620650658,33.8607057 0.761168852,39.7926354 0.853931475,43.7176219 C0.890005828,45.2337273 0.91817818,46.4316462 0.91817818,47.1088651 C0.91817818,47.4510786 1.04564089,47.7339111 1.30778119,47.9731516 C2.34088196,48.9163841 5.14609237,48.8906408 6.14071383,48.8003678 L24.99695,48.7989949 C25.0849027,48.7979651 27.1974856,48.7365246 27.1974856,45.5838354 L26.8642273,23.835257 L7.44351333,26.6107219 L6.92782186,26.6107219 L4.31432086,17.2099759 C4.2634732,17.0273705 4.370322,16.8382435 4.55309872,16.7871003 C4.73621901,16.73733 4.92552347,16.8433922 4.97602757,17.0263408 L7.44901037,25.9201165 L27.539333,23.0451111 L27.8846161,45.5783435 C27.8846161,49.4408597 25.0258095,49.4854814 24.99695,49.4854814 L6.1716347,49.4854814 C6.12937617,49.4899435 5.68686411,49.5283868 5.06123175,49.5283868" id="Fill-97" fill="#727272" mask="url(#mask-4)"></path>
                    <polygon id="Fill-98" fill="#FFD9CF" mask="url(#mask-4)" points="13.8034218 36.9422405 18.3824597 36.9422405 18.3824597 29.8257784 13.8034218 29.8257784"></polygon>
                    <path d="M14.1469871,36.5989973 L18.0388944,36.5989973 L18.0388944,30.1690216 L14.1469871,30.1690216 L14.1469871,36.5989973 Z M13.4598565,37.2854838 L18.726025,37.2854838 L18.726025,29.4825351 L13.4598565,29.4825351 L13.4598565,37.2854838 Z" id="Fill-99" fill="#727272" mask="url(#mask-4)"></path>
                    <path d="M5.20298678,22.5301776 C6.99639749,27.8401505 11.4727094,31.6048424 16.7151718,31.6048424 C23.5370038,31.6048424 29.0673739,25.2325316 29.0673739,17.3722614 C29.0673739,9.51130459 23.5370038,3.13899378 16.7151718,3.13899378 C9.89333983,3.13899378 4.3629697,9.51130459 4.3629697,17.3722614 C4.3629697,17.3907965 4.36434396,17.4096749 4.36434396,17.4285532" id="Fill-100" fill="#FFD9CF" mask="url(#mask-4)"></path>
                    <path d="M16.7152749,31.9482573 C11.433646,31.9482573 6.78726931,28.294433 4.87738998,22.6398438 L5.52844616,22.4205114 C7.34247078,27.7915816 11.7335785,31.2617708 16.7152749,31.2617708 C23.3368083,31.2617708 28.7239117,25.0308762 28.7239117,17.3720897 C28.7239117,9.71330324 23.3368083,3.48206541 16.7152749,3.48206541 C10.0937415,3.48206541 4.70663804,9.71330324 4.70663804,17.3720897 L4.70766874,17.4283816 L4.0205382,17.4283816 L4.0195075,17.3720897 C4.0195075,9.33470595 9.71478896,2.79557892 16.7152749,2.79557892 C23.7157608,2.79557892 29.4110422,9.33470595 29.4110422,17.3720897 C29.4110422,25.4094735 23.7157608,31.9482573 16.7152749,31.9482573" id="Fill-101" fill="#727272" mask="url(#mask-4)"></path>
                    <path d="M18.1601386,25.3401384 C17.1115774,25.3401384 16.2581613,24.4878654 16.2581613,23.440287 C16.2581613,23.2504735 16.4120785,23.0970438 16.6017265,23.0970438 C16.7917181,23.0970438 16.9452918,23.2504735 16.9452918,23.440287 C16.9452918,24.1092681 17.4901863,24.6536519 18.1601386,24.6536519 C18.8297473,24.6536519 19.3746418,24.1092681 19.3746418,23.440287 C19.3746418,23.2504735 19.5285591,23.0970438 19.7182071,23.0970438 C19.9078551,23.0970438 20.0617724,23.2504735 20.0617724,23.440287 C20.0617724,24.4878654 19.2086998,25.3401384 18.1601386,25.3401384" id="Fill-102" fill="#727272" mask="url(#mask-4)"></path>
                    <path d="M13.8035249,19.4942941 C13.6138768,19.4942941 13.4599596,19.3408643 13.4599596,19.1510508 C13.4599596,18.70964 12.9865267,18.3506076 12.4041835,18.3506076 C11.822184,18.3506076 11.348751,18.70964 11.348751,19.1510508 C11.348751,19.3408643 11.1948338,19.4942941 11.0051858,19.4942941 C10.8155377,19.4942941 10.6616205,19.3408643 10.6616205,19.1510508 C10.6616205,18.3310427 11.4432315,17.6641211 12.4041835,17.6641211 C13.3654791,17.6641211 14.1470901,18.3310427 14.1470901,19.1510508 C14.1470901,19.3408643 13.9931729,19.4942941 13.8035249,19.4942941" id="Fill-103" fill="#727272" mask="url(#mask-4)"></path>
                    <path d="M24.9970875,19.4942941 C24.8074394,19.4942941 24.6535222,19.3408643 24.6535222,19.1510508 C24.6535222,18.70964 24.1800892,18.3506076 23.5977461,18.3506076 C23.0157465,18.3506076 22.5423136,18.70964 22.5423136,19.1510508 C22.5423136,19.3408643 22.3883964,19.4942941 22.1987483,19.4942941 C22.0091003,19.4942941 21.8551831,19.3408643 21.8551831,19.1510508 C21.8551831,18.3310427 22.6367941,17.6641211 23.5977461,17.6641211 C24.5590417,17.6641211 25.3406527,18.3310427 25.3406527,19.1510508 C25.3406527,19.3408643 25.1867355,19.4942941 24.9970875,19.4942941" id="Fill-104" fill="#727272" mask="url(#mask-4)"></path>
                    <path d="M11.2735789,18.6411973 C10.8956571,18.6411973 10.1958147,18.5739216 9.74471349,18.1229 C9.61037947,17.9890351 9.61037947,17.7717622 9.74471349,17.6375541 C9.87870395,17.5036892 10.0961808,17.5036892 10.2305148,17.6375541 C10.550374,17.9574568 11.2251362,17.9684405 11.4580735,17.9471595 C11.647378,17.9330865 11.8146942,18.0666081 11.8332468,18.2550486 C11.8517993,18.4434892 11.7147167,18.6109919 11.5260994,18.6302135 C11.4955221,18.6333027 11.4037902,18.6411973 11.2735789,18.6411973" id="Fill-105" fill="#727272" mask="url(#mask-4)"></path>
                    <path d="M23.3112814,74.2188 L23.3112814,74.2188 C24.2316927,74.2610189 25.0569365,73.6558811 25.2929659,72.7661946 L28.4029187,61.0324243 C29.731142,56.0217595 29.7912659,50.7601838 28.5788241,45.7206865 L26.2941151,36.2258919 C25.938525,34.7478865 24.3897328,33.8932108 22.9477893,34.3799297 C21.6429284,34.8199676 20.911478,36.2032378 21.2825285,37.5281568 L23.6995101,46.1552324 C25.1675645,51.395527 25.2417746,56.9275784 23.9138949,62.2049432 L21.5027538,71.7889811 C21.2011035,72.9879297 22.0751336,74.1621649 23.3112814,74.2188" id="Fill-106" fill="#FFD9CF" mask="url(#mask-4)"></path>
                    <path d="M23.7811756,34.5849146 C23.5389621,34.5849146 23.2957179,34.6243876 23.0579707,34.7050497 C21.9259232,35.0867362 21.2913581,36.2863714 21.6132788,37.435893 L24.030604,46.0626254 C25.512401,51.3516605 25.5869547,56.9623146 24.2470501,62.2887632 L21.8359091,71.8728011 C21.717379,72.3437308 21.8159823,72.8373146 22.1059514,73.2272389 C22.396264,73.6171632 22.841181,73.8536578 23.3269823,73.8759686 C24.0869487,73.9078903 24.7675515,73.4067551 24.9606352,72.6780497 L28.070588,60.9446227 C29.3799152,56.0053524 29.4400391,50.7684903 28.2447756,45.8007308 L25.9600665,36.3062795 C25.8109592,35.6860389 25.4210126,35.1749497 24.8620319,34.8663741 C24.5232766,34.6793065 24.1539439,34.5849146 23.7811756,34.5849146 M23.3998182,74.5641714 C23.3651181,74.5641714 23.330418,74.5634849 23.2953743,74.5617686 C22.6027467,74.529847 21.9681817,74.1931254 21.5545291,73.6367281 C21.1408765,73.0810173 21.0007019,72.3770254 21.169736,71.7052984 L23.5808771,62.1212605 C24.8915786,56.9108281 24.8183992,51.4220254 23.3688973,46.2479768 L20.9519156,37.6209011 C20.5313917,36.1198984 21.3597276,34.552993 22.8377454,34.0546038 C23.6166078,33.7916795 24.475521,33.8692524 25.1942596,34.2653551 C25.9136852,34.6624876 26.436248,35.3479443 26.628301,36.1459849 L28.9126665,45.6404362 C30.1347281,50.71872 30.0732299,56.0715984 28.7350432,61.1203632 L25.6250904,72.8537903 C25.3584838,73.8591497 24.4325754,74.5641714 23.3998182,74.5641714" id="Fill-107" fill="#727272" mask="url(#mask-4)"></path>
                    <path d="M24.9606695,18.6411973 C24.8304583,18.6411973 24.7387264,18.6333027 24.7081491,18.6302135 C24.5191882,18.6109919 24.3817621,18.4428027 24.4006581,18.2540189 C24.4195542,18.0659216 24.584122,17.9279378 24.776175,17.9471595 C25.0084251,17.9680973 25.6838744,17.9574568 26.0037337,17.6375541 C26.1377241,17.5036892 26.3555445,17.5036892 26.489535,17.6375541 C26.623869,17.7717622 26.623869,17.9890351 26.489535,18.1229 C26.0384338,18.5739216 25.3385913,18.6411973 24.9606695,18.6411973" id="Fill-108" fill="#727272" mask="url(#mask-4)"></path>
                    <path d="M14.0578319,21.9469386 C14.0578319,22.5084846 13.2607605,22.9636251 12.2771331,22.9636251 C11.2935057,22.9636251 10.4964343,22.5084846 10.4964343,21.9469386 C10.4964343,21.3853927 11.2935057,20.9302522 12.2771331,20.9302522 C13.2607605,20.9302522 14.0578319,21.3853927 14.0578319,21.9469386" id="Fill-109" fill="#FF9494" mask="url(#mask-4)"></path>
                    <path d="M25.5058733,21.6928357 C25.5058733,22.2543816 24.7084583,22.7095222 23.7248309,22.7095222 C22.7415471,22.7095222 21.9441321,22.2543816 21.9441321,21.6928357 C21.9441321,21.1312897 22.7415471,20.6761492 23.7248309,20.6761492 C24.7084583,20.6761492 25.5058733,21.1312897 25.5058733,21.6928357" id="Fill-110" fill="#FF9494" mask="url(#mask-4)"></path>
                    <path d="M9.47875962,35.1631422 L13.5489774,33.6384557 L17.1107185,36.1798286 L19.1459991,34.1464557 L22.1985766,34.6551422 C22.1985766,34.6551422 24.4884391,35.4174854 24.7426774,37.1965151 C24.9034659,38.3216665 24.7426774,46.3463503 24.7426774,47.3630368 C24.7426774,49.9044097 24.2338572,57.0212151 24.2338572,57.0212151 L11.5775998,57.2117151 L9.47875962,35.1631422 Z" id="Fill-111" fill="#FE8380" mask="url(#mask-4)"></path>
                    <path d="M9.84565297,35.3923943 L11.8895228,56.8639754 L23.9132765,56.6823997 C24.010849,55.2792214 24.3990777,49.5597592 24.3990777,47.3630024 C24.3990777,47.1385214 24.4069797,46.5728565 24.4172867,45.8156619 C24.4519868,43.3099862 24.5241355,38.0961214 24.4025134,37.2448781 C24.1943128,35.7888403 22.3414654,35.0714619 22.1126509,34.988397 L19.2638077,34.5140349 L17.1477892,36.62807 L13.4980953,34.0238835 L9.84565297,35.3923943 Z M11.2656082,57.5597295 L9.11179756,34.9338214 L13.5997907,33.2529592 L17.0735791,35.7315186 L19.0281219,33.7788078 L22.3074524,34.32937 C22.4091477,34.3633511 24.8017362,35.181643 25.0827726,37.1477403 C25.2119532,38.051843 25.1418659,43.1085024 25.1044172,45.8252727 C25.0937667,46.5780051 25.0862083,47.1398943 25.0862083,47.3630024 C25.0862083,49.8872132 24.5815109,56.9741565 24.5763574,57.0455511 L24.5540257,57.3596186 L11.2656082,57.5597295 Z" id="Fill-112" fill="#727272" mask="url(#mask-4)"></path>
                    <path d="M21.0333062,75.2230268 L21.0333062,75.2230268 C20.1249197,75.5765673 19.092506,75.2491132 18.5544828,74.4369997 L11.4608907,63.7264376 C8.43133219,59.1530646 6.58776095,53.898697 6.09543192,48.4366673 L5.16814927,38.1458916 C5.02385185,36.5436322 6.28714134,35.1631078 7.89743176,35.1631078 C9.3541485,35.1631078 10.5566269,36.3023322 10.633242,37.7563105 L11.1341602,47.2219295 C11.4378719,52.971597 13.238841,58.5420916 16.3580701,63.3835376 L22.0227742,72.17537 C22.7315494,73.2751214 22.2533065,74.7479781 21.0333062,75.2230268" id="Fill-113" fill="#FFD9CF" mask="url(#mask-4)"></path>
                    <path d="M20.9085233,74.9032614 L21.0332375,75.2231641 L20.9085233,74.9032614 C21.3936375,74.7144776 21.7640008,74.3224938 21.9247894,73.827537 C22.0852344,73.3329235 22.0158342,72.7984938 21.7341107,72.3612019 L16.069063,63.5690262 C12.9226922,58.6860478 11.09733,53.0393532 10.7908697,47.2399154 L10.2902951,37.7742965 C10.2229563,36.5025803 9.17199019,35.5064884 7.89736305,35.5064884 C7.21607312,35.5064884 6.58803581,35.7827992 6.12834548,36.2853073 C5.66899871,36.7874722 5.44946051,37.4375749 5.51061512,38.115137 L6.43789778,48.4059127 C6.92335551,53.7938019 8.7593683,59.0258586 11.7473554,63.5371046 L18.8409475,74.2476668 C19.2865517,74.9200803 20.1561154,75.1953614 20.9085233,74.9032614 M20.2904494,75.7054208 C19.4964701,75.7054208 18.7237918,75.3144668 18.2678807,74.6262641 L11.1742886,63.9157019 C8.12377256,59.3100641 6.24928045,53.9681695 5.75351577,48.4673532 L4.82588954,38.1769208 C4.74858736,37.3174397 5.03855645,36.4589884 5.62124314,35.8222722 C6.20392984,35.1852127 7.03363996,34.8200019 7.89736305,34.8200019 C9.53754364,34.8200019 10.8901601,36.1016722 10.976395,37.7382559 L11.4769696,47.2038749 C11.7772456,52.8842073 13.5651593,58.4145424 16.6469397,63.197637 L22.3116439,71.9898127 C22.7053697,72.6007857 22.8025987,73.3480262 22.5782505,74.0393181 C22.3539024,74.7309532 21.8361496,75.2791127 21.1582953,75.5427235 C20.8758846,75.6529046 20.5817928,75.7054208 20.2904494,75.7054208" id="Fill-114" fill="#727272" mask="url(#mask-4)"></path>
                    <path d="M4.64517421,17.1180554 C4.64517421,17.1180554 14.68209,15.4969176 14.4068942,7.55152297 C14.3893724,7.04489595 15.0407721,6.83792027 15.3056609,7.27040676 C16.4531689,9.14314189 18.2111924,11.4408122 20.4179121,12.5429662 C24.4881299,14.5763392 28.8682435,15.5930257 28.9678774,17.1180554 C29.0671678,18.6427419 30.8341239,10.9897905 28.5586912,6.4428473 C27.0322307,3.39347432 23.4917906,0.343414865 17.3649912,0.343414865 C12.2771331,0.343414865 9.39084127,0.570985135 6.6801113,2.37678784 C2.1010734,5.42650405 0.574612912,11.5262797 0.574612912,14.0679959 C0.574612912,14.511123 0.559152475,15.6959986 0.533728645,17.3720554" id="Fill-115" fill="#FEC580" mask="url(#mask-4)"></path>
                    <path d="M0.53396914,17.7153673 L0.528472096,17.7153673 C0.338824068,17.7122781 0.187311784,17.5564457 0.190403872,17.3666322 C0.217889093,15.5584268 0.231288139,14.47927 0.231288139,14.0680646 C0.231288139,11.5205132 1.76084071,5.24053486 6.48967307,2.09093486 C9.17532277,0.302294324 12.0152333,0.00024027027 17.3652316,0.00024027027 C24.9040843,0.00024027027 27.9195567,4.39855919 28.866079,6.28948622 C30.9126973,10.3792295 29.8156934,16.9540538 29.3226773,17.5197186 C29.2151413,17.642943 29.0574449,17.6879078 28.9124603,17.6398538 C28.6516943,17.5516403 28.6331418,17.2636592 28.6248962,17.1404349 C28.5730178,16.3451403 26.5167797,15.5124322 24.3399502,14.6313268 C23.0790656,14.1205808 21.6501777,13.5422159 20.2642354,12.8498943 C17.9503233,11.6941943 16.1311452,9.27501595 15.0128403,7.44964838 C14.9654282,7.37207541 14.9015251,7.37207541 14.8558309,7.38546189 C14.8228487,7.39541595 14.7465772,7.43008351 14.7503564,7.53957811 C15.032767,15.6929781 4.80345473,17.4400862 4.70004159,17.4569051 C4.51073712,17.4871105 4.33620597,17.3597673 4.30597222,17.173043 C4.27573848,16.9859754 4.40285763,16.8095484 4.5901007,16.7789997 C4.68767324,16.7635538 14.3250226,15.1104943 14.0635694,7.56326189 C14.0501704,7.1743673 14.2892918,6.83901865 14.6582809,6.72780784 C15.0210858,6.61968622 15.3990076,6.76522135 15.5989626,7.09095919 C16.6705427,8.84047 18.4031423,11.1528997 20.5713827,12.2358322 C21.9332755,12.9164835 23.3487644,13.4890132 24.5979677,13.9949538 C26.7040228,14.84757 28.3524489,15.5148349 29.0072843,16.3526916 C29.3937953,14.506043 29.8308103,9.75315378 28.2514407,6.59634568 C27.3619503,4.81971865 24.5206655,0.686726757 17.3652316,0.686726757 C12.0561176,0.686726757 9.42440759,0.960978108 6.87068695,2.66243486 C2.37341759,5.65791865 0.918418676,11.6403051 0.918418676,14.0680646 C0.918418676,14.4827024 0.90501963,15.5649484 0.877534409,17.3776159 C0.874442321,17.56537 0.721212212,17.7153673 0.53396914,17.7153673" id="Fill-116" fill="#727272" mask="url(#mask-4)"></path>
                    <path d="M4.36420654,17.4284503 C4.20101303,17.3917232 4.03197892,17.3721584 3.85882203,17.3721584 C2.46669556,17.3721584 1.33774009,18.6236232 1.33774009,20.1675314 C1.33774009,21.7117827 2.46669556,22.9635908 3.85882203,22.9635908 C4.35355601,22.9635908 4.81358991,22.802953 5.20284936,22.5300746" id="Fill-117" fill="#FFD9CF" mask="url(#mask-4)"></path>
                    <path d="M3.85875331,23.3068341 C2.27938377,23.3068341 0.99444967,21.898507 0.99444967,20.1675314 C0.99444967,18.4368989 2.27938377,17.0289151 3.85875331,17.0289151 C4.05424195,17.0289151 4.24973059,17.0505395 4.44006575,17.0934449 C4.62490386,17.1356638 4.74102892,17.3192989 4.69945753,17.504307 C4.65754256,17.6886286 4.47236088,17.8039584 4.2882099,17.7634557 C4.1476917,17.7315341 4.00339429,17.7154016 3.85875331,17.7154016 C2.6579927,17.7154016 1.68158021,18.8154962 1.68158021,20.1675314 C1.68158021,21.520253 2.6579927,22.6203476 3.85875331,22.6203476 C4.2624425,22.6203476 4.65926039,22.4919746 5.00557418,22.2493016 C5.16120925,22.1401503 5.37525041,22.177907 5.4841606,22.333053 C5.59307079,22.4881989 5.55562217,22.7023827 5.40033067,22.8111908 C4.93754826,23.1355557 4.40433496,23.3068341 3.85875331,23.3068341" id="Fill-118" fill="#727272" mask="url(#mask-4)"></path>
                    <path d="M17.1942049,48.2033649 C15.4550775,49.6264514 12.8907063,49.3721081 11.4659411,47.6349541" id="Fill-119" fill="#FE8380" mask="url(#mask-4)"></path>
                    <path d="M14.6186335,49.4657105 C13.3402271,49.4657105 12.0717841,48.9151484 11.200159,47.8524673 C11.0799112,47.7059024 11.1015558,47.4893159 11.2482582,47.3695241 C11.3953041,47.2493889 11.6117502,47.27067 11.7316545,47.4172349 C13.0341104,49.0054214 15.3868454,49.2381403 16.9765219,47.9379349 C17.1232243,47.818143 17.3396704,47.8394241 17.4599182,47.9856457 C17.5801661,48.1325538 17.558865,48.348797 17.4118191,48.4689322 C16.5931031,49.1392862 15.602948,49.4657105 14.6186335,49.4657105" id="Fill-120" fill="#727272" mask="url(#mask-4)"></path>
                    <path d="M21.4850946,121.85753 L21.4229093,126.432276 L31.7240267,126.599778 C31.7240267,126.599778 31.733303,122.934284 25.3845604,122.353859 L21.4850946,121.85753 Z" id="Fill-121" fill="#FFFFFF" mask="url(#mask-4)"></path>
                    <path d="M21.7711126,126.094765 L31.3345955,126.250254 C31.147696,125.373954 30.1960202,123.138411 25.3531241,122.69597 L21.8233346,122.246665 L21.7711126,126.094765 Z M32.0667331,126.948754 L21.0747059,126.769924 L21.1468546,121.468189 L25.4280214,122.013259 C32.0017992,122.613935 32.0677637,126.438351 32.0674202,126.601048 L32.0667331,126.948754 Z" id="Fill-122" fill="#727272" mask="url(#mask-4)"></path>
                    <path d="M16.1819585,126.406841 L10.9161336,126.406841 C10.2626725,126.406841 9.73289485,125.87756 9.73289485,125.225055 C9.73289485,123.35129 11.2535147,121.832095 13.1290375,121.832095 L13.9690546,121.832095 C15.8445774,121.832095 17.3651973,123.35129 17.3651973,125.225055 C17.3651973,125.87756 16.8354196,126.406841 16.1819585,126.406841" id="Fill-123" fill="#FFFFFF" mask="url(#mask-4)"></path>
                    <path d="M13.1291406,122.175304 C11.4460143,122.175304 10.0765632,123.543129 10.0765632,125.225021 C10.0765632,125.687369 10.4531107,126.063564 10.9162367,126.063564 L16.1820616,126.063564 C16.644844,126.063564 17.0217351,125.687369 17.0217351,125.225021 C17.0217351,123.543129 15.6522839,122.175304 13.9691577,122.175304 L13.1291406,122.175304 Z M16.1820616,126.75005 L10.9162367,126.75005 C10.0745018,126.75005 9.38943265,126.065966 9.38943265,125.225021 C9.38943265,123.164875 11.0670619,121.488818 13.1291406,121.488818 L13.9691577,121.488818 C16.0312364,121.488818 17.7088656,123.164875 17.7088656,125.225021 C17.7088656,126.065966 17.0237965,126.75005 16.1820616,126.75005 L16.1820616,126.75005 Z" id="Fill-124" fill="#727272" mask="url(#mask-4)"></path>
                    <path d="M22.198714,39.7382657 C24.4466615,39.7382657 26.2689317,41.5588278 26.2689317,43.8050116 C26.2689317,46.0508522 24.4466615,47.8710711 22.198714,47.8710711" id="Fill-125" fill="#FE8380" mask="url(#mask-4)"></path>
                    <path d="M22.198714,48.2144173 C22.009066,48.2144173 21.8551487,48.0609876 21.8551487,47.8711741 C21.8551487,47.6813605 22.009066,47.5279308 22.198714,47.5279308 C24.2535779,47.5279308 25.9253665,45.8577092 25.9253665,43.8047714 C25.9253665,41.7518335 24.2535779,40.0816119 22.198714,40.0816119 C22.009066,40.0816119 21.8551487,39.9278389 21.8551487,39.7383686 C21.8551487,39.5485551 22.009066,39.3951254 22.198714,39.3951254 C24.6325303,39.3951254 26.612497,41.3732362 26.612497,43.8047714 C26.612497,46.2363065 24.6325303,48.2144173 22.198714,48.2144173" id="Fill-126" fill="#727272" mask="url(#mask-4)"></path>
                </g>
            </g>
        </g>
    </g>
</svg>