<?xml version="1.0" encoding="UTF-8"?>
<svg width="143px" height="121px" viewBox="0 0 143 121" version="1.1" xmlns="http://www.w3.org/2000/svg" xmlns:xlink="http://www.w3.org/1999/xlink">
    <!-- Generator: Sketch 40.2 (33826) - http://www.bohemiancoding.com/sketch -->
    <title>5</title>
    <desc>Created with Sketch.</desc>
    <defs>
        <rect id="path-1" x="0" y="0" width="148" height="124"></rect>
    </defs>
    <g id="Версия-3" stroke="none" stroke-width="1" fill="none" fill-rule="evenodd">
        <g id="Главная-Helsi_№6-Copy-2" transform="translate(-1157.000000, -637.000000)">
            <g id="5" transform="translate(1157.000000, 634.000000)">
                <g id="4-05">
                    <g id="Слой_1">
                        <mask id="mask-2" fill="white">
                            <use xlink:href="#path-1"></use>
                        </mask>
                        <g id="Mask"></g>
                        <g mask="url(#mask-2)">
                            <g transform="translate(-7.893333, 3.936508)">
                                <path d="M39.9405303,56.9615205 C39.9405303,56.9615205 45.4416334,44.1374351 49.501271,41.5550106 C53.5609086,38.9725861 82.0666246,19.7804767 84.3023671,21.9814067 C86.5086918,24.1823366 92.0686303,19.3989821 92.8040719,21.9814067 C93.5395134,24.5638312 95.7752559,31.2253126 95.0398143,36.7423104 C94.3043727,42.2593082 90.9801767,50.0359275 90.9801767,50.0359275 L94.3043727,55.582271 C94.3043727,55.582271 96.8931271,58.1646955 90.9801767,59.6319822 C85.0672263,61.0992688 75.0652207,65.9119691 75.0652207,65.9119691 C75.0652207,65.9119691 39.9111126,67.9074789 39.9111126,65.9119691 C39.881695,62.5959012 39.9405303,56.9615205 39.9405303,56.9615205 Z" id="Shape" stroke="#5F5F5F" stroke-width="1" fill="#FFD9CF" fill-rule="evenodd"></path>
                                <path d="M88.0089927,60.0134767 C88.0089927,60.0134767 83.5669255,63.7110391 80.5957414,67.0271069 C77.6245574,70.3431748 76.1536742,71.8398072 72.4470486,74.7743805 C68.740423,77.7382995 62.092031,80.6728728 59.8562886,82.521654 L35.0571981,125.454461 L0.932708333,118.9984 C0.932708333,118.9984 26.937923,82.521654 32.8508734,75.155875 C34.5865155,72.9842907 40.6171366,65.9119691 39.881695,57.0495577" id="Shape" stroke="#5F5F5F" stroke-width="1" fill="#FFD9CF" fill-rule="evenodd"></path>
                                <path d="M95.0103966,31.1079296 C96.9813801,32.4284876 101.89413,38.0628684 92.7158189,43.051643 C89.0974462,45.0178071 87.1264628,37.4759537 91.0684297,35.1576408" id="Shape" stroke="#5F5F5F" stroke-width="1" fill="#FFD9CF" fill-rule="evenodd"></path>
                                <path d="M94.2455374,42.2593082 C96.2165208,43.3157546 101.364612,48.1871463 93.1570838,53.7334898 C89.9211408,55.9050741 87.3618041,48.9794811 90.8919237,46.455748" id="Shape" stroke="#5F5F5F" stroke-width="1" fill="#FFD9CF" fill-rule="evenodd"></path>
                                <path d="M93.5395134,53.6747984 C95.2457379,54.5845161 99.6583875,58.7516102 92.5981482,63.505619 C89.8328878,65.3837459 87.6559807,59.4265621 90.6565824,57.2549778" id="Shape" stroke="#5F5F5F" stroke-width="1" fill="#FFD9CF" fill-rule="evenodd"></path>
                                <path d="M52.0900254,40.0583782 C53.9433382,38.9432404 75.4182326,23.8008421 84.3023671,21.5999121 C93.1865015,19.3989821 93.5689311,18.6359931 95.7752559,20.1326255 C97.9815807,21.5999121 103.541519,26.6767239 93.1865015,32.3111047 C89.1268639,34.5120347 86.8911215,26.0311178 91.3331887,23.4486933" id="Shape" stroke="#5F5F5F" stroke-width="1" fill="#FFD9CF" fill-rule="evenodd"></path>
                                <path d="M39.528683,62.5959012 C39.528683,54.7605905 37.6753702,45.6047218 43.5883206,37.8574483 C47.5597052,32.6632535 49.148259,16.8165576 49.148259,16.8165576 C49.148259,16.8165576 52.8548846,13.5004898 56.1790806,16.8165576 C59.8857063,20.51412 56.6791809,30.9025095 55.443639,33.4262426 C54.8847034,34.5413804 53.5903262,39.3247349 53.5903262,39.3247349" id="Shape" stroke="#5F5F5F" stroke-width="1" fill="#FFD9CF" fill-rule="evenodd"></path>
                                <path d="M129.193722,101.361615 L62.8274726,101.361615 C59.2385177,101.361615 56.326169,98.456387 56.326169,94.8762076 L56.326169,6.4868596 C56.326169,2.90668016 59.2385177,0.00145258595 62.8274726,0.00145258595 L129.164304,0.00145258595 C132.753259,0.00145258595 135.665608,2.90668016 135.665608,6.4868596 L135.665608,94.8468619 C135.695025,98.4270413 132.782677,101.361615 129.193722,101.361615 Z" id="Shape" stroke="#5F5F5F" stroke-width="1" fill="#D7DAE0" fill-rule="evenodd"></path>
                                <path d="M131.194123,101.508343 L60.7682362,101.508343 C58.2971524,101.508343 56.2673336,99.4834877 56.2673336,97.0184461 L56.2673336,4.49134975 C56.2673336,2.02630817 58.2971524,0.00145258595 60.7682362,0.00145258595 L131.194123,0.00145258595 C133.665207,0.00145258595 135.695025,2.02630817 135.695025,4.49134975 L135.695025,96.9891004 C135.695025,99.4834877 133.694624,101.508343 131.194123,101.508343 Z M60.7682362,2.6719143 C59.7680356,2.6719143 58.944341,3.49359482 58.944341,4.49134975 L58.944341,96.9891004 C58.944341,97.9868553 59.7680356,98.8085358 60.7682362,98.8085358 L131.194123,98.8085358 C132.194323,98.8085358 133.018018,97.9868553 133.018018,96.9891004 L133.018018,4.49134975 C133.018018,3.49359482 132.194323,2.6719143 131.194123,2.6719143 L60.7682362,2.6719143 L60.7682362,2.6719143 Z" id="Shape" stroke="none" fill="#5F5F5F" fill-rule="evenodd"></path>
                                <path d="M129.458481,9.1573213 C129.458481,7.54330599 128.311192,6.25209373 126.869726,6.25209373 L65.0632151,6.25209373 C63.6511672,6.25209373 62.4744607,7.57265172 62.4744607,9.1573213 L62.4744607,83.9889406 L129.458481,83.9889406 L129.458481,9.1573213 Z" id="Shape" stroke="#5F5F5F" stroke-width="1" fill="#A6D5FF" fill-rule="evenodd"></path>
                                <path d="M131.194123,101.332269 L60.7682362,101.332269 C58.2971524,101.332269 56.2673336,99.3074133 56.2673336,96.8423717 L56.2673336,83.9889406 L135.695025,83.9889406 L135.695025,96.8423717 C135.695025,99.3074133 133.694624,101.332269 131.194123,101.332269 Z M58.944341,86.6300566 L58.944341,96.813026 C58.944341,97.8107809 59.7680356,98.6324614 60.7682362,98.6324614 L131.194123,98.6324614 C132.194323,98.6324614 133.018018,97.8107809 133.018018,96.813026 L133.018018,86.6300566 L58.944341,86.6300566 Z" id="Shape" stroke="none" fill="#5F5F5F" fill-rule="evenodd"></path>
                                <ellipse id="Oval" stroke="none" fill="none" cx="95.9811795" cy="92.6459319" rx="4.64799085" ry="4.63662583"></ellipse>
                                <path d="M95.9811795,97.6053608 C93.2159191,97.6053608 90.9801767,95.3750851 90.9801767,92.6165862 C90.9801767,89.8580873 93.2159191,87.6278115 95.9811795,87.6278115 C98.7464399,87.6278115 100.982182,89.8580873 100.982182,92.6165862 C100.982182,95.3750851 98.7464399,97.6053608 95.9811795,97.6053608 Z M95.9811795,88.3321091 C93.5983488,88.3321091 91.656783,90.2689275 91.656783,92.6459319 C91.656783,95.0229363 93.5983488,96.9597547 95.9811795,96.9597547 C98.3640103,96.9597547 100.305576,95.0229363 100.305576,92.6459319 C100.305576,90.2689275 98.3640103,88.3321091 95.9811795,88.3321091 Z" id="Shape" stroke="none" fill="#5F5F5F" fill-rule="evenodd"></path>
                                <path d="M89.2151169,20.6608487 L65.151468,20.6608487 L65.151468,14.5569362 C65.151468,13.9113301 65.680986,13.4124526 66.2987569,13.4124526 L88.067828,13.4124526 C88.7150166,13.4124526 89.2151169,13.9406758 89.2151169,14.5569362 L89.2151169,20.6608487 Z" id="Shape" stroke="none" fill="#FFFFFF" fill-rule="evenodd"></path>
                                <polygon id="Shape" stroke="none" fill="#435363" fill-rule="evenodd" points="70.7702418 15.4959996 70.7702418 18.2544986 70.2701415 18.2544986 70.2701415 15.9068399 69.1522703 15.9068399 69.1522703 18.2544986 68.65217 18.2544986 68.65217 15.4959996"></polygon>
                                <path d="M71.3291774,16.9045948 C71.3291774,16.6404832 71.3291774,16.4350631 71.2997597,16.229643 L71.7410247,16.229643 L71.7704424,16.5231003 L71.7704424,16.5231003 C71.9175307,16.2883344 72.152872,16.1709515 72.4470486,16.1709515 C72.9177312,16.1709515 73.3001609,16.552446 73.3001609,17.1980522 C73.3001609,17.9316955 72.8294782,18.2838443 72.3882133,18.2838443 C72.1234543,18.2838443 71.9175307,18.1664614 71.8292777,18.0197327 L71.8292777,18.0197327 L71.8292777,19.0761791 L71.3291774,19.0761791 L71.3291774,16.9045948 L71.3291774,16.9045948 Z M71.8586954,17.4034723 L71.8586954,17.550201 C71.9175307,17.7556211 72.0940367,17.9023498 72.2999603,17.9023498 C72.6235546,17.9023498 72.8000606,17.6382382 72.8000606,17.2273979 C72.8000606,16.8752491 72.6235546,16.5817918 72.2999603,16.5817918 C72.0940367,16.5817918 71.888113,16.7285204 71.8292777,16.9632863 C71.8292777,16.992632 71.79986,17.0513235 71.79986,17.0806692 L71.79986,17.4034723 L71.8586954,17.4034723 Z" id="Shape" stroke="none" fill="#435363" fill-rule="evenodd"></path>
                                <path d="M75.653574,17.2273979 C75.653574,17.9610412 75.124056,18.2838443 74.6239557,18.2838443 C74.0650201,18.2838443 73.6237552,17.9023498 73.6237552,17.2567436 C73.6237552,16.6111375 74.0650201,16.2002972 74.6533734,16.2002972 C75.2417267,16.2002972 75.653574,16.6111375 75.653574,17.2273979 Z M74.1532731,17.2567436 C74.1532731,17.6382382 74.3591968,17.9316955 74.6533734,17.9316955 C74.94755,17.9316955 75.1534737,17.6382382 75.1534737,17.2567436 C75.1534737,16.9339406 75.0063854,16.5817918 74.6533734,16.5817918 C74.3003614,16.5817918 74.1532731,16.9339406 74.1532731,17.2567436 Z" id="Shape" stroke="none" fill="#435363" fill-rule="evenodd"></path>
                                <path d="M77.4480514,15.349271 L77.4480514,16.229643 C78.0364047,16.2883344 78.4776697,16.6404832 78.4776697,17.2567436 C78.4776697,17.9023498 78.006987,18.2544986 77.4480514,18.2838443 L77.4480514,19.0468334 L76.9773688,19.0468334 L76.9773688,18.2838443 C76.3890155,18.2544986 75.9477506,17.9023498 75.9477506,17.2567436 C75.9477506,16.6111375 76.4184332,16.2589887 76.9773688,16.2002972 L76.9773688,15.3199253 L77.4480514,15.3199253 L77.4480514,15.349271 Z M76.9773688,16.552446 C76.6243569,16.6111375 76.4478509,16.9045948 76.4478509,17.2567436 C76.4478509,17.6088924 76.6537745,17.9023498 76.9773688,17.9610412 L76.9773688,16.552446 Z M77.4480514,17.9610412 C77.8010634,17.9023498 77.9775694,17.6088924 77.9775694,17.2567436 C77.9775694,16.9045948 77.8010634,16.6404832 77.4480514,16.552446 L77.4480514,17.9610412 Z" id="Shape" stroke="none" fill="#435363" fill-rule="evenodd"></path>
                                <path d="M79.4190349,15.7014198 C79.4190349,15.8481484 79.3013642,15.9655314 79.1248583,15.9655314 C78.9483523,15.9655314 78.8306816,15.8481484 78.8306816,15.7014198 C78.8306816,15.5546911 78.9483523,15.4373082 79.1248583,15.4373082 C79.3013642,15.4079624 79.4190349,15.5253454 79.4190349,15.7014198 Z M78.889517,18.2544986 L78.889517,16.2589887 L79.3896172,16.2589887 L79.3896172,18.2544986 L78.889517,18.2544986 Z" id="Shape" stroke="none" fill="#435363" fill-rule="evenodd"></path>
                                <path d="M81.595942,16.2589887 L81.595942,18.2544986 L81.0958417,18.2544986 L81.0958417,16.6404832 L80.5369061,16.6404832 L80.5369061,17.0806692 C80.5369061,17.6088924 80.4780708,17.9610412 80.2427295,18.1371156 C80.1250588,18.2544986 79.9779705,18.31319 79.7426292,18.31319 L79.6837939,17.9316955 C79.7720469,17.9316955 79.8602999,17.873004 79.8897175,17.8436583 C80.0368058,17.7262754 80.0662235,17.4915095 80.0662235,17.110015 L80.0662235,16.3176802 L81.595942,16.3176802 L81.595942,16.2589887 Z" id="Shape" stroke="none" fill="#435363" fill-rule="evenodd"></path>
                                <path d="M82.6255602,16.2589887 L82.6255602,16.9045948 C82.7138132,16.8752491 82.8314839,16.8752491 82.9491545,16.8752491 C83.4198372,16.8752491 83.8905198,17.0219778 83.8905198,17.550201 C83.8905198,17.7849668 83.8022668,17.9316955 83.6551785,18.0490784 C83.4198372,18.2251528 83.0374075,18.2838443 82.7432309,18.2838443 C82.5373072,18.2838443 82.3019659,18.2838443 82.12546,18.2544986 L82.12546,16.2589887 L82.6255602,16.2589887 L82.6255602,16.2589887 Z M82.6255602,17.9023498 L82.8609015,17.9023498 C83.0962429,17.9023498 83.3904195,17.8143126 83.3904195,17.550201 C83.3904195,17.2567436 83.0668252,17.1980522 82.8609015,17.1980522 C82.7726486,17.1980522 82.7138132,17.1980522 82.6255602,17.2273979 L82.6255602,17.9023498 Z" id="Shape" stroke="none" fill="#435363" fill-rule="evenodd"></path>
                                <path d="M66.8282749,77.1513848 L123.986795,77.1513848 C124.486896,77.1513848 124.898743,76.7405446 124.898743,76.2416671 L124.898743,20.6608487 C124.898743,20.1619712 124.486896,19.7511309 123.986795,19.7511309 L66.8282749,19.7511309 C66.3281746,19.7511309 65.9163273,20.1619712 65.9163273,20.6608487 L65.9163273,76.2416671 C65.9163273,76.7698903 66.3281746,77.1513848 66.8282749,77.1513848 Z" id="Shape" stroke="#00193D" stroke-width="1" fill="#2A90FF" fill-rule="evenodd"></path>
                                <path d="M65.0043797,75.0384921 L65.0043797,21.9227152 C65.0043797,20.073934 66.1516686,18.6066474 67.5931341,18.6066474 L123.221936,18.6066474 C124.663402,18.6066474 125.81069,20.1032797 125.81069,21.9227152 L125.81069,75.0384921 C125.81069,76.8872732 124.663402,78.3545599 123.221936,78.3545599 L67.5931341,78.3545599 C66.1516686,78.3545599 65.0043797,76.8579275 65.0043797,75.0384921 Z M67.5931341,20.9836517 C67.1812868,20.9836517 66.8576925,21.394492 66.8576925,21.9227152 L66.8576925,75.0384921 C66.8576925,75.5667153 67.1812868,75.9775555 67.5931341,75.9775555 L123.221936,75.9775555 C123.633783,75.9775555 123.957378,75.5667153 123.957378,75.0384921 L123.957378,21.9227152 C123.957378,21.394492 123.633783,20.9836517 123.221936,20.9836517 L67.5931341,20.9836517 L67.5931341,20.9836517 Z" id="Shape" stroke="none" fill="#FFFFFF" fill-rule="evenodd"></path>
                                <path d="M67.4460458,20.0152425 L123.074848,19.7804767 C124.045631,19.7804767 124.869325,20.8075773 124.869325,22.0694439 L124.898743,32.0176474 C124.898743,33.1034395 124.222137,33.9838115 123.369024,33.9838115 L67.4754635,34.2185773 C66.6223512,34.2185773 65.945745,33.3382054 65.945745,32.281759 L65.9163273,22.0107524 C65.9163273,20.9249603 66.5929336,20.0445883 67.4460458,20.0152425 Z" id="Shape" stroke="#00193D" stroke-width="1" fill="#2A90FF" fill-rule="evenodd"></path>
                                <path d="M65.0043797,32.2524132 L64.9749621,22.0107524 C64.9749621,21.1597261 65.239721,20.3673913 65.680986,19.7511309 C66.1222509,19.1348705 66.7694395,18.8120675 67.4166281,18.8120675 L123.04543,18.5773016 L123.04543,18.5773016 C124.545731,18.5773016 125.751855,20.1326255 125.751855,22.0400981 L125.81069,31.9883016 C125.81069,33.7196999 124.722237,35.1576408 123.369024,35.1576408 L67.4754635,35.3924067 L67.4754635,35.3924067 C66.1222509,35.3924067 65.0043797,33.9838115 65.0043797,32.2524132 Z M123.074848,20.9836517 L67.4460458,21.2184176 L67.4460458,21.2184176 C67.2695398,21.2184176 67.1224515,21.3064548 67.0047809,21.4531835 C66.8871102,21.5999121 66.8282749,21.8053323 66.8282749,22.0107524 L66.8576925,32.2524132 C66.8576925,32.6632535 67.1224515,33.0154023 67.4460458,33.0154023 L67.4460458,33.0154023 L123.339607,32.7806364 C123.663201,32.7806364 123.92796,32.4284876 123.92796,32.0176474 L123.898542,22.0694439 C123.92796,21.4531835 123.54553,20.9836517 123.074848,20.9836517 L123.074848,20.9836517 Z" id="Shape" stroke="none" fill="#FFFFFF" fill-rule="evenodd"></path>
                                <path d="M69.8288766,29.9927918 C69.5935353,29.6699887 69.4464469,29.2591485 69.4464469,28.8483082 L69.4464469,25.356166 C69.4464469,24.9453257 69.5935353,24.5344854 69.8288766,24.2116824 C70.1818885,23.7421506 70.7702418,23.478039 71.4174304,23.478039 L108.660193,23.3019646 C109.160293,23.3606561 109.57214,23.4193476 109.925152,23.6541134 C110.484088,24.0062622 110.778264,24.5931769 110.778264,25.2681288 L110.778264,28.6722338 C110.778264,29.7580259 109.95457,30.5503607 108.836699,30.5503607 L71.4174304,30.7264351 L71.4174304,30.7264351 C70.7702418,30.6970894 70.1818885,30.4329778 69.8288766,29.9927918 Z M71.3291774,28.8483082 C71.3291774,28.8483082 71.3291774,28.8189625 71.3291774,28.8483082 L71.3291774,28.8483082 Z M108.924952,25.7083148 C108.866116,25.678969 108.777863,25.678969 108.660193,25.678969 L71.4174304,25.8550434 L71.4174304,25.8550434 L71.2997597,25.8550434 L71.2997597,28.320085 C71.3291774,28.320085 71.3880127,28.3494307 71.3880127,28.320085 L108.807281,28.1440106 L108.895534,28.1440106 L108.924952,25.7083148 Z" id="Shape" stroke="none" fill="#FFFFFF" fill-rule="evenodd"></path>
                                <path d="M70.7702418,69.6388772 L70.7702418,69.6388772 L119.103463,69.5801857 C119.603563,69.5801857 120.044828,69.0519625 120.044828,68.3770106 C120.044828,67.7020588 119.632981,67.1738356 119.103463,67.1738356 L119.103463,67.1738356 L70.7702418,67.2325271 C70.2701415,67.2325271 69.8288766,67.7607503 69.8288766,68.4357021 C69.8288766,69.110654 70.2701415,69.6388772 70.7702418,69.6388772 Z" id="Shape" stroke="none" fill="#FFFFFF" fill-rule="evenodd"></path>
                                <path d="M70.7702418,65.14898 L70.7702418,65.14898 L119.103463,65.0902885 C119.603563,65.0902885 120.044828,64.5620653 120.044828,63.8871135 C120.044828,63.2415074 119.632981,62.6839384 119.103463,62.6839384 L119.103463,62.6839384 L70.7702418,62.7426299 C70.2701415,62.7426299 69.8288766,63.2708531 69.8288766,63.945805 C69.8582942,64.5914111 70.2701415,65.14898 70.7702418,65.14898 Z" id="Shape" stroke="none" fill="#FFFFFF" fill-rule="evenodd"></path>
                                <path d="M70.7702418,60.6003914 L70.7702418,60.6003914 L119.103463,60.5416999 C119.603563,60.5416999 120.044828,60.0134767 120.044828,59.3385249 C120.044828,58.663573 119.632981,58.1353498 119.103463,58.1353498 L119.103463,58.1353498 L70.7702418,58.1940413 C70.2701415,58.1940413 69.8288766,58.7222645 69.8288766,59.3972163 C69.8288766,60.0721682 70.2701415,60.6003914 70.7702418,60.6003914 Z" id="Shape" stroke="none" fill="#FFFFFF" fill-rule="evenodd"></path>
                                <path d="M94.9515613,56.0811485 L94.9515613,56.0811485 L119.103463,56.022457 C119.632981,56.022457 120.044828,55.4942338 120.044828,54.819282 C120.044828,54.1736758 119.632981,53.6161069 119.103463,53.6161069 L119.103463,53.6161069 L94.9515613,53.6747984 C94.4220434,53.6747984 94.0101961,54.2030216 94.0101961,54.8779734 C94.0101961,55.5529253 94.4220434,56.0811485 94.9515613,56.0811485 Z" id="Shape" stroke="none" fill="#FFFFFF" fill-rule="evenodd"></path>
                                <path d="M94.9515613,51.5619056 L94.9515613,51.5619056 L119.103463,51.5032141 C119.632981,51.5032141 120.044828,50.9749909 120.044828,50.3000391 C120.044828,49.6250872 119.632981,49.096864 119.103463,49.096864 L119.103463,49.096864 L94.9515613,49.1555555 C94.4220434,49.1555555 94.0101961,49.6837787 94.0101961,50.3587305 C94.0101961,51.0336824 94.4220434,51.5619056 94.9515613,51.5619056 Z" id="Shape" stroke="none" fill="#FFFFFF" fill-rule="evenodd"></path>
                                <path d="M94.9515613,47.0426627 L94.9515613,47.0426627 L119.103463,46.9839712 C119.632981,46.9839712 120.044828,46.455748 120.044828,45.7807962 C120.044828,45.1058443 119.632981,44.5776211 119.103463,44.5776211 L119.103463,44.5776211 L94.9515613,44.6363126 C94.4220434,44.6363126 94.0101961,45.1645358 94.0101961,45.8394876 C94.0101961,46.5144395 94.4220434,47.0426627 94.9515613,47.0426627 Z" id="Shape" stroke="none" fill="#FFFFFF" fill-rule="evenodd"></path>
                                <path d="M94.9515613,42.5234198 L94.9515613,42.5234198 L119.103463,42.4647283 C119.632981,42.4647283 120.044828,41.9365051 120.044828,41.2615533 C120.044828,40.5866014 119.632981,40.0583782 119.103463,40.0583782 L119.103463,40.0583782 L94.9515613,40.1170697 C94.4220434,40.1170697 94.0101961,40.6452929 94.0101961,41.3202448 C94.0101961,41.9951966 94.4220434,42.5234198 94.9515613,42.5234198 Z" id="Shape" stroke="none" fill="#FFFFFF" fill-rule="evenodd"></path>
                                <path d="M71.0350008,55.259468 L90.9213414,55.259468 C91.0684297,55.259468 91.1861004,55.142085 91.1861004,54.9953564 L91.1861004,41.9365051 C91.1861004,41.7897765 91.0684297,41.6723936 90.9213414,41.6723936 L71.0350008,41.6723936 C70.8879125,41.6723936 70.7702418,41.7897765 70.7702418,41.9365051 L70.7702418,54.9953564 C70.7702418,55.142085 70.8879125,55.259468 71.0350008,55.259468 Z" id="Shape" stroke="#00193D" stroke-width="1" fill="#2A90FF" fill-rule="evenodd"></path>
                                <path d="M69.8582942,54.261713 L69.8582942,41.9071594 C69.8582942,40.9094045 70.4760652,40.1170697 71.2409244,40.1170697 L90.7154177,40.1170697 C91.480277,40.1170697 92.0980479,40.9094045 92.0980479,41.9071594 L92.0980479,54.261713 C92.0980479,55.259468 91.480277,56.0518028 90.7154177,56.0518028 L71.2409244,56.0518028 C70.4760652,56.0518028 69.8582942,55.2301222 69.8582942,54.261713 Z M90.2447351,42.4940741 L71.711607,42.4940741 L71.711607,53.6747984 L90.2447351,53.6747984 L90.2447351,42.4940741 Z" id="Shape" stroke="none" fill="#FFFFFF" fill-rule="evenodd"></path>
                                <path d="M105.718426,50.3587305 L105.512503,50.3587305 C103.629772,50.3587305 102.129471,48.8620982 102.129471,46.9839712 L102.129471,36.0673585 C102.129471,34.1892316 103.629772,32.6925992 105.512503,32.6925992 L105.747844,32.6925992 C107.630574,32.6925992 109.130875,34.1892316 109.130875,36.0673585 L109.130875,46.9839712 C109.101458,48.8620982 107.601157,50.3587305 105.718426,50.3587305 Z" id="Shape" stroke="#5F5F5F" stroke-width="1" fill="#FFD9CF" fill-rule="evenodd"></path>
                                <path d="M153.1397,127.303243 C153.1397,127.303243 139.548739,96.9304089 139.019221,92.0590172 C138.048439,83.402026 136.783479,58.7516102 126.810891,40.1464154 C124.045631,34.9815664 119.721234,38.5617458 120.721435,41.1148246 C123.280771,47.8349975 125.869526,52.3248947 125.869526,52.3248947 C125.869526,52.3248947 122.427659,44.9297699 119.780069,38.5617458 C118.162098,34.7174548 116.24995,33.4262426 113.690613,34.3946517 C110.8371,35.4510981 111.131276,37.5933367 112.71983,40.7920216 C115.543926,46.4264023 117.544327,51.0336824 117.544327,51.0336824 C117.544327,51.0336824 112.71983,41.408282 111.131276,37.5639909 C109.513305,33.7196999 108.454269,30.5797064 104.071037,32.7512907 C101.5117,34.042503 102.129471,35.9499756 104.071037,40.7626758 C106.571538,47.013317 110.807682,53.2639581 108.248345,54.5258246 C106.953968,55.1714308 102.158889,42.3473454 99.2465402,36.9183848 C96.2165208,31.1959668 90.2447351,18.6653388 87.3618041,18.3425358 C82.4784719,17.8143126 86.0674269,25.7083148 87.0382098,27.9679362 C88.0089927,30.2275577 97.7168217,55.2888137 98.5993516,59.6906737 C99.5701345,64.5033739 99.8937288,70.2551376 99.8937288,70.2551376 C99.8937288,70.2551376 96.3636092,67.0564527 95.3928263,61.9209494 C94.6573847,57.9592754 84.8024673,49.4196671 82.2137129,52.618352 C81.3606007,53.6747984 81.24293,55.8170369 83.8316844,59.3385249 C87.5971454,64.5327196 89.6269642,72.4854133 89.6269642,72.4854133 C89.6269642,72.4854133 91.2449357,80.4967984 102.806077,93.3208838 C108.277763,99.3954505 113.484689,105.763475 117.573745,118.000645 C121.427459,129.533518 125.281173,138.513313 125.281173,138.513313 L153.1397,127.303243 Z" id="Shape" stroke="#5F5F5F" stroke-width="1" fill="#FFD9CF" fill-rule="evenodd"></path>
                            </g>
                        </g>
                    </g>
                </g>
            </g>
        </g>
    </g>
</svg>