<?xml version="1.0" encoding="UTF-8"?>
<svg width="158px" height="119px" viewBox="0 0 158 119" version="1.1" xmlns="http://www.w3.org/2000/svg" xmlns:xlink="http://www.w3.org/1999/xlink">
    <!-- Generator: Sketch 40.2 (33826) - http://www.bohemiancoding.com/sketch -->
    <title>1</title>
    <desc>Created with Sketch.</desc>
    <defs>
        <polygon id="path-1" points="157.691182 106.673128 157.691182 0.298786486 3.98989905e-05 0.298786486 3.98989905e-05 106.673128 157.691182 106.673128"></polygon>
    </defs>
    <g id="Версия-3" stroke="none" stroke-width="1" fill="none" fill-rule="evenodd">
        <g id="Главная-Helsi_№6-Copy-2" transform="translate(-134.000000, -637.000000)">
            <g id="Group-26" transform="translate(134.000000, 637.000000)">
                <g id="Group-18">
                    <g id="1">
                        <g id="Page-1">
                            <path d="M142.121878,105.082186 L15.7246707,105.082186 C8.02735758,105.082186 1.78755455,98.7944834 1.78755455,91.038578 L1.78755455,17.3333551 C1.78755455,9.57744966 8.02735758,3.29014899 15.7246707,3.29014899 L142.121878,3.29014899 C149.819191,3.29014899 156.058994,9.57744966 156.058994,17.3333551 L156.058994,91.038578 C156.058994,98.7944834 149.819191,105.082186 142.121878,105.082186" id="Fill-1" fill="#FFFFFF"></path>
                            <path d="M143.18347,94.4135547 L14.5060359,94.4135547 C11.0699348,94.4135547 8.28418737,91.6070041 8.28418737,88.1447473 L8.28418737,19.1689703 C8.28418737,15.7067135 11.0699348,12.8997608 14.5060359,12.8997608 L143.18347,12.8997608 C146.619571,12.8997608 149.405319,15.7067135 149.405319,19.1689703 L149.405319,88.1447473 C149.405319,91.6070041 146.619571,94.4135547 143.18347,94.4135547" id="Fill-3" fill="#A6D5FF"></path>
                            <path d="M143.18347,94.4135547 L14.5060359,94.4135547 C11.0699348,94.4135547 8.28418737,91.6070041 8.28418737,88.1447473 L8.28418737,19.1689703 C8.28418737,15.7067135 11.0699348,12.8997608 14.5060359,12.8997608 L143.18347,12.8997608 C146.619571,12.8997608 149.405319,15.7067135 149.405319,19.1689703 L149.405319,88.1447473 C149.405319,91.6070041 146.619571,94.4135547 143.18347,94.4135547 Z" id="Stroke-5" stroke="#727272" stroke-width="3"></path>
                            <path d="M122.472423,118.701254 L35.2173222,118.701254 C33.6712364,118.701254 32.4172111,117.928156 32.4172111,116.97495 C32.4172111,116.021342 33.6712364,115.248244 35.2173222,115.248244 L122.472423,115.248244 C124.018509,115.248244 125.272135,116.021342 125.272135,116.97495 C125.272135,117.928156 124.018509,118.701254 122.472423,118.701254" id="Fill-7" fill="#727272"></path>
                            <g id="Group-11" transform="translate(0.000000, 0.103321)">
                                <mask id="mask-2" fill="white">
                                    <use xlink:href="#path-1"></use>
                                </mask>
                                <g id="Clip-10"></g>
                                <path d="M16.1343934,3.46314122 C8.96973182,3.46314122 3.14048939,9.33675608 3.14048939,16.5559554 L3.14048939,90.4155568 C3.14048939,97.6343541 8.96973182,103.508371 16.1343934,103.508371 L141.556469,103.508371 C148.721131,103.508371 154.550373,97.6343541 154.550373,90.4155568 L154.550373,16.5559554 C154.550373,9.33675608 148.721131,3.46314122 141.556469,3.46314122 L16.1343934,3.46314122 Z M141.556469,106.673128 L16.1343934,106.673128 C7.23811566,106.673128 3.98989905e-05,99.3795534 3.98989905e-05,90.4155568 L3.98989905e-05,16.5559554 C3.98989905e-05,7.59236081 7.23811566,0.298786486 16.1343934,0.298786486 L141.556469,0.298786486 C150.452747,0.298786486 157.691222,7.59236081 157.691222,16.5559554 L157.691222,90.4155568 C157.691222,99.3795534 150.452747,106.673128 141.556469,106.673128 L141.556469,106.673128 Z" id="Fill-9" fill="#727272" mask="url(#mask-2)"></path>
                            </g>
                            <path d="M49.2172394,114.650389 L108.471628,114.650389 L99.9575828,107.237815 L57.7332798,107.237815 L49.2172394,114.650389 Z M116.91226,117.814744 L40.7770071,117.814744 L56.5638404,104.073058 L101.127421,104.073058 L116.91226,117.814744 Z" id="Fill-12" fill="#727272"></path>
                            <path d="M72.4167066,70.8262672 L13.346252,70.8262672 C12.635651,70.8262672 12.0599086,70.2461422 12.0599086,69.5301321 L12.0599086,24.5300409 C12.0599086,23.8140307 12.635651,23.2335037 13.346252,23.2335037 L72.4167066,23.2335037 C73.1273076,23.2335037 73.70305,23.8140307 73.70305,24.5300409 L73.70305,69.5301321 C73.70305,70.2461422 73.1273076,70.8262672 72.4167066,70.8262672" id="Fill-14" fill="#FFFFFF"></path>
                            <path d="M26.5455561,63.1842561 C26.5455561,60.5284655 28.6941167,57.6009047 31.2376773,56.7916243 L32.6608742,56.3389419 L31.3222631,57.9482561 C31.0800763,58.2288709 30.9695561,58.5991378 31.0190308,58.9657865 C31.0689045,59.3352493 31.2763793,59.6657155 31.5887884,59.8727595 L32.3309096,60.3648405 L31.2755813,61.4145331 C30.8199348,61.8676176 30.7672682,62.5852358 31.1459096,63.0990264 L34.8597076,68.9911345 L27.7377379,68.9911345 C27.2278288,68.9191716 26.8140763,68.5778507 26.6377227,68.1247662 C26.6361268,68.1203439 26.6345308,68.1163236 26.6329348,68.1119014 C26.6205662,68.0797392 26.6097934,68.046773 26.5998187,68.0134047 C26.5962278,68.0009419 26.5934348,67.9884791 26.5902429,67.9760162 C26.5830611,67.9490804 26.5762783,67.9213405 26.5706924,67.8936007 C26.5667025,67.8722932 26.5639096,67.8501818 26.5607177,67.8284723 C26.5579247,67.8079689 26.5543338,67.7874655 26.5523389,67.7665601 C26.54795,67.7231412 26.5455561,67.6789182 26.5455561,67.6338912 L26.5455561,63.1842561 Z M36.6838894,53.7941108 C36.699849,53.7784318 36.7253843,53.7776277 36.7417429,53.7925027 L42.506748,58.9521176 L40.1674702,61.2782459 C40.1634803,61.2822662 40.1531066,61.2923169 40.134354,61.2903068 C40.1148035,61.2886986 40.1064247,61.2774419 40.1032328,61.2734216 L35.4968944,54.9740601 L36.6838894,53.7941108 Z M33.9532025,30.9219892 C39.9125157,28.0354351 46.9351369,28.0354351 52.894051,30.9219892 L52.894051,39.5486851 L33.9532025,39.5486851 L33.9532025,30.9219892 Z M51.3503591,54.9740601 L46.7440207,61.2730196 C46.7408288,61.2774419 46.73245,61.2886986 46.7128995,61.2903068 C46.694546,61.2923169 46.6837732,61.2822662 46.6797833,61.2782459 L44.3405056,58.9517155 L50.1055106,53.7925027 C50.1222682,53.7776277 50.1474045,53.7780297 50.1633641,53.7941108 L51.3503591,54.9740601 Z M60.3016975,63.1842561 L60.3016975,67.6338912 C60.3016975,67.6789182 60.2993035,67.7231412 60.2949146,67.7665601 C60.2933187,67.7874655 60.2893288,67.8075669 60.2865359,67.8280703 C60.2833439,67.8497797 60.280551,67.8718912 60.2765611,67.8936007 C60.2709753,67.9213405 60.2641924,67.9490804 60.2570106,67.9760162 C60.2538187,67.9884791 60.2510258,68.0009419 60.2474348,68.0134047 C60.2374601,68.046773 60.2266874,68.0797392 60.2143187,68.1119014 C60.2127227,68.1163236 60.2111268,68.1203439 60.2095308,68.1247662 C60.0331773,68.5778507 59.6194247,68.9191716 59.1095157,68.9911345 L51.987546,68.9911345 L55.7013439,63.0990264 C56.0799854,62.5852358 56.0273187,61.8676176 55.5716722,61.4145331 L54.5163439,60.3648405 L55.2584652,59.8727595 C55.5708742,59.6657155 55.778349,59.3352493 55.8282227,58.9653845 C55.8776975,58.5991378 55.7671773,58.2288709 55.5249904,57.9482561 L54.1863793,56.3389419 L55.6095763,56.7916243 C58.1531369,57.6009047 60.3016975,60.5284655 60.3016975,63.1842561 L60.3016975,63.1842561 Z M53.0787833,60.7113878 L54.6787328,62.3022088 C54.6938944,62.3170838 54.6954904,62.3408034 54.6823237,62.3572865 C54.6691571,62.3741716 54.6571874,62.3914588 54.6456167,62.40955 L50.4973187,68.9911345 L47.6928187,68.9911345 L52.3945157,56.1544115 L54.5566419,58.7535162 C54.5598338,58.7575365 54.5634247,58.7615568 54.5666167,58.765577 C54.5702076,58.7695973 54.5793843,58.78005 54.5765914,58.7985432 C54.5741975,58.8174385 54.5626268,58.825077 54.5582379,58.8278912 L53.1753389,59.7449149 C53.0177379,59.8490399 52.9155965,60.0182932 52.8972429,60.2052358 C52.8784904,60.3925804 52.9451217,60.5783169 53.0787833,60.7113878 L53.0787833,60.7113878 Z M43.097652,62.2346682 L43.7496015,62.2346682 L44.1055005,69.0152561 L42.741753,69.0152561 L43.097652,62.2346682 Z M42.7501318,60.9787358 C42.7285864,60.9787358 42.7082379,60.9586345 42.7082379,60.936925 L42.7082379,60.5272595 L43.4236268,59.8156716 L44.1394146,60.5272595 L44.1394146,60.936925 C44.1394146,60.9586345 44.1186672,60.9787358 44.0971217,60.9787358 L42.7501318,60.9787358 Z M37.9131773,52.9136716 C39.3950258,54.1225669 41.2335712,54.867523 43.4236268,54.867523 C45.6100914,54.867523 47.4466419,54.1249791 48.9268944,52.9193 C48.9296874,52.9410095 48.9316823,52.9631209 48.9348742,52.9844284 C48.9412581,53.0318676 48.9532278,53.0768946 48.9695864,53.1199115 L43.4236268,58.0833372 L37.8716823,53.1142831 C37.8864449,53.0740804 37.8976167,53.0314655 37.9036015,52.9876446 C37.9071924,52.9631209 37.9099854,52.9381953 37.9131773,52.9136716 L37.9131773,52.9136716 Z M35.0368591,45.4138574 C35.1318187,45.4661209 35.237152,45.4922527 35.3420864,45.4922527 C35.4430308,45.4922527 35.5435763,45.4685331 35.6353439,45.4202899 C35.8232682,45.3225973 35.949349,45.1368608 35.9704955,44.9270027 C36.0945813,43.6992122 36.3275914,41.7349081 36.5099298,40.8042155 L50.3373237,40.8042155 C50.5196621,41.7349081 50.7526722,43.6996142 50.8767581,44.9270027 C50.8979045,45.1368608 51.0239854,45.3225973 51.2119096,45.4202899 C51.3036773,45.4685331 51.4042227,45.4922527 51.5047682,45.4922527 C51.6101015,45.4922527 51.7154348,45.4661209 51.8103944,45.4138574 L51.8562783,45.3881277 C50.8947126,49.6624791 48.0531066,53.6119926 43.4236268,53.6119926 C38.794147,53.6119926 35.9521419,49.6624791 34.9909753,45.3881277 L35.0368591,45.4138574 Z M33.9504096,60.2052358 C33.9316571,60.0182932 33.8295157,59.8490399 33.6723136,59.7449149 L32.2890157,58.8278912 C32.2846268,58.825077 32.2730561,58.8174385 32.2706621,58.7985432 C32.2682682,58.78005 32.2774449,58.7695973 32.2806369,58.765577 C32.2842278,58.7615568 32.2878187,58.7575365 32.2910106,58.7535162 L34.4527379,56.1544115 L39.1548338,68.9911345 L36.3503338,68.9911345 L32.2016369,62.40955 C32.1904652,62.3914588 32.1780965,62.3741716 32.1649298,62.3572865 C32.1521621,62.3408034 32.1537581,62.3170838 32.1685207,62.3022088 L33.7684702,60.7113878 C33.9021318,60.5783169 33.9687631,60.3925804 33.9504096,60.2052358 L33.9504096,60.2052358 Z M61.4914854,68.2461784 C61.4930813,68.2397459 61.4946773,68.2341176 61.4962732,68.2276851 C61.5034551,68.195925 61.5106369,68.1637628 61.5166217,68.1316007 C61.5190157,68.1199419 61.5210106,68.1078811 61.5230056,68.0966243 C61.5277934,68.0684824 61.5325813,68.0403405 61.5369702,68.0126007 C61.5393641,67.9953135 61.5413591,67.9780264 61.543354,67.9607392 C61.546546,67.9370196 61.5497379,67.913702 61.5521318,67.8895804 C61.5545258,67.8658608 61.5557227,67.8413372 61.5573187,67.8168135 C61.5589146,67.7991243 61.5605106,67.7814351 61.5613086,67.7633439 C61.5633035,67.720327 61.5645005,67.6773101 61.5645005,67.6334892 L61.5645005,63.1842561 C61.5645005,62.081898 61.269248,60.9558203 60.7569449,59.9133642 C60.6639803,59.7240095 60.5634348,59.5374689 60.4565056,59.3541446 C60.3495763,59.1708203 60.2358641,58.9903101 60.1157682,58.8146243 C59.9956722,58.6385365 59.8695914,58.4668709 59.7375258,58.2996277 C59.6716924,58.2160061 59.6042631,58.1335905 59.5356369,58.0519791 C58.5724753,56.9150466 57.3380005,56.0233507 55.9946015,55.5955939 L54.6639702,55.1722595 L52.695354,54.5459014 L52.6650308,54.5093169 L52.6646318,54.5089149 C52.6522631,54.4940399 52.6386975,54.4795669 52.6247328,54.4654959 L51.0563035,52.9060331 C50.8073338,52.6579824 50.4813591,52.5313439 50.1533894,52.5261176 C50.1358338,52.3415872 50.1222682,52.1482122 50.1154854,51.9459926 C50.1134904,51.8905128 50.1122934,51.833425 50.1110965,51.7755331 C51.8207682,49.8353507 52.8876672,47.2081041 53.2958338,44.5679926 C53.3995712,44.4658777 53.4662025,44.3307966 53.4801672,44.1824486 L53.8113288,40.7354689 C54.0160106,40.6313439 54.1564551,40.4202797 54.1564551,40.1762493 L54.1564551,30.5336311 C54.1564551,30.2972392 54.0235914,30.0813507 53.8117278,29.9744115 C47.3069955,26.6781919 39.5402581,26.6781919 33.0351268,29.9744115 C32.8236621,30.0813507 32.6903995,30.2972392 32.6903995,30.5336311 L32.6903995,40.1766514 C32.6903995,40.4206818 32.8308439,40.6317459 33.0359247,40.7354689 L33.3666874,44.1828507 C33.381051,44.3307966 33.4476823,44.4658777 33.5510207,44.5679926 C33.9591874,47.206898 35.0248894,49.8321345 36.7329652,51.7719149 C36.7265813,52.0408709 36.7114197,52.2909318 36.6874803,52.5265196 C36.3619045,52.532952 36.0383237,52.6595905 35.790551,52.9060331 L34.2221217,54.4654959 C34.2081571,54.4799689 34.1949904,54.4944419 34.1826217,54.5093169 L34.1822227,54.5093169 L34.1518995,54.5459014 L30.852652,55.5955939 C27.7812278,56.5733236 25.282354,59.9768845 25.282354,63.1842561 L25.282354,67.6338912 C25.282354,67.6773101 25.283551,67.720327 25.2859449,67.7633439 C25.2867429,67.7814351 25.2883389,67.7991243 25.2895359,67.8168135 C25.2911318,67.8413372 25.2927278,67.8658608 25.2951217,67.8895804 C25.2975157,67.913702 25.3007076,67.9370196 25.3035005,67.9607392 C25.3058944,67.9780264 25.3074904,67.9953135 25.3102833,68.0126007 C25.3142732,68.0407426 25.3190611,68.0684824 25.324248,68.0966243 C25.3262429,68.1082831 25.3282379,68.1199419 25.3306318,68.1316007 C25.3366167,68.1641649 25.3437985,68.195925 25.3509803,68.2276851 C25.3525763,68.2341176 25.3537732,68.2397459 25.3553692,68.2461784 C25.364147,68.2831649 25.3737227,68.3189453 25.3840965,68.3547257 L25.3840965,68.3551277 C25.7004955,69.4594959 26.7235056,70.2707865 27.9340409,70.2707865 L36.0147833,70.2707865 L36.0163793,70.2711885 L36.0175763,70.2707865 L42.0762379,70.2707865 L42.0770359,70.2707865 L42.0774348,70.2707865 L44.7694197,70.2707865 L44.7698187,70.2707865 L44.7706167,70.2707865 L50.8296773,70.2707865 L50.8308742,70.2711885 L50.8324702,70.2707865 L58.9128136,70.2707865 C60.123349,70.2707865 61.1463591,69.4594959 61.4627581,68.3551277 L61.4631571,68.3547257 C61.4735308,68.3185432 61.4827076,68.2827628 61.4914854,68.2461784 L61.4914854,68.2461784 Z" id="Fill-16" fill="#A9D1F1"></path>
                            <path d="M46.1174869,33.5213753 L44.0551081,33.5213753 L44.0551081,31.4702334 C44.0551081,31.1232841 43.7726232,30.8422672 43.4239061,30.8422672 C43.0751889,30.8422672 42.7923051,31.1232841 42.7923051,31.4702334 L42.7923051,33.5213753 L40.7299263,33.5213753 C40.3812091,33.5213753 40.0987242,33.8023922 40.0987242,34.1493416 C40.0987242,34.4958889 40.3812091,34.7769057 40.7299263,34.7769057 L42.7923051,34.7769057 L42.7923051,36.8280476 C42.7923051,37.1745949 43.0751889,37.4556118 43.4239061,37.4556118 C43.7726232,37.4556118 44.0551081,37.1745949 44.0551081,36.8280476 L44.0551081,34.7769057 L46.1174869,34.7769057 C46.466204,34.7769057 46.7490879,34.4958889 46.7490879,34.1493416 C46.7490879,33.8023922 46.466204,33.5213753 46.1174869,33.5213753" id="Fill-18" fill="#A9D1F1"></path>
                            <path d="M12.1639652,76.9689588 L73.9032631,76.9689588" id="Stroke-20" stroke="#FFFFFF" stroke-width="5.688" stroke-linecap="round"></path>
                            <path d="M12.1639652,83.8277811 L73.9032631,83.8277811" id="Stroke-22" stroke="#FFFFFF" stroke-width="5.688" stroke-linecap="round"></path>
                            <path d="M85.1661894,70.8306091 C84.4547904,70.8306091 83.877851,70.2496801 83.877851,69.5324639 L83.877851,24.4744807 C83.877851,23.7580686 84.4547904,23.1767375 85.1661894,23.1767375 L144.312053,23.1767375 C145.023452,23.1767375 145.599992,23.7580686 145.599992,24.4744807 L145.599992,69.5324639 C145.599992,70.2496801 145.023452,70.8306091 144.312053,70.8306091 L85.1661894,70.8306091 Z" id="Fill-24" fill="#FFFFFF"></path>
                            <path d="M144.312053,70.8306091 L85.1661894,70.8306091 C84.4547904,70.8306091 83.877851,70.2496801 83.877851,69.5324639 L83.877851,24.4744807 C83.877851,23.7580686 84.4547904,23.1767375 85.1661894,23.1767375 L144.312053,23.1767375 C145.023452,23.1767375 145.599992,23.7580686 145.599992,24.4744807 L145.599992,69.5324639 C145.599992,70.2496801 145.023452,70.8306091 144.312053,70.8306091 Z" id="Stroke-26" stroke="#2A90FF" stroke-width="5"></path>
                            <path d="M98.3822111,63.1783463 C98.3822111,60.5193395 100.533565,57.5881605 103.080317,56.777674 L104.50511,56.3241875 L103.164903,57.9359139 C102.922716,58.2165287 102.812196,58.5871976 102.861671,58.9542483 C102.911544,59.3245152 103.119418,59.6553834 103.431827,59.8628294 L104.175145,60.3557145 L103.118221,61.4066132 C102.662176,61.8600997 102.60911,62.578924 102.988151,63.0931166 L106.707135,68.9932652 L99.5759889,68.9932652 C99.0652818,68.9204983 98.6511303,68.5791774 98.4743778,68.1256909 C98.4727818,68.1212686 98.4711859,68.1168463 98.4695899,68.112022 C98.4572212,68.0798598 98.4464485,68.0468936 98.4368727,68.0139274 C98.4328828,68.0014645 98.4300899,67.9890017 98.426898,67.9765389 C98.4197162,67.949201 98.4129333,67.9218632 98.4073475,67.8937213 C98.4033576,67.8724139 98.4005646,67.8503024 98.3973727,67.8281909 C98.3945798,67.8080895 98.3909889,67.7879882 98.3889939,67.7670828 C98.3846051,67.7232618 98.3822111,67.6786368 98.3822111,67.6340118 L98.3822111,63.1783463 Z M108.533312,53.7761402 C108.549272,53.7604611 108.574807,53.7596571 108.591565,53.7745321 L114.363752,58.9405794 L112.021282,61.270326 C112.017691,61.2739443 112.006918,61.2839949 111.988166,61.2823868 C111.969014,61.2803767 111.960635,61.269522 111.957443,61.2650997 L107.344721,54.9580997 L108.533312,53.7761402 Z M105.799433,30.8750726 C111.766327,27.9849003 118.797726,27.9849003 124.76462,30.8750726 L124.76462,39.5126233 L105.799433,39.5126233 L105.799433,30.8750726 Z M123.218933,54.9580997 L118.606211,61.2650997 C118.603418,61.2691199 118.595039,61.2803767 118.575489,61.2819848 C118.557135,61.2839949 118.546363,61.2739443 118.542373,61.269924 L116.199903,58.9405794 L121.972489,53.7745321 C121.989246,53.7592551 122.014383,53.7600591 122.030342,53.7757382 L123.218933,54.9580997 Z M132.181842,63.1783463 L132.181842,67.6340118 C132.181842,67.6786368 132.179448,67.7232618 132.17506,67.7670828 C132.173065,67.7875861 132.169474,67.8080895 132.166282,67.8281909 C132.163489,67.8503024 132.160297,67.8724139 132.156307,67.8937213 C132.150721,67.9218632 132.143938,67.948799 132.136757,67.9765389 C132.133565,67.9890017 132.130772,68.0014645 132.127181,68.0135253 C132.117206,68.0468936 132.106433,68.0798598 132.094065,68.112022 C132.092469,68.1164443 132.090873,68.1208666 132.089277,68.1256909 C131.912524,68.5791774 131.498373,68.9204983 130.987666,68.9932652 L123.856519,68.9932652 L127.575105,63.0931166 C127.954544,62.578924 127.901479,61.8600997 127.445433,61.4062111 L126.388509,60.3557145 L127.131827,59.8628294 C127.444236,59.6553834 127.65211,59.3245152 127.701984,58.9542483 C127.751459,58.5871976 127.641337,58.2165287 127.398752,57.9359139 L126.058544,56.3241875 L127.483337,56.777674 C130.03009,57.5881605 132.181842,60.5193395 132.181842,63.1783463 L132.181842,63.1783463 Z M124.949353,60.7022618 L126.551696,62.2954949 C126.566459,62.3103699 126.568055,62.3336875 126.554888,62.3505726 C126.541721,62.3674578 126.529752,62.3847449 126.518181,62.4028361 L122.364297,68.9932652 L119.556605,68.9932652 L124.264287,56.1396571 L126.428807,58.7423801 C126.432398,58.7464003 126.435989,58.7500186 126.439181,58.7540389 C126.442772,58.7580591 126.451948,58.7685118 126.449156,58.7874071 C126.446762,58.8059003 126.435191,58.8139409 126.430802,58.816353 L125.045908,59.7349848 C124.888307,59.8391098 124.786166,60.0083632 124.767413,60.1957078 C124.748661,60.3834544 124.815292,60.5691909 124.949353,60.7022618 L124.949353,60.7022618 Z M114.955454,62.2275524 L115.608201,62.2275524 L115.964499,69.0165828 L114.599555,69.0165828 L114.955454,62.2275524 Z M114.607933,60.9704139 C114.585989,60.9704139 114.56564,60.9499105 114.56564,60.928201 L114.56564,60.5181334 L115.281827,59.8053395 L115.998413,60.5181334 L115.998413,60.928201 C115.998413,60.9499105 115.978065,60.9704139 115.95612,60.9704139 L114.607933,60.9704139 Z M109.764595,52.894897 C111.248039,54.1054003 113.088979,54.8515625 115.281827,54.8515625 C117.471085,54.8515625 119.310029,54.1078125 120.792277,52.9005253 C120.794671,52.9218328 120.797065,52.9443463 120.800257,52.9656537 C120.80664,53.0130929 120.81861,53.0581199 120.83457,53.1015389 L115.281827,58.0709949 L109.722701,53.0955084 C109.737464,53.0553057 109.748635,53.0130929 109.755019,52.9684679 C109.758211,52.9443463 109.761403,52.9190186 109.764595,52.894897 L109.764595,52.894897 Z M106.884287,45.3850321 C106.979246,45.4376976 107.084979,45.4638294 107.190312,45.4638294 C107.290858,45.4638294 107.391802,45.4401098 107.48357,45.3922686 C107.671893,45.294174 107.797974,45.1084375 107.81912,44.8977753 C107.943605,43.6687787 108.176615,41.7016605 108.358954,40.7701639 L122.204701,40.7701639 C122.387039,41.7016605 122.620448,43.6691807 122.744534,44.8977753 C122.765681,45.1084375 122.891762,45.294174 123.080085,45.3922686 C123.171853,45.4401098 123.272797,45.4638294 123.373342,45.4638294 C123.478676,45.4638294 123.584408,45.4376976 123.679368,45.3850321 L123.725252,45.3601064 C122.762489,49.6392821 119.917292,53.594022 115.281827,53.594022 C110.646363,53.594022 107.800767,49.6392821 106.838403,45.3601064 L106.884287,45.3850321 Z M105.79664,60.1957078 C105.777888,60.0083632 105.675347,59.8391098 105.518145,59.7349848 L104.133252,58.816353 C104.128863,58.8139409 104.117292,58.8059003 104.114898,58.7874071 C104.112105,58.7685118 104.121282,58.7580591 104.124873,58.7540389 C104.128065,58.7500186 104.131656,58.7464003 104.134847,58.7423801 L106.299767,56.1396571 L111.007448,68.9932652 L108.199358,68.9932652 L104.045474,62.4028361 C104.034302,62.3847449 104.021933,62.3674578 104.009166,62.3505726 C103.995999,62.3336875 103.997595,62.3103699 104.012358,62.2954949 L105.614302,60.7022618 C105.748363,60.5691909 105.814994,60.3834544 105.79664,60.1957078 L105.79664,60.1957078 Z M133.373226,68.246701 C133.374423,68.2406706 133.376019,68.2342382 133.377216,68.2282078 C133.384797,68.1960456 133.391979,68.1642855 133.397964,68.1321233 C133.400358,68.1204645 133.401954,68.1088057 133.404347,68.0967449 C133.409534,68.0690051 133.414322,68.0412652 133.418312,68.0127213 C133.420706,67.9954341 133.422701,67.978147 133.425095,67.9608598 C133.427888,67.9375422 133.43108,67.9134206 133.433474,67.890103 C133.435469,67.8655794 133.437065,67.8414578 133.43906,67.8173361 C133.440257,67.7992449 133.441853,67.7811537 133.442651,67.7630625 C133.444645,67.7204476 133.445842,67.6770287 133.445842,67.6336098 L133.445842,63.1783463 C133.445842,62.0743801 133.15059,60.9470963 132.637489,59.9034341 C132.544125,59.7140794 132.443979,59.5267348 132.336651,59.3434105 C132.229721,59.1596841 132.11561,58.979576 131.995514,58.8030861 C131.875418,58.6269983 131.748938,58.4549307 131.616873,58.2872855 C131.55064,58.2036639 131.483211,58.1212483 131.414585,58.0400389 C130.449827,56.9014983 129.214156,56.0081943 127.868762,55.5804375 L126.536534,55.156299 L124.565524,54.5287348 L124.534802,54.4925524 L124.534403,54.4921503 C124.522034,54.4768733 124.508868,54.4624003 124.494903,54.4487314 L122.924479,52.8868564 C122.674711,52.6388057 122.348736,52.5121672 122.020368,52.5069409 C122.002413,52.3220084 121.989246,52.1286334 121.982065,51.9260118 C121.980469,51.8701301 121.978873,51.8126402 121.978075,51.7551503 C123.689741,49.8125557 124.757837,47.1820929 125.166802,44.5387652 C125.270539,44.4362483 125.337171,44.3007652 125.351534,44.1528193 L125.682696,40.7010152 C125.887777,40.5968902 126.02862,40.385826 126.02862,40.1409916 L126.02862,30.4863125 C126.02862,30.2499206 125.895358,30.033228 125.683494,29.9258868 C119.170383,26.625647 111.393272,26.625647 104.880161,29.9258868 C104.668297,30.033228 104.535034,30.2495186 104.535034,30.4863125 L104.535034,40.1409916 C104.535034,40.385826 104.675878,40.5972922 104.880959,40.7014172 L105.21212,44.1532213 C105.226484,44.3011672 105.293115,44.4366503 105.396853,44.5387652 C105.805418,47.1804848 106.872317,49.8093395 108.582388,51.7519341 C108.576004,52.0208902 108.561241,52.271353 108.537302,52.5069409 C108.210928,52.5137753 107.887347,52.6404139 107.639176,52.8868564 L106.068752,54.4487314 C106.054388,54.4628024 106.04162,54.4772753 106.029252,54.4925524 L106.028853,54.4925524 L105.99813,54.5291368 L102.694893,55.5804375 C99.6194788,56.5585693 97.1178121,59.9673564 97.1178121,63.1783463 L97.1178121,67.6340118 C97.1178121,67.6770287 97.1186101,67.7204476 97.1206051,67.7630625 C97.121802,67.7811537 97.123398,67.7992449 97.1245949,67.8173361 C97.1265899,67.8418598 97.1277869,67.8655794 97.1301808,67.890103 C97.1325747,67.9138226 97.1357667,67.9375422 97.1385596,67.9608598 C97.1409535,67.978147 97.1429485,67.9954341 97.1453424,68.0127213 C97.1493323,68.0412652 97.1541202,68.0690051 97.1593071,68.0967449 C97.161302,68.1088057 97.163297,68.1204645 97.1656909,68.1321233 C97.1716758,68.1642855 97.1788576,68.1964476 97.1860394,68.2286098 C97.1876354,68.2342382 97.1888323,68.2406706 97.1904283,68.246701 C97.1992061,68.2836875 97.2091808,68.3198699 97.2191556,68.3556503 L97.2191556,68.3564544 C97.5363525,69.4620287 98.5605596,70.2741233 99.7726909,70.2741233 L107.863807,70.2741233 L107.865004,70.2741233 L107.866201,70.2741233 L113.932842,70.2741233 L113.93364,70.2741233 L113.934039,70.2741233 L116.629216,70.2741233 L116.630014,70.2741233 L116.630812,70.2741233 L122.697454,70.2741233 L122.698651,70.2741233 L122.699847,70.2741233 L130.790964,70.2741233 C132.003095,70.2741233 133.027302,69.4620287 133.3441,68.3564544 L133.3441,68.3556503 C133.354474,68.3198699 133.364448,68.2832855 133.373226,68.246701 L133.373226,68.246701 Z" id="Fill-28" fill="#2A90FF"></path>
                            <path d="M117.979278,33.4774338 L115.914107,33.4774338 L115.914107,31.4242818 C115.914107,31.0765284 115.631223,30.7955115 115.282107,30.7955115 C114.93299,30.7955115 114.649708,31.0765284 114.649708,31.4242818 L114.649708,33.4774338 L112.584536,33.4774338 C112.23542,33.4774338 111.952536,33.7588527 111.952536,34.1062041 C111.952536,34.4535554 112.23542,34.7349743 112.584536,34.7349743 L114.649708,34.7349743 L114.649708,36.7881264 C114.649708,37.1358797 114.93299,37.4172986 115.282107,37.4172986 C115.631223,37.4172986 115.914107,37.1358797 115.914107,36.7881264 L115.914107,34.7349743 L117.979278,34.7349743 C118.328394,34.7349743 118.611278,34.4535554 118.611278,34.1062041 C118.611278,33.7588527 118.328394,33.4774338 117.979278,33.4774338" id="Fill-30" fill="#2A90FF"></path>
                            <path d="M83.9823465,76.9807382 L145.800644,76.9807382" id="Stroke-32" stroke="#FFFFFF" stroke-width="5.695" stroke-linecap="round"></path>
                            <path d="M83.9823465,83.8485659 L145.800644,83.8485659" id="Stroke-34" stroke="#FFFFFF" stroke-width="5.695" stroke-linecap="round"></path>
                            <path d="M131.379753,63.9081861 C131.039016,64.0798517 130.750546,64.3150375 130.519531,64.5920341 C129.708783,63.8603449 128.510218,63.6561152 127.484814,64.1723179 C127.104177,64.3640848 126.787778,64.635453 126.545192,64.9554666 C125.746814,64.3709193 124.663556,64.2402605 123.726329,64.7122402 C123.450627,64.8509395 123.210036,65.0318517 123.005753,65.2421118 L121.656768,62.523203 C120.981278,61.1615375 119.340233,60.603122 117.997632,61.2793314 C116.65543,61.9555409 116.113203,63.6135003 116.788293,64.9747639 L121.641208,74.7584936 L118.886182,73.6207571 C118.866632,73.6131186 118.847081,73.6058821 118.828329,73.5986456 C118.137677,73.366676 117.397551,73.4181355 116.743208,73.7437774 L116.731238,73.7494057 C116.080485,74.0774598 115.596511,74.6370814 115.368687,75.3269598 C114.966107,76.5438956 115.519107,77.7704801 116.886046,78.6927301 C118.654369,79.8863483 120.458203,80.9424733 122.050172,81.875176 C123.212829,82.5570139 124.311647,83.2002571 125.159899,83.7626929 C125.896036,84.2503517 128.050581,85.950122 128.072526,85.9670071 C128.352617,86.188524 128.733652,86.2271186 129.051647,86.0667098 L139.461293,80.8246794 C139.819187,80.6445713 140.020677,80.2525949 139.960031,79.8545882 C139.852304,79.1486287 138.880364,72.8967064 137.84698,70.8138044 L135.039288,65.1524598 C134.363399,63.7903922 132.721955,63.2319767 131.379753,63.9081861" id="Fill-36" fill="#FFFFFF"></path>
                            <path d="M131.817525,66.7745986 C131.595686,66.3275446 131.768848,65.7856122 132.20255,65.5673115 C132.63705,65.3486088 133.170499,65.5343453 133.392338,65.9813993 L136.200429,71.6427439 C136.88709,73.027325 137.67709,77.2803689 138.034585,79.4698081 L128.747696,84.1465885 C128.05106,83.6022439 126.753944,82.5987845 126.17102,82.2124365 C125.280474,81.6226628 124.16051,80.9661527 122.974712,80.27145 C121.40708,79.3528182 119.630378,78.3119703 117.909934,77.1517203 C117.460671,76.8489939 116.957944,76.3874669 117.115146,75.913477 C117.187762,75.6927642 117.346959,75.5154703 117.558025,75.4065209 C117.766297,75.302798 118.000505,75.2839027 118.221146,75.3510412 L123.211712,77.4118318 C123.566414,77.5581696 123.97458,77.4677135 124.235121,77.1846865 C124.49606,76.9012574 124.555111,76.4843554 124.383944,76.1390142 L118.435005,64.1457439 C118.213565,63.6990919 118.386328,63.1571595 118.820429,62.9384568 C119.255328,62.7197541 119.788777,62.9054905 120.010217,63.3521426 L123.85209,71.0975953 C124.079116,71.5555041 124.632116,71.7412405 125.086565,71.5120851 C125.541414,71.2833318 125.725348,70.7261223 125.498722,70.2682135 L124.164101,67.5782507 C123.942661,67.1315986 124.115823,66.5900682 124.549924,66.3717676 C124.984025,66.1530649 125.517075,66.3383993 125.738914,66.7850514 L127.610176,70.5572709 C127.837202,71.0159838 128.389803,71.2013182 128.844252,70.9721628 C129.299101,70.7430074 129.483833,70.186602 129.256808,69.7282912 L127.922585,67.0383284 C127.700747,66.5916764 127.87351,66.0501459 128.30801,65.8314432 C128.742111,65.6127405 129.275959,65.798477 129.497797,66.2455311 L131.368661,70.0177507 C131.596085,70.4756595 132.148686,70.661798 132.603136,70.4330446 C133.058383,70.2034872 133.242318,69.6470818 133.015292,69.1887709 L131.817924,66.7745986 L131.817525,66.7745986 Z M131.379833,63.9081459 C131.039095,64.0798115 130.750626,64.3149973 130.519611,64.5919939 C129.708863,63.8603047 128.509898,63.656075 127.484893,64.1722777 C127.104257,64.3640446 126.787858,64.6354128 126.545272,64.9558284 C125.746893,64.3708791 124.663636,64.2402203 123.726409,64.7122 C123.450707,64.8508993 123.210116,65.0318115 123.005833,65.2420716 L121.656848,62.5231628 C120.981358,61.1614973 119.340313,60.6030818 117.997712,61.2792912 C116.65551,61.9555007 116.113282,63.6134601 116.788373,64.9747236 L121.641287,74.7584534 L118.885863,73.6207169 C118.866712,73.6130784 118.847161,73.6058419 118.82801,73.5990074 C118.137358,73.3666358 117.397232,73.4180953 116.743287,73.7437372 L116.730919,73.7497676 C116.080565,74.0774196 115.59659,74.6370412 115.368368,75.3269196 C114.966186,76.5438554 115.519186,77.7708419 116.886126,78.6930919 C118.654449,79.8863081 120.458282,80.9424331 122.050252,81.8755378 C123.212909,82.5569736 124.311727,83.2002169 125.159979,83.7626527 C125.896116,84.2503115 128.050661,85.9500818 128.072606,85.9669669 C128.352297,86.1884838 128.733732,86.2270784 129.051727,86.0666696 L139.461373,80.8246392 C139.819267,80.6445311 140.020757,80.2525547 139.960111,79.854548 C139.852383,79.1485885 138.880444,72.8970682 137.84706,70.8137642 L135.039368,65.1524196 C134.36308,63.790352 132.722035,63.2319365 131.379833,63.9081459 L131.379833,63.9081459 Z" id="Fill-38" fill="#727272"></path>
                        </g>
                    </g>
                </g>
            </g>
        </g>
    </g>
</svg>