<?xml version="1.0" encoding="UTF-8"?>
<svg width="155px" height="139px" viewBox="0 0 155 139" version="1.1" xmlns="http://www.w3.org/2000/svg" xmlns:xlink="http://www.w3.org/1999/xlink">
    <!-- Generator: Sketch 40.2 (33826) - http://www.bohemiancoding.com/sketch -->
    <title>3</title>
    <desc>Created with Sketch.</desc>
    <defs>
        <polygon id="path-1" points="29.2705193 0.239678088 0.000133047211 0.239678088 0.000133047211 29.5335668 29.2705193 29.5335668 29.2705193 0.239678088"></polygon>
        <polygon id="path-3" points="0 138.480673 155 138.480673 155 0.239678088 0 0.239678088"></polygon>
    </defs>
    <g id="Версия-3" stroke="none" stroke-width="1" fill="none" fill-rule="evenodd">
        <g id="Главная-Helsi_№6-Copy-2" transform="translate(-650.000000, -628.000000)">
            <g id="3" transform="translate(650.000000, 628.000000)">
                <g id="Page-1">
                    <polygon id="Fill-1" fill="#2A90FF" points="4.32403433 118.507499 47.8969957 118.507499 47.8969957 32.2899646 4.32403433 32.2899646"></polygon>
                    <path d="M4.65665236,118.174613 L47.5643777,118.174613 L47.5643777,32.6228509 L4.65665236,32.6228509 L4.65665236,118.174613 Z M3.99141631,118.840385 L48.2296137,118.840385 L48.2296137,31.9570784 L3.99141631,31.9570784 L3.99141631,118.840385 Z" id="Fill-2" fill="#585F73"></path>
                    <polygon id="Fill-3" fill="#2A90FF" points="107.103004 118.507499 150.675966 118.507499 150.675966 32.2899646 107.103004 32.2899646"></polygon>
                    <path d="M107.435622,118.174613 L150.343348,118.174613 L150.343348,32.6228509 L107.435622,32.6228509 L107.435622,118.174613 Z M106.770386,118.840385 L151.008584,118.840385 L151.008584,31.9570784 L106.770386,31.9570784 L106.770386,118.840385 Z" id="Fill-4" fill="#585F73"></path>
                    <polygon id="Fill-5" fill="#A6D5FF" points="47.8969957 121.836361 107.103004 121.836361 107.103004 20.9718327 47.8969957 20.9718327"></polygon>
                    <path d="M48.2296137,121.503475 L106.770386,121.503475 L106.770386,21.3047189 L48.2296137,21.3047189 L48.2296137,121.503475 Z M47.5643777,122.169248 L107.435622,122.169248 L107.435622,20.6389465 L47.5643777,20.6389465 L47.5643777,122.169248 Z" id="Fill-6" fill="#727272"></path>
                    <polygon id="Fill-7" fill="#2A90FF" points="1.66309013 33.2886233 47.8969957 33.2886233 47.8969957 28.9611023 1.66309013 28.9611023"></polygon>
                    <path d="M1.99570815,32.9557371 L47.5643777,32.9557371 L47.5643777,29.2939885 L1.99570815,29.2939885 L1.99570815,32.9557371 Z M1.3304721,33.6215096 L48.2296137,33.6215096 L48.2296137,28.6282161 L1.3304721,28.6282161 L1.3304721,33.6215096 Z" id="Fill-8" fill="#585F73"></path>
                    <polygon id="Fill-9" fill="#A6D5FF" points="45.9012876 22.6362639 108.766094 22.6362639 108.766094 18.3087428 45.9012876 18.3087428"></polygon>
                    <path d="M46.2339056,22.3033776 L108.433476,22.3033776 L108.433476,18.6416291 L46.2339056,18.6416291 L46.2339056,22.3033776 Z M45.5686695,22.9691501 L109.098712,22.9691501 L109.098712,17.9758566 L45.5686695,17.9758566 L45.5686695,22.9691501 Z" id="Fill-10" fill="#727272"></path>
                    <polygon id="Fill-11" fill="#2A90FF" points="107.103004 33.2886233 153.33691 33.2886233 153.33691 28.9611023 107.103004 28.9611023"></polygon>
                    <path d="M107.435622,32.9557371 L153.004292,32.9557371 L153.004292,29.2939885 L107.435622,29.2939885 L107.435622,32.9557371 Z M106.770386,33.6215096 L153.669528,33.6215096 L153.669528,28.6282161 L106.770386,28.6282161 L106.770386,33.6215096 Z" id="Fill-12" fill="#585F73"></path>
                    <polygon id="Fill-13" fill="#D7DAE0" points="107.103004 28.9611023 154.667382 28.9611023 154.667382 23.9678088 107.103004 23.9678088"></polygon>
                    <path d="M106.770386,29.2939885 L155,29.2939885 L155,23.6349226 L106.770386,23.6349226 L106.770386,29.2939885 Z M107.435622,28.6282161 L154.334764,28.6282161 L154.334764,24.3003622 L107.435622,24.3003622 L107.435622,28.6282161 Z" id="Fill-14" fill="#727272"></path>
                    <polygon id="Fill-15" fill="#D7DAE0" points="0.332618026 28.9611023 47.8969957 28.9611023 47.8969957 23.9678088 0.332618026 23.9678088"></polygon>
                    <path d="M0,29.2939885 L48.2296137,29.2939885 L48.2296137,23.6349226 L0,23.6349226 L0,29.2939885 Z M0.665236052,28.6282161 L47.5643777,28.6282161 L47.5643777,24.3003622 L0.665236052,24.3003622 L0.665236052,28.6282161 Z" id="Fill-16" fill="#727272"></path>
                    <polygon id="Fill-17" fill="#D7DAE0" points="44.2381974 18.3087428 110.429185 18.3087428 110.429185 12.3167906 44.2381974 12.3167906"></polygon>
                    <path d="M44.5708155,17.9758566 L110.096567,17.9758566 L110.096567,12.6496769 L44.5708155,12.6496769 L44.5708155,17.9758566 Z M43.9055794,18.6416291 L110.761803,18.6416291 L110.761803,11.9839044 L43.9055794,11.9839044 L43.9055794,18.6416291 Z" id="Fill-18" fill="#727272"></path>
                    <polygon id="Fill-19" fill="#2A90FF" points="0.332618026 125.830996 47.8969957 125.830996 47.8969957 118.507499 0.332618026 118.507499"></polygon>
                    <path d="M0,126.16355 L48.2296137,126.16355 L48.2296137,118.174613 L0,118.174613 L0,126.16355 Z M0.665236052,125.49811 L47.5643777,125.49811 L47.5643777,118.840385 L0.665236052,118.840385 L0.665236052,125.49811 Z" id="Fill-20" fill="#585F73"></path>
                    <polygon id="Fill-21" fill="#2A90FF" points="107.103004 125.830996 154.667382 125.830996 154.667382 118.507499 107.103004 118.507499"></polygon>
                    <path d="M106.770386,126.16355 L155,126.16355 L155,118.174613 L106.770386,118.174613 L106.770386,126.16355 Z M107.435622,125.49811 L154.334764,125.49811 L154.334764,118.840385 L107.435622,118.840385 L107.435622,125.49811 Z" id="Fill-22" fill="#585F73"></path>
                    <polygon id="Fill-23" fill="#D7DAE0" points="43.2403433 125.830996 109.43133 125.830996 109.43133 122.169248 43.2403433 122.169248"></polygon>
                    <path d="M43.5729614,125.49811 L109.098712,125.49811 L109.098712,122.502134 L43.5729614,122.502134 L43.5729614,125.49811 Z M42.9077253,126.163882 L109.763948,126.163882 L109.763948,121.836361 L42.9077253,121.836361 L42.9077253,126.163882 Z" id="Fill-24" fill="#727272"></path>
                    <polygon id="Fill-25" fill="#D7DAE0" points="52.8862661 122.169248 102.113734 122.169248 102.113734 119.173272 52.8862661 119.173272"></polygon>
                    <path d="M53.2188841,121.836361 L101.781116,121.836361 L101.781116,119.506158 L53.2188841,119.506158 L53.2188841,121.836361 Z M52.5536481,122.502134 L102.446352,122.502134 L102.446352,118.840385 L52.5536481,118.840385 L52.5536481,122.502134 Z" id="Fill-26" fill="#727272"></path>
                    <polygon id="Fill-27" fill="#FEC580" points="63.5300429 119.173272 77.5 119.173272 77.5 88.5477381 63.5300429 88.5477381"></polygon>
                    <path d="M63.8626609,118.840385 L77.167382,118.840385 L77.167382,88.8806243 L63.8626609,88.8806243 L63.8626609,118.840385 Z M63.1974249,119.506158 L77.832618,119.506158 L77.832618,88.2148518 L63.1974249,88.2148518 L63.1974249,119.506158 Z" id="Fill-28" fill="#727272"></path>
                    <polygon id="Fill-29" fill="#C7F4FF" points="65.8583691 108.520912 74.8390558 108.520912 74.8390558 90.8779417 65.8583691 90.8779417"></polygon>
                    <path d="M66.1909871,108.188026 L74.5064378,108.188026 L74.5064378,91.2108279 L66.1909871,91.2108279 L66.1909871,108.188026 Z M65.5257511,108.853798 L75.1716738,108.853798 L75.1716738,90.5450555 L65.5257511,90.5450555 L65.5257511,108.853798 Z" id="Fill-30" fill="#727272"></path>
                    <polygon id="Fill-31" fill="#C7F4FF" points="65.8583691 112.182661 74.8390558 112.182661 74.8390558 110.851116 65.8583691 110.851116"></polygon>
                    <path d="M66.1909871,111.849774 L74.5064378,111.849774 L74.5064378,111.184002 L66.1909871,111.184002 L66.1909871,111.849774 Z M65.5257511,112.515547 L75.1716738,112.515547 L75.1716738,110.518229 L65.5257511,110.518229 L65.5257511,112.515547 Z" id="Fill-32" fill="#727272"></path>
                    <polygon id="Fill-33" fill="#FEC580" points="77.5 119.173272 91.4699571 119.173272 91.4699571 88.5477381 77.5 88.5477381"></polygon>
                    <path d="M77.832618,118.840385 L91.1373391,118.840385 L91.1373391,88.8806243 L77.832618,88.8806243 L77.832618,118.840385 Z M77.167382,119.506158 L91.8025751,119.506158 L91.8025751,88.2148518 L77.167382,88.2148518 L77.167382,119.506158 Z" id="Fill-34" fill="#727272"></path>
                    <polygon id="Fill-35" fill="#C7F4FF" points="79.8283262 108.520912 88.8090129 108.520912 88.8090129 90.8779417 79.8283262 90.8779417"></polygon>
                    <path d="M80.1609442,108.188026 L88.4763948,108.188026 L88.4763948,91.2108279 L80.1609442,91.2108279 L80.1609442,108.188026 Z M79.4957082,108.853798 L89.1416309,108.853798 L89.1416309,90.5450555 L79.4957082,90.5450555 L79.4957082,108.853798 Z" id="Fill-36" fill="#727272"></path>
                    <polygon id="Fill-37" fill="#C7F4FF" points="79.8283262 112.182661 88.8090129 112.182661 88.8090129 110.851116 79.8283262 110.851116"></polygon>
                    <path d="M80.1609442,111.849774 L88.4763948,111.849774 L88.4763948,111.184002 L80.1609442,111.184002 L80.1609442,111.849774 Z M79.4957082,112.515547 L89.1416309,112.515547 L89.1416309,110.518229 L79.4957082,110.518229 L79.4957082,112.515547 Z" id="Fill-38" fill="#727272"></path>
                    <polygon id="Fill-39" fill="#C7F4FF" points="51.888412 114.179978 60.8690987 114.179978 60.8690987 88.5477381 51.888412 88.5477381"></polygon>
                    <path d="M52.22103,113.847092 L60.5364807,113.847092 L60.5364807,88.8806243 L52.22103,88.8806243 L52.22103,113.847092 Z M51.555794,114.512864 L61.2017167,114.512864 L61.2017167,88.2148518 L51.555794,88.2148518 L51.555794,114.512864 Z" id="Fill-40" fill="#727272"></path>
                    <polygon id="Fill-41" fill="#C7F4FF" points="94.4635193 114.179978 103.444206 114.179978 103.444206 88.5477381 94.4635193 88.5477381"></polygon>
                    <path d="M94.7961373,113.847092 L103.111588,113.847092 L103.111588,88.8806243 L94.7961373,88.8806243 L94.7961373,113.847092 Z M94.1309013,114.512864 L103.776824,114.512864 L103.776824,88.2148518 L94.1309013,88.2148518 L94.1309013,114.512864 Z" id="Fill-42" fill="#727272"></path>
                    <polygon id="Fill-43" fill="#C7F4FF" points="51.888412 78.8940373 65.193133 78.8940373 65.193133 62.2497256 51.888412 62.2497256"></polygon>
                    <path d="M52.22103,78.5611511 L64.860515,78.5611511 L64.860515,62.5826119 L52.22103,62.5826119 L52.22103,78.5611511 Z M51.555794,79.2269235 L65.5257511,79.2269235 L65.5257511,61.9168394 L51.555794,61.9168394 L51.555794,79.2269235 Z" id="Fill-44" fill="#727272"></path>
                    <polygon id="Fill-45" fill="#C7F4FF" points="51.888412 80.8913547 65.193133 80.8913547 65.193133 78.8940373 51.888412 78.8940373"></polygon>
                    <path d="M52.22103,80.5584685 L64.860515,80.5584685 L64.860515,79.2269235 L52.22103,79.2269235 L52.22103,80.5584685 Z M51.555794,81.2242409 L65.5257511,81.2242409 L65.5257511,78.5611511 L51.555794,78.5611511 L51.555794,81.2242409 Z" id="Fill-46" fill="#727272"></path>
                    <polygon id="Fill-47" fill="#727272" points="58.2081545 78.8940373 58.8733906 78.8940373 58.8733906 62.2497256 58.2081545 62.2497256"></polygon>
                    <polygon id="Fill-48" fill="#727272" points="51.888412 68.2416778 65.193133 68.2416778 65.193133 67.5759054 51.888412 67.5759054"></polygon>
                    <polygon id="Fill-49" fill="#C7F4FF" points="71.0139485 78.8940373 84.3186695 78.8940373 84.3186695 62.2497256 71.0139485 62.2497256"></polygon>
                    <path d="M71.3465665,78.5611511 L83.9860515,78.5611511 L83.9860515,62.5826119 L71.3465665,62.5826119 L71.3465665,78.5611511 Z M70.6813305,79.2269235 L84.6512876,79.2269235 L84.6512876,61.9168394 L70.6813305,61.9168394 L70.6813305,79.2269235 Z" id="Fill-50" fill="#727272"></path>
                    <polygon id="Fill-51" fill="#C7F4FF" points="71.0139485 80.8913547 84.3186695 80.8913547 84.3186695 78.8940373 71.0139485 78.8940373"></polygon>
                    <path d="M71.3465665,80.5584685 L83.9860515,80.5584685 L83.9860515,79.2269235 L71.3465665,79.2269235 L71.3465665,80.5584685 Z M70.6813305,81.2242409 L84.6512876,81.2242409 L84.6512876,78.5611511 L70.6813305,78.5611511 L70.6813305,81.2242409 Z" id="Fill-52" fill="#727272"></path>
                    <polygon id="Fill-53" fill="#727272" points="77.333691 78.8940373 77.998927 78.8940373 77.998927 62.2497256 77.333691 62.2497256"></polygon>
                    <polygon id="Fill-54" fill="#727272" points="71.0139485 68.2416778 84.3186695 68.2416778 84.3186695 67.5759054 71.0139485 67.5759054"></polygon>
                    <polygon id="Fill-55" fill="#C7F4FF" points="90.139485 78.8940373 103.444206 78.8940373 103.444206 62.2497256 90.139485 62.2497256"></polygon>
                    <path d="M90.472103,78.5611511 L103.111588,78.5611511 L103.111588,62.5826119 L90.472103,62.5826119 L90.472103,78.5611511 Z M89.806867,79.2269235 L103.776824,79.2269235 L103.776824,61.9168394 L89.806867,61.9168394 L89.806867,79.2269235 Z" id="Fill-56" fill="#727272"></path>
                    <polygon id="Fill-57" fill="#C7F4FF" points="90.139485 80.8913547 103.444206 80.8913547 103.444206 78.8940373 90.139485 78.8940373"></polygon>
                    <path d="M90.472103,80.5584685 L103.111588,80.5584685 L103.111588,79.2269235 L90.472103,79.2269235 L90.472103,80.5584685 Z M89.806867,81.2242409 L103.776824,81.2242409 L103.776824,78.5611511 L89.806867,78.5611511 L89.806867,81.2242409 Z" id="Fill-58" fill="#727272"></path>
                    <polygon id="Fill-59" fill="#727272" points="96.4592275 78.8940373 97.1244635 78.8940373 97.1244635 62.2497256 96.4592275 62.2497256"></polygon>
                    <polygon id="Fill-60" fill="#727272" points="90.139485 68.2416778 103.444206 68.2416778 103.444206 67.5759054 90.139485 67.5759054"></polygon>
                    <polygon id="Fill-61" fill="#C7F4FF" points="52.22103 52.5960249 65.5257511 52.5960249 65.5257511 35.9517132 52.22103 35.9517132"></polygon>
                    <path d="M52.5536481,52.2631386 L65.193133,52.2631386 L65.193133,36.2845994 L52.5536481,36.2845994 L52.5536481,52.2631386 Z M51.888412,52.9289111 L65.8583691,52.9289111 L65.8583691,35.618827 L51.888412,35.618827 L51.888412,52.9289111 Z" id="Fill-62" fill="#727272"></path>
                    <polygon id="Fill-63" fill="#C7F4FF" points="52.22103 54.5933423 65.5257511 54.5933423 65.5257511 52.5960249 52.22103 52.5960249"></polygon>
                    <path d="M52.5536481,54.260456 L65.193133,54.260456 L65.193133,52.9289111 L52.5536481,52.9289111 L52.5536481,54.260456 Z M51.888412,54.9262285 L65.8583691,54.9262285 L65.8583691,52.2631386 L51.888412,52.2631386 L51.888412,54.9262285 Z" id="Fill-64" fill="#727272"></path>
                    <polygon id="Fill-65" fill="#727272" points="58.5407725 52.5960249 59.2060086 52.5960249 59.2060086 35.9517132 58.5407725 35.9517132"></polygon>
                    <polygon id="Fill-66" fill="#727272" points="52.22103 41.9436654 65.5257511 41.9436654 65.5257511 41.2778929 52.22103 41.2778929"></polygon>
                    <polygon id="Fill-67" fill="#C7F4FF" points="71.1802575 52.5960249 84.4849785 52.5960249 84.4849785 35.9517132 71.1802575 35.9517132"></polygon>
                    <path d="M71.5128755,52.2631386 L84.1523605,52.2631386 L84.1523605,36.2845994 L71.5128755,36.2845994 L71.5128755,52.2631386 Z M70.8476395,52.9289111 L84.8175966,52.9289111 L84.8175966,35.618827 L70.8476395,35.618827 L70.8476395,52.9289111 Z" id="Fill-68" fill="#727272"></path>
                    <polygon id="Fill-69" fill="#C7F4FF" points="71.1802575 54.5933423 84.4849785 54.5933423 84.4849785 52.5960249 71.1802575 52.5960249"></polygon>
                    <path d="M71.5128755,54.260456 L84.1523605,54.260456 L84.1523605,52.9289111 L71.5128755,52.9289111 L71.5128755,54.260456 Z M70.8476395,54.9262285 L84.8175966,54.9262285 L84.8175966,52.2631386 L70.8476395,52.2631386 L70.8476395,54.9262285 Z" id="Fill-70" fill="#727272"></path>
                    <polygon id="Fill-71" fill="#727272" points="77.5 52.5960249 78.1652361 52.5960249 78.1652361 35.9517132 77.5 35.9517132"></polygon>
                    <polygon id="Fill-72" fill="#727272" points="71.1802575 41.9436654 84.4849785 41.9436654 84.4849785 41.2778929 71.1802575 41.2778929"></polygon>
                    <polygon id="Fill-73" fill="#C7F4FF" points="90.139485 52.5960249 103.444206 52.5960249 103.444206 35.9517132 90.139485 35.9517132"></polygon>
                    <path d="M90.472103,52.2631386 L103.111588,52.2631386 L103.111588,36.2845994 L90.472103,36.2845994 L90.472103,52.2631386 Z M89.806867,52.9289111 L103.776824,52.9289111 L103.776824,35.618827 L89.806867,35.618827 L89.806867,52.9289111 Z" id="Fill-74" fill="#727272"></path>
                    <polygon id="Fill-75" fill="#C7F4FF" points="90.139485 54.5933423 103.444206 54.5933423 103.444206 52.5960249 90.139485 52.5960249"></polygon>
                    <path d="M90.472103,54.260456 L103.111588,54.260456 L103.111588,52.9289111 L90.472103,52.9289111 L90.472103,54.260456 Z M89.806867,54.9262285 L103.776824,54.9262285 L103.776824,52.2631386 L89.806867,52.2631386 L89.806867,54.9262285 Z" id="Fill-76" fill="#727272"></path>
                    <polygon id="Fill-77" fill="#727272" points="96.4592275 52.5960249 97.1244635 52.5960249 97.1244635 35.9517132 96.4592275 35.9517132"></polygon>
                    <polygon id="Fill-78" fill="#727272" points="90.139485 41.9436654 103.444206 41.9436654 103.444206 41.2778929 90.139485 41.2778929"></polygon>
                    <polygon id="Fill-79" fill="#C7F4FF" points="10.3111588 55.9248872 23.6158798 55.9248872 23.6158798 39.2805755 10.3111588 39.2805755"></polygon>
                    <path d="M10.6437768,55.592001 L23.2832618,55.592001 L23.2832618,39.6134618 L10.6437768,39.6134618 L10.6437768,55.592001 Z M9.97854077,56.2577734 L23.9484979,56.2577734 L23.9484979,38.9476893 L9.97854077,38.9476893 L9.97854077,56.2577734 Z" id="Fill-80" fill="#727272"></path>
                    <polygon id="Fill-81" fill="#C7F4FF" points="10.3111588 57.9222046 23.6158798 57.9222046 23.6158798 55.9248872 10.3111588 55.9248872"></polygon>
                    <path d="M10.6437768,57.5893184 L23.2832618,57.5893184 L23.2832618,56.2577734 L10.6437768,56.2577734 L10.6437768,57.5893184 Z M9.97854077,58.2550908 L23.9484979,58.2550908 L23.9484979,55.592001 L9.97854077,55.592001 L9.97854077,58.2550908 Z" id="Fill-82" fill="#727272"></path>
                    <polygon id="Fill-83" fill="#727272" points="16.6309013 55.9248872 17.2961373 55.9248872 17.2961373 39.2805755 16.6309013 39.2805755"></polygon>
                    <polygon id="Fill-84" fill="#727272" points="10.3111588 45.2725277 23.6158798 45.2725277 23.6158798 44.6067553 10.3111588 44.6067553"></polygon>
                    <polygon id="Fill-85" fill="#C7F4FF" points="29.2703863 55.9248872 42.5751073 55.9248872 42.5751073 39.2805755 29.2703863 39.2805755"></polygon>
                    <path d="M29.6030043,55.592001 L42.2424893,55.592001 L42.2424893,39.6134618 L29.6030043,39.6134618 L29.6030043,55.592001 Z M28.9377682,56.2577734 L42.9077253,56.2577734 L42.9077253,38.9476893 L28.9377682,38.9476893 L28.9377682,56.2577734 Z" id="Fill-86" fill="#727272"></path>
                    <polygon id="Fill-87" fill="#C7F4FF" points="29.2703863 57.9222046 42.5751073 57.9222046 42.5751073 55.9248872 29.2703863 55.9248872"></polygon>
                    <path d="M29.6030043,57.5893184 L42.2424893,57.5893184 L42.2424893,56.2577734 L29.6030043,56.2577734 L29.6030043,57.5893184 Z M28.9377682,58.2550908 L42.9077253,58.2550908 L42.9077253,55.592001 L28.9377682,55.592001 L28.9377682,58.2550908 Z" id="Fill-88" fill="#727272"></path>
                    <polygon id="Fill-89" fill="#727272" points="35.5901288 55.9248872 36.2553648 55.9248872 36.2553648 39.2805755 35.5901288 39.2805755"></polygon>
                    <polygon id="Fill-90" fill="#727272" points="29.2703863 45.2725277 42.5751073 45.2725277 42.5751073 44.6067553 29.2703863 44.6067553"></polygon>
                    <polygon id="Fill-91" fill="#C7F4FF" points="10.3111588 80.5584685 23.6158798 80.5584685 23.6158798 63.9141568 10.3111588 63.9141568"></polygon>
                    <path d="M10.6437768,80.2255822 L23.2832618,80.2255822 L23.2832618,64.247043 L10.6437768,64.247043 L10.6437768,80.2255822 Z M9.97854077,80.8913547 L23.9484979,80.8913547 L23.9484979,63.5812706 L9.97854077,63.5812706 L9.97854077,80.8913547 Z" id="Fill-92" fill="#727272"></path>
                    <polygon id="Fill-93" fill="#C7F4FF" points="10.3111588 82.5557859 23.6158798 82.5557859 23.6158798 80.5584685 10.3111588 80.5584685"></polygon>
                    <path d="M10.6437768,82.2228996 L23.2832618,82.2228996 L23.2832618,80.8913547 L10.6437768,80.8913547 L10.6437768,82.2228996 Z M9.97854077,82.8886721 L23.9484979,82.8886721 L23.9484979,80.2255822 L9.97854077,80.2255822 L9.97854077,82.8886721 Z" id="Fill-94" fill="#727272"></path>
                    <polygon id="Fill-95" fill="#727272" points="16.6309013 80.5584685 17.2961373 80.5584685 17.2961373 63.9141568 16.6309013 63.9141568"></polygon>
                    <polygon id="Fill-96" fill="#727272" points="10.3111588 69.906109 23.6158798 69.906109 23.6158798 69.2403365 10.3111588 69.2403365"></polygon>
                    <polygon id="Fill-97" fill="#C7F4FF" points="29.2703863 80.5584685 42.5751073 80.5584685 42.5751073 63.9141568 29.2703863 63.9141568"></polygon>
                    <path d="M29.6030043,80.2255822 L42.2424893,80.2255822 L42.2424893,64.247043 L29.6030043,64.247043 L29.6030043,80.2255822 Z M28.9377682,80.8913547 L42.9077253,80.8913547 L42.9077253,63.5812706 L28.9377682,63.5812706 L28.9377682,80.8913547 Z" id="Fill-98" fill="#727272"></path>
                    <polygon id="Fill-99" fill="#C7F4FF" points="29.2703863 82.5557859 42.5751073 82.5557859 42.5751073 80.5584685 29.2703863 80.5584685"></polygon>
                    <path d="M29.6030043,82.2228996 L42.2424893,82.2228996 L42.2424893,80.8913547 L29.6030043,80.8913547 L29.6030043,82.2228996 Z M28.9377682,82.8886721 L42.9077253,82.8886721 L42.9077253,80.2255822 L28.9377682,80.2255822 L28.9377682,82.8886721 Z" id="Fill-100" fill="#727272"></path>
                    <polygon id="Fill-101" fill="#727272" points="35.5901288 80.5584685 36.2553648 80.5584685 36.2553648 63.9141568 35.5901288 63.9141568"></polygon>
                    <polygon id="Fill-102" fill="#727272" points="29.2703863 69.906109 42.5751073 69.906109 42.5751073 69.2403365 29.2703863 69.2403365"></polygon>
                    <polygon id="Fill-103" fill="#C7F4FF" points="9.97854077 105.19205 23.2832618 105.19205 23.2832618 88.5477381 9.97854077 88.5477381"></polygon>
                    <path d="M10.3111588,104.859164 L22.9506438,104.859164 L22.9506438,88.8806243 L10.3111588,88.8806243 L10.3111588,104.859164 Z M9.64592275,105.524936 L23.6158798,105.524936 L23.6158798,88.2148518 L9.64592275,88.2148518 L9.64592275,105.524936 Z" id="Fill-104" fill="#727272"></path>
                    <polygon id="Fill-105" fill="#C7F4FF" points="9.97854077 107.189367 23.2832618 107.189367 23.2832618 105.19205 9.97854077 105.19205"></polygon>
                    <path d="M10.3111588,106.856481 L22.9506438,106.856481 L22.9506438,105.524936 L10.3111588,105.524936 L10.3111588,106.856481 Z M9.64592275,107.522253 L23.6158798,107.522253 L23.6158798,104.859164 L9.64592275,104.859164 L9.64592275,107.522253 Z" id="Fill-106" fill="#727272"></path>
                    <polygon id="Fill-107" fill="#727272" points="16.2982833 105.19205 16.9635193 105.19205 16.9635193 88.5477381 16.2982833 88.5477381"></polygon>
                    <polygon id="Fill-108" fill="#727272" points="9.97854077 94.5396903 23.2832618 94.5396903 23.2832618 93.8739178 9.97854077 93.8739178"></polygon>
                    <polygon id="Fill-109" fill="#C7F4FF" points="28.9377682 105.19205 42.2424893 105.19205 42.2424893 88.5477381 28.9377682 88.5477381"></polygon>
                    <path d="M29.2703863,104.859164 L41.9098712,104.859164 L41.9098712,88.8806243 L29.2703863,88.8806243 L29.2703863,104.859164 Z M28.6051502,105.524936 L42.5751073,105.524936 L42.5751073,88.2148518 L28.6051502,88.2148518 L28.6051502,105.524936 Z" id="Fill-110" fill="#727272"></path>
                    <polygon id="Fill-111" fill="#C7F4FF" points="28.9377682 107.189367 42.2424893 107.189367 42.2424893 105.19205 28.9377682 105.19205"></polygon>
                    <path d="M29.2703863,106.856481 L41.9098712,106.856481 L41.9098712,105.524936 L29.2703863,105.524936 L29.2703863,106.856481 Z M28.6051502,107.522253 L42.5751073,107.522253 L42.5751073,104.859164 L28.6051502,104.859164 L28.6051502,107.522253 Z" id="Fill-112" fill="#727272"></path>
                    <polygon id="Fill-113" fill="#727272" points="35.2575107 105.19205 35.9227468 105.19205 35.9227468 88.5477381 35.2575107 88.5477381"></polygon>
                    <polygon id="Fill-114" fill="#727272" points="28.9377682 94.5396903 42.2424893 94.5396903 42.2424893 93.8739178 28.9377682 93.8739178"></polygon>
                    <polygon id="Fill-115" fill="#C7F4FF" points="112.092275 55.9248872 125.396996 55.9248872 125.396996 39.2805755 112.092275 39.2805755"></polygon>
                    <path d="M112.424893,55.592001 L125.064378,55.592001 L125.064378,39.6134618 L112.424893,39.6134618 L112.424893,55.592001 Z M111.759657,56.2577734 L125.729614,56.2577734 L125.729614,38.9476893 L111.759657,38.9476893 L111.759657,56.2577734 Z" id="Fill-116" fill="#727272"></path>
                    <polygon id="Fill-117" fill="#C7F4FF" points="112.092275 57.9222046 125.396996 57.9222046 125.396996 55.9248872 112.092275 55.9248872"></polygon>
                    <path d="M112.424893,57.5893184 L125.064378,57.5893184 L125.064378,56.2577734 L112.424893,56.2577734 L112.424893,57.5893184 Z M111.759657,58.2550908 L125.729614,58.2550908 L125.729614,55.592001 L111.759657,55.592001 L111.759657,58.2550908 Z" id="Fill-118" fill="#727272"></path>
                    <polygon id="Fill-119" fill="#727272" points="118.412017 55.9248872 119.077253 55.9248872 119.077253 39.2805755 118.412017 39.2805755"></polygon>
                    <polygon id="Fill-120" fill="#727272" points="112.092275 45.2725277 125.396996 45.2725277 125.396996 44.6067553 112.092275 44.6067553"></polygon>
                    <polygon id="Fill-121" fill="#C7F4FF" points="131.051502 55.9248872 144.356223 55.9248872 144.356223 39.2805755 131.051502 39.2805755"></polygon>
                    <path d="M131.38412,55.592001 L144.023605,55.592001 L144.023605,39.6134618 L131.38412,39.6134618 L131.38412,55.592001 Z M130.718884,56.2577734 L144.688841,56.2577734 L144.688841,38.9476893 L130.718884,38.9476893 L130.718884,56.2577734 Z" id="Fill-122" fill="#727272"></path>
                    <polygon id="Fill-123" fill="#C7F4FF" points="131.051502 57.9222046 144.356223 57.9222046 144.356223 55.9248872 131.051502 55.9248872"></polygon>
                    <path d="M131.38412,57.5893184 L144.023605,57.5893184 L144.023605,56.2577734 L131.38412,56.2577734 L131.38412,57.5893184 Z M130.718884,58.2550908 L144.688841,58.2550908 L144.688841,55.592001 L130.718884,55.592001 L130.718884,58.2550908 Z" id="Fill-124" fill="#727272"></path>
                    <polygon id="Fill-125" fill="#727272" points="137.371245 55.9248872 138.036481 55.9248872 138.036481 39.2805755 137.371245 39.2805755"></polygon>
                    <polygon id="Fill-126" fill="#727272" points="131.051502 45.2725277 144.356223 45.2725277 144.356223 44.6067553 131.051502 44.6067553"></polygon>
                    <polygon id="Fill-127" fill="#C7F4FF" points="112.092275 80.5584685 125.396996 80.5584685 125.396996 63.9141568 112.092275 63.9141568"></polygon>
                    <path d="M112.424893,80.2255822 L125.064378,80.2255822 L125.064378,64.247043 L112.424893,64.247043 L112.424893,80.2255822 Z M111.759657,80.8913547 L125.729614,80.8913547 L125.729614,63.5812706 L111.759657,63.5812706 L111.759657,80.8913547 Z" id="Fill-128" fill="#727272"></path>
                    <polygon id="Fill-129" fill="#C7F4FF" points="112.092275 82.5557859 125.396996 82.5557859 125.396996 80.5584685 112.092275 80.5584685"></polygon>
                    <path d="M112.424893,82.2228996 L125.064378,82.2228996 L125.064378,80.8913547 L112.424893,80.8913547 L112.424893,82.2228996 Z M111.759657,82.8886721 L125.729614,82.8886721 L125.729614,80.2255822 L111.759657,80.2255822 L111.759657,82.8886721 Z" id="Fill-130" fill="#727272"></path>
                    <polygon id="Fill-131" fill="#727272" points="118.412017 80.5584685 119.077253 80.5584685 119.077253 63.9141568 118.412017 63.9141568"></polygon>
                    <polygon id="Fill-132" fill="#727272" points="112.092275 69.906109 125.396996 69.906109 125.396996 69.2403365 112.092275 69.2403365"></polygon>
                    <polygon id="Fill-133" fill="#C7F4FF" points="131.051502 80.5584685 144.356223 80.5584685 144.356223 63.9141568 131.051502 63.9141568"></polygon>
                    <path d="M131.38412,80.2255822 L144.023605,80.2255822 L144.023605,64.247043 L131.38412,64.247043 L131.38412,80.2255822 Z M130.718884,80.8913547 L144.688841,80.8913547 L144.688841,63.5812706 L130.718884,63.5812706 L130.718884,80.8913547 Z" id="Fill-134" fill="#727272"></path>
                    <polygon id="Fill-135" fill="#C7F4FF" points="131.051502 82.5557859 144.356223 82.5557859 144.356223 80.5584685 131.051502 80.5584685"></polygon>
                    <path d="M131.38412,82.2228996 L144.023605,82.2228996 L144.023605,80.8913547 L131.38412,80.8913547 L131.38412,82.2228996 Z M130.718884,82.8886721 L144.688841,82.8886721 L144.688841,80.2255822 L130.718884,80.2255822 L130.718884,82.8886721 Z" id="Fill-136" fill="#727272"></path>
                    <polygon id="Fill-137" fill="#727272" points="137.371245 80.5584685 138.036481 80.5584685 138.036481 63.9141568 137.371245 63.9141568"></polygon>
                    <polygon id="Fill-138" fill="#727272" points="131.051502 69.906109 144.356223 69.906109 144.356223 69.2403365 131.051502 69.2403365"></polygon>
                    <polygon id="Fill-139" fill="#C7F4FF" points="111.759657 105.19205 125.064378 105.19205 125.064378 88.5477381 111.759657 88.5477381"></polygon>
                    <path d="M112.092275,104.859164 L124.73176,104.859164 L124.73176,88.8806243 L112.092275,88.8806243 L112.092275,104.859164 Z M111.427039,105.524936 L125.396996,105.524936 L125.396996,88.2148518 L111.427039,88.2148518 L111.427039,105.524936 Z" id="Fill-140" fill="#727272"></path>
                    <polygon id="Fill-141" fill="#C7F4FF" points="111.759657 107.189367 125.064378 107.189367 125.064378 105.19205 111.759657 105.19205"></polygon>
                    <path d="M112.092275,106.856481 L124.73176,106.856481 L124.73176,105.524936 L112.092275,105.524936 L112.092275,106.856481 Z M111.427039,107.522253 L125.396996,107.522253 L125.396996,104.859164 L111.427039,104.859164 L111.427039,107.522253 Z" id="Fill-142" fill="#727272"></path>
                    <polygon id="Fill-143" fill="#727272" points="118.079399 105.19205 118.744635 105.19205 118.744635 88.5477381 118.079399 88.5477381"></polygon>
                    <polygon id="Fill-144" fill="#727272" points="111.759657 94.5396903 125.064378 94.5396903 125.064378 93.8739178 111.759657 93.8739178"></polygon>
                    <polygon id="Fill-145" fill="#C7F4FF" points="130.718884 105.19205 144.023605 105.19205 144.023605 88.5477381 130.718884 88.5477381"></polygon>
                    <path d="M131.051502,104.859164 L143.690987,104.859164 L143.690987,88.8806243 L131.051502,88.8806243 L131.051502,104.859164 Z M130.386266,105.524936 L144.356223,105.524936 L144.356223,88.2148518 L130.386266,88.2148518 L130.386266,105.524936 Z" id="Fill-146" fill="#727272"></path>
                    <polygon id="Fill-147" fill="#C7F4FF" points="130.718884 107.189367 144.023605 107.189367 144.023605 105.19205 130.718884 105.19205"></polygon>
                    <path d="M131.051502,106.856481 L143.690987,106.856481 L143.690987,105.524936 L131.051502,105.524936 L131.051502,106.856481 Z M130.386266,107.522253 L144.356223,107.522253 L144.356223,104.859164 L130.386266,104.859164 L130.386266,107.522253 Z" id="Fill-148" fill="#727272"></path>
                    <polygon id="Fill-149" fill="#727272" points="137.038627 105.19205 137.703863 105.19205 137.703863 88.5477381 137.038627 88.5477381"></polygon>
                    <polygon id="Fill-150" fill="#727272" points="130.718884 94.5396903 144.023605 94.5396903 144.023605 93.8739178 130.718884 93.8739178"></polygon>
                    <g id="Group-204" transform="translate(0.000000, 0.093208)">
                        <path d="M89.0636652,29.2006805 L66.6016373,29.2006805 C64.9052854,29.2006805 63.5299099,27.824196 63.5299099,26.126809 L63.5299099,3.64633593 C63.5299099,1.94894903 64.9052854,0.572464456 66.6016373,0.572464456 L89.0636652,0.572464456 C90.7600172,0.572464456 92.1350601,1.94894903 92.1350601,3.64633593 L92.1350601,26.126809 C92.1350601,27.824196 90.7600172,29.2006805 89.0636652,29.2006805 Z" id="Fill-151" fill="#F9FEFF"></path>
                        <g id="Group-155" transform="translate(63.197425, 0.000000)">
                            <mask id="mask-2" fill="white">
                                <use xlink:href="#path-1"></use>
                            </mask>
                            <g id="Clip-154"></g>
                            <path d="M3.40414592,0.905350689 C1.89406009,0.905350689 0.665369099,2.13503244 0.665369099,3.64633593 L0.665369099,26.126809 C0.665369099,27.6381125 1.89406009,28.8677943 3.40414592,28.8677943 L25.8661738,28.8677943 C27.3762597,28.8677943 28.6052833,27.6381125 28.6052833,26.126809 L28.6052833,3.64633593 C28.6052833,2.13503244 27.3762597,0.905350689 25.8661738,0.905350689 L3.40414592,0.905350689 Z M25.8661738,29.5335668 L3.40414592,29.5335668 C1.52684979,29.5335668 0.000133047211,28.0052861 0.000133047211,26.126809 L0.000133047211,3.64633593 C0.000133047211,1.76785892 1.52684979,0.239578222 3.40414592,0.239578222 L25.8661738,0.239578222 C27.74347,0.239578222 29.2705193,1.76785892 29.2705193,3.64633593 L29.2705193,26.126809 C29.2705193,28.0052861 27.74347,29.5335668 25.8661738,29.5335668 L25.8661738,29.5335668 Z" id="Fill-153" fill="#727272" mask="url(#mask-2)"></path>
                        </g>
                        <polygon id="Fill-156" fill="#FF4D48" points="88.1437768 11.8905964 80.6598712 11.8905964 80.6598712 4.40065614 74.8390558 4.40065614 74.8390558 11.8905964 67.3551502 11.8905964 67.3551502 17.7161055 74.8390558 17.7161055 74.8390558 25.2060457 80.6598712 25.2060457 80.6598712 17.7161055 88.1437768 17.7161055"></polygon>
                        <path d="M75.1716738,24.8731595 L80.3272532,24.8731595 L80.3272532,17.3832192 L87.8111588,17.3832192 L87.8111588,12.2234826 L80.3272532,12.2234826 L80.3272532,4.73354237 L75.1716738,4.73354237 L75.1716738,12.2234826 L67.6877682,12.2234826 L67.6877682,17.3832192 L75.1716738,17.3832192 L75.1716738,24.8731595 Z M80.9924893,25.538932 L74.5064378,25.538932 L74.5064378,18.0489917 L67.0225322,18.0489917 L67.0225322,11.5577102 L74.5064378,11.5577102 L74.5064378,4.06776991 L80.9924893,4.06776991 L80.9924893,11.5577102 L88.4763948,11.5577102 L88.4763948,18.0489917 L80.9924893,18.0489917 L80.9924893,25.538932 Z" id="Fill-158" fill="#727272"></path>
                        <path d="M39.7241384,104.711895 C39.7241384,104.711895 41.6553187,127.129452 40.4964775,136.40566 L38.1791277,136.40566 C38.1791277,136.40566 37.4067886,120.17213 33.9312629,104.711895 L39.7241384,104.711895 Z" id="Fill-160" fill="#FFD9CF"></path>
                        <path d="M38.4946824,136.072774 L40.2013455,136.072774 C41.198867,127.365801 39.639221,107.72851 39.41803,105.044781 L34.3459378,105.044781 C37.4499292,119.054964 38.3649614,133.746232 38.4946824,136.072774 L38.4946824,136.072774 Z M40.7900794,136.738546 L37.8620429,136.738546 L37.8470751,136.421639 C37.8390923,136.259523 37.0354871,120.03831 33.6068605,104.78513 L33.5150579,104.379008 L40.0290494,104.379008 L40.0553262,104.683266 C40.0749506,104.907965 41.9761953,127.242301 40.8266674,136.446938 L40.7900794,136.738546 Z" id="Fill-162" fill="#727272"></path>
                        <path d="M25.0486652,104.711895 L31.2277103,104.711895 C31.2277103,104.711895 31.2277103,113.601622 28.1380215,119.785649 C25.0486652,125.969677 16.5522704,130.994594 16.5522704,130.994594 L15.0075923,129.448671 C15.0075923,129.448671 21.5728069,123.651124 23.8901567,118.626206 C26.2071738,113.601622 25.0486652,104.711895 25.0486652,104.711895" id="Fill-164" fill="#FFD9CF"></path>
                        <path d="M15.4907865,129.46152 L16.6023959,130.574026 C17.9481685,129.738149 25.1054431,125.11103 27.8405612,119.636716 C30.5264517,114.260936 30.8510869,106.710078 30.8900032,105.044648 L25.4227607,105.044648 C25.6183401,106.816268 26.2782543,114.241961 24.192074,118.765552 C22.1088873,123.282486 16.7583938,128.308735 15.4907865,129.46152 L15.4907865,129.46152 Z M16.4992843,131.412566 L14.5222028,129.433225 L14.7872994,129.198873 C14.8524925,129.141284 21.327235,123.389009 23.5880397,118.486594 C25.8375354,113.608479 24.7299174,104.842919 24.7186084,104.754704 L24.6697135,104.378875 L31.5605612,104.378875 L31.5605612,104.711761 C31.5605612,104.801641 31.5246384,113.751953 28.4356148,119.934649 C26.8127715,123.18262 23.711441,126.09604 21.3954217,127.968192 C18.895132,129.989145 16.7427607,131.268759 16.7211406,131.281409 L16.4992843,131.412566 Z" id="Fill-166" fill="#727272"></path>
                        <path d="M21.9589764,105.098409 L42.0414549,104.711928 C42.0414549,104.711928 42.0414549,91.5702452 36.6344163,87.3189551 L26.2071738,87.3189551 C26.2071738,87.3189551 20.4139657,92.7300209 21.9589764,105.098409" id="Fill-168" fill="#FE8380"></path>
                        <path d="M26.3460086,87.6518081 C25.6378648,88.3958088 20.9755579,93.7679268 22.2528112,104.75983 L41.7033155,104.385666 C41.6564163,102.355726 41.1840987,91.4540346 36.5178004,87.6518081 L26.3460086,87.6518081 Z M21.666073,105.437254 L21.6288197,105.139653 C20.0808155,92.7453003 25.7386481,87.3012789 25.9801288,87.075582 L26.0759227,86.9860356 L36.7496352,86.9860356 L36.8401073,87.0572733 C39.1484764,88.8725019 40.7812983,92.4030933 41.6930043,97.5515118 C42.3658906,101.353073 42.3738734,104.678606 42.3738734,104.711895 L42.3738734,105.038123 L21.666073,105.437254 Z" id="Fill-170" fill="#727272"></path>
                        <mask id="mask-4" fill="white">
                            <use xlink:href="#path-3"></use>
                        </mask>
                        <g id="Clip-173"></g>
                        <polygon id="Fill-172" fill="#FE8380" mask="url(#mask-4)" points="26.2073069 87.319055 36.6345494 87.319055 36.6345494 84.6133557 26.2073069 84.6133557"></polygon>
                        <path d="M26.5399249,86.9861688 L36.3022639,86.9861688 L36.3022639,84.9462419 L26.5399249,84.9462419 L26.5399249,86.9861688 Z M25.8746888,87.6519412 L36.9675,87.6519412 L36.9675,84.2804695 L25.8746888,84.2804695 L25.8746888,87.6519412 Z" id="Fill-174" fill="#727272" mask="url(#mask-4)"></path>
                        <path d="M18.6451363,54.4655805 C18.617529,56.2774803 18.5277221,62.390936 18.5277221,62.390936 C18.418956,68.8565853 18.6764024,75.2899446 18.6764024,77.0765451 C18.6764024,79.0089496 22.9242672,78.6224687 22.9242672,78.6224687 L37.2138702,78.6224687 C37.2138702,78.6224687 39.1447178,78.6224687 39.1447178,75.9167694 L38.8872715,59.0793837 L23.8901899,61.2294959 L23.6969388,61.2294959 L21.7660912,54.2721736" id="Fill-175" fill="#FEC580" mask="url(#mask-4)"></path>
                        <path d="M22.0866019,78.9879778 C21.1279968,78.9879778 19.5942951,78.8684716 18.8325998,78.1724065 C18.5082972,77.8758049 18.3436513,77.5072998 18.3436513,77.0765451 C18.3436513,76.5682278 18.3223637,75.6607799 18.2954217,74.5116566 C18.224574,71.5220054 18.117471,67.0047392 18.1953036,62.3852769 C18.1953036,62.3859427 18.2847779,56.2728199 18.3123852,54.4602544 C18.3153788,54.2765012 18.4760333,54.139352 18.6499925,54.1326943 C18.8339303,54.1356903 18.9806148,54.2868206 18.9776212,54.4709067 C18.9500139,56.2824736 18.8605397,62.3955964 18.8605397,62.3955964 C18.7827071,67.002409 18.8898101,71.5116859 18.9599925,74.496011 C18.9872672,75.6494618 19.0088873,76.5605714 19.0088873,77.0765451 C19.0088873,77.3155574 19.098029,77.5129589 19.2809689,77.6804007 C20.0459903,78.3801275 22.1484689,78.3581571 22.8945311,78.290914 L37.2137371,78.2895825 C37.2766019,78.2885838 38.8122994,78.238318 38.8122994,75.9167694 L38.5605075,59.4628687 L23.8900569,61.5623821 L23.4440161,61.5623821 L21.4453144,54.3613871 C21.3960869,54.1839588 21.4998637,54.0005385 21.6768165,53.9512713 C21.8541019,53.9036686 22.0373745,54.0061975 22.0862693,54.1829601 L23.9466019,60.8852915 L39.2141019,58.6962317 L39.4775354,75.9117761 C39.4775354,78.9207348 37.2363552,78.955355 37.2137371,78.955355 L22.9247994,78.955355 C22.8941985,78.9586838 22.5609152,78.9879778 22.0866019,78.9879778" id="Fill-176" fill="#727272" mask="url(#mask-4)"></path>
                        <polygon id="Fill-177" fill="#FFD9CF" mask="url(#mask-4)" points="28.7175751 69.3461944 32.1931009 69.3461944 32.1931009 63.9347958 28.7175751 63.9347958"></polygon>
                        <path d="M29.0501931,69.0133081 L31.8604828,69.0133081 L31.8604828,64.267682 L29.0501931,64.267682 L29.0501931,69.0133081 Z M28.3849571,69.6790806 L32.5257189,69.6790806 L32.5257189,63.6019095 L28.3849571,63.6019095 L28.3849571,69.6790806 Z" id="Fill-178" fill="#727272" mask="url(#mask-4)"></path>
                        <path d="M22.1892479,58.3877127 C23.5506534,62.424957 26.9483466,65.2881114 30.927456,65.2881114 C36.1056534,65.2881114 40.3032929,60.4426194 40.3032929,54.4656471 C40.3032929,48.4886748 36.1056534,43.6431828 30.927456,43.6431828 C25.7492586,43.6431828 21.5516191,48.4886748 21.5516191,54.4656471 C21.5516191,54.4799612 21.552617,54.4942753 21.552617,54.5085894" id="Fill-179" fill="#FFD9CF" mask="url(#mask-4)"></path>
                        <path d="M30.9276223,65.6208645 C26.8876438,65.6208645 23.3339528,62.8236215 21.8740923,58.4941032 L22.5044034,58.2813889 C23.8711309,62.3356103 27.1776867,64.9550921 30.9276223,64.9550921 C35.9142318,64.9550921 39.9705086,60.2494123 39.9705086,54.465514 C39.9705086,48.6816157 35.9142318,43.9762687 30.9276223,43.9762687 C25.9410129,43.9762687 21.8847361,48.6816157 21.8847361,54.465514 L21.2198326,54.5084563 L21.2195,54.465514 C21.2195,48.314775 25.5744678,43.3104963 30.9276223,43.3104963 C36.2807768,43.3104963 40.6357446,48.314775 40.6357446,54.465514 C40.6357446,60.6165858 36.2807768,65.6208645 30.9276223,65.6208645" id="Fill-180" fill="#727272" mask="url(#mask-4)"></path>
                        <path d="M32.0242307,60.5960134 C31.1886942,60.5960134 30.508823,59.915594 30.508823,59.0793837 C30.508823,58.8956305 30.6581685,58.7464975 30.841441,58.7464975 C31.0250461,58.7464975 31.174059,58.8956305 31.174059,59.0793837 C31.174059,59.5487533 31.5555719,59.9302409 32.0242307,59.9302409 C32.4932221,59.9302409 32.874735,59.5487533 32.874735,59.0793837 C32.874735,58.8956305 33.0234152,58.7464975 33.207353,58.7464975 C33.3906255,58.7464975 33.539971,58.8956305 33.539971,59.0793837 C33.539971,59.915594 32.8597672,60.5960134 32.0242307,60.5960134" id="Fill-181" fill="#727272" mask="url(#mask-4)"></path>
                        <path d="M28.7175418,56.15115 C28.5336041,56.15115 28.3849238,56.0023498 28.3849238,55.8182637 C28.3849238,55.5273212 28.0509753,55.2816511 27.6554925,55.2816511 C27.2600097,55.2816511 26.9257285,55.5273212 26.9257285,55.8182637 C26.9257285,56.0023498 26.7770483,56.15115 26.5931105,56.15115 C26.409838,56.15115 26.2604925,56.0023498 26.2604925,55.8182637 C26.2604925,55.1551544 26.886147,54.6158787 27.6554925,54.6158787 C28.4245054,54.6158787 29.0501599,55.1551544 29.0501599,55.8182637 C29.0501599,56.0023498 28.9014796,56.15115 28.7175418,56.15115" id="Fill-182" fill="#727272" mask="url(#mask-4)"></path>
                        <path d="M37.2136041,56.15115 C37.0299989,56.15115 36.8809861,56.0023498 36.8809861,55.8182637 C36.8809861,55.5273212 36.5470376,55.2816511 36.1518873,55.2816511 C35.7564045,55.2816511 35.422456,55.5273212 35.422456,55.8182637 C35.422456,56.0023498 35.2734431,56.15115 35.089838,56.15115 C34.9062328,56.15115 34.75722,56.0023498 34.75722,55.8182637 C34.75722,55.1551544 35.3828745,54.6158787 36.1518873,54.6158787 C36.9205676,54.6158787 37.5462221,55.1551544 37.5462221,55.8182637 C37.5462221,56.0023498 37.3975418,56.15115 37.2136041,56.15115" id="Fill-183" fill="#727272" mask="url(#mask-4)"></path>
                        <path d="M26.7997994,55.5022881 C26.5021062,55.5022881 25.9469667,55.4490263 25.5857436,55.0875119 C25.4556899,54.9573534 25.4556899,54.7466364 25.5857436,54.6168108 C25.7154646,54.4866522 25.9260118,54.4866522 26.0560655,54.6168108 C26.28025,54.8408432 26.7731899,54.8458365 26.9295204,54.8311895 C27.1137908,54.8155438 27.2754431,54.946701 27.2934045,55.1294556 C27.3120311,55.3122101 27.1786513,55.4753244 26.996044,55.493966 C26.9724281,55.4959633 26.9012479,55.5022881 26.7997994,55.5022881" id="Fill-184" fill="#727272" mask="url(#mask-4)"></path>
                        <path d="M37.1837017,55.5022881 C37.0822532,55.5022881 37.011073,55.4959633 36.9874571,55.493966 C36.8048498,55.4753244 36.67147,55.3122101 36.6900966,55.1291227 C36.7080579,54.946701 36.8690451,54.8158767 37.0529828,54.8311895 C37.2216202,54.8475009 37.7049142,54.8395116 37.927103,54.6168108 C38.0571567,54.4866522 38.2677039,54.4866522 38.3974249,54.6168108 C38.5274785,54.7466364 38.5274785,54.9573534 38.3974249,55.0875119 C38.0365343,55.4486935 37.4813948,55.5022881 37.1837017,55.5022881" id="Fill-185" fill="#727272" mask="url(#mask-4)"></path>
                        <path d="M28.9104936,57.9443083 C28.9104936,58.3710684 28.3054614,58.7169372 27.5590665,58.7169372 C26.8123391,58.7169372 26.2073069,58.3710684 26.2073069,57.9443083 C26.2073069,57.5172152 26.8123391,57.1713464 27.5590665,57.1713464 C28.3054614,57.1713464 28.9104936,57.5172152 28.9104936,57.9443083" id="Fill-186" fill="#FF9494" mask="url(#mask-4)"></path>
                        <path d="M37.6001395,57.7509014 C37.6001395,58.1776615 36.9951073,58.5238632 36.2483798,58.5238632 C35.5016524,58.5238632 34.8966202,58.1776615 34.8966202,57.7509014 C34.8966202,57.3241412 35.5016524,56.9779395 36.2483798,56.9779395 C36.9951073,56.9779395 37.6001395,57.3241412 37.6001395,57.7509014" id="Fill-187" fill="#FF9494" mask="url(#mask-4)"></path>
                        <path d="M25.4349013,67.9933114 L28.5242575,66.8338687 L31.2277768,68.7662733 L32.7727876,67.2203496 L35.0894721,67.6068305 C35.0894721,67.6068305 36.8277339,68.1867183 37.0206524,69.539568 C37.1427232,70.3950856 37.0206524,76.4965574 37.0206524,77.2695192 C37.0206524,79.2022567 36.6344828,84.6133224 36.6344828,84.6133224 L27.027809,84.7581279 L25.4349013,67.9933114 Z" id="Fill-188" fill="#FE8380" mask="url(#mask-4)"></path>
                        <path d="M25.7899045,68.2156794 L27.329926,84.4209142 L36.32425,84.2847637 C36.4047436,83.116333 36.6881341,78.9053222 36.6881341,77.2695192 C36.6881341,77.0987486 36.6937886,76.6686596 36.7021041,76.0921006 C36.7283809,74.1886571 36.7829303,70.2279767 36.6914603,69.5865049 C36.5407843,68.5312556 35.1953444,68.000302 35.0060848,67.9303959 L32.8869753,67.5768707 L31.2634667,69.2010227 L28.4751298,67.2076999 L25.7899045,68.2156794 Z M26.725559,85.0956746 L25.0794324,67.7709434 L28.5735848,66.4600374 L31.1919539,68.3318567 L32.6581341,66.8634955 L35.1950118,67.2912544 C35.2738423,67.3175524 37.1305161,67.953698 37.350044,69.4922981 C37.4411813,70.1317726 37.4065891,73.2389327 37.3673401,76.1010885 C37.3590247,76.6729871 37.3533702,77.0997472 37.3533702,77.2695192 C37.3533702,79.1922701 36.9821685,84.415588 36.9665354,84.6369573 L36.9445826,84.9415482 L26.725559,85.0956746 Z" id="Fill-189" fill="#727272" mask="url(#mask-4)"></path>
                        <path d="M34.205074,98.4533672 L34.205074,98.4533672 C33.5158895,98.7223392 32.7319088,98.4736732 32.3237865,97.8558364 L26.9390333,89.7117747 C24.6396448,86.2344451 23.2403208,82.2391445 22.8667908,78.085723 L22.162971,70.2615649 C22.0535397,69.0432013 23.0121448,67.9932781 24.2341835,67.9932781 C25.340471,67.9932781 26.2528423,68.859781 26.311383,69.9649633 L26.6912328,77.1626294 C26.9220697,81.5344243 28.2887972,85.7697359 30.6563723,89.4511247 L34.9564582,96.1361461 C35.4943015,96.9726892 35.1310826,98.0925185 34.205074,98.4533672" id="Fill-190" fill="#FFD9CF" mask="url(#mask-4)"></path>
                        <path d="M24.2343498,68.3261977 C23.7380837,68.3261977 23.2800687,68.5279267 22.9447897,68.8951002 C22.6095107,69.2619409 22.4498541,69.7366366 22.4944249,70.2316385 L23.1982446,78.0561294 C23.5654549,82.1409763 24.955133,86.1079816 27.216603,89.5280547 L32.6010236,97.6721164 C32.9206695,98.1554673 33.5443283,98.3538675 34.0845,98.1431505 C34.4324185,98.0076658 34.6981803,97.7257111 34.8132661,97.3705215 C34.9286845,97.014999 34.8787918,96.6305154 34.6768927,96.3162708 L30.3768069,89.6312495 C27.9816245,85.9072512 26.5926116,81.6020335 26.3591137,77.1803057 L25.9792639,69.9826396 C25.9300365,69.053887 25.1636845,68.3261977 24.2343498,68.3261977 M33.6414528,98.8918116 C33.015133,98.8918116 32.4054442,98.5832261 32.0462167,98.0396229 L26.6617961,89.8955612 C24.3394571,86.3836114 22.9128584,82.3100826 22.5356695,78.115716 L21.8315172,70.2912251 C21.7713133,69.6177962 21.9978262,68.9450332 22.4538455,68.4457038 C22.9098648,67.9467074 23.5588026,67.6604252 24.2343498,67.6604252 C25.5172575,67.6604252 26.5756481,68.6650758 26.6431695,69.9473536 L27.0233519,77.1450198 C27.25053,81.451569 28.6039528,85.6442711 30.9359378,89.2710666 L35.2360236,95.9560879 C35.5466888,96.4391058 35.623191,97.029646 35.4459056,97.5759123 C35.2692854,98.1225115 34.8604979,98.5552636 34.3259807,98.7636504 C34.1034592,98.8502008 33.8712918,98.8918116 33.6414528,98.8918116" id="Fill-191" fill="#727272" mask="url(#mask-4)"></path>
                        <path d="M35.0895719,71.4720391 C36.796235,71.4720391 38.1792607,72.8561801 38.1792607,74.5642194 C38.1792607,76.2719257 36.796235,77.6560667 35.0895719,77.6560667" id="Fill-192" fill="#FE8380" mask="url(#mask-4)"></path>
                        <path d="M35.0899045,77.9890195 L35.0899045,77.323247 C36.6099689,77.323247 37.8466427,76.085576 37.8466427,74.5642859 C37.8466427,73.0429959 36.6099689,71.804992 35.0899045,71.804992 L35.0899045,71.1392195 C36.9768466,71.1392195 38.5118788,72.6754895 38.5118788,74.5642859 C38.5118788,76.4527495 36.9768466,77.9890195 35.0899045,77.9890195" id="Fill-193" fill="#727272" mask="url(#mask-4)"></path>
                        <path d="M21.7660247,54.2721736 C21.7660247,54.2721736 29.3843079,53.0398288 29.1754238,46.9982766 C29.1621191,46.6131272 29.6567221,46.4560049 29.8576234,46.7845636 C30.7284174,48.208318 32.0628809,49.9556378 33.7379453,50.7938454 C36.8276341,52.3397691 40.1521513,53.1130638 40.2279882,54.2721736 C40.3031599,55.4316164 41.6446084,49.612765 39.9169903,46.1554086 C38.7588144,43.8365231 36.0712607,41.5176376 31.4205955,41.5176376 C27.5589002,41.5176376 25.3682779,41.6907384 23.3107028,43.0635613 C19.8348444,45.3827797 18.6763358,50.0208836 18.6763358,51.9532881 C18.6763358,52.290169 18.6646942,53.191292 18.6450697,54.4655805" id="Fill-194" fill="#FEC580" mask="url(#mask-4)"></path>
                        <path d="M18.6454356,54.7984668 L18.6401137,54.7984668 C18.4565086,54.7954708 18.3094914,54.6443404 18.312485,54.4602544 C18.3321094,53.1886289 18.3437511,52.2895032 18.3437511,51.9532881 C18.3437511,50.0035735 19.5125708,45.1976949 23.126133,42.7865999 C25.180382,41.4161073 27.3453927,41.1847514 31.4206288,41.1847514 C37.1829034,41.1847514 39.4902747,44.556556 40.2150494,46.0066085 C41.7184828,49.0168987 41.0159936,54.0914164 40.5513262,54.625033 C40.4508755,54.7408775 40.30153,54.7844856 40.1628283,54.7368828 C39.9193519,54.6546599 39.9023884,54.3923456 39.8960687,54.2938112 C39.8594807,53.7345624 38.2476137,53.0807738 36.688633,52.44829 C35.7303605,52.0598117 34.6443627,51.6194032 33.5892983,51.0914457 C31.8177747,50.2049696 30.4280966,48.354788 29.5736009,46.9583302 C29.5639549,46.941353 29.5573026,46.9343624 29.5366803,46.9410201 C29.5067446,46.950008 29.5074099,46.9729772 29.5080751,46.9869584 C29.7246094,53.2492142 21.8981073,54.5880827 21.8189442,54.6007323 C21.6350064,54.631025 21.4667017,54.5068584 21.4377639,54.3254354 C21.4084936,54.1440124 21.5312296,53.9732418 21.7125064,53.9436149 C21.731133,53.9406189 23.5951245,53.6283717 25.4005751,52.6020834 C27.7664871,51.2575559 28.9246631,49.3760829 28.8428391,47.0099276 C28.8318627,46.681036 29.0334292,46.3974169 29.3457575,46.3032101 C29.6524313,46.2110006 29.9727425,46.3345014 30.1417124,46.610797 C30.9499742,47.9326882 32.2561652,49.680008 33.8866588,50.4959122 C34.9181073,51.0122188 35.9914657,51.4476339 36.9384292,51.8314518 C38.448515,52.4439624 39.6522597,52.9319737 40.2150494,53.5315018 C40.4954464,52.053154 40.7681931,48.603454 39.6199957,46.3042088 C38.9507682,44.9653403 36.8120343,41.8505238 31.4206288,41.8505238 C27.4065944,41.8505238 25.4182039,42.0575791 23.4950064,43.3405226 C20.1056288,45.6021517 19.0089871,50.1197508 19.0089871,51.9532881 C19.0089871,52.2908348 18.9973455,53.1939551 18.977721,54.4709067 C18.9747275,54.6529955 18.8267124,54.7984668 18.6454356,54.7984668" id="Fill-195" fill="#727272" mask="url(#mask-4)"></path>
                        <path d="M21.552617,54.5084896 C21.428883,54.4805271 21.3004925,54.4655473 21.1691084,54.4655473 C20.1123809,54.4655473 19.2555569,55.417269 19.2555569,56.5913587 C19.2555569,57.7654485 20.1123809,58.7171702 21.1691084,58.7171702 C21.5446341,58.7171702 21.8935504,58.595001 22.1892479,58.3876129" id="Fill-196" fill="#FFD9CF" mask="url(#mask-4)"></path>
                        <path d="M21.1690086,59.0499233 C19.9303391,59.0499233 18.9228391,57.9470712 18.9228391,56.5912256 C18.9228391,55.2357128 19.9303391,54.1328607 21.1690086,54.1328607 C21.3220129,54.1328607 21.4756824,54.1498379 21.6256931,54.1837923 C21.8049742,54.2240716 21.9177318,54.4021657 21.8771524,54.5815914 C21.836573,54.7610171 21.6592876,54.8738655 21.4796738,54.8332534 C21.3772275,54.8102842 21.2727854,54.7986332 21.1690086,54.7986332 C20.2975494,54.7986332 19.5880751,55.6028864 19.5880751,56.5912256 C19.5880751,57.5798977 20.2975494,58.3841508 21.1690086,58.3841508 C21.4610472,58.3841508 21.7474313,58.2912756 21.9982253,58.1151788 C22.1489013,58.0093209 22.3561223,58.0459384 22.4615622,58.1967359 C22.5670021,58.3472005 22.5307468,58.5549215 22.3804034,58.6601135 C22.0171845,58.9154373 21.5980858,59.0499233 21.1690086,59.0499233" id="Fill-197" fill="#727272" mask="url(#mask-4)"></path>
                        <path d="M31.2911073,77.9086941 C29.971279,78.9909072 28.0247983,78.7975003 26.9434571,77.4762748" id="Fill-198" fill="#FE8380" mask="url(#mask-4)"></path>
                        <path d="M29.3363112,78.9402086 C28.3454421,78.9402086 27.3615579,78.5127827 26.6860107,77.6872249 L27.2005708,77.265458 C28.1641652,78.4418779 29.9044227,78.6146459 31.0802275,77.6512731 L31.5019871,78.1662481 C30.8670193,78.6868822 30.0993369,78.9402086 29.3363112,78.9402086" id="Fill-199" fill="#727272" mask="url(#mask-4)"></path>
                        <path d="M15.9728165,128.482368 L13.2696298,130.414773 L17.5178273,136.985614 C17.5178273,136.985614 19.8348444,135.439358 17.5178273,131.187735 L15.9728165,128.482368 Z" id="Fill-200" fill="#FFFFFF" mask="url(#mask-4)"></path>
                        <path d="M13.7211588,130.500824 L17.5838519,136.475133 C18.0594957,135.935525 18.8970279,134.413569 17.2256223,131.347021 L15.8668777,128.96755 L13.7211588,130.500824 Z M17.4215343,137.449824 L12.8174356,130.328389 L16.0794206,127.997187 L17.8063734,131.022457 C20.2447961,135.496115 17.8070386,137.192836 17.7022639,137.262409 L17.4215343,137.449824 Z" id="Fill-201" fill="#727272" mask="url(#mask-4)"></path>
                        <path d="M37.8443809,134.825116 L38.0276534,138.144991 L45.8471706,138.07342 C45.8471706,138.07342 45.7833079,135.287162 40.9550247,134.96859 L37.8443809,134.825116 Z" id="Fill-202" fill="#FFFFFF" mask="url(#mask-4)"></path>
                        <path d="M38.1971556,135.17458 L38.342177,137.809042 L45.4518873,137.744129 C45.2513187,137.053057 44.415117,135.530436 40.9329388,135.300744 L38.1971556,135.17458 Z M37.7128637,138.480806 L37.492338,134.475519 L40.9701921,134.63597 C46.0505998,134.971187 46.176662,137.939533 46.179323,138.06603 L46.1869732,138.402911 L37.7128637,138.480806 Z" id="Fill-203" fill="#727272" mask="url(#mask-4)"></path>
                    </g>
                </g>
            </g>
        </g>
    </g>
</svg>